  0
SECTION
  2
HEADER
  9
$ANGBASE
  50
0.0
  9
$ANGDIR
  70
1
  9
$MEASUREMENT
  70
1
  0
ENDSEC
  0
SECTION
  2
TABLES
  0
TABLE
  2
LTYPE
  70
4
  0
LTYPE
  5
40F
  2
CONTINUOUS
  70
0
  3
Solid line
  72
65
  73
0
  40
0.0
  0
LTYPE
  5
410
  2
DASHDOT
 70
0
  3
Dash Dot ____ _ ____ _
 72
65
 73
4
 40
2.0
 49
1.25
 49
-0.25
 49
0.25
 49
-0.25
  0
LTYPE
  5
411
  2
DASHED
 70
0
  3
Dashed __ __ __ __ __
 72
65
 73
2
 40
0.75
 49
0.5
 49
-0.25
  0
LTYPE
  5
43B
  2
DOTTED
 70
0
  3
Dotted .  .  .  .
 72
65
 73
2
 40
0.2
 49
0.0
 49
-0.2
  0
ENDTAB
  0
TABLE
  2
STYLE
  70
4
  0
STYLE
  2
KICAD
  70
0
  40
0
  41
1
  42
1
  50
0
  71
0
  3
isocp.shx
  0
STYLE
  2
KICADB
  70
0
  40
0
  41
1
  42
1
  50
0
  71
0
  3
isocp.shx
  0
STYLE
  2
KICADI
  70
0
  40
0
  41
1
  42
1
  50
15
  71
0
  3
isocp.shx
  0
STYLE
  2
KICADBI
  70
0
  40
0
  41
1
  42
1
  50
15
  71
0
  3
isocp.shx
  0
ENDTAB
  0
TABLE
  2
LAYER
  70
1
  0
LAYER
  2
BLACK
  70
0
  62
7
  6
CONTINUOUS
  0
ENDTAB
  0
ENDSEC
  0
SECTION
  2
ENTITIES
0
LINE
8
BLACK
6
CONTINUOUS
10
166.276
20
-124.407
11
181.864
21
-133.407
0
LINE
8
BLACK
6
CONTINUOUS
10
181.864
20
-133.407
11
181.892
21
-133.443
0
LINE
8
BLACK
6
CONTINUOUS
10
181.892
20
-133.443
11
181.886
21
-133.489
0
LINE
8
BLACK
6
CONTINUOUS
10
181.886
20
-133.489
11
181.886
21
-133.489
0
LINE
8
BLACK
6
CONTINUOUS
10
181.886
20
-133.489
11
173.386
21
-148.211
0
LINE
8
BLACK
6
CONTINUOUS
10
173.386
20
-148.211
11
173.35
21
-148.239
0
LINE
8
BLACK
6
CONTINUOUS
10
173.35
20
-148.239
11
173.304
21
-148.233
0
LINE
8
BLACK
6
CONTINUOUS
10
173.304
20
-148.233
11
157.716
21
-139.233
0
LINE
8
BLACK
6
CONTINUOUS
10
157.716
20
-139.233
11
157.688
21
-139.197
0
LINE
8
BLACK
6
CONTINUOUS
10
157.688
20
-139.197
11
157.694
21
-139.151
0
LINE
8
BLACK
6
CONTINUOUS
10
157.694
20
-139.151
11
166.194
21
-124.429
0
LINE
8
BLACK
6
CONTINUOUS
10
166.194
20
-124.429
11
166.23
21
-124.401
0
LINE
8
BLACK
6
CONTINUOUS
10
166.23
20
-124.401
11
166.276
21
-124.407
0
LINE
8
BLACK
6
CONTINUOUS
10
157.828
20
-139.159
11
173.312
21
-148.099
0
LINE
8
BLACK
6
CONTINUOUS
10
173.312
20
-148.099
11
181.752
21
-133.481
0
LINE
8
BLACK
6
CONTINUOUS
10
181.752
20
-133.481
11
166.268
21
-124.541
0
LINE
8
BLACK
6
CONTINUOUS
10
166.268
20
-124.541
11
157.828
21
-139.159
0
LINE
8
BLACK
6
CONTINUOUS
10
162.688
20
-122.685
11
162.722
21
-122.716
0
LINE
8
BLACK
6
CONTINUOUS
10
162.722
20
-122.716
11
162.724
21
-122.762
0
LINE
8
BLACK
6
CONTINUOUS
10
162.724
20
-122.762
11
162.724
21
-122.762
0
LINE
8
BLACK
6
CONTINUOUS
10
162.724
20
-122.762
11
156.909
21
-138.737
0
LINE
8
BLACK
6
CONTINUOUS
10
156.909
20
-138.737
11
156.878
21
-138.77
0
LINE
8
BLACK
6
CONTINUOUS
10
156.878
20
-138.77
11
156.833
21
-138.772
0
LINE
8
BLACK
6
CONTINUOUS
10
156.833
20
-138.772
11
139.918
21
-132.616
0
LINE
8
BLACK
6
CONTINUOUS
10
139.918
20
-132.616
11
139.884
21
-132.585
0
LINE
8
BLACK
6
CONTINUOUS
10
139.884
20
-132.585
11
139.882
21
-132.539
0
LINE
8
BLACK
6
CONTINUOUS
10
139.882
20
-132.539
11
145.697
21
-116.564
0
LINE
8
BLACK
6
CONTINUOUS
10
145.697
20
-116.564
11
145.728
21
-116.531
0
LINE
8
BLACK
6
CONTINUOUS
10
145.728
20
-116.531
11
145.728
21
-116.531
0
LINE
8
BLACK
6
CONTINUOUS
10
145.728
20
-116.531
11
145.773
21
-116.529
0
LINE
8
BLACK
6
CONTINUOUS
10
145.773
20
-116.529
11
162.688
21
-122.685
0
LINE
8
BLACK
6
CONTINUOUS
10
140.015
20
-132.524
11
156.817
21
-138.639
0
LINE
8
BLACK
6
CONTINUOUS
10
156.817
20
-138.639
11
162.59
21
-122.777
0
LINE
8
BLACK
6
CONTINUOUS
10
162.59
20
-122.777
11
145.789
21
-116.662
0
LINE
8
BLACK
6
CONTINUOUS
10
145.789
20
-116.662
11
140.015
21
-132.524
0
LINE
8
BLACK
6
CONTINUOUS
10
124.107
20
-112.278
11
141.834
21
-115.403
0
LINE
8
BLACK
6
CONTINUOUS
10
141.834
20
-115.403
11
141.848
21
-115.412
0
LINE
8
BLACK
6
CONTINUOUS
10
141.848
20
-115.412
11
141.873
21
-115.428
0
LINE
8
BLACK
6
CONTINUOUS
10
141.873
20
-115.428
11
141.883
21
-115.473
0
LINE
8
BLACK
6
CONTINUOUS
10
141.883
20
-115.473
11
138.931
21
-132.215
0
LINE
8
BLACK
6
CONTINUOUS
10
138.931
20
-132.215
11
138.906
21
-132.253
0
LINE
8
BLACK
6
CONTINUOUS
10
138.906
20
-132.253
11
138.861
21
-132.263
0
LINE
8
BLACK
6
CONTINUOUS
10
138.861
20
-132.263
11
121.134
21
-129.138
0
LINE
8
BLACK
6
CONTINUOUS
10
121.134
20
-129.138
11
121.096
21
-129.113
0
LINE
8
BLACK
6
CONTINUOUS
10
121.096
20
-129.113
11
121.086
21
-129.068
0
LINE
8
BLACK
6
CONTINUOUS
10
121.086
20
-129.068
11
121.086
21
-129.068
0
LINE
8
BLACK
6
CONTINUOUS
10
121.086
20
-129.068
11
124.038
21
-112.326
0
LINE
8
BLACK
6
CONTINUOUS
10
124.038
20
-112.326
11
124.053
21
-112.302
0
LINE
8
BLACK
6
CONTINUOUS
10
124.053
20
-112.302
11
124.063
21
-112.288
0
LINE
8
BLACK
6
CONTINUOUS
10
124.063
20
-112.288
11
124.107
21
-112.278
0
LINE
8
BLACK
6
CONTINUOUS
10
121.214
20
-129.03
11
138.823
21
-132.135
0
LINE
8
BLACK
6
CONTINUOUS
10
138.823
20
-132.135
11
141.754
21
-115.511
0
LINE
8
BLACK
6
CONTINUOUS
10
141.754
20
-115.511
11
124.146
21
-112.406
0
LINE
8
BLACK
6
CONTINUOUS
10
124.146
20
-112.406
11
121.214
21
-129.03
0
LINE
8
BLACK
6
CONTINUOUS
10
57.87
20
-71.005
11
57.9124
21
-71.0226
0
LINE
8
BLACK
6
CONTINUOUS
10
57.9124
20
-71.0226
11
57.93
21
-71.065
0
LINE
8
BLACK
6
CONTINUOUS
10
57.93
20
-71.065
11
57.93
21
-88.065
0
LINE
8
BLACK
6
CONTINUOUS
10
57.93
20
-88.065
11
57.93
21
-88.065
0
LINE
8
BLACK
6
CONTINUOUS
10
57.93
20
-88.065
11
57.93
21
-105.065
0
LINE
8
BLACK
6
CONTINUOUS
10
57.93
20
-105.065
11
57.9124
21
-105.107
0
LINE
8
BLACK
6
CONTINUOUS
10
57.9124
20
-105.107
11
57.8937
21
-105.115
0
LINE
8
BLACK
6
CONTINUOUS
10
57.8937
20
-105.115
11
57.9124
21
-105.123
0
LINE
8
BLACK
6
CONTINUOUS
10
57.9124
20
-105.123
11
57.93
21
-105.165
0
LINE
8
BLACK
6
CONTINUOUS
10
57.93
20
-105.165
11
57.93
21
-122.165
0
LINE
8
BLACK
6
CONTINUOUS
10
57.93
20
-122.165
11
57.9124
21
-122.208
0
LINE
8
BLACK
6
CONTINUOUS
10
57.9124
20
-122.208
11
57.87
21
-122.225
0
LINE
8
BLACK
6
CONTINUOUS
10
57.87
20
-122.225
11
39.87
21
-122.225
0
LINE
8
BLACK
6
CONTINUOUS
10
39.87
20
-122.225
11
39.8276
21
-122.208
0
LINE
8
BLACK
6
CONTINUOUS
10
39.8276
20
-122.208
11
39.81
21
-122.165
0
LINE
8
BLACK
6
CONTINUOUS
10
39.81
20
-122.165
11
39.81
21
-105.165
0
LINE
8
BLACK
6
CONTINUOUS
10
39.81
20
-105.165
11
39.8276
21
-105.123
0
LINE
8
BLACK
6
CONTINUOUS
10
39.8276
20
-105.123
11
39.8463
21
-105.115
0
LINE
8
BLACK
6
CONTINUOUS
10
39.8463
20
-105.115
11
39.8276
21
-105.107
0
LINE
8
BLACK
6
CONTINUOUS
10
39.8276
20
-105.107
11
39.81
21
-105.065
0
LINE
8
BLACK
6
CONTINUOUS
10
39.81
20
-105.065
11
39.81
21
-88.065
0
LINE
8
BLACK
6
CONTINUOUS
10
39.81
20
-88.065
11
39.81
21
-71.065
0
LINE
8
BLACK
6
CONTINUOUS
10
39.81
20
-71.065
11
39.8276
21
-71.0226
0
LINE
8
BLACK
6
CONTINUOUS
10
39.8276
20
-71.0226
11
39.87
21
-71.005
0
LINE
8
BLACK
6
CONTINUOUS
10
39.87
20
-71.005
11
57.87
21
-71.005
0
LINE
8
BLACK
6
CONTINUOUS
10
39.93
20
-105.225
11
39.93
21
-122.105
0
LINE
8
BLACK
6
CONTINUOUS
10
39.93
20
-122.105
11
57.81
21
-122.105
0
LINE
8
BLACK
6
CONTINUOUS
10
57.81
20
-122.105
11
57.81
21
-105.225
0
LINE
8
BLACK
6
CONTINUOUS
10
57.81
20
-105.225
11
39.93
21
-105.225
0
LINE
8
BLACK
6
CONTINUOUS
10
39.93
20
-88.125
11
39.93
21
-105.005
0
LINE
8
BLACK
6
CONTINUOUS
10
39.93
20
-105.005
11
57.81
21
-105.005
0
LINE
8
BLACK
6
CONTINUOUS
10
57.81
20
-105.005
11
57.81
21
-88.125
0
LINE
8
BLACK
6
CONTINUOUS
10
57.81
20
-88.125
11
39.93
21
-88.125
0
LINE
8
BLACK
6
CONTINUOUS
10
39.93
20
-71.125
11
39.93
21
-88.005
0
LINE
8
BLACK
6
CONTINUOUS
10
39.93
20
-88.005
11
57.81
21
-88.005
0
LINE
8
BLACK
6
CONTINUOUS
10
57.81
20
-88.005
11
57.81
21
-71.125
0
LINE
8
BLACK
6
CONTINUOUS
10
57.81
20
-71.125
11
39.93
21
-71.125
0
LINE
8
BLACK
6
CONTINUOUS
10
114.37
20
-54.005
11
114.412
21
-54.0226
0
LINE
8
BLACK
6
CONTINUOUS
10
114.412
20
-54.0226
11
114.43
21
-54.065
0
LINE
8
BLACK
6
CONTINUOUS
10
114.43
20
-54.065
11
114.43
21
-59.105
0
LINE
8
BLACK
6
CONTINUOUS
10
114.43
20
-59.105
11
132.37
21
-59.105
0
LINE
8
BLACK
6
CONTINUOUS
10
132.37
20
-59.105
11
132.412
21
-59.1226
0
LINE
8
BLACK
6
CONTINUOUS
10
132.412
20
-59.1226
11
132.43
21
-59.165
0
LINE
8
BLACK
6
CONTINUOUS
10
132.43
20
-59.165
11
132.43
21
-61.655
0
LINE
8
BLACK
6
CONTINUOUS
10
132.43
20
-61.655
11
150.37
21
-61.655
0
LINE
8
BLACK
6
CONTINUOUS
10
150.37
20
-61.655
11
150.412
21
-61.6726
0
LINE
8
BLACK
6
CONTINUOUS
10
150.412
20
-61.6726
11
150.43
21
-61.715
0
LINE
8
BLACK
6
CONTINUOUS
10
150.43
20
-61.715
11
150.43
21
-78.715
0
LINE
8
BLACK
6
CONTINUOUS
10
150.43
20
-78.715
11
150.43
21
-78.715
0
LINE
8
BLACK
6
CONTINUOUS
10
150.43
20
-78.715
11
150.43
21
-95.715
0
LINE
8
BLACK
6
CONTINUOUS
10
150.43
20
-95.715
11
150.412
21
-95.7574
0
LINE
8
BLACK
6
CONTINUOUS
10
150.412
20
-95.7574
11
150.394
21
-95.7652
0
LINE
8
BLACK
6
CONTINUOUS
10
150.394
20
-95.7652
11
150.412
21
-95.773
0
LINE
8
BLACK
6
CONTINUOUS
10
150.412
20
-95.773
11
150.43
21
-95.8154
0
LINE
8
BLACK
6
CONTINUOUS
10
150.43
20
-95.8154
11
150.43
21
-112.815
0
LINE
8
BLACK
6
CONTINUOUS
10
150.43
20
-112.815
11
150.412
21
-112.858
0
LINE
8
BLACK
6
CONTINUOUS
10
150.412
20
-112.858
11
150.37
21
-112.875
0
LINE
8
BLACK
6
CONTINUOUS
10
150.37
20
-112.875
11
132.37
21
-112.875
0
LINE
8
BLACK
6
CONTINUOUS
10
132.37
20
-112.875
11
132.328
21
-112.858
0
LINE
8
BLACK
6
CONTINUOUS
10
132.328
20
-112.858
11
132.31
21
-112.815
0
LINE
8
BLACK
6
CONTINUOUS
10
132.31
20
-112.815
11
132.31
21
-110.325
0
LINE
8
BLACK
6
CONTINUOUS
10
132.31
20
-110.325
11
114.37
21
-110.325
0
LINE
8
BLACK
6
CONTINUOUS
10
114.37
20
-110.325
11
114.328
21
-110.308
0
LINE
8
BLACK
6
CONTINUOUS
10
114.328
20
-110.308
11
114.31
21
-110.265
0
LINE
8
BLACK
6
CONTINUOUS
10
114.31
20
-110.265
11
114.31
21
-105.225
0
LINE
8
BLACK
6
CONTINUOUS
10
114.31
20
-105.225
11
96.43
21
-105.225
0
LINE
8
BLACK
6
CONTINUOUS
10
96.43
20
-105.225
11
96.43
21
-107.715
0
LINE
8
BLACK
6
CONTINUOUS
10
96.43
20
-107.715
11
96.4124
21
-107.758
0
LINE
8
BLACK
6
CONTINUOUS
10
96.4124
20
-107.758
11
96.37
21
-107.775
0
LINE
8
BLACK
6
CONTINUOUS
10
96.37
20
-107.775
11
78.43
21
-107.775
0
LINE
8
BLACK
6
CONTINUOUS
10
78.43
20
-107.775
11
78.43
21
-118.765
0
LINE
8
BLACK
6
CONTINUOUS
10
78.43
20
-118.765
11
78.4124
21
-118.808
0
LINE
8
BLACK
6
CONTINUOUS
10
78.4124
20
-118.808
11
78.37
21
-118.825
0
LINE
8
BLACK
6
CONTINUOUS
10
78.37
20
-118.825
11
60.37
21
-118.825
0
LINE
8
BLACK
6
CONTINUOUS
10
60.37
20
-118.825
11
60.3276
21
-118.808
0
LINE
8
BLACK
6
CONTINUOUS
10
60.3276
20
-118.808
11
60.31
21
-118.765
0
LINE
8
BLACK
6
CONTINUOUS
10
60.31
20
-118.765
11
60.31
21
-101.765
0
LINE
8
BLACK
6
CONTINUOUS
10
60.31
20
-101.765
11
60.3276
21
-101.723
0
LINE
8
BLACK
6
CONTINUOUS
10
60.3276
20
-101.723
11
60.3463
21
-101.715
0
LINE
8
BLACK
6
CONTINUOUS
10
60.3463
20
-101.715
11
60.3276
21
-101.707
0
LINE
8
BLACK
6
CONTINUOUS
10
60.3276
20
-101.707
11
60.31
21
-101.665
0
LINE
8
BLACK
6
CONTINUOUS
10
60.31
20
-101.665
11
60.31
21
-101.665
0
LINE
8
BLACK
6
CONTINUOUS
10
60.31
20
-101.665
11
60.31
21
-84.665
0
LINE
8
BLACK
6
CONTINUOUS
10
60.31
20
-84.665
11
60.31
21
-67.665
0
LINE
8
BLACK
6
CONTINUOUS
10
60.31
20
-67.665
11
60.3276
21
-67.6226
0
LINE
8
BLACK
6
CONTINUOUS
10
60.3276
20
-67.6226
11
60.37
21
-67.605
0
LINE
8
BLACK
6
CONTINUOUS
10
60.37
20
-67.605
11
78.31
21
-67.605
0
LINE
8
BLACK
6
CONTINUOUS
10
78.31
20
-67.605
11
78.31
21
-56.615
0
LINE
8
BLACK
6
CONTINUOUS
10
78.31
20
-56.615
11
78.3276
21
-56.5726
0
LINE
8
BLACK
6
CONTINUOUS
10
78.3276
20
-56.5726
11
78.37
21
-56.555
0
LINE
8
BLACK
6
CONTINUOUS
10
78.37
20
-56.555
11
96.31
21
-56.555
0
LINE
8
BLACK
6
CONTINUOUS
10
96.31
20
-56.555
11
96.31
21
-54.065
0
LINE
8
BLACK
6
CONTINUOUS
10
96.31
20
-54.065
11
96.3276
21
-54.0226
0
LINE
8
BLACK
6
CONTINUOUS
10
96.3276
20
-54.0226
11
96.37
21
-54.005
0
LINE
8
BLACK
6
CONTINUOUS
10
96.37
20
-54.005
11
114.37
21
-54.005
0
LINE
8
BLACK
6
CONTINUOUS
10
60.43
20
-101.825
11
60.43
21
-118.705
0
LINE
8
BLACK
6
CONTINUOUS
10
60.43
20
-118.705
11
78.31
21
-118.705
0
LINE
8
BLACK
6
CONTINUOUS
10
78.31
20
-118.705
11
78.31
21
-101.825
0
LINE
8
BLACK
6
CONTINUOUS
10
78.31
20
-101.825
11
60.43
21
-101.825
0
LINE
8
BLACK
6
CONTINUOUS
10
132.43
20
-95.8754
11
132.43
21
-112.755
0
LINE
8
BLACK
6
CONTINUOUS
10
132.43
20
-112.755
11
150.31
21
-112.755
0
LINE
8
BLACK
6
CONTINUOUS
10
150.31
20
-112.755
11
150.31
21
-95.8754
0
LINE
8
BLACK
6
CONTINUOUS
10
150.31
20
-95.8754
11
132.43
21
-95.8754
0
LINE
8
BLACK
6
CONTINUOUS
10
114.43
20
-93.3254
11
114.43
21
-110.205
0
LINE
8
BLACK
6
CONTINUOUS
10
114.43
20
-110.205
11
132.31
21
-110.205
0
LINE
8
BLACK
6
CONTINUOUS
10
132.31
20
-110.205
11
132.31
21
-95.8154
0
LINE
8
BLACK
6
CONTINUOUS
10
132.31
20
-95.8154
11
132.31
21
-93.3254
0
LINE
8
BLACK
6
CONTINUOUS
10
132.31
20
-93.3254
11
114.43
21
-93.3254
0
LINE
8
BLACK
6
CONTINUOUS
10
78.43
20
-90.7754
11
78.43
21
-101.765
0
LINE
8
BLACK
6
CONTINUOUS
10
78.43
20
-101.765
11
78.43
21
-107.655
0
LINE
8
BLACK
6
CONTINUOUS
10
78.43
20
-107.655
11
96.31
21
-107.655
0
LINE
8
BLACK
6
CONTINUOUS
10
96.31
20
-107.655
11
96.31
21
-90.7754
0
LINE
8
BLACK
6
CONTINUOUS
10
96.31
20
-90.7754
11
78.43
21
-90.7754
0
LINE
8
BLACK
6
CONTINUOUS
10
96.43
20
-88.2254
11
96.43
21
-90.7154
0
LINE
8
BLACK
6
CONTINUOUS
10
96.43
20
-90.7154
11
96.43
21
-105.105
0
LINE
8
BLACK
6
CONTINUOUS
10
96.43
20
-105.105
11
114.31
21
-105.105
0
LINE
8
BLACK
6
CONTINUOUS
10
114.31
20
-105.105
11
114.31
21
-93.2654
0
LINE
8
BLACK
6
CONTINUOUS
10
114.31
20
-93.2654
11
114.31
21
-88.2254
0
LINE
8
BLACK
6
CONTINUOUS
10
114.31
20
-88.2254
11
96.43
21
-88.2254
0
LINE
8
BLACK
6
CONTINUOUS
10
60.43
20
-84.725
11
60.43
21
-101.605
0
LINE
8
BLACK
6
CONTINUOUS
10
60.43
20
-101.605
11
78.31
21
-101.605
0
LINE
8
BLACK
6
CONTINUOUS
10
78.31
20
-101.605
11
78.31
21
-90.7154
0
LINE
8
BLACK
6
CONTINUOUS
10
78.31
20
-90.7154
11
78.31
21
-90.7154
0
LINE
8
BLACK
6
CONTINUOUS
10
78.31
20
-90.7154
11
78.31
21
-84.725
0
LINE
8
BLACK
6
CONTINUOUS
10
78.31
20
-84.725
11
60.43
21
-84.725
0
LINE
8
BLACK
6
CONTINUOUS
10
132.43
20
-78.775
11
132.43
21
-93.2654
0
LINE
8
BLACK
6
CONTINUOUS
10
132.43
20
-93.2654
11
132.43
21
-95.655
0
LINE
8
BLACK
6
CONTINUOUS
10
132.43
20
-95.655
11
150.31
21
-95.655
0
LINE
8
BLACK
6
CONTINUOUS
10
150.31
20
-95.655
11
150.31
21
-78.775
0
LINE
8
BLACK
6
CONTINUOUS
10
150.31
20
-78.775
11
132.43
21
-78.775
0
LINE
8
BLACK
6
CONTINUOUS
10
114.43
20
-76.225
11
114.43
21
-88.1654
0
LINE
8
BLACK
6
CONTINUOUS
10
114.43
20
-88.1654
11
114.43
21
-93.105
0
LINE
8
BLACK
6
CONTINUOUS
10
114.43
20
-93.105
11
132.31
21
-93.105
0
LINE
8
BLACK
6
CONTINUOUS
10
132.31
20
-93.105
11
132.31
21
-78.715
0
LINE
8
BLACK
6
CONTINUOUS
10
132.31
20
-78.715
11
132.31
21
-76.225
0
LINE
8
BLACK
6
CONTINUOUS
10
132.31
20
-76.225
11
114.43
21
-76.225
0
LINE
8
BLACK
6
CONTINUOUS
10
78.43
20
-73.675
11
78.43
21
-84.665
0
LINE
8
BLACK
6
CONTINUOUS
10
78.43
20
-84.665
11
78.43
21
-90.555
0
LINE
8
BLACK
6
CONTINUOUS
10
78.43
20
-90.555
11
96.31
21
-90.555
0
LINE
8
BLACK
6
CONTINUOUS
10
96.31
20
-90.555
11
96.31
21
-88.1654
0
LINE
8
BLACK
6
CONTINUOUS
10
96.31
20
-88.1654
11
96.31
21
-88.1654
0
LINE
8
BLACK
6
CONTINUOUS
10
96.31
20
-88.1654
11
96.31
21
-73.675
0
LINE
8
BLACK
6
CONTINUOUS
10
96.31
20
-73.675
11
78.43
21
-73.675
0
LINE
8
BLACK
6
CONTINUOUS
10
96.43
20
-71.125
11
96.43
21
-73.615
0
LINE
8
BLACK
6
CONTINUOUS
10
96.43
20
-73.615
11
96.43
21
-88.005
0
LINE
8
BLACK
6
CONTINUOUS
10
96.43
20
-88.005
11
114.31
21
-88.005
0
LINE
8
BLACK
6
CONTINUOUS
10
114.31
20
-88.005
11
114.31
21
-76.165
0
LINE
8
BLACK
6
CONTINUOUS
10
114.31
20
-76.165
11
114.31
21
-71.125
0
LINE
8
BLACK
6
CONTINUOUS
10
114.31
20
-71.125
11
96.43
21
-71.125
0
LINE
8
BLACK
6
CONTINUOUS
10
60.43
20
-67.725
11
60.43
21
-84.605
0
LINE
8
BLACK
6
CONTINUOUS
10
60.43
20
-84.605
11
78.31
21
-84.605
0
LINE
8
BLACK
6
CONTINUOUS
10
78.31
20
-84.605
11
78.31
21
-73.615
0
LINE
8
BLACK
6
CONTINUOUS
10
78.31
20
-73.615
11
78.31
21
-73.615
0
LINE
8
BLACK
6
CONTINUOUS
10
78.31
20
-73.615
11
78.31
21
-67.725
0
LINE
8
BLACK
6
CONTINUOUS
10
78.31
20
-67.725
11
60.43
21
-67.725
0
LINE
8
BLACK
6
CONTINUOUS
10
132.43
20
-61.775
11
132.43
21
-76.165
0
LINE
8
BLACK
6
CONTINUOUS
10
132.43
20
-76.165
11
132.43
21
-78.655
0
LINE
8
BLACK
6
CONTINUOUS
10
132.43
20
-78.655
11
150.31
21
-78.655
0
LINE
8
BLACK
6
CONTINUOUS
10
150.31
20
-78.655
11
150.31
21
-61.775
0
LINE
8
BLACK
6
CONTINUOUS
10
150.31
20
-61.775
11
132.43
21
-61.775
0
LINE
8
BLACK
6
CONTINUOUS
10
114.43
20
-59.225
11
114.43
21
-71.065
0
LINE
8
BLACK
6
CONTINUOUS
10
114.43
20
-71.065
11
114.43
21
-76.105
0
LINE
8
BLACK
6
CONTINUOUS
10
114.43
20
-76.105
11
132.31
21
-76.105
0
LINE
8
BLACK
6
CONTINUOUS
10
132.31
20
-76.105
11
132.31
21
-61.715
0
LINE
8
BLACK
6
CONTINUOUS
10
132.31
20
-61.715
11
132.31
21
-59.225
0
LINE
8
BLACK
6
CONTINUOUS
10
132.31
20
-59.225
11
114.43
21
-59.225
0
LINE
8
BLACK
6
CONTINUOUS
10
78.43
20
-56.675
11
78.43
21
-67.665
0
LINE
8
BLACK
6
CONTINUOUS
10
78.43
20
-67.665
11
78.43
21
-73.555
0
LINE
8
BLACK
6
CONTINUOUS
10
78.43
20
-73.555
11
96.31
21
-73.555
0
LINE
8
BLACK
6
CONTINUOUS
10
96.31
20
-73.555
11
96.31
21
-71.065
0
LINE
8
BLACK
6
CONTINUOUS
10
96.31
20
-71.065
11
96.31
21
-56.675
0
LINE
8
BLACK
6
CONTINUOUS
10
96.31
20
-56.675
11
78.43
21
-56.675
0
LINE
8
BLACK
6
CONTINUOUS
10
96.43
20
-54.125
11
96.43
21
-56.615
0
LINE
8
BLACK
6
CONTINUOUS
10
96.43
20
-56.615
11
96.43
21
-71.005
0
LINE
8
BLACK
6
CONTINUOUS
10
96.43
20
-71.005
11
114.31
21
-71.005
0
LINE
8
BLACK
6
CONTINUOUS
10
114.31
20
-71.005
11
114.31
21
-59.165
0
LINE
8
BLACK
6
CONTINUOUS
10
114.31
20
-59.165
11
114.31
21
-54.125
0
LINE
8
BLACK
6
CONTINUOUS
10
114.31
20
-54.125
11
96.43
21
-54.125
  0
ENDSEC
  0
EOF
