  0
SECTION
  2
HEADER
  9
$ACADVER
  1
AC1014
  9
$HANDSEED
  5
FFFF
  9
$INSUNITS
 70
     4
  9
$MEASUREMENT
 70
     1
  0
ENDSEC
  0
SECTION
  2
TABLES
  0
TABLE
  2
VPORT
  5
8
330
0
100
AcDbSymbolTable
 70
     4
  0
VPORT
  5
2E
330
8
100
AcDbSymbolTableRecord
100
AcDbViewportTableRecord
  2
*ACTIVE
 70
     0
 10
0.0
 20
0.0
 11
1.0
 21
1.0
 12
210.0
 22
148.5
 13
0.0
 23
0.0
 14
10.0
 24
10.0
 15
10.0
 25
10.0
 16
0.0
 26
0.0
 36
1.0
 17
0.0
 27
0.0
 37
0.0
 40
341.0
 41
1.24
 42
50.0
 43
0.0
 44
0.0
 50
0.0
 51
0.0
 71
     0
 72
   100
 73
     1
 74
     3
 75
     0
 76
     0
 77
     0
 78
     0
  0
ENDTAB
  0
TABLE
  2
LTYPE
  5
5
330
0
100
AcDbSymbolTable
 70
     1
  0
LTYPE
  5
14
330
5
100
AcDbSymbolTableRecord
100
AcDbLinetypeTableRecord
  2
BYBLOCK
 70
     0
  3

 72
    65
 73
     0
 40
0.0
  0
LTYPE
  5
15
330
5
100
AcDbSymbolTableRecord
100
AcDbLinetypeTableRecord
  2
BYLAYER
 70
     0
  3

 72
    65
 73
     0
 40
0.0
  0
LTYPE
  5
16
330
5
100
AcDbSymbolTableRecord
100
AcDbLinetypeTableRecord
  2
CONTINUOUS
 70
     0
  3
Solid line
 72
    65
 73
     0
 40
0.0
  0
ENDTAB
  0
TABLE
  2
LAYER
  5
2
100
AcDbSymbolTable
 70
1
  0
LAYER
  5
50
100
AcDbSymbolTableRecord
100
AcDbLayerTableRecord
  2
0
 70
0
  6
CONTINUOUS
  0
ENDTAB
  0
TABLE
  2
STYLE
  5
3
330
0
100
AcDbSymbolTable
 70
     1
  0
STYLE
  5
11
330
3
100
AcDbSymbolTableRecord
100
AcDbTextStyleTableRecord
  2
STANDARD
 70
     0
 40
0.0
 41
1.0
 50
0.0
 71
     0
 42
2.5
  3
txt
  4

  0
ENDTAB
  0
TABLE
  2
VIEW
  5
6
330
0
100
AcDbSymbolTable
 70
     0
  0
ENDTAB
  0
TABLE
  2
UCS
  5
7
330
0
100
AcDbSymbolTable
 70
     0
  0
ENDTAB
  0
TABLE
  2
APPID
  5
9
330
0
100
AcDbSymbolTable
 70
     2
  0
APPID
  5
12
330
9
100
AcDbSymbolTableRecord
100
AcDbRegAppTableRecord
  2
ACAD
 70
     0
  0
ENDTAB
  0
TABLE
  2
DIMSTYLE
  5
A
330
0
100
AcDbSymbolTable
 70
     1
  0
DIMSTYLE
105
27
330
A
100
AcDbSymbolTableRecord
100
AcDbDimStyleTableRecord
  2
ISO-25
 70
     0
  3

  4

  5

  6

  7

 40
1.0
 41
2.5
 42
0.625
 43
3.75
 44
1.25
 45
0.0
 46
0.0
 47
0.0
 48
0.0
140
2.5
141
2.5
142
0.0
143
0.03937007874016
144
1.0
145
0.0
146
1.0
147
0.625
 71
     0
 72
     0
 73
     0
 74
     0
 75
     0
 76
     0
 77
     1
 78
     8
170
     0
171
     3
172
     1
173
     0
174
     0
175
     0
176
     0
177
     0
178
     0
270
     2
271
     2
272
     2
273
     2
274
     3
340
11
275
     0
280
     0
281
     0
282
     0
283
     0
284
     8
285
     0
286
     0
287
     3
288
     0
  0
ENDTAB
  0
TABLE
  2
BLOCK_RECORD
  5
1
330
0
100
AcDbSymbolTable
 70
     1
  0
BLOCK_RECORD
  5
1F
330
1
100
AcDbSymbolTableRecord
100
AcDbBlockTableRecord
  2
*MODEL_SPACE
  0
BLOCK_RECORD
  5
1B
330
1
100
AcDbSymbolTableRecord
100
AcDbBlockTableRecord
  2
*PAPER_SPACE
  0
ENDTAB
  0
ENDSEC
  0
SECTION
  2
BLOCKS
  0
BLOCK
  5
20
330
1F
100
AcDbEntity
  8
0
100
AcDbBlockBegin
  2
*MODEL_SPACE
 70
     0
 10
0.0
 20
0.0
 30
0.0
  3
*MODEL_SPACE
  1

  0
ENDBLK
  5
21
330
1F
100
AcDbEntity
  8
0
100
AcDbBlockEnd
  0
BLOCK
  5
1C
330
1B
100
AcDbEntity
 67
     1
  8
0
100
AcDbBlockBegin
  2
*PAPER_SPACE
  1

  0
ENDBLK
  5
1D
330
1B
100
AcDbEntity
 67
     1
  8
0
100
AcDbBlockEnd
  0
ENDSEC
  0
SECTION
  2
ENTITIES
  0
LWPOLYLINE
  5
100
100
AcDbEntity
  8
0
 62
7
100
AcDbPolyline
 90
2
 70
0
 10
126.272900
 20
78.569000
 30
0.0
 10
127.944900
 20
78.314100
 30
0.0
  0
LWPOLYLINE
  5
101
100
AcDbEntity
  8
0
 62
7
100
AcDbPolyline
 90
2
 70
0
 10
118.967100
 20
79.795900
 30
0.0
 10
119.756000
 20
79.480800
 30
0.0
  0
LWPOLYLINE
  5
102
100
AcDbEntity
  8
0
 62
7
100
AcDbPolyline
 90
2
 70
0
 10
143.146200
 20
74.971400
 30
0.0
 10
143.986300
 20
74.721300
 30
0.0
  0
SPLINE
  5
103
100
AcDbEntity
  8
0
 62
7
100
AcDbSpline
 70
8
 71
3
 72
8
 73
4
 74
0
 40
0
 40
0
 40
0
 40
0
 40
1
 40
1
 40
1
 40
1
 10
152.028100
 20
148.017000
 30
0.0
 10
151.971900
 20
148.073200
 30
0.0
 10
151.940300
 20
148.149500
 30
0.0
 10
151.940300
 20
148.229100
 30
0.0
  0
SPLINE
  5
104
100
AcDbEntity
  8
0
 62
7
100
AcDbSpline
 70
8
 71
3
 72
8
 73
4
 74
0
 40
0
 40
0
 40
0
 40
0
 40
1
 40
1
 40
1
 40
1
 10
58.792500
 20
90.504800
 30
0.0
 10
58.858200
 20
90.570500
 30
0.0
 10
58.947300
 20
90.607300
 30
0.0
 10
59.040100
 20
90.607300
 30
0.0
  0
LWPOLYLINE
  5
105
100
AcDbEntity
  8
0
 62
7
100
AcDbPolyline
 90
2
 70
0
 10
68.285200
 20
86.367800
 30
0.0
 10
70.277700
 20
86.350800
 30
0.0
  0
LWPOLYLINE
  5
106
100
AcDbEntity
  8
0
 62
7
100
AcDbPolyline
 90
2
 70
0
 10
58.690000
 20
123.127300
 30
0.0
 10
58.690000
 20
112.434800
 30
0.0
  0
LWPOLYLINE
  5
107
100
AcDbEntity
  8
0
 62
7
100
AcDbPolyline
 90
2
 70
0
 10
144.823800
 20
74.463200
 30
0.0
 10
145.658400
 20
74.197000
 30
0.0
  0
LWPOLYLINE
  5
108
100
AcDbEntity
  8
0
 62
7
100
AcDbPolyline
 90
2
 70
0
 10
175.051300
 20
91.480000
 30
0.0
 10
174.923600
 20
92.175600
 30
0.0
  0
LWPOLYLINE
  5
109
100
AcDbEntity
  8
0
 62
7
100
AcDbPolyline
 90
2
 70
0
 10
176.656200
 20
85.529800
 30
0.0
 10
176.428300
 20
86.157200
 30
0.0
  0
SPLINE
  5
10a
100
AcDbEntity
  8
0
 62
7
100
AcDbSpline
 70
8
 71
3
 72
8
 73
4
 74
0
 40
0
 40
0
 40
0
 40
0
 40
1
 40
1
 40
1
 40
1
 10
94.820300
 20
155.898300
 30
0.0
 10
94.820300
 20
155.643100
 30
0.0
 10
94.714900
 20
155.388700
 30
0.0
 10
94.527400
 20
155.201200
 30
0.0
  0
LWPOLYLINE
  5
10b
100
AcDbEntity
  8
0
 62
7
100
AcDbPolyline
 90
2
 70
0
 10
148.959500
 20
73.048000
 30
0.0
 10
149.773800
 20
72.739100
 30
0.0
  0
SPLINE
  5
10c
100
AcDbEntity
  8
0
 62
7
100
AcDbSpline
 70
8
 71
3
 72
8
 73
4
 74
0
 40
0
 40
0
 40
0
 40
0
 40
1
 40
1
 40
1
 40
1
 10
151.500900
 20
149.368800
 30
0.0
 10
151.219600
 20
149.650100
 30
0.0
 10
150.838100
 20
149.808100
 30
0.0
 10
150.440300
 20
149.808100
 30
0.0
  0
LWPOLYLINE
  5
10d
100
AcDbEntity
  8
0
 62
7
100
AcDbPolyline
 90
2
 70
0
 10
116.561300
 20
80.683500
 30
0.0
 10
117.369700
 20
80.397200
 30
0.0
  0
LWPOLYLINE
  5
10e
100
AcDbEntity
  8
0
 62
7
100
AcDbPolyline
 90
2
 70
0
 10
176.214900
 20
86.794500
 30
0.0
 10
176.015000
 20
87.441000
 30
0.0
  0
LWPOLYLINE
  5
10f
100
AcDbEntity
  8
0
 62
7
100
AcDbPolyline
 90
2
 70
0
 10
70.277700
 20
86.350800
 30
0.0
 10
72.263900
 20
86.323800
 30
0.0
  0
LWPOLYLINE
  5
110
100
AcDbEntity
  8
0
 62
7
100
AcDbPolyline
 90
2
 70
0
 10
178.755800
 20
81.480800
 30
0.0
 10
178.571500
 20
81.746700
 30
0.0
  0
SPLINE
  5
111
100
AcDbEntity
  8
0
 62
7
100
AcDbSpline
 70
8
 71
3
 72
8
 73
4
 74
0
 40
0
 40
0
 40
0
 40
0
 40
1
 40
1
 40
1
 40
1
 10
58.690000
 20
112.434800
 30
0.0
 10
58.690000
 20
112.341900
 30
0.0
 10
58.726900
 20
112.252900
 30
0.0
 10
58.792600
 20
112.187300
 30
0.0
  0
LWPOLYLINE
  5
112
100
AcDbEntity
  8
0
 62
7
100
AcDbPolyline
 90
2
 70
0
 10
175.652000
 20
88.759000
 30
0.0
 10
175.487200
 20
89.429200
 30
0.0
  0
LWPOLYLINE
  5
113
100
AcDbEntity
  8
0
 62
7
100
AcDbPolyline
 90
2
 70
0
 10
117.369700
 20
80.397200
 30
0.0
 10
118.171700
 20
80.101400
 30
0.0
  0
LWPOLYLINE
  5
114
100
AcDbEntity
  8
0
 62
7
100
AcDbPolyline
 90
2
 70
0
 10
127.944900
 20
78.314100
 30
0.0
 10
129.622400
 20
78.038000
 30
0.0
  0
LWPOLYLINE
  5
115
100
AcDbEntity
  8
0
 62
7
100
AcDbPolyline
 90
2
 70
0
 10
121.291800
 20
79.210000
 30
0.0
 10
122.946400
 20
79.016700
 30
0.0
  0
SPLINE
  5
116
100
AcDbEntity
  8
0
 62
7
100
AcDbSpline
 70
8
 71
3
 72
8
 73
4
 74
0
 40
0
 40
0
 40
0
 40
0
 40
1
 40
1
 40
1
 40
1
 10
117.440300
 20
152.358300
 30
0.0
 10
117.042400
 20
152.358300
 30
0.0
 10
116.660900
 20
152.516300
 30
0.0
 10
116.379600
 20
152.797600
 30
0.0
  0
LWPOLYLINE
  5
117
100
AcDbEntity
  8
0
 62
7
100
AcDbPolyline
 90
2
 70
0
 10
57.880000
 20
140.458400
 30
0.0
 10
39.820000
 20
140.457200
 30
0.0
  0
SPLINE
  5
118
100
AcDbEntity
  8
0
 62
7
100
AcDbSpline
 70
8
 71
3
 72
8
 73
4
 74
0
 40
0
 40
0
 40
0
 40
0
 40
1
 40
1
 40
1
 40
1
 10
59.492500
 20
129.868200
 30
0.0
 10
59.492500
 20
129.775300
 30
0.0
 10
59.455700
 20
129.686300
 30
0.0
 10
59.390000
 20
129.620700
 30
0.0
  0
LWPOLYLINE
  5
119
100
AcDbEntity
  8
0
 62
7
100
AcDbPolyline
 90
2
 70
0
 10
59.497700
 20
90.257200
 30
0.0
 10
59.497100
 20
87.097600
 30
0.0
  0
LWPOLYLINE
  5
11a
100
AcDbEntity
  8
0
 62
7
100
AcDbPolyline
 90
2
 70
0
 10
178.393000
 20
82.016600
 30
0.0
 10
178.220400
 20
82.290400
 30
0.0
  0
SPLINE
  5
11b
100
AcDbEntity
  8
0
 62
7
100
AcDbSpline
 70
8
 71
3
 72
8
 73
4
 74
0
 40
0
 40
0
 40
0
 40
0
 40
1
 40
1
 40
1
 40
1
 10
58.690000
 20
139.708400
 30
0.0
 10
58.690000
 20
139.907300
 30
0.0
 10
58.611000
 20
140.098100
 30
0.0
 10
58.470300
 20
140.238700
 30
0.0
  0
LWPOLYLINE
  5
11c
100
AcDbEntity
  8
0
 62
7
100
AcDbPolyline
 90
2
 70
0
 10
172.571300
 20
60.433200
 30
0.0
 10
172.753100
 20
60.328200
 30
0.0
  0
LWPOLYLINE
  5
11d
100
AcDbEntity
  8
0
 62
7
100
AcDbPolyline
 90
2
 70
0
 10
72.263900
 20
86.323800
 30
0.0
 10
74.243700
 20
86.287800
 30
0.0
  0
LWPOLYLINE
  5
11e
100
AcDbEntity
  8
0
 62
7
100
AcDbPolyline
 90
2
 70
0
 10
107.261400
 20
83.233500
 30
0.0
 10
108.135800
 20
83.044300
 30
0.0
  0
LWPOLYLINE
  5
11f
100
AcDbEntity
  8
0
 62
7
100
AcDbPolyline
 90
2
 70
0
 10
179.555800
 20
80.460100
 30
0.0
 10
179.346100
 20
80.708600
 30
0.0
  0
LWPOLYLINE
  5
120
100
AcDbEntity
  8
0
 62
7
100
AcDbPolyline
 90
2
 70
0
 10
108.135800
 20
83.044300
 30
0.0
 10
109.004600
 20
82.847100
 30
0.0
  0
LWPOLYLINE
  5
121
100
AcDbEntity
  8
0
 62
7
100
AcDbPolyline
 90
2
 70
0
 10
119.756000
 20
79.480800
 30
0.0
 10
121.291800
 20
79.210000
 30
0.0
  0
SPLINE
  5
122
100
AcDbEntity
  8
0
 62
7
100
AcDbSpline
 70
8
 71
3
 72
8
 73
4
 74
0
 40
0
 40
0
 40
0
 40
0
 40
1
 40
1
 40
1
 40
1
 10
59.147700
 20
90.607300
 30
0.0
 10
59.240500
 20
90.607300
 30
0.0
 10
59.329600
 20
90.570400
 30
0.0
 10
59.395200
 20
90.504800
 30
0.0
  0
LWPOLYLINE
  5
123
100
AcDbEntity
  8
0
 62
7
100
AcDbPolyline
 90
2
 70
0
 10
104.607200
 20
83.755400
 30
0.0
 10
105.497100
 20
83.588900
 30
0.0
  0
SPLINE
  5
124
100
AcDbEntity
  8
0
 62
7
100
AcDbSpline
 70
8
 71
3
 72
8
 73
4
 74
0
 40
0
 40
0
 40
0
 40
0
 40
1
 40
1
 40
1
 40
1
 10
78.249100
 20
154.908300
 30
0.0
 10
77.851200
 20
154.908300
 30
0.0
 10
77.469700
 20
154.750300
 30
0.0
 10
77.188400
 20
154.469000
 30
0.0
  0
LWPOLYLINE
  5
125
100
AcDbEntity
  8
0
 62
7
100
AcDbPolyline
 90
2
 70
0
 10
111.577600
 20
82.205600
 30
0.0
 10
112.423600
 20
81.974600
 30
0.0
  0
LWPOLYLINE
  5
126
100
AcDbEntity
  8
0
 62
7
100
AcDbPolyline
 90
2
 70
0
 10
59.500100
 20
112.434700
 30
0.0
 10
59.502000
 20
123.127200
 30
0.0
  0
LWPOLYLINE
  5
127
100
AcDbEntity
  8
0
 62
7
100
AcDbPolyline
 90
2
 70
0
 10
132.992500
 20
77.420000
 30
0.0
 10
134.683800
 20
77.076500
 30
0.0
  0
LWPOLYLINE
  5
128
100
AcDbEntity
  8
0
 62
7
100
AcDbPolyline
 90
2
 70
0
 10
160.612500
 20
67.521400
 30
0.0
 10
162.091300
 20
66.663600
 30
0.0
  0
LWPOLYLINE
  5
129
100
AcDbEntity
  8
0
 62
7
100
AcDbPolyline
 90
2
 70
0
 10
80.140700
 20
86.114800
 30
0.0
 10
82.090900
 20
86.033800
 30
0.0
  0
LWPOLYLINE
  5
12a
100
AcDbEntity
  8
0
 62
7
100
AcDbPolyline
 90
2
 70
0
 10
174.692000
 20
93.582900
 30
0.0
 10
174.587500
 20
94.294400
 30
0.0
  0
LWPOLYLINE
  5
12b
100
AcDbEntity
  8
0
 62
7
100
AcDbPolyline
 90
2
 70
0
 10
109.004600
 20
82.847100
 30
0.0
 10
109.868000
 20
82.641700
 30
0.0
  0
LWPOLYLINE
  5
12c
100
AcDbEntity
  8
0
 62
7
100
AcDbPolyline
 90
2
 70
0
 10
151.940300
 20
148.229100
 30
0.0
 10
151.940300
 20
148.248100
 30
0.0
  0
LWPOLYLINE
  5
12d
100
AcDbEntity
  8
0
 62
7
100
AcDbPolyline
 90
2
 70
0
 10
175.827700
 20
88.096000
 30
0.0
 10
175.652000
 20
88.759000
 30
0.0
  0
LWPOLYLINE
  5
12e
100
AcDbEntity
  8
0
 62
7
100
AcDbPolyline
 90
2
 70
0
 10
60.320000
 20
143.858300
 30
0.0
 10
60.254000
 20
143.858300
 30
0.0
  0
SPLINE
  5
12f
100
AcDbEntity
  8
0
 62
7
100
AcDbSpline
 70
8
 71
3
 72
8
 73
4
 74
0
 40
0
 40
0
 40
0
 40
0
 40
1
 40
1
 40
1
 40
1
 10
58.792600
 20
112.187300
 30
0.0
 10
58.858200
 20
112.121600
 30
0.0
 10
58.947200
 20
112.084800
 30
0.0
 10
59.040100
 20
112.084800
 30
0.0
  0
LWPOLYLINE
  5
130
100
AcDbEntity
  8
0
 62
7
100
AcDbPolyline
 90
2
 70
0
 10
174.490200
 20
95.010700
 30
0.0
 10
174.400000
 20
95.731800
 30
0.0
  0
LWPOLYLINE
  5
131
100
AcDbEntity
  8
0
 62
7
100
AcDbPolyline
 90
2
 70
0
 10
145.658400
 20
74.197000
 30
0.0
 10
146.489600
 20
73.922500
 30
0.0
  0
LWPOLYLINE
  5
132
100
AcDbEntity
  8
0
 62
7
100
AcDbPolyline
 90
2
 70
0
 10
59.095400
 20
105.477300
 30
0.0
 10
59.040400
 20
105.477300
 30
0.0
  0
SPLINE
  5
133
100
AcDbEntity
  8
0
 62
7
100
AcDbSpline
 70
8
 71
3
 72
8
 73
4
 74
0
 40
0
 40
0
 40
0
 40
0
 40
1
 40
1
 40
1
 40
1
 10
58.470300
 20
86.558100
 30
0.0
 10
58.611000
 20
86.698700
 30
0.0
 10
58.690000
 20
86.889500
 30
0.0
 10
58.690000
 20
87.088400
 30
0.0
  0
LWPOLYLINE
  5
134
100
AcDbEntity
  8
0
 62
7
100
AcDbPolyline
 90
2
 70
0
 10
98.250100
 20
84.730700
 30
0.0
 10
99.171000
 20
84.610300
 30
0.0
  0
SPLINE
  5
135
100
AcDbEntity
  8
0
 62
7
100
AcDbSpline
 70
8
 71
3
 72
8
 73
4
 74
0
 40
0
 40
0
 40
0
 40
0
 40
1
 40
1
 40
1
 40
1
 10
59.396500
 20
97.009700
 30
0.0
 10
59.462200
 20
97.075400
 30
0.0
 10
59.499000
 20
97.164400
 30
0.0
 10
59.499000
 20
97.257200
 30
0.0
  0
LWPOLYLINE
  5
136
100
AcDbEntity
  8
0
 62
7
100
AcDbPolyline
 90
2
 70
0
 10
174.400000
 20
95.731800
 30
0.0
 10
174.316700
 20
96.457600
 30
0.0
  0
LWPOLYLINE
  5
137
100
AcDbEntity
  8
0
 62
7
100
AcDbPolyline
 90
2
 70
0
 10
182.043300
 20
78.239800
 30
0.0
 10
181.761000
 20
78.438900
 30
0.0
  0
LWPOLYLINE
  5
138
100
AcDbEntity
  8
0
 62
7
100
AcDbPolyline
 90
2
 70
0
 10
101.000800
 20
84.351400
 30
0.0
 10
101.909300
 20
84.212500
 30
0.0
  0
SPLINE
  5
139
100
AcDbEntity
  8
0
 62
7
100
AcDbSpline
 70
8
 71
3
 72
8
 73
4
 74
0
 40
0
 40
0
 40
0
 40
0
 40
1
 40
1
 40
1
 40
1
 10
134.940300
 20
149.808100
 30
0.0
 10
134.675000
 20
149.808100
 30
0.0
 10
134.420700
 20
149.913400
 30
0.0
 10
134.233200
 20
150.101000
 30
0.0
  0
LWPOLYLINE
  5
13a
100
AcDbEntity
  8
0
 62
7
100
AcDbPolyline
 90
2
 70
0
 10
175.187400
 20
90.790100
 30
0.0
 10
175.051300
 20
91.480000
 30
0.0
  0
SPLINE
  5
13b
100
AcDbEntity
  8
0
 62
7
100
AcDbSpline
 70
8
 71
3
 72
8
 73
4
 74
0
 40
0
 40
0
 40
0
 40
0
 40
1
 40
1
 40
1
 40
1
 10
57.940000
 20
86.338400
 30
0.0
 10
58.138900
 20
86.338400
 30
0.0
 10
58.329700
 20
86.417400
 30
0.0
 10
58.470300
 20
86.558100
 30
0.0
  0
SPLINE
  5
13c
100
AcDbEntity
  8
0
 62
7
100
AcDbSpline
 70
8
 71
3
 72
8
 73
4
 74
0
 40
0
 40
0
 40
0
 40
0
 40
1
 40
1
 40
1
 40
1
 10
95.259600
 20
157.019000
 30
0.0
 10
94.978300
 20
156.737700
 30
0.0
 10
94.820300
 20
156.356100
 30
0.0
 10
94.820300
 20
155.908300
 30
0.0
  0
SPLINE
  5
13d
100
AcDbEntity
  8
0
 62
7
100
AcDbSpline
 70
8
 71
3
 72
8
 73
4
 74
0
 40
0
 40
0
 40
0
 40
0
 40
1
 40
1
 40
1
 40
1
 10
59.397900
 20
105.374800
 30
0.0
 10
59.332300
 20
105.440400
 30
0.0
 10
59.243200
 20
105.477300
 30
0.0
 10
59.150400
 20
105.477300
 30
0.0
  0
SPLINE
  5
13e
100
AcDbEntity
  8
0
 62
7
100
AcDbSpline
 70
8
 71
3
 72
8
 73
4
 74
0
 40
0
 40
0
 40
0
 40
0
 40
1
 40
1
 40
1
 40
1
 10
59.150100
 20
112.084800
 30
0.0
 10
59.242900
 20
112.084700
 30
0.0
 10
59.331900
 20
112.121600
 30
0.0
 10
59.397600
 20
112.187200
 30
0.0
  0
LWPOLYLINE
  5
13f
100
AcDbEntity
  8
0
 62
7
100
AcDbPolyline
 90
2
 70
0
 10
109.868000
 20
82.641700
 30
0.0
 10
110.725700
 20
82.427900
 30
0.0
  0
LWPOLYLINE
  5
140
100
AcDbEntity
  8
0
 62
7
100
AcDbPolyline
 90
2
 70
0
 10
39.820000
 20
86.338400
 30
0.0
 10
39.880000
 20
86.338400
 30
0.0
  0
SPLINE
  5
141
100
AcDbEntity
  8
0
 62
7
100
AcDbSpline
 70
8
 71
3
 72
8
 73
4
 74
0
 40
0
 40
0
 40
0
 40
0
 40
1
 40
1
 40
1
 40
1
 10
58.690000
 20
90.257300
 30
0.0
 10
58.690000
 20
90.350200
 30
0.0
 10
58.726900
 20
90.439200
 30
0.0
 10
58.792500
 20
90.504800
 30
0.0
  0
LWPOLYLINE
  5
142
100
AcDbEntity
  8
0
 62
7
100
AcDbPolyline
 90
2
 70
0
 10
156.858100
 20
69.563200
 30
0.0
 10
157.617600
 20
69.168600
 30
0.0
  0
LWPOLYLINE
  5
143
100
AcDbEntity
  8
0
 62
7
100
AcDbPolyline
 90
2
 70
0
 10
95.464100
 20
85.057900
 30
0.0
 10
96.396500
 20
84.954300
 30
0.0
  0
SPLINE
  5
144
100
AcDbEntity
  8
0
 62
7
100
AcDbSpline
 70
8
 71
3
 72
8
 73
4
 74
0
 40
0
 40
0
 40
0
 40
0
 40
1
 40
1
 40
1
 40
1
 10
58.782500
 20
129.620900
 30
0.0
 10
58.716900
 20
129.686500
 30
0.0
 10
58.680000
 20
129.775500
 30
0.0
 10
58.680000
 20
129.868400
 30
0.0
  0
LWPOLYLINE
  5
145
100
AcDbEntity
  8
0
 62
7
100
AcDbPolyline
 90
2
 70
0
 10
59.504000
 20
142.358300
 30
0.0
 10
59.504000
 20
138.898300
 30
0.0
  0
LWPOLYLINE
  5
146
100
AcDbEntity
  8
0
 62
7
100
AcDbPolyline
 90
2
 70
0
 10
122.946400
 20
79.016700
 30
0.0
 10
124.606700
 20
78.803100
 30
0.0
  0
LWPOLYLINE
  5
147
100
AcDbEntity
  8
0
 62
7
100
AcDbPolyline
 90
2
 70
0
 10
59.150400
 20
105.477300
 30
0.0
 10
59.095400
 20
105.477300
 30
0.0
  0
LWPOLYLINE
  5
148
100
AcDbEntity
  8
0
 62
7
100
AcDbPolyline
 90
2
 70
0
 10
137.225500
 20
76.515600
 30
0.0
 10
138.073300
 20
76.315800
 30
0.0
  0
SPLINE
  5
149
100
AcDbEntity
  8
0
 62
7
100
AcDbSpline
 70
8
 71
3
 72
8
 73
4
 74
0
 40
0
 40
0
 40
0
 40
0
 40
1
 40
1
 40
1
 40
1
 10
77.188400
 20
154.469000
 30
0.0
 10
76.907100
 20
154.187700
 30
0.0
 10
76.749100
 20
153.806100
 30
0.0
 10
76.749100
 20
153.408300
 30
0.0
  0
LWPOLYLINE
  5
14a
100
AcDbEntity
  8
0
 62
7
100
AcDbPolyline
 90
2
 70
0
 10
75.336200
 20
143.858300
 30
0.0
 10
60.320000
 20
143.858300
 30
0.0
  0
LWPOLYLINE
  5
14b
100
AcDbEntity
  8
0
 62
7
100
AcDbPolyline
 90
2
 70
0
 10
182.631300
 20
77.857300
 30
0.0
 10
182.333400
 20
78.045900
 30
0.0
  0
LWPOLYLINE
  5
14c
100
AcDbEntity
  8
0
 62
7
100
AcDbPolyline
 90
2
 70
0
 10
114.440300
 20
157.458300
 30
0.0
 10
96.380300
 20
157.458300
 30
0.0
  0
LWPOLYLINE
  5
14d
100
AcDbEntity
  8
0
 62
7
100
AcDbPolyline
 90
2
 70
0
 10
64.282200
 20
86.375100
 30
0.0
 10
66.286700
 20
86.376000
 30
0.0
  0
LWPOLYLINE
  5
14e
100
AcDbEntity
  8
0
 62
7
100
AcDbPolyline
 90
2
 70
0
 10
178.220400
 20
82.290400
 30
0.0
 10
178.053400
 20
82.567900
 30
0.0
  0
SPLINE
  5
14f
100
AcDbEntity
  8
0
 62
7
100
AcDbSpline
 70
8
 71
3
 72
8
 73
4
 74
0
 40
0
 40
0
 40
0
 40
0
 40
1
 40
1
 40
1
 40
1
 10
59.040100
 20
123.477200
 30
0.0
 10
58.947200
 20
123.477200
 30
0.0
 10
58.858200
 20
123.440300
 30
0.0
 10
58.792600
 20
123.374700
 30
0.0
  0
SPLINE
  5
150
100
AcDbEntity
  8
0
 62
7
100
AcDbSpline
 70
8
 71
3
 72
8
 73
4
 74
0
 40
0
 40
0
 40
0
 40
0
 40
1
 40
1
 40
1
 40
1
 10
59.149000
 20
96.907200
 30
0.0
 10
59.241900
 20
96.907200
 30
0.0
 10
59.330900
 20
96.944100
 30
0.0
 10
59.396500
 20
97.009700
 30
0.0
  0
LWPOLYLINE
  5
151
100
AcDbEntity
  8
0
 62
7
100
AcDbPolyline
 90
2
 70
0
 10
96.380300
 20
157.458300
 30
0.0
 10
96.320300
 20
157.458300
 30
0.0
  0
LWPOLYLINE
  5
152
100
AcDbEntity
  8
0
 62
7
100
AcDbPolyline
 90
1
 70
1
 10
58.690400
 20
105.127300
 30
0.0
  0
LWPOLYLINE
  5
153
100
AcDbEntity
  8
0
 62
7
100
AcDbPolyline
 90
2
 70
0
 10
129.622400
 20
78.038000
 30
0.0
 10
131.305100
 20
77.740200
 30
0.0
  0
LWPOLYLINE
  5
154
100
AcDbEntity
  8
0
 62
7
100
AcDbPolyline
 90
2
 70
0
 10
174.923600
 20
92.175600
 30
0.0
 10
174.803900
 20
92.876700
 30
0.0
  0
LWPOLYLINE
  5
155
100
AcDbEntity
  8
0
 62
7
100
AcDbPolyline
 90
2
 70
0
 10
97.325100
 20
84.845300
 30
0.0
 10
98.250100
 20
84.730700
 30
0.0
  0
SPLINE
  5
156
100
AcDbEntity
  8
0
 62
7
100
AcDbSpline
 70
8
 71
3
 72
8
 73
4
 74
0
 40
0
 40
0
 40
0
 40
0
 40
1
 40
1
 40
1
 40
1
 10
94.527400
 20
155.201200
 30
0.0
 10
94.339800
 20
155.013700
 30
0.0
 10
94.085500
 20
154.908300
 30
0.0
 10
93.820300
 20
154.908300
 30
0.0
  0
LWPOLYLINE
  5
157
100
AcDbEntity
  8
0
 62
7
100
AcDbPolyline
 90
2
 70
0
 10
82.090900
 20
86.033800
 30
0.0
 10
84.032600
 20
85.940800
 30
0.0
  0
SPLINE
  5
158
100
AcDbEntity
  8
0
 62
7
100
AcDbSpline
 70
8
 71
3
 72
8
 73
4
 74
0
 40
0
 40
0
 40
0
 40
0
 40
1
 40
1
 40
1
 40
1
 10
133.500900
 20
151.919000
 30
0.0
 10
133.219600
 20
152.200300
 30
0.0
 10
132.838100
 20
152.358300
 30
0.0
 10
132.440300
 20
152.358300
 30
0.0
  0
LWPOLYLINE
  5
159
100
AcDbEntity
  8
0
 62
7
100
AcDbPolyline
 90
2
 70
0
 10
114.097400
 20
81.485800
 30
0.0
 10
114.925000
 20
81.227700
 30
0.0
  0
LWPOLYLINE
  5
15a
100
AcDbEntity
  8
0
 62
7
100
AcDbPolyline
 90
2
 70
0
 10
143.986300
 20
74.721300
 30
0.0
 10
144.823800
 20
74.463200
 30
0.0
  0
SPLINE
  5
15b
100
AcDbEntity
  8
0
 62
7
100
AcDbSpline
 70
8
 71
3
 72
8
 73
4
 74
0
 40
0
 40
0
 40
0
 40
0
 40
1
 40
1
 40
1
 40
1
 10
134.233200
 20
150.099200
 30
0.0
 10
134.045600
 20
150.286700
 30
0.0
 10
133.940300
 20
150.541100
 30
0.0
 10
133.940300
 20
150.806300
 30
0.0
  0
SPLINE
  5
15c
100
AcDbEntity
  8
0
 62
7
100
AcDbSpline
 70
8
 71
3
 72
8
 73
4
 74
0
 40
0
 40
0
 40
0
 40
0
 40
1
 40
1
 40
1
 40
1
 10
59.397600
 20
112.187200
 30
0.0
 10
59.463200
 20
112.252800
 30
0.0
 10
59.500100
 20
112.341800
 30
0.0
 10
59.500100
 20
112.434700
 30
0.0
  0
SPLINE
  5
15d
100
AcDbEntity
  8
0
 62
7
100
AcDbSpline
 70
8
 71
3
 72
8
 73
4
 74
0
 40
0
 40
0
 40
0
 40
0
 40
1
 40
1
 40
1
 40
1
 10
174.240300
 20
146.429100
 30
0.0
 10
174.240300
 20
146.826900
 30
0.0
 10
174.082200
 20
147.208400
 30
0.0
 10
173.800900
 20
147.489800
 30
0.0
  0
LWPOLYLINE
  5
15e
100
AcDbEntity
  8
0
 62
7
100
AcDbPolyline
 90
2
 70
0
 10
94.820300
 20
155.898300
 30
0.0
 10
94.820300
 20
155.908300
 30
0.0
  0
LWPOLYLINE
  5
15f
100
AcDbEntity
  8
0
 62
7
100
AcDbPolyline
 90
2
 70
0
 10
59.504000
 20
138.898300
 30
0.0
 10
59.492500
 20
129.868200
 30
0.0
  0
LWPOLYLINE
  5
160
100
AcDbEntity
  8
0
 62
7
100
AcDbPolyline
 90
2
 70
0
 10
146.489600
 20
73.922500
 30
0.0
 10
147.317100
 20
73.639600
 30
0.0
  0
LWPOLYLINE
  5
161
100
AcDbEntity
  8
0
 62
7
100
AcDbPolyline
 90
2
 70
0
 10
180.959800
 20
79.067700
 30
0.0
 10
180.707800
 20
79.287400
 30
0.0
  0
LWPOLYLINE
  5
162
100
AcDbEntity
  8
0
 62
7
100
AcDbPolyline
 90
2
 70
0
 10
158.372400
 20
68.766700
 30
0.0
 10
159.122800
 20
68.357900
 30
0.0
  0
LWPOLYLINE
  5
163
100
AcDbEntity
  8
0
 62
7
100
AcDbPolyline
 90
2
 70
0
 10
102.813200
 20
84.067000
 30
0.0
 10
103.712600
 20
83.914700
 30
0.0
  0
LWPOLYLINE
  5
164
100
AcDbEntity
  8
0
 62
7
100
AcDbPolyline
 90
2
 70
0
 10
176.015000
 20
87.441000
 30
0.0
 10
175.827700
 20
88.096000
 30
0.0
  0
LWPOLYLINE
  5
165
100
AcDbEntity
  8
0
 62
7
100
AcDbPolyline
 90
2
 70
0
 10
89.799800
 20
85.575200
 30
0.0
 10
91.700400
 20
85.421100
 30
0.0
  0
LWPOLYLINE
  5
166
100
AcDbEntity
  8
0
 62
7
100
AcDbPolyline
 90
2
 70
0
 10
59.094000
 20
112.084800
 30
0.0
 10
59.150100
 20
112.084800
 30
0.0
  0
LWPOLYLINE
  5
167
100
AcDbEntity
  8
0
 62
7
100
AcDbPolyline
 90
2
 70
0
 10
141.460000
 20
75.448600
 30
0.0
 10
142.304000
 20
75.213800
 30
0.0
  0
LWPOLYLINE
  5
168
100
AcDbEntity
  8
0
 62
7
100
AcDbPolyline
 90
2
 70
0
 10
174.587500
 20
94.294400
 30
0.0
 10
174.490200
 20
95.010700
 30
0.0
  0
SPLINE
  5
169
100
AcDbEntity
  8
0
 62
7
100
AcDbSpline
 70
8
 71
3
 72
8
 73
4
 74
0
 40
0
 40
0
 40
0
 40
0
 40
1
 40
1
 40
1
 40
1
 10
116.379600
 20
152.797600
 30
0.0
 10
116.098300
 20
153.078900
 30
0.0
 10
115.940300
 20
153.460500
 30
0.0
 10
115.940300
 20
153.858300
 30
0.0
  0
LWPOLYLINE
  5
16a
100
AcDbEntity
  8
0
 62
7
100
AcDbPolyline
 90
2
 70
0
 10
118.171700
 20
80.101400
 30
0.0
 10
118.967100
 20
79.795900
 30
0.0
  0
SPLINE
  5
16b
100
AcDbEntity
  8
0
 62
7
100
AcDbSpline
 70
8
 71
3
 72
8
 73
4
 74
0
 40
0
 40
0
 40
0
 40
0
 40
1
 40
1
 40
1
 40
1
 10
58.792600
 20
123.374700
 30
0.0
 10
58.726900
 20
123.309100
 30
0.0
 10
58.690100
 20
123.220000
 30
0.0
 10
58.690100
 20
123.127200
 30
0.0
  0
SPLINE
  5
16c
100
AcDbEntity
  8
0
 62
7
100
AcDbSpline
 70
8
 71
3
 72
8
 73
4
 74
0
 40
0
 40
0
 40
0
 40
0
 40
1
 40
1
 40
1
 40
1
 10
58.792900
 20
105.374800
 30
0.0
 10
58.727300
 20
105.309200
 30
0.0
 10
58.690400
 20
105.220100
 30
0.0
 10
58.690400
 20
105.127300
 30
0.0
  0
LWPOLYLINE
  5
16d
100
AcDbEntity
  8
0
 62
7
100
AcDbPolyline
 90
2
 70
0
 10
183.202300
 20
75.726200
 30
0.0
 10
183.307300
 20
75.908100
 30
0.0
  0
LWPOLYLINE
  5
16e
100
AcDbEntity
  8
0
 62
7
100
AcDbPolyline
 90
2
 70
0
 10
177.159900
 20
84.307600
 30
0.0
 10
176.899700
 20
84.913000
 30
0.0
  0
LWPOLYLINE
  5
16f
100
AcDbEntity
  8
0
 62
7
100
AcDbPolyline
 90
2
 70
0
 10
132.380300
 20
152.358300
 30
0.0
 10
117.440300
 20
152.358300
 30
0.0
  0
SPLINE
  5
170
100
AcDbEntity
  8
0
 62
7
100
AcDbSpline
 70
8
 71
3
 72
8
 73
4
 74
0
 40
0
 40
0
 40
0
 40
0
 40
1
 40
1
 40
1
 40
1
 10
151.940300
 20
148.308100
 30
0.0
 10
151.940300
 20
148.705900
 30
0.0
 10
151.782200
 20
149.087400
 30
0.0
 10
151.500900
 20
149.368800
 30
0.0
  0
LWPOLYLINE
  5
171
100
AcDbEntity
  8
0
 62
7
100
AcDbPolyline
 90
2
 70
0
 10
106.381900
 20
83.415000
 30
0.0
 10
107.261400
 20
83.233500
 30
0.0
  0
SPLINE
  5
172
100
AcDbEntity
  8
0
 62
7
100
AcDbSpline
 70
8
 71
3
 72
8
 73
4
 74
0
 40
0
 40
0
 40
0
 40
0
 40
1
 40
1
 40
1
 40
1
 10
60.254000
 20
143.858300
 30
0.0
 10
60.055100
 20
143.858300
 30
0.0
 10
59.864300
 20
143.779300
 30
0.0
 10
59.723700
 20
143.638600
 30
0.0
  0
LWPOLYLINE
  5
173
100
AcDbEntity
  8
0
 62
7
100
AcDbPolyline
 90
2
 70
0
 10
115.746300
 20
80.960300
 30
0.0
 10
116.561300
 20
80.683500
 30
0.0
  0
LWPOLYLINE
  5
174
100
AcDbEntity
  8
0
 62
7
100
AcDbPolyline
 90
2
 70
0
 10
39.880000
 20
86.338400
 30
0.0
 10
57.940000
 20
86.338400
 30
0.0
  0
LWPOLYLINE
  5
175
100
AcDbEntity
  8
0
 62
7
100
AcDbPolyline
 90
2
 70
0
 10
147.317100
 20
73.639600
 30
0.0
 10
148.140500
 20
73.348100
 30
0.0
  0
LWPOLYLINE
  5
176
100
AcDbEntity
  8
0
 62
7
100
AcDbPolyline
 90
2
 70
0
 10
139.768100
 20
75.896200
 30
0.0
 10
140.614600
 20
75.676000
 30
0.0
  0
LWPOLYLINE
  5
177
100
AcDbEntity
  8
0
 62
7
100
AcDbPolyline
 90
2
 70
0
 10
59.152100
 20
123.477200
 30
0.0
 10
59.096100
 20
123.477200
 30
0.0
  0
LWPOLYLINE
  5
178
100
AcDbEntity
  8
0
 62
7
100
AcDbPolyline
 90
2
 70
0
 10
76.216600
 20
86.240800
 30
0.0
 10
78.182400
 20
86.183800
 30
0.0
  0
LWPOLYLINE
  5
179
100
AcDbEntity
  8
0
 62
7
100
AcDbPolyline
 90
2
 70
0
 10
84.032600
 20
85.940800
 30
0.0
 10
85.965100
 20
85.833900
 30
0.0
  0
LWPOLYLINE
  5
17a
100
AcDbEntity
  8
0
 62
7
100
AcDbPolyline
 90
2
 70
0
 10
176.899700
 20
84.913000
 30
0.0
 10
176.656200
 20
85.529800
 30
0.0
  0
LWPOLYLINE
  5
17b
100
AcDbEntity
  8
0
 62
7
100
AcDbPolyline
 90
2
 70
0
 10
115.940300
 20
153.858300
 30
0.0
 10
115.940300
 20
155.898300
 30
0.0
  0
LWPOLYLINE
  5
17c
100
AcDbEntity
  8
0
 62
7
100
AcDbPolyline
 90
2
 70
0
 10
182.813200
 20
77.752200
 30
0.0
 10
182.631300
 20
77.857300
 30
0.0
  0
LWPOLYLINE
  5
17d
100
AcDbEntity
  8
0
 62
7
100
AcDbPolyline
 90
2
 70
0
 10
175.487200
 20
89.429200
 30
0.0
 10
175.332500
 20
90.106500
 30
0.0
  0
LWPOLYLINE
  5
17e
100
AcDbEntity
  8
0
 62
7
100
AcDbPolyline
 90
2
 70
0
 10
174.597300
 20
60.822300
 30
0.0
 10
183.202300
 20
75.726200
 30
0.0
  0
LWPOLYLINE
  5
17f
100
AcDbEntity
  8
0
 62
7
100
AcDbPolyline
 90
2
 70
0
 10
165.037100
 20
64.902200
 30
0.0
 10
166.515200
 20
64.008000
 30
0.0
  0
LWPOLYLINE
  5
180
100
AcDbEntity
  8
0
 62
7
100
AcDbPolyline
 90
2
 70
0
 10
157.617600
 20
69.168600
 30
0.0
 10
158.372400
 20
68.766700
 30
0.0
  0
LWPOLYLINE
  5
181
100
AcDbEntity
  8
0
 62
7
100
AcDbPolyline
 90
2
 70
0
 10
177.735500
 20
83.134200
 30
0.0
 10
177.438100
 20
83.714300
 30
0.0
  0
LWPOLYLINE
  5
182
100
AcDbEntity
  8
0
 62
7
100
AcDbPolyline
 90
2
 70
0
 10
103.712600
 20
83.914700
 30
0.0
 10
104.607200
 20
83.755400
 30
0.0
  0
LWPOLYLINE
  5
183
100
AcDbEntity
  8
0
 62
7
100
AcDbPolyline
 90
2
 70
0
 10
76.749100
 20
153.348300
 30
0.0
 10
76.836100
 20
145.374700
 30
0.0
  0
SPLINE
  5
184
100
AcDbEntity
  8
0
 62
7
100
AcDbSpline
 70
8
 71
3
 72
8
 73
4
 74
0
 40
0
 40
0
 40
0
 40
0
 40
1
 40
1
 40
1
 40
1
 10
59.723700
 20
143.638600
 30
0.0
 10
59.583000
 20
143.498000
 30
0.0
 10
59.504000
 20
143.307200
 30
0.0
 10
59.504000
 20
143.108300
 30
0.0
  0
LWPOLYLINE
  5
185
100
AcDbEntity
  8
0
 62
7
100
AcDbPolyline
 90
2
 70
0
 10
58.690000
 20
87.088400
 30
0.0
 10
58.690000
 20
90.257300
 30
0.0
  0
LWPOLYLINE
  5
186
100
AcDbEntity
  8
0
 62
7
100
AcDbPolyline
 90
2
 70
0
 10
179.346100
 20
80.708600
 30
0.0
 10
179.143000
 20
80.961800
 30
0.0
  0
LWPOLYLINE
  5
187
100
AcDbEntity
  8
0
 62
7
100
AcDbPolyline
 90
2
 70
0
 10
101.909300
 20
84.212500
 30
0.0
 10
102.813200
 20
84.067000
 30
0.0
  0
LWPOLYLINE
  5
188
100
AcDbEntity
  8
0
 62
7
100
AcDbPolyline
 90
2
 70
0
 10
113.263600
 20
81.734700
 30
0.0
 10
114.097400
 20
81.485800
 30
0.0
  0
LWPOLYLINE
  5
189
100
AcDbEntity
  8
0
 62
7
100
AcDbPolyline
 90
2
 70
0
 10
135.530600
 20
76.895800
 30
0.0
 10
136.377900
 20
76.708900
 30
0.0
  0
LWPOLYLINE
  5
18a
100
AcDbEntity
  8
0
 62
7
100
AcDbPolyline
 90
2
 70
0
 10
150.380300
 20
149.808100
 30
0.0
 10
134.940300
 20
149.808100
 30
0.0
  0
LWPOLYLINE
  5
18b
100
AcDbEntity
  8
0
 62
7
100
AcDbPolyline
 90
2
 70
0
 10
153.765900
 20
71.061300
 30
0.0
 10
154.547400
 20
70.699300
 30
0.0
  0
LWPOLYLINE
  5
18c
100
AcDbEntity
  8
0
 62
7
100
AcDbPolyline
 90
2
 70
0
 10
159.869300
 20
67.942600
 30
0.0
 10
160.612500
 20
67.521400
 30
0.0
  0
SPLINE
  5
18d
100
AcDbEntity
  8
0
 62
7
100
AcDbSpline
 70
8
 71
3
 72
8
 73
4
 74
0
 40
0
 40
0
 40
0
 40
0
 40
1
 40
1
 40
1
 40
1
 10
38.320000
 20
87.838400
 30
0.0
 10
38.320000
 20
87.010000
 30
0.0
 10
38.991600
 20
86.338400
 30
0.0
 10
39.820000
 20
86.338400
 30
0.0
  0
LWPOLYLINE
  5
18e
100
AcDbEntity
  8
0
 62
7
100
AcDbPolyline
 90
2
 70
0
 10
59.095100
 20
96.907200
 30
0.0
 10
59.149000
 20
96.907200
 30
0.0
  0
LWPOLYLINE
  5
18f
100
AcDbEntity
  8
0
 62
7
100
AcDbPolyline
 90
2
 70
0
 10
93.820300
 20
154.908300
 30
0.0
 10
78.380300
 20
154.908300
 30
0.0
  0
LWPOLYLINE
  5
190
100
AcDbEntity
  8
0
 62
7
100
AcDbPolyline
 90
2
 70
0
 10
59.040100
 20
90.607300
 30
0.0
 10
59.147700
 20
90.607300
 30
0.0
  0
SPLINE
  5
191
100
AcDbEntity
  8
0
 62
7
100
AcDbSpline
 70
8
 71
3
 72
8
 73
4
 74
0
 40
0
 40
0
 40
0
 40
0
 40
1
 40
1
 40
1
 40
1
 10
59.390000
 20
129.620700
 30
0.0
 10
59.324300
 20
129.555000
 30
0.0
 10
59.235300
 20
129.518200
 30
0.0
 10
59.142400
 20
129.518200
 30
0.0
  0
LWPOLYLINE
  5
192
100
AcDbEntity
  8
0
 62
7
100
AcDbPolyline
 90
2
 70
0
 10
66.286700
 20
86.376000
 30
0.0
 10
68.285200
 20
86.367800
 30
0.0
  0
LWPOLYLINE
  5
193
100
AcDbEntity
  8
0
 62
7
100
AcDbPolyline
 90
2
 70
0
 10
59.499000
 20
97.257200
 30
0.0
 10
59.500400
 20
105.127200
 30
0.0
  0
SPLINE
  5
194
100
AcDbEntity
  8
0
 62
7
100
AcDbSpline
 70
8
 71
3
 72
8
 73
4
 74
0
 40
0
 40
0
 40
0
 40
0
 40
1
 40
1
 40
1
 40
1
 10
59.502000
 20
123.127200
 30
0.0
 10
59.502000
 20
123.320500
 30
0.0
 10
59.345300
 20
123.477100
 30
0.0
 10
59.152100
 20
123.477200
 30
0.0
  0
LWPOLYLINE
  5
195
100
AcDbEntity
  8
0
 62
7
100
AcDbPolyline
 90
2
 70
0
 10
175.332500
 20
90.106500
 30
0.0
 10
175.187400
 20
90.790100
 30
0.0
  0
LWPOLYLINE
  5
196
100
AcDbEntity
  8
0
 62
7
100
AcDbPolyline
 90
2
 70
0
 10
179.995500
 20
79.976600
 30
0.0
 10
179.772200
 20
80.216100
 30
0.0
  0
LWPOLYLINE
  5
197
100
AcDbEntity
  8
0
 62
7
100
AcDbPolyline
 90
2
 70
0
 10
177.891800
 20
82.849300
 30
0.0
 10
177.735500
 20
83.134200
 30
0.0
  0
LWPOLYLINE
  5
198
100
AcDbEntity
  8
0
 62
7
100
AcDbPolyline
 90
2
 70
0
 10
180.463100
 20
79.512300
 30
0.0
 10
180.225700
 20
79.742000
 30
0.0
  0
LWPOLYLINE
  5
199
100
AcDbEntity
  8
0
 62
7
100
AcDbPolyline
 90
2
 70
0
 10
150.583100
 20
72.421300
 30
0.0
 10
151.387100
 20
72.094600
 30
0.0
  0
LWPOLYLINE
  5
19a
100
AcDbEntity
  8
0
 62
7
100
AcDbPolyline
 90
2
 70
0
 10
91.700400
 20
85.421100
 30
0.0
 10
93.588800
 20
85.248900
 30
0.0
  0
SPLINE
  5
19b
100
AcDbEntity
  8
0
 62
7
100
AcDbSpline
 70
8
 71
3
 72
8
 73
4
 74
0
 40
0
 40
0
 40
0
 40
0
 40
1
 40
1
 40
1
 40
1
 10
58.690000
 20
97.257200
 30
0.0
 10
58.690000
 20
97.164400
 30
0.0
 10
58.726900
 20
97.075400
 30
0.0
 10
58.792600
 20
97.009700
 30
0.0
  0
LWPOLYLINE
  5
19c
100
AcDbEntity
  8
0
 62
7
100
AcDbPolyline
 90
2
 70
0
 10
178.571500
 20
81.746700
 30
0.0
 10
178.393000
 20
82.016600
 30
0.0
  0
LWPOLYLINE
  5
19d
100
AcDbEntity
  8
0
 62
7
100
AcDbPolyline
 90
2
 70
0
 10
178.946300
 20
81.219200
 30
0.0
 10
178.755800
 20
81.480800
 30
0.0
  0
LWPOLYLINE
  5
19e
100
AcDbEntity
  8
0
 62
7
100
AcDbPolyline
 90
2
 70
0
 10
78.182400
 20
86.183800
 30
0.0
 10
80.140700
 20
86.114800
 30
0.0
  0
LWPOLYLINE
  5
19f
100
AcDbEntity
  8
0
 62
7
100
AcDbPolyline
 90
2
 70
0
 10
152.978700
 20
71.414600
 30
0.0
 10
153.765900
 20
71.061300
 30
0.0
  0
LWPOLYLINE
  5
1a0
100
AcDbEntity
  8
0
 62
7
100
AcDbPolyline
 90
2
 70
0
 10
59.096100
 20
123.477200
 30
0.0
 10
59.040100
 20
123.477200
 30
0.0
  0
LWPOLYLINE
  5
1a1
100
AcDbEntity
  8
0
 62
7
100
AcDbPolyline
 90
2
 70
0
 10
159.122800
 20
68.357900
 30
0.0
 10
159.869300
 20
67.942600
 30
0.0
  0
LWPOLYLINE
  5
1a2
100
AcDbEntity
  8
0
 62
7
100
AcDbPolyline
 90
2
 70
0
 10
105.497100
 20
83.588900
 30
0.0
 10
106.381900
 20
83.415000
 30
0.0
  0
LWPOLYLINE
  5
1a3
100
AcDbEntity
  8
0
 62
7
100
AcDbPolyline
 90
2
 70
0
 10
181.486300
 20
78.643400
 30
0.0
 10
181.219300
 20
78.853000
 30
0.0
  0
SPLINE
  5
1a4
100
AcDbEntity
  8
0
 62
7
100
AcDbSpline
 70
8
 71
3
 72
8
 73
4
 74
0
 40
0
 40
0
 40
0
 40
0
 40
1
 40
1
 40
1
 40
1
 10
59.395200
 20
90.504800
 30
0.0
 10
59.460900
 20
90.439100
 30
0.0
 10
59.497700
 20
90.350000
 30
0.0
 10
59.497700
 20
90.257200
 30
0.0
  0
LWPOLYLINE
  5
1a5
100
AcDbEntity
  8
0
 62
7
100
AcDbPolyline
 90
2
 70
0
 10
181.761000
 20
78.438900
 30
0.0
 10
181.486300
 20
78.643400
 30
0.0
  0
LWPOLYLINE
  5
1a6
100
AcDbEntity
  8
0
 62
7
100
AcDbPolyline
 90
1
 70
1
 10
58.690100
 20
123.127200
 30
0.0
  0
LWPOLYLINE
  5
1a7
100
AcDbEntity
  8
0
 62
7
100
AcDbPolyline
 90
2
 70
0
 10
59.142400
 20
129.518200
 30
0.0
 10
59.030000
 20
129.518400
 30
0.0
  0
SPLINE
  5
1a8
100
AcDbEntity
  8
0
 62
7
100
AcDbSpline
 70
8
 71
3
 72
8
 73
4
 74
0
 40
0
 40
0
 40
0
 40
0
 40
1
 40
1
 40
1
 40
1
 10
173.800900
 20
147.489800
 30
0.0
 10
173.519600
 20
147.771100
 30
0.0
 10
173.138100
 20
147.929100
 30
0.0
 10
172.740300
 20
147.929100
 30
0.0
  0
LWPOLYLINE
  5
1a9
100
AcDbEntity
  8
0
 62
7
100
AcDbPolyline
 90
2
 70
0
 10
177.438100
 20
83.714300
 30
0.0
 10
177.159900
 20
84.307600
 30
0.0
  0
SPLINE
  5
1aa
100
AcDbEntity
  8
0
 62
7
100
AcDbSpline
 70
8
 71
3
 72
8
 73
4
 74
0
 40
0
 40
0
 40
0
 40
0
 40
1
 40
1
 40
1
 40
1
 10
133.940300
 20
150.858300
 30
0.0
 10
133.940300
 20
151.256100
 30
0.0
 10
133.782200
 20
151.637700
 30
0.0
 10
133.500900
 20
151.919000
 30
0.0
  0
LWPOLYLINE
  5
1ab
100
AcDbEntity
  8
0
 62
7
100
AcDbPolyline
 90
2
 70
0
 10
76.749100
 20
153.408300
 30
0.0
 10
76.749100
 20
153.348300
 30
0.0
  0
LWPOLYLINE
  5
1ac
100
AcDbEntity
  8
0
 62
7
100
AcDbPolyline
 90
2
 70
0
 10
78.380300
 20
154.908300
 30
0.0
 10
78.249100
 20
154.908300
 30
0.0
  0
LWPOLYLINE
  5
1ad
100
AcDbEntity
  8
0
 62
7
100
AcDbPolyline
 90
2
 70
0
 10
163.564300
 20
65.788900
 30
0.0
 10
165.037100
 20
64.902200
 30
0.0
  0
SPLINE
  5
1ae
100
AcDbEntity
  8
0
 62
7
100
AcDbSpline
 70
8
 71
3
 72
8
 73
4
 74
0
 40
0
 40
0
 40
0
 40
0
 40
1
 40
1
 40
1
 40
1
 10
59.040400
 20
105.477300
 30
0.0
 10
58.947600
 20
105.477300
 30
0.0
 10
58.858500
 20
105.440400
 30
0.0
 10
58.792900
 20
105.374800
 30
0.0
  0
SPLINE
  5
1af
100
AcDbEntity
  8
0
 62
7
100
AcDbSpline
 70
8
 71
3
 72
8
 73
4
 74
0
 40
0
 40
0
 40
0
 40
0
 40
1
 40
1
 40
1
 40
1
 10
76.402600
 20
144.303500
 30
0.0
 10
76.120800
 20
144.018600
 30
0.0
 10
75.736800
 20
143.858300
 30
0.0
 10
75.336200
 20
143.858300
 30
0.0
  0
LWPOLYLINE
  5
1b0
100
AcDbEntity
  8
0
 62
7
100
AcDbPolyline
 90
2
 70
0
 10
85.965100
 20
85.833900
 30
0.0
 10
87.887700
 20
85.712400
 30
0.0
  0
LWPOLYLINE
  5
1b1
100
AcDbEntity
  8
0
 62
7
100
AcDbPolyline
 90
2
 70
0
 10
115.940300
 20
155.898300
 30
0.0
 10
115.940300
 20
155.958300
 30
0.0
  0
SPLINE
  5
1b2
100
AcDbEntity
  8
0
 62
7
100
AcDbSpline
 70
8
 71
3
 72
8
 73
4
 74
0
 40
0
 40
0
 40
0
 40
0
 40
1
 40
1
 40
1
 40
1
 10
59.497100
 20
87.097600
 30
0.0
 10
59.497100
 20
86.897200
 30
0.0
 10
59.577200
 20
86.705100
 30
0.0
 10
59.719700
 20
86.564200
 30
0.0
  0
LWPOLYLINE
  5
1b3
100
AcDbEntity
  8
0
 62
7
100
AcDbPolyline
 90
2
 70
0
 10
180.225700
 20
79.742000
 30
0.0
 10
179.995500
 20
79.976600
 30
0.0
  0
LWPOLYLINE
  5
1b4
100
AcDbEntity
  8
0
 62
7
100
AcDbPolyline
 90
2
 70
0
 10
151.940300
 20
148.248100
 30
0.0
 10
151.940300
 20
148.308100
 30
0.0
  0
SPLINE
  5
1b5
100
AcDbEntity
  8
0
 62
7
100
AcDbSpline
 70
8
 71
3
 72
8
 73
4
 74
0
 40
0
 40
0
 40
0
 40
0
 40
1
 40
1
 40
1
 40
1
 10
58.792600
 20
97.009700
 30
0.0
 10
58.858200
 20
96.944100
 30
0.0
 10
58.947200
 20
96.907200
 30
0.0
 10
59.040100
 20
96.907200
 30
0.0
  0
LWPOLYLINE
  5
1b6
100
AcDbEntity
  8
0
 62
7
100
AcDbPolyline
 90
2
 70
0
 10
148.140500
 20
73.348100
 30
0.0
 10
148.959500
 20
73.048000
 30
0.0
  0
LWPOLYLINE
  5
1b7
100
AcDbEntity
  8
0
 62
7
100
AcDbPolyline
 90
2
 70
0
 10
131.305100
 20
77.740200
 30
0.0
 10
132.992500
 20
77.420000
 30
0.0
  0
SPLINE
  5
1b8
100
AcDbEntity
  8
0
 62
7
100
AcDbSpline
 70
8
 71
3
 72
8
 73
4
 74
0
 40
0
 40
0
 40
0
 40
0
 40
1
 40
1
 40
1
 40
1
 10
76.836100
 20
145.374700
 30
0.0
 10
76.840400
 20
144.974100
 30
0.0
 10
76.684400
 20
144.588300
 30
0.0
 10
76.402600
 20
144.303500
 30
0.0
  0
LWPOLYLINE
  5
1b9
100
AcDbEntity
  8
0
 62
7
100
AcDbPolyline
 90
2
 70
0
 10
134.683800
 20
77.076500
 30
0.0
 10
135.530600
 20
76.895800
 30
0.0
  0
SPLINE
  5
1ba
100
AcDbEntity
  8
0
 62
7
100
AcDbSpline
 70
8
 71
3
 72
8
 73
4
 74
0
 40
0
 40
0
 40
0
 40
0
 40
1
 40
1
 40
1
 40
1
 10
183.307300
 20
75.908100
 30
0.0
 10
183.680100
 20
76.553800
 30
0.0
 10
183.458900
 20
77.379400
 30
0.0
 10
182.813200
 20
77.752200
 30
0.0
  0
LWPOLYLINE
  5
1bb
100
AcDbEntity
  8
0
 62
7
100
AcDbPolyline
 90
2
 70
0
 10
179.143000
 20
80.961800
 30
0.0
 10
178.946300
 20
81.219200
 30
0.0
  0
LWPOLYLINE
  5
1bc
100
AcDbEntity
  8
0
 62
7
100
AcDbPolyline
 90
2
 70
0
 10
168.003500
 20
63.110700
 30
0.0
 10
169.506800
 20
62.214000
 30
0.0
  0
LWPOLYLINE
  5
1bd
100
AcDbEntity
  8
0
 62
7
100
AcDbPolyline
 90
2
 70
0
 10
181.219300
 20
78.853000
 30
0.0
 10
180.959800
 20
79.067700
 30
0.0
  0
LWPOLYLINE
  5
1be
100
AcDbEntity
  8
0
 62
7
100
AcDbPolyline
 90
2
 70
0
 10
58.690000
 20
105.127200
 30
0.0
 10
58.690000
 20
97.257200
 30
0.0
  0
LWPOLYLINE
  5
1bf
100
AcDbEntity
  8
0
 62
7
100
AcDbPolyline
 90
2
 70
0
 10
150.440300
 20
149.808100
 30
0.0
 10
150.380300
 20
149.808100
 30
0.0
  0
LWPOLYLINE
  5
1c0
100
AcDbEntity
  8
0
 62
7
100
AcDbPolyline
 90
2
 70
0
 10
156.093300
 20
69.950000
 30
0.0
 10
156.858100
 20
69.563200
 30
0.0
  0
LWPOLYLINE
  5
1c1
100
AcDbEntity
  8
0
 62
7
100
AcDbPolyline
 90
2
 70
0
 10
99.171000
 20
84.610300
 30
0.0
 10
100.088000
 20
84.483900
 30
0.0
  0
LWPOLYLINE
  5
1c2
100
AcDbEntity
  8
0
 62
7
100
AcDbPolyline
 90
2
 70
0
 10
38.320000
 20
138.957200
 30
0.0
 10
38.320000
 20
87.838400
 30
0.0
  0
LWPOLYLINE
  5
1c3
100
AcDbEntity
  8
0
 62
7
100
AcDbPolyline
 90
2
 70
0
 10
174.240300
 20
97.188100
 30
0.0
 10
174.240300
 20
146.429100
 30
0.0
  0
SPLINE
  5
1c4
100
AcDbEntity
  8
0
 62
7
100
AcDbSpline
 70
8
 71
3
 72
8
 73
4
 74
0
 40
0
 40
0
 40
0
 40
0
 40
1
 40
1
 40
1
 40
1
 10
152.240300
 20
147.929100
 30
0.0
 10
152.160700
 20
147.929100
 30
0.0
 10
152.084400
 20
147.960700
 30
0.0
 10
152.028100
 20
148.017000
 30
0.0
  0
LWPOLYLINE
  5
1c5
100
AcDbEntity
  8
0
 62
7
100
AcDbPolyline
 90
2
 70
0
 10
114.925000
 20
81.227700
 30
0.0
 10
115.746300
 20
80.960300
 30
0.0
  0
SPLINE
  5
1c6
100
AcDbEntity
  8
0
 62
7
100
AcDbSpline
 70
8
 71
3
 72
8
 73
4
 74
0
 40
0
 40
0
 40
0
 40
0
 40
1
 40
1
 40
1
 40
1
 10
39.820000
 20
140.457200
 30
0.0
 10
38.991600
 20
140.457200
 30
0.0
 10
38.320000
 20
139.785600
 30
0.0
 10
38.320000
 20
138.957200
 30
0.0
  0
LWPOLYLINE
  5
1c7
100
AcDbEntity
  8
0
 62
7
100
AcDbPolyline
 90
2
 70
0
 10
174.316700
 20
96.457600
 30
0.0
 10
174.240300
 20
97.188100
 30
0.0
  0
LWPOLYLINE
  5
1c8
100
AcDbEntity
  8
0
 62
7
100
AcDbPolyline
 90
2
 70
0
 10
174.803900
 20
92.876700
 30
0.0
 10
174.692000
 20
93.582900
 30
0.0
  0
LWPOLYLINE
  5
1c9
100
AcDbEntity
  8
0
 62
7
100
AcDbPolyline
 90
2
 70
0
 10
152.185700
 20
71.759000
 30
0.0
 10
152.978700
 20
71.414600
 30
0.0
  0
LWPOLYLINE
  5
1ca
100
AcDbEntity
  8
0
 62
7
100
AcDbPolyline
 90
2
 70
0
 10
166.515200
 20
64.008000
 30
0.0
 10
168.003500
 20
63.110700
 30
0.0
  0
LWPOLYLINE
  5
1cb
100
AcDbEntity
  8
0
 62
7
100
AcDbPolyline
 90
2
 70
0
 10
132.440300
 20
152.358300
 30
0.0
 10
132.380300
 20
152.358300
 30
0.0
  0
LWPOLYLINE
  5
1cc
100
AcDbEntity
  8
0
 62
7
100
AcDbPolyline
 90
2
 70
0
 10
96.396500
 20
84.954300
 30
0.0
 10
97.325100
 20
84.845300
 30
0.0
  0
LWPOLYLINE
  5
1cd
100
AcDbEntity
  8
0
 62
7
100
AcDbPolyline
 90
2
 70
0
 10
149.773800
 20
72.739100
 30
0.0
 10
150.583100
 20
72.421300
 30
0.0
  0
LWPOLYLINE
  5
1ce
100
AcDbEntity
  8
0
 62
7
100
AcDbPolyline
 90
2
 70
0
 10
87.887700
 20
85.712400
 30
0.0
 10
89.799800
 20
85.575200
 30
0.0
  0
LWPOLYLINE
  5
1cf
100
AcDbEntity
  8
0
 62
7
100
AcDbPolyline
 90
2
 70
0
 10
100.088000
 20
84.483900
 30
0.0
 10
101.000800
 20
84.351400
 30
0.0
  0
LWPOLYLINE
  5
1d0
100
AcDbEntity
  8
0
 62
7
100
AcDbPolyline
 90
2
 70
0
 10
178.053400
 20
82.567900
 30
0.0
 10
177.891800
 20
82.849300
 30
0.0
  0
LWPOLYLINE
  5
1d1
100
AcDbEntity
  8
0
 62
7
100
AcDbPolyline
 90
2
 70
0
 10
162.091300
 20
66.663600
 30
0.0
 10
163.564300
 20
65.788900
 30
0.0
  0
LWPOLYLINE
  5
1d2
100
AcDbEntity
  8
0
 62
7
100
AcDbPolyline
 90
2
 70
0
 10
124.606700
 20
78.803100
 30
0.0
 10
126.272900
 20
78.569000
 30
0.0
  0
LWPOLYLINE
  5
1d3
100
AcDbEntity
  8
0
 62
7
100
AcDbPolyline
 90
2
 70
0
 10
57.940000
 20
140.458400
 30
0.0
 10
57.880000
 20
140.458400
 30
0.0
  0
LWPOLYLINE
  5
1d4
100
AcDbEntity
  8
0
 62
7
100
AcDbPolyline
 90
2
 70
0
 10
136.377900
 20
76.708900
 30
0.0
 10
137.225500
 20
76.515600
 30
0.0
  0
LWPOLYLINE
  5
1d5
100
AcDbEntity
  8
0
 62
7
100
AcDbPolyline
 90
2
 70
0
 10
58.680000
 20
129.868400
 30
0.0
 10
58.690000
 20
138.898400
 30
0.0
  0
LWPOLYLINE
  5
1d6
100
AcDbEntity
  8
0
 62
7
100
AcDbPolyline
 90
2
 70
0
 10
154.547400
 20
70.699300
 30
0.0
 10
155.323200
 20
70.328800
 30
0.0
  0
LWPOLYLINE
  5
1d7
100
AcDbEntity
  8
0
 62
7
100
AcDbPolyline
 90
2
 70
0
 10
169.506800
 20
62.214000
 30
0.0
 10
171.028600
 20
61.320800
 30
0.0
  0
LWPOLYLINE
  5
1d8
100
AcDbEntity
  8
0
 62
7
100
AcDbPolyline
 90
2
 70
0
 10
138.920900
 20
76.109400
 30
0.0
 10
139.768100
 20
75.896200
 30
0.0
  0
SPLINE
  5
1d9
100
AcDbEntity
  8
0
 62
7
100
AcDbSpline
 70
8
 71
3
 72
8
 73
4
 74
0
 40
0
 40
0
 40
0
 40
0
 40
1
 40
1
 40
1
 40
1
 10
115.500900
 20
157.019000
 30
0.0
 10
115.219600
 20
157.300300
 30
0.0
 10
114.838100
 20
157.458300
 30
0.0
 10
114.440300
 20
157.458300
 30
0.0
  0
LWPOLYLINE
  5
1da
100
AcDbEntity
  8
0
 62
7
100
AcDbPolyline
 90
2
 70
0
 10
151.387100
 20
72.094600
 30
0.0
 10
152.185700
 20
71.759000
 30
0.0
  0
LWPOLYLINE
  5
1db
100
AcDbEntity
  8
0
 62
7
100
AcDbPolyline
 90
2
 70
0
 10
58.690000
 20
138.898400
 30
0.0
 10
58.690000
 20
139.708400
 30
0.0
  0
SPLINE
  5
1dc
100
AcDbEntity
  8
0
 62
7
100
AcDbSpline
 70
8
 71
3
 72
8
 73
4
 74
0
 40
0
 40
0
 40
0
 40
0
 40
1
 40
1
 40
1
 40
1
 10
59.030000
 20
129.518400
 30
0.0
 10
58.937200
 20
129.518400
 30
0.0
 10
58.848100
 20
129.555200
 30
0.0
 10
58.782500
 20
129.620900
 30
0.0
  0
LWPOLYLINE
  5
1dd
100
AcDbEntity
  8
0
 62
7
100
AcDbPolyline
 90
2
 70
0
 10
110.725700
 20
82.427900
 30
0.0
 10
111.577600
 20
82.205600
 30
0.0
  0
LWPOLYLINE
  5
1de
100
AcDbEntity
  8
0
 62
7
100
AcDbPolyline
 90
2
 70
0
 10
112.423600
 20
81.974600
 30
0.0
 10
113.263600
 20
81.734700
 30
0.0
  0
LWPOLYLINE
  5
1df
100
AcDbEntity
  8
0
 62
7
100
AcDbPolyline
 90
2
 70
0
 10
182.333400
 20
78.045900
 30
0.0
 10
182.043300
 20
78.239800
 30
0.0
  0
LWPOLYLINE
  5
1e0
100
AcDbEntity
  8
0
 62
7
100
AcDbPolyline
 90
2
 70
0
 10
59.504000
 20
143.108300
 30
0.0
 10
59.504000
 20
142.358300
 30
0.0
  0
LWPOLYLINE
  5
1e1
100
AcDbEntity
  8
0
 62
7
100
AcDbPolyline
 90
2
 70
0
 10
74.243700
 20
86.287800
 30
0.0
 10
76.216600
 20
86.240800
 30
0.0
  0
SPLINE
  5
1e2
100
AcDbEntity
  8
0
 62
7
100
AcDbSpline
 70
8
 71
3
 72
8
 73
4
 74
0
 40
0
 40
0
 40
0
 40
0
 40
1
 40
1
 40
1
 40
1
 10
59.719700
 20
86.564200
 30
0.0
 10
59.862200
 20
86.423200
 30
0.0
 10
60.055200
 20
86.345200
 30
0.0
 10
60.255600
 20
86.347500
 30
0.0
  0
LWPOLYLINE
  5
1e3
100
AcDbEntity
  8
0
 62
7
100
AcDbPolyline
 90
2
 70
0
 10
180.707800
 20
79.287400
 30
0.0
 10
180.463100
 20
79.512300
 30
0.0
  0
SPLINE
  5
1e4
100
AcDbEntity
  8
0
 62
7
100
AcDbSpline
 70
8
 71
3
 72
8
 73
4
 74
0
 40
0
 40
0
 40
0
 40
0
 40
1
 40
1
 40
1
 40
1
 10
172.753100
 20
60.328200
 30
0.0
 10
173.398800
 20
59.955400
 30
0.0
 10
174.224500
 20
60.176600
 30
0.0
 10
174.597300
 20
60.822300
 30
0.0
  0
LWPOLYLINE
  5
1e5
100
AcDbEntity
  8
0
 62
7
100
AcDbPolyline
 90
2
 70
0
 10
94.528100
 20
85.155900
 30
0.0
 10
95.464100
 20
85.057900
 30
0.0
  0
LWPOLYLINE
  5
1e6
100
AcDbEntity
  8
0
 62
7
100
AcDbPolyline
 90
2
 70
0
 10
140.614600
 20
75.676000
 30
0.0
 10
141.460000
 20
75.448600
 30
0.0
  0
LWPOLYLINE
  5
1e7
100
AcDbEntity
  8
0
 62
7
100
AcDbPolyline
 90
2
 70
0
 10
59.040100
 20
96.907200
 30
0.0
 10
59.095100
 20
96.907200
 30
0.0
  0
LWPOLYLINE
  5
1e8
100
AcDbEntity
  8
0
 62
7
100
AcDbPolyline
 90
2
 70
0
 10
142.304000
 20
75.213800
 30
0.0
 10
143.146200
 20
74.971400
 30
0.0
  0
LWPOLYLINE
  5
1e9
100
AcDbEntity
  8
0
 62
7
100
AcDbPolyline
 90
2
 70
0
 10
93.588800
 20
85.248900
 30
0.0
 10
94.528100
 20
85.155900
 30
0.0
  0
SPLINE
  5
1ea
100
AcDbEntity
  8
0
 62
7
100
AcDbSpline
 70
8
 71
3
 72
8
 73
4
 74
0
 40
0
 40
0
 40
0
 40
0
 40
1
 40
1
 40
1
 40
1
 10
115.940300
 20
155.958300
 30
0.0
 10
115.940300
 20
156.356100
 30
0.0
 10
115.782200
 20
156.737700
 30
0.0
 10
115.500900
 20
157.019000
 30
0.0
  0
SPLINE
  5
1eb
100
AcDbEntity
  8
0
 62
7
100
AcDbSpline
 70
8
 71
3
 72
8
 73
4
 74
0
 40
0
 40
0
 40
0
 40
0
 40
1
 40
1
 40
1
 40
1
 10
58.470300
 20
140.238700
 30
0.0
 10
58.329700
 20
140.379400
 30
0.0
 10
58.138900
 20
140.458400
 30
0.0
 10
57.940000
 20
140.458400
 30
0.0
  0
LWPOLYLINE
  5
1ec
100
AcDbEntity
  8
0
 62
7
100
AcDbPolyline
 90
2
 70
0
 10
62.271800
 20
86.365500
 30
0.0
 10
64.282200
 20
86.375100
 30
0.0
  0
SPLINE
  5
1ed
100
AcDbEntity
  8
0
 62
7
100
AcDbSpline
 70
8
 71
3
 72
8
 73
4
 74
0
 40
0
 40
0
 40
0
 40
0
 40
1
 40
1
 40
1
 40
1
 10
96.320300
 20
157.458300
 30
0.0
 10
95.922400
 20
157.458300
 30
0.0
 10
95.540900
 20
157.300300
 30
0.0
 10
95.259600
 20
157.019000
 30
0.0
  0
LWPOLYLINE
  5
1ee
100
AcDbEntity
  8
0
 62
7
100
AcDbPolyline
 90
2
 70
0
 10
179.772200
 20
80.216100
 30
0.0
 10
179.555800
 20
80.460100
 30
0.0
  0
LWPOLYLINE
  5
1ef
100
AcDbEntity
  8
0
 62
7
100
AcDbPolyline
 90
2
 70
0
 10
138.073300
 20
76.315800
 30
0.0
 10
138.920900
 20
76.109400
 30
0.0
  0
LWPOLYLINE
  5
1f0
100
AcDbEntity
  8
0
 62
7
100
AcDbPolyline
 90
2
 70
0
 10
133.940300
 20
150.858300
 30
0.0
 10
133.940300
 20
150.806300
 30
0.0
  0
LWPOLYLINE
  5
1f1
100
AcDbEntity
  8
0
 62
7
100
AcDbPolyline
 90
2
 70
0
 10
60.255600
 20
86.347500
 30
0.0
 10
62.271800
 20
86.365500
 30
0.0
  0
LWPOLYLINE
  5
1f2
100
AcDbEntity
  8
0
 62
7
100
AcDbPolyline
 90
2
 70
0
 10
59.040100
 20
112.084800
 30
0.0
 10
59.094000
 20
112.084800
 30
0.0
  0
SPLINE
  5
1f3
100
AcDbEntity
  8
0
 62
7
100
AcDbSpline
 70
8
 71
3
 72
8
 73
4
 74
0
 40
0
 40
0
 40
0
 40
0
 40
1
 40
1
 40
1
 40
1
 10
59.500400
 20
105.127200
 30
0.0
 10
59.500400
 20
105.220000
 30
0.0
 10
59.463500
 20
105.309100
 30
0.0
 10
59.397900
 20
105.374800
 30
0.0
  0
LWPOLYLINE
  5
1f4
100
AcDbEntity
  8
0
 62
7
100
AcDbPolyline
 90
2
 70
0
 10
171.028600
 20
61.320800
 30
0.0
 10
172.571300
 20
60.433200
 30
0.0
  0
LWPOLYLINE
  5
1f5
100
AcDbEntity
  8
0
 62
7
100
AcDbPolyline
 90
2
 70
0
 10
176.428300
 20
86.157200
 30
0.0
 10
176.214900
 20
86.794500
 30
0.0
  0
LWPOLYLINE
  5
1f6
100
AcDbEntity
  8
0
 62
7
100
AcDbPolyline
 90
2
 70
0
 10
155.323200
 20
70.328800
 30
0.0
 10
156.093300
 20
69.950000
 30
0.0
  0
LWPOLYLINE
  5
1f7
100
AcDbEntity
  8
0
 62
7
100
AcDbPolyline
 90
2
 70
0
 10
172.740300
 20
147.929100
 30
0.0
 10
152.240300
 20
147.929100
 30
0.0
  0
LWPOLYLINE
  5
1f8
100
AcDbEntity
  8
0
 62
7
100
AcDbPolyline
 90
2
 70
0
 10
116.370000
 20
115.241800
 30
0.0
 10
117.370000
 20
115.241800
 30
0.0
  0
LWPOLYLINE
  5
1f9
100
AcDbEntity
  8
0
 62
7
100
AcDbPolyline
 90
2
 70
0
 10
116.370000
 20
115.241800
 30
0.0
 10
117.370000
 20
115.241800
 30
0.0
  0
LWPOLYLINE
  5
1fa
100
AcDbEntity
  8
0
 62
7
100
AcDbPolyline
 90
2
 70
0
 10
116.370000
 20
114.241800
 30
0.0
 10
116.370000
 20
115.241800
 30
0.0
  0
LWPOLYLINE
  5
1fb
100
AcDbEntity
  8
0
 62
7
100
AcDbPolyline
 90
2
 70
0
 10
116.370000
 20
114.241800
 30
0.0
 10
116.370000
 20
115.241800
 30
0.0
  0
LWPOLYLINE
  5
1fc
100
AcDbEntity
  8
0
 62
7
100
AcDbPolyline
 90
2
 70
0
 10
116.370000
 20
101.241800
 30
0.0
 10
116.370000
 20
102.241800
 30
0.0
  0
LWPOLYLINE
  5
1fd
100
AcDbEntity
  8
0
 62
7
100
AcDbPolyline
 90
2
 70
0
 10
116.370000
 20
101.241800
 30
0.0
 10
116.370000
 20
102.241800
 30
0.0
  0
LWPOLYLINE
  5
1fe
100
AcDbEntity
  8
0
 62
7
100
AcDbPolyline
 90
2
 70
0
 10
117.370000
 20
101.241800
 30
0.0
 10
116.370000
 20
101.241800
 30
0.0
  0
LWPOLYLINE
  5
1ff
100
AcDbEntity
  8
0
 62
7
100
AcDbPolyline
 90
2
 70
0
 10
117.370000
 20
101.241800
 30
0.0
 10
116.370000
 20
101.241800
 30
0.0
  0
LWPOLYLINE
  5
200
100
AcDbEntity
  8
0
 62
7
100
AcDbPolyline
 90
2
 70
0
 10
129.370000
 20
115.241800
 30
0.0
 10
130.370000
 20
115.241800
 30
0.0
  0
LWPOLYLINE
  5
201
100
AcDbEntity
  8
0
 62
7
100
AcDbPolyline
 90
3
 70
0
 10
129.370000
 20
115.241800
 30
0.0
 10
130.370000
 20
115.241800
 30
0.0
 10
130.370000
 20
114.241800
 30
0.0
  0
LWPOLYLINE
  5
202
100
AcDbEntity
  8
0
 62
7
100
AcDbPolyline
 90
2
 70
0
 10
130.370000
 20
115.241800
 30
0.0
 10
130.370000
 20
114.241800
 30
0.0
  0
LWPOLYLINE
  5
203
100
AcDbEntity
  8
0
 62
7
100
AcDbPolyline
 90
2
 70
0
 10
130.370000
 20
102.241800
 30
0.0
 10
130.370000
 20
101.241800
 30
0.0
  0
LWPOLYLINE
  5
204
100
AcDbEntity
  8
0
 62
7
100
AcDbPolyline
 90
3
 70
0
 10
130.370000
 20
102.241800
 30
0.0
 10
130.370000
 20
101.241800
 30
0.0
 10
129.370000
 20
101.241800
 30
0.0
  0
LWPOLYLINE
  5
205
100
AcDbEntity
  8
0
 62
7
100
AcDbPolyline
 90
2
 70
0
 10
130.370000
 20
101.241800
 30
0.0
 10
129.370000
 20
101.241800
 30
0.0
  0
LWPOLYLINE
  5
206
100
AcDbEntity
  8
0
 62
7
100
AcDbPolyline
 90
2
 70
0
 10
98.370000
 20
154.442200
 30
0.0
 10
99.370000
 20
154.442200
 30
0.0
  0
LWPOLYLINE
  5
207
100
AcDbEntity
  8
0
 62
7
100
AcDbPolyline
 90
2
 70
0
 10
98.370000
 20
154.442200
 30
0.0
 10
99.370000
 20
154.442200
 30
0.0
  0
LWPOLYLINE
  5
208
100
AcDbEntity
  8
0
 62
7
100
AcDbPolyline
 90
2
 70
0
 10
98.370000
 20
153.442200
 30
0.0
 10
98.370000
 20
154.442200
 30
0.0
  0
LWPOLYLINE
  5
209
100
AcDbEntity
  8
0
 62
7
100
AcDbPolyline
 90
2
 70
0
 10
98.370000
 20
153.442200
 30
0.0
 10
98.370000
 20
154.442200
 30
0.0
  0
LWPOLYLINE
  5
20a
100
AcDbEntity
  8
0
 62
7
100
AcDbPolyline
 90
2
 70
0
 10
98.370000
 20
140.442200
 30
0.0
 10
98.370000
 20
141.442200
 30
0.0
  0
LWPOLYLINE
  5
20b
100
AcDbEntity
  8
0
 62
7
100
AcDbPolyline
 90
2
 70
0
 10
98.370000
 20
140.442200
 30
0.0
 10
98.370000
 20
141.442200
 30
0.0
  0
LWPOLYLINE
  5
20c
100
AcDbEntity
  8
0
 62
7
100
AcDbPolyline
 90
2
 70
0
 10
99.370000
 20
140.442200
 30
0.0
 10
98.370000
 20
140.442200
 30
0.0
  0
LWPOLYLINE
  5
20d
100
AcDbEntity
  8
0
 62
7
100
AcDbPolyline
 90
2
 70
0
 10
99.370000
 20
140.442200
 30
0.0
 10
98.370000
 20
140.442200
 30
0.0
  0
LWPOLYLINE
  5
20e
100
AcDbEntity
  8
0
 62
7
100
AcDbPolyline
 90
2
 70
0
 10
111.370000
 20
154.442200
 30
0.0
 10
112.370000
 20
154.442200
 30
0.0
  0
LWPOLYLINE
  5
20f
100
AcDbEntity
  8
0
 62
7
100
AcDbPolyline
 90
3
 70
0
 10
111.370000
 20
154.442200
 30
0.0
 10
112.370000
 20
154.442200
 30
0.0
 10
112.370000
 20
153.442200
 30
0.0
  0
LWPOLYLINE
  5
210
100
AcDbEntity
  8
0
 62
7
100
AcDbPolyline
 90
2
 70
0
 10
112.370000
 20
154.442200
 30
0.0
 10
112.370000
 20
153.442200
 30
0.0
  0
LWPOLYLINE
  5
211
100
AcDbEntity
  8
0
 62
7
100
AcDbPolyline
 90
2
 70
0
 10
112.370000
 20
141.442200
 30
0.0
 10
112.370000
 20
140.442200
 30
0.0
  0
LWPOLYLINE
  5
212
100
AcDbEntity
  8
0
 62
7
100
AcDbPolyline
 90
3
 70
0
 10
112.370000
 20
141.442200
 30
0.0
 10
112.370000
 20
140.442200
 30
0.0
 10
111.370000
 20
140.442200
 30
0.0
  0
LWPOLYLINE
  5
213
100
AcDbEntity
  8
0
 62
7
100
AcDbPolyline
 90
2
 70
0
 10
112.370000
 20
140.442200
 30
0.0
 10
111.370000
 20
140.442200
 30
0.0
  0
LWPOLYLINE
  5
214
100
AcDbEntity
  8
0
 62
7
100
AcDbPolyline
 90
2
 70
0
 10
62.370000
 20
123.842200
 30
0.0
 10
63.370000
 20
123.842200
 30
0.0
  0
LWPOLYLINE
  5
215
100
AcDbEntity
  8
0
 62
7
100
AcDbPolyline
 90
2
 70
0
 10
62.370000
 20
123.842200
 30
0.0
 10
63.370000
 20
123.842200
 30
0.0
  0
LWPOLYLINE
  5
216
100
AcDbEntity
  8
0
 62
7
100
AcDbPolyline
 90
2
 70
0
 10
62.370000
 20
122.842200
 30
0.0
 10
62.370000
 20
123.842200
 30
0.0
  0
LWPOLYLINE
  5
217
100
AcDbEntity
  8
0
 62
7
100
AcDbPolyline
 90
2
 70
0
 10
62.370000
 20
122.842200
 30
0.0
 10
62.370000
 20
123.842200
 30
0.0
  0
LWPOLYLINE
  5
218
100
AcDbEntity
  8
0
 62
7
100
AcDbPolyline
 90
2
 70
0
 10
62.370000
 20
109.842200
 30
0.0
 10
62.370000
 20
110.842200
 30
0.0
  0
LWPOLYLINE
  5
219
100
AcDbEntity
  8
0
 62
7
100
AcDbPolyline
 90
2
 70
0
 10
62.370000
 20
109.842200
 30
0.0
 10
62.370000
 20
110.842200
 30
0.0
  0
LWPOLYLINE
  5
21a
100
AcDbEntity
  8
0
 62
7
100
AcDbPolyline
 90
2
 70
0
 10
63.370000
 20
109.842200
 30
0.0
 10
62.370000
 20
109.842200
 30
0.0
  0
LWPOLYLINE
  5
21b
100
AcDbEntity
  8
0
 62
7
100
AcDbPolyline
 90
2
 70
0
 10
63.370000
 20
109.842200
 30
0.0
 10
62.370000
 20
109.842200
 30
0.0
  0
LWPOLYLINE
  5
21c
100
AcDbEntity
  8
0
 62
7
100
AcDbPolyline
 90
2
 70
0
 10
75.370000
 20
123.842200
 30
0.0
 10
76.370000
 20
123.842200
 30
0.0
  0
LWPOLYLINE
  5
21d
100
AcDbEntity
  8
0
 62
7
100
AcDbPolyline
 90
3
 70
0
 10
75.370000
 20
123.842200
 30
0.0
 10
76.370000
 20
123.842200
 30
0.0
 10
76.370000
 20
122.842200
 30
0.0
  0
LWPOLYLINE
  5
21e
100
AcDbEntity
  8
0
 62
7
100
AcDbPolyline
 90
2
 70
0
 10
76.370000
 20
123.842200
 30
0.0
 10
76.370000
 20
122.842200
 30
0.0
  0
LWPOLYLINE
  5
21f
100
AcDbEntity
  8
0
 62
7
100
AcDbPolyline
 90
2
 70
0
 10
76.370000
 20
110.842200
 30
0.0
 10
76.370000
 20
109.842200
 30
0.0
  0
LWPOLYLINE
  5
220
100
AcDbEntity
  8
0
 62
7
100
AcDbPolyline
 90
3
 70
0
 10
76.370000
 20
110.842200
 30
0.0
 10
76.370000
 20
109.842200
 30
0.0
 10
75.370000
 20
109.842200
 30
0.0
  0
LWPOLYLINE
  5
221
100
AcDbEntity
  8
0
 62
7
100
AcDbPolyline
 90
2
 70
0
 10
76.370000
 20
109.842200
 30
0.0
 10
75.370000
 20
109.842200
 30
0.0
  0
LWPOLYLINE
  5
222
100
AcDbEntity
  8
0
 62
7
100
AcDbPolyline
 90
2
 70
0
 10
134.370000
 20
146.792200
 30
0.0
 10
135.370000
 20
146.792200
 30
0.0
  0
LWPOLYLINE
  5
223
100
AcDbEntity
  8
0
 62
7
100
AcDbPolyline
 90
2
 70
0
 10
134.370000
 20
146.792200
 30
0.0
 10
135.370000
 20
146.792200
 30
0.0
  0
LWPOLYLINE
  5
224
100
AcDbEntity
  8
0
 62
7
100
AcDbPolyline
 90
2
 70
0
 10
134.370000
 20
145.792200
 30
0.0
 10
134.370000
 20
146.792200
 30
0.0
  0
LWPOLYLINE
  5
225
100
AcDbEntity
  8
0
 62
7
100
AcDbPolyline
 90
2
 70
0
 10
134.370000
 20
145.792200
 30
0.0
 10
134.370000
 20
146.792200
 30
0.0
  0
LWPOLYLINE
  5
226
100
AcDbEntity
  8
0
 62
7
100
AcDbPolyline
 90
2
 70
0
 10
134.370000
 20
132.792200
 30
0.0
 10
134.370000
 20
133.792200
 30
0.0
  0
LWPOLYLINE
  5
227
100
AcDbEntity
  8
0
 62
7
100
AcDbPolyline
 90
2
 70
0
 10
134.370000
 20
132.792200
 30
0.0
 10
134.370000
 20
133.792200
 30
0.0
  0
LWPOLYLINE
  5
228
100
AcDbEntity
  8
0
 62
7
100
AcDbPolyline
 90
2
 70
0
 10
135.370000
 20
132.792200
 30
0.0
 10
134.370000
 20
132.792200
 30
0.0
  0
LWPOLYLINE
  5
229
100
AcDbEntity
  8
0
 62
7
100
AcDbPolyline
 90
2
 70
0
 10
135.370000
 20
132.792200
 30
0.0
 10
134.370000
 20
132.792200
 30
0.0
  0
LWPOLYLINE
  5
22a
100
AcDbEntity
  8
0
 62
7
100
AcDbPolyline
 90
2
 70
0
 10
147.370000
 20
146.792200
 30
0.0
 10
148.370000
 20
146.792200
 30
0.0
  0
LWPOLYLINE
  5
22b
100
AcDbEntity
  8
0
 62
7
100
AcDbPolyline
 90
3
 70
0
 10
147.370000
 20
146.792200
 30
0.0
 10
148.370000
 20
146.792200
 30
0.0
 10
148.370000
 20
145.792200
 30
0.0
  0
LWPOLYLINE
  5
22c
100
AcDbEntity
  8
0
 62
7
100
AcDbPolyline
 90
2
 70
0
 10
148.370000
 20
146.792200
 30
0.0
 10
148.370000
 20
145.792200
 30
0.0
  0
LWPOLYLINE
  5
22d
100
AcDbEntity
  8
0
 62
7
100
AcDbPolyline
 90
2
 70
0
 10
148.370000
 20
133.792200
 30
0.0
 10
148.370000
 20
132.792200
 30
0.0
  0
LWPOLYLINE
  5
22e
100
AcDbEntity
  8
0
 62
7
100
AcDbPolyline
 90
3
 70
0
 10
148.370000
 20
133.792200
 30
0.0
 10
148.370000
 20
132.792200
 30
0.0
 10
147.370000
 20
132.792200
 30
0.0
  0
LWPOLYLINE
  5
22f
100
AcDbEntity
  8
0
 62
7
100
AcDbPolyline
 90
2
 70
0
 10
148.370000
 20
132.792200
 30
0.0
 10
147.370000
 20
132.792200
 30
0.0
  0
LWPOLYLINE
  5
230
100
AcDbEntity
  8
0
 62
7
100
AcDbPolyline
 90
2
 70
0
 10
155.486700
 20
73.384700
 30
0.0
 10
154.547000
 20
73.726700
 30
0.0
  0
LWPOLYLINE
  5
231
100
AcDbEntity
  8
0
 62
7
100
AcDbPolyline
 90
2
 70
0
 10
155.486700
 20
73.384700
 30
0.0
 10
154.547000
 20
73.726700
 30
0.0
  0
LWPOLYLINE
  5
232
100
AcDbEntity
  8
0
 62
7
100
AcDbPolyline
 90
2
 70
0
 10
155.828700
 20
74.324400
 30
0.0
 10
155.486700
 20
73.384700
 30
0.0
  0
LWPOLYLINE
  5
233
100
AcDbEntity
  8
0
 62
7
100
AcDbPolyline
 90
2
 70
0
 10
155.828700
 20
74.324400
 30
0.0
 10
155.486700
 20
73.384700
 30
0.0
  0
LWPOLYLINE
  5
234
100
AcDbEntity
  8
0
 62
7
100
AcDbPolyline
 90
2
 70
0
 10
160.275000
 20
86.540400
 30
0.0
 10
159.933000
 20
85.600700
 30
0.0
  0
LWPOLYLINE
  5
235
100
AcDbEntity
  8
0
 62
7
100
AcDbPolyline
 90
2
 70
0
 10
160.275000
 20
86.540400
 30
0.0
 10
159.933000
 20
85.600700
 30
0.0
  0
LWPOLYLINE
  5
236
100
AcDbEntity
  8
0
 62
7
100
AcDbPolyline
 90
2
 70
0
 10
159.335300
 20
86.882400
 30
0.0
 10
160.275000
 20
86.540400
 30
0.0
  0
LWPOLYLINE
  5
237
100
AcDbEntity
  8
0
 62
7
100
AcDbPolyline
 90
2
 70
0
 10
159.335300
 20
86.882400
 30
0.0
 10
160.275000
 20
86.540400
 30
0.0
  0
LWPOLYLINE
  5
238
100
AcDbEntity
  8
0
 62
7
100
AcDbPolyline
 90
2
 70
0
 10
143.270700
 20
77.830900
 30
0.0
 10
142.331000
 20
78.173000
 30
0.0
  0
LWPOLYLINE
  5
239
100
AcDbEntity
  8
0
 62
7
100
AcDbPolyline
 90
3
 70
0
 10
143.270700
 20
77.830900
 30
0.0
 10
142.331000
 20
78.173000
 30
0.0
 10
142.673000
 20
79.112700
 30
0.0
  0
LWPOLYLINE
  5
23a
100
AcDbEntity
  8
0
 62
7
100
AcDbPolyline
 90
2
 70
0
 10
142.331000
 20
78.173000
 30
0.0
 10
142.673000
 20
79.112700
 30
0.0
  0
LWPOLYLINE
  5
23b
100
AcDbEntity
  8
0
 62
7
100
AcDbPolyline
 90
2
 70
0
 10
146.777300
 20
90.389000
 30
0.0
 10
147.119300
 20
91.328700
 30
0.0
  0
LWPOLYLINE
  5
23c
100
AcDbEntity
  8
0
 62
7
100
AcDbPolyline
 90
3
 70
0
 10
146.777300
 20
90.389000
 30
0.0
 10
147.119300
 20
91.328700
 30
0.0
 10
148.059000
 20
90.986600
 30
0.0
  0
LWPOLYLINE
  5
23d
100
AcDbEntity
  8
0
 62
7
100
AcDbPolyline
 90
2
 70
0
 10
147.119300
 20
91.328700
 30
0.0
 10
148.059000
 20
90.986600
 30
0.0
  0
LWPOLYLINE
  5
23e
100
AcDbEntity
  8
0
 62
7
100
AcDbPolyline
 90
2
 70
0
 10
134.370000
 20
129.792200
 30
0.0
 10
135.370000
 20
129.792200
 30
0.0
  0
LWPOLYLINE
  5
23f
100
AcDbEntity
  8
0
 62
7
100
AcDbPolyline
 90
2
 70
0
 10
134.370000
 20
129.792200
 30
0.0
 10
135.370000
 20
129.792200
 30
0.0
  0
LWPOLYLINE
  5
240
100
AcDbEntity
  8
0
 62
7
100
AcDbPolyline
 90
2
 70
0
 10
134.370000
 20
128.792200
 30
0.0
 10
134.370000
 20
129.792200
 30
0.0
  0
LWPOLYLINE
  5
241
100
AcDbEntity
  8
0
 62
7
100
AcDbPolyline
 90
2
 70
0
 10
134.370000
 20
128.792200
 30
0.0
 10
134.370000
 20
129.792200
 30
0.0
  0
LWPOLYLINE
  5
242
100
AcDbEntity
  8
0
 62
7
100
AcDbPolyline
 90
2
 70
0
 10
134.370000
 20
115.792200
 30
0.0
 10
134.370000
 20
116.792200
 30
0.0
  0
LWPOLYLINE
  5
243
100
AcDbEntity
  8
0
 62
7
100
AcDbPolyline
 90
2
 70
0
 10
134.370000
 20
115.792200
 30
0.0
 10
134.370000
 20
116.792200
 30
0.0
  0
LWPOLYLINE
  5
244
100
AcDbEntity
  8
0
 62
7
100
AcDbPolyline
 90
2
 70
0
 10
135.370000
 20
115.792200
 30
0.0
 10
134.370000
 20
115.792200
 30
0.0
  0
LWPOLYLINE
  5
245
100
AcDbEntity
  8
0
 62
7
100
AcDbPolyline
 90
2
 70
0
 10
135.370000
 20
115.792200
 30
0.0
 10
134.370000
 20
115.792200
 30
0.0
  0
LWPOLYLINE
  5
246
100
AcDbEntity
  8
0
 62
7
100
AcDbPolyline
 90
2
 70
0
 10
147.370000
 20
129.792200
 30
0.0
 10
148.370000
 20
129.792200
 30
0.0
  0
LWPOLYLINE
  5
247
100
AcDbEntity
  8
0
 62
7
100
AcDbPolyline
 90
3
 70
0
 10
147.370000
 20
129.792200
 30
0.0
 10
148.370000
 20
129.792200
 30
0.0
 10
148.370000
 20
128.792200
 30
0.0
  0
LWPOLYLINE
  5
248
100
AcDbEntity
  8
0
 62
7
100
AcDbPolyline
 90
2
 70
0
 10
148.370000
 20
129.792200
 30
0.0
 10
148.370000
 20
128.792200
 30
0.0
  0
LWPOLYLINE
  5
249
100
AcDbEntity
  8
0
 62
7
100
AcDbPolyline
 90
2
 70
0
 10
148.370000
 20
116.792200
 30
0.0
 10
148.370000
 20
115.792200
 30
0.0
  0
LWPOLYLINE
  5
24a
100
AcDbEntity
  8
0
 62
7
100
AcDbPolyline
 90
3
 70
0
 10
148.370000
 20
116.792200
 30
0.0
 10
148.370000
 20
115.792200
 30
0.0
 10
147.370000
 20
115.792200
 30
0.0
  0
LWPOLYLINE
  5
24b
100
AcDbEntity
  8
0
 62
7
100
AcDbPolyline
 90
2
 70
0
 10
148.370000
 20
115.792200
 30
0.0
 10
147.370000
 20
115.792200
 30
0.0
  0
LWPOLYLINE
  5
24c
100
AcDbEntity
  8
0
 62
7
100
AcDbPolyline
 90
2
 70
0
 10
62.370000
 20
106.741800
 30
0.0
 10
63.370000
 20
106.741800
 30
0.0
  0
LWPOLYLINE
  5
24d
100
AcDbEntity
  8
0
 62
7
100
AcDbPolyline
 90
2
 70
0
 10
62.370000
 20
106.741800
 30
0.0
 10
63.370000
 20
106.741800
 30
0.0
  0
LWPOLYLINE
  5
24e
100
AcDbEntity
  8
0
 62
7
100
AcDbPolyline
 90
2
 70
0
 10
62.370000
 20
105.741800
 30
0.0
 10
62.370000
 20
106.741800
 30
0.0
  0
LWPOLYLINE
  5
24f
100
AcDbEntity
  8
0
 62
7
100
AcDbPolyline
 90
2
 70
0
 10
62.370000
 20
105.741800
 30
0.0
 10
62.370000
 20
106.741800
 30
0.0
  0
LWPOLYLINE
  5
250
100
AcDbEntity
  8
0
 62
7
100
AcDbPolyline
 90
2
 70
0
 10
62.370000
 20
92.741800
 30
0.0
 10
62.370000
 20
93.741800
 30
0.0
  0
LWPOLYLINE
  5
251
100
AcDbEntity
  8
0
 62
7
100
AcDbPolyline
 90
2
 70
0
 10
62.370000
 20
92.741800
 30
0.0
 10
62.370000
 20
93.741800
 30
0.0
  0
LWPOLYLINE
  5
252
100
AcDbEntity
  8
0
 62
7
100
AcDbPolyline
 90
2
 70
0
 10
63.370000
 20
92.741800
 30
0.0
 10
62.370000
 20
92.741800
 30
0.0
  0
LWPOLYLINE
  5
253
100
AcDbEntity
  8
0
 62
7
100
AcDbPolyline
 90
2
 70
0
 10
63.370000
 20
92.741800
 30
0.0
 10
62.370000
 20
92.741800
 30
0.0
  0
LWPOLYLINE
  5
254
100
AcDbEntity
  8
0
 62
7
100
AcDbPolyline
 90
2
 70
0
 10
75.370000
 20
106.741800
 30
0.0
 10
76.370000
 20
106.741800
 30
0.0
  0
LWPOLYLINE
  5
255
100
AcDbEntity
  8
0
 62
7
100
AcDbPolyline
 90
3
 70
0
 10
75.370000
 20
106.741800
 30
0.0
 10
76.370000
 20
106.741800
 30
0.0
 10
76.370000
 20
105.741800
 30
0.0
  0
LWPOLYLINE
  5
256
100
AcDbEntity
  8
0
 62
7
100
AcDbPolyline
 90
2
 70
0
 10
76.370000
 20
106.741800
 30
0.0
 10
76.370000
 20
105.741800
 30
0.0
  0
LWPOLYLINE
  5
257
100
AcDbEntity
  8
0
 62
7
100
AcDbPolyline
 90
2
 70
0
 10
76.370000
 20
93.741800
 30
0.0
 10
76.370000
 20
92.741800
 30
0.0
  0
LWPOLYLINE
  5
258
100
AcDbEntity
  8
0
 62
7
100
AcDbPolyline
 90
3
 70
0
 10
76.370000
 20
93.741800
 30
0.0
 10
76.370000
 20
92.741800
 30
0.0
 10
75.370000
 20
92.741800
 30
0.0
  0
LWPOLYLINE
  5
259
100
AcDbEntity
  8
0
 62
7
100
AcDbPolyline
 90
2
 70
0
 10
76.370000
 20
92.741800
 30
0.0
 10
75.370000
 20
92.741800
 30
0.0
  0
LWPOLYLINE
  5
25a
100
AcDbEntity
  8
0
 62
7
100
AcDbPolyline
 90
2
 70
0
 10
98.370000
 20
137.442200
 30
0.0
 10
99.370000
 20
137.442200
 30
0.0
  0
LWPOLYLINE
  5
25b
100
AcDbEntity
  8
0
 62
7
100
AcDbPolyline
 90
2
 70
0
 10
98.370000
 20
137.442200
 30
0.0
 10
99.370000
 20
137.442200
 30
0.0
  0
LWPOLYLINE
  5
25c
100
AcDbEntity
  8
0
 62
7
100
AcDbPolyline
 90
2
 70
0
 10
98.370000
 20
136.442200
 30
0.0
 10
98.370000
 20
137.442200
 30
0.0
  0
LWPOLYLINE
  5
25d
100
AcDbEntity
  8
0
 62
7
100
AcDbPolyline
 90
2
 70
0
 10
98.370000
 20
136.442200
 30
0.0
 10
98.370000
 20
137.442200
 30
0.0
  0
LWPOLYLINE
  5
25e
100
AcDbEntity
  8
0
 62
7
100
AcDbPolyline
 90
2
 70
0
 10
98.370000
 20
123.442200
 30
0.0
 10
98.370000
 20
124.442200
 30
0.0
  0
LWPOLYLINE
  5
25f
100
AcDbEntity
  8
0
 62
7
100
AcDbPolyline
 90
2
 70
0
 10
98.370000
 20
123.442200
 30
0.0
 10
98.370000
 20
124.442200
 30
0.0
  0
LWPOLYLINE
  5
260
100
AcDbEntity
  8
0
 62
7
100
AcDbPolyline
 90
2
 70
0
 10
99.370000
 20
123.442200
 30
0.0
 10
98.370000
 20
123.442200
 30
0.0
  0
LWPOLYLINE
  5
261
100
AcDbEntity
  8
0
 62
7
100
AcDbPolyline
 90
2
 70
0
 10
99.370000
 20
123.442200
 30
0.0
 10
98.370000
 20
123.442200
 30
0.0
  0
LWPOLYLINE
  5
262
100
AcDbEntity
  8
0
 62
7
100
AcDbPolyline
 90
2
 70
0
 10
111.370000
 20
137.442200
 30
0.0
 10
112.370000
 20
137.442200
 30
0.0
  0
LWPOLYLINE
  5
263
100
AcDbEntity
  8
0
 62
7
100
AcDbPolyline
 90
3
 70
0
 10
111.370000
 20
137.442200
 30
0.0
 10
112.370000
 20
137.442200
 30
0.0
 10
112.370000
 20
136.442200
 30
0.0
  0
LWPOLYLINE
  5
264
100
AcDbEntity
  8
0
 62
7
100
AcDbPolyline
 90
2
 70
0
 10
112.370000
 20
137.442200
 30
0.0
 10
112.370000
 20
136.442200
 30
0.0
  0
LWPOLYLINE
  5
265
100
AcDbEntity
  8
0
 62
7
100
AcDbPolyline
 90
2
 70
0
 10
112.370000
 20
124.442200
 30
0.0
 10
112.370000
 20
123.442200
 30
0.0
  0
LWPOLYLINE
  5
266
100
AcDbEntity
  8
0
 62
7
100
AcDbPolyline
 90
3
 70
0
 10
112.370000
 20
124.442200
 30
0.0
 10
112.370000
 20
123.442200
 30
0.0
 10
111.370000
 20
123.442200
 30
0.0
  0
LWPOLYLINE
  5
267
100
AcDbEntity
  8
0
 62
7
100
AcDbPolyline
 90
2
 70
0
 10
112.370000
 20
123.442200
 30
0.0
 10
111.370000
 20
123.442200
 30
0.0
  0
LWPOLYLINE
  5
268
100
AcDbEntity
  8
0
 62
7
100
AcDbPolyline
 90
2
 70
0
 10
41.870000
 20
103.341800
 30
0.0
 10
42.870000
 20
103.341800
 30
0.0
  0
LWPOLYLINE
  5
269
100
AcDbEntity
  8
0
 62
7
100
AcDbPolyline
 90
2
 70
0
 10
41.870000
 20
103.341800
 30
0.0
 10
42.870000
 20
103.341800
 30
0.0
  0
LWPOLYLINE
  5
26a
100
AcDbEntity
  8
0
 62
7
100
AcDbPolyline
 90
2
 70
0
 10
41.870000
 20
102.341800
 30
0.0
 10
41.870000
 20
103.341800
 30
0.0
  0
LWPOLYLINE
  5
26b
100
AcDbEntity
  8
0
 62
7
100
AcDbPolyline
 90
2
 70
0
 10
41.870000
 20
102.341800
 30
0.0
 10
41.870000
 20
103.341800
 30
0.0
  0
LWPOLYLINE
  5
26c
100
AcDbEntity
  8
0
 62
7
100
AcDbPolyline
 90
2
 70
0
 10
41.870000
 20
89.341800
 30
0.0
 10
41.870000
 20
90.341800
 30
0.0
  0
LWPOLYLINE
  5
26d
100
AcDbEntity
  8
0
 62
7
100
AcDbPolyline
 90
2
 70
0
 10
41.870000
 20
89.341800
 30
0.0
 10
41.870000
 20
90.341800
 30
0.0
  0
LWPOLYLINE
  5
26e
100
AcDbEntity
  8
0
 62
7
100
AcDbPolyline
 90
2
 70
0
 10
42.870000
 20
89.341800
 30
0.0
 10
41.870000
 20
89.341800
 30
0.0
  0
LWPOLYLINE
  5
26f
100
AcDbEntity
  8
0
 62
7
100
AcDbPolyline
 90
2
 70
0
 10
42.870000
 20
89.341800
 30
0.0
 10
41.870000
 20
89.341800
 30
0.0
  0
LWPOLYLINE
  5
270
100
AcDbEntity
  8
0
 62
7
100
AcDbPolyline
 90
2
 70
0
 10
54.870000
 20
103.341800
 30
0.0
 10
55.870000
 20
103.341800
 30
0.0
  0
LWPOLYLINE
  5
271
100
AcDbEntity
  8
0
 62
7
100
AcDbPolyline
 90
3
 70
0
 10
54.870000
 20
103.341800
 30
0.0
 10
55.870000
 20
103.341800
 30
0.0
 10
55.870000
 20
102.341800
 30
0.0
  0
LWPOLYLINE
  5
272
100
AcDbEntity
  8
0
 62
7
100
AcDbPolyline
 90
2
 70
0
 10
55.870000
 20
103.341800
 30
0.0
 10
55.870000
 20
102.341800
 30
0.0
  0
LWPOLYLINE
  5
273
100
AcDbEntity
  8
0
 62
7
100
AcDbPolyline
 90
2
 70
0
 10
55.870000
 20
90.341800
 30
0.0
 10
55.870000
 20
89.341800
 30
0.0
  0
LWPOLYLINE
  5
274
100
AcDbEntity
  8
0
 62
7
100
AcDbPolyline
 90
3
 70
0
 10
55.870000
 20
90.341800
 30
0.0
 10
55.870000
 20
89.341800
 30
0.0
 10
54.870000
 20
89.341800
 30
0.0
  0
LWPOLYLINE
  5
275
100
AcDbEntity
  8
0
 62
7
100
AcDbPolyline
 90
2
 70
0
 10
55.870000
 20
89.341800
 30
0.0
 10
54.870000
 20
89.341800
 30
0.0
  0
LWPOLYLINE
  5
276
100
AcDbEntity
  8
0
 62
7
100
AcDbPolyline
 90
2
 70
0
 10
98.370000
 20
120.341800
 30
0.0
 10
99.370000
 20
120.341800
 30
0.0
  0
LWPOLYLINE
  5
277
100
AcDbEntity
  8
0
 62
7
100
AcDbPolyline
 90
2
 70
0
 10
98.370000
 20
120.341800
 30
0.0
 10
99.370000
 20
120.341800
 30
0.0
  0
LWPOLYLINE
  5
278
100
AcDbEntity
  8
0
 62
7
100
AcDbPolyline
 90
2
 70
0
 10
98.370000
 20
119.341800
 30
0.0
 10
98.370000
 20
120.341800
 30
0.0
  0
LWPOLYLINE
  5
279
100
AcDbEntity
  8
0
 62
7
100
AcDbPolyline
 90
2
 70
0
 10
98.370000
 20
119.341800
 30
0.0
 10
98.370000
 20
120.341800
 30
0.0
  0
LWPOLYLINE
  5
27a
100
AcDbEntity
  8
0
 62
7
100
AcDbPolyline
 90
2
 70
0
 10
98.370000
 20
106.341800
 30
0.0
 10
98.370000
 20
107.341800
 30
0.0
  0
LWPOLYLINE
  5
27b
100
AcDbEntity
  8
0
 62
7
100
AcDbPolyline
 90
2
 70
0
 10
98.370000
 20
106.341800
 30
0.0
 10
98.370000
 20
107.341800
 30
0.0
  0
LWPOLYLINE
  5
27c
100
AcDbEntity
  8
0
 62
7
100
AcDbPolyline
 90
2
 70
0
 10
99.370000
 20
106.341800
 30
0.0
 10
98.370000
 20
106.341800
 30
0.0
  0
LWPOLYLINE
  5
27d
100
AcDbEntity
  8
0
 62
7
100
AcDbPolyline
 90
2
 70
0
 10
99.370000
 20
106.341800
 30
0.0
 10
98.370000
 20
106.341800
 30
0.0
  0
LWPOLYLINE
  5
27e
100
AcDbEntity
  8
0
 62
7
100
AcDbPolyline
 90
2
 70
0
 10
111.370000
 20
120.341800
 30
0.0
 10
112.370000
 20
120.341800
 30
0.0
  0
LWPOLYLINE
  5
27f
100
AcDbEntity
  8
0
 62
7
100
AcDbPolyline
 90
3
 70
0
 10
111.370000
 20
120.341800
 30
0.0
 10
112.370000
 20
120.341800
 30
0.0
 10
112.370000
 20
119.341800
 30
0.0
  0
LWPOLYLINE
  5
280
100
AcDbEntity
  8
0
 62
7
100
AcDbPolyline
 90
2
 70
0
 10
112.370000
 20
120.341800
 30
0.0
 10
112.370000
 20
119.341800
 30
0.0
  0
LWPOLYLINE
  5
281
100
AcDbEntity
  8
0
 62
7
100
AcDbPolyline
 90
2
 70
0
 10
112.370000
 20
107.341800
 30
0.0
 10
112.370000
 20
106.341800
 30
0.0
  0
LWPOLYLINE
  5
282
100
AcDbEntity
  8
0
 62
7
100
AcDbPolyline
 90
3
 70
0
 10
112.370000
 20
107.341800
 30
0.0
 10
112.370000
 20
106.341800
 30
0.0
 10
111.370000
 20
106.341800
 30
0.0
  0
LWPOLYLINE
  5
283
100
AcDbEntity
  8
0
 62
7
100
AcDbPolyline
 90
2
 70
0
 10
112.370000
 20
106.341800
 30
0.0
 10
111.370000
 20
106.341800
 30
0.0
  0
LWPOLYLINE
  5
284
100
AcDbEntity
  8
0
 62
7
100
AcDbPolyline
 90
2
 70
0
 10
41.870000
 20
120.442200
 30
0.0
 10
42.870000
 20
120.442200
 30
0.0
  0
LWPOLYLINE
  5
285
100
AcDbEntity
  8
0
 62
7
100
AcDbPolyline
 90
2
 70
0
 10
41.870000
 20
120.442200
 30
0.0
 10
42.870000
 20
120.442200
 30
0.0
  0
LWPOLYLINE
  5
286
100
AcDbEntity
  8
0
 62
7
100
AcDbPolyline
 90
2
 70
0
 10
41.870000
 20
119.442200
 30
0.0
 10
41.870000
 20
120.442200
 30
0.0
  0
LWPOLYLINE
  5
287
100
AcDbEntity
  8
0
 62
7
100
AcDbPolyline
 90
2
 70
0
 10
41.870000
 20
119.442200
 30
0.0
 10
41.870000
 20
120.442200
 30
0.0
  0
LWPOLYLINE
  5
288
100
AcDbEntity
  8
0
 62
7
100
AcDbPolyline
 90
2
 70
0
 10
41.870000
 20
106.442200
 30
0.0
 10
41.870000
 20
107.442200
 30
0.0
  0
LWPOLYLINE
  5
289
100
AcDbEntity
  8
0
 62
7
100
AcDbPolyline
 90
2
 70
0
 10
41.870000
 20
106.442200
 30
0.0
 10
41.870000
 20
107.442200
 30
0.0
  0
LWPOLYLINE
  5
28a
100
AcDbEntity
  8
0
 62
7
100
AcDbPolyline
 90
2
 70
0
 10
42.870000
 20
106.442200
 30
0.0
 10
41.870000
 20
106.442200
 30
0.0
  0
LWPOLYLINE
  5
28b
100
AcDbEntity
  8
0
 62
7
100
AcDbPolyline
 90
2
 70
0
 10
42.870000
 20
106.442200
 30
0.0
 10
41.870000
 20
106.442200
 30
0.0
  0
LWPOLYLINE
  5
28c
100
AcDbEntity
  8
0
 62
7
100
AcDbPolyline
 90
2
 70
0
 10
54.870000
 20
120.442200
 30
0.0
 10
55.870000
 20
120.442200
 30
0.0
  0
LWPOLYLINE
  5
28d
100
AcDbEntity
  8
0
 62
7
100
AcDbPolyline
 90
3
 70
0
 10
54.870000
 20
120.442200
 30
0.0
 10
55.870000
 20
120.442200
 30
0.0
 10
55.870000
 20
119.442200
 30
0.0
  0
LWPOLYLINE
  5
28e
100
AcDbEntity
  8
0
 62
7
100
AcDbPolyline
 90
2
 70
0
 10
55.870000
 20
120.442200
 30
0.0
 10
55.870000
 20
119.442200
 30
0.0
  0
LWPOLYLINE
  5
28f
100
AcDbEntity
  8
0
 62
7
100
AcDbPolyline
 90
2
 70
0
 10
55.870000
 20
107.442200
 30
0.0
 10
55.870000
 20
106.442200
 30
0.0
  0
LWPOLYLINE
  5
290
100
AcDbEntity
  8
0
 62
7
100
AcDbPolyline
 90
3
 70
0
 10
55.870000
 20
107.442200
 30
0.0
 10
55.870000
 20
106.442200
 30
0.0
 10
54.870000
 20
106.442200
 30
0.0
  0
LWPOLYLINE
  5
291
100
AcDbEntity
  8
0
 62
7
100
AcDbPolyline
 90
2
 70
0
 10
55.870000
 20
106.442200
 30
0.0
 10
54.870000
 20
106.442200
 30
0.0
  0
LWPOLYLINE
  5
292
100
AcDbEntity
  8
0
 62
7
100
AcDbPolyline
 90
2
 70
0
 10
172.352200
 20
64.125000
 30
0.0
 10
171.486200
 20
64.625000
 30
0.0
  0
LWPOLYLINE
  5
293
100
AcDbEntity
  8
0
 62
7
100
AcDbPolyline
 90
2
 70
0
 10
172.352200
 20
64.125000
 30
0.0
 10
171.486200
 20
64.625000
 30
0.0
  0
LWPOLYLINE
  5
294
100
AcDbEntity
  8
0
 62
7
100
AcDbPolyline
 90
2
 70
0
 10
172.852200
 20
64.991000
 30
0.0
 10
172.352200
 20
64.125000
 30
0.0
  0
LWPOLYLINE
  5
295
100
AcDbEntity
  8
0
 62
7
100
AcDbPolyline
 90
2
 70
0
 10
172.852200
 20
64.991000
 30
0.0
 10
172.352200
 20
64.125000
 30
0.0
  0
LWPOLYLINE
  5
296
100
AcDbEntity
  8
0
 62
7
100
AcDbPolyline
 90
2
 70
0
 10
179.352200
 20
76.249400
 30
0.0
 10
178.852200
 20
75.383400
 30
0.0
  0
LWPOLYLINE
  5
297
100
AcDbEntity
  8
0
 62
7
100
AcDbPolyline
 90
2
 70
0
 10
179.352200
 20
76.249400
 30
0.0
 10
178.852200
 20
75.383400
 30
0.0
  0
LWPOLYLINE
  5
298
100
AcDbEntity
  8
0
 62
7
100
AcDbPolyline
 90
2
 70
0
 10
178.486200
 20
76.749400
 30
0.0
 10
179.352200
 20
76.249400
 30
0.0
  0
LWPOLYLINE
  5
299
100
AcDbEntity
  8
0
 62
7
100
AcDbPolyline
 90
2
 70
0
 10
178.486200
 20
76.749400
 30
0.0
 10
179.352200
 20
76.249400
 30
0.0
  0
LWPOLYLINE
  5
29a
100
AcDbEntity
  8
0
 62
7
100
AcDbPolyline
 90
2
 70
0
 10
161.093800
 20
70.625000
 30
0.0
 10
160.227800
 20
71.125000
 30
0.0
  0
LWPOLYLINE
  5
29b
100
AcDbEntity
  8
0
 62
7
100
AcDbPolyline
 90
3
 70
0
 10
161.093800
 20
70.625000
 30
0.0
 10
160.227800
 20
71.125000
 30
0.0
 10
160.727800
 20
71.991000
 30
0.0
  0
LWPOLYLINE
  5
29c
100
AcDbEntity
  8
0
 62
7
100
AcDbPolyline
 90
2
 70
0
 10
160.227800
 20
71.125000
 30
0.0
 10
160.727800
 20
71.991000
 30
0.0
  0
LWPOLYLINE
  5
29d
100
AcDbEntity
  8
0
 62
7
100
AcDbPolyline
 90
2
 70
0
 10
166.727800
 20
82.383400
 30
0.0
 10
167.227800
 20
83.249400
 30
0.0
  0
LWPOLYLINE
  5
29e
100
AcDbEntity
  8
0
 62
7
100
AcDbPolyline
 90
3
 70
0
 10
166.727800
 20
82.383400
 30
0.0
 10
167.227800
 20
83.249400
 30
0.0
 10
168.093800
 20
82.749400
 30
0.0
  0
LWPOLYLINE
  5
29f
100
AcDbEntity
  8
0
 62
7
100
AcDbPolyline
 90
2
 70
0
 10
167.227800
 20
83.249400
 30
0.0
 10
168.093800
 20
82.749400
 30
0.0
  0
LWPOLYLINE
  5
2a0
100
AcDbEntity
  8
0
 62
7
100
AcDbPolyline
 90
2
 70
0
 10
116.370000
 20
132.342200
 30
0.0
 10
117.370000
 20
132.342200
 30
0.0
  0
LWPOLYLINE
  5
2a1
100
AcDbEntity
  8
0
 62
7
100
AcDbPolyline
 90
2
 70
0
 10
116.370000
 20
132.342200
 30
0.0
 10
117.370000
 20
132.342200
 30
0.0
  0
LWPOLYLINE
  5
2a2
100
AcDbEntity
  8
0
 62
7
100
AcDbPolyline
 90
2
 70
0
 10
116.370000
 20
131.342200
 30
0.0
 10
116.370000
 20
132.342200
 30
0.0
  0
LWPOLYLINE
  5
2a3
100
AcDbEntity
  8
0
 62
7
100
AcDbPolyline
 90
2
 70
0
 10
116.370000
 20
131.342200
 30
0.0
 10
116.370000
 20
132.342200
 30
0.0
  0
LWPOLYLINE
  5
2a4
100
AcDbEntity
  8
0
 62
7
100
AcDbPolyline
 90
2
 70
0
 10
116.370000
 20
118.342200
 30
0.0
 10
116.370000
 20
119.342200
 30
0.0
  0
LWPOLYLINE
  5
2a5
100
AcDbEntity
  8
0
 62
7
100
AcDbPolyline
 90
2
 70
0
 10
116.370000
 20
118.342200
 30
0.0
 10
116.370000
 20
119.342200
 30
0.0
  0
LWPOLYLINE
  5
2a6
100
AcDbEntity
  8
0
 62
7
100
AcDbPolyline
 90
2
 70
0
 10
117.370000
 20
118.342200
 30
0.0
 10
116.370000
 20
118.342200
 30
0.0
  0
LWPOLYLINE
  5
2a7
100
AcDbEntity
  8
0
 62
7
100
AcDbPolyline
 90
2
 70
0
 10
117.370000
 20
118.342200
 30
0.0
 10
116.370000
 20
118.342200
 30
0.0
  0
LWPOLYLINE
  5
2a8
100
AcDbEntity
  8
0
 62
7
100
AcDbPolyline
 90
2
 70
0
 10
129.370000
 20
132.342200
 30
0.0
 10
130.370000
 20
132.342200
 30
0.0
  0
LWPOLYLINE
  5
2a9
100
AcDbEntity
  8
0
 62
7
100
AcDbPolyline
 90
3
 70
0
 10
129.370000
 20
132.342200
 30
0.0
 10
130.370000
 20
132.342200
 30
0.0
 10
130.370000
 20
131.342200
 30
0.0
  0
LWPOLYLINE
  5
2aa
100
AcDbEntity
  8
0
 62
7
100
AcDbPolyline
 90
2
 70
0
 10
130.370000
 20
132.342200
 30
0.0
 10
130.370000
 20
131.342200
 30
0.0
  0
LWPOLYLINE
  5
2ab
100
AcDbEntity
  8
0
 62
7
100
AcDbPolyline
 90
2
 70
0
 10
130.370000
 20
119.342200
 30
0.0
 10
130.370000
 20
118.342200
 30
0.0
  0
LWPOLYLINE
  5
2ac
100
AcDbEntity
  8
0
 62
7
100
AcDbPolyline
 90
3
 70
0
 10
130.370000
 20
119.342200
 30
0.0
 10
130.370000
 20
118.342200
 30
0.0
 10
129.370000
 20
118.342200
 30
0.0
  0
LWPOLYLINE
  5
2ad
100
AcDbEntity
  8
0
 62
7
100
AcDbPolyline
 90
2
 70
0
 10
130.370000
 20
118.342200
 30
0.0
 10
129.370000
 20
118.342200
 30
0.0
  0
LWPOLYLINE
  5
2ae
100
AcDbEntity
  8
0
 62
7
100
AcDbPolyline
 90
2
 70
0
 10
134.370000
 20
112.691800
 30
0.0
 10
135.370000
 20
112.691800
 30
0.0
  0
LWPOLYLINE
  5
2af
100
AcDbEntity
  8
0
 62
7
100
AcDbPolyline
 90
2
 70
0
 10
134.370000
 20
112.691800
 30
0.0
 10
135.370000
 20
112.691800
 30
0.0
  0
LWPOLYLINE
  5
2b0
100
AcDbEntity
  8
0
 62
7
100
AcDbPolyline
 90
2
 70
0
 10
134.370000
 20
111.691800
 30
0.0
 10
134.370000
 20
112.691800
 30
0.0
  0
LWPOLYLINE
  5
2b1
100
AcDbEntity
  8
0
 62
7
100
AcDbPolyline
 90
2
 70
0
 10
134.370000
 20
111.691800
 30
0.0
 10
134.370000
 20
112.691800
 30
0.0
  0
LWPOLYLINE
  5
2b2
100
AcDbEntity
  8
0
 62
7
100
AcDbPolyline
 90
2
 70
0
 10
134.370000
 20
98.691800
 30
0.0
 10
134.370000
 20
99.691800
 30
0.0
  0
LWPOLYLINE
  5
2b3
100
AcDbEntity
  8
0
 62
7
100
AcDbPolyline
 90
2
 70
0
 10
134.370000
 20
98.691800
 30
0.0
 10
134.370000
 20
99.691800
 30
0.0
  0
LWPOLYLINE
  5
2b4
100
AcDbEntity
  8
0
 62
7
100
AcDbPolyline
 90
2
 70
0
 10
135.370000
 20
98.691800
 30
0.0
 10
134.370000
 20
98.691800
 30
0.0
  0
LWPOLYLINE
  5
2b5
100
AcDbEntity
  8
0
 62
7
100
AcDbPolyline
 90
2
 70
0
 10
135.370000
 20
98.691800
 30
0.0
 10
134.370000
 20
98.691800
 30
0.0
  0
LWPOLYLINE
  5
2b6
100
AcDbEntity
  8
0
 62
7
100
AcDbPolyline
 90
2
 70
0
 10
147.370000
 20
112.691800
 30
0.0
 10
148.370000
 20
112.691800
 30
0.0
  0
LWPOLYLINE
  5
2b7
100
AcDbEntity
  8
0
 62
7
100
AcDbPolyline
 90
3
 70
0
 10
147.370000
 20
112.691800
 30
0.0
 10
148.370000
 20
112.691800
 30
0.0
 10
148.370000
 20
111.691800
 30
0.0
  0
LWPOLYLINE
  5
2b8
100
AcDbEntity
  8
0
 62
7
100
AcDbPolyline
 90
2
 70
0
 10
148.370000
 20
112.691800
 30
0.0
 10
148.370000
 20
111.691800
 30
0.0
  0
LWPOLYLINE
  5
2b9
100
AcDbEntity
  8
0
 62
7
100
AcDbPolyline
 90
2
 70
0
 10
148.370000
 20
99.691800
 30
0.0
 10
148.370000
 20
98.691800
 30
0.0
  0
LWPOLYLINE
  5
2ba
100
AcDbEntity
  8
0
 62
7
100
AcDbPolyline
 90
3
 70
0
 10
148.370000
 20
99.691800
 30
0.0
 10
148.370000
 20
98.691800
 30
0.0
 10
147.370000
 20
98.691800
 30
0.0
  0
LWPOLYLINE
  5
2bb
100
AcDbEntity
  8
0
 62
7
100
AcDbPolyline
 90
2
 70
0
 10
148.370000
 20
98.691800
 30
0.0
 10
147.370000
 20
98.691800
 30
0.0
  0
LWPOLYLINE
  5
2bc
100
AcDbEntity
  8
0
 62
7
100
AcDbPolyline
 90
2
 70
0
 10
80.370000
 20
151.892200
 30
0.0
 10
81.370000
 20
151.892200
 30
0.0
  0
LWPOLYLINE
  5
2bd
100
AcDbEntity
  8
0
 62
7
100
AcDbPolyline
 90
2
 70
0
 10
80.370000
 20
151.892200
 30
0.0
 10
81.370000
 20
151.892200
 30
0.0
  0
LWPOLYLINE
  5
2be
100
AcDbEntity
  8
0
 62
7
100
AcDbPolyline
 90
2
 70
0
 10
80.370000
 20
150.892200
 30
0.0
 10
80.370000
 20
151.892200
 30
0.0
  0
LWPOLYLINE
  5
2bf
100
AcDbEntity
  8
0
 62
7
100
AcDbPolyline
 90
2
 70
0
 10
80.370000
 20
150.892200
 30
0.0
 10
80.370000
 20
151.892200
 30
0.0
  0
LWPOLYLINE
  5
2c0
100
AcDbEntity
  8
0
 62
7
100
AcDbPolyline
 90
2
 70
0
 10
80.370000
 20
137.892200
 30
0.0
 10
80.370000
 20
138.892200
 30
0.0
  0
LWPOLYLINE
  5
2c1
100
AcDbEntity
  8
0
 62
7
100
AcDbPolyline
 90
2
 70
0
 10
80.370000
 20
137.892200
 30
0.0
 10
80.370000
 20
138.892200
 30
0.0
  0
LWPOLYLINE
  5
2c2
100
AcDbEntity
  8
0
 62
7
100
AcDbPolyline
 90
2
 70
0
 10
81.370000
 20
137.892200
 30
0.0
 10
80.370000
 20
137.892200
 30
0.0
  0
LWPOLYLINE
  5
2c3
100
AcDbEntity
  8
0
 62
7
100
AcDbPolyline
 90
2
 70
0
 10
81.370000
 20
137.892200
 30
0.0
 10
80.370000
 20
137.892200
 30
0.0
  0
LWPOLYLINE
  5
2c4
100
AcDbEntity
  8
0
 62
7
100
AcDbPolyline
 90
2
 70
0
 10
93.370000
 20
151.892200
 30
0.0
 10
94.370000
 20
151.892200
 30
0.0
  0
LWPOLYLINE
  5
2c5
100
AcDbEntity
  8
0
 62
7
100
AcDbPolyline
 90
3
 70
0
 10
93.370000
 20
151.892200
 30
0.0
 10
94.370000
 20
151.892200
 30
0.0
 10
94.370000
 20
150.892200
 30
0.0
  0
LWPOLYLINE
  5
2c6
100
AcDbEntity
  8
0
 62
7
100
AcDbPolyline
 90
2
 70
0
 10
94.370000
 20
151.892200
 30
0.0
 10
94.370000
 20
150.892200
 30
0.0
  0
LWPOLYLINE
  5
2c7
100
AcDbEntity
  8
0
 62
7
100
AcDbPolyline
 90
2
 70
0
 10
94.370000
 20
138.892200
 30
0.0
 10
94.370000
 20
137.892200
 30
0.0
  0
LWPOLYLINE
  5
2c8
100
AcDbEntity
  8
0
 62
7
100
AcDbPolyline
 90
3
 70
0
 10
94.370000
 20
138.892200
 30
0.0
 10
94.370000
 20
137.892200
 30
0.0
 10
93.370000
 20
137.892200
 30
0.0
  0
LWPOLYLINE
  5
2c9
100
AcDbEntity
  8
0
 62
7
100
AcDbPolyline
 90
2
 70
0
 10
94.370000
 20
137.892200
 30
0.0
 10
93.370000
 20
137.892200
 30
0.0
  0
LWPOLYLINE
  5
2ca
100
AcDbEntity
  8
0
 62
7
100
AcDbPolyline
 90
2
 70
0
 10
137.162300
 20
79.627500
 30
0.0
 10
136.177500
 20
79.801100
 30
0.0
  0
LWPOLYLINE
  5
2cb
100
AcDbEntity
  8
0
 62
7
100
AcDbPolyline
 90
2
 70
0
 10
137.162300
 20
79.627500
 30
0.0
 10
136.177500
 20
79.801100
 30
0.0
  0
LWPOLYLINE
  5
2cc
100
AcDbEntity
  8
0
 62
7
100
AcDbPolyline
 90
2
 70
0
 10
137.335900
 20
80.612300
 30
0.0
 10
137.162300
 20
79.627500
 30
0.0
  0
LWPOLYLINE
  5
2cd
100
AcDbEntity
  8
0
 62
7
100
AcDbPolyline
 90
2
 70
0
 10
137.335900
 20
80.612300
 30
0.0
 10
137.162300
 20
79.627500
 30
0.0
  0
LWPOLYLINE
  5
2ce
100
AcDbEntity
  8
0
 62
7
100
AcDbPolyline
 90
2
 70
0
 10
139.593400
 20
93.414800
 30
0.0
 10
139.419700
 20
92.430000
 30
0.0
  0
LWPOLYLINE
  5
2cf
100
AcDbEntity
  8
0
 62
7
100
AcDbPolyline
 90
2
 70
0
 10
139.593400
 20
93.414800
 30
0.0
 10
139.419700
 20
92.430000
 30
0.0
  0
LWPOLYLINE
  5
2d0
100
AcDbEntity
  8
0
 62
7
100
AcDbPolyline
 90
2
 70
0
 10
138.608600
 20
93.588500
 30
0.0
 10
139.593400
 20
93.414800
 30
0.0
  0
LWPOLYLINE
  5
2d1
100
AcDbEntity
  8
0
 62
7
100
AcDbPolyline
 90
2
 70
0
 10
138.608600
 20
93.588500
 30
0.0
 10
139.593400
 20
93.414800
 30
0.0
  0
LWPOLYLINE
  5
2d2
100
AcDbEntity
  8
0
 62
7
100
AcDbPolyline
 90
2
 70
0
 10
124.359800
 20
81.884900
 30
0.0
 10
123.375000
 20
82.058600
 30
0.0
  0
LWPOLYLINE
  5
2d3
100
AcDbEntity
  8
0
 62
7
100
AcDbPolyline
 90
3
 70
0
 10
124.359800
 20
81.884900
 30
0.0
 10
123.375000
 20
82.058600
 30
0.0
 10
123.548600
 20
83.043400
 30
0.0
  0
LWPOLYLINE
  5
2d4
100
AcDbEntity
  8
0
 62
7
100
AcDbPolyline
 90
2
 70
0
 10
123.375000
 20
82.058600
 30
0.0
 10
123.548600
 20
83.043400
 30
0.0
  0
LWPOLYLINE
  5
2d5
100
AcDbEntity
  8
0
 62
7
100
AcDbPolyline
 90
2
 70
0
 10
125.632400
 20
94.861100
 30
0.0
 10
125.806100
 20
95.845900
 30
0.0
  0
LWPOLYLINE
  5
2d6
100
AcDbEntity
  8
0
 62
7
100
AcDbPolyline
 90
3
 70
0
 10
125.632400
 20
94.861100
 30
0.0
 10
125.806100
 20
95.845900
 30
0.0
 10
126.790900
 20
95.672200
 30
0.0
  0
LWPOLYLINE
  5
2d7
100
AcDbEntity
  8
0
 62
7
100
AcDbPolyline
 90
2
 70
0
 10
125.806100
 20
95.845900
 30
0.0
 10
126.790900
 20
95.672200
 30
0.0
  0
LWPOLYLINE
  5
2d8
100
AcDbEntity
  8
0
 62
7
100
AcDbPolyline
 90
2
 70
0
 10
80.370000
 20
134.892200
 30
0.0
 10
81.370000
 20
134.892200
 30
0.0
  0
LWPOLYLINE
  5
2d9
100
AcDbEntity
  8
0
 62
7
100
AcDbPolyline
 90
2
 70
0
 10
80.370000
 20
134.892200
 30
0.0
 10
81.370000
 20
134.892200
 30
0.0
  0
LWPOLYLINE
  5
2da
100
AcDbEntity
  8
0
 62
7
100
AcDbPolyline
 90
2
 70
0
 10
80.370000
 20
133.892200
 30
0.0
 10
80.370000
 20
134.892200
 30
0.0
  0
LWPOLYLINE
  5
2db
100
AcDbEntity
  8
0
 62
7
100
AcDbPolyline
 90
2
 70
0
 10
80.370000
 20
133.892200
 30
0.0
 10
80.370000
 20
134.892200
 30
0.0
  0
LWPOLYLINE
  5
2dc
100
AcDbEntity
  8
0
 62
7
100
AcDbPolyline
 90
2
 70
0
 10
80.370000
 20
120.892200
 30
0.0
 10
80.370000
 20
121.892200
 30
0.0
  0
LWPOLYLINE
  5
2dd
100
AcDbEntity
  8
0
 62
7
100
AcDbPolyline
 90
2
 70
0
 10
80.370000
 20
120.892200
 30
0.0
 10
80.370000
 20
121.892200
 30
0.0
  0
LWPOLYLINE
  5
2de
100
AcDbEntity
  8
0
 62
7
100
AcDbPolyline
 90
2
 70
0
 10
81.370000
 20
120.892200
 30
0.0
 10
80.370000
 20
120.892200
 30
0.0
  0
LWPOLYLINE
  5
2df
100
AcDbEntity
  8
0
 62
7
100
AcDbPolyline
 90
2
 70
0
 10
81.370000
 20
120.892200
 30
0.0
 10
80.370000
 20
120.892200
 30
0.0
  0
LWPOLYLINE
  5
2e0
100
AcDbEntity
  8
0
 62
7
100
AcDbPolyline
 90
2
 70
0
 10
93.370000
 20
134.892200
 30
0.0
 10
94.370000
 20
134.892200
 30
0.0
  0
LWPOLYLINE
  5
2e1
100
AcDbEntity
  8
0
 62
7
100
AcDbPolyline
 90
3
 70
0
 10
93.370000
 20
134.892200
 30
0.0
 10
94.370000
 20
134.892200
 30
0.0
 10
94.370000
 20
133.892200
 30
0.0
  0
LWPOLYLINE
  5
2e2
100
AcDbEntity
  8
0
 62
7
100
AcDbPolyline
 90
2
 70
0
 10
94.370000
 20
134.892200
 30
0.0
 10
94.370000
 20
133.892200
 30
0.0
  0
LWPOLYLINE
  5
2e3
100
AcDbEntity
  8
0
 62
7
100
AcDbPolyline
 90
2
 70
0
 10
94.370000
 20
121.892200
 30
0.0
 10
94.370000
 20
120.892200
 30
0.0
  0
LWPOLYLINE
  5
2e4
100
AcDbEntity
  8
0
 62
7
100
AcDbPolyline
 90
3
 70
0
 10
94.370000
 20
121.892200
 30
0.0
 10
94.370000
 20
120.892200
 30
0.0
 10
93.370000
 20
120.892200
 30
0.0
  0
LWPOLYLINE
  5
2e5
100
AcDbEntity
  8
0
 62
7
100
AcDbPolyline
 90
2
 70
0
 10
94.370000
 20
120.892200
 30
0.0
 10
93.370000
 20
120.892200
 30
0.0
  0
LWPOLYLINE
  5
2e6
100
AcDbEntity
  8
0
 62
7
100
AcDbPolyline
 90
2
 70
0
 10
116.370000
 20
149.342200
 30
0.0
 10
117.370000
 20
149.342200
 30
0.0
  0
LWPOLYLINE
  5
2e7
100
AcDbEntity
  8
0
 62
7
100
AcDbPolyline
 90
2
 70
0
 10
116.370000
 20
149.342200
 30
0.0
 10
117.370000
 20
149.342200
 30
0.0
  0
LWPOLYLINE
  5
2e8
100
AcDbEntity
  8
0
 62
7
100
AcDbPolyline
 90
2
 70
0
 10
116.370000
 20
148.342200
 30
0.0
 10
116.370000
 20
149.342200
 30
0.0
  0
LWPOLYLINE
  5
2e9
100
AcDbEntity
  8
0
 62
7
100
AcDbPolyline
 90
2
 70
0
 10
116.370000
 20
148.342200
 30
0.0
 10
116.370000
 20
149.342200
 30
0.0
  0
LWPOLYLINE
  5
2ea
100
AcDbEntity
  8
0
 62
7
100
AcDbPolyline
 90
2
 70
0
 10
116.370000
 20
135.342200
 30
0.0
 10
116.370000
 20
136.342200
 30
0.0
  0
LWPOLYLINE
  5
2eb
100
AcDbEntity
  8
0
 62
7
100
AcDbPolyline
 90
2
 70
0
 10
116.370000
 20
135.342200
 30
0.0
 10
116.370000
 20
136.342200
 30
0.0
  0
LWPOLYLINE
  5
2ec
100
AcDbEntity
  8
0
 62
7
100
AcDbPolyline
 90
2
 70
0
 10
117.370000
 20
135.342200
 30
0.0
 10
116.370000
 20
135.342200
 30
0.0
  0
LWPOLYLINE
  5
2ed
100
AcDbEntity
  8
0
 62
7
100
AcDbPolyline
 90
2
 70
0
 10
117.370000
 20
135.342200
 30
0.0
 10
116.370000
 20
135.342200
 30
0.0
  0
LWPOLYLINE
  5
2ee
100
AcDbEntity
  8
0
 62
7
100
AcDbPolyline
 90
2
 70
0
 10
129.370000
 20
149.342200
 30
0.0
 10
130.370000
 20
149.342200
 30
0.0
  0
LWPOLYLINE
  5
2ef
100
AcDbEntity
  8
0
 62
7
100
AcDbPolyline
 90
3
 70
0
 10
129.370000
 20
149.342200
 30
0.0
 10
130.370000
 20
149.342200
 30
0.0
 10
130.370000
 20
148.342200
 30
0.0
  0
LWPOLYLINE
  5
2f0
100
AcDbEntity
  8
0
 62
7
100
AcDbPolyline
 90
2
 70
0
 10
130.370000
 20
149.342200
 30
0.0
 10
130.370000
 20
148.342200
 30
0.0
  0
LWPOLYLINE
  5
2f1
100
AcDbEntity
  8
0
 62
7
100
AcDbPolyline
 90
2
 70
0
 10
130.370000
 20
136.342200
 30
0.0
 10
130.370000
 20
135.342200
 30
0.0
  0
LWPOLYLINE
  5
2f2
100
AcDbEntity
  8
0
 62
7
100
AcDbPolyline
 90
3
 70
0
 10
130.370000
 20
136.342200
 30
0.0
 10
130.370000
 20
135.342200
 30
0.0
 10
129.370000
 20
135.342200
 30
0.0
  0
LWPOLYLINE
  5
2f3
100
AcDbEntity
  8
0
 62
7
100
AcDbPolyline
 90
2
 70
0
 10
130.370000
 20
135.342200
 30
0.0
 10
129.370000
 20
135.342200
 30
0.0
  0
LWPOLYLINE
  5
2f4
100
AcDbEntity
  8
0
 62
7
100
AcDbPolyline
 90
2
 70
0
 10
80.370000
 20
117.791800
 30
0.0
 10
81.370000
 20
117.791800
 30
0.0
  0
LWPOLYLINE
  5
2f5
100
AcDbEntity
  8
0
 62
7
100
AcDbPolyline
 90
2
 70
0
 10
80.370000
 20
117.791800
 30
0.0
 10
81.370000
 20
117.791800
 30
0.0
  0
LWPOLYLINE
  5
2f6
100
AcDbEntity
  8
0
 62
7
100
AcDbPolyline
 90
2
 70
0
 10
80.370000
 20
116.791800
 30
0.0
 10
80.370000
 20
117.791800
 30
0.0
  0
LWPOLYLINE
  5
2f7
100
AcDbEntity
  8
0
 62
7
100
AcDbPolyline
 90
2
 70
0
 10
80.370000
 20
116.791800
 30
0.0
 10
80.370000
 20
117.791800
 30
0.0
  0
LWPOLYLINE
  5
2f8
100
AcDbEntity
  8
0
 62
7
100
AcDbPolyline
 90
2
 70
0
 10
80.370000
 20
103.791800
 30
0.0
 10
80.370000
 20
104.791800
 30
0.0
  0
LWPOLYLINE
  5
2f9
100
AcDbEntity
  8
0
 62
7
100
AcDbPolyline
 90
2
 70
0
 10
80.370000
 20
103.791800
 30
0.0
 10
80.370000
 20
104.791800
 30
0.0
  0
LWPOLYLINE
  5
2fa
100
AcDbEntity
  8
0
 62
7
100
AcDbPolyline
 90
2
 70
0
 10
81.370000
 20
103.791800
 30
0.0
 10
80.370000
 20
103.791800
 30
0.0
  0
LWPOLYLINE
  5
2fb
100
AcDbEntity
  8
0
 62
7
100
AcDbPolyline
 90
2
 70
0
 10
81.370000
 20
103.791800
 30
0.0
 10
80.370000
 20
103.791800
 30
0.0
  0
LWPOLYLINE
  5
2fc
100
AcDbEntity
  8
0
 62
7
100
AcDbPolyline
 90
2
 70
0
 10
93.370000
 20
117.791800
 30
0.0
 10
94.370000
 20
117.791800
 30
0.0
  0
LWPOLYLINE
  5
2fd
100
AcDbEntity
  8
0
 62
7
100
AcDbPolyline
 90
3
 70
0
 10
93.370000
 20
117.791800
 30
0.0
 10
94.370000
 20
117.791800
 30
0.0
 10
94.370000
 20
116.791800
 30
0.0
  0
LWPOLYLINE
  5
2fe
100
AcDbEntity
  8
0
 62
7
100
AcDbPolyline
 90
2
 70
0
 10
94.370000
 20
117.791800
 30
0.0
 10
94.370000
 20
116.791800
 30
0.0
  0
LWPOLYLINE
  5
2ff
100
AcDbEntity
  8
0
 62
7
100
AcDbPolyline
 90
2
 70
0
 10
94.370000
 20
104.791800
 30
0.0
 10
94.370000
 20
103.791800
 30
0.0
  0
LWPOLYLINE
  5
300
100
AcDbEntity
  8
0
 62
7
100
AcDbPolyline
 90
3
 70
0
 10
94.370000
 20
104.791800
 30
0.0
 10
94.370000
 20
103.791800
 30
0.0
 10
93.370000
 20
103.791800
 30
0.0
  0
LWPOLYLINE
  5
301
100
AcDbEntity
  8
0
 62
7
100
AcDbPolyline
 90
2
 70
0
 10
94.370000
 20
103.791800
 30
0.0
 10
93.370000
 20
103.791800
 30
0.0
  0
LWPOLYLINE
  5
302
100
AcDbEntity
  8
0
 62
7
100
AcDbPolyline
 90
2
 70
0
 10
62.370000
 20
140.842200
 30
0.0
 10
63.370000
 20
140.842200
 30
0.0
  0
LWPOLYLINE
  5
303
100
AcDbEntity
  8
0
 62
7
100
AcDbPolyline
 90
2
 70
0
 10
62.370000
 20
140.842200
 30
0.0
 10
63.370000
 20
140.842200
 30
0.0
  0
LWPOLYLINE
  5
304
100
AcDbEntity
  8
0
 62
7
100
AcDbPolyline
 90
2
 70
0
 10
62.370000
 20
139.842200
 30
0.0
 10
62.370000
 20
140.842200
 30
0.0
  0
LWPOLYLINE
  5
305
100
AcDbEntity
  8
0
 62
7
100
AcDbPolyline
 90
2
 70
0
 10
62.370000
 20
139.842200
 30
0.0
 10
62.370000
 20
140.842200
 30
0.0
  0
LWPOLYLINE
  5
306
100
AcDbEntity
  8
0
 62
7
100
AcDbPolyline
 90
2
 70
0
 10
62.370000
 20
126.842200
 30
0.0
 10
62.370000
 20
127.842200
 30
0.0
  0
LWPOLYLINE
  5
307
100
AcDbEntity
  8
0
 62
7
100
AcDbPolyline
 90
2
 70
0
 10
62.370000
 20
126.842200
 30
0.0
 10
62.370000
 20
127.842200
 30
0.0
  0
LWPOLYLINE
  5
308
100
AcDbEntity
  8
0
 62
7
100
AcDbPolyline
 90
2
 70
0
 10
63.370000
 20
126.842200
 30
0.0
 10
62.370000
 20
126.842200
 30
0.0
  0
LWPOLYLINE
  5
309
100
AcDbEntity
  8
0
 62
7
100
AcDbPolyline
 90
2
 70
0
 10
63.370000
 20
126.842200
 30
0.0
 10
62.370000
 20
126.842200
 30
0.0
  0
LWPOLYLINE
  5
30a
100
AcDbEntity
  8
0
 62
7
100
AcDbPolyline
 90
2
 70
0
 10
75.370000
 20
140.842200
 30
0.0
 10
76.370000
 20
140.842200
 30
0.0
  0
LWPOLYLINE
  5
30b
100
AcDbEntity
  8
0
 62
7
100
AcDbPolyline
 90
3
 70
0
 10
75.370000
 20
140.842200
 30
0.0
 10
76.370000
 20
140.842200
 30
0.0
 10
76.370000
 20
139.842200
 30
0.0
  0
LWPOLYLINE
  5
30c
100
AcDbEntity
  8
0
 62
7
100
AcDbPolyline
 90
2
 70
0
 10
76.370000
 20
140.842200
 30
0.0
 10
76.370000
 20
139.842200
 30
0.0
  0
LWPOLYLINE
  5
30d
100
AcDbEntity
  8
0
 62
7
100
AcDbPolyline
 90
2
 70
0
 10
76.370000
 20
127.842200
 30
0.0
 10
76.370000
 20
126.842200
 30
0.0
  0
LWPOLYLINE
  5
30e
100
AcDbEntity
  8
0
 62
7
100
AcDbPolyline
 90
3
 70
0
 10
76.370000
 20
127.842200
 30
0.0
 10
76.370000
 20
126.842200
 30
0.0
 10
75.370000
 20
126.842200
 30
0.0
  0
LWPOLYLINE
  5
30f
100
AcDbEntity
  8
0
 62
7
100
AcDbPolyline
 90
2
 70
0
 10
76.370000
 20
126.842200
 30
0.0
 10
75.370000
 20
126.842200
 30
0.0
  0
LWPOLYLINE
  5
310
100
AcDbEntity
  8
0
 62
7
100
AcDbPolyline
 90
2
 70
0
 10
41.870000
 20
137.442200
 30
0.0
 10
42.870000
 20
137.442200
 30
0.0
  0
LWPOLYLINE
  5
311
100
AcDbEntity
  8
0
 62
7
100
AcDbPolyline
 90
2
 70
0
 10
41.870000
 20
137.442200
 30
0.0
 10
42.870000
 20
137.442200
 30
0.0
  0
LWPOLYLINE
  5
312
100
AcDbEntity
  8
0
 62
7
100
AcDbPolyline
 90
2
 70
0
 10
41.870000
 20
136.442200
 30
0.0
 10
41.870000
 20
137.442200
 30
0.0
  0
LWPOLYLINE
  5
313
100
AcDbEntity
  8
0
 62
7
100
AcDbPolyline
 90
2
 70
0
 10
41.870000
 20
136.442200
 30
0.0
 10
41.870000
 20
137.442200
 30
0.0
  0
LWPOLYLINE
  5
314
100
AcDbEntity
  8
0
 62
7
100
AcDbPolyline
 90
2
 70
0
 10
41.870000
 20
123.442200
 30
0.0
 10
41.870000
 20
124.442200
 30
0.0
  0
LWPOLYLINE
  5
315
100
AcDbEntity
  8
0
 62
7
100
AcDbPolyline
 90
2
 70
0
 10
41.870000
 20
123.442200
 30
0.0
 10
41.870000
 20
124.442200
 30
0.0
  0
LWPOLYLINE
  5
316
100
AcDbEntity
  8
0
 62
7
100
AcDbPolyline
 90
2
 70
0
 10
42.870000
 20
123.442200
 30
0.0
 10
41.870000
 20
123.442200
 30
0.0
  0
LWPOLYLINE
  5
317
100
AcDbEntity
  8
0
 62
7
100
AcDbPolyline
 90
2
 70
0
 10
42.870000
 20
123.442200
 30
0.0
 10
41.870000
 20
123.442200
 30
0.0
  0
LWPOLYLINE
  5
318
100
AcDbEntity
  8
0
 62
7
100
AcDbPolyline
 90
2
 70
0
 10
54.870000
 20
137.442200
 30
0.0
 10
55.870000
 20
137.442200
 30
0.0
  0
LWPOLYLINE
  5
319
100
AcDbEntity
  8
0
 62
7
100
AcDbPolyline
 90
3
 70
0
 10
54.870000
 20
137.442200
 30
0.0
 10
55.870000
 20
137.442200
 30
0.0
 10
55.870000
 20
136.442200
 30
0.0
  0
LWPOLYLINE
  5
31a
100
AcDbEntity
  8
0
 62
7
100
AcDbPolyline
 90
2
 70
0
 10
55.870000
 20
137.442200
 30
0.0
 10
55.870000
 20
136.442200
 30
0.0
  0
LWPOLYLINE
  5
31b
100
AcDbEntity
  8
0
 62
7
100
AcDbPolyline
 90
2
 70
0
 10
55.870000
 20
124.442200
 30
0.0
 10
55.870000
 20
123.442200
 30
0.0
  0
LWPOLYLINE
  5
31c
100
AcDbEntity
  8
0
 62
7
100
AcDbPolyline
 90
3
 70
0
 10
55.870000
 20
124.442200
 30
0.0
 10
55.870000
 20
123.442200
 30
0.0
 10
54.870000
 20
123.442200
 30
0.0
  0
SPLINE
  5
31d
100
AcDbEntity
  8
0
 62
7
100
AcDbSpline
 70
8
 71
3
 72
8
 73
4
 74
0
 40
0
 40
0
 40
0
 40
0
 40
1
 40
1
 40
1
 40
1
 10
131.990000
 20
136.327200
 30
0.0
 10
130.999068
 20
136.327200
 30
0.0
 10
130.105709
 20
135.730277
 30
0.0
 10
129.726495
 20
134.814774
 30
0.0
  0
SPLINE
  5
31e
100
AcDbEntity
  8
0
 62
7
100
AcDbSpline
 70
8
 71
3
 72
8
 73
4
 74
0
 40
0
 40
0
 40
0
 40
0
 40
1
 40
1
 40
1
 40
1
 10
129.726495
 20
134.814774
 30
0.0
 10
129.347282
 20
133.899272
 30
0.0
 10
129.556893
 20
132.845483
 30
0.0
 10
130.257588
 20
132.144788
 30
0.0
  0
SPLINE
  5
31f
100
AcDbEntity
  8
0
 62
7
100
AcDbSpline
 70
8
 71
3
 72
8
 73
4
 74
0
 40
0
 40
0
 40
0
 40
0
 40
1
 40
1
 40
1
 40
1
 10
130.257588
 20
132.144788
 30
0.0
 10
130.958283
 20
131.444093
 30
0.0
 10
132.012072
 20
131.234482
 30
0.0
 10
132.927574
 20
131.613695
 30
0.0
  0
SPLINE
  5
320
100
AcDbEntity
  8
0
 62
7
100
AcDbSpline
 70
8
 71
3
 72
8
 73
4
 74
0
 40
0
 40
0
 40
0
 40
0
 40
1
 40
1
 40
1
 40
1
 10
132.927574
 20
131.613695
 30
0.0
 10
133.843077
 20
131.992909
 30
0.0
 10
134.440000
 20
132.886268
 30
0.0
 10
134.440000
 20
133.877200
 30
0.0
  0
SPLINE
  5
321
100
AcDbEntity
  8
0
 62
7
100
AcDbSpline
 70
8
 71
3
 72
8
 73
4
 74
0
 40
0
 40
0
 40
0
 40
0
 40
1
 40
1
 40
1
 40
1
 10
134.440000
 20
133.877200
 30
0.0
 10
134.440000
 20
135.230298
 30
0.0
 10
133.343098
 20
136.327200
 30
0.0
 10
131.990000
 20
136.327200
 30
0.0
  0
LWPOLYLINE
  5
322
100
AcDbEntity
  8
0
 62
7
100
AcDbPolyline
 90
2
 70
0
 10
55.870000
 20
123.442200
 30
0.0
 10
54.870000
 20
123.442200
 30
0.0
  0
SPLINE
  5
323
100
AcDbEntity
  8
0
 62
7
100
AcDbSpline
 70
8
 71
3
 72
8
 73
4
 74
0
 40
0
 40
0
 40
0
 40
0
 40
1
 40
1
 40
1
 40
1
 10
78.270000
 20
127.827200
 30
0.0
 10
77.279068
 20
127.827200
 30
0.0
 10
76.385709
 20
127.230277
 30
0.0
 10
76.006495
 20
126.314774
 30
0.0
  0
SPLINE
  5
324
100
AcDbEntity
  8
0
 62
7
100
AcDbSpline
 70
8
 71
3
 72
8
 73
4
 74
0
 40
0
 40
0
 40
0
 40
0
 40
1
 40
1
 40
1
 40
1
 10
76.006495
 20
126.314774
 30
0.0
 10
75.627282
 20
125.399272
 30
0.0
 10
75.836893
 20
124.345483
 30
0.0
 10
76.537588
 20
123.644788
 30
0.0
  0
SPLINE
  5
325
100
AcDbEntity
  8
0
 62
7
100
AcDbSpline
 70
8
 71
3
 72
8
 73
4
 74
0
 40
0
 40
0
 40
0
 40
0
 40
1
 40
1
 40
1
 40
1
 10
76.537588
 20
123.644788
 30
0.0
 10
77.238283
 20
122.944093
 30
0.0
 10
78.292072
 20
122.734482
 30
0.0
 10
79.207574
 20
123.113695
 30
0.0
  0
SPLINE
  5
326
100
AcDbEntity
  8
0
 62
7
100
AcDbSpline
 70
8
 71
3
 72
8
 73
4
 74
0
 40
0
 40
0
 40
0
 40
0
 40
1
 40
1
 40
1
 40
1
 10
79.207574
 20
123.113695
 30
0.0
 10
80.123077
 20
123.492909
 30
0.0
 10
80.720000
 20
124.386268
 30
0.0
 10
80.720000
 20
125.377200
 30
0.0
  0
SPLINE
  5
327
100
AcDbEntity
  8
0
 62
7
100
AcDbSpline
 70
8
 71
3
 72
8
 73
4
 74
0
 40
0
 40
0
 40
0
 40
0
 40
1
 40
1
 40
1
 40
1
 10
80.720000
 20
125.377200
 30
0.0
 10
80.720000
 20
126.730298
 30
0.0
 10
79.623098
 20
127.827200
 30
0.0
 10
78.270000
 20
127.827200
 30
0.0
  0
LWPOLYLINE
  5
328
100
AcDbEntity
  8
0
 62
7
100
AcDbPolyline
 90
1
 70
1
 10
131.990000
 20
136.327200
 30
0.0
  0
SPLINE
  5
329
100
AcDbEntity
  8
0
 62
7
100
AcDbSpline
 70
8
 71
3
 72
8
 73
4
 74
0
 40
0
 40
0
 40
0
 40
0
 40
1
 40
1
 40
1
 40
1
 10
132.160000
 20
119.347200
 30
0.0
 10
131.169068
 20
119.347200
 30
0.0
 10
130.275709
 20
118.750277
 30
0.0
 10
129.896495
 20
117.834774
 30
0.0
  0
SPLINE
  5
32a
100
AcDbEntity
  8
0
 62
7
100
AcDbSpline
 70
8
 71
3
 72
8
 73
4
 74
0
 40
0
 40
0
 40
0
 40
0
 40
1
 40
1
 40
1
 40
1
 10
129.896495
 20
117.834774
 30
0.0
 10
129.517282
 20
116.919272
 30
0.0
 10
129.726893
 20
115.865483
 30
0.0
 10
130.427588
 20
115.164788
 30
0.0
  0
SPLINE
  5
32b
100
AcDbEntity
  8
0
 62
7
100
AcDbSpline
 70
8
 71
3
 72
8
 73
4
 74
0
 40
0
 40
0
 40
0
 40
0
 40
1
 40
1
 40
1
 40
1
 10
130.427588
 20
115.164788
 30
0.0
 10
131.128283
 20
114.464093
 30
0.0
 10
132.182072
 20
114.254482
 30
0.0
 10
133.097574
 20
114.633695
 30
0.0
  0
SPLINE
  5
32c
100
AcDbEntity
  8
0
 62
7
100
AcDbSpline
 70
8
 71
3
 72
8
 73
4
 74
0
 40
0
 40
0
 40
0
 40
0
 40
1
 40
1
 40
1
 40
1
 10
133.097574
 20
114.633695
 30
0.0
 10
134.013077
 20
115.012909
 30
0.0
 10
134.610000
 20
115.906268
 30
0.0
 10
134.610000
 20
116.897200
 30
0.0
  0
SPLINE
  5
32d
100
AcDbEntity
  8
0
 62
7
100
AcDbSpline
 70
8
 71
3
 72
8
 73
4
 74
0
 40
0
 40
0
 40
0
 40
0
 40
1
 40
1
 40
1
 40
1
 10
134.610000
 20
116.897200
 30
0.0
 10
134.610000
 20
117.546980
 30
0.0
 10
134.351876
 20
118.170147
 30
0.0
 10
133.892412
 20
118.629612
 30
0.0
  0
SPLINE
  5
32e
100
AcDbEntity
  8
0
 62
7
100
AcDbSpline
 70
8
 71
3
 72
8
 73
4
 74
0
 40
0
 40
0
 40
0
 40
0
 40
1
 40
1
 40
1
 40
1
 10
133.892412
 20
118.629612
 30
0.0
 10
133.432947
 20
119.089076
 30
0.0
 10
132.809780
 20
119.347200
 30
0.0
 10
132.160000
 20
119.347200
 30
0.0
  0
LWPOLYLINE
  5
32f
100
AcDbEntity
  8
0
 62
7
100
AcDbPolyline
 90
1
 70
1
 10
78.270000
 20
127.827200
 30
0.0
  0
SPLINE
  5
330
100
AcDbEntity
  8
0
 62
7
100
AcDbSpline
 70
8
 71
3
 72
8
 73
4
 74
0
 40
0
 40
0
 40
0
 40
0
 40
1
 40
1
 40
1
 40
1
 10
78.030000
 20
110.827200
 30
0.0
 10
77.039068
 20
110.827200
 30
0.0
 10
76.145709
 20
110.230277
 30
0.0
 10
75.766495
 20
109.314774
 30
0.0
  0
SPLINE
  5
331
100
AcDbEntity
  8
0
 62
7
100
AcDbSpline
 70
8
 71
3
 72
8
 73
4
 74
0
 40
0
 40
0
 40
0
 40
0
 40
1
 40
1
 40
1
 40
1
 10
75.766495
 20
109.314774
 30
0.0
 10
75.387282
 20
108.399272
 30
0.0
 10
75.596893
 20
107.345483
 30
0.0
 10
76.297588
 20
106.644788
 30
0.0
  0
SPLINE
  5
332
100
AcDbEntity
  8
0
 62
7
100
AcDbSpline
 70
8
 71
3
 72
8
 73
4
 74
0
 40
0
 40
0
 40
0
 40
0
 40
1
 40
1
 40
1
 40
1
 10
76.297588
 20
106.644788
 30
0.0
 10
76.998283
 20
105.944093
 30
0.0
 10
78.052072
 20
105.734482
 30
0.0
 10
78.967574
 20
106.113695
 30
0.0
  0
SPLINE
  5
333
100
AcDbEntity
  8
0
 62
7
100
AcDbSpline
 70
8
 71
3
 72
8
 73
4
 74
0
 40
0
 40
0
 40
0
 40
0
 40
1
 40
1
 40
1
 40
1
 10
78.967574
 20
106.113695
 30
0.0
 10
79.883077
 20
106.492909
 30
0.0
 10
80.480000
 20
107.386268
 30
0.0
 10
80.480000
 20
108.377200
 30
0.0
  0
SPLINE
  5
334
100
AcDbEntity
  8
0
 62
7
100
AcDbSpline
 70
8
 71
3
 72
8
 73
4
 74
0
 40
0
 40
0
 40
0
 40
0
 40
1
 40
1
 40
1
 40
1
 10
80.480000
 20
108.377200
 30
0.0
 10
80.480000
 20
109.730298
 30
0.0
 10
79.383098
 20
110.827200
 30
0.0
 10
78.030000
 20
110.827200
 30
0.0
  0
LWPOLYLINE
  5
335
100
AcDbEntity
  8
0
 62
7
100
AcDbPolyline
 90
1
 70
1
 10
132.160000
 20
119.347200
 30
0.0
  0
LWPOLYLINE
  5
336
100
AcDbEntity
  8
0
 62
7
100
AcDbPolyline
 90
1
 70
1
 10
78.030000
 20
110.827200
 30
0.0
  0
ENDSEC
  0
SECTION
  2
OBJECTS
  0
DICTIONARY
  5
C
330
0
100
AcDbDictionary
  3
ACAD_GROUP
350
D
  3
ACAD_MLINESTYLE
350
17
  0
DICTIONARY
  5
D
330
C
100
AcDbDictionary
  0
DICTIONARY
  5
1A
330
C
100
AcDbDictionary
  0
DICTIONARY
  5
17
330
C
100
AcDbDictionary
  3
STANDARD
350
18
  0
DICTIONARY
  5
19
330
C
100
AcDbDictionary
  0
ENDSEC
  0
EOF
