<?xml version="1.0" standalone="no"?>
 <!DOCTYPE svg PUBLIC "-//W3C//DTD SVG 1.1//EN" 
 "http://www.w3.org/Graphics/SVG/1.1/DTD/svg11.dtd"> 
<svg
  xmlns:svg="http://www.w3.org/2000/svg"
  xmlns="http://www.w3.org/2000/svg"
  xmlns:xlink="http://www.w3.org/1999/xlink"
  version="1.1"
  width="297.0022mm" height="210.0072mm" viewBox="0.0000 0.0000 297.0022 210.0072">
<title>SVG Image created as rose-F_Courtyard.svg date 2023/09/23 21:57:02 </title>
  <desc>Image generated by PCBNEW </desc>
<g style="fill:#000000; fill-opacity:1.0000;stroke:#000000; stroke-opacity:1.0000;
stroke-linecap:round; stroke-linejoin:round;"
 transform="translate(0 0) scale(1 1)">
</g>
<g style="fill:#000000; fill-opacity:0.0; 
stroke:#000000; stroke-width:0.0000; stroke-opacity:1; 
stroke-linecap:round; stroke-linejoin:round;">
</g>
<g style="fill:#000000; fill-opacity:0.0; 
stroke:#000000; stroke-width:0.0500; stroke-opacity:1; 
stroke-linecap:round; stroke-linejoin:round;">
<circle cx="131.9900" cy="76.1300" r="2.4500" /> 
<circle cx="78.2700" cy="84.6300" r="2.4500" /> 
<circle cx="132.1600" cy="93.1100" r="2.4500" /> 
<circle cx="78.0300" cy="101.6300" r="2.4500" /> 
<g >
</g>
<g >
</g>
<g >
</g>
<g >
</g>
<g >
</g>
<g >
</g>
<g >
</g>
<g >
</g>
<g >
</g>
<g >
</g>
<g >
</g>
<g >
</g>
<g >
</g>
<g >
</g>
<g >
</g>
<g >
</g>
<g >
</g>
<g >
</g>
<g >
</g>
<g >
</g>
<g >
</g>
<g >
</g>
<g >
</g>
<g >
</g>
<g >
</g>
<g >
</g>
<g >
</g>
<g >
</g>
<g >
</g>
<g >
</g>
<g >
</g>
<g >
</g>
<g >
</g>
<g >
</g>
<g >
</g>
<g >
</g>
<g >
</g>
<g >
</g>
<g >
</g>
<g >
</g>
<g >
</g>
<g >
</g>
<g >
</g>
<g >
</g>
<g >
</g>
<g >
</g>
<g >
</g>
<g >
</g>
<g >
</g>
<g >
</g>
<g >
</g>
<g >
</g>
<g >
</g>
<g >
</g>
<g >
</g>
<g >
</g>
<g >
</g>
<g >
</g>
<g >
</g>
<g >
</g>
<g >
</g>
<g >
</g>
<g >
</g>
<g >
</g>
<g >
</g>
<g >
</g>
<g >
</g>
<g >
</g>
<g >
</g>
<g >
</g>
</g>
<g style="fill:#000000; fill-opacity:0.0; 
stroke:#000000; stroke-width:0.0500; stroke-opacity:1; 
stroke-linecap:round; stroke-linejoin:round;">
</g>
<g style="fill:#000000; fill-opacity:0.0; 
stroke:#000000; stroke-width:0.1000; stroke-opacity:1; 
stroke-linecap:round; stroke-linejoin:round;">
<path d="M126.2729 131.4382
L127.9449 131.6931
" />
<path d="M118.9671 130.2113
L119.7560 130.5264
" />
<path d="M143.1462 135.0358
L143.9863 135.2859
" />
<path d="M68.2852 123.6394
L70.2777 123.6564
" />
<path d="M152.0281,61.9902 C151.9719,61.9340 151.9403,61.8577 151.9403,61.7781" />
<path d="M58.7925,119.5024 C58.8582,119.4367 58.9473,119.3999 59.0401,119.3999" />
<path d="M58.6900 86.8799
L58.6900 97.5724
" />
<path d="M144.8238 135.5440
L145.6584 135.8102
" />
<path d="M175.0513 118.5272
L174.9236 117.8316
" />
<path d="M176.6562 124.4774
L176.4283 123.8500
" />
<path d="M148.9595 136.9592
L149.7738 137.2681
" />
<path d="M94.8203,54.1089 C94.8203,54.3641 94.7149,54.6185 94.5274,54.8060" />
<path d="M116.5613 129.3237
L117.3697 129.6100
" />
<path d="M151.5009,60.6384 C151.2196,60.3571 150.8381,60.1991 150.4403,60.1991" />
<path d="M176.2149 123.2127
L176.0150 122.5662
" />
<path d="M70.2777 123.6564
L72.2639 123.6834
" />
<path d="M178.7558 128.5264
L178.5715 128.2605
" />
<path d="M175.6520 121.2482
L175.4872 120.5780
" />
<path d="M58.6900,97.5724 C58.6900,97.6653 58.7269,97.7543 58.7926,97.8199" />
<path d="M117.3697 129.6100
L118.1717 129.9058
" />
<path d="M127.9449 131.6931
L129.6224 131.9692
" />
<path d="M121.2918 130.7972
L122.9464 130.9905
" />
<path d="M57.8800 69.5488
L39.8200 69.5500
" />
<path d="M117.4403,57.6489 C117.0424,57.6489 116.6609,57.4909 116.3796,57.2096" />
<path d="M59.4977 119.7500
L59.4971 122.9096
" />
<path d="M59.4925,80.1390 C59.4925,80.2319 59.4557,80.3209 59.3900,80.3865" />
<path d="M178.3930 127.9906
L178.2204 127.7168
" />
<path d="M172.5713 149.5740
L172.7531 149.6790
" />
<path d="M58.6900,70.2988 C58.6900,70.0999 58.6110,69.9091 58.4703,69.7685" />
<path d="M72.2639 123.6834
L74.2437 123.7194
" />
<path d="M107.2614 126.7737
L108.1358 126.9629
" />
<path d="M179.5558 129.5471
L179.3461 129.2986
" />
<path d="M108.1358 126.9629
L109.0046 127.1601
" />
<path d="M119.7560 130.5264
L121.2918 130.7972
" />
<path d="M104.6072 126.2518
L105.4971 126.4183
" />
<path d="M59.1477,119.3999 C59.2405,119.3999 59.3296,119.4368 59.3952,119.5024" />
<path d="M111.5776 127.8016
L112.4236 128.0326
" />
<path d="M78.2491,55.0989 C77.8512,55.0989 77.4697,55.2569 77.1884,55.5382" />
<path d="M59.5001 97.5725
L59.5020 86.8800
" />
<path d="M132.9925 132.5872
L134.6838 132.9307
" />
<path d="M160.6125 142.4858
L162.0913 143.3436
" />
<path d="M80.1407 123.8924
L82.0909 123.9734
" />
<path d="M174.6920 116.4243
L174.5875 115.7128
" />
<path d="M109.0046 127.1601
L109.8680 127.3655
" />
<path d="M151.9403 61.7781
L151.9403 61.7591
" />
<path d="M175.8277 121.9112
L175.6520 121.2482
" />
<path d="M60.3200 66.1489
L60.2540 66.1489
" />
<path d="M174.4902 114.9965
L174.4000 114.2754
" />
<path d="M58.7926,97.8199 C58.8582,97.8856 58.9472,97.9224 59.0401,97.9224" />
<path d="M145.6584 135.8102
L146.4896 136.0847
" />
<path d="M59.0954 104.5299
L59.0404 104.5299
" />
<path d="M98.2501 125.2765
L99.1710 125.3969
" />
<path d="M58.4703,123.4491 C58.6110,123.3085 58.6900,123.1177 58.6900,122.9188" />
<path d="M174.4000 114.2754
L174.3167 113.5496
" />
<path d="M59.3965,112.9975 C59.4622,112.9318 59.4990,112.8428 59.4990,112.7500" />
<path d="M182.0433 131.7674
L181.7610 131.5683
" />
<path d="M101.0008 125.6558
L101.9093 125.7947
" />
<path d="M175.1874 119.2171
L175.0513 118.5272
" />
<path d="M134.9403,60.1991 C134.6750,60.1991 134.4207,60.0938 134.2332,59.9062" />
<path d="M109.8680 127.3655
L110.7257 127.5793
" />
<path d="M57.9400,123.6688 C58.1389,123.6688 58.3297,123.5898 58.4703,123.4491" />
<path d="M95.2596,52.9882 C94.9783,53.2695 94.8203,53.6511 94.8203,54.0989" />
<path d="M59.3979,104.6324 C59.3323,104.5668 59.2432,104.5299 59.1504,104.5299" />
<path d="M59.1501,97.9224 C59.2429,97.9225 59.3319,97.8856 59.3976,97.8200" />
<path d="M39.8200 123.6688
L39.8800 123.6688
" />
<path d="M156.8581 140.4440
L157.6176 140.8386
" />
<path d="M58.6900,119.7499 C58.6900,119.6570 58.7269,119.5680 58.7925,119.5024" />
<path d="M95.4641 124.9493
L96.3965 125.0529
" />
<path d="M59.5040 67.6489
L59.5040 71.1089
" />
<path d="M58.7825,80.3863 C58.7169,80.3207 58.6800,80.2317 58.6800,80.1388" />
<path d="M122.9464 130.9905
L124.6067 131.2041
" />
<path d="M59.1504 104.5299
L59.0954 104.5299
" />
<path d="M137.2255 133.4916
L138.0733 133.6914
" />
<path d="M75.3362 66.1489
L60.3200 66.1489
" />
<path d="M77.1884,55.5382 C76.9071,55.8195 76.7491,56.2011 76.7491,56.5989" />
<path d="M182.6313 132.1499
L182.3334 131.9613
" />
<path d="M114.4403 52.5489
L96.3803 52.5489
" />
<path d="M64.2822 123.6321
L66.2867 123.6312
" />
<path d="M178.2204 127.7168
L178.0534 127.4393
" />
<path d="M96.3803 52.5489
L96.3203 52.5489
" />
<path d="M59.0401,86.5300 C58.9472,86.5300 58.8582,86.5669 58.7926,86.6325" />
<path d="M59.1490,113.1000 C59.2419,113.1000 59.3309,113.0631 59.3965,112.9975" />
<path d="M58.6904 104.8799
L58.6900 104.8800
" />
<path d="M129.6224 131.9692
L131.3051 132.2670
" />
<path d="M174.9236 117.8316
L174.8039 117.1305
" />
<path d="M97.3251 125.1619
L98.2501 125.2765
" />
<path d="M82.0909 123.9734
L84.0326 124.0664
" />
<path d="M94.5274,54.8060 C94.3398,54.9935 94.0855,55.0989 93.8203,55.0989" />
<path d="M114.0974 128.5214
L114.9250 128.7795
" />
<path d="M133.5009,58.0882 C133.2196,57.8069 132.8381,57.6489 132.4403,57.6489" />
<path d="M143.9863 135.2859
L144.8238 135.5440
" />
<path d="M94.8203 54.1089
L94.8203 54.0989
" />
<path d="M134.2332,59.9080 C134.0456,59.7205 133.9403,59.4661 133.9403,59.2009" />
<path d="M59.3976,97.8200 C59.4632,97.7544 59.5001,97.6654 59.5001,97.5725" />
<path d="M174.2403,63.5781 C174.2403,63.1803 174.0822,62.7988 173.8009,62.5174" />
<path d="M59.5040 71.1089
L59.4925 80.1390
" />
<path d="M146.4896 136.0847
L147.3171 136.3676
" />
<path d="M180.9598 130.9395
L180.7078 130.7198
" />
<path d="M158.3724 141.2405
L159.1228 141.6493
" />
<path d="M102.8132 125.9402
L103.7126 126.0925
" />
<path d="M176.0150 122.5662
L175.8277 121.9112
" />
<path d="M89.7998 124.4320
L91.7004 124.5861
" />
<path d="M59.0940 97.9224
L59.1501 97.9224
" />
<path d="M141.4600 134.5586
L142.3040 134.7934
" />
<path d="M174.5875 115.7128
L174.4902 114.9965
" />
<path d="M118.1717 129.9058
L118.9671 130.2113
" />
<path d="M116.3796,57.2096 C116.0983,56.9283 115.9403,56.5467 115.9403,56.1489" />
<path d="M183.2023 134.2810
L183.3073 134.0991
" />
<path d="M58.7926,86.6325 C58.7269,86.6981 58.6901,86.7872 58.6901,86.8800" />
<path d="M58.7929,104.6324 C58.7273,104.6980 58.6904,104.7871 58.6904,104.8799" />
<path d="M177.1599 125.6996
L176.8997 125.0942
" />
<path d="M132.3803 57.6489
L117.4403 57.6489
" />
<path d="M106.3819 126.5922
L107.2614 126.7737
" />
<path d="M151.9403,61.6991 C151.9403,61.3013 151.7822,60.9198 151.5009,60.6384" />
<path d="M115.7463 129.0469
L116.5613 129.3237
" />
<path d="M60.2540,66.1489 C60.0551,66.1489 59.8643,66.2279 59.7237,66.3686" />
<path d="M39.8800 123.6688
L57.9400 123.6688
" />
<path d="M147.3171 136.3676
L148.1405 136.6591
" />
<path d="M139.7681 134.1110
L140.6146 134.3312
" />
<path d="M59.1521 86.5300
L59.0961 86.5300
" />
<path d="M76.2166 123.7664
L78.1824 123.8234
" />
<path d="M84.0326 124.0664
L85.9651 124.1733
" />
<path d="M176.8997 125.0942
L176.6562 124.4774
" />
<path d="M115.9403 56.1489
L115.9403 54.1089
" />
<path d="M182.8132 132.2550
L182.6313 132.1499
" />
<path d="M175.4872 120.5780
L175.3325 119.9007
" />
<path d="M174.5973 149.1849
L183.2023 134.2810
" />
<path d="M165.0371 145.1050
L166.5152 145.9992
" />
<path d="M157.6176 140.8386
L158.3724 141.2405
" />
<path d="M177.7355 126.8730
L177.4381 126.2929
" />
<path d="M103.7126 126.0925
L104.6072 126.2518
" />
<path d="M76.7491 56.6589
L76.8361 64.6325
" />
<path d="M58.6900 122.9188
L58.6900 119.7499
" />
<path d="M59.7237,66.3686 C59.5830,66.5092 59.5040,66.7000 59.5040,66.8989" />
<path d="M179.3461 129.2986
L179.1430 129.0454
" />
<path d="M101.9093 125.7947
L102.8132 125.9402
" />
<path d="M113.2636 128.2725
L114.0974 128.5214
" />
<path d="M135.5306 133.1114
L136.3779 133.2983
" />
<path d="M150.3803 60.1991
L134.9403 60.1991
" />
<path d="M153.7659 138.9459
L154.5474 139.3079
" />
<path d="M159.8693 142.0646
L160.6125 142.4858
" />
<path d="M59.0951 113.1000
L59.1490 113.1000
" />
<path d="M38.3200,122.1688 C38.3200,122.9972 38.9916,123.6688 39.8200,123.6688" />
<path d="M93.8203 55.0989
L78.3803 55.0989
" />
<path d="M59.0401 119.3999
L59.1477 119.3999
" />
<path d="M66.2867 123.6312
L68.2852 123.6394
" />
<path d="M59.3900,80.3865 C59.3243,80.4522 59.2353,80.4890 59.1424,80.4890" />
<path d="M59.4990 112.7500
L59.5004 104.8800
" />
<path d="M175.3325 119.9007
L175.1874 119.2171
" />
<path d="M59.5020,86.8800 C59.5020,86.6867 59.3453,86.5301 59.1521,86.5300" />
<path d="M179.9955 130.0306
L179.7722 129.7911
" />
<path d="M177.8918 127.1579
L177.7355 126.8730
" />
<path d="M180.4631 130.4949
L180.2257 130.2652
" />
<path d="M150.5831 137.5859
L151.3871 137.9126
" />
<path d="M91.7004 124.5861
L93.5888 124.7583
" />
<path d="M178.5715 128.2605
L178.3930 127.9906
" />
<path d="M58.6900,112.7500 C58.6900,112.8428 58.7269,112.9318 58.7926,112.9975" />
<path d="M178.9463 128.7880
L178.7558 128.5264
" />
<path d="M78.1824 123.8234
L80.1407 123.8924
" />
<path d="M152.9787 138.5926
L153.7659 138.9459
" />
<path d="M59.0961 86.5300
L59.0401 86.5300
" />
<path d="M159.1228 141.6493
L159.8693 142.0646
" />
<path d="M105.4971 126.4183
L106.3819 126.5922
" />
<path d="M181.4863 131.3638
L181.2193 131.1542
" />
<path d="M181.7610 131.5683
L181.4863 131.3638
" />
<path d="M59.3952,119.5024 C59.4609,119.5681 59.4977,119.6572 59.4977,119.7500" />
<path d="M58.6901 86.8800
L58.6900 86.8799
" />
<path d="M59.1424 80.4890
L59.0300 80.4888
" />
<path d="M177.4381 126.2929
L177.1599 125.6996
" />
<path d="M173.8009,62.5174 C173.5196,62.2361 173.1381,62.0781 172.7403,62.0781" />
<path d="M76.7491 56.5989
L76.7491 56.6589
" />
<path d="M133.9403,59.1489 C133.9403,58.7511 133.7822,58.3695 133.5009,58.0882" />
<path d="M78.3803 55.0989
L78.2491 55.0989
" />
<path d="M163.5643 144.2183
L165.0371 145.1050
" />
<path d="M85.9651 124.1733
L87.8877 124.2948
" />
<path d="M59.0404,104.5299 C58.9476,104.5299 58.8585,104.5668 58.7929,104.6324" />
<path d="M76.4026,65.7037 C76.1208,65.9886 75.7368,66.1489 75.3362,66.1489" />
<path d="M115.9403 54.1089
L115.9403 54.0489
" />
<path d="M180.2257 130.2652
L179.9955 130.0306
" />
<path d="M59.4971,122.9096 C59.4971,123.1100 59.5772,123.3021 59.7197,123.4430" />
<path d="M151.9403 61.7591
L151.9403 61.6991
" />
<path d="M148.1405 136.6591
L148.9595 136.9592
" />
<path d="M58.7926,112.9975 C58.8582,113.0631 58.9472,113.1000 59.0401,113.1000" />
<path d="M131.3051 132.2670
L132.9925 132.5872
" />
<path d="M134.6838 132.9307
L135.5306 133.1114
" />
<path d="M76.8361,64.6325 C76.8404,65.0331 76.6844,65.4189 76.4026,65.7037" />
<path d="M179.1430 129.0454
L178.9463 128.7880
" />
<path d="M183.3073,134.0991 C183.6801,133.4534 183.4589,132.6278 182.8132,132.2550" />
<path d="M168.0035 146.8965
L169.5068 147.7932
" />
<path d="M181.2193 131.1542
L180.9598 130.9395
" />
<path d="M58.6900 104.8800
L58.6900 112.7500
" />
<path d="M150.4403 60.1991
L150.3803 60.1991
" />
<path d="M156.0933 140.0572
L156.8581 140.4440
" />
<path d="M99.1710 125.3969
L100.0880 125.5233
" />
<path d="M38.3200 71.0500
L38.3200 122.1688
" />
<path d="M174.2403 112.8191
L174.2403 63.5781
" />
<path d="M114.9250 128.7795
L115.7463 129.0469
" />
<path d="M152.2403,62.0781 C152.1607,62.0781 152.0844,62.0465 152.0281,61.9902" />
<path d="M174.3167 113.5496
L174.2403 112.8191
" />
<path d="M39.8200,69.5500 C38.9916,69.5500 38.3200,70.2216 38.3200,71.0500" />
<path d="M174.8039 117.1305
L174.6920 116.4243
" />
<path d="M152.1857 138.2482
L152.9787 138.5926
" />
<path d="M166.5152 145.9992
L168.0035 146.8965
" />
<path d="M132.4403 57.6489
L132.3803 57.6489
" />
<path d="M96.3965 125.0529
L97.3251 125.1619
" />
<path d="M149.7738 137.2681
L150.5831 137.5859
" />
<path d="M87.8877 124.2948
L89.7998 124.4320
" />
<path d="M100.0880 125.5233
L101.0008 125.6558
" />
<path d="M178.0534 127.4393
L177.8918 127.1579
" />
<path d="M162.0913 143.3436
L163.5643 144.2183
" />
<path d="M124.6067 131.2041
L126.2729 131.4382
" />
<path d="M57.9400 69.5488
L57.8800 69.5488
" />
<path d="M136.3779 133.2983
L137.2255 133.4916
" />
<path d="M58.6800 80.1388
L58.6900 71.1088
" />
<path d="M154.5474 139.3079
L155.3232 139.6784
" />
<path d="M169.5068 147.7932
L171.0286 148.6864
" />
<path d="M138.9209 133.8978
L139.7681 134.1110
" />
<path d="M151.3871 137.9126
L152.1857 138.2482
" />
<path d="M115.5009,52.9882 C115.2196,52.7069 114.8381,52.5489 114.4403,52.5489" />
<path d="M58.6900 71.1088
L58.6900 70.2988
" />
<path d="M110.7257 127.5793
L111.5776 127.8016
" />
<path d="M59.0300,80.4888 C58.9372,80.4888 58.8481,80.4520 58.7825,80.3863" />
<path d="M112.4236 128.0326
L113.2636 128.2725
" />
<path d="M182.3334 131.9613
L182.0433 131.7674
" />
<path d="M59.5040 66.8989
L59.5040 67.6489
" />
<path d="M74.2437 123.7194
L76.2166 123.7664
" />
<path d="M180.7078 130.7198
L180.4631 130.4949
" />
<path d="M59.7197,123.4430 C59.8622,123.5840 60.0552,123.6620 60.2556,123.6597" />
<path d="M94.5281 124.8513
L95.4641 124.9493
" />
<path d="M172.7531,149.6790 C173.3988,150.0518 174.2245,149.8306 174.5973,149.1849" />
<path d="M140.6146 134.3312
L141.4600 134.5586
" />
<path d="M59.0401 113.1000
L59.0951 113.1000
" />
<path d="M142.3040 134.7934
L143.1462 135.0358
" />
<path d="M93.5888 124.7583
L94.5281 124.8513
" />
<path d="M62.2718 123.6417
L64.2822 123.6321
" />
<path d="M115.9403,54.0489 C115.9403,53.6511 115.7822,53.2695 115.5009,52.9882" />
<path d="M58.4703,69.7685 C58.3297,69.6278 58.1389,69.5488 57.9400,69.5488" />
<path d="M179.7722 129.7911
L179.5558 129.5471
" />
<path d="M96.3203,52.5489 C95.9224,52.5489 95.5409,52.7069 95.2596,52.9882" />
<path d="M138.0733 133.6914
L138.9209 133.8978
" />
<path d="M133.9403 59.1489
L133.9403 59.2009
" />
<path d="M60.2556 123.6597
L62.2718 123.6417
" />
<path d="M59.0401 97.9224
L59.0940 97.9224
" />
<path d="M171.0286 148.6864
L172.5713 149.5740
" />
<path d="M59.5004,104.8800 C59.5004,104.7872 59.4635,104.6981 59.3979,104.6324" />
<path d="M176.4283 123.8500
L176.2149 123.2127
" />
<path d="M155.3232 139.6784
L156.0933 140.0572
" />
<path d="M172.7403 62.0781
L152.2403 62.0781
" />
<g >
</g>
<g >
</g>
<g >
</g>
<g >
</g>
<g >
</g>
<g >
</g>
<g >
</g>
<g >
</g>
<g >
</g>
<g >
</g>
<g >
</g>
<g >
</g>
<g >
</g>
<g >
</g>
<g >
</g>
<g >
</g>
<g >
</g>
<g >
</g>
<g >
</g>
<g >
</g>
<g >
</g>
<g >
</g>
<g >
</g>
<g >
</g>
<g >
</g>
<g >
</g>
<g >
</g>
<g >
</g>
<g >
</g>
<g >
</g>
<g >
</g>
<g >
</g>
<g >
</g>
<g >
</g>
<g >
</g>
<g >
</g>
<g >
</g>
<g >
</g>
<g >
</g>
<g >
</g>
<g >
</g>
<g >
</g>
<g >
</g>
<g >
</g>
<g >
</g>
<g >
</g>
<g >
</g>
<g >
</g>
<g >
</g>
<g >
</g>
<g >
</g>
<g >
</g>
<g >
</g>
<g >
</g>
<g >
</g>
<g >
</g>
<g >
</g>
<g >
</g>
<g >
</g>
<g >
</g>
<g >
</g>
<g >
</g>
<g >
</g>
<g >
</g>
<g >
</g>
<g >
</g>
<g >
</g>
<g >
</g>
<g >
</g>
<g >
</g>
</g> 
</svg>
