  0
SECTION
  2
HEADER
  9
$ANGBASE
  50
0.0
  9
$ANGDIR
  70
1
  9
$MEASUREMENT
  70
1
  0
ENDSEC
  0
SECTION
  2
TABLES
  0
TABLE
  2
LTYPE
  70
4
  0
LTYPE
  5
40F
  2
CONTINUOUS
  70
0
  3
Solid line
  72
65
  73
0
  40
0.0
  0
LTYPE
  5
410
  2
DASHDOT
 70
0
  3
Dash Dot ____ _ ____ _
 72
65
 73
4
 40
2.0
 49
1.25
 49
-0.25
 49
0.25
 49
-0.25
  0
LTYPE
  5
411
  2
DASHED
 70
0
  3
Dashed __ __ __ __ __
 72
65
 73
2
 40
0.75
 49
0.5
 49
-0.25
  0
LTYPE
  5
43B
  2
DOTTED
 70
0
  3
Dotted .  .  .  .
 72
65
 73
2
 40
0.2
 49
0.0
 49
-0.2
  0
ENDTAB
  0
TABLE
  2
STYLE
  70
4
  0
STYLE
  2
KICAD
  70
0
  40
0
  41
1
  42
1
  50
0
  71
0
  3
isocp.shx
  0
STYLE
  2
KICADB
  70
0
  40
0
  41
1
  42
1
  50
0
  71
0
  3
isocp.shx
  0
STYLE
  2
KICADI
  70
0
  40
0
  41
1
  42
1
  50
15
  71
0
  3
isocp.shx
  0
STYLE
  2
KICADBI
  70
0
  40
0
  41
1
  42
1
  50
15
  71
0
  3
isocp.shx
  0
ENDTAB
  0
TABLE
  2
LAYER
  70
1
  0
LAYER
  2
BLACK
  70
0
  62
7
  6
CONTINUOUS
  0
ENDTAB
  0
ENDSEC
  0
SECTION
  2
ENTITIES
0
LINE
8
BLACK
6
CONTINUOUS
10
172.852
20
-144.941
11
172.9
21
-144.959
0
LINE
8
BLACK
6
CONTINUOUS
10
172.9
20
-144.959
11
172.926
21
-145.003
0
LINE
8
BLACK
6
CONTINUOUS
10
172.926
20
-145.003
11
172.917
21
-145.054
0
LINE
8
BLACK
6
CONTINUOUS
10
172.917
20
-145.054
11
172.417
21
-145.92
0
LINE
8
BLACK
6
CONTINUOUS
10
172.417
20
-145.92
11
172.411
21
-145.927
0
LINE
8
BLACK
6
CONTINUOUS
10
172.411
20
-145.927
11
172.41
21
-145.93
0
LINE
8
BLACK
6
CONTINUOUS
10
172.41
20
-145.93
11
172.407
21
-145.932
0
LINE
8
BLACK
6
CONTINUOUS
10
172.407
20
-145.932
11
172.4
21
-145.94
0
LINE
8
BLACK
6
CONTINUOUS
10
172.4
20
-145.94
11
172.382
21
-145.946
0
LINE
8
BLACK
6
CONTINUOUS
10
172.382
20
-145.946
11
172.365
21
-145.956
0
LINE
8
BLACK
6
CONTINUOUS
10
172.365
20
-145.956
11
172.359
21
-145.955
0
LINE
8
BLACK
6
CONTINUOUS
10
172.359
20
-145.955
11
172.352
21
-145.957
0
LINE
8
BLACK
6
CONTINUOUS
10
172.352
20
-145.957
11
172.334
21
-145.951
0
LINE
8
BLACK
6
CONTINUOUS
10
172.334
20
-145.951
11
172.315
21
-145.947
0
LINE
8
BLACK
6
CONTINUOUS
10
172.315
20
-145.947
11
171.449
21
-145.447
0
LINE
8
BLACK
6
CONTINUOUS
10
171.449
20
-145.447
11
171.429
21
-145.43
0
LINE
8
BLACK
6
CONTINUOUS
10
171.429
20
-145.43
11
171.411
21
-145.382
0
LINE
8
BLACK
6
CONTINUOUS
10
171.411
20
-145.382
11
171.429
21
-145.334
0
LINE
8
BLACK
6
CONTINUOUS
10
171.429
20
-145.334
11
171.473
21
-145.308
0
LINE
8
BLACK
6
CONTINUOUS
10
171.473
20
-145.308
11
171.524
21
-145.317
0
LINE
8
BLACK
6
CONTINUOUS
10
171.524
20
-145.317
11
172.325
21
-145.78
0
LINE
8
BLACK
6
CONTINUOUS
10
172.325
20
-145.78
11
172.787
21
-144.979
0
LINE
8
BLACK
6
CONTINUOUS
10
172.787
20
-144.979
11
172.804
21
-144.959
0
LINE
8
BLACK
6
CONTINUOUS
10
172.804
20
-144.959
11
172.852
21
-144.941
0
LINE
8
BLACK
6
CONTINUOUS
10
160.728
20
-137.941
11
160.776
21
-137.959
0
LINE
8
BLACK
6
CONTINUOUS
10
160.776
20
-137.959
11
160.802
21
-138.003
0
LINE
8
BLACK
6
CONTINUOUS
10
160.802
20
-138.003
11
160.793
21
-138.054
0
LINE
8
BLACK
6
CONTINUOUS
10
160.793
20
-138.054
11
160.33
21
-138.855
0
LINE
8
BLACK
6
CONTINUOUS
10
160.33
20
-138.855
11
161.131
21
-139.317
0
LINE
8
BLACK
6
CONTINUOUS
10
161.131
20
-139.317
11
161.151
21
-139.334
0
LINE
8
BLACK
6
CONTINUOUS
10
161.151
20
-139.334
11
161.169
21
-139.382
0
LINE
8
BLACK
6
CONTINUOUS
10
161.169
20
-139.382
11
161.151
21
-139.43
0
LINE
8
BLACK
6
CONTINUOUS
10
161.151
20
-139.43
11
161.107
21
-139.456
0
LINE
8
BLACK
6
CONTINUOUS
10
161.107
20
-139.456
11
161.056
21
-139.447
0
LINE
8
BLACK
6
CONTINUOUS
10
161.056
20
-139.447
11
160.19
21
-138.947
0
LINE
8
BLACK
6
CONTINUOUS
10
160.19
20
-138.947
11
160.183
21
-138.941
0
LINE
8
BLACK
6
CONTINUOUS
10
160.183
20
-138.941
11
160.18
21
-138.94
0
LINE
8
BLACK
6
CONTINUOUS
10
160.18
20
-138.94
11
160.178
21
-138.937
0
LINE
8
BLACK
6
CONTINUOUS
10
160.178
20
-138.937
11
160.17
21
-138.93
0
LINE
8
BLACK
6
CONTINUOUS
10
160.17
20
-138.93
11
160.164
21
-138.912
0
LINE
8
BLACK
6
CONTINUOUS
10
160.164
20
-138.912
11
160.154
21
-138.895
0
LINE
8
BLACK
6
CONTINUOUS
10
160.154
20
-138.895
11
160.155
21
-138.889
0
LINE
8
BLACK
6
CONTINUOUS
10
160.155
20
-138.889
11
160.153
21
-138.882
0
LINE
8
BLACK
6
CONTINUOUS
10
160.153
20
-138.882
11
160.159
21
-138.864
0
LINE
8
BLACK
6
CONTINUOUS
10
160.159
20
-138.864
11
160.163
21
-138.845
0
LINE
8
BLACK
6
CONTINUOUS
10
160.163
20
-138.845
11
160.663
21
-137.979
0
LINE
8
BLACK
6
CONTINUOUS
10
160.663
20
-137.979
11
160.68
21
-137.959
0
LINE
8
BLACK
6
CONTINUOUS
10
160.68
20
-137.959
11
160.728
21
-137.941
0
LINE
8
BLACK
6
CONTINUOUS
10
155.816
20
-135.609
11
155.866
21
-135.618
0
LINE
8
BLACK
6
CONTINUOUS
10
155.866
20
-135.618
11
155.899
21
-135.657
0
LINE
8
BLACK
6
CONTINUOUS
10
155.899
20
-135.657
11
155.899
21
-135.708
0
LINE
8
BLACK
6
CONTINUOUS
10
155.899
20
-135.708
11
155.557
21
-136.648
0
LINE
8
BLACK
6
CONTINUOUS
10
155.557
20
-136.648
11
155.552
21
-136.657
0
LINE
8
BLACK
6
CONTINUOUS
10
155.552
20
-136.657
11
155.552
21
-136.66
0
LINE
8
BLACK
6
CONTINUOUS
10
155.552
20
-136.66
11
155.549
21
-136.662
0
LINE
8
BLACK
6
CONTINUOUS
10
155.549
20
-136.662
11
155.544
21
-136.671
0
LINE
8
BLACK
6
CONTINUOUS
10
155.544
20
-136.671
11
155.527
21
-136.68
0
LINE
8
BLACK
6
CONTINUOUS
10
155.527
20
-136.68
11
155.512
21
-136.693
0
LINE
8
BLACK
6
CONTINUOUS
10
155.512
20
-136.693
11
155.506
21
-136.693
0
LINE
8
BLACK
6
CONTINUOUS
10
155.506
20
-136.693
11
155.5
21
-136.696
0
LINE
8
BLACK
6
CONTINUOUS
10
155.5
20
-136.696
11
155.481
21
-136.693
0
LINE
8
BLACK
6
CONTINUOUS
10
155.481
20
-136.693
11
155.461
21
-136.693
0
LINE
8
BLACK
6
CONTINUOUS
10
155.461
20
-136.693
11
154.521
21
-136.351
0
LINE
8
BLACK
6
CONTINUOUS
10
154.521
20
-136.351
11
154.499
21
-136.338
0
LINE
8
BLACK
6
CONTINUOUS
10
154.499
20
-136.338
11
154.473
21
-136.294
0
LINE
8
BLACK
6
CONTINUOUS
10
154.473
20
-136.294
11
154.482
21
-136.243
0
LINE
8
BLACK
6
CONTINUOUS
10
154.482
20
-136.243
11
154.521
21
-136.21
0
LINE
8
BLACK
6
CONTINUOUS
10
154.521
20
-136.21
11
154.573
21
-136.21
0
LINE
8
BLACK
6
CONTINUOUS
10
154.573
20
-136.21
11
155.442
21
-136.526
0
LINE
8
BLACK
6
CONTINUOUS
10
155.442
20
-136.526
11
155.758
21
-135.657
0
LINE
8
BLACK
6
CONTINUOUS
10
155.758
20
-135.657
11
155.771
21
-135.635
0
LINE
8
BLACK
6
CONTINUOUS
10
155.771
20
-135.635
11
155.816
21
-135.609
0
LINE
8
BLACK
6
CONTINUOUS
10
178.473
20
-133.184
11
178.524
21
-133.193
0
LINE
8
BLACK
6
CONTINUOUS
10
178.524
20
-133.193
11
179.39
21
-133.693
0
LINE
8
BLACK
6
CONTINUOUS
10
179.39
20
-133.693
11
179.397
21
-133.699
0
LINE
8
BLACK
6
CONTINUOUS
10
179.397
20
-133.699
11
179.4
21
-133.7
0
LINE
8
BLACK
6
CONTINUOUS
10
179.4
20
-133.7
11
179.402
21
-133.703
0
LINE
8
BLACK
6
CONTINUOUS
10
179.402
20
-133.703
11
179.41
21
-133.71
0
LINE
8
BLACK
6
CONTINUOUS
10
179.41
20
-133.71
11
179.416
21
-133.728
0
LINE
8
BLACK
6
CONTINUOUS
10
179.416
20
-133.728
11
179.426
21
-133.745
0
LINE
8
BLACK
6
CONTINUOUS
10
179.426
20
-133.745
11
179.425
21
-133.751
0
LINE
8
BLACK
6
CONTINUOUS
10
179.425
20
-133.751
11
179.427
21
-133.758
0
LINE
8
BLACK
6
CONTINUOUS
10
179.427
20
-133.758
11
179.421
21
-133.776
0
LINE
8
BLACK
6
CONTINUOUS
10
179.421
20
-133.776
11
179.417
21
-133.795
0
LINE
8
BLACK
6
CONTINUOUS
10
179.417
20
-133.795
11
178.917
21
-134.661
0
LINE
8
BLACK
6
CONTINUOUS
10
178.917
20
-134.661
11
178.9
21
-134.681
0
LINE
8
BLACK
6
CONTINUOUS
10
178.9
20
-134.681
11
178.852
21
-134.699
0
LINE
8
BLACK
6
CONTINUOUS
10
178.852
20
-134.699
11
178.804
21
-134.681
0
LINE
8
BLACK
6
CONTINUOUS
10
178.804
20
-134.681
11
178.778
21
-134.637
0
LINE
8
BLACK
6
CONTINUOUS
10
178.778
20
-134.637
11
178.787
21
-134.586
0
LINE
8
BLACK
6
CONTINUOUS
10
178.787
20
-134.586
11
179.25
21
-133.785
0
LINE
8
BLACK
6
CONTINUOUS
10
179.25
20
-133.785
11
178.449
21
-133.323
0
LINE
8
BLACK
6
CONTINUOUS
10
178.449
20
-133.323
11
178.429
21
-133.306
0
LINE
8
BLACK
6
CONTINUOUS
10
178.429
20
-133.306
11
178.411
21
-133.258
0
LINE
8
BLACK
6
CONTINUOUS
10
178.411
20
-133.258
11
178.429
21
-133.21
0
LINE
8
BLACK
6
CONTINUOUS
10
178.429
20
-133.21
11
178.473
21
-133.184
0
LINE
8
BLACK
6
CONTINUOUS
10
142.66
20
-130.821
11
142.711
21
-130.83
0
LINE
8
BLACK
6
CONTINUOUS
10
142.711
20
-130.83
11
142.743
21
-130.869
0
LINE
8
BLACK
6
CONTINUOUS
10
142.743
20
-130.869
11
142.743
21
-130.92
0
LINE
8
BLACK
6
CONTINUOUS
10
142.743
20
-130.92
11
142.427
21
-131.789
0
LINE
8
BLACK
6
CONTINUOUS
10
142.427
20
-131.789
11
143.296
21
-132.106
0
LINE
8
BLACK
6
CONTINUOUS
10
143.296
20
-132.106
11
143.319
21
-132.119
0
LINE
8
BLACK
6
CONTINUOUS
10
143.319
20
-132.119
11
143.345
21
-132.163
0
LINE
8
BLACK
6
CONTINUOUS
10
143.345
20
-132.163
11
143.336
21
-132.214
0
LINE
8
BLACK
6
CONTINUOUS
10
143.336
20
-132.214
11
143.296
21
-132.247
0
LINE
8
BLACK
6
CONTINUOUS
10
143.296
20
-132.247
11
143.245
21
-132.247
0
LINE
8
BLACK
6
CONTINUOUS
10
143.245
20
-132.247
11
142.305
21
-131.905
0
LINE
8
BLACK
6
CONTINUOUS
10
142.305
20
-131.905
11
142.297
21
-131.9
0
LINE
8
BLACK
6
CONTINUOUS
10
142.297
20
-131.9
11
142.293
21
-131.899
0
LINE
8
BLACK
6
CONTINUOUS
10
142.293
20
-131.899
11
142.291
21
-131.897
0
LINE
8
BLACK
6
CONTINUOUS
10
142.291
20
-131.897
11
142.283
21
-131.892
0
LINE
8
BLACK
6
CONTINUOUS
10
142.283
20
-131.892
11
142.273
21
-131.875
0
LINE
8
BLACK
6
CONTINUOUS
10
142.273
20
-131.875
11
142.261
21
-131.86
0
LINE
8
BLACK
6
CONTINUOUS
10
142.261
20
-131.86
11
142.261
21
-131.853
0
LINE
8
BLACK
6
CONTINUOUS
10
142.261
20
-131.853
11
142.257
21
-131.847
0
LINE
8
BLACK
6
CONTINUOUS
10
142.257
20
-131.847
11
142.261
21
-131.828
0
LINE
8
BLACK
6
CONTINUOUS
10
142.261
20
-131.828
11
142.261
21
-131.809
0
LINE
8
BLACK
6
CONTINUOUS
10
142.261
20
-131.809
11
142.603
21
-130.869
0
LINE
8
BLACK
6
CONTINUOUS
10
142.603
20
-130.869
11
142.616
21
-130.846
0
LINE
8
BLACK
6
CONTINUOUS
10
142.616
20
-130.846
11
142.66
21
-130.821
0
LINE
8
BLACK
6
CONTINUOUS
10
137.401
20
-129.357
11
137.41
21
-129.408
0
LINE
8
BLACK
6
CONTINUOUS
10
137.41
20
-129.408
11
137.236
21
-130.393
0
LINE
8
BLACK
6
CONTINUOUS
10
137.236
20
-130.393
11
137.233
21
-130.402
0
LINE
8
BLACK
6
CONTINUOUS
10
137.233
20
-130.402
11
137.233
21
-130.405
0
LINE
8
BLACK
6
CONTINUOUS
10
137.233
20
-130.405
11
137.231
21
-130.408
0
LINE
8
BLACK
6
CONTINUOUS
10
137.231
20
-130.408
11
137.227
21
-130.417
0
LINE
8
BLACK
6
CONTINUOUS
10
137.227
20
-130.417
11
137.212
21
-130.43
0
LINE
8
BLACK
6
CONTINUOUS
10
137.212
20
-130.43
11
137.2
21
-130.445
0
LINE
8
BLACK
6
CONTINUOUS
10
137.2
20
-130.445
11
137.193
21
-130.446
0
LINE
8
BLACK
6
CONTINUOUS
10
137.193
20
-130.446
11
137.188
21
-130.45
0
LINE
8
BLACK
6
CONTINUOUS
10
137.188
20
-130.45
11
137.168
21
-130.45
0
LINE
8
BLACK
6
CONTINUOUS
10
137.168
20
-130.45
11
137.149
21
-130.454
0
LINE
8
BLACK
6
CONTINUOUS
10
137.149
20
-130.454
11
136.164
21
-130.28
0
LINE
8
BLACK
6
CONTINUOUS
10
136.164
20
-130.28
11
136.14
21
-130.271
0
LINE
8
BLACK
6
CONTINUOUS
10
136.14
20
-130.271
11
136.107
21
-130.232
0
LINE
8
BLACK
6
CONTINUOUS
10
136.107
20
-130.232
11
136.107
21
-130.18
0
LINE
8
BLACK
6
CONTINUOUS
10
136.107
20
-130.18
11
136.14
21
-130.141
0
LINE
8
BLACK
6
CONTINUOUS
10
136.14
20
-130.141
11
136.191
21
-130.132
0
LINE
8
BLACK
6
CONTINUOUS
10
136.191
20
-130.132
11
137.101
21
-130.293
0
LINE
8
BLACK
6
CONTINUOUS
10
137.101
20
-130.293
11
137.262
21
-129.382
0
LINE
8
BLACK
6
CONTINUOUS
10
137.262
20
-129.382
11
137.271
21
-129.357
0
LINE
8
BLACK
6
CONTINUOUS
10
137.271
20
-129.357
11
137.31
21
-129.324
0
LINE
8
BLACK
6
CONTINUOUS
10
137.31
20
-129.324
11
137.362
21
-129.324
0
LINE
8
BLACK
6
CONTINUOUS
10
137.362
20
-129.324
11
137.401
21
-129.357
0
LINE
8
BLACK
6
CONTINUOUS
10
123.614
20
-126.926
11
123.622
21
-126.977
0
LINE
8
BLACK
6
CONTINUOUS
10
123.622
20
-126.977
11
123.462
21
-127.888
0
LINE
8
BLACK
6
CONTINUOUS
10
123.462
20
-127.888
11
124.373
21
-128.048
0
LINE
8
BLACK
6
CONTINUOUS
10
124.373
20
-128.048
11
124.397
21
-128.057
0
LINE
8
BLACK
6
CONTINUOUS
10
124.397
20
-128.057
11
124.43
21
-128.097
0
LINE
8
BLACK
6
CONTINUOUS
10
124.43
20
-128.097
11
124.43
21
-128.148
0
LINE
8
BLACK
6
CONTINUOUS
10
124.43
20
-128.148
11
124.397
21
-128.187
0
LINE
8
BLACK
6
CONTINUOUS
10
124.397
20
-128.187
11
124.347
21
-128.196
0
LINE
8
BLACK
6
CONTINUOUS
10
124.347
20
-128.196
11
123.362
21
-128.022
0
LINE
8
BLACK
6
CONTINUOUS
10
123.362
20
-128.022
11
123.353
21
-128.019
0
LINE
8
BLACK
6
CONTINUOUS
10
123.353
20
-128.019
11
123.349
21
-128.019
0
LINE
8
BLACK
6
CONTINUOUS
10
123.349
20
-128.019
11
123.347
21
-128.017
0
LINE
8
BLACK
6
CONTINUOUS
10
123.347
20
-128.017
11
123.337
21
-128.014
0
LINE
8
BLACK
6
CONTINUOUS
10
123.337
20
-128.014
11
123.325
21
-127.999
0
LINE
8
BLACK
6
CONTINUOUS
10
123.325
20
-127.999
11
123.31
21
-127.986
0
LINE
8
BLACK
6
CONTINUOUS
10
123.31
20
-127.986
11
123.309
21
-127.979
0
LINE
8
BLACK
6
CONTINUOUS
10
123.309
20
-127.979
11
123.305
21
-127.974
0
LINE
8
BLACK
6
CONTINUOUS
10
123.305
20
-127.974
11
123.305
21
-127.955
0
LINE
8
BLACK
6
CONTINUOUS
10
123.305
20
-127.955
11
123.301
21
-127.936
0
LINE
8
BLACK
6
CONTINUOUS
10
123.301
20
-127.936
11
123.475
21
-126.951
0
LINE
8
BLACK
6
CONTINUOUS
10
123.475
20
-126.951
11
123.484
21
-126.926
0
LINE
8
BLACK
6
CONTINUOUS
10
123.484
20
-126.926
11
123.523
21
-126.893
0
LINE
8
BLACK
6
CONTINUOUS
10
123.523
20
-126.893
11
123.574
21
-126.893
0
LINE
8
BLACK
6
CONTINUOUS
10
123.574
20
-126.893
11
123.614
21
-126.926
0
LINE
8
BLACK
6
CONTINUOUS
10
167.228
20
-126.683
11
167.246
21
-126.689
0
LINE
8
BLACK
6
CONTINUOUS
10
167.246
20
-126.689
11
167.265
21
-126.693
0
LINE
8
BLACK
6
CONTINUOUS
10
167.265
20
-126.693
11
168.131
21
-127.193
0
LINE
8
BLACK
6
CONTINUOUS
10
168.131
20
-127.193
11
168.151
21
-127.21
0
LINE
8
BLACK
6
CONTINUOUS
10
168.151
20
-127.21
11
168.169
21
-127.258
0
LINE
8
BLACK
6
CONTINUOUS
10
168.169
20
-127.258
11
168.151
21
-127.306
0
LINE
8
BLACK
6
CONTINUOUS
10
168.151
20
-127.306
11
168.107
21
-127.332
0
LINE
8
BLACK
6
CONTINUOUS
10
168.107
20
-127.332
11
168.056
21
-127.323
0
LINE
8
BLACK
6
CONTINUOUS
10
168.056
20
-127.323
11
167.255
21
-126.86
0
LINE
8
BLACK
6
CONTINUOUS
10
167.255
20
-126.86
11
166.793
21
-127.661
0
LINE
8
BLACK
6
CONTINUOUS
10
166.793
20
-127.661
11
166.776
21
-127.681
0
LINE
8
BLACK
6
CONTINUOUS
10
166.776
20
-127.681
11
166.728
21
-127.699
0
LINE
8
BLACK
6
CONTINUOUS
10
166.728
20
-127.699
11
166.68
21
-127.681
0
LINE
8
BLACK
6
CONTINUOUS
10
166.68
20
-127.681
11
166.654
21
-127.637
0
LINE
8
BLACK
6
CONTINUOUS
10
166.654
20
-127.637
11
166.663
21
-127.586
0
LINE
8
BLACK
6
CONTINUOUS
10
166.663
20
-127.586
11
167.163
21
-126.72
0
LINE
8
BLACK
6
CONTINUOUS
10
167.163
20
-126.72
11
167.169
21
-126.713
0
LINE
8
BLACK
6
CONTINUOUS
10
167.169
20
-126.713
11
167.17
21
-126.71
0
LINE
8
BLACK
6
CONTINUOUS
10
167.17
20
-126.71
11
167.173
21
-126.708
0
LINE
8
BLACK
6
CONTINUOUS
10
167.173
20
-126.708
11
167.18
21
-126.7
0
LINE
8
BLACK
6
CONTINUOUS
10
167.18
20
-126.7
11
167.198
21
-126.694
0
LINE
8
BLACK
6
CONTINUOUS
10
167.198
20
-126.694
11
167.215
21
-126.684
0
LINE
8
BLACK
6
CONTINUOUS
10
167.215
20
-126.684
11
167.221
21
-126.685
0
LINE
8
BLACK
6
CONTINUOUS
10
167.221
20
-126.685
11
167.228
21
-126.683
0
LINE
8
BLACK
6
CONTINUOUS
10
160.301
20
-123.396
11
160.309
21
-123.401
0
LINE
8
BLACK
6
CONTINUOUS
10
160.309
20
-123.401
11
160.312
21
-123.402
0
LINE
8
BLACK
6
CONTINUOUS
10
160.312
20
-123.402
11
160.315
21
-123.404
0
LINE
8
BLACK
6
CONTINUOUS
10
160.315
20
-123.404
11
160.323
21
-123.409
0
LINE
8
BLACK
6
CONTINUOUS
10
160.323
20
-123.409
11
160.333
21
-123.426
0
LINE
8
BLACK
6
CONTINUOUS
10
160.333
20
-123.426
11
160.345
21
-123.441
0
LINE
8
BLACK
6
CONTINUOUS
10
160.345
20
-123.441
11
160.345
21
-123.448
0
LINE
8
BLACK
6
CONTINUOUS
10
160.345
20
-123.448
11
160.349
21
-123.454
0
LINE
8
BLACK
6
CONTINUOUS
10
160.349
20
-123.454
11
160.345
21
-123.473
0
LINE
8
BLACK
6
CONTINUOUS
10
160.345
20
-123.473
11
160.345
21
-123.492
0
LINE
8
BLACK
6
CONTINUOUS
10
160.345
20
-123.492
11
160.003
21
-124.432
0
LINE
8
BLACK
6
CONTINUOUS
10
160.003
20
-124.432
11
159.99
21
-124.455
0
LINE
8
BLACK
6
CONTINUOUS
10
159.99
20
-124.455
11
159.946
21
-124.48
0
LINE
8
BLACK
6
CONTINUOUS
10
159.946
20
-124.48
11
159.895
21
-124.471
0
LINE
8
BLACK
6
CONTINUOUS
10
159.895
20
-124.471
11
159.862
21
-124.432
0
LINE
8
BLACK
6
CONTINUOUS
10
159.862
20
-124.432
11
159.862
21
-124.381
0
LINE
8
BLACK
6
CONTINUOUS
10
159.862
20
-124.381
11
160.179
21
-123.512
0
LINE
8
BLACK
6
CONTINUOUS
10
160.179
20
-123.512
11
159.31
21
-123.195
0
LINE
8
BLACK
6
CONTINUOUS
10
159.31
20
-123.195
11
159.287
21
-123.182
0
LINE
8
BLACK
6
CONTINUOUS
10
159.287
20
-123.182
11
159.261
21
-123.138
0
LINE
8
BLACK
6
CONTINUOUS
10
159.261
20
-123.138
11
159.27
21
-123.087
0
LINE
8
BLACK
6
CONTINUOUS
10
159.27
20
-123.087
11
159.31
21
-123.054
0
LINE
8
BLACK
6
CONTINUOUS
10
159.31
20
-123.054
11
159.361
21
-123.054
0
LINE
8
BLACK
6
CONTINUOUS
10
159.361
20
-123.054
11
160.301
21
-123.396
0
LINE
8
BLACK
6
CONTINUOUS
10
41.883
20
-119.592
11
41.9275
21
-119.617
0
LINE
8
BLACK
6
CONTINUOUS
10
41.9275
20
-119.617
11
41.945
21
-119.665
0
LINE
8
BLACK
6
CONTINUOUS
10
41.945
20
-119.665
11
41.945
21
-120.59
0
LINE
8
BLACK
6
CONTINUOUS
10
41.945
20
-120.59
11
42.87
21
-120.59
0
LINE
8
BLACK
6
CONTINUOUS
10
42.87
20
-120.59
11
42.8957
21
-120.595
0
LINE
8
BLACK
6
CONTINUOUS
10
42.8957
20
-120.595
11
42.935
21
-120.628
0
LINE
8
BLACK
6
CONTINUOUS
10
42.935
20
-120.628
11
42.9439
21
-120.678
0
LINE
8
BLACK
6
CONTINUOUS
10
42.9439
20
-120.678
11
42.9182
21
-120.723
0
LINE
8
BLACK
6
CONTINUOUS
10
42.9182
20
-120.723
11
42.87
21
-120.74
0
LINE
8
BLACK
6
CONTINUOUS
10
42.87
20
-120.74
11
41.87
21
-120.74
0
LINE
8
BLACK
6
CONTINUOUS
10
41.87
20
-120.74
11
41.8603
21
-120.739
0
LINE
8
BLACK
6
CONTINUOUS
10
41.8603
20
-120.739
11
41.857
21
-120.739
0
LINE
8
BLACK
6
CONTINUOUS
10
41.857
20
-120.739
11
41.8541
21
-120.738
0
LINE
8
BLACK
6
CONTINUOUS
10
41.8541
20
-120.738
11
41.8443
21
-120.736
0
LINE
8
BLACK
6
CONTINUOUS
10
41.8443
20
-120.736
11
41.8294
21
-120.723
0
LINE
8
BLACK
6
CONTINUOUS
10
41.8294
20
-120.723
11
41.8125
21
-120.714
0
LINE
8
BLACK
6
CONTINUOUS
10
41.8125
20
-120.714
11
41.8102
21
-120.707
0
LINE
8
BLACK
6
CONTINUOUS
10
41.8102
20
-120.707
11
41.805
21
-120.703
0
LINE
8
BLACK
6
CONTINUOUS
10
41.805
20
-120.703
11
41.8017
21
-120.684
0
LINE
8
BLACK
6
CONTINUOUS
10
41.8017
20
-120.684
11
41.795
21
-120.665
0
LINE
8
BLACK
6
CONTINUOUS
10
41.795
20
-120.665
11
41.795
21
-119.665
0
LINE
8
BLACK
6
CONTINUOUS
10
41.795
20
-119.665
11
41.7995
21
-119.64
0
LINE
8
BLACK
6
CONTINUOUS
10
41.7995
20
-119.64
11
41.8325
21
-119.6
0
LINE
8
BLACK
6
CONTINUOUS
10
41.8325
20
-119.6
11
41.883
21
-119.592
0
LINE
8
BLACK
6
CONTINUOUS
10
55.883
20
-119.592
11
55.9275
21
-119.617
0
LINE
8
BLACK
6
CONTINUOUS
10
55.9275
20
-119.617
11
55.945
21
-119.665
0
LINE
8
BLACK
6
CONTINUOUS
10
55.945
20
-119.665
11
55.945
21
-120.665
0
LINE
8
BLACK
6
CONTINUOUS
10
55.945
20
-120.665
11
55.9433
21
-120.675
0
LINE
8
BLACK
6
CONTINUOUS
10
55.9433
20
-120.675
11
55.9439
21
-120.678
0
LINE
8
BLACK
6
CONTINUOUS
10
55.9439
20
-120.678
11
55.9422
21
-120.681
0
LINE
8
BLACK
6
CONTINUOUS
10
55.9422
20
-120.681
11
55.9405
21
-120.691
0
LINE
8
BLACK
6
CONTINUOUS
10
55.9405
20
-120.691
11
55.928
21
-120.706
0
LINE
8
BLACK
6
CONTINUOUS
10
55.928
20
-120.706
11
55.9182
21
-120.723
0
LINE
8
BLACK
6
CONTINUOUS
10
55.9182
20
-120.723
11
55.9118
21
-120.725
0
LINE
8
BLACK
6
CONTINUOUS
10
55.9118
20
-120.725
11
55.9075
21
-120.73
0
LINE
8
BLACK
6
CONTINUOUS
10
55.9075
20
-120.73
11
55.8883
21
-120.734
0
LINE
8
BLACK
6
CONTINUOUS
10
55.8883
20
-120.734
11
55.87
21
-120.74
0
LINE
8
BLACK
6
CONTINUOUS
10
55.87
20
-120.74
11
54.87
21
-120.74
0
LINE
8
BLACK
6
CONTINUOUS
10
54.87
20
-120.74
11
54.8443
21
-120.736
0
LINE
8
BLACK
6
CONTINUOUS
10
54.8443
20
-120.736
11
54.805
21
-120.703
0
LINE
8
BLACK
6
CONTINUOUS
10
54.805
20
-120.703
11
54.7961
21
-120.652
0
LINE
8
BLACK
6
CONTINUOUS
10
54.7961
20
-120.652
11
54.8218
21
-120.608
0
LINE
8
BLACK
6
CONTINUOUS
10
54.8218
20
-120.608
11
54.87
21
-120.59
0
LINE
8
BLACK
6
CONTINUOUS
10
54.87
20
-120.59
11
55.795
21
-120.59
0
LINE
8
BLACK
6
CONTINUOUS
10
55.795
20
-120.59
11
55.795
21
-119.665
0
LINE
8
BLACK
6
CONTINUOUS
10
55.795
20
-119.665
11
55.7995
21
-119.64
0
LINE
8
BLACK
6
CONTINUOUS
10
55.7995
20
-119.64
11
55.8325
21
-119.6
0
LINE
8
BLACK
6
CONTINUOUS
10
55.8325
20
-119.6
11
55.883
21
-119.592
0
LINE
8
BLACK
6
CONTINUOUS
10
147.106
20
-118.605
11
147.125
21
-118.608
0
LINE
8
BLACK
6
CONTINUOUS
10
147.125
20
-118.608
11
147.145
21
-118.608
0
LINE
8
BLACK
6
CONTINUOUS
10
147.145
20
-118.608
11
148.085
21
-118.95
0
LINE
8
BLACK
6
CONTINUOUS
10
148.085
20
-118.95
11
148.107
21
-118.963
0
LINE
8
BLACK
6
CONTINUOUS
10
148.107
20
-118.963
11
148.133
21
-119.008
0
LINE
8
BLACK
6
CONTINUOUS
10
148.133
20
-119.008
11
148.124
21
-119.058
0
LINE
8
BLACK
6
CONTINUOUS
10
148.124
20
-119.058
11
148.085
21
-119.091
0
LINE
8
BLACK
6
CONTINUOUS
10
148.085
20
-119.091
11
148.033
21
-119.091
0
LINE
8
BLACK
6
CONTINUOUS
10
148.033
20
-119.091
11
147.164
21
-118.775
0
LINE
8
BLACK
6
CONTINUOUS
10
147.164
20
-118.775
11
146.848
21
-119.644
0
LINE
8
BLACK
6
CONTINUOUS
10
146.848
20
-119.644
11
146.835
21
-119.666
0
LINE
8
BLACK
6
CONTINUOUS
10
146.835
20
-119.666
11
146.79
21
-119.692
0
LINE
8
BLACK
6
CONTINUOUS
10
146.79
20
-119.692
11
146.74
21
-119.683
0
LINE
8
BLACK
6
CONTINUOUS
10
146.74
20
-119.683
11
146.707
21
-119.644
0
LINE
8
BLACK
6
CONTINUOUS
10
146.707
20
-119.644
11
146.707
21
-119.593
0
LINE
8
BLACK
6
CONTINUOUS
10
146.707
20
-119.593
11
147.049
21
-118.653
0
LINE
8
BLACK
6
CONTINUOUS
10
147.049
20
-118.653
11
147.054
21
-118.644
0
LINE
8
BLACK
6
CONTINUOUS
10
147.054
20
-118.644
11
147.054
21
-118.641
0
LINE
8
BLACK
6
CONTINUOUS
10
147.054
20
-118.641
11
147.057
21
-118.639
0
LINE
8
BLACK
6
CONTINUOUS
10
147.057
20
-118.639
11
147.062
21
-118.63
0
LINE
8
BLACK
6
CONTINUOUS
10
147.062
20
-118.63
11
147.079
21
-118.621
0
LINE
8
BLACK
6
CONTINUOUS
10
147.079
20
-118.621
11
147.094
21
-118.608
0
LINE
8
BLACK
6
CONTINUOUS
10
147.094
20
-118.608
11
147.1
21
-118.608
0
LINE
8
BLACK
6
CONTINUOUS
10
147.1
20
-118.608
11
147.106
21
-118.605
0
LINE
8
BLACK
6
CONTINUOUS
10
59.701
20
-119.044
11
59.7403
21
-119.076
0
LINE
8
BLACK
6
CONTINUOUS
10
59.7403
20
-119.076
11
59.7492
21
-119.127
0
LINE
8
BLACK
6
CONTINUOUS
10
59.7492
20
-119.127
11
59.7235
21
-119.171
0
LINE
8
BLACK
6
CONTINUOUS
10
59.7235
20
-119.171
11
59.6753
21
-119.189
0
LINE
8
BLACK
6
CONTINUOUS
10
59.6753
20
-119.189
11
58.4847
21
-119.189
0
LINE
8
BLACK
6
CONTINUOUS
10
58.4847
20
-119.189
11
58.459
21
-119.184
0
LINE
8
BLACK
6
CONTINUOUS
10
58.459
20
-119.184
11
58.4197
21
-119.151
0
LINE
8
BLACK
6
CONTINUOUS
10
58.4197
20
-119.151
11
58.4108
21
-119.101
0
LINE
8
BLACK
6
CONTINUOUS
10
58.4108
20
-119.101
11
58.4365
21
-119.057
0
LINE
8
BLACK
6
CONTINUOUS
10
58.4365
20
-119.057
11
58.4847
21
-119.039
0
LINE
8
BLACK
6
CONTINUOUS
10
58.4847
20
-119.039
11
59.6753
21
-119.039
0
LINE
8
BLACK
6
CONTINUOUS
10
59.6753
20
-119.039
11
59.701
21
-119.044
0
LINE
8
BLACK
6
CONTINUOUS
10
59.691
20
-117.674
11
59.7303
21
-117.706
0
LINE
8
BLACK
6
CONTINUOUS
10
59.7303
20
-117.706
11
59.7392
21
-117.757
0
LINE
8
BLACK
6
CONTINUOUS
10
59.7392
20
-117.757
11
59.7135
21
-117.801
0
LINE
8
BLACK
6
CONTINUOUS
10
59.7135
20
-117.801
11
59.6653
21
-117.819
0
LINE
8
BLACK
6
CONTINUOUS
10
59.6653
20
-117.819
11
58.4747
21
-117.819
0
LINE
8
BLACK
6
CONTINUOUS
10
58.4747
20
-117.819
11
58.449
21
-117.814
0
LINE
8
BLACK
6
CONTINUOUS
10
58.449
20
-117.814
11
58.4097
21
-117.781
0
LINE
8
BLACK
6
CONTINUOUS
10
58.4097
20
-117.781
11
58.4008
21
-117.731
0
LINE
8
BLACK
6
CONTINUOUS
10
58.4008
20
-117.731
11
58.4265
21
-117.687
0
LINE
8
BLACK
6
CONTINUOUS
10
58.4265
20
-117.687
11
58.4747
21
-117.669
0
LINE
8
BLACK
6
CONTINUOUS
10
58.4747
20
-117.669
11
59.6653
21
-117.669
0
LINE
8
BLACK
6
CONTINUOUS
10
59.6653
20
-117.669
11
59.691
21
-117.674
0
LINE
8
BLACK
6
CONTINUOUS
10
138.622
20
-116.345
11
139.606
21
-116.519
0
LINE
8
BLACK
6
CONTINUOUS
10
139.606
20
-116.519
11
139.616
21
-116.522
0
LINE
8
BLACK
6
CONTINUOUS
10
139.616
20
-116.522
11
139.619
21
-116.522
0
LINE
8
BLACK
6
CONTINUOUS
10
139.619
20
-116.522
11
139.622
21
-116.524
0
LINE
8
BLACK
6
CONTINUOUS
10
139.622
20
-116.524
11
139.631
21
-116.527
0
LINE
8
BLACK
6
CONTINUOUS
10
139.631
20
-116.527
11
139.643
21
-116.542
0
LINE
8
BLACK
6
CONTINUOUS
10
139.643
20
-116.542
11
139.658
21
-116.555
0
LINE
8
BLACK
6
CONTINUOUS
10
139.658
20
-116.555
11
139.659
21
-116.562
0
LINE
8
BLACK
6
CONTINUOUS
10
139.659
20
-116.562
11
139.664
21
-116.567
0
LINE
8
BLACK
6
CONTINUOUS
10
139.664
20
-116.567
11
139.664
21
-116.586
0
LINE
8
BLACK
6
CONTINUOUS
10
139.664
20
-116.586
11
139.667
21
-116.605
0
LINE
8
BLACK
6
CONTINUOUS
10
139.667
20
-116.605
11
139.494
21
-117.59
0
LINE
8
BLACK
6
CONTINUOUS
10
139.494
20
-117.59
11
139.485
21
-117.615
0
LINE
8
BLACK
6
CONTINUOUS
10
139.485
20
-117.615
11
139.445
21
-117.648
0
LINE
8
BLACK
6
CONTINUOUS
10
139.445
20
-117.648
11
139.394
21
-117.648
0
LINE
8
BLACK
6
CONTINUOUS
10
139.394
20
-117.648
11
139.355
21
-117.615
0
LINE
8
BLACK
6
CONTINUOUS
10
139.355
20
-117.615
11
139.346
21
-117.564
0
LINE
8
BLACK
6
CONTINUOUS
10
139.346
20
-117.564
11
139.506
21
-116.653
0
LINE
8
BLACK
6
CONTINUOUS
10
139.506
20
-116.653
11
138.596
21
-116.493
0
LINE
8
BLACK
6
CONTINUOUS
10
138.596
20
-116.493
11
138.571
21
-116.484
0
LINE
8
BLACK
6
CONTINUOUS
10
138.571
20
-116.484
11
138.538
21
-116.444
0
LINE
8
BLACK
6
CONTINUOUS
10
138.538
20
-116.444
11
138.538
21
-116.393
0
LINE
8
BLACK
6
CONTINUOUS
10
138.538
20
-116.393
11
138.571
21
-116.354
0
LINE
8
BLACK
6
CONTINUOUS
10
138.571
20
-116.354
11
138.622
21
-116.345
0
LINE
8
BLACK
6
CONTINUOUS
10
62.383
20
-116.192
11
62.4275
21
-116.217
0
LINE
8
BLACK
6
CONTINUOUS
10
62.4275
20
-116.217
11
62.445
21
-116.265
0
LINE
8
BLACK
6
CONTINUOUS
10
62.445
20
-116.265
11
62.445
21
-117.19
0
LINE
8
BLACK
6
CONTINUOUS
10
62.445
20
-117.19
11
63.37
21
-117.19
0
LINE
8
BLACK
6
CONTINUOUS
10
63.37
20
-117.19
11
63.3957
21
-117.195
0
LINE
8
BLACK
6
CONTINUOUS
10
63.3957
20
-117.195
11
63.435
21
-117.228
0
LINE
8
BLACK
6
CONTINUOUS
10
63.435
20
-117.228
11
63.4439
21
-117.278
0
LINE
8
BLACK
6
CONTINUOUS
10
63.4439
20
-117.278
11
63.4182
21
-117.323
0
LINE
8
BLACK
6
CONTINUOUS
10
63.4182
20
-117.323
11
63.37
21
-117.34
0
LINE
8
BLACK
6
CONTINUOUS
10
63.37
20
-117.34
11
62.37
21
-117.34
0
LINE
8
BLACK
6
CONTINUOUS
10
62.37
20
-117.34
11
62.3603
21
-117.339
0
LINE
8
BLACK
6
CONTINUOUS
10
62.3603
20
-117.339
11
62.357
21
-117.339
0
LINE
8
BLACK
6
CONTINUOUS
10
62.357
20
-117.339
11
62.3541
21
-117.338
0
LINE
8
BLACK
6
CONTINUOUS
10
62.3541
20
-117.338
11
62.3443
21
-117.336
0
LINE
8
BLACK
6
CONTINUOUS
10
62.3443
20
-117.336
11
62.3294
21
-117.323
0
LINE
8
BLACK
6
CONTINUOUS
10
62.3294
20
-117.323
11
62.3125
21
-117.314
0
LINE
8
BLACK
6
CONTINUOUS
10
62.3125
20
-117.314
11
62.3102
21
-117.307
0
LINE
8
BLACK
6
CONTINUOUS
10
62.3102
20
-117.307
11
62.305
21
-117.303
0
LINE
8
BLACK
6
CONTINUOUS
10
62.305
20
-117.303
11
62.3017
21
-117.284
0
LINE
8
BLACK
6
CONTINUOUS
10
62.3017
20
-117.284
11
62.295
21
-117.265
0
LINE
8
BLACK
6
CONTINUOUS
10
62.295
20
-117.265
11
62.295
21
-116.265
0
LINE
8
BLACK
6
CONTINUOUS
10
62.295
20
-116.265
11
62.2995
21
-116.24
0
LINE
8
BLACK
6
CONTINUOUS
10
62.2995
20
-116.24
11
62.3325
21
-116.2
0
LINE
8
BLACK
6
CONTINUOUS
10
62.3325
20
-116.2
11
62.383
21
-116.192
0
LINE
8
BLACK
6
CONTINUOUS
10
76.383
20
-116.192
11
76.4275
21
-116.217
0
LINE
8
BLACK
6
CONTINUOUS
10
76.4275
20
-116.217
11
76.445
21
-116.265
0
LINE
8
BLACK
6
CONTINUOUS
10
76.445
20
-116.265
11
76.445
21
-117.265
0
LINE
8
BLACK
6
CONTINUOUS
10
76.445
20
-117.265
11
76.4433
21
-117.275
0
LINE
8
BLACK
6
CONTINUOUS
10
76.4433
20
-117.275
11
76.4439
21
-117.278
0
LINE
8
BLACK
6
CONTINUOUS
10
76.4439
20
-117.278
11
76.4422
21
-117.281
0
LINE
8
BLACK
6
CONTINUOUS
10
76.4422
20
-117.281
11
76.4405
21
-117.291
0
LINE
8
BLACK
6
CONTINUOUS
10
76.4405
20
-117.291
11
76.428
21
-117.306
0
LINE
8
BLACK
6
CONTINUOUS
10
76.428
20
-117.306
11
76.4182
21
-117.323
0
LINE
8
BLACK
6
CONTINUOUS
10
76.4182
20
-117.323
11
76.4119
21
-117.325
0
LINE
8
BLACK
6
CONTINUOUS
10
76.4119
20
-117.325
11
76.4075
21
-117.33
0
LINE
8
BLACK
6
CONTINUOUS
10
76.4075
20
-117.33
11
76.3883
21
-117.334
0
LINE
8
BLACK
6
CONTINUOUS
10
76.3883
20
-117.334
11
76.37
21
-117.34
0
LINE
8
BLACK
6
CONTINUOUS
10
76.37
20
-117.34
11
75.37
21
-117.34
0
LINE
8
BLACK
6
CONTINUOUS
10
75.37
20
-117.34
11
75.3443
21
-117.336
0
LINE
8
BLACK
6
CONTINUOUS
10
75.3443
20
-117.336
11
75.305
21
-117.303
0
LINE
8
BLACK
6
CONTINUOUS
10
75.305
20
-117.303
11
75.2961
21
-117.252
0
LINE
8
BLACK
6
CONTINUOUS
10
75.2961
20
-117.252
11
75.3218
21
-117.208
0
LINE
8
BLACK
6
CONTINUOUS
10
75.3218
20
-117.208
11
75.37
21
-117.19
0
LINE
8
BLACK
6
CONTINUOUS
10
75.37
20
-117.19
11
76.295
21
-117.19
0
LINE
8
BLACK
6
CONTINUOUS
10
76.295
20
-117.19
11
76.295
21
-116.265
0
LINE
8
BLACK
6
CONTINUOUS
10
76.295
20
-116.265
11
76.2995
21
-116.24
0
LINE
8
BLACK
6
CONTINUOUS
10
76.2995
20
-116.24
11
76.3325
21
-116.2
0
LINE
8
BLACK
6
CONTINUOUS
10
76.3325
20
-116.2
11
76.383
21
-116.192
0
LINE
8
BLACK
6
CONTINUOUS
10
59.691
20
-116.694
11
59.7303
21
-116.727
0
LINE
8
BLACK
6
CONTINUOUS
10
59.7303
20
-116.727
11
59.7392
21
-116.777
0
LINE
8
BLACK
6
CONTINUOUS
10
59.7392
20
-116.777
11
59.7135
21
-116.821
0
LINE
8
BLACK
6
CONTINUOUS
10
59.7135
20
-116.821
11
59.6653
21
-116.839
0
LINE
8
BLACK
6
CONTINUOUS
10
59.6653
20
-116.839
11
58.4747
21
-116.839
0
LINE
8
BLACK
6
CONTINUOUS
10
58.4747
20
-116.839
11
58.449
21
-116.834
0
LINE
8
BLACK
6
CONTINUOUS
10
58.449
20
-116.834
11
58.4097
21
-116.801
0
LINE
8
BLACK
6
CONTINUOUS
10
58.4097
20
-116.801
11
58.4008
21
-116.751
0
LINE
8
BLACK
6
CONTINUOUS
10
58.4008
20
-116.751
11
58.4265
21
-116.707
0
LINE
8
BLACK
6
CONTINUOUS
10
58.4265
20
-116.707
11
58.4747
21
-116.689
0
LINE
8
BLACK
6
CONTINUOUS
10
58.4747
20
-116.689
11
59.6653
21
-116.689
0
LINE
8
BLACK
6
CONTINUOUS
10
59.6653
20
-116.689
11
59.691
21
-116.694
0
LINE
8
BLACK
6
CONTINUOUS
10
59.711
20
-115.72
11
59.7503
21
-115.753
0
LINE
8
BLACK
6
CONTINUOUS
10
59.7503
20
-115.753
11
59.7592
21
-115.803
0
LINE
8
BLACK
6
CONTINUOUS
10
59.7592
20
-115.803
11
59.7335
21
-115.848
0
LINE
8
BLACK
6
CONTINUOUS
10
59.7335
20
-115.848
11
59.6853
21
-115.865
0
LINE
8
BLACK
6
CONTINUOUS
10
59.6853
20
-115.865
11
58.4947
21
-115.865
0
LINE
8
BLACK
6
CONTINUOUS
10
58.4947
20
-115.865
11
58.469
21
-115.861
0
LINE
8
BLACK
6
CONTINUOUS
10
58.469
20
-115.861
11
58.4297
21
-115.828
0
LINE
8
BLACK
6
CONTINUOUS
10
58.4297
20
-115.828
11
58.4208
21
-115.777
0
LINE
8
BLACK
6
CONTINUOUS
10
58.4208
20
-115.777
11
58.4465
21
-115.733
0
LINE
8
BLACK
6
CONTINUOUS
10
58.4465
20
-115.733
11
58.4947
21
-115.715
0
LINE
8
BLACK
6
CONTINUOUS
10
58.4947
20
-115.715
11
59.6853
21
-115.715
0
LINE
8
BLACK
6
CONTINUOUS
10
59.6853
20
-115.715
11
59.711
21
-115.72
0
LINE
8
BLACK
6
CONTINUOUS
10
125.819
20
-114.087
11
126.804
21
-114.261
0
LINE
8
BLACK
6
CONTINUOUS
10
126.804
20
-114.261
11
126.828
21
-114.27
0
LINE
8
BLACK
6
CONTINUOUS
10
126.828
20
-114.27
11
126.861
21
-114.309
0
LINE
8
BLACK
6
CONTINUOUS
10
126.861
20
-114.309
11
126.861
21
-114.361
0
LINE
8
BLACK
6
CONTINUOUS
10
126.861
20
-114.361
11
126.828
21
-114.4
0
LINE
8
BLACK
6
CONTINUOUS
10
126.828
20
-114.4
11
126.778
21
-114.409
0
LINE
8
BLACK
6
CONTINUOUS
10
126.778
20
-114.409
11
125.867
21
-114.248
0
LINE
8
BLACK
6
CONTINUOUS
10
125.867
20
-114.248
11
125.706
21
-115.159
0
LINE
8
BLACK
6
CONTINUOUS
10
125.706
20
-115.159
11
125.697
21
-115.184
0
LINE
8
BLACK
6
CONTINUOUS
10
125.697
20
-115.184
11
125.658
21
-115.217
0
LINE
8
BLACK
6
CONTINUOUS
10
125.658
20
-115.217
11
125.607
21
-115.217
0
LINE
8
BLACK
6
CONTINUOUS
10
125.607
20
-115.217
11
125.567
21
-115.184
0
LINE
8
BLACK
6
CONTINUOUS
10
125.567
20
-115.184
11
125.559
21
-115.133
0
LINE
8
BLACK
6
CONTINUOUS
10
125.559
20
-115.133
11
125.732
21
-114.148
0
LINE
8
BLACK
6
CONTINUOUS
10
125.732
20
-114.148
11
125.736
21
-114.139
0
LINE
8
BLACK
6
CONTINUOUS
10
125.736
20
-114.139
11
125.736
21
-114.136
0
LINE
8
BLACK
6
CONTINUOUS
10
125.736
20
-114.136
11
125.738
21
-114.133
0
LINE
8
BLACK
6
CONTINUOUS
10
125.738
20
-114.133
11
125.741
21
-114.124
0
LINE
8
BLACK
6
CONTINUOUS
10
125.741
20
-114.124
11
125.756
21
-114.111
0
LINE
8
BLACK
6
CONTINUOUS
10
125.756
20
-114.111
11
125.769
21
-114.096
0
LINE
8
BLACK
6
CONTINUOUS
10
125.769
20
-114.096
11
125.775
21
-114.095
0
LINE
8
BLACK
6
CONTINUOUS
10
125.775
20
-114.095
11
125.78
21
-114.091
0
LINE
8
BLACK
6
CONTINUOUS
10
125.78
20
-114.091
11
125.8
21
-114.091
0
LINE
8
BLACK
6
CONTINUOUS
10
125.8
20
-114.091
11
125.819
21
-114.087
0
LINE
8
BLACK
6
CONTINUOUS
10
59.721
20
-114.76
11
59.7603
21
-114.793
0
LINE
8
BLACK
6
CONTINUOUS
10
59.7603
20
-114.793
11
59.7692
21
-114.843
0
LINE
8
BLACK
6
CONTINUOUS
10
59.7692
20
-114.843
11
59.7435
21
-114.888
0
LINE
8
BLACK
6
CONTINUOUS
10
59.7435
20
-114.888
11
59.6953
21
-114.905
0
LINE
8
BLACK
6
CONTINUOUS
10
59.6953
20
-114.905
11
58.5047
21
-114.905
0
LINE
8
BLACK
6
CONTINUOUS
10
58.5047
20
-114.905
11
58.479
21
-114.901
0
LINE
8
BLACK
6
CONTINUOUS
10
58.479
20
-114.901
11
58.4397
21
-114.868
0
LINE
8
BLACK
6
CONTINUOUS
10
58.4397
20
-114.868
11
58.4308
21
-114.817
0
LINE
8
BLACK
6
CONTINUOUS
10
58.4308
20
-114.817
11
58.4565
21
-114.773
0
LINE
8
BLACK
6
CONTINUOUS
10
58.4565
20
-114.773
11
58.5047
21
-114.755
0
LINE
8
BLACK
6
CONTINUOUS
10
58.5047
20
-114.755
11
59.6953
21
-114.755
0
LINE
8
BLACK
6
CONTINUOUS
10
59.6953
20
-114.755
11
59.721
21
-114.76
0
LINE
8
BLACK
6
CONTINUOUS
10
59.721
20
-113.794
11
59.7603
21
-113.826
0
LINE
8
BLACK
6
CONTINUOUS
10
59.7603
20
-113.826
11
59.7692
21
-113.877
0
LINE
8
BLACK
6
CONTINUOUS
10
59.7692
20
-113.877
11
59.7435
21
-113.921
0
LINE
8
BLACK
6
CONTINUOUS
10
59.7435
20
-113.921
11
59.6953
21
-113.939
0
LINE
8
BLACK
6
CONTINUOUS
10
59.6953
20
-113.939
11
58.5047
21
-113.939
0
LINE
8
BLACK
6
CONTINUOUS
10
58.5047
20
-113.939
11
58.479
21
-113.934
0
LINE
8
BLACK
6
CONTINUOUS
10
58.479
20
-113.934
11
58.4397
21
-113.901
0
LINE
8
BLACK
6
CONTINUOUS
10
58.4397
20
-113.901
11
58.4308
21
-113.851
0
LINE
8
BLACK
6
CONTINUOUS
10
58.4308
20
-113.851
11
58.4565
21
-113.807
0
LINE
8
BLACK
6
CONTINUOUS
10
58.4565
20
-113.807
11
58.5047
21
-113.789
0
LINE
8
BLACK
6
CONTINUOUS
10
58.5047
20
-113.789
11
59.6953
21
-113.789
0
LINE
8
BLACK
6
CONTINUOUS
10
59.6953
20
-113.789
11
59.721
21
-113.794
0
LINE
8
BLACK
6
CONTINUOUS
10
134.383
20
-110.242
11
134.427
21
-110.267
0
LINE
8
BLACK
6
CONTINUOUS
10
134.427
20
-110.267
11
134.445
21
-110.315
0
LINE
8
BLACK
6
CONTINUOUS
10
134.445
20
-110.315
11
134.445
21
-111.24
0
LINE
8
BLACK
6
CONTINUOUS
10
134.445
20
-111.24
11
135.37
21
-111.24
0
LINE
8
BLACK
6
CONTINUOUS
10
135.37
20
-111.24
11
135.396
21
-111.245
0
LINE
8
BLACK
6
CONTINUOUS
10
135.396
20
-111.245
11
135.435
21
-111.278
0
LINE
8
BLACK
6
CONTINUOUS
10
135.435
20
-111.278
11
135.444
21
-111.328
0
LINE
8
BLACK
6
CONTINUOUS
10
135.444
20
-111.328
11
135.418
21
-111.373
0
LINE
8
BLACK
6
CONTINUOUS
10
135.418
20
-111.373
11
135.37
21
-111.39
0
LINE
8
BLACK
6
CONTINUOUS
10
135.37
20
-111.39
11
134.37
21
-111.39
0
LINE
8
BLACK
6
CONTINUOUS
10
134.37
20
-111.39
11
134.36
21
-111.389
0
LINE
8
BLACK
6
CONTINUOUS
10
134.36
20
-111.389
11
134.357
21
-111.389
0
LINE
8
BLACK
6
CONTINUOUS
10
134.357
20
-111.389
11
134.354
21
-111.388
0
LINE
8
BLACK
6
CONTINUOUS
10
134.354
20
-111.388
11
134.344
21
-111.386
0
LINE
8
BLACK
6
CONTINUOUS
10
134.344
20
-111.386
11
134.329
21
-111.373
0
LINE
8
BLACK
6
CONTINUOUS
10
134.329
20
-111.373
11
134.313
21
-111.364
0
LINE
8
BLACK
6
CONTINUOUS
10
134.313
20
-111.364
11
134.31
21
-111.357
0
LINE
8
BLACK
6
CONTINUOUS
10
134.31
20
-111.357
11
134.305
21
-111.353
0
LINE
8
BLACK
6
CONTINUOUS
10
134.305
20
-111.353
11
134.302
21
-111.334
0
LINE
8
BLACK
6
CONTINUOUS
10
134.302
20
-111.334
11
134.295
21
-111.315
0
LINE
8
BLACK
6
CONTINUOUS
10
134.295
20
-111.315
11
134.295
21
-110.315
0
LINE
8
BLACK
6
CONTINUOUS
10
134.295
20
-110.315
11
134.3
21
-110.29
0
LINE
8
BLACK
6
CONTINUOUS
10
134.3
20
-110.29
11
134.332
21
-110.25
0
LINE
8
BLACK
6
CONTINUOUS
10
134.332
20
-110.25
11
134.383
21
-110.242
0
LINE
8
BLACK
6
CONTINUOUS
10
148.383
20
-110.242
11
148.427
21
-110.267
0
LINE
8
BLACK
6
CONTINUOUS
10
148.427
20
-110.267
11
148.445
21
-110.315
0
LINE
8
BLACK
6
CONTINUOUS
10
148.445
20
-110.315
11
148.445
21
-111.315
0
LINE
8
BLACK
6
CONTINUOUS
10
148.445
20
-111.315
11
148.443
21
-111.325
0
LINE
8
BLACK
6
CONTINUOUS
10
148.443
20
-111.325
11
148.444
21
-111.328
0
LINE
8
BLACK
6
CONTINUOUS
10
148.444
20
-111.328
11
148.442
21
-111.331
0
LINE
8
BLACK
6
CONTINUOUS
10
148.442
20
-111.331
11
148.44
21
-111.341
0
LINE
8
BLACK
6
CONTINUOUS
10
148.44
20
-111.341
11
148.428
21
-111.356
0
LINE
8
BLACK
6
CONTINUOUS
10
148.428
20
-111.356
11
148.418
21
-111.373
0
LINE
8
BLACK
6
CONTINUOUS
10
148.418
20
-111.373
11
148.412
21
-111.375
0
LINE
8
BLACK
6
CONTINUOUS
10
148.412
20
-111.375
11
148.407
21
-111.38
0
LINE
8
BLACK
6
CONTINUOUS
10
148.407
20
-111.38
11
148.388
21
-111.384
0
LINE
8
BLACK
6
CONTINUOUS
10
148.388
20
-111.384
11
148.37
21
-111.39
0
LINE
8
BLACK
6
CONTINUOUS
10
148.37
20
-111.39
11
147.37
21
-111.39
0
LINE
8
BLACK
6
CONTINUOUS
10
147.37
20
-111.39
11
147.344
21
-111.386
0
LINE
8
BLACK
6
CONTINUOUS
10
147.344
20
-111.386
11
147.305
21
-111.353
0
LINE
8
BLACK
6
CONTINUOUS
10
147.305
20
-111.353
11
147.296
21
-111.302
0
LINE
8
BLACK
6
CONTINUOUS
10
147.296
20
-111.302
11
147.322
21
-111.258
0
LINE
8
BLACK
6
CONTINUOUS
10
147.322
20
-111.258
11
147.37
21
-111.24
0
LINE
8
BLACK
6
CONTINUOUS
10
147.37
20
-111.24
11
148.295
21
-111.24
0
LINE
8
BLACK
6
CONTINUOUS
10
148.295
20
-111.24
11
148.295
21
-110.315
0
LINE
8
BLACK
6
CONTINUOUS
10
148.295
20
-110.315
11
148.3
21
-110.29
0
LINE
8
BLACK
6
CONTINUOUS
10
148.3
20
-110.29
11
148.332
21
-110.25
0
LINE
8
BLACK
6
CONTINUOUS
10
148.332
20
-110.25
11
148.383
21
-110.242
0
LINE
8
BLACK
6
CONTINUOUS
10
116.383
20
-107.692
11
116.427
21
-107.717
0
LINE
8
BLACK
6
CONTINUOUS
10
116.427
20
-107.717
11
116.445
21
-107.765
0
LINE
8
BLACK
6
CONTINUOUS
10
116.445
20
-107.765
11
116.445
21
-108.69
0
LINE
8
BLACK
6
CONTINUOUS
10
116.445
20
-108.69
11
117.37
21
-108.69
0
LINE
8
BLACK
6
CONTINUOUS
10
117.37
20
-108.69
11
117.396
21
-108.695
0
LINE
8
BLACK
6
CONTINUOUS
10
117.396
20
-108.695
11
117.435
21
-108.728
0
LINE
8
BLACK
6
CONTINUOUS
10
117.435
20
-108.728
11
117.444
21
-108.778
0
LINE
8
BLACK
6
CONTINUOUS
10
117.444
20
-108.778
11
117.418
21
-108.823
0
LINE
8
BLACK
6
CONTINUOUS
10
117.418
20
-108.823
11
117.37
21
-108.84
0
LINE
8
BLACK
6
CONTINUOUS
10
117.37
20
-108.84
11
116.37
21
-108.84
0
LINE
8
BLACK
6
CONTINUOUS
10
116.37
20
-108.84
11
116.36
21
-108.839
0
LINE
8
BLACK
6
CONTINUOUS
10
116.36
20
-108.839
11
116.357
21
-108.839
0
LINE
8
BLACK
6
CONTINUOUS
10
116.357
20
-108.839
11
116.354
21
-108.838
0
LINE
8
BLACK
6
CONTINUOUS
10
116.354
20
-108.838
11
116.344
21
-108.836
0
LINE
8
BLACK
6
CONTINUOUS
10
116.344
20
-108.836
11
116.329
21
-108.823
0
LINE
8
BLACK
6
CONTINUOUS
10
116.329
20
-108.823
11
116.313
21
-108.814
0
LINE
8
BLACK
6
CONTINUOUS
10
116.313
20
-108.814
11
116.31
21
-108.807
0
LINE
8
BLACK
6
CONTINUOUS
10
116.31
20
-108.807
11
116.305
21
-108.803
0
LINE
8
BLACK
6
CONTINUOUS
10
116.305
20
-108.803
11
116.302
21
-108.784
0
LINE
8
BLACK
6
CONTINUOUS
10
116.302
20
-108.784
11
116.295
21
-108.765
0
LINE
8
BLACK
6
CONTINUOUS
10
116.295
20
-108.765
11
116.295
21
-107.765
0
LINE
8
BLACK
6
CONTINUOUS
10
116.295
20
-107.765
11
116.3
21
-107.74
0
LINE
8
BLACK
6
CONTINUOUS
10
116.3
20
-107.74
11
116.332
21
-107.7
0
LINE
8
BLACK
6
CONTINUOUS
10
116.332
20
-107.7
11
116.383
21
-107.692
0
LINE
8
BLACK
6
CONTINUOUS
10
130.383
20
-107.692
11
130.427
21
-107.717
0
LINE
8
BLACK
6
CONTINUOUS
10
130.427
20
-107.717
11
130.445
21
-107.765
0
LINE
8
BLACK
6
CONTINUOUS
10
130.445
20
-107.765
11
130.445
21
-108.765
0
LINE
8
BLACK
6
CONTINUOUS
10
130.445
20
-108.765
11
130.443
21
-108.775
0
LINE
8
BLACK
6
CONTINUOUS
10
130.443
20
-108.775
11
130.444
21
-108.778
0
LINE
8
BLACK
6
CONTINUOUS
10
130.444
20
-108.778
11
130.442
21
-108.781
0
LINE
8
BLACK
6
CONTINUOUS
10
130.442
20
-108.781
11
130.44
21
-108.791
0
LINE
8
BLACK
6
CONTINUOUS
10
130.44
20
-108.791
11
130.428
21
-108.806
0
LINE
8
BLACK
6
CONTINUOUS
10
130.428
20
-108.806
11
130.418
21
-108.823
0
LINE
8
BLACK
6
CONTINUOUS
10
130.418
20
-108.823
11
130.412
21
-108.825
0
LINE
8
BLACK
6
CONTINUOUS
10
130.412
20
-108.825
11
130.407
21
-108.83
0
LINE
8
BLACK
6
CONTINUOUS
10
130.407
20
-108.83
11
130.388
21
-108.834
0
LINE
8
BLACK
6
CONTINUOUS
10
130.388
20
-108.834
11
130.37
21
-108.84
0
LINE
8
BLACK
6
CONTINUOUS
10
130.37
20
-108.84
11
129.37
21
-108.84
0
LINE
8
BLACK
6
CONTINUOUS
10
129.37
20
-108.84
11
129.344
21
-108.836
0
LINE
8
BLACK
6
CONTINUOUS
10
129.344
20
-108.836
11
129.305
21
-108.803
0
LINE
8
BLACK
6
CONTINUOUS
10
129.305
20
-108.803
11
129.296
21
-108.752
0
LINE
8
BLACK
6
CONTINUOUS
10
129.296
20
-108.752
11
129.322
21
-108.708
0
LINE
8
BLACK
6
CONTINUOUS
10
129.322
20
-108.708
11
129.37
21
-108.69
0
LINE
8
BLACK
6
CONTINUOUS
10
129.37
20
-108.69
11
130.295
21
-108.69
0
LINE
8
BLACK
6
CONTINUOUS
10
130.295
20
-108.69
11
130.295
21
-107.765
0
LINE
8
BLACK
6
CONTINUOUS
10
130.295
20
-107.765
11
130.3
21
-107.74
0
LINE
8
BLACK
6
CONTINUOUS
10
130.3
20
-107.74
11
130.332
21
-107.7
0
LINE
8
BLACK
6
CONTINUOUS
10
130.332
20
-107.7
11
130.383
21
-107.692
0
LINE
8
BLACK
6
CONTINUOUS
10
42.8957
20
-106.595
11
42.935
21
-106.628
0
LINE
8
BLACK
6
CONTINUOUS
10
42.935
20
-106.628
11
42.9439
21
-106.678
0
LINE
8
BLACK
6
CONTINUOUS
10
42.9439
20
-106.678
11
42.9182
21
-106.723
0
LINE
8
BLACK
6
CONTINUOUS
10
42.9182
20
-106.723
11
42.87
21
-106.74
0
LINE
8
BLACK
6
CONTINUOUS
10
42.87
20
-106.74
11
41.945
21
-106.74
0
LINE
8
BLACK
6
CONTINUOUS
10
41.945
20
-106.74
11
41.945
21
-107.665
0
LINE
8
BLACK
6
CONTINUOUS
10
41.945
20
-107.665
11
41.9405
21
-107.691
0
LINE
8
BLACK
6
CONTINUOUS
10
41.9405
20
-107.691
11
41.9075
21
-107.73
0
LINE
8
BLACK
6
CONTINUOUS
10
41.9075
20
-107.73
11
41.857
21
-107.739
0
LINE
8
BLACK
6
CONTINUOUS
10
41.857
20
-107.739
11
41.8125
21
-107.714
0
LINE
8
BLACK
6
CONTINUOUS
10
41.8125
20
-107.714
11
41.795
21
-107.665
0
LINE
8
BLACK
6
CONTINUOUS
10
41.795
20
-107.665
11
41.795
21
-106.665
0
LINE
8
BLACK
6
CONTINUOUS
10
41.795
20
-106.665
11
41.7967
21
-106.656
0
LINE
8
BLACK
6
CONTINUOUS
10
41.7967
20
-106.656
11
41.7961
21
-106.652
0
LINE
8
BLACK
6
CONTINUOUS
10
41.7961
20
-106.652
11
41.7978
21
-106.649
0
LINE
8
BLACK
6
CONTINUOUS
10
41.7978
20
-106.649
11
41.7995
21
-106.64
0
LINE
8
BLACK
6
CONTINUOUS
10
41.7995
20
-106.64
11
41.812
21
-106.625
0
LINE
8
BLACK
6
CONTINUOUS
10
41.812
20
-106.625
11
41.8218
21
-106.608
0
LINE
8
BLACK
6
CONTINUOUS
10
41.8218
20
-106.608
11
41.8281
21
-106.606
0
LINE
8
BLACK
6
CONTINUOUS
10
41.8281
20
-106.606
11
41.8325
21
-106.6
0
LINE
8
BLACK
6
CONTINUOUS
10
41.8325
20
-106.6
11
41.8517
21
-106.597
0
LINE
8
BLACK
6
CONTINUOUS
10
41.8517
20
-106.597
11
41.87
21
-106.59
0
LINE
8
BLACK
6
CONTINUOUS
10
41.87
20
-106.59
11
42.87
21
-106.59
0
LINE
8
BLACK
6
CONTINUOUS
10
42.87
20
-106.59
11
42.8957
21
-106.595
0
LINE
8
BLACK
6
CONTINUOUS
10
55.8797
20
-106.592
11
55.883
21
-106.592
0
LINE
8
BLACK
6
CONTINUOUS
10
55.883
20
-106.592
11
55.8859
21
-106.593
0
LINE
8
BLACK
6
CONTINUOUS
10
55.8859
20
-106.593
11
55.8957
21
-106.595
0
LINE
8
BLACK
6
CONTINUOUS
10
55.8957
20
-106.595
11
55.9106
21
-106.607
0
LINE
8
BLACK
6
CONTINUOUS
10
55.9106
20
-106.607
11
55.9275
21
-106.617
0
LINE
8
BLACK
6
CONTINUOUS
10
55.9275
20
-106.617
11
55.9298
21
-106.624
0
LINE
8
BLACK
6
CONTINUOUS
10
55.9298
20
-106.624
11
55.935
21
-106.628
0
LINE
8
BLACK
6
CONTINUOUS
10
55.935
20
-106.628
11
55.9383
21
-106.647
0
LINE
8
BLACK
6
CONTINUOUS
10
55.9383
20
-106.647
11
55.945
21
-106.665
0
LINE
8
BLACK
6
CONTINUOUS
10
55.945
20
-106.665
11
55.945
21
-107.665
0
LINE
8
BLACK
6
CONTINUOUS
10
55.945
20
-107.665
11
55.9405
21
-107.691
0
LINE
8
BLACK
6
CONTINUOUS
10
55.9405
20
-107.691
11
55.9075
21
-107.73
0
LINE
8
BLACK
6
CONTINUOUS
10
55.9075
20
-107.73
11
55.857
21
-107.739
0
LINE
8
BLACK
6
CONTINUOUS
10
55.857
20
-107.739
11
55.8125
21
-107.714
0
LINE
8
BLACK
6
CONTINUOUS
10
55.8125
20
-107.714
11
55.795
21
-107.665
0
LINE
8
BLACK
6
CONTINUOUS
10
55.795
20
-107.665
11
55.795
21
-106.74
0
LINE
8
BLACK
6
CONTINUOUS
10
55.795
20
-106.74
11
54.87
21
-106.74
0
LINE
8
BLACK
6
CONTINUOUS
10
54.87
20
-106.74
11
54.8443
21
-106.736
0
LINE
8
BLACK
6
CONTINUOUS
10
54.8443
20
-106.736
11
54.805
21
-106.703
0
LINE
8
BLACK
6
CONTINUOUS
10
54.805
20
-106.703
11
54.7961
21
-106.652
0
LINE
8
BLACK
6
CONTINUOUS
10
54.7961
20
-106.652
11
54.8218
21
-106.608
0
LINE
8
BLACK
6
CONTINUOUS
10
54.8218
20
-106.608
11
54.87
21
-106.59
0
LINE
8
BLACK
6
CONTINUOUS
10
54.87
20
-106.59
11
55.87
21
-106.59
0
LINE
8
BLACK
6
CONTINUOUS
10
55.87
20
-106.59
11
55.8797
21
-106.592
0
LINE
8
BLACK
6
CONTINUOUS
10
173.972
20
-100.919
11
173.976
21
-100.919
0
LINE
8
BLACK
6
CONTINUOUS
10
173.976
20
-100.919
11
173.978
21
-100.92
0
LINE
8
BLACK
6
CONTINUOUS
10
173.978
20
-100.92
11
173.988
21
-100.922
0
LINE
8
BLACK
6
CONTINUOUS
10
173.988
20
-100.922
11
174.003
21
-100.935
0
LINE
8
BLACK
6
CONTINUOUS
10
174.003
20
-100.935
11
174.02
21
-100.944
0
LINE
8
BLACK
6
CONTINUOUS
10
174.02
20
-100.944
11
174.022
21
-100.951
0
LINE
8
BLACK
6
CONTINUOUS
10
174.022
20
-100.951
11
174.027
21
-100.955
0
LINE
8
BLACK
6
CONTINUOUS
10
174.027
20
-100.955
11
174.031
21
-100.974
0
LINE
8
BLACK
6
CONTINUOUS
10
174.031
20
-100.974
11
174.037
21
-100.992
0
LINE
8
BLACK
6
CONTINUOUS
10
174.037
20
-100.992
11
174.037
21
-101.167
0
LINE
8
BLACK
6
CONTINUOUS
10
174.037
20
-101.167
11
175.963
21
-101.167
0
LINE
8
BLACK
6
CONTINUOUS
10
175.963
20
-101.167
11
175.972
21
-101.169
0
LINE
8
BLACK
6
CONTINUOUS
10
175.972
20
-101.169
11
175.976
21
-101.169
0
LINE
8
BLACK
6
CONTINUOUS
10
175.976
20
-101.169
11
175.978
21
-101.17
0
LINE
8
BLACK
6
CONTINUOUS
10
175.978
20
-101.17
11
175.988
21
-101.172
0
LINE
8
BLACK
6
CONTINUOUS
10
175.988
20
-101.172
11
176.003
21
-101.185
0
LINE
8
BLACK
6
CONTINUOUS
10
176.003
20
-101.185
11
176.02
21
-101.194
0
LINE
8
BLACK
6
CONTINUOUS
10
176.02
20
-101.194
11
176.022
21
-101.201
0
LINE
8
BLACK
6
CONTINUOUS
10
176.022
20
-101.201
11
176.027
21
-101.205
0
LINE
8
BLACK
6
CONTINUOUS
10
176.027
20
-101.205
11
176.031
21
-101.224
0
LINE
8
BLACK
6
CONTINUOUS
10
176.031
20
-101.224
11
176.037
21
-101.242
0
LINE
8
BLACK
6
CONTINUOUS
10
176.037
20
-101.242
11
176.037
21
-106.843
0
LINE
8
BLACK
6
CONTINUOUS
10
176.037
20
-106.843
11
176.036
21
-106.852
0
LINE
8
BLACK
6
CONTINUOUS
10
176.036
20
-106.852
11
176.036
21
-106.856
0
LINE
8
BLACK
6
CONTINUOUS
10
176.036
20
-106.856
11
176.035
21
-106.858
0
LINE
8
BLACK
6
CONTINUOUS
10
176.035
20
-106.858
11
176.033
21
-106.868
0
LINE
8
BLACK
6
CONTINUOUS
10
176.033
20
-106.868
11
176.02
21
-106.883
0
LINE
8
BLACK
6
CONTINUOUS
10
176.02
20
-106.883
11
176.011
21
-106.9
0
LINE
8
BLACK
6
CONTINUOUS
10
176.011
20
-106.9
11
176.004
21
-106.902
0
LINE
8
BLACK
6
CONTINUOUS
10
176.004
20
-106.902
11
176
21
-106.907
0
LINE
8
BLACK
6
CONTINUOUS
10
176
20
-106.907
11
175.981
21
-106.911
0
LINE
8
BLACK
6
CONTINUOUS
10
175.981
20
-106.911
11
175.963
21
-106.917
0
LINE
8
BLACK
6
CONTINUOUS
10
175.963
20
-106.917
11
174.037
21
-106.917
0
LINE
8
BLACK
6
CONTINUOUS
10
174.037
20
-106.917
11
174.037
21
-107.093
0
LINE
8
BLACK
6
CONTINUOUS
10
174.037
20
-107.093
11
174.036
21
-107.102
0
LINE
8
BLACK
6
CONTINUOUS
10
174.036
20
-107.102
11
174.036
21
-107.106
0
LINE
8
BLACK
6
CONTINUOUS
10
174.036
20
-107.106
11
174.035
21
-107.108
0
LINE
8
BLACK
6
CONTINUOUS
10
174.035
20
-107.108
11
174.033
21
-107.118
0
LINE
8
BLACK
6
CONTINUOUS
10
174.033
20
-107.118
11
174.02
21
-107.133
0
LINE
8
BLACK
6
CONTINUOUS
10
174.02
20
-107.133
11
174.011
21
-107.15
0
LINE
8
BLACK
6
CONTINUOUS
10
174.011
20
-107.15
11
174.004
21
-107.152
0
LINE
8
BLACK
6
CONTINUOUS
10
174.004
20
-107.152
11
174
21
-107.157
0
LINE
8
BLACK
6
CONTINUOUS
10
174
20
-107.157
11
173.981
21
-107.161
0
LINE
8
BLACK
6
CONTINUOUS
10
173.981
20
-107.161
11
173.963
21
-107.167
0
LINE
8
BLACK
6
CONTINUOUS
10
173.963
20
-107.167
11
161.862
21
-107.167
0
LINE
8
BLACK
6
CONTINUOUS
10
161.862
20
-107.167
11
161.853
21
-107.166
0
LINE
8
BLACK
6
CONTINUOUS
10
161.853
20
-107.166
11
161.849
21
-107.166
0
LINE
8
BLACK
6
CONTINUOUS
10
161.849
20
-107.166
11
161.847
21
-107.165
0
LINE
8
BLACK
6
CONTINUOUS
10
161.847
20
-107.165
11
161.837
21
-107.163
0
LINE
8
BLACK
6
CONTINUOUS
10
161.837
20
-107.163
11
161.822
21
-107.15
0
LINE
8
BLACK
6
CONTINUOUS
10
161.822
20
-107.15
11
161.805
21
-107.141
0
LINE
8
BLACK
6
CONTINUOUS
10
161.805
20
-107.141
11
161.803
21
-107.134
0
LINE
8
BLACK
6
CONTINUOUS
10
161.803
20
-107.134
11
161.798
21
-107.13
0
LINE
8
BLACK
6
CONTINUOUS
10
161.798
20
-107.13
11
161.794
21
-107.111
0
LINE
8
BLACK
6
CONTINUOUS
10
161.794
20
-107.111
11
161.787
21
-107.093
0
LINE
8
BLACK
6
CONTINUOUS
10
161.787
20
-107.093
11
161.787
21
-100.992
0
LINE
8
BLACK
6
CONTINUOUS
10
161.787
20
-100.992
11
161.789
21
-100.983
0
LINE
8
BLACK
6
CONTINUOUS
10
161.789
20
-100.983
11
161.789
21
-100.979
0
LINE
8
BLACK
6
CONTINUOUS
10
161.789
20
-100.979
11
161.79
21
-100.977
0
LINE
8
BLACK
6
CONTINUOUS
10
161.79
20
-100.977
11
161.792
21
-100.967
0
LINE
8
BLACK
6
CONTINUOUS
10
161.792
20
-100.967
11
161.805
21
-100.952
0
LINE
8
BLACK
6
CONTINUOUS
10
161.805
20
-100.952
11
161.814
21
-100.935
0
LINE
8
BLACK
6
CONTINUOUS
10
161.814
20
-100.935
11
161.821
21
-100.933
0
LINE
8
BLACK
6
CONTINUOUS
10
161.821
20
-100.933
11
161.825
21
-100.928
0
LINE
8
BLACK
6
CONTINUOUS
10
161.825
20
-100.928
11
161.844
21
-100.924
0
LINE
8
BLACK
6
CONTINUOUS
10
161.844
20
-100.924
11
161.862
21
-100.917
0
LINE
8
BLACK
6
CONTINUOUS
10
161.862
20
-100.917
11
173.963
21
-100.917
0
LINE
8
BLACK
6
CONTINUOUS
10
173.963
20
-100.917
11
173.972
21
-100.919
0
LINE
8
BLACK
6
CONTINUOUS
10
161.938
20
-101.067
11
161.938
21
-107.017
0
LINE
8
BLACK
6
CONTINUOUS
10
161.938
20
-107.017
11
173.887
21
-107.017
0
LINE
8
BLACK
6
CONTINUOUS
10
173.887
20
-107.017
11
173.887
21
-101.067
0
LINE
8
BLACK
6
CONTINUOUS
10
173.887
20
-101.067
11
161.938
21
-101.067
0
LINE
8
BLACK
6
CONTINUOUS
10
174.037
20
-101.317
11
174.037
21
-106.767
0
LINE
8
BLACK
6
CONTINUOUS
10
174.037
20
-106.767
11
175.887
21
-106.767
0
LINE
8
BLACK
6
CONTINUOUS
10
175.887
20
-106.767
11
175.887
21
-101.317
0
LINE
8
BLACK
6
CONTINUOUS
10
175.887
20
-101.317
11
174.037
21
-101.317
0
LINE
8
BLACK
6
CONTINUOUS
10
159.629
20
-105.749
11
159.647
21
-105.797
0
LINE
8
BLACK
6
CONTINUOUS
10
159.647
20
-105.797
11
159.647
21
-106.607
0
LINE
8
BLACK
6
CONTINUOUS
10
159.647
20
-106.607
11
159.642
21
-106.632
0
LINE
8
BLACK
6
CONTINUOUS
10
159.642
20
-106.632
11
159.64
21
-106.636
0
LINE
8
BLACK
6
CONTINUOUS
10
159.64
20
-106.636
11
159.639
21
-106.64
0
LINE
8
BLACK
6
CONTINUOUS
10
159.639
20
-106.64
11
159.591
21
-106.736
0
LINE
8
BLACK
6
CONTINUOUS
10
159.591
20
-106.736
11
159.578
21
-106.754
0
LINE
8
BLACK
6
CONTINUOUS
10
159.578
20
-106.754
11
159.577
21
-106.755
0
LINE
8
BLACK
6
CONTINUOUS
10
159.577
20
-106.755
11
159.53
21
-106.803
0
LINE
8
BLACK
6
CONTINUOUS
10
159.53
20
-106.803
11
159.511
21
-106.816
0
LINE
8
BLACK
6
CONTINUOUS
10
159.511
20
-106.816
11
159.51
21
-106.817
0
LINE
8
BLACK
6
CONTINUOUS
10
159.51
20
-106.817
11
159.415
21
-106.864
0
LINE
8
BLACK
6
CONTINUOUS
10
159.415
20
-106.864
11
159.39
21
-106.872
0
LINE
8
BLACK
6
CONTINUOUS
10
159.39
20
-106.872
11
159.386
21
-106.871
0
LINE
8
BLACK
6
CONTINUOUS
10
159.386
20
-106.871
11
159.382
21
-106.872
0
LINE
8
BLACK
6
CONTINUOUS
10
159.382
20
-106.872
11
159.191
21
-106.872
0
LINE
8
BLACK
6
CONTINUOUS
10
159.191
20
-106.872
11
159.165
21
-106.868
0
LINE
8
BLACK
6
CONTINUOUS
10
159.165
20
-106.868
11
159.162
21
-106.865
0
LINE
8
BLACK
6
CONTINUOUS
10
159.162
20
-106.865
11
159.158
21
-106.864
0
LINE
8
BLACK
6
CONTINUOUS
10
159.158
20
-106.864
11
159.062
21
-106.817
0
LINE
8
BLACK
6
CONTINUOUS
10
159.062
20
-106.817
11
159.044
21
-106.803
0
LINE
8
BLACK
6
CONTINUOUS
10
159.044
20
-106.803
11
159.043
21
-106.803
0
LINE
8
BLACK
6
CONTINUOUS
10
159.043
20
-106.803
11
158.995
21
-106.755
0
LINE
8
BLACK
6
CONTINUOUS
10
158.995
20
-106.755
11
158.982
21
-106.737
0
LINE
8
BLACK
6
CONTINUOUS
10
158.982
20
-106.737
11
158.981
21
-106.736
0
LINE
8
BLACK
6
CONTINUOUS
10
158.981
20
-106.736
11
158.934
21
-106.64
0
LINE
8
BLACK
6
CONTINUOUS
10
158.934
20
-106.64
11
158.926
21
-106.615
0
LINE
8
BLACK
6
CONTINUOUS
10
158.926
20
-106.615
11
158.927
21
-106.611
0
LINE
8
BLACK
6
CONTINUOUS
10
158.927
20
-106.611
11
158.926
21
-106.607
0
LINE
8
BLACK
6
CONTINUOUS
10
158.926
20
-106.607
11
158.926
21
-105.797
0
LINE
8
BLACK
6
CONTINUOUS
10
158.926
20
-105.797
11
158.93
21
-105.772
0
LINE
8
BLACK
6
CONTINUOUS
10
158.93
20
-105.772
11
158.963
21
-105.732
0
LINE
8
BLACK
6
CONTINUOUS
10
158.963
20
-105.732
11
159.014
21
-105.723
0
LINE
8
BLACK
6
CONTINUOUS
10
159.014
20
-105.723
11
159.058
21
-105.749
0
LINE
8
BLACK
6
CONTINUOUS
10
159.058
20
-105.749
11
159.076
21
-105.797
0
LINE
8
BLACK
6
CONTINUOUS
10
159.076
20
-105.797
11
159.076
21
-106.589
0
LINE
8
BLACK
6
CONTINUOUS
10
159.076
20
-106.589
11
159.11
21
-106.658
0
LINE
8
BLACK
6
CONTINUOUS
10
159.11
20
-106.658
11
159.14
21
-106.688
0
LINE
8
BLACK
6
CONTINUOUS
10
159.14
20
-106.688
11
159.209
21
-106.722
0
LINE
8
BLACK
6
CONTINUOUS
10
159.209
20
-106.722
11
159.364
21
-106.722
0
LINE
8
BLACK
6
CONTINUOUS
10
159.364
20
-106.722
11
159.432
21
-106.688
0
LINE
8
BLACK
6
CONTINUOUS
10
159.432
20
-106.688
11
159.463
21
-106.658
0
LINE
8
BLACK
6
CONTINUOUS
10
159.463
20
-106.658
11
159.497
21
-106.589
0
LINE
8
BLACK
6
CONTINUOUS
10
159.497
20
-106.589
11
159.497
21
-105.797
0
LINE
8
BLACK
6
CONTINUOUS
10
159.497
20
-105.797
11
159.502
21
-105.772
0
LINE
8
BLACK
6
CONTINUOUS
10
159.502
20
-105.772
11
159.535
21
-105.732
0
LINE
8
BLACK
6
CONTINUOUS
10
159.535
20
-105.732
11
159.585
21
-105.723
0
LINE
8
BLACK
6
CONTINUOUS
10
159.585
20
-105.723
11
159.629
21
-105.749
0
LINE
8
BLACK
6
CONTINUOUS
10
160.407
20
-105.727
11
160.411
21
-105.73
0
LINE
8
BLACK
6
CONTINUOUS
10
160.411
20
-105.73
11
160.415
21
-105.73
0
LINE
8
BLACK
6
CONTINUOUS
10
160.415
20
-105.73
11
160.51
21
-105.778
0
LINE
8
BLACK
6
CONTINUOUS
10
160.51
20
-105.778
11
160.528
21
-105.791
0
LINE
8
BLACK
6
CONTINUOUS
10
160.528
20
-105.791
11
160.53
21
-105.792
0
LINE
8
BLACK
6
CONTINUOUS
10
160.53
20
-105.792
11
160.577
21
-105.84
0
LINE
8
BLACK
6
CONTINUOUS
10
160.577
20
-105.84
11
160.59
21
-105.858
0
LINE
8
BLACK
6
CONTINUOUS
10
160.59
20
-105.858
11
160.591
21
-105.859
0
LINE
8
BLACK
6
CONTINUOUS
10
160.591
20
-105.859
11
160.639
21
-105.954
0
LINE
8
BLACK
6
CONTINUOUS
10
160.639
20
-105.954
11
160.647
21
-105.979
0
LINE
8
BLACK
6
CONTINUOUS
10
160.647
20
-105.979
11
160.645
21
-105.984
0
LINE
8
BLACK
6
CONTINUOUS
10
160.645
20
-105.984
11
160.647
21
-105.988
0
LINE
8
BLACK
6
CONTINUOUS
10
160.647
20
-105.988
11
160.647
21
-106.083
0
LINE
8
BLACK
6
CONTINUOUS
10
160.647
20
-106.083
11
160.643
21
-106.105
0
LINE
8
BLACK
6
CONTINUOUS
10
160.643
20
-106.105
11
160.643
21
-106.107
0
LINE
8
BLACK
6
CONTINUOUS
10
160.643
20
-106.107
11
160.596
21
-106.25
0
LINE
8
BLACK
6
CONTINUOUS
10
160.596
20
-106.25
11
160.583
21
-106.273
0
LINE
8
BLACK
6
CONTINUOUS
10
160.583
20
-106.273
11
160.579
21
-106.275
0
LINE
8
BLACK
6
CONTINUOUS
10
160.579
20
-106.275
11
160.577
21
-106.279
0
LINE
8
BLACK
6
CONTINUOUS
10
160.577
20
-106.279
11
160.134
21
-106.722
0
LINE
8
BLACK
6
CONTINUOUS
10
160.134
20
-106.722
11
160.572
21
-106.722
0
LINE
8
BLACK
6
CONTINUOUS
10
160.572
20
-106.722
11
160.598
21
-106.727
0
LINE
8
BLACK
6
CONTINUOUS
10
160.598
20
-106.727
11
160.637
21
-106.76
0
LINE
8
BLACK
6
CONTINUOUS
10
160.637
20
-106.76
11
160.646
21
-106.81
0
LINE
8
BLACK
6
CONTINUOUS
10
160.646
20
-106.81
11
160.62
21
-106.855
0
LINE
8
BLACK
6
CONTINUOUS
10
160.62
20
-106.855
11
160.572
21
-106.872
0
LINE
8
BLACK
6
CONTINUOUS
10
160.572
20
-106.872
11
159.953
21
-106.872
0
LINE
8
BLACK
6
CONTINUOUS
10
159.953
20
-106.872
11
159.937
21
-106.869
0
LINE
8
BLACK
6
CONTINUOUS
10
159.937
20
-106.869
11
159.934
21
-106.87
0
LINE
8
BLACK
6
CONTINUOUS
10
159.934
20
-106.87
11
159.932
21
-106.869
0
LINE
8
BLACK
6
CONTINUOUS
10
159.932
20
-106.869
11
159.927
21
-106.868
0
LINE
8
BLACK
6
CONTINUOUS
10
159.927
20
-106.868
11
159.91
21
-106.853
0
LINE
8
BLACK
6
CONTINUOUS
10
159.91
20
-106.853
11
159.892
21
-106.84
0
LINE
8
BLACK
6
CONTINUOUS
10
159.892
20
-106.84
11
159.891
21
-106.837
0
LINE
8
BLACK
6
CONTINUOUS
10
159.891
20
-106.837
11
159.888
21
-106.835
0
LINE
8
BLACK
6
CONTINUOUS
10
159.888
20
-106.835
11
159.884
21
-106.813
0
LINE
8
BLACK
6
CONTINUOUS
10
159.884
20
-106.813
11
159.878
21
-106.791
0
LINE
8
BLACK
6
CONTINUOUS
10
159.878
20
-106.791
11
159.88
21
-106.788
0
LINE
8
BLACK
6
CONTINUOUS
10
159.88
20
-106.788
11
159.879
21
-106.784
0
LINE
8
BLACK
6
CONTINUOUS
10
159.879
20
-106.784
11
159.89
21
-106.765
0
LINE
8
BLACK
6
CONTINUOUS
10
159.89
20
-106.765
11
159.9
21
-106.744
0
LINE
8
BLACK
6
CONTINUOUS
10
159.9
20
-106.744
11
160.459
21
-106.185
0
LINE
8
BLACK
6
CONTINUOUS
10
160.459
20
-106.185
11
160.497
21
-106.071
0
LINE
8
BLACK
6
CONTINUOUS
10
160.497
20
-106.071
11
160.497
21
-106.005
0
LINE
8
BLACK
6
CONTINUOUS
10
160.497
20
-106.005
11
160.463
21
-105.937
0
LINE
8
BLACK
6
CONTINUOUS
10
160.463
20
-105.937
11
160.432
21
-105.907
0
LINE
8
BLACK
6
CONTINUOUS
10
160.432
20
-105.907
11
160.364
21
-105.872
0
LINE
8
BLACK
6
CONTINUOUS
10
160.364
20
-105.872
11
160.161
21
-105.872
0
LINE
8
BLACK
6
CONTINUOUS
10
160.161
20
-105.872
11
160.093
21
-105.907
0
LINE
8
BLACK
6
CONTINUOUS
10
160.093
20
-105.907
11
160.054
21
-105.946
0
LINE
8
BLACK
6
CONTINUOUS
10
160.054
20
-105.946
11
160.032
21
-105.961
0
LINE
8
BLACK
6
CONTINUOUS
10
160.032
20
-105.961
11
159.981
21
-105.965
0
LINE
8
BLACK
6
CONTINUOUS
10
159.981
20
-105.965
11
159.939
21
-105.936
0
LINE
8
BLACK
6
CONTINUOUS
10
159.939
20
-105.936
11
159.926
21
-105.886
0
LINE
8
BLACK
6
CONTINUOUS
10
159.926
20
-105.886
11
159.948
21
-105.84
0
LINE
8
BLACK
6
CONTINUOUS
10
159.948
20
-105.84
11
159.995
21
-105.792
0
LINE
8
BLACK
6
CONTINUOUS
10
159.995
20
-105.792
11
160.014
21
-105.779
0
LINE
8
BLACK
6
CONTINUOUS
10
160.014
20
-105.779
11
160.015
21
-105.778
0
LINE
8
BLACK
6
CONTINUOUS
10
160.015
20
-105.778
11
160.11
21
-105.73
0
LINE
8
BLACK
6
CONTINUOUS
10
160.11
20
-105.73
11
160.135
21
-105.723
0
LINE
8
BLACK
6
CONTINUOUS
10
160.135
20
-105.723
11
160.139
21
-105.724
0
LINE
8
BLACK
6
CONTINUOUS
10
160.139
20
-105.724
11
160.143
21
-105.722
0
LINE
8
BLACK
6
CONTINUOUS
10
160.143
20
-105.722
11
160.382
21
-105.722
0
LINE
8
BLACK
6
CONTINUOUS
10
160.382
20
-105.722
11
160.407
21
-105.727
0
LINE
8
BLACK
6
CONTINUOUS
10
80.383
20
-105.142
11
80.4275
21
-105.167
0
LINE
8
BLACK
6
CONTINUOUS
10
80.4275
20
-105.167
11
80.445
21
-105.215
0
LINE
8
BLACK
6
CONTINUOUS
10
80.445
20
-105.215
11
80.445
21
-106.14
0
LINE
8
BLACK
6
CONTINUOUS
10
80.445
20
-106.14
11
81.37
21
-106.14
0
LINE
8
BLACK
6
CONTINUOUS
10
81.37
20
-106.14
11
81.3957
21
-106.145
0
LINE
8
BLACK
6
CONTINUOUS
10
81.3957
20
-106.145
11
81.435
21
-106.178
0
LINE
8
BLACK
6
CONTINUOUS
10
81.435
20
-106.178
11
81.4439
21
-106.228
0
LINE
8
BLACK
6
CONTINUOUS
10
81.4439
20
-106.228
11
81.4182
21
-106.273
0
LINE
8
BLACK
6
CONTINUOUS
10
81.4182
20
-106.273
11
81.37
21
-106.29
0
LINE
8
BLACK
6
CONTINUOUS
10
81.37
20
-106.29
11
80.37
21
-106.29
0
LINE
8
BLACK
6
CONTINUOUS
10
80.37
20
-106.29
11
80.3603
21
-106.289
0
LINE
8
BLACK
6
CONTINUOUS
10
80.3603
20
-106.289
11
80.357
21
-106.289
0
LINE
8
BLACK
6
CONTINUOUS
10
80.357
20
-106.289
11
80.3541
21
-106.288
0
LINE
8
BLACK
6
CONTINUOUS
10
80.3541
20
-106.288
11
80.3443
21
-106.286
0
LINE
8
BLACK
6
CONTINUOUS
10
80.3443
20
-106.286
11
80.3294
21
-106.273
0
LINE
8
BLACK
6
CONTINUOUS
10
80.3294
20
-106.273
11
80.3125
21
-106.264
0
LINE
8
BLACK
6
CONTINUOUS
10
80.3125
20
-106.264
11
80.3102
21
-106.257
0
LINE
8
BLACK
6
CONTINUOUS
10
80.3102
20
-106.257
11
80.305
21
-106.253
0
LINE
8
BLACK
6
CONTINUOUS
10
80.305
20
-106.253
11
80.3017
21
-106.234
0
LINE
8
BLACK
6
CONTINUOUS
10
80.3017
20
-106.234
11
80.295
21
-106.215
0
LINE
8
BLACK
6
CONTINUOUS
10
80.295
20
-106.215
11
80.295
21
-105.215
0
LINE
8
BLACK
6
CONTINUOUS
10
80.295
20
-105.215
11
80.2995
21
-105.19
0
LINE
8
BLACK
6
CONTINUOUS
10
80.2995
20
-105.19
11
80.3325
21
-105.15
0
LINE
8
BLACK
6
CONTINUOUS
10
80.3325
20
-105.15
11
80.383
21
-105.142
0
LINE
8
BLACK
6
CONTINUOUS
10
94.383
20
-105.142
11
94.4275
21
-105.167
0
LINE
8
BLACK
6
CONTINUOUS
10
94.4275
20
-105.167
11
94.445
21
-105.215
0
LINE
8
BLACK
6
CONTINUOUS
10
94.445
20
-105.215
11
94.445
21
-106.215
0
LINE
8
BLACK
6
CONTINUOUS
10
94.445
20
-106.215
11
94.4433
21
-106.225
0
LINE
8
BLACK
6
CONTINUOUS
10
94.4433
20
-106.225
11
94.4439
21
-106.228
0
LINE
8
BLACK
6
CONTINUOUS
10
94.4439
20
-106.228
11
94.4422
21
-106.231
0
LINE
8
BLACK
6
CONTINUOUS
10
94.4422
20
-106.231
11
94.4405
21
-106.241
0
LINE
8
BLACK
6
CONTINUOUS
10
94.4405
20
-106.241
11
94.428
21
-106.256
0
LINE
8
BLACK
6
CONTINUOUS
10
94.428
20
-106.256
11
94.4182
21
-106.273
0
LINE
8
BLACK
6
CONTINUOUS
10
94.4182
20
-106.273
11
94.4119
21
-106.275
0
LINE
8
BLACK
6
CONTINUOUS
10
94.4119
20
-106.275
11
94.4075
21
-106.28
0
LINE
8
BLACK
6
CONTINUOUS
10
94.4075
20
-106.28
11
94.3883
21
-106.284
0
LINE
8
BLACK
6
CONTINUOUS
10
94.3883
20
-106.284
11
94.37
21
-106.29
0
LINE
8
BLACK
6
CONTINUOUS
10
94.37
20
-106.29
11
93.37
21
-106.29
0
LINE
8
BLACK
6
CONTINUOUS
10
93.37
20
-106.29
11
93.3443
21
-106.286
0
LINE
8
BLACK
6
CONTINUOUS
10
93.3443
20
-106.286
11
93.305
21
-106.253
0
LINE
8
BLACK
6
CONTINUOUS
10
93.305
20
-106.253
11
93.2961
21
-106.202
0
LINE
8
BLACK
6
CONTINUOUS
10
93.2961
20
-106.202
11
93.3218
21
-106.158
0
LINE
8
BLACK
6
CONTINUOUS
10
93.3218
20
-106.158
11
93.37
21
-106.14
0
LINE
8
BLACK
6
CONTINUOUS
10
93.37
20
-106.14
11
94.295
21
-106.14
0
LINE
8
BLACK
6
CONTINUOUS
10
94.295
20
-106.14
11
94.295
21
-105.215
0
LINE
8
BLACK
6
CONTINUOUS
10
94.295
20
-105.215
11
94.2995
21
-105.19
0
LINE
8
BLACK
6
CONTINUOUS
10
94.2995
20
-105.19
11
94.3325
21
-105.15
0
LINE
8
BLACK
6
CONTINUOUS
10
94.3325
20
-105.15
11
94.383
21
-105.142
0
LINE
8
BLACK
6
CONTINUOUS
10
63.3957
20
-103.195
11
63.435
21
-103.228
0
LINE
8
BLACK
6
CONTINUOUS
10
63.435
20
-103.228
11
63.4439
21
-103.278
0
LINE
8
BLACK
6
CONTINUOUS
10
63.4439
20
-103.278
11
63.4182
21
-103.323
0
LINE
8
BLACK
6
CONTINUOUS
10
63.4182
20
-103.323
11
63.37
21
-103.34
0
LINE
8
BLACK
6
CONTINUOUS
10
63.37
20
-103.34
11
62.445
21
-103.34
0
LINE
8
BLACK
6
CONTINUOUS
10
62.445
20
-103.34
11
62.445
21
-104.265
0
LINE
8
BLACK
6
CONTINUOUS
10
62.445
20
-104.265
11
62.4405
21
-104.291
0
LINE
8
BLACK
6
CONTINUOUS
10
62.4405
20
-104.291
11
62.4075
21
-104.33
0
LINE
8
BLACK
6
CONTINUOUS
10
62.4075
20
-104.33
11
62.357
21
-104.339
0
LINE
8
BLACK
6
CONTINUOUS
10
62.357
20
-104.339
11
62.3125
21
-104.314
0
LINE
8
BLACK
6
CONTINUOUS
10
62.3125
20
-104.314
11
62.295
21
-104.265
0
LINE
8
BLACK
6
CONTINUOUS
10
62.295
20
-104.265
11
62.295
21
-103.265
0
LINE
8
BLACK
6
CONTINUOUS
10
62.295
20
-103.265
11
62.2967
21
-103.256
0
LINE
8
BLACK
6
CONTINUOUS
10
62.2967
20
-103.256
11
62.2961
21
-103.252
0
LINE
8
BLACK
6
CONTINUOUS
10
62.2961
20
-103.252
11
62.2978
21
-103.249
0
LINE
8
BLACK
6
CONTINUOUS
10
62.2978
20
-103.249
11
62.2995
21
-103.24
0
LINE
8
BLACK
6
CONTINUOUS
10
62.2995
20
-103.24
11
62.312
21
-103.225
0
LINE
8
BLACK
6
CONTINUOUS
10
62.312
20
-103.225
11
62.3218
21
-103.208
0
LINE
8
BLACK
6
CONTINUOUS
10
62.3218
20
-103.208
11
62.3281
21
-103.206
0
LINE
8
BLACK
6
CONTINUOUS
10
62.3281
20
-103.206
11
62.3325
21
-103.2
0
LINE
8
BLACK
6
CONTINUOUS
10
62.3325
20
-103.2
11
62.3517
21
-103.197
0
LINE
8
BLACK
6
CONTINUOUS
10
62.3517
20
-103.197
11
62.37
21
-103.19
0
LINE
8
BLACK
6
CONTINUOUS
10
62.37
20
-103.19
11
63.37
21
-103.19
0
LINE
8
BLACK
6
CONTINUOUS
10
63.37
20
-103.19
11
63.3957
21
-103.195
0
LINE
8
BLACK
6
CONTINUOUS
10
76.3797
20
-103.192
11
76.383
21
-103.192
0
LINE
8
BLACK
6
CONTINUOUS
10
76.383
20
-103.192
11
76.3859
21
-103.193
0
LINE
8
BLACK
6
CONTINUOUS
10
76.3859
20
-103.193
11
76.3957
21
-103.195
0
LINE
8
BLACK
6
CONTINUOUS
10
76.3957
20
-103.195
11
76.4106
21
-103.207
0
LINE
8
BLACK
6
CONTINUOUS
10
76.4106
20
-103.207
11
76.4275
21
-103.217
0
LINE
8
BLACK
6
CONTINUOUS
10
76.4275
20
-103.217
11
76.4298
21
-103.224
0
LINE
8
BLACK
6
CONTINUOUS
10
76.4298
20
-103.224
11
76.435
21
-103.228
0
LINE
8
BLACK
6
CONTINUOUS
10
76.435
20
-103.228
11
76.4383
21
-103.247
0
LINE
8
BLACK
6
CONTINUOUS
10
76.4383
20
-103.247
11
76.445
21
-103.265
0
LINE
8
BLACK
6
CONTINUOUS
10
76.445
20
-103.265
11
76.445
21
-104.265
0
LINE
8
BLACK
6
CONTINUOUS
10
76.445
20
-104.265
11
76.4405
21
-104.291
0
LINE
8
BLACK
6
CONTINUOUS
10
76.4405
20
-104.291
11
76.4075
21
-104.33
0
LINE
8
BLACK
6
CONTINUOUS
10
76.4075
20
-104.33
11
76.357
21
-104.339
0
LINE
8
BLACK
6
CONTINUOUS
10
76.357
20
-104.339
11
76.3125
21
-104.314
0
LINE
8
BLACK
6
CONTINUOUS
10
76.3125
20
-104.314
11
76.295
21
-104.265
0
LINE
8
BLACK
6
CONTINUOUS
10
76.295
20
-104.265
11
76.295
21
-103.34
0
LINE
8
BLACK
6
CONTINUOUS
10
76.295
20
-103.34
11
75.37
21
-103.34
0
LINE
8
BLACK
6
CONTINUOUS
10
75.37
20
-103.34
11
75.3443
21
-103.336
0
LINE
8
BLACK
6
CONTINUOUS
10
75.3443
20
-103.336
11
75.305
21
-103.303
0
LINE
8
BLACK
6
CONTINUOUS
10
75.305
20
-103.303
11
75.2961
21
-103.252
0
LINE
8
BLACK
6
CONTINUOUS
10
75.2961
20
-103.252
11
75.3218
21
-103.208
0
LINE
8
BLACK
6
CONTINUOUS
10
75.3218
20
-103.208
11
75.37
21
-103.19
0
LINE
8
BLACK
6
CONTINUOUS
10
75.37
20
-103.19
11
76.37
21
-103.19
0
LINE
8
BLACK
6
CONTINUOUS
10
76.37
20
-103.19
11
76.3797
21
-103.192
0
LINE
8
BLACK
6
CONTINUOUS
10
59.701
20
-103.834
11
59.7403
21
-103.867
0
LINE
8
BLACK
6
CONTINUOUS
10
59.7403
20
-103.867
11
59.7492
21
-103.917
0
LINE
8
BLACK
6
CONTINUOUS
10
59.7492
20
-103.917
11
59.7235
21
-103.961
0
LINE
8
BLACK
6
CONTINUOUS
10
59.7235
20
-103.961
11
59.6753
21
-103.979
0
LINE
8
BLACK
6
CONTINUOUS
10
59.6753
20
-103.979
11
58.4847
21
-103.979
0
LINE
8
BLACK
6
CONTINUOUS
10
58.4847
20
-103.979
11
58.459
21
-103.974
0
LINE
8
BLACK
6
CONTINUOUS
10
58.459
20
-103.974
11
58.4197
21
-103.941
0
LINE
8
BLACK
6
CONTINUOUS
10
58.4197
20
-103.941
11
58.4108
21
-103.891
0
LINE
8
BLACK
6
CONTINUOUS
10
58.4108
20
-103.891
11
58.4365
21
-103.847
0
LINE
8
BLACK
6
CONTINUOUS
10
58.4365
20
-103.847
11
58.4847
21
-103.829
0
LINE
8
BLACK
6
CONTINUOUS
10
58.4847
20
-103.829
11
59.6753
21
-103.829
0
LINE
8
BLACK
6
CONTINUOUS
10
59.6753
20
-103.829
11
59.701
21
-103.834
0
LINE
8
BLACK
6
CONTINUOUS
10
98.383
20
-102.592
11
98.4275
21
-102.617
0
LINE
8
BLACK
6
CONTINUOUS
10
98.4275
20
-102.617
11
98.445
21
-102.665
0
LINE
8
BLACK
6
CONTINUOUS
10
98.445
20
-102.665
11
98.445
21
-103.59
0
LINE
8
BLACK
6
CONTINUOUS
10
98.445
20
-103.59
11
99.37
21
-103.59
0
LINE
8
BLACK
6
CONTINUOUS
10
99.37
20
-103.59
11
99.3957
21
-103.595
0
LINE
8
BLACK
6
CONTINUOUS
10
99.3957
20
-103.595
11
99.435
21
-103.628
0
LINE
8
BLACK
6
CONTINUOUS
10
99.435
20
-103.628
11
99.4439
21
-103.678
0
LINE
8
BLACK
6
CONTINUOUS
10
99.4439
20
-103.678
11
99.4182
21
-103.723
0
LINE
8
BLACK
6
CONTINUOUS
10
99.4182
20
-103.723
11
99.37
21
-103.74
0
LINE
8
BLACK
6
CONTINUOUS
10
99.37
20
-103.74
11
98.37
21
-103.74
0
LINE
8
BLACK
6
CONTINUOUS
10
98.37
20
-103.74
11
98.3603
21
-103.739
0
LINE
8
BLACK
6
CONTINUOUS
10
98.3603
20
-103.739
11
98.357
21
-103.739
0
LINE
8
BLACK
6
CONTINUOUS
10
98.357
20
-103.739
11
98.3541
21
-103.738
0
LINE
8
BLACK
6
CONTINUOUS
10
98.3541
20
-103.738
11
98.3443
21
-103.736
0
LINE
8
BLACK
6
CONTINUOUS
10
98.3443
20
-103.736
11
98.3294
21
-103.723
0
LINE
8
BLACK
6
CONTINUOUS
10
98.3294
20
-103.723
11
98.3125
21
-103.714
0
LINE
8
BLACK
6
CONTINUOUS
10
98.3125
20
-103.714
11
98.3102
21
-103.707
0
LINE
8
BLACK
6
CONTINUOUS
10
98.3102
20
-103.707
11
98.305
21
-103.703
0
LINE
8
BLACK
6
CONTINUOUS
10
98.305
20
-103.703
11
98.3017
21
-103.684
0
LINE
8
BLACK
6
CONTINUOUS
10
98.3017
20
-103.684
11
98.295
21
-103.665
0
LINE
8
BLACK
6
CONTINUOUS
10
98.295
20
-103.665
11
98.295
21
-102.665
0
LINE
8
BLACK
6
CONTINUOUS
10
98.295
20
-102.665
11
98.2995
21
-102.64
0
LINE
8
BLACK
6
CONTINUOUS
10
98.2995
20
-102.64
11
98.3325
21
-102.6
0
LINE
8
BLACK
6
CONTINUOUS
10
98.3325
20
-102.6
11
98.383
21
-102.592
0
LINE
8
BLACK
6
CONTINUOUS
10
112.383
20
-102.592
11
112.427
21
-102.617
0
LINE
8
BLACK
6
CONTINUOUS
10
112.427
20
-102.617
11
112.445
21
-102.665
0
LINE
8
BLACK
6
CONTINUOUS
10
112.445
20
-102.665
11
112.445
21
-103.665
0
LINE
8
BLACK
6
CONTINUOUS
10
112.445
20
-103.665
11
112.443
21
-103.675
0
LINE
8
BLACK
6
CONTINUOUS
10
112.443
20
-103.675
11
112.444
21
-103.678
0
LINE
8
BLACK
6
CONTINUOUS
10
112.444
20
-103.678
11
112.442
21
-103.681
0
LINE
8
BLACK
6
CONTINUOUS
10
112.442
20
-103.681
11
112.44
21
-103.691
0
LINE
8
BLACK
6
CONTINUOUS
10
112.44
20
-103.691
11
112.428
21
-103.706
0
LINE
8
BLACK
6
CONTINUOUS
10
112.428
20
-103.706
11
112.418
21
-103.723
0
LINE
8
BLACK
6
CONTINUOUS
10
112.418
20
-103.723
11
112.412
21
-103.725
0
LINE
8
BLACK
6
CONTINUOUS
10
112.412
20
-103.725
11
112.407
21
-103.73
0
LINE
8
BLACK
6
CONTINUOUS
10
112.407
20
-103.73
11
112.388
21
-103.734
0
LINE
8
BLACK
6
CONTINUOUS
10
112.388
20
-103.734
11
112.37
21
-103.74
0
LINE
8
BLACK
6
CONTINUOUS
10
112.37
20
-103.74
11
111.37
21
-103.74
0
LINE
8
BLACK
6
CONTINUOUS
10
111.37
20
-103.74
11
111.344
21
-103.736
0
LINE
8
BLACK
6
CONTINUOUS
10
111.344
20
-103.736
11
111.305
21
-103.703
0
LINE
8
BLACK
6
CONTINUOUS
10
111.305
20
-103.703
11
111.296
21
-103.652
0
LINE
8
BLACK
6
CONTINUOUS
10
111.296
20
-103.652
11
111.322
21
-103.608
0
LINE
8
BLACK
6
CONTINUOUS
10
111.322
20
-103.608
11
111.37
21
-103.59
0
LINE
8
BLACK
6
CONTINUOUS
10
111.37
20
-103.59
11
112.295
21
-103.59
0
LINE
8
BLACK
6
CONTINUOUS
10
112.295
20
-103.59
11
112.295
21
-102.665
0
LINE
8
BLACK
6
CONTINUOUS
10
112.295
20
-102.665
11
112.3
21
-102.64
0
LINE
8
BLACK
6
CONTINUOUS
10
112.3
20
-102.64
11
112.332
21
-102.6
0
LINE
8
BLACK
6
CONTINUOUS
10
112.332
20
-102.6
11
112.383
21
-102.592
0
LINE
8
BLACK
6
CONTINUOUS
10
41.883
20
-102.491
11
41.9275
21
-102.517
0
LINE
8
BLACK
6
CONTINUOUS
10
41.9275
20
-102.517
11
41.945
21
-102.565
0
LINE
8
BLACK
6
CONTINUOUS
10
41.945
20
-102.565
11
41.945
21
-103.49
0
LINE
8
BLACK
6
CONTINUOUS
10
41.945
20
-103.49
11
42.87
21
-103.49
0
LINE
8
BLACK
6
CONTINUOUS
10
42.87
20
-103.49
11
42.8957
21
-103.495
0
LINE
8
BLACK
6
CONTINUOUS
10
42.8957
20
-103.495
11
42.935
21
-103.527
0
LINE
8
BLACK
6
CONTINUOUS
10
42.935
20
-103.527
11
42.9439
21
-103.578
0
LINE
8
BLACK
6
CONTINUOUS
10
42.9439
20
-103.578
11
42.9182
21
-103.622
0
LINE
8
BLACK
6
CONTINUOUS
10
42.9182
20
-103.622
11
42.87
21
-103.64
0
LINE
8
BLACK
6
CONTINUOUS
10
42.87
20
-103.64
11
41.87
21
-103.64
0
LINE
8
BLACK
6
CONTINUOUS
10
41.87
20
-103.64
11
41.8603
21
-103.638
0
LINE
8
BLACK
6
CONTINUOUS
10
41.8603
20
-103.638
11
41.857
21
-103.639
0
LINE
8
BLACK
6
CONTINUOUS
10
41.857
20
-103.639
11
41.8541
21
-103.637
0
LINE
8
BLACK
6
CONTINUOUS
10
41.8541
20
-103.637
11
41.8443
21
-103.635
0
LINE
8
BLACK
6
CONTINUOUS
10
41.8443
20
-103.635
11
41.8294
21
-103.623
0
LINE
8
BLACK
6
CONTINUOUS
10
41.8294
20
-103.623
11
41.8125
21
-103.613
0
LINE
8
BLACK
6
CONTINUOUS
10
41.8125
20
-103.613
11
41.8102
21
-103.607
0
LINE
8
BLACK
6
CONTINUOUS
10
41.8102
20
-103.607
11
41.805
21
-103.602
0
LINE
8
BLACK
6
CONTINUOUS
10
41.805
20
-103.602
11
41.8017
21
-103.583
0
LINE
8
BLACK
6
CONTINUOUS
10
41.8017
20
-103.583
11
41.795
21
-103.565
0
LINE
8
BLACK
6
CONTINUOUS
10
41.795
20
-103.565
11
41.795
21
-102.565
0
LINE
8
BLACK
6
CONTINUOUS
10
41.795
20
-102.565
11
41.7995
21
-102.539
0
LINE
8
BLACK
6
CONTINUOUS
10
41.7995
20
-102.539
11
41.8325
21
-102.5
0
LINE
8
BLACK
6
CONTINUOUS
10
41.8325
20
-102.5
11
41.883
21
-102.491
0
LINE
8
BLACK
6
CONTINUOUS
10
55.883
20
-102.491
11
55.9275
21
-102.517
0
LINE
8
BLACK
6
CONTINUOUS
10
55.9275
20
-102.517
11
55.945
21
-102.565
0
LINE
8
BLACK
6
CONTINUOUS
10
55.945
20
-102.565
11
55.945
21
-103.565
0
LINE
8
BLACK
6
CONTINUOUS
10
55.945
20
-103.565
11
55.9433
21
-103.575
0
LINE
8
BLACK
6
CONTINUOUS
10
55.9433
20
-103.575
11
55.9439
21
-103.578
0
LINE
8
BLACK
6
CONTINUOUS
10
55.9439
20
-103.578
11
55.9422
21
-103.581
0
LINE
8
BLACK
6
CONTINUOUS
10
55.9422
20
-103.581
11
55.9405
21
-103.591
0
LINE
8
BLACK
6
CONTINUOUS
10
55.9405
20
-103.591
11
55.928
21
-103.606
0
LINE
8
BLACK
6
CONTINUOUS
10
55.928
20
-103.606
11
55.9182
21
-103.622
0
LINE
8
BLACK
6
CONTINUOUS
10
55.9182
20
-103.622
11
55.9118
21
-103.625
0
LINE
8
BLACK
6
CONTINUOUS
10
55.9118
20
-103.625
11
55.9075
21
-103.63
0
LINE
8
BLACK
6
CONTINUOUS
10
55.9075
20
-103.63
11
55.8883
21
-103.633
0
LINE
8
BLACK
6
CONTINUOUS
10
55.8883
20
-103.633
11
55.87
21
-103.64
0
LINE
8
BLACK
6
CONTINUOUS
10
55.87
20
-103.64
11
54.87
21
-103.64
0
LINE
8
BLACK
6
CONTINUOUS
10
54.87
20
-103.64
11
54.8443
21
-103.635
0
LINE
8
BLACK
6
CONTINUOUS
10
54.8443
20
-103.635
11
54.805
21
-103.602
0
LINE
8
BLACK
6
CONTINUOUS
10
54.805
20
-103.602
11
54.7961
21
-103.552
0
LINE
8
BLACK
6
CONTINUOUS
10
54.7961
20
-103.552
11
54.8218
21
-103.508
0
LINE
8
BLACK
6
CONTINUOUS
10
54.8218
20
-103.508
11
54.87
21
-103.49
0
LINE
8
BLACK
6
CONTINUOUS
10
54.87
20
-103.49
11
55.795
21
-103.49
0
LINE
8
BLACK
6
CONTINUOUS
10
55.795
20
-103.49
11
55.795
21
-102.565
0
LINE
8
BLACK
6
CONTINUOUS
10
55.795
20
-102.565
11
55.7995
21
-102.539
0
LINE
8
BLACK
6
CONTINUOUS
10
55.7995
20
-102.539
11
55.8325
21
-102.5
0
LINE
8
BLACK
6
CONTINUOUS
10
55.8325
20
-102.5
11
55.883
21
-102.491
0
LINE
8
BLACK
6
CONTINUOUS
10
59.721
20
-102.824
11
59.7603
21
-102.856
0
LINE
8
BLACK
6
CONTINUOUS
10
59.7603
20
-102.856
11
59.7692
21
-102.907
0
LINE
8
BLACK
6
CONTINUOUS
10
59.7692
20
-102.907
11
59.7435
21
-102.951
0
LINE
8
BLACK
6
CONTINUOUS
10
59.7435
20
-102.951
11
59.6953
21
-102.969
0
LINE
8
BLACK
6
CONTINUOUS
10
59.6953
20
-102.969
11
58.5047
21
-102.969
0
LINE
8
BLACK
6
CONTINUOUS
10
58.5047
20
-102.969
11
58.479
21
-102.964
0
LINE
8
BLACK
6
CONTINUOUS
10
58.479
20
-102.964
11
58.4397
21
-102.931
0
LINE
8
BLACK
6
CONTINUOUS
10
58.4397
20
-102.931
11
58.4308
21
-102.881
0
LINE
8
BLACK
6
CONTINUOUS
10
58.4308
20
-102.881
11
58.4565
21
-102.837
0
LINE
8
BLACK
6
CONTINUOUS
10
58.4565
20
-102.837
11
58.5047
21
-102.819
0
LINE
8
BLACK
6
CONTINUOUS
10
58.5047
20
-102.819
11
59.6953
21
-102.819
0
LINE
8
BLACK
6
CONTINUOUS
10
59.6953
20
-102.819
11
59.721
21
-102.824
0
LINE
8
BLACK
6
CONTINUOUS
10
59.761
20
-101.424
11
59.8003
21
-101.456
0
LINE
8
BLACK
6
CONTINUOUS
10
59.8003
20
-101.456
11
59.8092
21
-101.507
0
LINE
8
BLACK
6
CONTINUOUS
10
59.8092
20
-101.507
11
59.7835
21
-101.551
0
LINE
8
BLACK
6
CONTINUOUS
10
59.7835
20
-101.551
11
59.7353
21
-101.569
0
LINE
8
BLACK
6
CONTINUOUS
10
59.7353
20
-101.569
11
58.5447
21
-101.569
0
LINE
8
BLACK
6
CONTINUOUS
10
58.5447
20
-101.569
11
58.519
21
-101.564
0
LINE
8
BLACK
6
CONTINUOUS
10
58.519
20
-101.564
11
58.4797
21
-101.531
0
LINE
8
BLACK
6
CONTINUOUS
10
58.4797
20
-101.531
11
58.4708
21
-101.481
0
LINE
8
BLACK
6
CONTINUOUS
10
58.4708
20
-101.481
11
58.4965
21
-101.437
0
LINE
8
BLACK
6
CONTINUOUS
10
58.4965
20
-101.437
11
58.5447
21
-101.419
0
LINE
8
BLACK
6
CONTINUOUS
10
58.5447
20
-101.419
11
59.7353
21
-101.419
0
LINE
8
BLACK
6
CONTINUOUS
10
59.7353
20
-101.419
11
59.761
21
-101.424
0
LINE
8
BLACK
6
CONTINUOUS
10
59.771
20
-100.454
11
59.8103
21
-100.486
0
LINE
8
BLACK
6
CONTINUOUS
10
59.8103
20
-100.486
11
59.8192
21
-100.537
0
LINE
8
BLACK
6
CONTINUOUS
10
59.8192
20
-100.537
11
59.7935
21
-100.581
0
LINE
8
BLACK
6
CONTINUOUS
10
59.7935
20
-100.581
11
59.7453
21
-100.599
0
LINE
8
BLACK
6
CONTINUOUS
10
59.7453
20
-100.599
11
58.5547
21
-100.599
0
LINE
8
BLACK
6
CONTINUOUS
10
58.5547
20
-100.599
11
58.529
21
-100.594
0
LINE
8
BLACK
6
CONTINUOUS
10
58.529
20
-100.594
11
58.4897
21
-100.561
0
LINE
8
BLACK
6
CONTINUOUS
10
58.4897
20
-100.561
11
58.4808
21
-100.511
0
LINE
8
BLACK
6
CONTINUOUS
10
58.4808
20
-100.511
11
58.5065
21
-100.467
0
LINE
8
BLACK
6
CONTINUOUS
10
58.5065
20
-100.467
11
58.5547
21
-100.449
0
LINE
8
BLACK
6
CONTINUOUS
10
58.5547
20
-100.449
11
59.7453
21
-100.449
0
LINE
8
BLACK
6
CONTINUOUS
10
59.7453
20
-100.449
11
59.771
21
-100.454
0
LINE
8
BLACK
6
CONTINUOUS
10
62.383
20
-99.0911
11
62.4275
21
-99.1168
0
LINE
8
BLACK
6
CONTINUOUS
10
62.4275
20
-99.1168
11
62.445
21
-99.165
0
LINE
8
BLACK
6
CONTINUOUS
10
62.445
20
-99.165
11
62.445
21
-100.09
0
LINE
8
BLACK
6
CONTINUOUS
10
62.445
20
-100.09
11
63.37
21
-100.09
0
LINE
8
BLACK
6
CONTINUOUS
10
63.37
20
-100.09
11
63.3957
21
-100.095
0
LINE
8
BLACK
6
CONTINUOUS
10
63.3957
20
-100.095
11
63.435
21
-100.127
0
LINE
8
BLACK
6
CONTINUOUS
10
63.435
20
-100.127
11
63.4439
21
-100.178
0
LINE
8
BLACK
6
CONTINUOUS
10
63.4439
20
-100.178
11
63.4182
21
-100.222
0
LINE
8
BLACK
6
CONTINUOUS
10
63.4182
20
-100.222
11
63.37
21
-100.24
0
LINE
8
BLACK
6
CONTINUOUS
10
63.37
20
-100.24
11
62.37
21
-100.24
0
LINE
8
BLACK
6
CONTINUOUS
10
62.37
20
-100.24
11
62.3603
21
-100.238
0
LINE
8
BLACK
6
CONTINUOUS
10
62.3603
20
-100.238
11
62.357
21
-100.239
0
LINE
8
BLACK
6
CONTINUOUS
10
62.357
20
-100.239
11
62.3541
21
-100.237
0
LINE
8
BLACK
6
CONTINUOUS
10
62.3541
20
-100.237
11
62.3443
21
-100.235
0
LINE
8
BLACK
6
CONTINUOUS
10
62.3443
20
-100.235
11
62.3294
21
-100.223
0
LINE
8
BLACK
6
CONTINUOUS
10
62.3294
20
-100.223
11
62.3125
21
-100.213
0
LINE
8
BLACK
6
CONTINUOUS
10
62.3125
20
-100.213
11
62.3102
21
-100.207
0
LINE
8
BLACK
6
CONTINUOUS
10
62.3102
20
-100.207
11
62.305
21
-100.203
0
LINE
8
BLACK
6
CONTINUOUS
10
62.305
20
-100.203
11
62.3017
21
-100.183
0
LINE
8
BLACK
6
CONTINUOUS
10
62.3017
20
-100.183
11
62.295
21
-100.165
0
LINE
8
BLACK
6
CONTINUOUS
10
62.295
20
-100.165
11
62.295
21
-99.165
0
LINE
8
BLACK
6
CONTINUOUS
10
62.295
20
-99.165
11
62.2995
21
-99.1393
0
LINE
8
BLACK
6
CONTINUOUS
10
62.2995
20
-99.1393
11
62.3325
21
-99.1
0
LINE
8
BLACK
6
CONTINUOUS
10
62.3325
20
-99.1
11
62.383
21
-99.0911
0
LINE
8
BLACK
6
CONTINUOUS
10
76.383
20
-99.0911
11
76.4275
21
-99.1168
0
LINE
8
BLACK
6
CONTINUOUS
10
76.4275
20
-99.1168
11
76.445
21
-99.165
0
LINE
8
BLACK
6
CONTINUOUS
10
76.445
20
-99.165
11
76.445
21
-100.165
0
LINE
8
BLACK
6
CONTINUOUS
10
76.445
20
-100.165
11
76.4433
21
-100.175
0
LINE
8
BLACK
6
CONTINUOUS
10
76.4433
20
-100.175
11
76.4439
21
-100.178
0
LINE
8
BLACK
6
CONTINUOUS
10
76.4439
20
-100.178
11
76.4422
21
-100.181
0
LINE
8
BLACK
6
CONTINUOUS
10
76.4422
20
-100.181
11
76.4405
21
-100.191
0
LINE
8
BLACK
6
CONTINUOUS
10
76.4405
20
-100.191
11
76.428
21
-100.206
0
LINE
8
BLACK
6
CONTINUOUS
10
76.428
20
-100.206
11
76.4182
21
-100.222
0
LINE
8
BLACK
6
CONTINUOUS
10
76.4182
20
-100.222
11
76.4119
21
-100.225
0
LINE
8
BLACK
6
CONTINUOUS
10
76.4119
20
-100.225
11
76.4075
21
-100.23
0
LINE
8
BLACK
6
CONTINUOUS
10
76.4075
20
-100.23
11
76.3883
21
-100.233
0
LINE
8
BLACK
6
CONTINUOUS
10
76.3883
20
-100.233
11
76.37
21
-100.24
0
LINE
8
BLACK
6
CONTINUOUS
10
76.37
20
-100.24
11
75.37
21
-100.24
0
LINE
8
BLACK
6
CONTINUOUS
10
75.37
20
-100.24
11
75.3443
21
-100.235
0
LINE
8
BLACK
6
CONTINUOUS
10
75.3443
20
-100.235
11
75.305
21
-100.203
0
LINE
8
BLACK
6
CONTINUOUS
10
75.305
20
-100.203
11
75.2961
21
-100.152
0
LINE
8
BLACK
6
CONTINUOUS
10
75.2961
20
-100.152
11
75.3218
21
-100.108
0
LINE
8
BLACK
6
CONTINUOUS
10
75.3218
20
-100.108
11
75.37
21
-100.09
0
LINE
8
BLACK
6
CONTINUOUS
10
75.37
20
-100.09
11
76.295
21
-100.09
0
LINE
8
BLACK
6
CONTINUOUS
10
76.295
20
-100.09
11
76.295
21
-99.165
0
LINE
8
BLACK
6
CONTINUOUS
10
76.295
20
-99.165
11
76.2995
21
-99.1393
0
LINE
8
BLACK
6
CONTINUOUS
10
76.2995
20
-99.1393
11
76.3325
21
-99.1
0
LINE
8
BLACK
6
CONTINUOUS
10
76.3325
20
-99.1
11
76.383
21
-99.0911
0
LINE
8
BLACK
6
CONTINUOUS
10
59.761
20
-99.5035
11
59.8003
21
-99.5365
0
LINE
8
BLACK
6
CONTINUOUS
10
59.8003
20
-99.5365
11
59.8092
21
-99.587
0
LINE
8
BLACK
6
CONTINUOUS
10
59.8092
20
-99.587
11
59.7835
21
-99.6315
0
LINE
8
BLACK
6
CONTINUOUS
10
59.7835
20
-99.6315
11
59.7353
21
-99.649
0
LINE
8
BLACK
6
CONTINUOUS
10
59.7353
20
-99.649
11
58.5447
21
-99.649
0
LINE
8
BLACK
6
CONTINUOUS
10
58.5447
20
-99.649
11
58.519
21
-99.6445
0
LINE
8
BLACK
6
CONTINUOUS
10
58.519
20
-99.6445
11
58.4797
21
-99.6115
0
LINE
8
BLACK
6
CONTINUOUS
10
58.4797
20
-99.6115
11
58.4708
21
-99.561
0
LINE
8
BLACK
6
CONTINUOUS
10
58.4708
20
-99.561
11
58.4965
21
-99.5165
0
LINE
8
BLACK
6
CONTINUOUS
10
58.4965
20
-99.5165
11
58.5447
21
-99.499
0
LINE
8
BLACK
6
CONTINUOUS
10
58.5447
20
-99.499
11
59.7353
21
-99.499
0
LINE
8
BLACK
6
CONTINUOUS
10
59.7353
20
-99.499
11
59.761
21
-99.5035
0
LINE
8
BLACK
6
CONTINUOUS
10
59.761
20
-98.5718
11
59.8003
21
-98.6048
0
LINE
8
BLACK
6
CONTINUOUS
10
59.8003
20
-98.6048
11
59.8092
21
-98.6553
0
LINE
8
BLACK
6
CONTINUOUS
10
59.8092
20
-98.6553
11
59.7835
21
-98.6998
0
LINE
8
BLACK
6
CONTINUOUS
10
59.7835
20
-98.6998
11
59.7353
21
-98.7173
0
LINE
8
BLACK
6
CONTINUOUS
10
59.7353
20
-98.7173
11
58.5447
21
-98.7173
0
LINE
8
BLACK
6
CONTINUOUS
10
58.5447
20
-98.7173
11
58.519
21
-98.7128
0
LINE
8
BLACK
6
CONTINUOUS
10
58.519
20
-98.7128
11
58.4797
21
-98.6798
0
LINE
8
BLACK
6
CONTINUOUS
10
58.4797
20
-98.6798
11
58.4708
21
-98.6293
0
LINE
8
BLACK
6
CONTINUOUS
10
58.4708
20
-98.6293
11
58.4965
21
-98.5848
0
LINE
8
BLACK
6
CONTINUOUS
10
58.4965
20
-98.5848
11
58.5447
21
-98.5673
0
LINE
8
BLACK
6
CONTINUOUS
10
58.5447
20
-98.5673
11
59.7353
21
-98.5673
0
LINE
8
BLACK
6
CONTINUOUS
10
59.7353
20
-98.5673
11
59.761
21
-98.5718
0
LINE
8
BLACK
6
CONTINUOUS
10
135.396
20
-97.2449
11
135.435
21
-97.2779
0
LINE
8
BLACK
6
CONTINUOUS
10
135.435
20
-97.2779
11
135.444
21
-97.3284
0
LINE
8
BLACK
6
CONTINUOUS
10
135.444
20
-97.3284
11
135.418
21
-97.3729
0
LINE
8
BLACK
6
CONTINUOUS
10
135.418
20
-97.3729
11
135.37
21
-97.3904
0
LINE
8
BLACK
6
CONTINUOUS
10
135.37
20
-97.3904
11
134.445
21
-97.3904
0
LINE
8
BLACK
6
CONTINUOUS
10
134.445
20
-97.3904
11
134.445
21
-98.3154
0
LINE
8
BLACK
6
CONTINUOUS
10
134.445
20
-98.3154
11
134.44
21
-98.3411
0
LINE
8
BLACK
6
CONTINUOUS
10
134.44
20
-98.3411
11
134.407
21
-98.3804
0
LINE
8
BLACK
6
CONTINUOUS
10
134.407
20
-98.3804
11
134.357
21
-98.3893
0
LINE
8
BLACK
6
CONTINUOUS
10
134.357
20
-98.3893
11
134.313
21
-98.3636
0
LINE
8
BLACK
6
CONTINUOUS
10
134.313
20
-98.3636
11
134.295
21
-98.3154
0
LINE
8
BLACK
6
CONTINUOUS
10
134.295
20
-98.3154
11
134.295
21
-97.3154
0
LINE
8
BLACK
6
CONTINUOUS
10
134.295
20
-97.3154
11
134.297
21
-97.3057
0
LINE
8
BLACK
6
CONTINUOUS
10
134.297
20
-97.3057
11
134.296
21
-97.3024
0
LINE
8
BLACK
6
CONTINUOUS
10
134.296
20
-97.3024
11
134.298
21
-97.2995
0
LINE
8
BLACK
6
CONTINUOUS
10
134.298
20
-97.2995
11
134.3
21
-97.2897
0
LINE
8
BLACK
6
CONTINUOUS
10
134.3
20
-97.2897
11
134.312
21
-97.2748
0
LINE
8
BLACK
6
CONTINUOUS
10
134.312
20
-97.2748
11
134.322
21
-97.2579
0
LINE
8
BLACK
6
CONTINUOUS
10
134.322
20
-97.2579
11
134.328
21
-97.2556
0
LINE
8
BLACK
6
CONTINUOUS
10
134.328
20
-97.2556
11
134.332
21
-97.2504
0
LINE
8
BLACK
6
CONTINUOUS
10
134.332
20
-97.2504
11
134.352
21
-97.2471
0
LINE
8
BLACK
6
CONTINUOUS
10
134.352
20
-97.2471
11
134.37
21
-97.2404
0
LINE
8
BLACK
6
CONTINUOUS
10
134.37
20
-97.2404
11
135.37
21
-97.2404
0
LINE
8
BLACK
6
CONTINUOUS
10
135.37
20
-97.2404
11
135.396
21
-97.2449
0
LINE
8
BLACK
6
CONTINUOUS
10
148.38
20
-97.2421
11
148.383
21
-97.2415
0
LINE
8
BLACK
6
CONTINUOUS
10
148.383
20
-97.2415
11
148.386
21
-97.2432
0
LINE
8
BLACK
6
CONTINUOUS
10
148.386
20
-97.2432
11
148.396
21
-97.2449
0
LINE
8
BLACK
6
CONTINUOUS
10
148.396
20
-97.2449
11
148.411
21
-97.2574
0
LINE
8
BLACK
6
CONTINUOUS
10
148.411
20
-97.2574
11
148.427
21
-97.2672
0
LINE
8
BLACK
6
CONTINUOUS
10
148.427
20
-97.2672
11
148.43
21
-97.2735
0
LINE
8
BLACK
6
CONTINUOUS
10
148.43
20
-97.2735
11
148.435
21
-97.2779
0
LINE
8
BLACK
6
CONTINUOUS
10
148.435
20
-97.2779
11
148.438
21
-97.2971
0
LINE
8
BLACK
6
CONTINUOUS
10
148.438
20
-97.2971
11
148.445
21
-97.3154
0
LINE
8
BLACK
6
CONTINUOUS
10
148.445
20
-97.3154
11
148.445
21
-98.3154
0
LINE
8
BLACK
6
CONTINUOUS
10
148.445
20
-98.3154
11
148.44
21
-98.3411
0
LINE
8
BLACK
6
CONTINUOUS
10
148.44
20
-98.3411
11
148.407
21
-98.3804
0
LINE
8
BLACK
6
CONTINUOUS
10
148.407
20
-98.3804
11
148.357
21
-98.3893
0
LINE
8
BLACK
6
CONTINUOUS
10
148.357
20
-98.3893
11
148.313
21
-98.3636
0
LINE
8
BLACK
6
CONTINUOUS
10
148.313
20
-98.3636
11
148.295
21
-98.3154
0
LINE
8
BLACK
6
CONTINUOUS
10
148.295
20
-98.3154
11
148.295
21
-97.3904
0
LINE
8
BLACK
6
CONTINUOUS
10
148.295
20
-97.3904
11
147.37
21
-97.3904
0
LINE
8
BLACK
6
CONTINUOUS
10
147.37
20
-97.3904
11
147.344
21
-97.3859
0
LINE
8
BLACK
6
CONTINUOUS
10
147.344
20
-97.3859
11
147.305
21
-97.3529
0
LINE
8
BLACK
6
CONTINUOUS
10
147.305
20
-97.3529
11
147.296
21
-97.3024
0
LINE
8
BLACK
6
CONTINUOUS
10
147.296
20
-97.3024
11
147.322
21
-97.2579
0
LINE
8
BLACK
6
CONTINUOUS
10
147.322
20
-97.2579
11
147.37
21
-97.2404
0
LINE
8
BLACK
6
CONTINUOUS
10
147.37
20
-97.2404
11
148.37
21
-97.2404
0
LINE
8
BLACK
6
CONTINUOUS
10
148.37
20
-97.2404
11
148.38
21
-97.2421
0
LINE
8
BLACK
6
CONTINUOUS
10
117.396
20
-94.6949
11
117.435
21
-94.7279
0
LINE
8
BLACK
6
CONTINUOUS
10
117.435
20
-94.7279
11
117.444
21
-94.7784
0
LINE
8
BLACK
6
CONTINUOUS
10
117.444
20
-94.7784
11
117.418
21
-94.8229
0
LINE
8
BLACK
6
CONTINUOUS
10
117.418
20
-94.8229
11
117.37
21
-94.8404
0
LINE
8
BLACK
6
CONTINUOUS
10
117.37
20
-94.8404
11
116.445
21
-94.8404
0
LINE
8
BLACK
6
CONTINUOUS
10
116.445
20
-94.8404
11
116.445
21
-95.7654
0
LINE
8
BLACK
6
CONTINUOUS
10
116.445
20
-95.7654
11
116.44
21
-95.7911
0
LINE
8
BLACK
6
CONTINUOUS
10
116.44
20
-95.7911
11
116.407
21
-95.8304
0
LINE
8
BLACK
6
CONTINUOUS
10
116.407
20
-95.8304
11
116.357
21
-95.8393
0
LINE
8
BLACK
6
CONTINUOUS
10
116.357
20
-95.8393
11
116.313
21
-95.8136
0
LINE
8
BLACK
6
CONTINUOUS
10
116.313
20
-95.8136
11
116.295
21
-95.7654
0
LINE
8
BLACK
6
CONTINUOUS
10
116.295
20
-95.7654
11
116.295
21
-94.7654
0
LINE
8
BLACK
6
CONTINUOUS
10
116.295
20
-94.7654
11
116.297
21
-94.7557
0
LINE
8
BLACK
6
CONTINUOUS
10
116.297
20
-94.7557
11
116.296
21
-94.7524
0
LINE
8
BLACK
6
CONTINUOUS
10
116.296
20
-94.7524
11
116.298
21
-94.7495
0
LINE
8
BLACK
6
CONTINUOUS
10
116.298
20
-94.7495
11
116.3
21
-94.7397
0
LINE
8
BLACK
6
CONTINUOUS
10
116.3
20
-94.7397
11
116.312
21
-94.7248
0
LINE
8
BLACK
6
CONTINUOUS
10
116.312
20
-94.7248
11
116.322
21
-94.7079
0
LINE
8
BLACK
6
CONTINUOUS
10
116.322
20
-94.7079
11
116.328
21
-94.7056
0
LINE
8
BLACK
6
CONTINUOUS
10
116.328
20
-94.7056
11
116.332
21
-94.7004
0
LINE
8
BLACK
6
CONTINUOUS
10
116.332
20
-94.7004
11
116.352
21
-94.6971
0
LINE
8
BLACK
6
CONTINUOUS
10
116.352
20
-94.6971
11
116.37
21
-94.6904
0
LINE
8
BLACK
6
CONTINUOUS
10
116.37
20
-94.6904
11
117.37
21
-94.6904
0
LINE
8
BLACK
6
CONTINUOUS
10
117.37
20
-94.6904
11
117.396
21
-94.6949
0
LINE
8
BLACK
6
CONTINUOUS
10
130.38
20
-94.6921
11
130.383
21
-94.6915
0
LINE
8
BLACK
6
CONTINUOUS
10
130.383
20
-94.6915
11
130.386
21
-94.6932
0
LINE
8
BLACK
6
CONTINUOUS
10
130.386
20
-94.6932
11
130.396
21
-94.6949
0
LINE
8
BLACK
6
CONTINUOUS
10
130.396
20
-94.6949
11
130.411
21
-94.7074
0
LINE
8
BLACK
6
CONTINUOUS
10
130.411
20
-94.7074
11
130.427
21
-94.7172
0
LINE
8
BLACK
6
CONTINUOUS
10
130.427
20
-94.7172
11
130.43
21
-94.7235
0
LINE
8
BLACK
6
CONTINUOUS
10
130.43
20
-94.7235
11
130.435
21
-94.7279
0
LINE
8
BLACK
6
CONTINUOUS
10
130.435
20
-94.7279
11
130.438
21
-94.7471
0
LINE
8
BLACK
6
CONTINUOUS
10
130.438
20
-94.7471
11
130.445
21
-94.7654
0
LINE
8
BLACK
6
CONTINUOUS
10
130.445
20
-94.7654
11
130.445
21
-95.7654
0
LINE
8
BLACK
6
CONTINUOUS
10
130.445
20
-95.7654
11
130.44
21
-95.7911
0
LINE
8
BLACK
6
CONTINUOUS
10
130.44
20
-95.7911
11
130.407
21
-95.8304
0
LINE
8
BLACK
6
CONTINUOUS
10
130.407
20
-95.8304
11
130.357
21
-95.8393
0
LINE
8
BLACK
6
CONTINUOUS
10
130.357
20
-95.8393
11
130.313
21
-95.8136
0
LINE
8
BLACK
6
CONTINUOUS
10
130.313
20
-95.8136
11
130.295
21
-95.7654
0
LINE
8
BLACK
6
CONTINUOUS
10
130.295
20
-95.7654
11
130.295
21
-94.8404
0
LINE
8
BLACK
6
CONTINUOUS
10
130.295
20
-94.8404
11
129.37
21
-94.8404
0
LINE
8
BLACK
6
CONTINUOUS
10
129.37
20
-94.8404
11
129.344
21
-94.8359
0
LINE
8
BLACK
6
CONTINUOUS
10
129.344
20
-94.8359
11
129.305
21
-94.8029
0
LINE
8
BLACK
6
CONTINUOUS
10
129.305
20
-94.8029
11
129.296
21
-94.7524
0
LINE
8
BLACK
6
CONTINUOUS
10
129.296
20
-94.7524
11
129.322
21
-94.7079
0
LINE
8
BLACK
6
CONTINUOUS
10
129.322
20
-94.7079
11
129.37
21
-94.6904
0
LINE
8
BLACK
6
CONTINUOUS
10
129.37
20
-94.6904
11
130.37
21
-94.6904
0
LINE
8
BLACK
6
CONTINUOUS
10
130.37
20
-94.6904
11
130.38
21
-94.6921
0
LINE
8
BLACK
6
CONTINUOUS
10
134.383
20
-93.1411
11
134.427
21
-93.1668
0
LINE
8
BLACK
6
CONTINUOUS
10
134.427
20
-93.1668
11
134.445
21
-93.215
0
LINE
8
BLACK
6
CONTINUOUS
10
134.445
20
-93.215
11
134.445
21
-94.14
0
LINE
8
BLACK
6
CONTINUOUS
10
134.445
20
-94.14
11
135.37
21
-94.14
0
LINE
8
BLACK
6
CONTINUOUS
10
135.37
20
-94.14
11
135.396
21
-94.1445
0
LINE
8
BLACK
6
CONTINUOUS
10
135.396
20
-94.1445
11
135.435
21
-94.1775
0
LINE
8
BLACK
6
CONTINUOUS
10
135.435
20
-94.1775
11
135.444
21
-94.228
0
LINE
8
BLACK
6
CONTINUOUS
10
135.444
20
-94.228
11
135.418
21
-94.2725
0
LINE
8
BLACK
6
CONTINUOUS
10
135.418
20
-94.2725
11
135.37
21
-94.29
0
LINE
8
BLACK
6
CONTINUOUS
10
135.37
20
-94.29
11
134.37
21
-94.29
0
LINE
8
BLACK
6
CONTINUOUS
10
134.37
20
-94.29
11
134.36
21
-94.2883
0
LINE
8
BLACK
6
CONTINUOUS
10
134.36
20
-94.2883
11
134.357
21
-94.2889
0
LINE
8
BLACK
6
CONTINUOUS
10
134.357
20
-94.2889
11
134.354
21
-94.2872
0
LINE
8
BLACK
6
CONTINUOUS
10
134.354
20
-94.2872
11
134.344
21
-94.2855
0
LINE
8
BLACK
6
CONTINUOUS
10
134.344
20
-94.2855
11
134.329
21
-94.273
0
LINE
8
BLACK
6
CONTINUOUS
10
134.329
20
-94.273
11
134.313
21
-94.2632
0
LINE
8
BLACK
6
CONTINUOUS
10
134.313
20
-94.2632
11
134.31
21
-94.2569
0
LINE
8
BLACK
6
CONTINUOUS
10
134.31
20
-94.2569
11
134.305
21
-94.2525
0
LINE
8
BLACK
6
CONTINUOUS
10
134.305
20
-94.2525
11
134.302
21
-94.2333
0
LINE
8
BLACK
6
CONTINUOUS
10
134.302
20
-94.2333
11
134.295
21
-94.215
0
LINE
8
BLACK
6
CONTINUOUS
10
134.295
20
-94.215
11
134.295
21
-93.215
0
LINE
8
BLACK
6
CONTINUOUS
10
134.295
20
-93.215
11
134.3
21
-93.1893
0
LINE
8
BLACK
6
CONTINUOUS
10
134.3
20
-93.1893
11
134.332
21
-93.15
0
LINE
8
BLACK
6
CONTINUOUS
10
134.332
20
-93.15
11
134.383
21
-93.1411
0
LINE
8
BLACK
6
CONTINUOUS
10
148.383
20
-93.1411
11
148.427
21
-93.1668
0
LINE
8
BLACK
6
CONTINUOUS
10
148.427
20
-93.1668
11
148.445
21
-93.215
0
LINE
8
BLACK
6
CONTINUOUS
10
148.445
20
-93.215
11
148.445
21
-94.215
0
LINE
8
BLACK
6
CONTINUOUS
10
148.445
20
-94.215
11
148.443
21
-94.2247
0
LINE
8
BLACK
6
CONTINUOUS
10
148.443
20
-94.2247
11
148.444
21
-94.228
0
LINE
8
BLACK
6
CONTINUOUS
10
148.444
20
-94.228
11
148.442
21
-94.2309
0
LINE
8
BLACK
6
CONTINUOUS
10
148.442
20
-94.2309
11
148.44
21
-94.2407
0
LINE
8
BLACK
6
CONTINUOUS
10
148.44
20
-94.2407
11
148.428
21
-94.2556
0
LINE
8
BLACK
6
CONTINUOUS
10
148.428
20
-94.2556
11
148.418
21
-94.2725
0
LINE
8
BLACK
6
CONTINUOUS
10
148.418
20
-94.2725
11
148.412
21
-94.2748
0
LINE
8
BLACK
6
CONTINUOUS
10
148.412
20
-94.2748
11
148.407
21
-94.28
0
LINE
8
BLACK
6
CONTINUOUS
10
148.407
20
-94.28
11
148.388
21
-94.2833
0
LINE
8
BLACK
6
CONTINUOUS
10
148.388
20
-94.2833
11
148.37
21
-94.29
0
LINE
8
BLACK
6
CONTINUOUS
10
148.37
20
-94.29
11
147.37
21
-94.29
0
LINE
8
BLACK
6
CONTINUOUS
10
147.37
20
-94.29
11
147.344
21
-94.2855
0
LINE
8
BLACK
6
CONTINUOUS
10
147.344
20
-94.2855
11
147.305
21
-94.2525
0
LINE
8
BLACK
6
CONTINUOUS
10
147.305
20
-94.2525
11
147.296
21
-94.202
0
LINE
8
BLACK
6
CONTINUOUS
10
147.296
20
-94.202
11
147.322
21
-94.1575
0
LINE
8
BLACK
6
CONTINUOUS
10
147.322
20
-94.1575
11
147.37
21
-94.14
0
LINE
8
BLACK
6
CONTINUOUS
10
147.37
20
-94.14
11
148.295
21
-94.14
0
LINE
8
BLACK
6
CONTINUOUS
10
148.295
20
-94.14
11
148.295
21
-93.215
0
LINE
8
BLACK
6
CONTINUOUS
10
148.295
20
-93.215
11
148.3
21
-93.1893
0
LINE
8
BLACK
6
CONTINUOUS
10
148.3
20
-93.1893
11
148.332
21
-93.15
0
LINE
8
BLACK
6
CONTINUOUS
10
148.332
20
-93.15
11
148.383
21
-93.1411
0
LINE
8
BLACK
6
CONTINUOUS
10
81.3957
20
-92.1449
11
81.435
21
-92.1779
0
LINE
8
BLACK
6
CONTINUOUS
10
81.435
20
-92.1779
11
81.4439
21
-92.2284
0
LINE
8
BLACK
6
CONTINUOUS
10
81.4439
20
-92.2284
11
81.4182
21
-92.2729
0
LINE
8
BLACK
6
CONTINUOUS
10
81.4182
20
-92.2729
11
81.37
21
-92.2904
0
LINE
8
BLACK
6
CONTINUOUS
10
81.37
20
-92.2904
11
80.445
21
-92.2904
0
LINE
8
BLACK
6
CONTINUOUS
10
80.445
20
-92.2904
11
80.445
21
-93.2154
0
LINE
8
BLACK
6
CONTINUOUS
10
80.445
20
-93.2154
11
80.4405
21
-93.2411
0
LINE
8
BLACK
6
CONTINUOUS
10
80.4405
20
-93.2411
11
80.4075
21
-93.2804
0
LINE
8
BLACK
6
CONTINUOUS
10
80.4075
20
-93.2804
11
80.357
21
-93.2893
0
LINE
8
BLACK
6
CONTINUOUS
10
80.357
20
-93.2893
11
80.3125
21
-93.2636
0
LINE
8
BLACK
6
CONTINUOUS
10
80.3125
20
-93.2636
11
80.295
21
-93.2154
0
LINE
8
BLACK
6
CONTINUOUS
10
80.295
20
-93.2154
11
80.295
21
-92.2154
0
LINE
8
BLACK
6
CONTINUOUS
10
80.295
20
-92.2154
11
80.2967
21
-92.2057
0
LINE
8
BLACK
6
CONTINUOUS
10
80.2967
20
-92.2057
11
80.2961
21
-92.2024
0
LINE
8
BLACK
6
CONTINUOUS
10
80.2961
20
-92.2024
11
80.2978
21
-92.1995
0
LINE
8
BLACK
6
CONTINUOUS
10
80.2978
20
-92.1995
11
80.2995
21
-92.1897
0
LINE
8
BLACK
6
CONTINUOUS
10
80.2995
20
-92.1897
11
80.312
21
-92.1748
0
LINE
8
BLACK
6
CONTINUOUS
10
80.312
20
-92.1748
11
80.3218
21
-92.1579
0
LINE
8
BLACK
6
CONTINUOUS
10
80.3218
20
-92.1579
11
80.3281
21
-92.1556
0
LINE
8
BLACK
6
CONTINUOUS
10
80.3281
20
-92.1556
11
80.3325
21
-92.1504
0
LINE
8
BLACK
6
CONTINUOUS
10
80.3325
20
-92.1504
11
80.3517
21
-92.1471
0
LINE
8
BLACK
6
CONTINUOUS
10
80.3517
20
-92.1471
11
80.37
21
-92.1404
0
LINE
8
BLACK
6
CONTINUOUS
10
80.37
20
-92.1404
11
81.37
21
-92.1404
0
LINE
8
BLACK
6
CONTINUOUS
10
81.37
20
-92.1404
11
81.3957
21
-92.1449
0
LINE
8
BLACK
6
CONTINUOUS
10
94.3797
20
-92.1421
11
94.383
21
-92.1415
0
LINE
8
BLACK
6
CONTINUOUS
10
94.383
20
-92.1415
11
94.3859
21
-92.1432
0
LINE
8
BLACK
6
CONTINUOUS
10
94.3859
20
-92.1432
11
94.3957
21
-92.1449
0
LINE
8
BLACK
6
CONTINUOUS
10
94.3957
20
-92.1449
11
94.4106
21
-92.1574
0
LINE
8
BLACK
6
CONTINUOUS
10
94.4106
20
-92.1574
11
94.4275
21
-92.1672
0
LINE
8
BLACK
6
CONTINUOUS
10
94.4275
20
-92.1672
11
94.4298
21
-92.1735
0
LINE
8
BLACK
6
CONTINUOUS
10
94.4298
20
-92.1735
11
94.435
21
-92.1779
0
LINE
8
BLACK
6
CONTINUOUS
10
94.435
20
-92.1779
11
94.4383
21
-92.1971
0
LINE
8
BLACK
6
CONTINUOUS
10
94.4383
20
-92.1971
11
94.445
21
-92.2154
0
LINE
8
BLACK
6
CONTINUOUS
10
94.445
20
-92.2154
11
94.445
21
-93.2154
0
LINE
8
BLACK
6
CONTINUOUS
10
94.445
20
-93.2154
11
94.4405
21
-93.2411
0
LINE
8
BLACK
6
CONTINUOUS
10
94.4405
20
-93.2411
11
94.4075
21
-93.2804
0
LINE
8
BLACK
6
CONTINUOUS
10
94.4075
20
-93.2804
11
94.357
21
-93.2893
0
LINE
8
BLACK
6
CONTINUOUS
10
94.357
20
-93.2893
11
94.3125
21
-93.2636
0
LINE
8
BLACK
6
CONTINUOUS
10
94.3125
20
-93.2636
11
94.295
21
-93.2154
0
LINE
8
BLACK
6
CONTINUOUS
10
94.295
20
-93.2154
11
94.295
21
-92.2904
0
LINE
8
BLACK
6
CONTINUOUS
10
94.295
20
-92.2904
11
93.37
21
-92.2904
0
LINE
8
BLACK
6
CONTINUOUS
10
93.37
20
-92.2904
11
93.3443
21
-92.2859
0
LINE
8
BLACK
6
CONTINUOUS
10
93.3443
20
-92.2859
11
93.305
21
-92.2529
0
LINE
8
BLACK
6
CONTINUOUS
10
93.305
20
-92.2529
11
93.2961
21
-92.2024
0
LINE
8
BLACK
6
CONTINUOUS
10
93.2961
20
-92.2024
11
93.3218
21
-92.1579
0
LINE
8
BLACK
6
CONTINUOUS
10
93.3218
20
-92.1579
11
93.37
21
-92.1404
0
LINE
8
BLACK
6
CONTINUOUS
10
93.37
20
-92.1404
11
94.37
21
-92.1404
0
LINE
8
BLACK
6
CONTINUOUS
10
94.37
20
-92.1404
11
94.3797
21
-92.1421
0
LINE
8
BLACK
6
CONTINUOUS
10
116.383
20
-90.5911
11
116.427
21
-90.6168
0
LINE
8
BLACK
6
CONTINUOUS
10
116.427
20
-90.6168
11
116.445
21
-90.665
0
LINE
8
BLACK
6
CONTINUOUS
10
116.445
20
-90.665
11
116.445
21
-91.59
0
LINE
8
BLACK
6
CONTINUOUS
10
116.445
20
-91.59
11
117.37
21
-91.59
0
LINE
8
BLACK
6
CONTINUOUS
10
117.37
20
-91.59
11
117.396
21
-91.5945
0
LINE
8
BLACK
6
CONTINUOUS
10
117.396
20
-91.5945
11
117.435
21
-91.6275
0
LINE
8
BLACK
6
CONTINUOUS
10
117.435
20
-91.6275
11
117.444
21
-91.678
0
LINE
8
BLACK
6
CONTINUOUS
10
117.444
20
-91.678
11
117.418
21
-91.7225
0
LINE
8
BLACK
6
CONTINUOUS
10
117.418
20
-91.7225
11
117.37
21
-91.74
0
LINE
8
BLACK
6
CONTINUOUS
10
117.37
20
-91.74
11
116.37
21
-91.74
0
LINE
8
BLACK
6
CONTINUOUS
10
116.37
20
-91.74
11
116.36
21
-91.7383
0
LINE
8
BLACK
6
CONTINUOUS
10
116.36
20
-91.7383
11
116.357
21
-91.7389
0
LINE
8
BLACK
6
CONTINUOUS
10
116.357
20
-91.7389
11
116.354
21
-91.7372
0
LINE
8
BLACK
6
CONTINUOUS
10
116.354
20
-91.7372
11
116.344
21
-91.7355
0
LINE
8
BLACK
6
CONTINUOUS
10
116.344
20
-91.7355
11
116.329
21
-91.723
0
LINE
8
BLACK
6
CONTINUOUS
10
116.329
20
-91.723
11
116.313
21
-91.7132
0
LINE
8
BLACK
6
CONTINUOUS
10
116.313
20
-91.7132
11
116.31
21
-91.7069
0
LINE
8
BLACK
6
CONTINUOUS
10
116.31
20
-91.7069
11
116.305
21
-91.7025
0
LINE
8
BLACK
6
CONTINUOUS
10
116.305
20
-91.7025
11
116.302
21
-91.6833
0
LINE
8
BLACK
6
CONTINUOUS
10
116.302
20
-91.6833
11
116.295
21
-91.665
0
LINE
8
BLACK
6
CONTINUOUS
10
116.295
20
-91.665
11
116.295
21
-90.665
0
LINE
8
BLACK
6
CONTINUOUS
10
116.295
20
-90.665
11
116.3
21
-90.6393
0
LINE
8
BLACK
6
CONTINUOUS
10
116.3
20
-90.6393
11
116.332
21
-90.6
0
LINE
8
BLACK
6
CONTINUOUS
10
116.332
20
-90.6
11
116.383
21
-90.5911
0
LINE
8
BLACK
6
CONTINUOUS
10
130.383
20
-90.5911
11
130.427
21
-90.6168
0
LINE
8
BLACK
6
CONTINUOUS
10
130.427
20
-90.6168
11
130.445
21
-90.665
0
LINE
8
BLACK
6
CONTINUOUS
10
130.445
20
-90.665
11
130.445
21
-91.665
0
LINE
8
BLACK
6
CONTINUOUS
10
130.445
20
-91.665
11
130.443
21
-91.6747
0
LINE
8
BLACK
6
CONTINUOUS
10
130.443
20
-91.6747
11
130.444
21
-91.678
0
LINE
8
BLACK
6
CONTINUOUS
10
130.444
20
-91.678
11
130.442
21
-91.6809
0
LINE
8
BLACK
6
CONTINUOUS
10
130.442
20
-91.6809
11
130.44
21
-91.6907
0
LINE
8
BLACK
6
CONTINUOUS
10
130.44
20
-91.6907
11
130.428
21
-91.7056
0
LINE
8
BLACK
6
CONTINUOUS
10
130.428
20
-91.7056
11
130.418
21
-91.7225
0
LINE
8
BLACK
6
CONTINUOUS
10
130.418
20
-91.7225
11
130.412
21
-91.7248
0
LINE
8
BLACK
6
CONTINUOUS
10
130.412
20
-91.7248
11
130.407
21
-91.73
0
LINE
8
BLACK
6
CONTINUOUS
10
130.407
20
-91.73
11
130.388
21
-91.7333
0
LINE
8
BLACK
6
CONTINUOUS
10
130.388
20
-91.7333
11
130.37
21
-91.74
0
LINE
8
BLACK
6
CONTINUOUS
10
130.37
20
-91.74
11
129.37
21
-91.74
0
LINE
8
BLACK
6
CONTINUOUS
10
129.37
20
-91.74
11
129.344
21
-91.7355
0
LINE
8
BLACK
6
CONTINUOUS
10
129.344
20
-91.7355
11
129.305
21
-91.7025
0
LINE
8
BLACK
6
CONTINUOUS
10
129.305
20
-91.7025
11
129.296
21
-91.652
0
LINE
8
BLACK
6
CONTINUOUS
10
129.296
20
-91.652
11
129.322
21
-91.6075
0
LINE
8
BLACK
6
CONTINUOUS
10
129.322
20
-91.6075
11
129.37
21
-91.59
0
LINE
8
BLACK
6
CONTINUOUS
10
129.37
20
-91.59
11
130.295
21
-91.59
0
LINE
8
BLACK
6
CONTINUOUS
10
130.295
20
-91.59
11
130.295
21
-90.665
0
LINE
8
BLACK
6
CONTINUOUS
10
130.295
20
-90.665
11
130.3
21
-90.6393
0
LINE
8
BLACK
6
CONTINUOUS
10
130.3
20
-90.6393
11
130.332
21
-90.6
0
LINE
8
BLACK
6
CONTINUOUS
10
130.332
20
-90.6
11
130.383
21
-90.5911
0
LINE
8
BLACK
6
CONTINUOUS
10
99.3957
20
-89.5949
11
99.435
21
-89.6279
0
LINE
8
BLACK
6
CONTINUOUS
10
99.435
20
-89.6279
11
99.4439
21
-89.6784
0
LINE
8
BLACK
6
CONTINUOUS
10
99.4439
20
-89.6784
11
99.4182
21
-89.7229
0
LINE
8
BLACK
6
CONTINUOUS
10
99.4182
20
-89.7229
11
99.37
21
-89.7404
0
LINE
8
BLACK
6
CONTINUOUS
10
99.37
20
-89.7404
11
98.445
21
-89.7404
0
LINE
8
BLACK
6
CONTINUOUS
10
98.445
20
-89.7404
11
98.445
21
-90.6654
0
LINE
8
BLACK
6
CONTINUOUS
10
98.445
20
-90.6654
11
98.4405
21
-90.6911
0
LINE
8
BLACK
6
CONTINUOUS
10
98.4405
20
-90.6911
11
98.4075
21
-90.7304
0
LINE
8
BLACK
6
CONTINUOUS
10
98.4075
20
-90.7304
11
98.357
21
-90.7393
0
LINE
8
BLACK
6
CONTINUOUS
10
98.357
20
-90.7393
11
98.3125
21
-90.7136
0
LINE
8
BLACK
6
CONTINUOUS
10
98.3125
20
-90.7136
11
98.295
21
-90.6654
0
LINE
8
BLACK
6
CONTINUOUS
10
98.295
20
-90.6654
11
98.295
21
-89.6654
0
LINE
8
BLACK
6
CONTINUOUS
10
98.295
20
-89.6654
11
98.2967
21
-89.6557
0
LINE
8
BLACK
6
CONTINUOUS
10
98.2967
20
-89.6557
11
98.2961
21
-89.6524
0
LINE
8
BLACK
6
CONTINUOUS
10
98.2961
20
-89.6524
11
98.2978
21
-89.6495
0
LINE
8
BLACK
6
CONTINUOUS
10
98.2978
20
-89.6495
11
98.2995
21
-89.6397
0
LINE
8
BLACK
6
CONTINUOUS
10
98.2995
20
-89.6397
11
98.312
21
-89.6248
0
LINE
8
BLACK
6
CONTINUOUS
10
98.312
20
-89.6248
11
98.3218
21
-89.6079
0
LINE
8
BLACK
6
CONTINUOUS
10
98.3218
20
-89.6079
11
98.3281
21
-89.6056
0
LINE
8
BLACK
6
CONTINUOUS
10
98.3281
20
-89.6056
11
98.3325
21
-89.6004
0
LINE
8
BLACK
6
CONTINUOUS
10
98.3325
20
-89.6004
11
98.3517
21
-89.5971
0
LINE
8
BLACK
6
CONTINUOUS
10
98.3517
20
-89.5971
11
98.37
21
-89.5904
0
LINE
8
BLACK
6
CONTINUOUS
10
98.37
20
-89.5904
11
99.37
21
-89.5904
0
LINE
8
BLACK
6
CONTINUOUS
10
99.37
20
-89.5904
11
99.3957
21
-89.5949
0
LINE
8
BLACK
6
CONTINUOUS
10
112.38
20
-89.5921
11
112.383
21
-89.5915
0
LINE
8
BLACK
6
CONTINUOUS
10
112.383
20
-89.5915
11
112.386
21
-89.5932
0
LINE
8
BLACK
6
CONTINUOUS
10
112.386
20
-89.5932
11
112.396
21
-89.5949
0
LINE
8
BLACK
6
CONTINUOUS
10
112.396
20
-89.5949
11
112.411
21
-89.6074
0
LINE
8
BLACK
6
CONTINUOUS
10
112.411
20
-89.6074
11
112.427
21
-89.6172
0
LINE
8
BLACK
6
CONTINUOUS
10
112.427
20
-89.6172
11
112.43
21
-89.6235
0
LINE
8
BLACK
6
CONTINUOUS
10
112.43
20
-89.6235
11
112.435
21
-89.6279
0
LINE
8
BLACK
6
CONTINUOUS
10
112.435
20
-89.6279
11
112.438
21
-89.6471
0
LINE
8
BLACK
6
CONTINUOUS
10
112.438
20
-89.6471
11
112.445
21
-89.6654
0
LINE
8
BLACK
6
CONTINUOUS
10
112.445
20
-89.6654
11
112.445
21
-90.6654
0
LINE
8
BLACK
6
CONTINUOUS
10
112.445
20
-90.6654
11
112.44
21
-90.6911
0
LINE
8
BLACK
6
CONTINUOUS
10
112.44
20
-90.6911
11
112.407
21
-90.7304
0
LINE
8
BLACK
6
CONTINUOUS
10
112.407
20
-90.7304
11
112.357
21
-90.7393
0
LINE
8
BLACK
6
CONTINUOUS
10
112.357
20
-90.7393
11
112.313
21
-90.7136
0
LINE
8
BLACK
6
CONTINUOUS
10
112.313
20
-90.7136
11
112.295
21
-90.6654
0
LINE
8
BLACK
6
CONTINUOUS
10
112.295
20
-90.6654
11
112.295
21
-89.7404
0
LINE
8
BLACK
6
CONTINUOUS
10
112.295
20
-89.7404
11
111.37
21
-89.7404
0
LINE
8
BLACK
6
CONTINUOUS
10
111.37
20
-89.7404
11
111.344
21
-89.7359
0
LINE
8
BLACK
6
CONTINUOUS
10
111.344
20
-89.7359
11
111.305
21
-89.7029
0
LINE
8
BLACK
6
CONTINUOUS
10
111.305
20
-89.7029
11
111.296
21
-89.6524
0
LINE
8
BLACK
6
CONTINUOUS
10
111.296
20
-89.6524
11
111.322
21
-89.6079
0
LINE
8
BLACK
6
CONTINUOUS
10
111.322
20
-89.6079
11
111.37
21
-89.5904
0
LINE
8
BLACK
6
CONTINUOUS
10
111.37
20
-89.5904
11
112.37
21
-89.5904
0
LINE
8
BLACK
6
CONTINUOUS
10
112.37
20
-89.5904
11
112.38
21
-89.5921
0
LINE
8
BLACK
6
CONTINUOUS
10
42.8957
20
-89.4945
11
42.935
21
-89.5275
0
LINE
8
BLACK
6
CONTINUOUS
10
42.935
20
-89.5275
11
42.9439
21
-89.578
0
LINE
8
BLACK
6
CONTINUOUS
10
42.9439
20
-89.578
11
42.9182
21
-89.6225
0
LINE
8
BLACK
6
CONTINUOUS
10
42.9182
20
-89.6225
11
42.87
21
-89.64
0
LINE
8
BLACK
6
CONTINUOUS
10
42.87
20
-89.64
11
41.945
21
-89.64
0
LINE
8
BLACK
6
CONTINUOUS
10
41.945
20
-89.64
11
41.945
21
-90.565
0
LINE
8
BLACK
6
CONTINUOUS
10
41.945
20
-90.565
11
41.9405
21
-90.5907
0
LINE
8
BLACK
6
CONTINUOUS
10
41.9405
20
-90.5907
11
41.9075
21
-90.63
0
LINE
8
BLACK
6
CONTINUOUS
10
41.9075
20
-90.63
11
41.857
21
-90.6389
0
LINE
8
BLACK
6
CONTINUOUS
10
41.857
20
-90.6389
11
41.8125
21
-90.6132
0
LINE
8
BLACK
6
CONTINUOUS
10
41.8125
20
-90.6132
11
41.795
21
-90.565
0
LINE
8
BLACK
6
CONTINUOUS
10
41.795
20
-90.565
11
41.795
21
-89.565
0
LINE
8
BLACK
6
CONTINUOUS
10
41.795
20
-89.565
11
41.7967
21
-89.5553
0
LINE
8
BLACK
6
CONTINUOUS
10
41.7967
20
-89.5553
11
41.7961
21
-89.552
0
LINE
8
BLACK
6
CONTINUOUS
10
41.7961
20
-89.552
11
41.7978
21
-89.5491
0
LINE
8
BLACK
6
CONTINUOUS
10
41.7978
20
-89.5491
11
41.7995
21
-89.5393
0
LINE
8
BLACK
6
CONTINUOUS
10
41.7995
20
-89.5393
11
41.812
21
-89.5244
0
LINE
8
BLACK
6
CONTINUOUS
10
41.812
20
-89.5244
11
41.8218
21
-89.5075
0
LINE
8
BLACK
6
CONTINUOUS
10
41.8218
20
-89.5075
11
41.8281
21
-89.5052
0
LINE
8
BLACK
6
CONTINUOUS
10
41.8281
20
-89.5052
11
41.8325
21
-89.5
0
LINE
8
BLACK
6
CONTINUOUS
10
41.8325
20
-89.5
11
41.8517
21
-89.4967
0
LINE
8
BLACK
6
CONTINUOUS
10
41.8517
20
-89.4967
11
41.87
21
-89.49
0
LINE
8
BLACK
6
CONTINUOUS
10
41.87
20
-89.49
11
42.87
21
-89.49
0
LINE
8
BLACK
6
CONTINUOUS
10
42.87
20
-89.49
11
42.8957
21
-89.4945
0
LINE
8
BLACK
6
CONTINUOUS
10
55.8797
20
-89.4917
11
55.883
21
-89.4911
0
LINE
8
BLACK
6
CONTINUOUS
10
55.883
20
-89.4911
11
55.8859
21
-89.4928
0
LINE
8
BLACK
6
CONTINUOUS
10
55.8859
20
-89.4928
11
55.8957
21
-89.4945
0
LINE
8
BLACK
6
CONTINUOUS
10
55.8957
20
-89.4945
11
55.9106
21
-89.507
0
LINE
8
BLACK
6
CONTINUOUS
10
55.9106
20
-89.507
11
55.9275
21
-89.5168
0
LINE
8
BLACK
6
CONTINUOUS
10
55.9275
20
-89.5168
11
55.9298
21
-89.5231
0
LINE
8
BLACK
6
CONTINUOUS
10
55.9298
20
-89.5231
11
55.935
21
-89.5275
0
LINE
8
BLACK
6
CONTINUOUS
10
55.935
20
-89.5275
11
55.9383
21
-89.5467
0
LINE
8
BLACK
6
CONTINUOUS
10
55.9383
20
-89.5467
11
55.945
21
-89.565
0
LINE
8
BLACK
6
CONTINUOUS
10
55.945
20
-89.565
11
55.945
21
-90.565
0
LINE
8
BLACK
6
CONTINUOUS
10
55.945
20
-90.565
11
55.9405
21
-90.5907
0
LINE
8
BLACK
6
CONTINUOUS
10
55.9405
20
-90.5907
11
55.9075
21
-90.63
0
LINE
8
BLACK
6
CONTINUOUS
10
55.9075
20
-90.63
11
55.857
21
-90.6389
0
LINE
8
BLACK
6
CONTINUOUS
10
55.857
20
-90.6389
11
55.8125
21
-90.6132
0
LINE
8
BLACK
6
CONTINUOUS
10
55.8125
20
-90.6132
11
55.795
21
-90.565
0
LINE
8
BLACK
6
CONTINUOUS
10
55.795
20
-90.565
11
55.795
21
-89.64
0
LINE
8
BLACK
6
CONTINUOUS
10
55.795
20
-89.64
11
54.87
21
-89.64
0
LINE
8
BLACK
6
CONTINUOUS
10
54.87
20
-89.64
11
54.8443
21
-89.6355
0
LINE
8
BLACK
6
CONTINUOUS
10
54.8443
20
-89.6355
11
54.805
21
-89.6025
0
LINE
8
BLACK
6
CONTINUOUS
10
54.805
20
-89.6025
11
54.7961
21
-89.552
0
LINE
8
BLACK
6
CONTINUOUS
10
54.7961
20
-89.552
11
54.8218
21
-89.5075
0
LINE
8
BLACK
6
CONTINUOUS
10
54.8218
20
-89.5075
11
54.87
21
-89.49
0
LINE
8
BLACK
6
CONTINUOUS
10
54.87
20
-89.49
11
55.87
21
-89.49
0
LINE
8
BLACK
6
CONTINUOUS
10
55.87
20
-89.49
11
55.8797
21
-89.4917
0
LINE
8
BLACK
6
CONTINUOUS
10
80.383
20
-88.0411
11
80.4275
21
-88.0668
0
LINE
8
BLACK
6
CONTINUOUS
10
80.4275
20
-88.0668
11
80.445
21
-88.115
0
LINE
8
BLACK
6
CONTINUOUS
10
80.445
20
-88.115
11
80.445
21
-89.04
0
LINE
8
BLACK
6
CONTINUOUS
10
80.445
20
-89.04
11
81.37
21
-89.04
0
LINE
8
BLACK
6
CONTINUOUS
10
81.37
20
-89.04
11
81.3957
21
-89.0445
0
LINE
8
BLACK
6
CONTINUOUS
10
81.3957
20
-89.0445
11
81.435
21
-89.0775
0
LINE
8
BLACK
6
CONTINUOUS
10
81.435
20
-89.0775
11
81.4439
21
-89.128
0
LINE
8
BLACK
6
CONTINUOUS
10
81.4439
20
-89.128
11
81.4182
21
-89.1725
0
LINE
8
BLACK
6
CONTINUOUS
10
81.4182
20
-89.1725
11
81.37
21
-89.19
0
LINE
8
BLACK
6
CONTINUOUS
10
81.37
20
-89.19
11
80.37
21
-89.19
0
LINE
8
BLACK
6
CONTINUOUS
10
80.37
20
-89.19
11
80.3603
21
-89.1883
0
LINE
8
BLACK
6
CONTINUOUS
10
80.3603
20
-89.1883
11
80.357
21
-89.1889
0
LINE
8
BLACK
6
CONTINUOUS
10
80.357
20
-89.1889
11
80.3541
21
-89.1872
0
LINE
8
BLACK
6
CONTINUOUS
10
80.3541
20
-89.1872
11
80.3443
21
-89.1855
0
LINE
8
BLACK
6
CONTINUOUS
10
80.3443
20
-89.1855
11
80.3294
21
-89.173
0
LINE
8
BLACK
6
CONTINUOUS
10
80.3294
20
-89.173
11
80.3125
21
-89.1632
0
LINE
8
BLACK
6
CONTINUOUS
10
80.3125
20
-89.1632
11
80.3102
21
-89.1568
0
LINE
8
BLACK
6
CONTINUOUS
10
80.3102
20
-89.1568
11
80.305
21
-89.1525
0
LINE
8
BLACK
6
CONTINUOUS
10
80.305
20
-89.1525
11
80.3017
21
-89.1333
0
LINE
8
BLACK
6
CONTINUOUS
10
80.3017
20
-89.1333
11
80.295
21
-89.115
0
LINE
8
BLACK
6
CONTINUOUS
10
80.295
20
-89.115
11
80.295
21
-88.115
0
LINE
8
BLACK
6
CONTINUOUS
10
80.295
20
-88.115
11
80.2995
21
-88.0893
0
LINE
8
BLACK
6
CONTINUOUS
10
80.2995
20
-88.0893
11
80.3325
21
-88.05
0
LINE
8
BLACK
6
CONTINUOUS
10
80.3325
20
-88.05
11
80.383
21
-88.0411
0
LINE
8
BLACK
6
CONTINUOUS
10
94.383
20
-88.0411
11
94.4275
21
-88.0668
0
LINE
8
BLACK
6
CONTINUOUS
10
94.4275
20
-88.0668
11
94.445
21
-88.115
0
LINE
8
BLACK
6
CONTINUOUS
10
94.445
20
-88.115
11
94.445
21
-89.115
0
LINE
8
BLACK
6
CONTINUOUS
10
94.445
20
-89.115
11
94.4433
21
-89.1247
0
LINE
8
BLACK
6
CONTINUOUS
10
94.4433
20
-89.1247
11
94.4439
21
-89.128
0
LINE
8
BLACK
6
CONTINUOUS
10
94.4439
20
-89.128
11
94.4422
21
-89.1309
0
LINE
8
BLACK
6
CONTINUOUS
10
94.4422
20
-89.1309
11
94.4405
21
-89.1407
0
LINE
8
BLACK
6
CONTINUOUS
10
94.4405
20
-89.1407
11
94.428
21
-89.1556
0
LINE
8
BLACK
6
CONTINUOUS
10
94.428
20
-89.1556
11
94.4182
21
-89.1725
0
LINE
8
BLACK
6
CONTINUOUS
10
94.4182
20
-89.1725
11
94.4119
21
-89.1748
0
LINE
8
BLACK
6
CONTINUOUS
10
94.4119
20
-89.1748
11
94.4075
21
-89.18
0
LINE
8
BLACK
6
CONTINUOUS
10
94.4075
20
-89.18
11
94.3883
21
-89.1833
0
LINE
8
BLACK
6
CONTINUOUS
10
94.3883
20
-89.1833
11
94.37
21
-89.19
0
LINE
8
BLACK
6
CONTINUOUS
10
94.37
20
-89.19
11
93.37
21
-89.19
0
LINE
8
BLACK
6
CONTINUOUS
10
93.37
20
-89.19
11
93.3443
21
-89.1855
0
LINE
8
BLACK
6
CONTINUOUS
10
93.3443
20
-89.1855
11
93.305
21
-89.1525
0
LINE
8
BLACK
6
CONTINUOUS
10
93.305
20
-89.1525
11
93.2961
21
-89.102
0
LINE
8
BLACK
6
CONTINUOUS
10
93.2961
20
-89.102
11
93.3218
21
-89.0575
0
LINE
8
BLACK
6
CONTINUOUS
10
93.3218
20
-89.0575
11
93.37
21
-89.04
0
LINE
8
BLACK
6
CONTINUOUS
10
93.37
20
-89.04
11
94.295
21
-89.04
0
LINE
8
BLACK
6
CONTINUOUS
10
94.295
20
-89.04
11
94.295
21
-88.115
0
LINE
8
BLACK
6
CONTINUOUS
10
94.295
20
-88.115
11
94.2995
21
-88.0893
0
LINE
8
BLACK
6
CONTINUOUS
10
94.2995
20
-88.0893
11
94.3325
21
-88.05
0
LINE
8
BLACK
6
CONTINUOUS
10
94.3325
20
-88.05
11
94.383
21
-88.0411
0
LINE
8
BLACK
6
CONTINUOUS
10
63.3957
20
-86.0945
11
63.435
21
-86.1275
0
LINE
8
BLACK
6
CONTINUOUS
10
63.435
20
-86.1275
11
63.4439
21
-86.178
0
LINE
8
BLACK
6
CONTINUOUS
10
63.4439
20
-86.178
11
63.4182
21
-86.2225
0
LINE
8
BLACK
6
CONTINUOUS
10
63.4182
20
-86.2225
11
63.37
21
-86.24
0
LINE
8
BLACK
6
CONTINUOUS
10
63.37
20
-86.24
11
62.445
21
-86.24
0
LINE
8
BLACK
6
CONTINUOUS
10
62.445
20
-86.24
11
62.445
21
-87.165
0
LINE
8
BLACK
6
CONTINUOUS
10
62.445
20
-87.165
11
62.4405
21
-87.1907
0
LINE
8
BLACK
6
CONTINUOUS
10
62.4405
20
-87.1907
11
62.4075
21
-87.23
0
LINE
8
BLACK
6
CONTINUOUS
10
62.4075
20
-87.23
11
62.357
21
-87.2389
0
LINE
8
BLACK
6
CONTINUOUS
10
62.357
20
-87.2389
11
62.3125
21
-87.2132
0
LINE
8
BLACK
6
CONTINUOUS
10
62.3125
20
-87.2132
11
62.295
21
-87.165
0
LINE
8
BLACK
6
CONTINUOUS
10
62.295
20
-87.165
11
62.295
21
-86.165
0
LINE
8
BLACK
6
CONTINUOUS
10
62.295
20
-86.165
11
62.2967
21
-86.1553
0
LINE
8
BLACK
6
CONTINUOUS
10
62.2967
20
-86.1553
11
62.2961
21
-86.152
0
LINE
8
BLACK
6
CONTINUOUS
10
62.2961
20
-86.152
11
62.2978
21
-86.1491
0
LINE
8
BLACK
6
CONTINUOUS
10
62.2978
20
-86.1491
11
62.2995
21
-86.1393
0
LINE
8
BLACK
6
CONTINUOUS
10
62.2995
20
-86.1393
11
62.312
21
-86.1244
0
LINE
8
BLACK
6
CONTINUOUS
10
62.312
20
-86.1244
11
62.3218
21
-86.1075
0
LINE
8
BLACK
6
CONTINUOUS
10
62.3218
20
-86.1075
11
62.3281
21
-86.1052
0
LINE
8
BLACK
6
CONTINUOUS
10
62.3281
20
-86.1052
11
62.3325
21
-86.1
0
LINE
8
BLACK
6
CONTINUOUS
10
62.3325
20
-86.1
11
62.3517
21
-86.0967
0
LINE
8
BLACK
6
CONTINUOUS
10
62.3517
20
-86.0967
11
62.37
21
-86.09
0
LINE
8
BLACK
6
CONTINUOUS
10
62.37
20
-86.09
11
63.37
21
-86.09
0
LINE
8
BLACK
6
CONTINUOUS
10
63.37
20
-86.09
11
63.3957
21
-86.0945
0
LINE
8
BLACK
6
CONTINUOUS
10
76.3797
20
-86.0917
11
76.383
21
-86.0911
0
LINE
8
BLACK
6
CONTINUOUS
10
76.383
20
-86.0911
11
76.3859
21
-86.0928
0
LINE
8
BLACK
6
CONTINUOUS
10
76.3859
20
-86.0928
11
76.3957
21
-86.0945
0
LINE
8
BLACK
6
CONTINUOUS
10
76.3957
20
-86.0945
11
76.4106
21
-86.107
0
LINE
8
BLACK
6
CONTINUOUS
10
76.4106
20
-86.107
11
76.4275
21
-86.1168
0
LINE
8
BLACK
6
CONTINUOUS
10
76.4275
20
-86.1168
11
76.4298
21
-86.1231
0
LINE
8
BLACK
6
CONTINUOUS
10
76.4298
20
-86.1231
11
76.435
21
-86.1275
0
LINE
8
BLACK
6
CONTINUOUS
10
76.435
20
-86.1275
11
76.4383
21
-86.1467
0
LINE
8
BLACK
6
CONTINUOUS
10
76.4383
20
-86.1467
11
76.445
21
-86.165
0
LINE
8
BLACK
6
CONTINUOUS
10
76.445
20
-86.165
11
76.445
21
-87.165
0
LINE
8
BLACK
6
CONTINUOUS
10
76.445
20
-87.165
11
76.4405
21
-87.1907
0
LINE
8
BLACK
6
CONTINUOUS
10
76.4405
20
-87.1907
11
76.4075
21
-87.23
0
LINE
8
BLACK
6
CONTINUOUS
10
76.4075
20
-87.23
11
76.357
21
-87.2389
0
LINE
8
BLACK
6
CONTINUOUS
10
76.357
20
-87.2389
11
76.3125
21
-87.2132
0
LINE
8
BLACK
6
CONTINUOUS
10
76.3125
20
-87.2132
11
76.295
21
-87.165
0
LINE
8
BLACK
6
CONTINUOUS
10
76.295
20
-87.165
11
76.295
21
-86.24
0
LINE
8
BLACK
6
CONTINUOUS
10
76.295
20
-86.24
11
75.37
21
-86.24
0
LINE
8
BLACK
6
CONTINUOUS
10
75.37
20
-86.24
11
75.3443
21
-86.2355
0
LINE
8
BLACK
6
CONTINUOUS
10
75.3443
20
-86.2355
11
75.305
21
-86.2025
0
LINE
8
BLACK
6
CONTINUOUS
10
75.305
20
-86.2025
11
75.2961
21
-86.152
0
LINE
8
BLACK
6
CONTINUOUS
10
75.2961
20
-86.152
11
75.3218
21
-86.1075
0
LINE
8
BLACK
6
CONTINUOUS
10
75.3218
20
-86.1075
11
75.37
21
-86.09
0
LINE
8
BLACK
6
CONTINUOUS
10
75.37
20
-86.09
11
76.37
21
-86.09
0
LINE
8
BLACK
6
CONTINUOUS
10
76.37
20
-86.09
11
76.3797
21
-86.0917
0
LINE
8
BLACK
6
CONTINUOUS
10
41.883
20
-85.4911
11
41.9275
21
-85.5168
0
LINE
8
BLACK
6
CONTINUOUS
10
41.9275
20
-85.5168
11
41.945
21
-85.565
0
LINE
8
BLACK
6
CONTINUOUS
10
41.945
20
-85.565
11
41.945
21
-86.49
0
LINE
8
BLACK
6
CONTINUOUS
10
41.945
20
-86.49
11
42.87
21
-86.49
0
LINE
8
BLACK
6
CONTINUOUS
10
42.87
20
-86.49
11
42.8957
21
-86.4945
0
LINE
8
BLACK
6
CONTINUOUS
10
42.8957
20
-86.4945
11
42.935
21
-86.5275
0
LINE
8
BLACK
6
CONTINUOUS
10
42.935
20
-86.5275
11
42.9439
21
-86.578
0
LINE
8
BLACK
6
CONTINUOUS
10
42.9439
20
-86.578
11
42.9182
21
-86.6225
0
LINE
8
BLACK
6
CONTINUOUS
10
42.9182
20
-86.6225
11
42.87
21
-86.64
0
LINE
8
BLACK
6
CONTINUOUS
10
42.87
20
-86.64
11
41.87
21
-86.64
0
LINE
8
BLACK
6
CONTINUOUS
10
41.87
20
-86.64
11
41.8603
21
-86.6383
0
LINE
8
BLACK
6
CONTINUOUS
10
41.8603
20
-86.6383
11
41.857
21
-86.6389
0
LINE
8
BLACK
6
CONTINUOUS
10
41.857
20
-86.6389
11
41.8541
21
-86.6372
0
LINE
8
BLACK
6
CONTINUOUS
10
41.8541
20
-86.6372
11
41.8443
21
-86.6355
0
LINE
8
BLACK
6
CONTINUOUS
10
41.8443
20
-86.6355
11
41.8294
21
-86.623
0
LINE
8
BLACK
6
CONTINUOUS
10
41.8294
20
-86.623
11
41.8125
21
-86.6132
0
LINE
8
BLACK
6
CONTINUOUS
10
41.8125
20
-86.6132
11
41.8102
21
-86.6068
0
LINE
8
BLACK
6
CONTINUOUS
10
41.8102
20
-86.6068
11
41.805
21
-86.6025
0
LINE
8
BLACK
6
CONTINUOUS
10
41.805
20
-86.6025
11
41.8017
21
-86.5833
0
LINE
8
BLACK
6
CONTINUOUS
10
41.8017
20
-86.5833
11
41.795
21
-86.565
0
LINE
8
BLACK
6
CONTINUOUS
10
41.795
20
-86.565
11
41.795
21
-85.565
0
LINE
8
BLACK
6
CONTINUOUS
10
41.795
20
-85.565
11
41.7995
21
-85.5393
0
LINE
8
BLACK
6
CONTINUOUS
10
41.7995
20
-85.5393
11
41.8325
21
-85.5
0
LINE
8
BLACK
6
CONTINUOUS
10
41.8325
20
-85.5
11
41.883
21
-85.4911
0
LINE
8
BLACK
6
CONTINUOUS
10
55.883
20
-85.4911
11
55.9275
21
-85.5168
0
LINE
8
BLACK
6
CONTINUOUS
10
55.9275
20
-85.5168
11
55.945
21
-85.565
0
LINE
8
BLACK
6
CONTINUOUS
10
55.945
20
-85.565
11
55.945
21
-86.565
0
LINE
8
BLACK
6
CONTINUOUS
10
55.945
20
-86.565
11
55.9433
21
-86.5747
0
LINE
8
BLACK
6
CONTINUOUS
10
55.9433
20
-86.5747
11
55.9439
21
-86.578
0
LINE
8
BLACK
6
CONTINUOUS
10
55.9439
20
-86.578
11
55.9422
21
-86.5809
0
LINE
8
BLACK
6
CONTINUOUS
10
55.9422
20
-86.5809
11
55.9405
21
-86.5907
0
LINE
8
BLACK
6
CONTINUOUS
10
55.9405
20
-86.5907
11
55.928
21
-86.6056
0
LINE
8
BLACK
6
CONTINUOUS
10
55.928
20
-86.6056
11
55.9182
21
-86.6225
0
LINE
8
BLACK
6
CONTINUOUS
10
55.9182
20
-86.6225
11
55.9118
21
-86.6248
0
LINE
8
BLACK
6
CONTINUOUS
10
55.9118
20
-86.6248
11
55.9075
21
-86.63
0
LINE
8
BLACK
6
CONTINUOUS
10
55.9075
20
-86.63
11
55.8883
21
-86.6333
0
LINE
8
BLACK
6
CONTINUOUS
10
55.8883
20
-86.6333
11
55.87
21
-86.64
0
LINE
8
BLACK
6
CONTINUOUS
10
55.87
20
-86.64
11
54.87
21
-86.64
0
LINE
8
BLACK
6
CONTINUOUS
10
54.87
20
-86.64
11
54.8443
21
-86.6355
0
LINE
8
BLACK
6
CONTINUOUS
10
54.8443
20
-86.6355
11
54.805
21
-86.6025
0
LINE
8
BLACK
6
CONTINUOUS
10
54.805
20
-86.6025
11
54.7961
21
-86.552
0
LINE
8
BLACK
6
CONTINUOUS
10
54.7961
20
-86.552
11
54.8218
21
-86.5075
0
LINE
8
BLACK
6
CONTINUOUS
10
54.8218
20
-86.5075
11
54.87
21
-86.49
0
LINE
8
BLACK
6
CONTINUOUS
10
54.87
20
-86.49
11
55.795
21
-86.49
0
LINE
8
BLACK
6
CONTINUOUS
10
55.795
20
-86.49
11
55.795
21
-85.565
0
LINE
8
BLACK
6
CONTINUOUS
10
55.795
20
-85.565
11
55.7995
21
-85.5393
0
LINE
8
BLACK
6
CONTINUOUS
10
55.7995
20
-85.5393
11
55.8325
21
-85.5
0
LINE
8
BLACK
6
CONTINUOUS
10
55.8325
20
-85.5
11
55.883
21
-85.4911
0
LINE
8
BLACK
6
CONTINUOUS
10
98.383
20
-85.4911
11
98.4275
21
-85.5168
0
LINE
8
BLACK
6
CONTINUOUS
10
98.4275
20
-85.5168
11
98.445
21
-85.565
0
LINE
8
BLACK
6
CONTINUOUS
10
98.445
20
-85.565
11
98.445
21
-86.49
0
LINE
8
BLACK
6
CONTINUOUS
10
98.445
20
-86.49
11
99.37
21
-86.49
0
LINE
8
BLACK
6
CONTINUOUS
10
99.37
20
-86.49
11
99.3957
21
-86.4945
0
LINE
8
BLACK
6
CONTINUOUS
10
99.3957
20
-86.4945
11
99.435
21
-86.5275
0
LINE
8
BLACK
6
CONTINUOUS
10
99.435
20
-86.5275
11
99.4439
21
-86.578
0
LINE
8
BLACK
6
CONTINUOUS
10
99.4439
20
-86.578
11
99.4182
21
-86.6225
0
LINE
8
BLACK
6
CONTINUOUS
10
99.4182
20
-86.6225
11
99.37
21
-86.64
0
LINE
8
BLACK
6
CONTINUOUS
10
99.37
20
-86.64
11
98.37
21
-86.64
0
LINE
8
BLACK
6
CONTINUOUS
10
98.37
20
-86.64
11
98.3603
21
-86.6383
0
LINE
8
BLACK
6
CONTINUOUS
10
98.3603
20
-86.6383
11
98.357
21
-86.6389
0
LINE
8
BLACK
6
CONTINUOUS
10
98.357
20
-86.6389
11
98.3541
21
-86.6372
0
LINE
8
BLACK
6
CONTINUOUS
10
98.3541
20
-86.6372
11
98.3443
21
-86.6355
0
LINE
8
BLACK
6
CONTINUOUS
10
98.3443
20
-86.6355
11
98.3294
21
-86.623
0
LINE
8
BLACK
6
CONTINUOUS
10
98.3294
20
-86.623
11
98.3125
21
-86.6132
0
LINE
8
BLACK
6
CONTINUOUS
10
98.3125
20
-86.6132
11
98.3102
21
-86.6068
0
LINE
8
BLACK
6
CONTINUOUS
10
98.3102
20
-86.6068
11
98.305
21
-86.6025
0
LINE
8
BLACK
6
CONTINUOUS
10
98.305
20
-86.6025
11
98.3017
21
-86.5833
0
LINE
8
BLACK
6
CONTINUOUS
10
98.3017
20
-86.5833
11
98.295
21
-86.565
0
LINE
8
BLACK
6
CONTINUOUS
10
98.295
20
-86.565
11
98.295
21
-85.565
0
LINE
8
BLACK
6
CONTINUOUS
10
98.295
20
-85.565
11
98.2995
21
-85.5393
0
LINE
8
BLACK
6
CONTINUOUS
10
98.2995
20
-85.5393
11
98.3325
21
-85.5
0
LINE
8
BLACK
6
CONTINUOUS
10
98.3325
20
-85.5
11
98.383
21
-85.4911
0
LINE
8
BLACK
6
CONTINUOUS
10
112.383
20
-85.4911
11
112.427
21
-85.5168
0
LINE
8
BLACK
6
CONTINUOUS
10
112.427
20
-85.5168
11
112.445
21
-85.565
0
LINE
8
BLACK
6
CONTINUOUS
10
112.445
20
-85.565
11
112.445
21
-86.565
0
LINE
8
BLACK
6
CONTINUOUS
10
112.445
20
-86.565
11
112.443
21
-86.5747
0
LINE
8
BLACK
6
CONTINUOUS
10
112.443
20
-86.5747
11
112.444
21
-86.578
0
LINE
8
BLACK
6
CONTINUOUS
10
112.444
20
-86.578
11
112.442
21
-86.5809
0
LINE
8
BLACK
6
CONTINUOUS
10
112.442
20
-86.5809
11
112.44
21
-86.5907
0
LINE
8
BLACK
6
CONTINUOUS
10
112.44
20
-86.5907
11
112.428
21
-86.6056
0
LINE
8
BLACK
6
CONTINUOUS
10
112.428
20
-86.6056
11
112.418
21
-86.6225
0
LINE
8
BLACK
6
CONTINUOUS
10
112.418
20
-86.6225
11
112.412
21
-86.6248
0
LINE
8
BLACK
6
CONTINUOUS
10
112.412
20
-86.6248
11
112.407
21
-86.63
0
LINE
8
BLACK
6
CONTINUOUS
10
112.407
20
-86.63
11
112.388
21
-86.6333
0
LINE
8
BLACK
6
CONTINUOUS
10
112.388
20
-86.6333
11
112.37
21
-86.64
0
LINE
8
BLACK
6
CONTINUOUS
10
112.37
20
-86.64
11
111.37
21
-86.64
0
LINE
8
BLACK
6
CONTINUOUS
10
111.37
20
-86.64
11
111.344
21
-86.6355
0
LINE
8
BLACK
6
CONTINUOUS
10
111.344
20
-86.6355
11
111.305
21
-86.6025
0
LINE
8
BLACK
6
CONTINUOUS
10
111.305
20
-86.6025
11
111.296
21
-86.552
0
LINE
8
BLACK
6
CONTINUOUS
10
111.296
20
-86.552
11
111.322
21
-86.5075
0
LINE
8
BLACK
6
CONTINUOUS
10
111.322
20
-86.5075
11
111.37
21
-86.49
0
LINE
8
BLACK
6
CONTINUOUS
10
111.37
20
-86.49
11
112.295
21
-86.49
0
LINE
8
BLACK
6
CONTINUOUS
10
112.295
20
-86.49
11
112.295
21
-85.565
0
LINE
8
BLACK
6
CONTINUOUS
10
112.295
20
-85.565
11
112.3
21
-85.5393
0
LINE
8
BLACK
6
CONTINUOUS
10
112.3
20
-85.5393
11
112.332
21
-85.5
0
LINE
8
BLACK
6
CONTINUOUS
10
112.332
20
-85.5
11
112.383
21
-85.4911
0
LINE
8
BLACK
6
CONTINUOUS
10
59.741
20
-86.1735
11
59.7803
21
-86.2065
0
LINE
8
BLACK
6
CONTINUOUS
10
59.7803
20
-86.2065
11
59.7892
21
-86.257
0
LINE
8
BLACK
6
CONTINUOUS
10
59.7892
20
-86.257
11
59.7635
21
-86.3015
0
LINE
8
BLACK
6
CONTINUOUS
10
59.7635
20
-86.3015
11
59.7153
21
-86.319
0
LINE
8
BLACK
6
CONTINUOUS
10
59.7153
20
-86.319
11
58.5247
21
-86.319
0
LINE
8
BLACK
6
CONTINUOUS
10
58.5247
20
-86.319
11
58.499
21
-86.3145
0
LINE
8
BLACK
6
CONTINUOUS
10
58.499
20
-86.3145
11
58.4597
21
-86.2815
0
LINE
8
BLACK
6
CONTINUOUS
10
58.4597
20
-86.2815
11
58.4508
21
-86.231
0
LINE
8
BLACK
6
CONTINUOUS
10
58.4508
20
-86.231
11
58.4765
21
-86.1865
0
LINE
8
BLACK
6
CONTINUOUS
10
58.4765
20
-86.1865
11
58.5247
21
-86.169
0
LINE
8
BLACK
6
CONTINUOUS
10
58.5247
20
-86.169
11
59.7153
21
-86.169
0
LINE
8
BLACK
6
CONTINUOUS
10
59.7153
20
-86.169
11
59.741
21
-86.1735
0
LINE
8
BLACK
6
CONTINUOUS
10
59.731
20
-85.2335
11
59.7703
21
-85.2665
0
LINE
8
BLACK
6
CONTINUOUS
10
59.7703
20
-85.2665
11
59.7792
21
-85.317
0
LINE
8
BLACK
6
CONTINUOUS
10
59.7792
20
-85.317
11
59.7535
21
-85.3615
0
LINE
8
BLACK
6
CONTINUOUS
10
59.7535
20
-85.3615
11
59.7053
21
-85.379
0
LINE
8
BLACK
6
CONTINUOUS
10
59.7053
20
-85.379
11
58.5147
21
-85.379
0
LINE
8
BLACK
6
CONTINUOUS
10
58.5147
20
-85.379
11
58.489
21
-85.3745
0
LINE
8
BLACK
6
CONTINUOUS
10
58.489
20
-85.3745
11
58.4497
21
-85.3415
0
LINE
8
BLACK
6
CONTINUOUS
10
58.4497
20
-85.3415
11
58.4408
21
-85.291
0
LINE
8
BLACK
6
CONTINUOUS
10
58.4408
20
-85.291
11
58.4665
21
-85.2465
0
LINE
8
BLACK
6
CONTINUOUS
10
58.4665
20
-85.2465
11
58.5147
21
-85.229
0
LINE
8
BLACK
6
CONTINUOUS
10
58.5147
20
-85.229
11
59.7053
21
-85.229
0
LINE
8
BLACK
6
CONTINUOUS
10
59.7053
20
-85.229
11
59.731
21
-85.2335
0
LINE
8
BLACK
6
CONTINUOUS
10
59.701
20
-84.3535
11
59.7403
21
-84.3865
0
LINE
8
BLACK
6
CONTINUOUS
10
59.7403
20
-84.3865
11
59.7492
21
-84.437
0
LINE
8
BLACK
6
CONTINUOUS
10
59.7492
20
-84.437
11
59.7235
21
-84.4815
0
LINE
8
BLACK
6
CONTINUOUS
10
59.7235
20
-84.4815
11
59.6753
21
-84.499
0
LINE
8
BLACK
6
CONTINUOUS
10
59.6753
20
-84.499
11
58.4847
21
-84.499
0
LINE
8
BLACK
6
CONTINUOUS
10
58.4847
20
-84.499
11
58.459
21
-84.4945
0
LINE
8
BLACK
6
CONTINUOUS
10
58.459
20
-84.4945
11
58.4197
21
-84.4615
0
LINE
8
BLACK
6
CONTINUOUS
10
58.4197
20
-84.4615
11
58.4108
21
-84.411
0
LINE
8
BLACK
6
CONTINUOUS
10
58.4108
20
-84.411
11
58.4365
21
-84.3665
0
LINE
8
BLACK
6
CONTINUOUS
10
58.4365
20
-84.3665
11
58.4847
21
-84.349
0
LINE
8
BLACK
6
CONTINUOUS
10
58.4847
20
-84.349
11
59.6753
21
-84.349
0
LINE
8
BLACK
6
CONTINUOUS
10
59.6753
20
-84.349
11
59.701
21
-84.3535
0
LINE
8
BLACK
6
CONTINUOUS
10
62.383
20
-82.0911
11
62.4275
21
-82.1168
0
LINE
8
BLACK
6
CONTINUOUS
10
62.4275
20
-82.1168
11
62.445
21
-82.165
0
LINE
8
BLACK
6
CONTINUOUS
10
62.445
20
-82.165
11
62.445
21
-83.09
0
LINE
8
BLACK
6
CONTINUOUS
10
62.445
20
-83.09
11
63.37
21
-83.09
0
LINE
8
BLACK
6
CONTINUOUS
10
63.37
20
-83.09
11
63.3957
21
-83.0945
0
LINE
8
BLACK
6
CONTINUOUS
10
63.3957
20
-83.0945
11
63.435
21
-83.1275
0
LINE
8
BLACK
6
CONTINUOUS
10
63.435
20
-83.1275
11
63.4439
21
-83.178
0
LINE
8
BLACK
6
CONTINUOUS
10
63.4439
20
-83.178
11
63.4182
21
-83.2225
0
LINE
8
BLACK
6
CONTINUOUS
10
63.4182
20
-83.2225
11
63.37
21
-83.24
0
LINE
8
BLACK
6
CONTINUOUS
10
63.37
20
-83.24
11
62.37
21
-83.24
0
LINE
8
BLACK
6
CONTINUOUS
10
62.37
20
-83.24
11
62.3603
21
-83.2383
0
LINE
8
BLACK
6
CONTINUOUS
10
62.3603
20
-83.2383
11
62.357
21
-83.2389
0
LINE
8
BLACK
6
CONTINUOUS
10
62.357
20
-83.2389
11
62.3541
21
-83.2372
0
LINE
8
BLACK
6
CONTINUOUS
10
62.3541
20
-83.2372
11
62.3443
21
-83.2355
0
LINE
8
BLACK
6
CONTINUOUS
10
62.3443
20
-83.2355
11
62.3294
21
-83.223
0
LINE
8
BLACK
6
CONTINUOUS
10
62.3294
20
-83.223
11
62.3125
21
-83.2132
0
LINE
8
BLACK
6
CONTINUOUS
10
62.3125
20
-83.2132
11
62.3102
21
-83.2069
0
LINE
8
BLACK
6
CONTINUOUS
10
62.3102
20
-83.2069
11
62.305
21
-83.2025
0
LINE
8
BLACK
6
CONTINUOUS
10
62.305
20
-83.2025
11
62.3017
21
-83.1833
0
LINE
8
BLACK
6
CONTINUOUS
10
62.3017
20
-83.1833
11
62.295
21
-83.165
0
LINE
8
BLACK
6
CONTINUOUS
10
62.295
20
-83.165
11
62.295
21
-82.165
0
LINE
8
BLACK
6
CONTINUOUS
10
62.295
20
-82.165
11
62.2995
21
-82.1393
0
LINE
8
BLACK
6
CONTINUOUS
10
62.2995
20
-82.1393
11
62.3325
21
-82.1
0
LINE
8
BLACK
6
CONTINUOUS
10
62.3325
20
-82.1
11
62.383
21
-82.0911
0
LINE
8
BLACK
6
CONTINUOUS
10
76.383
20
-82.0911
11
76.4275
21
-82.1168
0
LINE
8
BLACK
6
CONTINUOUS
10
76.4275
20
-82.1168
11
76.445
21
-82.165
0
LINE
8
BLACK
6
CONTINUOUS
10
76.445
20
-82.165
11
76.445
21
-83.165
0
LINE
8
BLACK
6
CONTINUOUS
10
76.445
20
-83.165
11
76.4433
21
-83.1747
0
LINE
8
BLACK
6
CONTINUOUS
10
76.4433
20
-83.1747
11
76.4439
21
-83.178
0
LINE
8
BLACK
6
CONTINUOUS
10
76.4439
20
-83.178
11
76.4422
21
-83.1809
0
LINE
8
BLACK
6
CONTINUOUS
10
76.4422
20
-83.1809
11
76.4405
21
-83.1907
0
LINE
8
BLACK
6
CONTINUOUS
10
76.4405
20
-83.1907
11
76.428
21
-83.2056
0
LINE
8
BLACK
6
CONTINUOUS
10
76.428
20
-83.2056
11
76.4182
21
-83.2225
0
LINE
8
BLACK
6
CONTINUOUS
10
76.4182
20
-83.2225
11
76.4119
21
-83.2248
0
LINE
8
BLACK
6
CONTINUOUS
10
76.4119
20
-83.2248
11
76.4075
21
-83.23
0
LINE
8
BLACK
6
CONTINUOUS
10
76.4075
20
-83.23
11
76.3883
21
-83.2333
0
LINE
8
BLACK
6
CONTINUOUS
10
76.3883
20
-83.2333
11
76.37
21
-83.24
0
LINE
8
BLACK
6
CONTINUOUS
10
76.37
20
-83.24
11
75.37
21
-83.24
0
LINE
8
BLACK
6
CONTINUOUS
10
75.37
20
-83.24
11
75.3443
21
-83.2355
0
LINE
8
BLACK
6
CONTINUOUS
10
75.3443
20
-83.2355
11
75.305
21
-83.2025
0
LINE
8
BLACK
6
CONTINUOUS
10
75.305
20
-83.2025
11
75.2961
21
-83.152
0
LINE
8
BLACK
6
CONTINUOUS
10
75.2961
20
-83.152
11
75.3218
21
-83.1075
0
LINE
8
BLACK
6
CONTINUOUS
10
75.3218
20
-83.1075
11
75.37
21
-83.09
0
LINE
8
BLACK
6
CONTINUOUS
10
75.37
20
-83.09
11
76.295
21
-83.09
0
LINE
8
BLACK
6
CONTINUOUS
10
76.295
20
-83.09
11
76.295
21
-82.165
0
LINE
8
BLACK
6
CONTINUOUS
10
76.295
20
-82.165
11
76.2995
21
-82.1393
0
LINE
8
BLACK
6
CONTINUOUS
10
76.2995
20
-82.1393
11
76.3325
21
-82.1
0
LINE
8
BLACK
6
CONTINUOUS
10
76.3325
20
-82.1
11
76.383
21
-82.0911
0
LINE
8
BLACK
6
CONTINUOUS
10
59.691
20
-82.9935
11
59.7303
21
-83.0265
0
LINE
8
BLACK
6
CONTINUOUS
10
59.7303
20
-83.0265
11
59.7392
21
-83.077
0
LINE
8
BLACK
6
CONTINUOUS
10
59.7392
20
-83.077
11
59.7135
21
-83.1215
0
LINE
8
BLACK
6
CONTINUOUS
10
59.7135
20
-83.1215
11
59.6653
21
-83.139
0
LINE
8
BLACK
6
CONTINUOUS
10
59.6653
20
-83.139
11
58.4747
21
-83.139
0
LINE
8
BLACK
6
CONTINUOUS
10
58.4747
20
-83.139
11
58.449
21
-83.1345
0
LINE
8
BLACK
6
CONTINUOUS
10
58.449
20
-83.1345
11
58.4097
21
-83.1015
0
LINE
8
BLACK
6
CONTINUOUS
10
58.4097
20
-83.1015
11
58.4008
21
-83.051
0
LINE
8
BLACK
6
CONTINUOUS
10
58.4008
20
-83.051
11
58.4265
21
-83.0065
0
LINE
8
BLACK
6
CONTINUOUS
10
58.4265
20
-83.0065
11
58.4747
21
-82.989
0
LINE
8
BLACK
6
CONTINUOUS
10
58.4747
20
-82.989
11
59.6653
21
-82.989
0
LINE
8
BLACK
6
CONTINUOUS
10
59.6653
20
-82.989
11
59.691
21
-82.9935
0
LINE
8
BLACK
6
CONTINUOUS
10
59.691
20
-82.1099
11
59.7303
21
-82.1429
0
LINE
8
BLACK
6
CONTINUOUS
10
59.7303
20
-82.1429
11
59.7392
21
-82.1934
0
LINE
8
BLACK
6
CONTINUOUS
10
59.7392
20
-82.1934
11
59.7135
21
-82.2379
0
LINE
8
BLACK
6
CONTINUOUS
10
59.7135
20
-82.2379
11
59.6653
21
-82.2554
0
LINE
8
BLACK
6
CONTINUOUS
10
59.6653
20
-82.2554
11
58.4747
21
-82.2554
0
LINE
8
BLACK
6
CONTINUOUS
10
58.4747
20
-82.2554
11
58.449
21
-82.2509
0
LINE
8
BLACK
6
CONTINUOUS
10
58.449
20
-82.2509
11
58.4097
21
-82.2179
0
LINE
8
BLACK
6
CONTINUOUS
10
58.4097
20
-82.2179
11
58.4008
21
-82.1674
0
LINE
8
BLACK
6
CONTINUOUS
10
58.4008
20
-82.1674
11
58.4265
21
-82.123
0
LINE
8
BLACK
6
CONTINUOUS
10
58.4265
20
-82.123
11
58.4747
21
-82.1054
0
LINE
8
BLACK
6
CONTINUOUS
10
58.4747
20
-82.1054
11
59.6653
21
-82.1054
0
LINE
8
BLACK
6
CONTINUOUS
10
59.6653
20
-82.1054
11
59.691
21
-82.1099
0
LINE
8
BLACK
6
CONTINUOUS
10
59.711
20
-81.1835
11
59.7503
21
-81.2165
0
LINE
8
BLACK
6
CONTINUOUS
10
59.7503
20
-81.2165
11
59.7592
21
-81.267
0
LINE
8
BLACK
6
CONTINUOUS
10
59.7592
20
-81.267
11
59.7335
21
-81.3115
0
LINE
8
BLACK
6
CONTINUOUS
10
59.7335
20
-81.3115
11
59.6853
21
-81.329
0
LINE
8
BLACK
6
CONTINUOUS
10
59.6853
20
-81.329
11
58.4947
21
-81.329
0
LINE
8
BLACK
6
CONTINUOUS
10
58.4947
20
-81.329
11
58.469
21
-81.3245
0
LINE
8
BLACK
6
CONTINUOUS
10
58.469
20
-81.3245
11
58.4297
21
-81.2915
0
LINE
8
BLACK
6
CONTINUOUS
10
58.4297
20
-81.2915
11
58.4208
21
-81.241
0
LINE
8
BLACK
6
CONTINUOUS
10
58.4208
20
-81.241
11
58.4465
21
-81.1965
0
LINE
8
BLACK
6
CONTINUOUS
10
58.4465
20
-81.1965
11
58.4947
21
-81.179
0
LINE
8
BLACK
6
CONTINUOUS
10
58.4947
20
-81.179
11
59.6853
21
-81.179
0
LINE
8
BLACK
6
CONTINUOUS
10
59.6853
20
-81.179
11
59.711
21
-81.1835
0
LINE
8
BLACK
6
CONTINUOUS
10
135.396
20
-80.1445
11
135.435
21
-80.1775
0
LINE
8
BLACK
6
CONTINUOUS
10
135.435
20
-80.1775
11
135.444
21
-80.228
0
LINE
8
BLACK
6
CONTINUOUS
10
135.444
20
-80.228
11
135.418
21
-80.2725
0
LINE
8
BLACK
6
CONTINUOUS
10
135.418
20
-80.2725
11
135.37
21
-80.29
0
LINE
8
BLACK
6
CONTINUOUS
10
135.37
20
-80.29
11
134.445
21
-80.29
0
LINE
8
BLACK
6
CONTINUOUS
10
134.445
20
-80.29
11
134.445
21
-81.215
0
LINE
8
BLACK
6
CONTINUOUS
10
134.445
20
-81.215
11
134.44
21
-81.2407
0
LINE
8
BLACK
6
CONTINUOUS
10
134.44
20
-81.2407
11
134.407
21
-81.28
0
LINE
8
BLACK
6
CONTINUOUS
10
134.407
20
-81.28
11
134.357
21
-81.2889
0
LINE
8
BLACK
6
CONTINUOUS
10
134.357
20
-81.2889
11
134.313
21
-81.2632
0
LINE
8
BLACK
6
CONTINUOUS
10
134.313
20
-81.2632
11
134.295
21
-81.215
0
LINE
8
BLACK
6
CONTINUOUS
10
134.295
20
-81.215
11
134.295
21
-80.215
0
LINE
8
BLACK
6
CONTINUOUS
10
134.295
20
-80.215
11
134.297
21
-80.2053
0
LINE
8
BLACK
6
CONTINUOUS
10
134.297
20
-80.2053
11
134.296
21
-80.202
0
LINE
8
BLACK
6
CONTINUOUS
10
134.296
20
-80.202
11
134.298
21
-80.1991
0
LINE
8
BLACK
6
CONTINUOUS
10
134.298
20
-80.1991
11
134.3
21
-80.1893
0
LINE
8
BLACK
6
CONTINUOUS
10
134.3
20
-80.1893
11
134.312
21
-80.1744
0
LINE
8
BLACK
6
CONTINUOUS
10
134.312
20
-80.1744
11
134.322
21
-80.1575
0
LINE
8
BLACK
6
CONTINUOUS
10
134.322
20
-80.1575
11
134.328
21
-80.1552
0
LINE
8
BLACK
6
CONTINUOUS
10
134.328
20
-80.1552
11
134.332
21
-80.15
0
LINE
8
BLACK
6
CONTINUOUS
10
134.332
20
-80.15
11
134.352
21
-80.1467
0
LINE
8
BLACK
6
CONTINUOUS
10
134.352
20
-80.1467
11
134.37
21
-80.14
0
LINE
8
BLACK
6
CONTINUOUS
10
134.37
20
-80.14
11
135.37
21
-80.14
0
LINE
8
BLACK
6
CONTINUOUS
10
135.37
20
-80.14
11
135.396
21
-80.1445
0
LINE
8
BLACK
6
CONTINUOUS
10
148.38
20
-80.1417
11
148.383
21
-80.1411
0
LINE
8
BLACK
6
CONTINUOUS
10
148.383
20
-80.1411
11
148.386
21
-80.1428
0
LINE
8
BLACK
6
CONTINUOUS
10
148.386
20
-80.1428
11
148.396
21
-80.1445
0
LINE
8
BLACK
6
CONTINUOUS
10
148.396
20
-80.1445
11
148.411
21
-80.157
0
LINE
8
BLACK
6
CONTINUOUS
10
148.411
20
-80.157
11
148.427
21
-80.1668
0
LINE
8
BLACK
6
CONTINUOUS
10
148.427
20
-80.1668
11
148.43
21
-80.1731
0
LINE
8
BLACK
6
CONTINUOUS
10
148.43
20
-80.1731
11
148.435
21
-80.1775
0
LINE
8
BLACK
6
CONTINUOUS
10
148.435
20
-80.1775
11
148.438
21
-80.1967
0
LINE
8
BLACK
6
CONTINUOUS
10
148.438
20
-80.1967
11
148.445
21
-80.215
0
LINE
8
BLACK
6
CONTINUOUS
10
148.445
20
-80.215
11
148.445
21
-81.215
0
LINE
8
BLACK
6
CONTINUOUS
10
148.445
20
-81.215
11
148.44
21
-81.2407
0
LINE
8
BLACK
6
CONTINUOUS
10
148.44
20
-81.2407
11
148.407
21
-81.28
0
LINE
8
BLACK
6
CONTINUOUS
10
148.407
20
-81.28
11
148.357
21
-81.2889
0
LINE
8
BLACK
6
CONTINUOUS
10
148.357
20
-81.2889
11
148.313
21
-81.2632
0
LINE
8
BLACK
6
CONTINUOUS
10
148.313
20
-81.2632
11
148.295
21
-81.215
0
LINE
8
BLACK
6
CONTINUOUS
10
148.295
20
-81.215
11
148.295
21
-80.29
0
LINE
8
BLACK
6
CONTINUOUS
10
148.295
20
-80.29
11
147.37
21
-80.29
0
LINE
8
BLACK
6
CONTINUOUS
10
147.37
20
-80.29
11
147.344
21
-80.2855
0
LINE
8
BLACK
6
CONTINUOUS
10
147.344
20
-80.2855
11
147.305
21
-80.2525
0
LINE
8
BLACK
6
CONTINUOUS
10
147.305
20
-80.2525
11
147.296
21
-80.202
0
LINE
8
BLACK
6
CONTINUOUS
10
147.296
20
-80.202
11
147.322
21
-80.1575
0
LINE
8
BLACK
6
CONTINUOUS
10
147.322
20
-80.1575
11
147.37
21
-80.14
0
LINE
8
BLACK
6
CONTINUOUS
10
147.37
20
-80.14
11
148.37
21
-80.14
0
LINE
8
BLACK
6
CONTINUOUS
10
148.37
20
-80.14
11
148.38
21
-80.1417
0
LINE
8
BLACK
6
CONTINUOUS
10
117.396
20
-77.5945
11
117.435
21
-77.6275
0
LINE
8
BLACK
6
CONTINUOUS
10
117.435
20
-77.6275
11
117.444
21
-77.678
0
LINE
8
BLACK
6
CONTINUOUS
10
117.444
20
-77.678
11
117.418
21
-77.7225
0
LINE
8
BLACK
6
CONTINUOUS
10
117.418
20
-77.7225
11
117.37
21
-77.74
0
LINE
8
BLACK
6
CONTINUOUS
10
117.37
20
-77.74
11
116.445
21
-77.74
0
LINE
8
BLACK
6
CONTINUOUS
10
116.445
20
-77.74
11
116.445
21
-78.665
0
LINE
8
BLACK
6
CONTINUOUS
10
116.445
20
-78.665
11
116.44
21
-78.6907
0
LINE
8
BLACK
6
CONTINUOUS
10
116.44
20
-78.6907
11
116.407
21
-78.73
0
LINE
8
BLACK
6
CONTINUOUS
10
116.407
20
-78.73
11
116.357
21
-78.7389
0
LINE
8
BLACK
6
CONTINUOUS
10
116.357
20
-78.7389
11
116.313
21
-78.7132
0
LINE
8
BLACK
6
CONTINUOUS
10
116.313
20
-78.7132
11
116.295
21
-78.665
0
LINE
8
BLACK
6
CONTINUOUS
10
116.295
20
-78.665
11
116.295
21
-77.665
0
LINE
8
BLACK
6
CONTINUOUS
10
116.295
20
-77.665
11
116.297
21
-77.6553
0
LINE
8
BLACK
6
CONTINUOUS
10
116.297
20
-77.6553
11
116.296
21
-77.652
0
LINE
8
BLACK
6
CONTINUOUS
10
116.296
20
-77.652
11
116.298
21
-77.6491
0
LINE
8
BLACK
6
CONTINUOUS
10
116.298
20
-77.6491
11
116.3
21
-77.6393
0
LINE
8
BLACK
6
CONTINUOUS
10
116.3
20
-77.6393
11
116.312
21
-77.6244
0
LINE
8
BLACK
6
CONTINUOUS
10
116.312
20
-77.6244
11
116.322
21
-77.6075
0
LINE
8
BLACK
6
CONTINUOUS
10
116.322
20
-77.6075
11
116.328
21
-77.6052
0
LINE
8
BLACK
6
CONTINUOUS
10
116.328
20
-77.6052
11
116.332
21
-77.6
0
LINE
8
BLACK
6
CONTINUOUS
10
116.332
20
-77.6
11
116.352
21
-77.5967
0
LINE
8
BLACK
6
CONTINUOUS
10
116.352
20
-77.5967
11
116.37
21
-77.59
0
LINE
8
BLACK
6
CONTINUOUS
10
116.37
20
-77.59
11
117.37
21
-77.59
0
LINE
8
BLACK
6
CONTINUOUS
10
117.37
20
-77.59
11
117.396
21
-77.5945
0
LINE
8
BLACK
6
CONTINUOUS
10
130.38
20
-77.5917
11
130.383
21
-77.5911
0
LINE
8
BLACK
6
CONTINUOUS
10
130.383
20
-77.5911
11
130.386
21
-77.5928
0
LINE
8
BLACK
6
CONTINUOUS
10
130.386
20
-77.5928
11
130.396
21
-77.5945
0
LINE
8
BLACK
6
CONTINUOUS
10
130.396
20
-77.5945
11
130.411
21
-77.607
0
LINE
8
BLACK
6
CONTINUOUS
10
130.411
20
-77.607
11
130.427
21
-77.6168
0
LINE
8
BLACK
6
CONTINUOUS
10
130.427
20
-77.6168
11
130.43
21
-77.6231
0
LINE
8
BLACK
6
CONTINUOUS
10
130.43
20
-77.6231
11
130.435
21
-77.6275
0
LINE
8
BLACK
6
CONTINUOUS
10
130.435
20
-77.6275
11
130.438
21
-77.6467
0
LINE
8
BLACK
6
CONTINUOUS
10
130.438
20
-77.6467
11
130.445
21
-77.665
0
LINE
8
BLACK
6
CONTINUOUS
10
130.445
20
-77.665
11
130.445
21
-78.665
0
LINE
8
BLACK
6
CONTINUOUS
10
130.445
20
-78.665
11
130.44
21
-78.6907
0
LINE
8
BLACK
6
CONTINUOUS
10
130.44
20
-78.6907
11
130.407
21
-78.73
0
LINE
8
BLACK
6
CONTINUOUS
10
130.407
20
-78.73
11
130.357
21
-78.7389
0
LINE
8
BLACK
6
CONTINUOUS
10
130.357
20
-78.7389
11
130.313
21
-78.7132
0
LINE
8
BLACK
6
CONTINUOUS
10
130.313
20
-78.7132
11
130.295
21
-78.665
0
LINE
8
BLACK
6
CONTINUOUS
10
130.295
20
-78.665
11
130.295
21
-77.74
0
LINE
8
BLACK
6
CONTINUOUS
10
130.295
20
-77.74
11
129.37
21
-77.74
0
LINE
8
BLACK
6
CONTINUOUS
10
129.37
20
-77.74
11
129.344
21
-77.7355
0
LINE
8
BLACK
6
CONTINUOUS
10
129.344
20
-77.7355
11
129.305
21
-77.7025
0
LINE
8
BLACK
6
CONTINUOUS
10
129.305
20
-77.7025
11
129.296
21
-77.652
0
LINE
8
BLACK
6
CONTINUOUS
10
129.296
20
-77.652
11
129.322
21
-77.6075
0
LINE
8
BLACK
6
CONTINUOUS
10
129.322
20
-77.6075
11
129.37
21
-77.59
0
LINE
8
BLACK
6
CONTINUOUS
10
129.37
20
-77.59
11
130.37
21
-77.59
0
LINE
8
BLACK
6
CONTINUOUS
10
130.37
20
-77.59
11
130.38
21
-77.5917
0
LINE
8
BLACK
6
CONTINUOUS
10
134.383
20
-76.1411
11
134.427
21
-76.1668
0
LINE
8
BLACK
6
CONTINUOUS
10
134.427
20
-76.1668
11
134.445
21
-76.215
0
LINE
8
BLACK
6
CONTINUOUS
10
134.445
20
-76.215
11
134.445
21
-77.14
0
LINE
8
BLACK
6
CONTINUOUS
10
134.445
20
-77.14
11
135.37
21
-77.14
0
LINE
8
BLACK
6
CONTINUOUS
10
135.37
20
-77.14
11
135.396
21
-77.1445
0
LINE
8
BLACK
6
CONTINUOUS
10
135.396
20
-77.1445
11
135.435
21
-77.1775
0
LINE
8
BLACK
6
CONTINUOUS
10
135.435
20
-77.1775
11
135.444
21
-77.228
0
LINE
8
BLACK
6
CONTINUOUS
10
135.444
20
-77.228
11
135.418
21
-77.2725
0
LINE
8
BLACK
6
CONTINUOUS
10
135.418
20
-77.2725
11
135.37
21
-77.29
0
LINE
8
BLACK
6
CONTINUOUS
10
135.37
20
-77.29
11
134.37
21
-77.29
0
LINE
8
BLACK
6
CONTINUOUS
10
134.37
20
-77.29
11
134.36
21
-77.2883
0
LINE
8
BLACK
6
CONTINUOUS
10
134.36
20
-77.2883
11
134.357
21
-77.2889
0
LINE
8
BLACK
6
CONTINUOUS
10
134.357
20
-77.2889
11
134.354
21
-77.2872
0
LINE
8
BLACK
6
CONTINUOUS
10
134.354
20
-77.2872
11
134.344
21
-77.2855
0
LINE
8
BLACK
6
CONTINUOUS
10
134.344
20
-77.2855
11
134.329
21
-77.273
0
LINE
8
BLACK
6
CONTINUOUS
10
134.329
20
-77.273
11
134.313
21
-77.2632
0
LINE
8
BLACK
6
CONTINUOUS
10
134.313
20
-77.2632
11
134.31
21
-77.2569
0
LINE
8
BLACK
6
CONTINUOUS
10
134.31
20
-77.2569
11
134.305
21
-77.2525
0
LINE
8
BLACK
6
CONTINUOUS
10
134.305
20
-77.2525
11
134.302
21
-77.2333
0
LINE
8
BLACK
6
CONTINUOUS
10
134.302
20
-77.2333
11
134.295
21
-77.215
0
LINE
8
BLACK
6
CONTINUOUS
10
134.295
20
-77.215
11
134.295
21
-76.215
0
LINE
8
BLACK
6
CONTINUOUS
10
134.295
20
-76.215
11
134.3
21
-76.1893
0
LINE
8
BLACK
6
CONTINUOUS
10
134.3
20
-76.1893
11
134.332
21
-76.15
0
LINE
8
BLACK
6
CONTINUOUS
10
134.332
20
-76.15
11
134.383
21
-76.1411
0
LINE
8
BLACK
6
CONTINUOUS
10
148.383
20
-76.1411
11
148.427
21
-76.1668
0
LINE
8
BLACK
6
CONTINUOUS
10
148.427
20
-76.1668
11
148.445
21
-76.215
0
LINE
8
BLACK
6
CONTINUOUS
10
148.445
20
-76.215
11
148.445
21
-77.215
0
LINE
8
BLACK
6
CONTINUOUS
10
148.445
20
-77.215
11
148.443
21
-77.2247
0
LINE
8
BLACK
6
CONTINUOUS
10
148.443
20
-77.2247
11
148.444
21
-77.228
0
LINE
8
BLACK
6
CONTINUOUS
10
148.444
20
-77.228
11
148.442
21
-77.2309
0
LINE
8
BLACK
6
CONTINUOUS
10
148.442
20
-77.2309
11
148.44
21
-77.2407
0
LINE
8
BLACK
6
CONTINUOUS
10
148.44
20
-77.2407
11
148.428
21
-77.2556
0
LINE
8
BLACK
6
CONTINUOUS
10
148.428
20
-77.2556
11
148.418
21
-77.2725
0
LINE
8
BLACK
6
CONTINUOUS
10
148.418
20
-77.2725
11
148.412
21
-77.2748
0
LINE
8
BLACK
6
CONTINUOUS
10
148.412
20
-77.2748
11
148.407
21
-77.28
0
LINE
8
BLACK
6
CONTINUOUS
10
148.407
20
-77.28
11
148.388
21
-77.2833
0
LINE
8
BLACK
6
CONTINUOUS
10
148.388
20
-77.2833
11
148.37
21
-77.29
0
LINE
8
BLACK
6
CONTINUOUS
10
148.37
20
-77.29
11
147.37
21
-77.29
0
LINE
8
BLACK
6
CONTINUOUS
10
147.37
20
-77.29
11
147.344
21
-77.2855
0
LINE
8
BLACK
6
CONTINUOUS
10
147.344
20
-77.2855
11
147.305
21
-77.2525
0
LINE
8
BLACK
6
CONTINUOUS
10
147.305
20
-77.2525
11
147.296
21
-77.202
0
LINE
8
BLACK
6
CONTINUOUS
10
147.296
20
-77.202
11
147.322
21
-77.1575
0
LINE
8
BLACK
6
CONTINUOUS
10
147.322
20
-77.1575
11
147.37
21
-77.14
0
LINE
8
BLACK
6
CONTINUOUS
10
147.37
20
-77.14
11
148.295
21
-77.14
0
LINE
8
BLACK
6
CONTINUOUS
10
148.295
20
-77.14
11
148.295
21
-76.215
0
LINE
8
BLACK
6
CONTINUOUS
10
148.295
20
-76.215
11
148.3
21
-76.1893
0
LINE
8
BLACK
6
CONTINUOUS
10
148.3
20
-76.1893
11
148.332
21
-76.15
0
LINE
8
BLACK
6
CONTINUOUS
10
148.332
20
-76.15
11
148.383
21
-76.1411
0
LINE
8
BLACK
6
CONTINUOUS
10
81.3957
20
-75.0445
11
81.435
21
-75.0775
0
LINE
8
BLACK
6
CONTINUOUS
10
81.435
20
-75.0775
11
81.4439
21
-75.128
0
LINE
8
BLACK
6
CONTINUOUS
10
81.4439
20
-75.128
11
81.4182
21
-75.1725
0
LINE
8
BLACK
6
CONTINUOUS
10
81.4182
20
-75.1725
11
81.37
21
-75.19
0
LINE
8
BLACK
6
CONTINUOUS
10
81.37
20
-75.19
11
80.445
21
-75.19
0
LINE
8
BLACK
6
CONTINUOUS
10
80.445
20
-75.19
11
80.445
21
-76.115
0
LINE
8
BLACK
6
CONTINUOUS
10
80.445
20
-76.115
11
80.4405
21
-76.1407
0
LINE
8
BLACK
6
CONTINUOUS
10
80.4405
20
-76.1407
11
80.4075
21
-76.18
0
LINE
8
BLACK
6
CONTINUOUS
10
80.4075
20
-76.18
11
80.357
21
-76.1889
0
LINE
8
BLACK
6
CONTINUOUS
10
80.357
20
-76.1889
11
80.3125
21
-76.1632
0
LINE
8
BLACK
6
CONTINUOUS
10
80.3125
20
-76.1632
11
80.295
21
-76.115
0
LINE
8
BLACK
6
CONTINUOUS
10
80.295
20
-76.115
11
80.295
21
-75.115
0
LINE
8
BLACK
6
CONTINUOUS
10
80.295
20
-75.115
11
80.2967
21
-75.1053
0
LINE
8
BLACK
6
CONTINUOUS
10
80.2967
20
-75.1053
11
80.2961
21
-75.102
0
LINE
8
BLACK
6
CONTINUOUS
10
80.2961
20
-75.102
11
80.2978
21
-75.0991
0
LINE
8
BLACK
6
CONTINUOUS
10
80.2978
20
-75.0991
11
80.2995
21
-75.0893
0
LINE
8
BLACK
6
CONTINUOUS
10
80.2995
20
-75.0893
11
80.312
21
-75.0744
0
LINE
8
BLACK
6
CONTINUOUS
10
80.312
20
-75.0744
11
80.3218
21
-75.0575
0
LINE
8
BLACK
6
CONTINUOUS
10
80.3218
20
-75.0575
11
80.3281
21
-75.0552
0
LINE
8
BLACK
6
CONTINUOUS
10
80.3281
20
-75.0552
11
80.3325
21
-75.05
0
LINE
8
BLACK
6
CONTINUOUS
10
80.3325
20
-75.05
11
80.3517
21
-75.0467
0
LINE
8
BLACK
6
CONTINUOUS
10
80.3517
20
-75.0467
11
80.37
21
-75.04
0
LINE
8
BLACK
6
CONTINUOUS
10
80.37
20
-75.04
11
81.37
21
-75.04
0
LINE
8
BLACK
6
CONTINUOUS
10
81.37
20
-75.04
11
81.3957
21
-75.0445
0
LINE
8
BLACK
6
CONTINUOUS
10
94.3797
20
-75.0417
11
94.383
21
-75.0411
0
LINE
8
BLACK
6
CONTINUOUS
10
94.383
20
-75.0411
11
94.3859
21
-75.0428
0
LINE
8
BLACK
6
CONTINUOUS
10
94.3859
20
-75.0428
11
94.3957
21
-75.0445
0
LINE
8
BLACK
6
CONTINUOUS
10
94.3957
20
-75.0445
11
94.4106
21
-75.057
0
LINE
8
BLACK
6
CONTINUOUS
10
94.4106
20
-75.057
11
94.4275
21
-75.0668
0
LINE
8
BLACK
6
CONTINUOUS
10
94.4275
20
-75.0668
11
94.4298
21
-75.0731
0
LINE
8
BLACK
6
CONTINUOUS
10
94.4298
20
-75.0731
11
94.435
21
-75.0775
0
LINE
8
BLACK
6
CONTINUOUS
10
94.435
20
-75.0775
11
94.4383
21
-75.0967
0
LINE
8
BLACK
6
CONTINUOUS
10
94.4383
20
-75.0967
11
94.445
21
-75.115
0
LINE
8
BLACK
6
CONTINUOUS
10
94.445
20
-75.115
11
94.445
21
-76.115
0
LINE
8
BLACK
6
CONTINUOUS
10
94.445
20
-76.115
11
94.4405
21
-76.1407
0
LINE
8
BLACK
6
CONTINUOUS
10
94.4405
20
-76.1407
11
94.4075
21
-76.18
0
LINE
8
BLACK
6
CONTINUOUS
10
94.4075
20
-76.18
11
94.357
21
-76.1889
0
LINE
8
BLACK
6
CONTINUOUS
10
94.357
20
-76.1889
11
94.3125
21
-76.1632
0
LINE
8
BLACK
6
CONTINUOUS
10
94.3125
20
-76.1632
11
94.295
21
-76.115
0
LINE
8
BLACK
6
CONTINUOUS
10
94.295
20
-76.115
11
94.295
21
-75.19
0
LINE
8
BLACK
6
CONTINUOUS
10
94.295
20
-75.19
11
93.37
21
-75.19
0
LINE
8
BLACK
6
CONTINUOUS
10
93.37
20
-75.19
11
93.3443
21
-75.1855
0
LINE
8
BLACK
6
CONTINUOUS
10
93.3443
20
-75.1855
11
93.305
21
-75.1525
0
LINE
8
BLACK
6
CONTINUOUS
10
93.305
20
-75.1525
11
93.2961
21
-75.102
0
LINE
8
BLACK
6
CONTINUOUS
10
93.2961
20
-75.102
11
93.3218
21
-75.0575
0
LINE
8
BLACK
6
CONTINUOUS
10
93.3218
20
-75.0575
11
93.37
21
-75.04
0
LINE
8
BLACK
6
CONTINUOUS
10
93.37
20
-75.04
11
94.37
21
-75.04
0
LINE
8
BLACK
6
CONTINUOUS
10
94.37
20
-75.04
11
94.3797
21
-75.0417
0
LINE
8
BLACK
6
CONTINUOUS
10
116.383
20
-73.5911
11
116.427
21
-73.6168
0
LINE
8
BLACK
6
CONTINUOUS
10
116.427
20
-73.6168
11
116.445
21
-73.665
0
LINE
8
BLACK
6
CONTINUOUS
10
116.445
20
-73.665
11
116.445
21
-74.59
0
LINE
8
BLACK
6
CONTINUOUS
10
116.445
20
-74.59
11
117.37
21
-74.59
0
LINE
8
BLACK
6
CONTINUOUS
10
117.37
20
-74.59
11
117.396
21
-74.5945
0
LINE
8
BLACK
6
CONTINUOUS
10
117.396
20
-74.5945
11
117.435
21
-74.6275
0
LINE
8
BLACK
6
CONTINUOUS
10
117.435
20
-74.6275
11
117.444
21
-74.678
0
LINE
8
BLACK
6
CONTINUOUS
10
117.444
20
-74.678
11
117.418
21
-74.7225
0
LINE
8
BLACK
6
CONTINUOUS
10
117.418
20
-74.7225
11
117.37
21
-74.74
0
LINE
8
BLACK
6
CONTINUOUS
10
117.37
20
-74.74
11
116.37
21
-74.74
0
LINE
8
BLACK
6
CONTINUOUS
10
116.37
20
-74.74
11
116.36
21
-74.7383
0
LINE
8
BLACK
6
CONTINUOUS
10
116.36
20
-74.7383
11
116.357
21
-74.7389
0
LINE
8
BLACK
6
CONTINUOUS
10
116.357
20
-74.7389
11
116.354
21
-74.7372
0
LINE
8
BLACK
6
CONTINUOUS
10
116.354
20
-74.7372
11
116.344
21
-74.7355
0
LINE
8
BLACK
6
CONTINUOUS
10
116.344
20
-74.7355
11
116.329
21
-74.723
0
LINE
8
BLACK
6
CONTINUOUS
10
116.329
20
-74.723
11
116.313
21
-74.7132
0
LINE
8
BLACK
6
CONTINUOUS
10
116.313
20
-74.7132
11
116.31
21
-74.7069
0
LINE
8
BLACK
6
CONTINUOUS
10
116.31
20
-74.7069
11
116.305
21
-74.7025
0
LINE
8
BLACK
6
CONTINUOUS
10
116.305
20
-74.7025
11
116.302
21
-74.6833
0
LINE
8
BLACK
6
CONTINUOUS
10
116.302
20
-74.6833
11
116.295
21
-74.665
0
LINE
8
BLACK
6
CONTINUOUS
10
116.295
20
-74.665
11
116.295
21
-73.665
0
LINE
8
BLACK
6
CONTINUOUS
10
116.295
20
-73.665
11
116.3
21
-73.6393
0
LINE
8
BLACK
6
CONTINUOUS
10
116.3
20
-73.6393
11
116.332
21
-73.6
0
LINE
8
BLACK
6
CONTINUOUS
10
116.332
20
-73.6
11
116.383
21
-73.5911
0
LINE
8
BLACK
6
CONTINUOUS
10
130.383
20
-73.5911
11
130.427
21
-73.6168
0
LINE
8
BLACK
6
CONTINUOUS
10
130.427
20
-73.6168
11
130.445
21
-73.665
0
LINE
8
BLACK
6
CONTINUOUS
10
130.445
20
-73.665
11
130.445
21
-74.665
0
LINE
8
BLACK
6
CONTINUOUS
10
130.445
20
-74.665
11
130.443
21
-74.6747
0
LINE
8
BLACK
6
CONTINUOUS
10
130.443
20
-74.6747
11
130.444
21
-74.678
0
LINE
8
BLACK
6
CONTINUOUS
10
130.444
20
-74.678
11
130.442
21
-74.6809
0
LINE
8
BLACK
6
CONTINUOUS
10
130.442
20
-74.6809
11
130.44
21
-74.6907
0
LINE
8
BLACK
6
CONTINUOUS
10
130.44
20
-74.6907
11
130.428
21
-74.7056
0
LINE
8
BLACK
6
CONTINUOUS
10
130.428
20
-74.7056
11
130.418
21
-74.7225
0
LINE
8
BLACK
6
CONTINUOUS
10
130.418
20
-74.7225
11
130.412
21
-74.7248
0
LINE
8
BLACK
6
CONTINUOUS
10
130.412
20
-74.7248
11
130.407
21
-74.73
0
LINE
8
BLACK
6
CONTINUOUS
10
130.407
20
-74.73
11
130.388
21
-74.7333
0
LINE
8
BLACK
6
CONTINUOUS
10
130.388
20
-74.7333
11
130.37
21
-74.74
0
LINE
8
BLACK
6
CONTINUOUS
10
130.37
20
-74.74
11
129.37
21
-74.74
0
LINE
8
BLACK
6
CONTINUOUS
10
129.37
20
-74.74
11
129.344
21
-74.7355
0
LINE
8
BLACK
6
CONTINUOUS
10
129.344
20
-74.7355
11
129.305
21
-74.7025
0
LINE
8
BLACK
6
CONTINUOUS
10
129.305
20
-74.7025
11
129.296
21
-74.652
0
LINE
8
BLACK
6
CONTINUOUS
10
129.296
20
-74.652
11
129.322
21
-74.6075
0
LINE
8
BLACK
6
CONTINUOUS
10
129.322
20
-74.6075
11
129.37
21
-74.59
0
LINE
8
BLACK
6
CONTINUOUS
10
129.37
20
-74.59
11
130.295
21
-74.59
0
LINE
8
BLACK
6
CONTINUOUS
10
130.295
20
-74.59
11
130.295
21
-73.665
0
LINE
8
BLACK
6
CONTINUOUS
10
130.295
20
-73.665
11
130.3
21
-73.6393
0
LINE
8
BLACK
6
CONTINUOUS
10
130.3
20
-73.6393
11
130.332
21
-73.6
0
LINE
8
BLACK
6
CONTINUOUS
10
130.332
20
-73.6
11
130.383
21
-73.5911
0
LINE
8
BLACK
6
CONTINUOUS
10
42.8957
20
-72.4945
11
42.935
21
-72.5275
0
LINE
8
BLACK
6
CONTINUOUS
10
42.935
20
-72.5275
11
42.9439
21
-72.578
0
LINE
8
BLACK
6
CONTINUOUS
10
42.9439
20
-72.578
11
42.9182
21
-72.6225
0
LINE
8
BLACK
6
CONTINUOUS
10
42.9182
20
-72.6225
11
42.87
21
-72.64
0
LINE
8
BLACK
6
CONTINUOUS
10
42.87
20
-72.64
11
41.945
21
-72.64
0
LINE
8
BLACK
6
CONTINUOUS
10
41.945
20
-72.64
11
41.945
21
-73.565
0
LINE
8
BLACK
6
CONTINUOUS
10
41.945
20
-73.565
11
41.9405
21
-73.5907
0
LINE
8
BLACK
6
CONTINUOUS
10
41.9405
20
-73.5907
11
41.9075
21
-73.63
0
LINE
8
BLACK
6
CONTINUOUS
10
41.9075
20
-73.63
11
41.857
21
-73.6389
0
LINE
8
BLACK
6
CONTINUOUS
10
41.857
20
-73.6389
11
41.8125
21
-73.6132
0
LINE
8
BLACK
6
CONTINUOUS
10
41.8125
20
-73.6132
11
41.795
21
-73.565
0
LINE
8
BLACK
6
CONTINUOUS
10
41.795
20
-73.565
11
41.795
21
-72.565
0
LINE
8
BLACK
6
CONTINUOUS
10
41.795
20
-72.565
11
41.7967
21
-72.5553
0
LINE
8
BLACK
6
CONTINUOUS
10
41.7967
20
-72.5553
11
41.7961
21
-72.552
0
LINE
8
BLACK
6
CONTINUOUS
10
41.7961
20
-72.552
11
41.7978
21
-72.5491
0
LINE
8
BLACK
6
CONTINUOUS
10
41.7978
20
-72.5491
11
41.7995
21
-72.5393
0
LINE
8
BLACK
6
CONTINUOUS
10
41.7995
20
-72.5393
11
41.812
21
-72.5244
0
LINE
8
BLACK
6
CONTINUOUS
10
41.812
20
-72.5244
11
41.8218
21
-72.5075
0
LINE
8
BLACK
6
CONTINUOUS
10
41.8218
20
-72.5075
11
41.8281
21
-72.5052
0
LINE
8
BLACK
6
CONTINUOUS
10
41.8281
20
-72.5052
11
41.8325
21
-72.5
0
LINE
8
BLACK
6
CONTINUOUS
10
41.8325
20
-72.5
11
41.8517
21
-72.4967
0
LINE
8
BLACK
6
CONTINUOUS
10
41.8517
20
-72.4967
11
41.87
21
-72.49
0
LINE
8
BLACK
6
CONTINUOUS
10
41.87
20
-72.49
11
42.87
21
-72.49
0
LINE
8
BLACK
6
CONTINUOUS
10
42.87
20
-72.49
11
42.8957
21
-72.4945
0
LINE
8
BLACK
6
CONTINUOUS
10
55.8797
20
-72.4917
11
55.883
21
-72.4911
0
LINE
8
BLACK
6
CONTINUOUS
10
55.883
20
-72.4911
11
55.8859
21
-72.4928
0
LINE
8
BLACK
6
CONTINUOUS
10
55.8859
20
-72.4928
11
55.8957
21
-72.4945
0
LINE
8
BLACK
6
CONTINUOUS
10
55.8957
20
-72.4945
11
55.9106
21
-72.507
0
LINE
8
BLACK
6
CONTINUOUS
10
55.9106
20
-72.507
11
55.9275
21
-72.5168
0
LINE
8
BLACK
6
CONTINUOUS
10
55.9275
20
-72.5168
11
55.9298
21
-72.5231
0
LINE
8
BLACK
6
CONTINUOUS
10
55.9298
20
-72.5231
11
55.935
21
-72.5275
0
LINE
8
BLACK
6
CONTINUOUS
10
55.935
20
-72.5275
11
55.9383
21
-72.5467
0
LINE
8
BLACK
6
CONTINUOUS
10
55.9383
20
-72.5467
11
55.945
21
-72.565
0
LINE
8
BLACK
6
CONTINUOUS
10
55.945
20
-72.565
11
55.945
21
-73.565
0
LINE
8
BLACK
6
CONTINUOUS
10
55.945
20
-73.565
11
55.9405
21
-73.5907
0
LINE
8
BLACK
6
CONTINUOUS
10
55.9405
20
-73.5907
11
55.9075
21
-73.63
0
LINE
8
BLACK
6
CONTINUOUS
10
55.9075
20
-73.63
11
55.857
21
-73.6389
0
LINE
8
BLACK
6
CONTINUOUS
10
55.857
20
-73.6389
11
55.8125
21
-73.6132
0
LINE
8
BLACK
6
CONTINUOUS
10
55.8125
20
-73.6132
11
55.795
21
-73.565
0
LINE
8
BLACK
6
CONTINUOUS
10
55.795
20
-73.565
11
55.795
21
-72.64
0
LINE
8
BLACK
6
CONTINUOUS
10
55.795
20
-72.64
11
54.87
21
-72.64
0
LINE
8
BLACK
6
CONTINUOUS
10
54.87
20
-72.64
11
54.8443
21
-72.6355
0
LINE
8
BLACK
6
CONTINUOUS
10
54.8443
20
-72.6355
11
54.805
21
-72.6025
0
LINE
8
BLACK
6
CONTINUOUS
10
54.805
20
-72.6025
11
54.7961
21
-72.552
0
LINE
8
BLACK
6
CONTINUOUS
10
54.7961
20
-72.552
11
54.8218
21
-72.5075
0
LINE
8
BLACK
6
CONTINUOUS
10
54.8218
20
-72.5075
11
54.87
21
-72.49
0
LINE
8
BLACK
6
CONTINUOUS
10
54.87
20
-72.49
11
55.87
21
-72.49
0
LINE
8
BLACK
6
CONTINUOUS
10
55.87
20
-72.49
11
55.8797
21
-72.4917
0
LINE
8
BLACK
6
CONTINUOUS
10
99.3957
20
-72.4945
11
99.435
21
-72.5275
0
LINE
8
BLACK
6
CONTINUOUS
10
99.435
20
-72.5275
11
99.4439
21
-72.578
0
LINE
8
BLACK
6
CONTINUOUS
10
99.4439
20
-72.578
11
99.4182
21
-72.6225
0
LINE
8
BLACK
6
CONTINUOUS
10
99.4182
20
-72.6225
11
99.37
21
-72.64
0
LINE
8
BLACK
6
CONTINUOUS
10
99.37
20
-72.64
11
98.445
21
-72.64
0
LINE
8
BLACK
6
CONTINUOUS
10
98.445
20
-72.64
11
98.445
21
-73.565
0
LINE
8
BLACK
6
CONTINUOUS
10
98.445
20
-73.565
11
98.4405
21
-73.5907
0
LINE
8
BLACK
6
CONTINUOUS
10
98.4405
20
-73.5907
11
98.4075
21
-73.63
0
LINE
8
BLACK
6
CONTINUOUS
10
98.4075
20
-73.63
11
98.357
21
-73.6389
0
LINE
8
BLACK
6
CONTINUOUS
10
98.357
20
-73.6389
11
98.3125
21
-73.6132
0
LINE
8
BLACK
6
CONTINUOUS
10
98.3125
20
-73.6132
11
98.295
21
-73.565
0
LINE
8
BLACK
6
CONTINUOUS
10
98.295
20
-73.565
11
98.295
21
-72.565
0
LINE
8
BLACK
6
CONTINUOUS
10
98.295
20
-72.565
11
98.2967
21
-72.5553
0
LINE
8
BLACK
6
CONTINUOUS
10
98.2967
20
-72.5553
11
98.2961
21
-72.552
0
LINE
8
BLACK
6
CONTINUOUS
10
98.2961
20
-72.552
11
98.2978
21
-72.5491
0
LINE
8
BLACK
6
CONTINUOUS
10
98.2978
20
-72.5491
11
98.2995
21
-72.5393
0
LINE
8
BLACK
6
CONTINUOUS
10
98.2995
20
-72.5393
11
98.312
21
-72.5244
0
LINE
8
BLACK
6
CONTINUOUS
10
98.312
20
-72.5244
11
98.3218
21
-72.5075
0
LINE
8
BLACK
6
CONTINUOUS
10
98.3218
20
-72.5075
11
98.3281
21
-72.5052
0
LINE
8
BLACK
6
CONTINUOUS
10
98.3281
20
-72.5052
11
98.3325
21
-72.5
0
LINE
8
BLACK
6
CONTINUOUS
10
98.3325
20
-72.5
11
98.3517
21
-72.4967
0
LINE
8
BLACK
6
CONTINUOUS
10
98.3517
20
-72.4967
11
98.37
21
-72.49
0
LINE
8
BLACK
6
CONTINUOUS
10
98.37
20
-72.49
11
99.37
21
-72.49
0
LINE
8
BLACK
6
CONTINUOUS
10
99.37
20
-72.49
11
99.3957
21
-72.4945
0
LINE
8
BLACK
6
CONTINUOUS
10
112.38
20
-72.4917
11
112.383
21
-72.4911
0
LINE
8
BLACK
6
CONTINUOUS
10
112.383
20
-72.4911
11
112.386
21
-72.4928
0
LINE
8
BLACK
6
CONTINUOUS
10
112.386
20
-72.4928
11
112.396
21
-72.4945
0
LINE
8
BLACK
6
CONTINUOUS
10
112.396
20
-72.4945
11
112.411
21
-72.507
0
LINE
8
BLACK
6
CONTINUOUS
10
112.411
20
-72.507
11
112.427
21
-72.5168
0
LINE
8
BLACK
6
CONTINUOUS
10
112.427
20
-72.5168
11
112.43
21
-72.5231
0
LINE
8
BLACK
6
CONTINUOUS
10
112.43
20
-72.5231
11
112.435
21
-72.5275
0
LINE
8
BLACK
6
CONTINUOUS
10
112.435
20
-72.5275
11
112.438
21
-72.5467
0
LINE
8
BLACK
6
CONTINUOUS
10
112.438
20
-72.5467
11
112.445
21
-72.565
0
LINE
8
BLACK
6
CONTINUOUS
10
112.445
20
-72.565
11
112.445
21
-73.565
0
LINE
8
BLACK
6
CONTINUOUS
10
112.445
20
-73.565
11
112.44
21
-73.5907
0
LINE
8
BLACK
6
CONTINUOUS
10
112.44
20
-73.5907
11
112.407
21
-73.63
0
LINE
8
BLACK
6
CONTINUOUS
10
112.407
20
-73.63
11
112.357
21
-73.6389
0
LINE
8
BLACK
6
CONTINUOUS
10
112.357
20
-73.6389
11
112.313
21
-73.6132
0
LINE
8
BLACK
6
CONTINUOUS
10
112.313
20
-73.6132
11
112.295
21
-73.565
0
LINE
8
BLACK
6
CONTINUOUS
10
112.295
20
-73.565
11
112.295
21
-72.64
0
LINE
8
BLACK
6
CONTINUOUS
10
112.295
20
-72.64
11
111.37
21
-72.64
0
LINE
8
BLACK
6
CONTINUOUS
10
111.37
20
-72.64
11
111.344
21
-72.6355
0
LINE
8
BLACK
6
CONTINUOUS
10
111.344
20
-72.6355
11
111.305
21
-72.6025
0
LINE
8
BLACK
6
CONTINUOUS
10
111.305
20
-72.6025
11
111.296
21
-72.552
0
LINE
8
BLACK
6
CONTINUOUS
10
111.296
20
-72.552
11
111.322
21
-72.5075
0
LINE
8
BLACK
6
CONTINUOUS
10
111.322
20
-72.5075
11
111.37
21
-72.49
0
LINE
8
BLACK
6
CONTINUOUS
10
111.37
20
-72.49
11
112.37
21
-72.49
0
LINE
8
BLACK
6
CONTINUOUS
10
112.37
20
-72.49
11
112.38
21
-72.4917
0
LINE
8
BLACK
6
CONTINUOUS
10
80.383
20
-71.0411
11
80.4275
21
-71.0668
0
LINE
8
BLACK
6
CONTINUOUS
10
80.4275
20
-71.0668
11
80.445
21
-71.115
0
LINE
8
BLACK
6
CONTINUOUS
10
80.445
20
-71.115
11
80.445
21
-72.04
0
LINE
8
BLACK
6
CONTINUOUS
10
80.445
20
-72.04
11
81.37
21
-72.04
0
LINE
8
BLACK
6
CONTINUOUS
10
81.37
20
-72.04
11
81.3957
21
-72.0445
0
LINE
8
BLACK
6
CONTINUOUS
10
81.3957
20
-72.0445
11
81.435
21
-72.0775
0
LINE
8
BLACK
6
CONTINUOUS
10
81.435
20
-72.0775
11
81.4439
21
-72.128
0
LINE
8
BLACK
6
CONTINUOUS
10
81.4439
20
-72.128
11
81.4182
21
-72.1725
0
LINE
8
BLACK
6
CONTINUOUS
10
81.4182
20
-72.1725
11
81.37
21
-72.19
0
LINE
8
BLACK
6
CONTINUOUS
10
81.37
20
-72.19
11
80.37
21
-72.19
0
LINE
8
BLACK
6
CONTINUOUS
10
80.37
20
-72.19
11
80.3603
21
-72.1883
0
LINE
8
BLACK
6
CONTINUOUS
10
80.3603
20
-72.1883
11
80.357
21
-72.1889
0
LINE
8
BLACK
6
CONTINUOUS
10
80.357
20
-72.1889
11
80.3541
21
-72.1872
0
LINE
8
BLACK
6
CONTINUOUS
10
80.3541
20
-72.1872
11
80.3443
21
-72.1855
0
LINE
8
BLACK
6
CONTINUOUS
10
80.3443
20
-72.1855
11
80.3294
21
-72.173
0
LINE
8
BLACK
6
CONTINUOUS
10
80.3294
20
-72.173
11
80.3125
21
-72.1632
0
LINE
8
BLACK
6
CONTINUOUS
10
80.3125
20
-72.1632
11
80.3102
21
-72.1568
0
LINE
8
BLACK
6
CONTINUOUS
10
80.3102
20
-72.1568
11
80.305
21
-72.1525
0
LINE
8
BLACK
6
CONTINUOUS
10
80.305
20
-72.1525
11
80.3017
21
-72.1333
0
LINE
8
BLACK
6
CONTINUOUS
10
80.3017
20
-72.1333
11
80.295
21
-72.115
0
LINE
8
BLACK
6
CONTINUOUS
10
80.295
20
-72.115
11
80.295
21
-71.115
0
LINE
8
BLACK
6
CONTINUOUS
10
80.295
20
-71.115
11
80.2995
21
-71.0893
0
LINE
8
BLACK
6
CONTINUOUS
10
80.2995
20
-71.0893
11
80.3325
21
-71.05
0
LINE
8
BLACK
6
CONTINUOUS
10
80.3325
20
-71.05
11
80.383
21
-71.0411
0
LINE
8
BLACK
6
CONTINUOUS
10
94.383
20
-71.0411
11
94.4275
21
-71.0668
0
LINE
8
BLACK
6
CONTINUOUS
10
94.4275
20
-71.0668
11
94.445
21
-71.115
0
LINE
8
BLACK
6
CONTINUOUS
10
94.445
20
-71.115
11
94.445
21
-72.115
0
LINE
8
BLACK
6
CONTINUOUS
10
94.445
20
-72.115
11
94.4433
21
-72.1247
0
LINE
8
BLACK
6
CONTINUOUS
10
94.4433
20
-72.1247
11
94.4439
21
-72.128
0
LINE
8
BLACK
6
CONTINUOUS
10
94.4439
20
-72.128
11
94.4422
21
-72.1309
0
LINE
8
BLACK
6
CONTINUOUS
10
94.4422
20
-72.1309
11
94.4405
21
-72.1407
0
LINE
8
BLACK
6
CONTINUOUS
10
94.4405
20
-72.1407
11
94.428
21
-72.1556
0
LINE
8
BLACK
6
CONTINUOUS
10
94.428
20
-72.1556
11
94.4182
21
-72.1725
0
LINE
8
BLACK
6
CONTINUOUS
10
94.4182
20
-72.1725
11
94.4119
21
-72.1748
0
LINE
8
BLACK
6
CONTINUOUS
10
94.4119
20
-72.1748
11
94.4075
21
-72.18
0
LINE
8
BLACK
6
CONTINUOUS
10
94.4075
20
-72.18
11
94.3883
21
-72.1833
0
LINE
8
BLACK
6
CONTINUOUS
10
94.3883
20
-72.1833
11
94.37
21
-72.19
0
LINE
8
BLACK
6
CONTINUOUS
10
94.37
20
-72.19
11
93.37
21
-72.19
0
LINE
8
BLACK
6
CONTINUOUS
10
93.37
20
-72.19
11
93.3443
21
-72.1855
0
LINE
8
BLACK
6
CONTINUOUS
10
93.3443
20
-72.1855
11
93.305
21
-72.1525
0
LINE
8
BLACK
6
CONTINUOUS
10
93.305
20
-72.1525
11
93.2961
21
-72.102
0
LINE
8
BLACK
6
CONTINUOUS
10
93.2961
20
-72.102
11
93.3218
21
-72.0575
0
LINE
8
BLACK
6
CONTINUOUS
10
93.3218
20
-72.0575
11
93.37
21
-72.04
0
LINE
8
BLACK
6
CONTINUOUS
10
93.37
20
-72.04
11
94.295
21
-72.04
0
LINE
8
BLACK
6
CONTINUOUS
10
94.295
20
-72.04
11
94.295
21
-71.115
0
LINE
8
BLACK
6
CONTINUOUS
10
94.295
20
-71.115
11
94.2995
21
-71.0893
0
LINE
8
BLACK
6
CONTINUOUS
10
94.2995
20
-71.0893
11
94.3325
21
-71.05
0
LINE
8
BLACK
6
CONTINUOUS
10
94.3325
20
-71.05
11
94.383
21
-71.0411
0
LINE
8
BLACK
6
CONTINUOUS
10
63.3957
20
-69.0945
11
63.435
21
-69.1275
0
LINE
8
BLACK
6
CONTINUOUS
10
63.435
20
-69.1275
11
63.4439
21
-69.178
0
LINE
8
BLACK
6
CONTINUOUS
10
63.4439
20
-69.178
11
63.4182
21
-69.2225
0
LINE
8
BLACK
6
CONTINUOUS
10
63.4182
20
-69.2225
11
63.37
21
-69.24
0
LINE
8
BLACK
6
CONTINUOUS
10
63.37
20
-69.24
11
62.445
21
-69.24
0
LINE
8
BLACK
6
CONTINUOUS
10
62.445
20
-69.24
11
62.445
21
-70.165
0
LINE
8
BLACK
6
CONTINUOUS
10
62.445
20
-70.165
11
62.4405
21
-70.1907
0
LINE
8
BLACK
6
CONTINUOUS
10
62.4405
20
-70.1907
11
62.4075
21
-70.23
0
LINE
8
BLACK
6
CONTINUOUS
10
62.4075
20
-70.23
11
62.357
21
-70.2389
0
LINE
8
BLACK
6
CONTINUOUS
10
62.357
20
-70.2389
11
62.3125
21
-70.2132
0
LINE
8
BLACK
6
CONTINUOUS
10
62.3125
20
-70.2132
11
62.295
21
-70.165
0
LINE
8
BLACK
6
CONTINUOUS
10
62.295
20
-70.165
11
62.295
21
-69.165
0
LINE
8
BLACK
6
CONTINUOUS
10
62.295
20
-69.165
11
62.2967
21
-69.1553
0
LINE
8
BLACK
6
CONTINUOUS
10
62.2967
20
-69.1553
11
62.2961
21
-69.152
0
LINE
8
BLACK
6
CONTINUOUS
10
62.2961
20
-69.152
11
62.2978
21
-69.1491
0
LINE
8
BLACK
6
CONTINUOUS
10
62.2978
20
-69.1491
11
62.2995
21
-69.1393
0
LINE
8
BLACK
6
CONTINUOUS
10
62.2995
20
-69.1393
11
62.312
21
-69.1244
0
LINE
8
BLACK
6
CONTINUOUS
10
62.312
20
-69.1244
11
62.3218
21
-69.1075
0
LINE
8
BLACK
6
CONTINUOUS
10
62.3218
20
-69.1075
11
62.3281
21
-69.1052
0
LINE
8
BLACK
6
CONTINUOUS
10
62.3281
20
-69.1052
11
62.3325
21
-69.1
0
LINE
8
BLACK
6
CONTINUOUS
10
62.3325
20
-69.1
11
62.3517
21
-69.0967
0
LINE
8
BLACK
6
CONTINUOUS
10
62.3517
20
-69.0967
11
62.37
21
-69.09
0
LINE
8
BLACK
6
CONTINUOUS
10
62.37
20
-69.09
11
63.37
21
-69.09
0
LINE
8
BLACK
6
CONTINUOUS
10
63.37
20
-69.09
11
63.3957
21
-69.0945
0
LINE
8
BLACK
6
CONTINUOUS
10
76.3797
20
-69.0917
11
76.383
21
-69.0911
0
LINE
8
BLACK
6
CONTINUOUS
10
76.383
20
-69.0911
11
76.3859
21
-69.0928
0
LINE
8
BLACK
6
CONTINUOUS
10
76.3859
20
-69.0928
11
76.3957
21
-69.0945
0
LINE
8
BLACK
6
CONTINUOUS
10
76.3957
20
-69.0945
11
76.4106
21
-69.107
0
LINE
8
BLACK
6
CONTINUOUS
10
76.4106
20
-69.107
11
76.4275
21
-69.1168
0
LINE
8
BLACK
6
CONTINUOUS
10
76.4275
20
-69.1168
11
76.4298
21
-69.1231
0
LINE
8
BLACK
6
CONTINUOUS
10
76.4298
20
-69.1231
11
76.435
21
-69.1275
0
LINE
8
BLACK
6
CONTINUOUS
10
76.435
20
-69.1275
11
76.4383
21
-69.1467
0
LINE
8
BLACK
6
CONTINUOUS
10
76.4383
20
-69.1467
11
76.445
21
-69.165
0
LINE
8
BLACK
6
CONTINUOUS
10
76.445
20
-69.165
11
76.445
21
-70.165
0
LINE
8
BLACK
6
CONTINUOUS
10
76.445
20
-70.165
11
76.4405
21
-70.1907
0
LINE
8
BLACK
6
CONTINUOUS
10
76.4405
20
-70.1907
11
76.4075
21
-70.23
0
LINE
8
BLACK
6
CONTINUOUS
10
76.4075
20
-70.23
11
76.357
21
-70.2389
0
LINE
8
BLACK
6
CONTINUOUS
10
76.357
20
-70.2389
11
76.3125
21
-70.2132
0
LINE
8
BLACK
6
CONTINUOUS
10
76.3125
20
-70.2132
11
76.295
21
-70.165
0
LINE
8
BLACK
6
CONTINUOUS
10
76.295
20
-70.165
11
76.295
21
-69.24
0
LINE
8
BLACK
6
CONTINUOUS
10
76.295
20
-69.24
11
75.37
21
-69.24
0
LINE
8
BLACK
6
CONTINUOUS
10
75.37
20
-69.24
11
75.3443
21
-69.2355
0
LINE
8
BLACK
6
CONTINUOUS
10
75.3443
20
-69.2355
11
75.305
21
-69.2025
0
LINE
8
BLACK
6
CONTINUOUS
10
75.305
20
-69.2025
11
75.2961
21
-69.152
0
LINE
8
BLACK
6
CONTINUOUS
10
75.2961
20
-69.152
11
75.3218
21
-69.1075
0
LINE
8
BLACK
6
CONTINUOUS
10
75.3218
20
-69.1075
11
75.37
21
-69.09
0
LINE
8
BLACK
6
CONTINUOUS
10
75.37
20
-69.09
11
76.37
21
-69.09
0
LINE
8
BLACK
6
CONTINUOUS
10
76.37
20
-69.09
11
76.3797
21
-69.0917
0
LINE
8
BLACK
6
CONTINUOUS
10
98.383
20
-68.4911
11
98.4275
21
-68.5168
0
LINE
8
BLACK
6
CONTINUOUS
10
98.4275
20
-68.5168
11
98.445
21
-68.565
0
LINE
8
BLACK
6
CONTINUOUS
10
98.445
20
-68.565
11
98.445
21
-69.49
0
LINE
8
BLACK
6
CONTINUOUS
10
98.445
20
-69.49
11
99.37
21
-69.49
0
LINE
8
BLACK
6
CONTINUOUS
10
99.37
20
-69.49
11
99.3957
21
-69.4945
0
LINE
8
BLACK
6
CONTINUOUS
10
99.3957
20
-69.4945
11
99.435
21
-69.5275
0
LINE
8
BLACK
6
CONTINUOUS
10
99.435
20
-69.5275
11
99.4439
21
-69.578
0
LINE
8
BLACK
6
CONTINUOUS
10
99.4439
20
-69.578
11
99.4182
21
-69.6225
0
LINE
8
BLACK
6
CONTINUOUS
10
99.4182
20
-69.6225
11
99.37
21
-69.64
0
LINE
8
BLACK
6
CONTINUOUS
10
99.37
20
-69.64
11
98.37
21
-69.64
0
LINE
8
BLACK
6
CONTINUOUS
10
98.37
20
-69.64
11
98.3603
21
-69.6383
0
LINE
8
BLACK
6
CONTINUOUS
10
98.3603
20
-69.6383
11
98.357
21
-69.6389
0
LINE
8
BLACK
6
CONTINUOUS
10
98.357
20
-69.6389
11
98.3541
21
-69.6372
0
LINE
8
BLACK
6
CONTINUOUS
10
98.3541
20
-69.6372
11
98.3443
21
-69.6355
0
LINE
8
BLACK
6
CONTINUOUS
10
98.3443
20
-69.6355
11
98.3294
21
-69.623
0
LINE
8
BLACK
6
CONTINUOUS
10
98.3294
20
-69.623
11
98.3125
21
-69.6132
0
LINE
8
BLACK
6
CONTINUOUS
10
98.3125
20
-69.6132
11
98.3102
21
-69.6068
0
LINE
8
BLACK
6
CONTINUOUS
10
98.3102
20
-69.6068
11
98.305
21
-69.6025
0
LINE
8
BLACK
6
CONTINUOUS
10
98.305
20
-69.6025
11
98.3017
21
-69.5833
0
LINE
8
BLACK
6
CONTINUOUS
10
98.3017
20
-69.5833
11
98.295
21
-69.565
0
LINE
8
BLACK
6
CONTINUOUS
10
98.295
20
-69.565
11
98.295
21
-68.565
0
LINE
8
BLACK
6
CONTINUOUS
10
98.295
20
-68.565
11
98.2995
21
-68.5393
0
LINE
8
BLACK
6
CONTINUOUS
10
98.2995
20
-68.5393
11
98.3325
21
-68.5
0
LINE
8
BLACK
6
CONTINUOUS
10
98.3325
20
-68.5
11
98.383
21
-68.4911
0
LINE
8
BLACK
6
CONTINUOUS
10
112.383
20
-68.4911
11
112.427
21
-68.5168
0
LINE
8
BLACK
6
CONTINUOUS
10
112.427
20
-68.5168
11
112.445
21
-68.565
0
LINE
8
BLACK
6
CONTINUOUS
10
112.445
20
-68.565
11
112.445
21
-69.565
0
LINE
8
BLACK
6
CONTINUOUS
10
112.445
20
-69.565
11
112.443
21
-69.5747
0
LINE
8
BLACK
6
CONTINUOUS
10
112.443
20
-69.5747
11
112.444
21
-69.578
0
LINE
8
BLACK
6
CONTINUOUS
10
112.444
20
-69.578
11
112.442
21
-69.5809
0
LINE
8
BLACK
6
CONTINUOUS
10
112.442
20
-69.5809
11
112.44
21
-69.5907
0
LINE
8
BLACK
6
CONTINUOUS
10
112.44
20
-69.5907
11
112.428
21
-69.6056
0
LINE
8
BLACK
6
CONTINUOUS
10
112.428
20
-69.6056
11
112.418
21
-69.6225
0
LINE
8
BLACK
6
CONTINUOUS
10
112.418
20
-69.6225
11
112.412
21
-69.6248
0
LINE
8
BLACK
6
CONTINUOUS
10
112.412
20
-69.6248
11
112.407
21
-69.63
0
LINE
8
BLACK
6
CONTINUOUS
10
112.407
20
-69.63
11
112.388
21
-69.6333
0
LINE
8
BLACK
6
CONTINUOUS
10
112.388
20
-69.6333
11
112.37
21
-69.64
0
LINE
8
BLACK
6
CONTINUOUS
10
112.37
20
-69.64
11
111.37
21
-69.64
0
LINE
8
BLACK
6
CONTINUOUS
10
111.37
20
-69.64
11
111.344
21
-69.6355
0
LINE
8
BLACK
6
CONTINUOUS
10
111.344
20
-69.6355
11
111.305
21
-69.6025
0
LINE
8
BLACK
6
CONTINUOUS
10
111.305
20
-69.6025
11
111.296
21
-69.552
0
LINE
8
BLACK
6
CONTINUOUS
10
111.296
20
-69.552
11
111.322
21
-69.5075
0
LINE
8
BLACK
6
CONTINUOUS
10
111.322
20
-69.5075
11
111.37
21
-69.49
0
LINE
8
BLACK
6
CONTINUOUS
10
111.37
20
-69.49
11
112.295
21
-69.49
0
LINE
8
BLACK
6
CONTINUOUS
10
112.295
20
-69.49
11
112.295
21
-68.565
0
LINE
8
BLACK
6
CONTINUOUS
10
112.295
20
-68.565
11
112.3
21
-68.5393
0
LINE
8
BLACK
6
CONTINUOUS
10
112.3
20
-68.5393
11
112.332
21
-68.5
0
LINE
8
BLACK
6
CONTINUOUS
10
112.332
20
-68.5
11
112.383
21
-68.4911
0
LINE
8
BLACK
6
CONTINUOUS
10
135.396
20
-63.1445
11
135.435
21
-63.1775
0
LINE
8
BLACK
6
CONTINUOUS
10
135.435
20
-63.1775
11
135.444
21
-63.228
0
LINE
8
BLACK
6
CONTINUOUS
10
135.444
20
-63.228
11
135.418
21
-63.2725
0
LINE
8
BLACK
6
CONTINUOUS
10
135.418
20
-63.2725
11
135.37
21
-63.29
0
LINE
8
BLACK
6
CONTINUOUS
10
135.37
20
-63.29
11
134.445
21
-63.29
0
LINE
8
BLACK
6
CONTINUOUS
10
134.445
20
-63.29
11
134.445
21
-64.215
0
LINE
8
BLACK
6
CONTINUOUS
10
134.445
20
-64.215
11
134.44
21
-64.2407
0
LINE
8
BLACK
6
CONTINUOUS
10
134.44
20
-64.2407
11
134.407
21
-64.28
0
LINE
8
BLACK
6
CONTINUOUS
10
134.407
20
-64.28
11
134.357
21
-64.2889
0
LINE
8
BLACK
6
CONTINUOUS
10
134.357
20
-64.2889
11
134.313
21
-64.2632
0
LINE
8
BLACK
6
CONTINUOUS
10
134.313
20
-64.2632
11
134.295
21
-64.215
0
LINE
8
BLACK
6
CONTINUOUS
10
134.295
20
-64.215
11
134.295
21
-63.215
0
LINE
8
BLACK
6
CONTINUOUS
10
134.295
20
-63.215
11
134.297
21
-63.2053
0
LINE
8
BLACK
6
CONTINUOUS
10
134.297
20
-63.2053
11
134.296
21
-63.202
0
LINE
8
BLACK
6
CONTINUOUS
10
134.296
20
-63.202
11
134.298
21
-63.1991
0
LINE
8
BLACK
6
CONTINUOUS
10
134.298
20
-63.1991
11
134.3
21
-63.1893
0
LINE
8
BLACK
6
CONTINUOUS
10
134.3
20
-63.1893
11
134.312
21
-63.1744
0
LINE
8
BLACK
6
CONTINUOUS
10
134.312
20
-63.1744
11
134.322
21
-63.1575
0
LINE
8
BLACK
6
CONTINUOUS
10
134.322
20
-63.1575
11
134.328
21
-63.1552
0
LINE
8
BLACK
6
CONTINUOUS
10
134.328
20
-63.1552
11
134.332
21
-63.15
0
LINE
8
BLACK
6
CONTINUOUS
10
134.332
20
-63.15
11
134.352
21
-63.1467
0
LINE
8
BLACK
6
CONTINUOUS
10
134.352
20
-63.1467
11
134.37
21
-63.14
0
LINE
8
BLACK
6
CONTINUOUS
10
134.37
20
-63.14
11
135.37
21
-63.14
0
LINE
8
BLACK
6
CONTINUOUS
10
135.37
20
-63.14
11
135.396
21
-63.1445
0
LINE
8
BLACK
6
CONTINUOUS
10
148.38
20
-63.1417
11
148.383
21
-63.1411
0
LINE
8
BLACK
6
CONTINUOUS
10
148.383
20
-63.1411
11
148.386
21
-63.1428
0
LINE
8
BLACK
6
CONTINUOUS
10
148.386
20
-63.1428
11
148.396
21
-63.1445
0
LINE
8
BLACK
6
CONTINUOUS
10
148.396
20
-63.1445
11
148.411
21
-63.157
0
LINE
8
BLACK
6
CONTINUOUS
10
148.411
20
-63.157
11
148.427
21
-63.1668
0
LINE
8
BLACK
6
CONTINUOUS
10
148.427
20
-63.1668
11
148.43
21
-63.1731
0
LINE
8
BLACK
6
CONTINUOUS
10
148.43
20
-63.1731
11
148.435
21
-63.1775
0
LINE
8
BLACK
6
CONTINUOUS
10
148.435
20
-63.1775
11
148.438
21
-63.1967
0
LINE
8
BLACK
6
CONTINUOUS
10
148.438
20
-63.1967
11
148.445
21
-63.215
0
LINE
8
BLACK
6
CONTINUOUS
10
148.445
20
-63.215
11
148.445
21
-64.215
0
LINE
8
BLACK
6
CONTINUOUS
10
148.445
20
-64.215
11
148.44
21
-64.2407
0
LINE
8
BLACK
6
CONTINUOUS
10
148.44
20
-64.2407
11
148.407
21
-64.28
0
LINE
8
BLACK
6
CONTINUOUS
10
148.407
20
-64.28
11
148.357
21
-64.2889
0
LINE
8
BLACK
6
CONTINUOUS
10
148.357
20
-64.2889
11
148.313
21
-64.2632
0
LINE
8
BLACK
6
CONTINUOUS
10
148.313
20
-64.2632
11
148.295
21
-64.215
0
LINE
8
BLACK
6
CONTINUOUS
10
148.295
20
-64.215
11
148.295
21
-63.29
0
LINE
8
BLACK
6
CONTINUOUS
10
148.295
20
-63.29
11
147.37
21
-63.29
0
LINE
8
BLACK
6
CONTINUOUS
10
147.37
20
-63.29
11
147.344
21
-63.2855
0
LINE
8
BLACK
6
CONTINUOUS
10
147.344
20
-63.2855
11
147.305
21
-63.2525
0
LINE
8
BLACK
6
CONTINUOUS
10
147.305
20
-63.2525
11
147.296
21
-63.202
0
LINE
8
BLACK
6
CONTINUOUS
10
147.296
20
-63.202
11
147.322
21
-63.1575
0
LINE
8
BLACK
6
CONTINUOUS
10
147.322
20
-63.1575
11
147.37
21
-63.14
0
LINE
8
BLACK
6
CONTINUOUS
10
147.37
20
-63.14
11
148.37
21
-63.14
0
LINE
8
BLACK
6
CONTINUOUS
10
148.37
20
-63.14
11
148.38
21
-63.1417
0
LINE
8
BLACK
6
CONTINUOUS
10
117.396
20
-60.5945
11
117.435
21
-60.6275
0
LINE
8
BLACK
6
CONTINUOUS
10
117.435
20
-60.6275
11
117.444
21
-60.678
0
LINE
8
BLACK
6
CONTINUOUS
10
117.444
20
-60.678
11
117.418
21
-60.7225
0
LINE
8
BLACK
6
CONTINUOUS
10
117.418
20
-60.7225
11
117.37
21
-60.74
0
LINE
8
BLACK
6
CONTINUOUS
10
117.37
20
-60.74
11
116.445
21
-60.74
0
LINE
8
BLACK
6
CONTINUOUS
10
116.445
20
-60.74
11
116.445
21
-61.665
0
LINE
8
BLACK
6
CONTINUOUS
10
116.445
20
-61.665
11
116.44
21
-61.6907
0
LINE
8
BLACK
6
CONTINUOUS
10
116.44
20
-61.6907
11
116.407
21
-61.73
0
LINE
8
BLACK
6
CONTINUOUS
10
116.407
20
-61.73
11
116.357
21
-61.7389
0
LINE
8
BLACK
6
CONTINUOUS
10
116.357
20
-61.7389
11
116.313
21
-61.7132
0
LINE
8
BLACK
6
CONTINUOUS
10
116.313
20
-61.7132
11
116.295
21
-61.665
0
LINE
8
BLACK
6
CONTINUOUS
10
116.295
20
-61.665
11
116.295
21
-60.665
0
LINE
8
BLACK
6
CONTINUOUS
10
116.295
20
-60.665
11
116.297
21
-60.6553
0
LINE
8
BLACK
6
CONTINUOUS
10
116.297
20
-60.6553
11
116.296
21
-60.652
0
LINE
8
BLACK
6
CONTINUOUS
10
116.296
20
-60.652
11
116.298
21
-60.6491
0
LINE
8
BLACK
6
CONTINUOUS
10
116.298
20
-60.6491
11
116.3
21
-60.6393
0
LINE
8
BLACK
6
CONTINUOUS
10
116.3
20
-60.6393
11
116.312
21
-60.6244
0
LINE
8
BLACK
6
CONTINUOUS
10
116.312
20
-60.6244
11
116.322
21
-60.6075
0
LINE
8
BLACK
6
CONTINUOUS
10
116.322
20
-60.6075
11
116.328
21
-60.6052
0
LINE
8
BLACK
6
CONTINUOUS
10
116.328
20
-60.6052
11
116.332
21
-60.6
0
LINE
8
BLACK
6
CONTINUOUS
10
116.332
20
-60.6
11
116.352
21
-60.5967
0
LINE
8
BLACK
6
CONTINUOUS
10
116.352
20
-60.5967
11
116.37
21
-60.59
0
LINE
8
BLACK
6
CONTINUOUS
10
116.37
20
-60.59
11
117.37
21
-60.59
0
LINE
8
BLACK
6
CONTINUOUS
10
117.37
20
-60.59
11
117.396
21
-60.5945
0
LINE
8
BLACK
6
CONTINUOUS
10
130.38
20
-60.5917
11
130.383
21
-60.5911
0
LINE
8
BLACK
6
CONTINUOUS
10
130.383
20
-60.5911
11
130.386
21
-60.5928
0
LINE
8
BLACK
6
CONTINUOUS
10
130.386
20
-60.5928
11
130.396
21
-60.5945
0
LINE
8
BLACK
6
CONTINUOUS
10
130.396
20
-60.5945
11
130.411
21
-60.607
0
LINE
8
BLACK
6
CONTINUOUS
10
130.411
20
-60.607
11
130.427
21
-60.6168
0
LINE
8
BLACK
6
CONTINUOUS
10
130.427
20
-60.6168
11
130.43
21
-60.6231
0
LINE
8
BLACK
6
CONTINUOUS
10
130.43
20
-60.6231
11
130.435
21
-60.6275
0
LINE
8
BLACK
6
CONTINUOUS
10
130.435
20
-60.6275
11
130.438
21
-60.6467
0
LINE
8
BLACK
6
CONTINUOUS
10
130.438
20
-60.6467
11
130.445
21
-60.665
0
LINE
8
BLACK
6
CONTINUOUS
10
130.445
20
-60.665
11
130.445
21
-61.665
0
LINE
8
BLACK
6
CONTINUOUS
10
130.445
20
-61.665
11
130.44
21
-61.6907
0
LINE
8
BLACK
6
CONTINUOUS
10
130.44
20
-61.6907
11
130.407
21
-61.73
0
LINE
8
BLACK
6
CONTINUOUS
10
130.407
20
-61.73
11
130.357
21
-61.7389
0
LINE
8
BLACK
6
CONTINUOUS
10
130.357
20
-61.7389
11
130.313
21
-61.7132
0
LINE
8
BLACK
6
CONTINUOUS
10
130.313
20
-61.7132
11
130.295
21
-61.665
0
LINE
8
BLACK
6
CONTINUOUS
10
130.295
20
-61.665
11
130.295
21
-60.74
0
LINE
8
BLACK
6
CONTINUOUS
10
130.295
20
-60.74
11
129.37
21
-60.74
0
LINE
8
BLACK
6
CONTINUOUS
10
129.37
20
-60.74
11
129.344
21
-60.7355
0
LINE
8
BLACK
6
CONTINUOUS
10
129.344
20
-60.7355
11
129.305
21
-60.7025
0
LINE
8
BLACK
6
CONTINUOUS
10
129.305
20
-60.7025
11
129.296
21
-60.652
0
LINE
8
BLACK
6
CONTINUOUS
10
129.296
20
-60.652
11
129.322
21
-60.6075
0
LINE
8
BLACK
6
CONTINUOUS
10
129.322
20
-60.6075
11
129.37
21
-60.59
0
LINE
8
BLACK
6
CONTINUOUS
10
129.37
20
-60.59
11
130.37
21
-60.59
0
LINE
8
BLACK
6
CONTINUOUS
10
130.37
20
-60.59
11
130.38
21
-60.5917
0
LINE
8
BLACK
6
CONTINUOUS
10
81.3957
20
-58.0445
11
81.435
21
-58.0775
0
LINE
8
BLACK
6
CONTINUOUS
10
81.435
20
-58.0775
11
81.4439
21
-58.128
0
LINE
8
BLACK
6
CONTINUOUS
10
81.4439
20
-58.128
11
81.4182
21
-58.1725
0
LINE
8
BLACK
6
CONTINUOUS
10
81.4182
20
-58.1725
11
81.37
21
-58.19
0
LINE
8
BLACK
6
CONTINUOUS
10
81.37
20
-58.19
11
80.445
21
-58.19
0
LINE
8
BLACK
6
CONTINUOUS
10
80.445
20
-58.19
11
80.445
21
-59.115
0
LINE
8
BLACK
6
CONTINUOUS
10
80.445
20
-59.115
11
80.4405
21
-59.1407
0
LINE
8
BLACK
6
CONTINUOUS
10
80.4405
20
-59.1407
11
80.4075
21
-59.18
0
LINE
8
BLACK
6
CONTINUOUS
10
80.4075
20
-59.18
11
80.357
21
-59.1889
0
LINE
8
BLACK
6
CONTINUOUS
10
80.357
20
-59.1889
11
80.3125
21
-59.1632
0
LINE
8
BLACK
6
CONTINUOUS
10
80.3125
20
-59.1632
11
80.295
21
-59.115
0
LINE
8
BLACK
6
CONTINUOUS
10
80.295
20
-59.115
11
80.295
21
-58.115
0
LINE
8
BLACK
6
CONTINUOUS
10
80.295
20
-58.115
11
80.2967
21
-58.1053
0
LINE
8
BLACK
6
CONTINUOUS
10
80.2967
20
-58.1053
11
80.2961
21
-58.102
0
LINE
8
BLACK
6
CONTINUOUS
10
80.2961
20
-58.102
11
80.2978
21
-58.0991
0
LINE
8
BLACK
6
CONTINUOUS
10
80.2978
20
-58.0991
11
80.2995
21
-58.0893
0
LINE
8
BLACK
6
CONTINUOUS
10
80.2995
20
-58.0893
11
80.312
21
-58.0744
0
LINE
8
BLACK
6
CONTINUOUS
10
80.312
20
-58.0744
11
80.3218
21
-58.0575
0
LINE
8
BLACK
6
CONTINUOUS
10
80.3218
20
-58.0575
11
80.3281
21
-58.0552
0
LINE
8
BLACK
6
CONTINUOUS
10
80.3281
20
-58.0552
11
80.3325
21
-58.05
0
LINE
8
BLACK
6
CONTINUOUS
10
80.3325
20
-58.05
11
80.3517
21
-58.0467
0
LINE
8
BLACK
6
CONTINUOUS
10
80.3517
20
-58.0467
11
80.37
21
-58.04
0
LINE
8
BLACK
6
CONTINUOUS
10
80.37
20
-58.04
11
81.37
21
-58.04
0
LINE
8
BLACK
6
CONTINUOUS
10
81.37
20
-58.04
11
81.3957
21
-58.0445
0
LINE
8
BLACK
6
CONTINUOUS
10
94.3797
20
-58.0417
11
94.383
21
-58.0411
0
LINE
8
BLACK
6
CONTINUOUS
10
94.383
20
-58.0411
11
94.3859
21
-58.0428
0
LINE
8
BLACK
6
CONTINUOUS
10
94.3859
20
-58.0428
11
94.3957
21
-58.0445
0
LINE
8
BLACK
6
CONTINUOUS
10
94.3957
20
-58.0445
11
94.4106
21
-58.057
0
LINE
8
BLACK
6
CONTINUOUS
10
94.4106
20
-58.057
11
94.4275
21
-58.0668
0
LINE
8
BLACK
6
CONTINUOUS
10
94.4275
20
-58.0668
11
94.4298
21
-58.0731
0
LINE
8
BLACK
6
CONTINUOUS
10
94.4298
20
-58.0731
11
94.435
21
-58.0775
0
LINE
8
BLACK
6
CONTINUOUS
10
94.435
20
-58.0775
11
94.4383
21
-58.0967
0
LINE
8
BLACK
6
CONTINUOUS
10
94.4383
20
-58.0967
11
94.445
21
-58.115
0
LINE
8
BLACK
6
CONTINUOUS
10
94.445
20
-58.115
11
94.445
21
-59.115
0
LINE
8
BLACK
6
CONTINUOUS
10
94.445
20
-59.115
11
94.4405
21
-59.1407
0
LINE
8
BLACK
6
CONTINUOUS
10
94.4405
20
-59.1407
11
94.4075
21
-59.18
0
LINE
8
BLACK
6
CONTINUOUS
10
94.4075
20
-59.18
11
94.357
21
-59.1889
0
LINE
8
BLACK
6
CONTINUOUS
10
94.357
20
-59.1889
11
94.3125
21
-59.1632
0
LINE
8
BLACK
6
CONTINUOUS
10
94.3125
20
-59.1632
11
94.295
21
-59.115
0
LINE
8
BLACK
6
CONTINUOUS
10
94.295
20
-59.115
11
94.295
21
-58.19
0
LINE
8
BLACK
6
CONTINUOUS
10
94.295
20
-58.19
11
93.37
21
-58.19
0
LINE
8
BLACK
6
CONTINUOUS
10
93.37
20
-58.19
11
93.3443
21
-58.1855
0
LINE
8
BLACK
6
CONTINUOUS
10
93.3443
20
-58.1855
11
93.305
21
-58.1525
0
LINE
8
BLACK
6
CONTINUOUS
10
93.305
20
-58.1525
11
93.2961
21
-58.102
0
LINE
8
BLACK
6
CONTINUOUS
10
93.2961
20
-58.102
11
93.3218
21
-58.0575
0
LINE
8
BLACK
6
CONTINUOUS
10
93.3218
20
-58.0575
11
93.37
21
-58.04
0
LINE
8
BLACK
6
CONTINUOUS
10
93.37
20
-58.04
11
94.37
21
-58.04
0
LINE
8
BLACK
6
CONTINUOUS
10
94.37
20
-58.04
11
94.3797
21
-58.0417
0
LINE
8
BLACK
6
CONTINUOUS
10
99.3957
20
-55.4945
11
99.435
21
-55.5275
0
LINE
8
BLACK
6
CONTINUOUS
10
99.435
20
-55.5275
11
99.4439
21
-55.578
0
LINE
8
BLACK
6
CONTINUOUS
10
99.4439
20
-55.578
11
99.4182
21
-55.6225
0
LINE
8
BLACK
6
CONTINUOUS
10
99.4182
20
-55.6225
11
99.37
21
-55.64
0
LINE
8
BLACK
6
CONTINUOUS
10
99.37
20
-55.64
11
98.445
21
-55.64
0
LINE
8
BLACK
6
CONTINUOUS
10
98.445
20
-55.64
11
98.445
21
-56.565
0
LINE
8
BLACK
6
CONTINUOUS
10
98.445
20
-56.565
11
98.4405
21
-56.5907
0
LINE
8
BLACK
6
CONTINUOUS
10
98.4405
20
-56.5907
11
98.4075
21
-56.63
0
LINE
8
BLACK
6
CONTINUOUS
10
98.4075
20
-56.63
11
98.357
21
-56.6389
0
LINE
8
BLACK
6
CONTINUOUS
10
98.357
20
-56.6389
11
98.3125
21
-56.6132
0
LINE
8
BLACK
6
CONTINUOUS
10
98.3125
20
-56.6132
11
98.295
21
-56.565
0
LINE
8
BLACK
6
CONTINUOUS
10
98.295
20
-56.565
11
98.295
21
-55.565
0
LINE
8
BLACK
6
CONTINUOUS
10
98.295
20
-55.565
11
98.2967
21
-55.5553
0
LINE
8
BLACK
6
CONTINUOUS
10
98.2967
20
-55.5553
11
98.2961
21
-55.552
0
LINE
8
BLACK
6
CONTINUOUS
10
98.2961
20
-55.552
11
98.2978
21
-55.5491
0
LINE
8
BLACK
6
CONTINUOUS
10
98.2978
20
-55.5491
11
98.2995
21
-55.5393
0
LINE
8
BLACK
6
CONTINUOUS
10
98.2995
20
-55.5393
11
98.312
21
-55.5244
0
LINE
8
BLACK
6
CONTINUOUS
10
98.312
20
-55.5244
11
98.3218
21
-55.5075
0
LINE
8
BLACK
6
CONTINUOUS
10
98.3218
20
-55.5075
11
98.3281
21
-55.5052
0
LINE
8
BLACK
6
CONTINUOUS
10
98.3281
20
-55.5052
11
98.3325
21
-55.5
0
LINE
8
BLACK
6
CONTINUOUS
10
98.3325
20
-55.5
11
98.3517
21
-55.4967
0
LINE
8
BLACK
6
CONTINUOUS
10
98.3517
20
-55.4967
11
98.37
21
-55.49
0
LINE
8
BLACK
6
CONTINUOUS
10
98.37
20
-55.49
11
99.37
21
-55.49
0
LINE
8
BLACK
6
CONTINUOUS
10
99.37
20
-55.49
11
99.3957
21
-55.4945
0
LINE
8
BLACK
6
CONTINUOUS
10
112.38
20
-55.4917
11
112.383
21
-55.4911
0
LINE
8
BLACK
6
CONTINUOUS
10
112.383
20
-55.4911
11
112.386
21
-55.4928
0
LINE
8
BLACK
6
CONTINUOUS
10
112.386
20
-55.4928
11
112.396
21
-55.4945
0
LINE
8
BLACK
6
CONTINUOUS
10
112.396
20
-55.4945
11
112.411
21
-55.507
0
LINE
8
BLACK
6
CONTINUOUS
10
112.411
20
-55.507
11
112.427
21
-55.5168
0
LINE
8
BLACK
6
CONTINUOUS
10
112.427
20
-55.5168
11
112.43
21
-55.5231
0
LINE
8
BLACK
6
CONTINUOUS
10
112.43
20
-55.5231
11
112.435
21
-55.5275
0
LINE
8
BLACK
6
CONTINUOUS
10
112.435
20
-55.5275
11
112.438
21
-55.5467
0
LINE
8
BLACK
6
CONTINUOUS
10
112.438
20
-55.5467
11
112.445
21
-55.565
0
LINE
8
BLACK
6
CONTINUOUS
10
112.445
20
-55.565
11
112.445
21
-56.565
0
LINE
8
BLACK
6
CONTINUOUS
10
112.445
20
-56.565
11
112.44
21
-56.5907
0
LINE
8
BLACK
6
CONTINUOUS
10
112.44
20
-56.5907
11
112.407
21
-56.63
0
LINE
8
BLACK
6
CONTINUOUS
10
112.407
20
-56.63
11
112.357
21
-56.6389
0
LINE
8
BLACK
6
CONTINUOUS
10
112.357
20
-56.6389
11
112.313
21
-56.6132
0
LINE
8
BLACK
6
CONTINUOUS
10
112.313
20
-56.6132
11
112.295
21
-56.565
0
LINE
8
BLACK
6
CONTINUOUS
10
112.295
20
-56.565
11
112.295
21
-55.64
0
LINE
8
BLACK
6
CONTINUOUS
10
112.295
20
-55.64
11
111.37
21
-55.64
0
LINE
8
BLACK
6
CONTINUOUS
10
111.37
20
-55.64
11
111.344
21
-55.6355
0
LINE
8
BLACK
6
CONTINUOUS
10
111.344
20
-55.6355
11
111.305
21
-55.6025
0
LINE
8
BLACK
6
CONTINUOUS
10
111.305
20
-55.6025
11
111.296
21
-55.552
0
LINE
8
BLACK
6
CONTINUOUS
10
111.296
20
-55.552
11
111.322
21
-55.5075
0
LINE
8
BLACK
6
CONTINUOUS
10
111.322
20
-55.5075
11
111.37
21
-55.49
0
LINE
8
BLACK
6
CONTINUOUS
10
111.37
20
-55.49
11
112.37
21
-55.49
0
LINE
8
BLACK
6
CONTINUOUS
10
112.37
20
-55.49
11
112.38
21
-55.4917
  0
ENDSEC
  0
EOF
