M48
; DRILL file {KiCad 7.0.6} date Tue Sep 19 12:55:28 2023
; FORMAT={-:-/ absolute / inch / decimal}
; #@! TF.CreationDate,2023-09-19T12:55:28+07:00
; #@! TF.GenerationSoftware,Kicad,Pcbnew,7.0.6
; #@! TF.FileFunction,Plated,1,2,PTH
FMAT,2
INCH
; #@! TA.AperFunction,Plated,PTH,ViaDrill
T1C0.0039
; #@! TA.AperFunction,Plated,PTH,ViaDrill
T2C0.0157
; #@! TA.AperFunction,Plated,PTH,ComponentDrill
T3C0.0157
; #@! TA.AperFunction,Plated,PTH,ComponentDrill
T4C0.0320
; #@! TA.AperFunction,Plated,PTH,ComponentDrill
T5C0.0354
; #@! TA.AperFunction,Plated,PTH,ComponentDrill
T6C0.0500
; #@! TA.AperFunction,Plated,PTH,ComponentDrill
T7C0.0512
; #@! TA.AperFunction,Plated,PTH,ComponentDrill
T8C0.0866
%
G90
G05
T1
X-0.123Y0.103
X-0.1114Y1.4431
X-0.0823Y0.7719
X0.1031Y-0.1486
X0.1039Y0.536
X0.1047Y1.2175
X0.1445Y1.1258
X0.1445Y0.4561
X0.1472Y-0.2136
X0.6841Y1.577
X0.6841Y0.8801
X0.9071Y1.3435
X0.9098Y0.6726
X0.9102Y-0.1455
X0.911Y0.5222
X0.9114Y0.0128
X0.9118Y1.2049
X1.3978Y1.9951
X1.4335Y1.34
X1.4335Y0.6722
X1.615Y1.7754
X1.6177Y1.1171
X1.6189Y0.9758
X1.6193Y1.6388
X1.6193Y0.4435
X1.6201Y0.2998
X2.1014Y2.1199
X2.1421Y1.4624
X2.1421Y0.7683
X2.2787Y0.0094
X2.3224Y1.7337
X2.3252Y0.3911
X2.3268Y1.8821
X2.3268Y0.5478
X2.3276Y1.2061
X2.3291Y1.0632
X2.4582Y0.0281
X2.5996Y-0.1132
X2.81Y1.2439
X2.8152Y1.9262
X2.8152Y0.5726
X3.0358Y0.3352
X3.0366Y1.0152
X3.037Y1.6829
X3.0374Y1.5329
X3.0374Y0.1943
X3.0378Y0.8632
X3.1114Y0.0226
X3.1823Y-0.2285
X3.3583Y-0.5093
X3.3898Y-0.6006
X3.5187Y1.1549
X3.5187Y0.4726
X3.5201Y0.0498
X3.5595Y1.8388
X3.7343Y-0.1061
X3.7425Y0.2337
X3.7445Y1.5785
X3.7445Y1.4337
X3.7453Y0.7691
X3.7461Y0.9144
X3.7472Y0.0813
X3.8194Y-0.0682
X3.939Y-0.4231
X3.9425Y1.4526
X3.9429Y1.415
X4.0453Y-0.8423
X4.0497Y1.7746
X4.0497Y1.4446
X4.0945Y-0.7274
X4.1551Y0.3636
X4.2189Y0.2124
X4.2768Y1.712
X4.2886Y0.5435
X4.2941Y0.8352
X4.3075Y0.3482
X4.3102Y1.2108
X4.3142Y1.3352
X4.3142Y1.1616
X4.3154Y1.1136
X4.3154Y1.0596
X4.3327Y0.9754
X4.3334Y0.4723
X4.3539Y0.8882
X4.3654Y0.4348
X4.3941Y1.3014
X4.3996Y1.1695
X4.413Y0.9415
X4.413Y0.5518
X4.424Y1.1998
X4.4242Y1.3535
X4.4453Y0.5553
X4.4509Y1.0166
X4.4512Y1.0927
X4.4512Y1.1191
X4.4516Y0.9533
X4.4528Y1.3557
X4.464Y0.6581
X4.4714Y1.6454
X4.4874Y0.6166
X4.4925Y0.7111
X4.498Y0.6557
X4.5094Y1.3998
X4.5094Y1.3539
X4.5094Y1.1104
X4.5114Y0.9068
X4.5118Y0.9941
X4.5592Y0.6264
X4.5669Y1.5882
X4.5748Y0.6459
X4.6295Y0.9567
X4.6303Y0.6711
X4.6307Y1.1695
X4.6315Y1.1166
X4.6315Y1.0166
X4.6358Y1.3594
X4.6531Y1.612
X4.6535Y1.6638
X4.6543Y1.5352
X4.6621Y0.6081
X4.6621Y0.5884
X4.6787Y1.1166
X4.6799Y1.0166
X4.6799Y0.9567
X4.6996Y0.8636
X4.7007Y-0.7375
X4.7055Y-1.2041
X4.7248Y0.7892
X4.7925Y-1.0715
T2
X0.7248Y0.2407
T3
X1.089Y0.4699
X1.0984Y1.1392
X1.1063Y0.5116
X1.1063Y0.4281
X1.1157Y1.1809
X1.1157Y1.0974
X1.148Y0.5289
X1.148Y0.4108
X1.1575Y1.1982
X1.1575Y1.0801
X1.1898Y0.5116
X1.1898Y0.4281
X1.1992Y1.1809
X1.1992Y1.0974
X1.2071Y0.4699
X1.2165Y1.1392
X3.2134Y1.4738
X3.2201Y0.8053
X3.2307Y1.5156
X3.2307Y1.4321
X3.2374Y0.847
X3.2374Y0.7636
X3.2724Y1.5329
X3.2724Y1.4148
X3.2791Y0.8644
X3.2791Y0.7463
X3.3142Y1.5156
X3.3142Y1.4321
X3.3209Y0.847
X3.3209Y0.7636
X3.3315Y1.4738
X3.3382Y0.8053
T4
X4.1713Y1.7352
X4.1713Y1.6352
X4.1713Y1.5352
X4.1713Y1.4352
X4.1713Y1.3352
X4.1713Y1.2352
X4.1713Y1.1352
X4.1713Y1.0352
X4.1713Y0.9352
X4.1713Y0.8352
X4.1713Y0.7352
X4.1713Y0.6352
X4.2224Y1.6882
X4.2224Y1.5882
X4.2224Y1.4882
X4.2224Y1.3882
X4.2224Y1.2882
X4.2224Y1.1882
X4.2224Y1.0882
X4.2224Y0.9882
X4.2224Y0.8882
X4.2224Y0.7882
X4.2224Y0.6882
X4.2224Y0.5882
X4.7713Y1.7352
X4.7713Y1.6352
X4.7713Y1.5352
X4.7713Y1.4352
X4.7713Y1.3352
X4.7713Y1.2352
X4.7713Y1.1352
X4.7713Y1.0352
X4.7713Y0.9352
X4.7713Y0.8352
X4.7713Y0.7352
X4.7713Y0.6352
X4.8224Y1.6882
X4.8224Y1.5882
X4.8224Y1.4882
X4.8224Y1.3882
X4.8224Y1.2882
X4.8224Y1.1882
X4.8224Y1.0882
X4.8224Y0.9882
X4.8224Y0.8882
X4.8224Y0.7882
X4.8224Y0.6882
X4.8224Y0.5882
T6
X-0.1969Y1.189
X-0.1969Y0.5197
X-0.1969Y-0.1496
X0.0Y1.1063
X0.0Y0.437
X0.0Y-0.2323
X0.1969Y1.189
X0.1969Y0.5197
X0.1969Y-0.1496
X0.6102Y1.3228
X0.6102Y0.6535
X0.6102Y-0.0157
X0.8071Y1.2402
X0.8071Y0.5709
X0.8071Y-0.0984
X1.0039Y1.3228
X1.0039Y0.6535
X1.0039Y-0.0157
X1.3189Y1.7579
X1.3189Y1.0886
X1.3189Y0.4193
X1.5157Y1.6752
X1.5157Y1.0059
X1.5157Y0.3366
X1.7126Y1.7579
X1.7126Y1.0886
X1.7126Y0.4193
X2.0276Y1.8583
X2.0276Y1.189
X2.0276Y0.5197
X2.2244Y1.7756
X2.2244Y1.1063
X2.2244Y0.437
X2.4213Y1.8583
X2.4213Y1.189
X2.4213Y0.5197
X2.7362Y1.6575
X2.7362Y0.9882
X2.7362Y0.3189
X2.9331Y1.5748
X2.9331Y0.9055
X2.9331Y0.2362
X3.0487Y-0.4613
X3.1299Y1.6575
X3.1299Y0.9882
X3.1299Y0.3189
X3.2282Y-0.5769
X3.4365Y-0.5297
X3.4449Y1.5571
X3.4449Y0.8878
X3.4449Y0.2185
X3.6417Y1.4744
X3.6417Y0.8051
X3.6417Y0.1358
X3.8052Y-0.6301
X3.8386Y1.5571
X3.8386Y0.8878
X3.8386Y0.2185
X3.9619Y-0.7752
X4.1751Y-0.7648
X4.5156Y-0.9269
X4.6448Y-1.097
X4.8566Y-1.1238
T7
X4.6189Y0.0703
X4.8748Y0.0703
T8
X1.148Y0.4699
X1.1575Y1.1392
X3.2724Y1.4738
X3.2791Y0.8053
T5
G00X4.4918Y0.3749
M15
G01X4.4682Y0.3749
M16
G05
G00X4.4918Y0.2844
M15
G01X4.4682Y0.2844
M16
G05
G00X4.5351Y0.4655
M15
G01X4.5115Y0.4655
M16
G05
G00X4.5351Y0.1938
M15
G01X4.5115Y0.1938
M16
G05
G00X4.6926Y0.4655
M15
G01X4.669Y0.4655
M16
G05
G00X4.6926Y0.1938
M15
G01X4.669Y0.1938
M16
G05
G00X4.8107Y0.4655
M15
G01X4.7871Y0.4655
M16
G05
G00X4.8107Y0.1938
M15
G01X4.7871Y0.1938
M16
G05
T0
M30
