%TF.GenerationSoftware,KiCad,Pcbnew,7.0.6*%
%TF.CreationDate,2023-09-23T12:41:15+07:00*%
%TF.ProjectId,rose,726f7365-2e6b-4696-9361-645f70636258,rev?*%
%TF.SameCoordinates,Original*%
%TF.FileFunction,Soldermask,Bot*%
%TF.FilePolarity,Negative*%
%FSLAX46Y46*%
G04 Gerber Fmt 4.6, Leading zero omitted, Abs format (unit mm)*
G04 Created by KiCad (PCBNEW 7.0.6) date 2023-09-23 12:41:15*
%MOMM*%
%LPD*%
G01*
G04 APERTURE LIST*
G04 Aperture macros list*
%AMRotRect*
0 Rectangle, with rotation*
0 The origin of the aperture is its center*
0 $1 length*
0 $2 width*
0 $3 Rotation angle, in degrees counterclockwise*
0 Add horizontal line*
21,1,$1,$2,0,0,$3*%
G04 Aperture macros list end*
%ADD10C,0.100000*%
%ADD11C,0.393700*%
%ADD12C,0.500000*%
%ADD13C,4.000000*%
%ADD14C,1.701800*%
%ADD15C,3.000000*%
%ADD16C,3.429000*%
%ADD17R,2.600000X2.600000*%
%ADD18C,2.032000*%
%ADD19C,1.200000*%
%ADD20O,2.200000X1.600000*%
%ADD21C,2.000000*%
%ADD22RotRect,2.600000X2.600000X160.000000*%
%ADD23RotRect,2.600000X2.600000X150.000000*%
%ADD24RotRect,2.600000X2.600000X170.000000*%
%ADD25C,1.524000*%
G04 APERTURE END LIST*
%TO.C,D8*%
D10*
X-97372036Y37017848D02*
X-98222036Y37017848D01*
X-98222036Y38217848D01*
X-97372036Y38217848D01*
X-97372036Y37017848D01*
G36*
X-97372036Y37017848D02*
G01*
X-98222036Y37017848D01*
X-98222036Y38217848D01*
X-97372036Y38217848D01*
X-97372036Y37017848D01*
G37*
X-97372036Y40567848D02*
X-98222036Y40567848D01*
X-98222036Y41767848D01*
X-97372036Y41767848D01*
X-97372036Y40567848D01*
G36*
X-97372036Y40567848D02*
G01*
X-98222036Y40567848D01*
X-98222036Y41767848D01*
X-97372036Y41767848D01*
X-97372036Y40567848D01*
G37*
%TO.C,D6*%
X-25372036Y59967848D02*
X-26222036Y59967848D01*
X-26222036Y61167848D01*
X-25372036Y61167848D01*
X-25372036Y59967848D01*
G36*
X-25372036Y59967848D02*
G01*
X-26222036Y59967848D01*
X-26222036Y61167848D01*
X-25372036Y61167848D01*
X-25372036Y59967848D01*
G37*
X-25372036Y63517848D02*
X-26222036Y63517848D01*
X-26222036Y64717848D01*
X-25372036Y64717848D01*
X-25372036Y63517848D01*
G36*
X-25372036Y63517848D02*
G01*
X-26222036Y63517848D01*
X-26222036Y64717848D01*
X-25372036Y64717848D01*
X-25372036Y63517848D01*
G37*
%TO.C,D15*%
X-79372036Y31067848D02*
X-80222036Y31067848D01*
X-80222036Y32267848D01*
X-79372036Y32267848D01*
X-79372036Y31067848D01*
G36*
X-79372036Y31067848D02*
G01*
X-80222036Y31067848D01*
X-80222036Y32267848D01*
X-79372036Y32267848D01*
X-79372036Y31067848D01*
G37*
X-79372036Y34617848D02*
X-80222036Y34617848D01*
X-80222036Y35817848D01*
X-79372036Y35817848D01*
X-79372036Y34617848D01*
G36*
X-79372036Y34617848D02*
G01*
X-80222036Y34617848D01*
X-80222036Y35817848D01*
X-79372036Y35817848D01*
X-79372036Y34617848D01*
G37*
%TO.C,D21*%
X905561Y6243910D02*
X305561Y5204680D01*
X-430561Y5629680D01*
X169439Y6668910D01*
X905561Y6243910D01*
G36*
X905561Y6243910D02*
G01*
X305561Y5204680D01*
X-430561Y5629680D01*
X169439Y6668910D01*
X905561Y6243910D01*
G37*
X-869439Y3169520D02*
X-1469439Y2130290D01*
X-2205561Y2555290D01*
X-1605561Y3594520D01*
X-869439Y3169520D01*
G36*
X-869439Y3169520D02*
G01*
X-1469439Y2130290D01*
X-2205561Y2555290D01*
X-1605561Y3594520D01*
X-869439Y3169520D01*
G37*
%TO.C,D5*%
X-43372036Y62517848D02*
X-44222036Y62517848D01*
X-44222036Y63717848D01*
X-43372036Y63717848D01*
X-43372036Y62517848D01*
G36*
X-43372036Y62517848D02*
G01*
X-44222036Y62517848D01*
X-44222036Y63717848D01*
X-43372036Y63717848D01*
X-43372036Y62517848D01*
G37*
X-43372036Y66067848D02*
X-44222036Y66067848D01*
X-44222036Y67267848D01*
X-43372036Y67267848D01*
X-43372036Y66067848D01*
G36*
X-43372036Y66067848D02*
G01*
X-44222036Y66067848D01*
X-44222036Y67267848D01*
X-43372036Y67267848D01*
X-43372036Y66067848D01*
G37*
%TO.C,D19*%
X-39254356Y20215243D02*
X-39462734Y19033474D01*
X-40299821Y19181075D01*
X-40091443Y20362844D01*
X-39254356Y20215243D01*
G36*
X-39254356Y20215243D02*
G01*
X-39462734Y19033474D01*
X-40299821Y19181075D01*
X-40091443Y20362844D01*
X-39254356Y20215243D01*
G37*
X-39870807Y16719175D02*
X-40079185Y15537406D01*
X-40916272Y15685007D01*
X-40707894Y16866776D01*
X-39870807Y16719175D01*
G36*
X-39870807Y16719175D02*
G01*
X-40079185Y15537406D01*
X-40916272Y15685007D01*
X-40707894Y16866776D01*
X-39870807Y16719175D01*
G37*
%TO.C,D17*%
X-43372036Y28517848D02*
X-44222036Y28517848D01*
X-44222036Y29717848D01*
X-43372036Y29717848D01*
X-43372036Y28517848D01*
G36*
X-43372036Y28517848D02*
G01*
X-44222036Y28517848D01*
X-44222036Y29717848D01*
X-43372036Y29717848D01*
X-43372036Y28517848D01*
G37*
X-43372036Y32067848D02*
X-44222036Y32067848D01*
X-44222036Y33267848D01*
X-43372036Y33267848D01*
X-43372036Y32067848D01*
G36*
X-43372036Y32067848D02*
G01*
X-44222036Y32067848D01*
X-44222036Y33267848D01*
X-43372036Y33267848D01*
X-43372036Y32067848D01*
G37*
%TO.C,D4*%
X-61372036Y67617848D02*
X-62222036Y67617848D01*
X-62222036Y68817848D01*
X-61372036Y68817848D01*
X-61372036Y67617848D01*
G36*
X-61372036Y67617848D02*
G01*
X-62222036Y67617848D01*
X-62222036Y68817848D01*
X-61372036Y68817848D01*
X-61372036Y67617848D01*
G37*
X-61372036Y71167848D02*
X-62222036Y71167848D01*
X-62222036Y72367848D01*
X-61372036Y72367848D01*
X-61372036Y71167848D01*
G36*
X-61372036Y71167848D02*
G01*
X-62222036Y71167848D01*
X-62222036Y72367848D01*
X-61372036Y72367848D01*
X-61372036Y71167848D01*
G37*
%TO.C,D14*%
X-97372036Y20017848D02*
X-98222036Y20017848D01*
X-98222036Y21217848D01*
X-97372036Y21217848D01*
X-97372036Y20017848D01*
G36*
X-97372036Y20017848D02*
G01*
X-98222036Y20017848D01*
X-98222036Y21217848D01*
X-97372036Y21217848D01*
X-97372036Y20017848D01*
G37*
X-97372036Y23567848D02*
X-98222036Y23567848D01*
X-98222036Y24767848D01*
X-97372036Y24767848D01*
X-97372036Y23567848D01*
G36*
X-97372036Y23567848D02*
G01*
X-98222036Y23567848D01*
X-98222036Y24767848D01*
X-97372036Y24767848D01*
X-97372036Y23567848D01*
G37*
%TO.C,D9*%
X-79372036Y48067848D02*
X-80222036Y48067848D01*
X-80222036Y49267848D01*
X-79372036Y49267848D01*
X-79372036Y48067848D01*
G36*
X-79372036Y48067848D02*
G01*
X-80222036Y48067848D01*
X-80222036Y49267848D01*
X-79372036Y49267848D01*
X-79372036Y48067848D01*
G37*
X-79372036Y51617848D02*
X-80222036Y51617848D01*
X-80222036Y52817848D01*
X-79372036Y52817848D01*
X-79372036Y51617848D01*
G36*
X-79372036Y51617848D02*
G01*
X-80222036Y51617848D01*
X-80222036Y52817848D01*
X-79372036Y52817848D01*
X-79372036Y51617848D01*
G37*
%TO.C,D3*%
X-79372036Y65067848D02*
X-80222036Y65067848D01*
X-80222036Y66267848D01*
X-79372036Y66267848D01*
X-79372036Y65067848D01*
G36*
X-79372036Y65067848D02*
G01*
X-80222036Y65067848D01*
X-80222036Y66267848D01*
X-79372036Y66267848D01*
X-79372036Y65067848D01*
G37*
X-79372036Y68617848D02*
X-80222036Y68617848D01*
X-80222036Y69817848D01*
X-79372036Y69817848D01*
X-79372036Y68617848D01*
G36*
X-79372036Y68617848D02*
G01*
X-80222036Y68617848D01*
X-80222036Y69817848D01*
X-79372036Y69817848D01*
X-79372036Y68617848D01*
G37*
%TO.C,D13*%
X-117872036Y16617848D02*
X-118722036Y16617848D01*
X-118722036Y17817848D01*
X-117872036Y17817848D01*
X-117872036Y16617848D01*
G36*
X-117872036Y16617848D02*
G01*
X-118722036Y16617848D01*
X-118722036Y17817848D01*
X-117872036Y17817848D01*
X-117872036Y16617848D01*
G37*
X-117872036Y20167848D02*
X-118722036Y20167848D01*
X-118722036Y21367848D01*
X-117872036Y21367848D01*
X-117872036Y20167848D01*
G36*
X-117872036Y20167848D02*
G01*
X-118722036Y20167848D01*
X-118722036Y21367848D01*
X-117872036Y21367848D01*
X-117872036Y20167848D01*
G37*
%TO.C,D10*%
X-61372036Y50617848D02*
X-62222036Y50617848D01*
X-62222036Y51817848D01*
X-61372036Y51817848D01*
X-61372036Y50617848D01*
G36*
X-61372036Y50617848D02*
G01*
X-62222036Y50617848D01*
X-62222036Y51817848D01*
X-61372036Y51817848D01*
X-61372036Y50617848D01*
G37*
X-61372036Y54167848D02*
X-62222036Y54167848D01*
X-62222036Y55367848D01*
X-61372036Y55367848D01*
X-61372036Y54167848D01*
G36*
X-61372036Y54167848D02*
G01*
X-62222036Y54167848D01*
X-62222036Y55367848D01*
X-61372036Y55367848D01*
X-61372036Y54167848D01*
G37*
%TO.C,D1*%
X-117872036Y50617848D02*
X-118722036Y50617848D01*
X-118722036Y51817848D01*
X-117872036Y51817848D01*
X-117872036Y50617848D01*
G36*
X-117872036Y50617848D02*
G01*
X-118722036Y50617848D01*
X-118722036Y51817848D01*
X-117872036Y51817848D01*
X-117872036Y50617848D01*
G37*
X-117872036Y54167848D02*
X-118722036Y54167848D01*
X-118722036Y55367848D01*
X-117872036Y55367848D01*
X-117872036Y54167848D01*
G36*
X-117872036Y54167848D02*
G01*
X-118722036Y54167848D01*
X-118722036Y55367848D01*
X-117872036Y55367848D01*
X-117872036Y54167848D01*
G37*
%TO.C,D18*%
X-25372036Y25967848D02*
X-26222036Y25967848D01*
X-26222036Y27167848D01*
X-25372036Y27167848D01*
X-25372036Y25967848D01*
G36*
X-25372036Y25967848D02*
G01*
X-26222036Y25967848D01*
X-26222036Y27167848D01*
X-25372036Y27167848D01*
X-25372036Y25967848D01*
G37*
X-25372036Y29517848D02*
X-26222036Y29517848D01*
X-26222036Y30717848D01*
X-25372036Y30717848D01*
X-25372036Y29517848D01*
G36*
X-25372036Y29517848D02*
G01*
X-26222036Y29517848D01*
X-26222036Y30717848D01*
X-25372036Y30717848D01*
X-25372036Y29517848D01*
G37*
%TO.C,D11*%
X-43372036Y45517848D02*
X-44222036Y45517848D01*
X-44222036Y46717848D01*
X-43372036Y46717848D01*
X-43372036Y45517848D01*
G36*
X-43372036Y45517848D02*
G01*
X-44222036Y45517848D01*
X-44222036Y46717848D01*
X-43372036Y46717848D01*
X-43372036Y45517848D01*
G37*
X-43372036Y49067848D02*
X-44222036Y49067848D01*
X-44222036Y50267848D01*
X-43372036Y50267848D01*
X-43372036Y49067848D01*
G36*
X-43372036Y49067848D02*
G01*
X-44222036Y49067848D01*
X-44222036Y50267848D01*
X-43372036Y50267848D01*
X-43372036Y49067848D01*
G37*
%TO.C,D16*%
X-61372036Y33617848D02*
X-62222036Y33617848D01*
X-62222036Y34817848D01*
X-61372036Y34817848D01*
X-61372036Y33617848D01*
G36*
X-61372036Y33617848D02*
G01*
X-62222036Y33617848D01*
X-62222036Y34817848D01*
X-61372036Y34817848D01*
X-61372036Y33617848D01*
G37*
X-61372036Y37167848D02*
X-62222036Y37167848D01*
X-62222036Y38367848D01*
X-61372036Y38367848D01*
X-61372036Y37167848D01*
G36*
X-61372036Y37167848D02*
G01*
X-62222036Y37167848D01*
X-62222036Y38367848D01*
X-61372036Y38367848D01*
X-61372036Y37167848D01*
G37*
%TO.C,D2*%
X-97372036Y54017848D02*
X-98222036Y54017848D01*
X-98222036Y55217848D01*
X-97372036Y55217848D01*
X-97372036Y54017848D01*
G36*
X-97372036Y54017848D02*
G01*
X-98222036Y54017848D01*
X-98222036Y55217848D01*
X-97372036Y55217848D01*
X-97372036Y54017848D01*
G37*
X-97372036Y57567848D02*
X-98222036Y57567848D01*
X-98222036Y58767848D01*
X-97372036Y58767848D01*
X-97372036Y57567848D01*
G36*
X-97372036Y57567848D02*
G01*
X-98222036Y57567848D01*
X-98222036Y58767848D01*
X-97372036Y58767848D01*
X-97372036Y57567848D01*
G37*
%TO.C,D7*%
X-117872036Y33617848D02*
X-118722036Y33617848D01*
X-118722036Y34817848D01*
X-117872036Y34817848D01*
X-117872036Y33617848D01*
G36*
X-117872036Y33617848D02*
G01*
X-118722036Y33617848D01*
X-118722036Y34817848D01*
X-117872036Y34817848D01*
X-117872036Y33617848D01*
G37*
X-117872036Y37167848D02*
X-118722036Y37167848D01*
X-118722036Y38367848D01*
X-117872036Y38367848D01*
X-117872036Y37167848D01*
G36*
X-117872036Y37167848D02*
G01*
X-118722036Y37167848D01*
X-118722036Y38367848D01*
X-117872036Y38367848D01*
X-117872036Y37167848D01*
G37*
%TO.C,D20*%
X-18319948Y14934218D02*
X-18730372Y13806587D01*
X-19529111Y14097304D01*
X-19118687Y15224936D01*
X-18319948Y14934218D01*
G36*
X-18319948Y14934218D02*
G01*
X-18730372Y13806587D01*
X-19529111Y14097304D01*
X-19118687Y15224936D01*
X-18319948Y14934218D01*
G37*
X-19534119Y11598310D02*
X-19944543Y10470678D01*
X-20743282Y10761396D01*
X-20332858Y11889027D01*
X-19534119Y11598310D01*
G36*
X-19534119Y11598310D02*
G01*
X-19944543Y10470678D01*
X-20743282Y10761396D01*
X-20332858Y11889027D01*
X-19534119Y11598310D01*
G37*
%TO.C,D12*%
X-25372036Y42967848D02*
X-26222036Y42967848D01*
X-26222036Y44167848D01*
X-25372036Y44167848D01*
X-25372036Y42967848D01*
G36*
X-25372036Y42967848D02*
G01*
X-26222036Y42967848D01*
X-26222036Y44167848D01*
X-25372036Y44167848D01*
X-25372036Y42967848D01*
G37*
X-25372036Y46517848D02*
X-26222036Y46517848D01*
X-26222036Y47717848D01*
X-25372036Y47717848D01*
X-25372036Y46517848D01*
G36*
X-25372036Y46517848D02*
G01*
X-26222036Y46517848D01*
X-26222036Y47717848D01*
X-25372036Y47717848D01*
X-25372036Y46517848D01*
G37*
%TD*%
D11*
%TO.C,H13*%
X-110687036Y51268248D03*
%TD*%
D12*
%TO.C,H20*%
X-39307036Y60188248D03*
X-38867036Y61248248D03*
X-38867036Y59128248D03*
X-37807036Y61688248D03*
D13*
X-37807036Y60188248D03*
D12*
X-37807036Y58688248D03*
X-36747036Y61248248D03*
X-36747036Y59128248D03*
X-36307036Y60188248D03*
%TD*%
D14*
%TO.C,S17*%
X-51927036Y34552848D03*
D15*
X-51427036Y38302848D03*
X-46427036Y40502848D03*
D16*
X-46427036Y34552848D03*
D15*
X-41427036Y38302848D03*
D14*
X-40927036Y34552848D03*
D17*
X-49702036Y40502848D03*
D18*
X-46427036Y28652848D03*
X-51427036Y30752848D03*
X-41427036Y30752848D03*
D17*
X-38152036Y38302848D03*
%TD*%
D11*
%TO.C,H5*%
X-110657036Y37929948D03*
%TD*%
D12*
%TO.C,H21*%
X-93027036Y51688248D03*
X-92587036Y52748248D03*
X-92587036Y50628248D03*
X-91527036Y53188248D03*
D13*
X-91527036Y51688248D03*
D12*
X-91527036Y50188248D03*
X-90467036Y52748248D03*
X-90467036Y50628248D03*
X-90027036Y51688248D03*
%TD*%
D19*
%TO.C,U2*%
X2565464Y32275748D03*
X-4434536Y32275748D03*
X2565464Y29975748D03*
X-4434536Y29975748D03*
D20*
X-7134536Y32275748D03*
X-7134536Y29975748D03*
X-6034536Y34575748D03*
X-6034536Y27675748D03*
X-2034536Y34575748D03*
X-2034536Y27675748D03*
X965464Y34575748D03*
X965464Y27675748D03*
%TD*%
D21*
%TO.C,SW1*%
X2892964Y24538248D03*
X-3607036Y24538248D03*
%TD*%
D14*
%TO.C,S4*%
X-69927036Y73753248D03*
D15*
X-69427036Y77503248D03*
X-64427036Y79703248D03*
D16*
X-64427036Y73753248D03*
D15*
X-59427036Y77503248D03*
D14*
X-58927036Y73753248D03*
D17*
X-67702036Y79703248D03*
D18*
X-64427036Y67853248D03*
X-69427036Y69953248D03*
X-59427036Y69953248D03*
D17*
X-56152036Y77503248D03*
%TD*%
D14*
%TO.C,S8*%
X-105927036Y43153248D03*
D15*
X-105427036Y46903248D03*
X-100427036Y49103248D03*
D16*
X-100427036Y43153248D03*
D15*
X-95427036Y46903248D03*
D14*
X-94927036Y43153248D03*
D17*
X-103702036Y49103248D03*
D18*
X-100427036Y37253248D03*
X-105427036Y39353248D03*
X-95427036Y39353248D03*
D17*
X-92152036Y46903248D03*
%TD*%
D11*
%TO.C,H14*%
X-110717036Y52148248D03*
%TD*%
%TO.C,H1*%
X-110697036Y22708248D03*
%TD*%
D14*
%TO.C,S6*%
X-33927036Y66103248D03*
D15*
X-33427036Y69853248D03*
X-28427036Y72053248D03*
D16*
X-28427036Y66103248D03*
D15*
X-23427036Y69853248D03*
D14*
X-22927036Y66103248D03*
D17*
X-31702036Y72053248D03*
D18*
X-28427036Y60203248D03*
X-33427036Y62303248D03*
X-23427036Y62303248D03*
D17*
X-20152036Y69853248D03*
%TD*%
D11*
%TO.C,H18*%
X-110727036Y53508248D03*
%TD*%
D14*
%TO.C,S20*%
X-13325746Y6786613D03*
D15*
X-15078168Y3433775D03*
X-20529075Y3076552D03*
D16*
X-18494055Y8667723D03*
D15*
X-24475094Y6853977D03*
D14*
X-23662365Y10548834D03*
D22*
X-17451582Y1956436D03*
D18*
X-16476136Y14211910D03*
X-12495916Y10528455D03*
X-21892842Y13948656D03*
D22*
X-27552587Y7974093D03*
%TD*%
D11*
%TO.C,H15*%
X-110717036Y17458248D03*
%TD*%
D14*
%TO.C,S12*%
X-33927036Y49103248D03*
D15*
X-33427036Y52853248D03*
X-28427036Y55053248D03*
D16*
X-28427036Y49103248D03*
D15*
X-23427036Y52853248D03*
D14*
X-22927036Y49103248D03*
D17*
X-31702036Y55053248D03*
D18*
X-28427036Y43203248D03*
X-33427036Y45303248D03*
X-23427036Y45303248D03*
D17*
X-20152036Y52853248D03*
%TD*%
D11*
%TO.C,H8*%
X-110717036Y32668248D03*
%TD*%
D14*
%TO.C,S14*%
X-105927036Y26052848D03*
D15*
X-105427036Y29802848D03*
X-100427036Y32002848D03*
D16*
X-100427036Y26052848D03*
D15*
X-95427036Y29802848D03*
D14*
X-94927036Y26052848D03*
D17*
X-103702036Y32002848D03*
D18*
X-100427036Y20152848D03*
X-105427036Y22252848D03*
X-95427036Y22252848D03*
D17*
X-92152036Y29802848D03*
%TD*%
D14*
%TO.C,S10*%
X-69927036Y56753248D03*
D15*
X-69427036Y60503248D03*
X-64427036Y62703248D03*
D16*
X-64427036Y56753248D03*
D15*
X-59427036Y60503248D03*
D14*
X-58927036Y56753248D03*
D17*
X-67702036Y62703248D03*
D18*
X-64427036Y50853248D03*
X-69427036Y52953248D03*
X-59427036Y52953248D03*
D17*
X-56152036Y60503248D03*
%TD*%
D14*
%TO.C,S13*%
X-126427036Y22652848D03*
D15*
X-125927036Y26402848D03*
X-120927036Y28602848D03*
D16*
X-120927036Y22652848D03*
D15*
X-115927036Y26402848D03*
D14*
X-115427036Y22652848D03*
D17*
X-124202036Y28602848D03*
D18*
X-120927036Y16752848D03*
X-125927036Y18852848D03*
X-115927036Y18852848D03*
D17*
X-112652036Y26402848D03*
%TD*%
D14*
%TO.C,S16*%
X-69927036Y39652848D03*
D15*
X-69427036Y43402848D03*
X-64427036Y45602848D03*
D16*
X-64427036Y39652848D03*
D15*
X-59427036Y43402848D03*
D14*
X-58927036Y39652848D03*
D17*
X-67702036Y45602848D03*
D18*
X-64427036Y33752848D03*
X-69427036Y35852848D03*
X-59427036Y35852848D03*
D17*
X-56152036Y43402848D03*
%TD*%
D11*
%TO.C,H4*%
X-110727036Y19808248D03*
%TD*%
%TO.C,H16*%
X-110727036Y54391823D03*
%TD*%
%TO.C,H17*%
X-110707036Y55318248D03*
%TD*%
%TO.C,H9*%
X-110677036Y50328248D03*
%TD*%
%TO.C,H2*%
X-110697036Y21741823D03*
%TD*%
D14*
%TO.C,S7*%
X-126427036Y39753248D03*
D15*
X-125927036Y43503248D03*
X-120927036Y45703248D03*
D16*
X-120927036Y39753248D03*
D15*
X-115927036Y43503248D03*
D14*
X-115427036Y39753248D03*
D17*
X-124202036Y45703248D03*
D18*
X-120927036Y33853248D03*
X-125927036Y35953248D03*
X-115927036Y35953248D03*
D17*
X-112652036Y43503248D03*
%TD*%
D11*
%TO.C,H3*%
X-110707036Y20781823D03*
%TD*%
D14*
%TO.C,S21*%
X4756104Y-2751752D03*
D15*
X2448091Y-5749347D03*
X-2982036Y-5154603D03*
D16*
X-7036Y-1752D03*
D15*
X-6212163Y-749347D03*
D14*
X-4770176Y2748248D03*
D23*
X-145803Y-6792103D03*
D18*
X2942964Y5107798D03*
X6223091Y789144D03*
X-2437163Y5789144D03*
D23*
X-9048396Y888153D03*
%TD*%
D14*
%TO.C,S11*%
X-51927036Y51653248D03*
D15*
X-51427036Y55403248D03*
X-46427036Y57603248D03*
D16*
X-46427036Y51653248D03*
D15*
X-41427036Y55403248D03*
D14*
X-40927036Y51653248D03*
D17*
X-49702036Y57603248D03*
D18*
X-46427036Y45753248D03*
X-51427036Y47853248D03*
X-41427036Y47853248D03*
D17*
X-38152036Y55403248D03*
%TD*%
D14*
%TO.C,S18*%
X-33927036Y32002848D03*
D15*
X-33427036Y35752848D03*
X-28427036Y37952848D03*
D16*
X-28427036Y32002848D03*
D15*
X-23427036Y35752848D03*
D14*
X-22927036Y32002848D03*
D17*
X-31702036Y37952848D03*
D18*
X-28427036Y26102848D03*
X-33427036Y28202848D03*
X-23427036Y28202848D03*
D17*
X-20152036Y35752848D03*
%TD*%
D14*
%TO.C,S3*%
X-87927036Y71203248D03*
D15*
X-87427036Y74953248D03*
X-82427036Y77153248D03*
D16*
X-82427036Y71203248D03*
D15*
X-77427036Y74953248D03*
D14*
X-76927036Y71203248D03*
D17*
X-85702036Y77153248D03*
D18*
X-82427036Y65303248D03*
X-87427036Y67403248D03*
X-77427036Y67403248D03*
D17*
X-74152036Y74953248D03*
%TD*%
D11*
%TO.C,H11*%
X-110697036Y33678248D03*
%TD*%
D14*
%TO.C,S19*%
X-32896418Y13092673D03*
D15*
X-34040003Y9486468D03*
X-39346067Y8188131D03*
D16*
X-38312861Y14047738D03*
D15*
X-43888080Y11222949D03*
D14*
X-43729303Y15002803D03*
D24*
X-36120822Y7619434D03*
D18*
X-37288336Y19858103D03*
X-32728959Y16921766D03*
X-42577036Y18658248D03*
D24*
X-47113326Y11791647D03*
%TD*%
D12*
%TO.C,H22*%
X-39137036Y43208248D03*
X-38697036Y44268248D03*
X-38697036Y42148248D03*
X-37637036Y44708248D03*
D13*
X-37637036Y43208248D03*
D12*
X-37637036Y41708248D03*
X-36577036Y44268248D03*
X-36577036Y42148248D03*
X-36137036Y43208248D03*
%TD*%
D11*
%TO.C,H10*%
X-110657036Y35078248D03*
%TD*%
D14*
%TO.C,S9*%
X-87927036Y54203248D03*
D15*
X-87427036Y57953248D03*
X-82427036Y60153248D03*
D16*
X-82427036Y54203248D03*
D15*
X-77427036Y57953248D03*
D14*
X-76927036Y54203248D03*
D17*
X-85702036Y60153248D03*
D18*
X-82427036Y48303248D03*
X-87427036Y50403248D03*
X-77427036Y50403248D03*
D17*
X-74152036Y57953248D03*
%TD*%
D14*
%TO.C,S5*%
X-51927036Y68653248D03*
D15*
X-51427036Y72403248D03*
X-46427036Y74603248D03*
D16*
X-46427036Y68653248D03*
D15*
X-41427036Y72403248D03*
D14*
X-40927036Y68653248D03*
D17*
X-49702036Y74603248D03*
D18*
X-46427036Y62753248D03*
X-51427036Y64853248D03*
X-41427036Y64853248D03*
D17*
X-38152036Y72403248D03*
%TD*%
D14*
%TO.C,S15*%
X-87927036Y37102848D03*
D15*
X-87427036Y40852848D03*
X-82427036Y43052848D03*
D16*
X-82427036Y37102848D03*
D15*
X-77427036Y40852848D03*
D14*
X-76927036Y37102848D03*
D17*
X-85702036Y43052848D03*
D18*
X-82427036Y31202848D03*
X-87427036Y33302848D03*
X-77427036Y33302848D03*
D17*
X-74152036Y40852848D03*
%TD*%
D12*
%TO.C,H19*%
X-93267036Y34688248D03*
X-92827036Y35748248D03*
X-92827036Y33628248D03*
X-91767036Y36188248D03*
D13*
X-91767036Y34688248D03*
D12*
X-91767036Y33188248D03*
X-90707036Y35748248D03*
X-90707036Y33628248D03*
X-90267036Y34688248D03*
%TD*%
D11*
%TO.C,H7*%
X-110647036Y36048248D03*
%TD*%
%TO.C,H12*%
X-110727036Y18828248D03*
%TD*%
D14*
%TO.C,S2*%
X-105927036Y60153248D03*
D15*
X-105427036Y63903248D03*
X-100427036Y66103248D03*
D16*
X-100427036Y60153248D03*
D15*
X-95427036Y63903248D03*
D14*
X-94927036Y60153248D03*
D17*
X-103702036Y66103248D03*
D18*
X-100427036Y54253248D03*
X-105427036Y56353248D03*
X-95427036Y56353248D03*
D17*
X-92152036Y63903248D03*
%TD*%
D11*
%TO.C,H6*%
X-110657036Y36998248D03*
%TD*%
D25*
%TO.C,U1*%
X-15027036Y69738248D03*
X1511779Y68542503D03*
X-15027036Y67198248D03*
X1511779Y66002503D03*
X-15027036Y64658248D03*
X1511779Y63462503D03*
X-15027036Y62118248D03*
X1511779Y60922503D03*
X-15027036Y59578248D03*
X1511779Y58382503D03*
X-15027036Y57038248D03*
X1511779Y55842503D03*
X-15027036Y54498248D03*
X1511779Y53302503D03*
X-15027036Y51958248D03*
X1511779Y50762503D03*
X-15027036Y49418248D03*
X1511779Y48222503D03*
X-15027036Y46878248D03*
X1511779Y45682503D03*
X-15027036Y44338248D03*
X1511779Y43142503D03*
X-15027036Y41798248D03*
X1511779Y40602503D03*
X-13728221Y40602503D03*
X212964Y41798248D03*
X-13728221Y43142503D03*
X212964Y44338248D03*
X-13728221Y45682503D03*
X212964Y46878248D03*
X-13728221Y48222503D03*
X212964Y49418248D03*
X-13728221Y50762503D03*
X212964Y51958248D03*
X-13728221Y53302503D03*
X212964Y54498248D03*
X-13728221Y55842503D03*
X212964Y57038248D03*
X-13728221Y58382503D03*
X212964Y59578248D03*
X-13728221Y60922503D03*
X212964Y62118248D03*
X-13728221Y63462503D03*
X212964Y64658248D03*
X-13728221Y66002503D03*
X212964Y67198248D03*
X-13728221Y68542503D03*
X212964Y69738248D03*
%TD*%
D14*
%TO.C,S1*%
X-126427036Y56753248D03*
D15*
X-125927036Y60503248D03*
X-120927036Y62703248D03*
D16*
X-120927036Y56753248D03*
D15*
X-115927036Y60503248D03*
D14*
X-115427036Y56753248D03*
D17*
X-124202036Y62703248D03*
D18*
X-120927036Y50853248D03*
X-125927036Y52953248D03*
X-115927036Y52953248D03*
D17*
X-112652036Y60503248D03*
%TD*%
M02*
