M48
; DRILL file {KiCad 7.0.7} date Tue Sep 26 21:15:29 2023
; FORMAT={-:-/ absolute / inch / decimal}
; #@! TF.CreationDate,2023-09-26T21:15:29+07:00
; #@! TF.GenerationSoftware,Kicad,Pcbnew,7.0.7
; #@! TF.FileFunction,Plated,1,2,PTH
FMAT,2
INCH
; #@! TA.AperFunction,Plated,PTH,ViaDrill
T1C0.0118
; #@! TA.AperFunction,Plated,PTH,ComponentDrill
T2C0.0120
; #@! TA.AperFunction,Plated,PTH,ComponentDrill
T3C0.0157
; #@! TA.AperFunction,Plated,PTH,ComponentDrill
T4C0.0320
; #@! TA.AperFunction,Plated,PTH,ComponentDrill
T5C0.0354
; #@! TA.AperFunction,Plated,PTH,ComponentDrill
T6C0.0500
; #@! TA.AperFunction,Plated,PTH,ComponentDrill
T7C0.0512
; #@! TA.AperFunction,Plated,PTH,ComponentDrill
T8C0.0866
%
G90
G05
T1
X-4.8788Y2.3354
X-4.8788Y1.6661
X-4.8432Y1.0362
X-4.0769Y2.4535
X-4.0769Y1.7842
X-4.0717Y1.1149
X-3.9764Y2.0785
X-3.9306Y2.0791
X-3.3682Y2.8865
X-3.3682Y2.2173
X-3.3682Y1.548
X-3.3041Y1.801
X-3.2863Y2.488
X-3.2215Y1.8011
X-3.2164Y2.4885
X-2.6544Y3.0047
X-2.6188Y2.3354
X-2.6188Y1.6661
X-2.5871Y1.9096
X-2.585Y2.5811
X-2.5145Y1.9102
X-2.5074Y2.5822
X-2.4803Y1.2447
X-2.4517Y1.28
X-1.9509Y2.7684
X-1.9509Y2.1385
X-1.9509Y1.4692
X-1.8696Y1.7177
X-1.8696Y2.3877
X-1.8072Y2.3875
X-1.8046Y1.7176
X-1.7416Y1.0614
X-1.6625Y1.1405
X-1.6515Y1.8117
X-1.4221Y0.4362
X-1.2422Y2.6897
X-1.2422Y2.0204
X-1.2403Y1.3899
X-1.1928Y0.811
X-1.1889Y2.2864
X-1.1887Y2.2588
X-1.1862Y1.5921
X-1.1252Y2.2583
X-1.1247Y0.7448
X-1.1233Y1.591
X-1.0992Y2.2858
X-0.7113Y0.7283
X-0.6871Y0.2358
X-0.3999Y0.6381
X-0.2954Y0.6123
X0.0022Y-0.1139
T2
X-4.6574Y2.1129
X-4.6574Y1.4436
X-4.6574Y0.7743
X-4.6574Y2.0598
X-4.6574Y1.3905
X-4.6574Y0.7212
X-3.8503Y2.2467
X-3.8503Y1.5775
X-3.8503Y0.9082
X-3.8503Y2.1936
X-3.8503Y1.5243
X-3.8503Y0.855
X-3.1416Y2.6818
X-3.1416Y2.0125
X-3.1416Y1.3432
X-3.1416Y2.6287
X-3.1416Y1.9594
X-3.1416Y1.2901
X-2.433Y2.7822
X-2.433Y2.1129
X-2.433Y1.4436
X-2.433Y2.7291
X-2.433Y2.0598
X-2.433Y1.3905
X-1.7243Y2.5814
X-1.7243Y1.9121
X-1.7243Y1.2428
X-1.7243Y2.5283
X-1.7243Y1.859
X-1.7243Y1.1897
X-1.5828Y0.6805
X-1.5736Y0.7329
X-1.0156Y2.481
X-1.0156Y1.8117
X-1.0156Y1.1424
X-1.0156Y2.4279
X-1.0156Y1.7586
X-1.0156Y1.0893
X-0.778Y0.4809
X-0.7599Y0.5308
X-0.0389Y0.1502
X-0.0123Y0.1962
T3
X-3.6719Y1.3657
X-3.6625Y2.035
X-3.6546Y1.4074
X-3.6546Y1.3239
X-3.6452Y2.0767
X-3.6452Y1.9932
X-3.6129Y1.4247
X-3.6129Y1.3066
X-3.6034Y2.094
X-3.6034Y1.9759
X-3.5711Y1.4074
X-3.5711Y1.3239
X-3.5617Y2.0767
X-3.5617Y1.9932
X-3.5538Y1.3657
X-3.5444Y2.035
X-1.5475Y2.3696
X-1.5408Y1.7011
X-1.5302Y2.4113
X-1.5302Y2.3279
X-1.5235Y1.7428
X-1.5235Y1.6594
X-1.4885Y2.4287
X-1.4885Y2.3106
X-1.4818Y1.7602
X-1.4818Y1.6421
X-1.4467Y2.4113
X-1.4467Y2.3279
X-1.44Y1.7428
X-1.44Y1.6594
X-1.4294Y2.3696
X-1.4227Y1.7011
T4
X-0.5916Y2.7456
X-0.5916Y2.6456
X-0.5916Y2.5456
X-0.5916Y2.4456
X-0.5916Y2.3456
X-0.5916Y2.2456
X-0.5916Y2.1456
X-0.5916Y2.0456
X-0.5916Y1.9456
X-0.5916Y1.8456
X-0.5916Y1.7456
X-0.5916Y1.6456
X-0.5405Y2.6985
X-0.5405Y2.5985
X-0.5405Y2.4985
X-0.5405Y2.3985
X-0.5405Y2.2985
X-0.5405Y2.1985
X-0.5405Y2.0985
X-0.5405Y1.9985
X-0.5405Y1.8985
X-0.5405Y1.7985
X-0.5405Y1.6985
X-0.5405Y1.5985
X0.0084Y2.7456
X0.0084Y2.6456
X0.0084Y2.5456
X0.0084Y2.4456
X0.0084Y2.3456
X0.0084Y2.2456
X0.0084Y2.1456
X0.0084Y2.0456
X0.0084Y1.9456
X0.0084Y1.8456
X0.0084Y1.7456
X0.0084Y1.6456
X0.0595Y2.6985
X0.0595Y2.5985
X0.0595Y2.4985
X0.0595Y2.3985
X0.0595Y2.2985
X0.0595Y2.1985
X0.0595Y2.0985
X0.0595Y1.9985
X0.0595Y1.8985
X0.0595Y1.7985
X0.0595Y1.6985
X0.0595Y1.5985
T6
X-4.9578Y2.0848
X-4.9578Y1.4155
X-4.9578Y0.7422
X-4.7609Y2.0021
X-4.7609Y1.3328
X-4.7609Y0.6596
X-4.5641Y2.0848
X-4.5641Y1.4155
X-4.5641Y0.7422
X-4.1507Y2.2186
X-4.1507Y1.5493
X-4.1507Y0.8761
X-3.9538Y2.136
X-3.9538Y1.4667
X-3.9538Y0.7934
X-3.757Y2.2186
X-3.757Y1.5493
X-3.757Y0.8761
X-3.442Y2.6537
X-3.442Y1.9844
X-3.442Y1.3111
X-3.2452Y2.571
X-3.2452Y1.9017
X-3.2452Y1.2285
X-3.0483Y2.6537
X-3.0483Y1.9844
X-3.0483Y1.3111
X-2.7333Y2.7541
X-2.7333Y2.0848
X-2.7333Y1.4115
X-2.5365Y2.6714
X-2.5365Y2.0021
X-2.5365Y1.3289
X-2.3396Y2.7541
X-2.3396Y2.0848
X-2.3396Y1.4115
X-2.0247Y2.5533
X-2.0247Y1.884
X-2.0247Y1.2107
X-1.8278Y2.4706
X-1.8278Y1.8013
X-1.8278Y1.1281
X-1.6763Y0.7346
X-1.631Y2.5533
X-1.631Y1.884
X-1.631Y1.2107
X-1.468Y0.7818
X-1.316Y2.4529
X-1.316Y1.7836
X-1.316Y1.1103
X-1.2885Y0.6662
X-1.1192Y2.3702
X-1.1192Y1.7009
X-1.1192Y1.0277
X-0.9223Y2.4529
X-0.9223Y1.7836
X-0.9223Y1.1103
X-0.8619Y0.5492
X-0.6487Y0.5595
X-0.492Y0.4145
X-0.096Y0.2279
X0.1159Y0.2011
X0.245Y0.0311
T7
X-0.142Y0.9661
X0.1139Y0.9661
T8
X-3.6129Y1.3657
X-3.6034Y2.035
X-1.4885Y2.3696
X-1.4818Y1.7011
T5
G00X-0.2691Y1.2707
M15
G01X-0.2927Y1.2707
M16
G05
G00X-0.2691Y1.1801
M15
G01X-0.2927Y1.1801
M16
G05
G00X-0.2258Y1.3612
M15
G01X-0.2494Y1.3612
M16
G05
G00X-0.2258Y1.0896
M15
G01X-0.2494Y1.0896
M16
G05
G00X-0.0683Y1.3612
M15
G01X-0.0919Y1.3612
M16
G05
G00X-0.0683Y1.0896
M15
G01X-0.0919Y1.0896
M16
G05
G00X0.0498Y1.3612
M15
G01X0.0262Y1.3612
M16
G05
G00X0.0498Y1.0896
M15
G01X0.0262Y1.0896
M16
G05
T0
M30
