%TF.GenerationSoftware,KiCad,Pcbnew,7.0.6*%
%TF.CreationDate,2023-09-19T12:55:28+07:00*%
%TF.ProjectId,rose,726f7365-2e6b-4696-9361-645f70636258,rev?*%
%TF.SameCoordinates,Original*%
%TF.FileFunction,Paste,Bot*%
%TF.FilePolarity,Positive*%
%FSLAX46Y46*%
G04 Gerber Fmt 4.6, Leading zero omitted, Abs format (unit mm)*
G04 Created by KiCad (PCBNEW 7.0.6) date 2023-09-19 12:55:28*
%MOMM*%
%LPD*%
G01*
G04 APERTURE LIST*
G04 Aperture macros list*
%AMRotRect*
0 Rectangle, with rotation*
0 The origin of the aperture is its center*
0 $1 length*
0 $2 width*
0 $3 Rotation angle, in degrees counterclockwise*
0 Add horizontal line*
21,1,$1,$2,0,0,$3*%
G04 Aperture macros list end*
%ADD10R,2.600000X2.600000*%
%ADD11RotRect,2.600000X2.600000X340.000000*%
%ADD12RotRect,2.600000X2.600000X330.000000*%
%ADD13RotRect,2.600000X2.600000X350.000000*%
%ADD14R,0.950000X1.300000*%
%ADD15RotRect,1.300000X0.950000X60.000000*%
%ADD16RotRect,1.300000X0.950000X80.000000*%
%ADD17RotRect,1.300000X0.950000X70.000000*%
G04 APERTURE END LIST*
D10*
%TO.C,S17*%
X71225000Y17850000D03*
X82775000Y15650000D03*
%TD*%
%TO.C,S4*%
X53225000Y56950000D03*
X64775000Y54750000D03*
%TD*%
%TO.C,S8*%
X17225000Y26350000D03*
X28775000Y24150000D03*
%TD*%
%TO.C,S6*%
X89225000Y49300000D03*
X100775000Y47100000D03*
%TD*%
D11*
%TO.C,S20*%
X101607527Y-7433713D03*
X111708532Y-13451370D03*
%TD*%
D10*
%TO.C,S12*%
X89225000Y32300000D03*
X100775000Y30100000D03*
%TD*%
%TO.C,S14*%
X17225000Y9350000D03*
X28775000Y7150000D03*
%TD*%
%TO.C,S10*%
X53225000Y39950000D03*
X64775000Y37750000D03*
%TD*%
%TO.C,S13*%
X-3275000Y5950000D03*
X8275000Y3750000D03*
%TD*%
%TO.C,S16*%
X53225000Y22950000D03*
X64775000Y20750000D03*
%TD*%
%TO.C,S7*%
X-3275000Y22950000D03*
X8275000Y20750000D03*
%TD*%
D12*
%TO.C,S21*%
X121065803Y-15962897D03*
X129968396Y-23643153D03*
%TD*%
D10*
%TO.C,S11*%
X71225000Y34850000D03*
X82775000Y32650000D03*
%TD*%
%TO.C,S18*%
X89225000Y15300000D03*
X100775000Y13100000D03*
%TD*%
%TO.C,S3*%
X35225000Y54400000D03*
X46775000Y52200000D03*
%TD*%
D13*
%TO.C,S19*%
X80830004Y-2415238D03*
X91822508Y-6587451D03*
%TD*%
D10*
%TO.C,S9*%
X35225000Y37400000D03*
X46775000Y35200000D03*
%TD*%
%TO.C,S5*%
X71225000Y51850000D03*
X82775000Y49650000D03*
%TD*%
%TO.C,S15*%
X35225000Y20400000D03*
X46775000Y18200000D03*
%TD*%
%TO.C,S2*%
X17225000Y43350000D03*
X28775000Y41150000D03*
%TD*%
%TO.C,S1*%
X-3275000Y39950000D03*
X8275000Y37750000D03*
%TD*%
D14*
%TO.C,D8*%
X23130000Y14965000D03*
X23130000Y18515000D03*
%TD*%
%TO.C,D6*%
X95130000Y37915000D03*
X95130000Y41465000D03*
%TD*%
%TO.C,D15*%
X41130000Y9015000D03*
X41130000Y12565000D03*
%TD*%
D15*
%TO.C,D21*%
X120682500Y-28792195D03*
X122457500Y-25717805D03*
%TD*%
D14*
%TO.C,D5*%
X77130000Y40465000D03*
X77130000Y44015000D03*
%TD*%
D16*
%TO.C,D19*%
X84668309Y-14652667D03*
X85284761Y-11156599D03*
%TD*%
D14*
%TO.C,D17*%
X77130000Y6465000D03*
X77130000Y10015000D03*
%TD*%
%TO.C,D4*%
X59130000Y45565000D03*
X59130000Y49115000D03*
%TD*%
%TO.C,D14*%
X23130000Y-2035000D03*
X23130000Y1515000D03*
%TD*%
%TO.C,D9*%
X41130000Y26015000D03*
X41130000Y29565000D03*
%TD*%
%TO.C,D3*%
X41130000Y43015000D03*
X41130000Y46565000D03*
%TD*%
%TO.C,D13*%
X2630000Y-5435000D03*
X2630000Y-1885000D03*
%TD*%
%TO.C,D10*%
X59130000Y28565000D03*
X59130000Y32115000D03*
%TD*%
%TO.C,D1*%
X2630000Y28565000D03*
X2630000Y32115000D03*
%TD*%
%TO.C,D18*%
X95130000Y3915000D03*
X95130000Y7465000D03*
%TD*%
%TO.C,D11*%
X77130000Y23465000D03*
X77130000Y27015000D03*
%TD*%
%TO.C,D16*%
X59130000Y11565000D03*
X59130000Y15115000D03*
%TD*%
%TO.C,D2*%
X23130000Y31965000D03*
X23130000Y35515000D03*
%TD*%
%TO.C,D7*%
X2630000Y11565000D03*
X2630000Y15115000D03*
%TD*%
D17*
%TO.C,D20*%
X103262513Y-20151742D03*
X104476685Y-16815834D03*
%TD*%
D14*
%TO.C,D12*%
X95130000Y20915000D03*
X95130000Y24465000D03*
%TD*%
M02*
