%TF.GenerationSoftware,KiCad,Pcbnew,7.0.6*%
%TF.CreationDate,2023-09-23T12:41:15+07:00*%
%TF.ProjectId,rose,726f7365-2e6b-4696-9361-645f70636258,rev?*%
%TF.SameCoordinates,Original*%
%TF.FileFunction,Profile,NP*%
%FSLAX46Y46*%
G04 Gerber Fmt 4.6, Leading zero omitted, Abs format (unit mm)*
G04 Created by KiCad (PCBNEW 7.0.6) date 2023-09-23 12:41:15*
%MOMM*%
%LPD*%
G01*
G04 APERTURE LIST*
%TA.AperFunction,Profile*%
%ADD10C,0.100000*%
%TD*%
%ADD11C,0.100000*%
G04 APERTURE END LIST*
D10*
X-43524096Y4880048D02*
X-41852156Y4625148D01*
X-50829886Y6106948D02*
X-50040986Y5791848D01*
X-26650806Y1282448D02*
X-25810706Y1032348D01*
X-101511816Y12678848D02*
X-99519326Y12661848D01*
D11*
X-17768908Y74328006D02*
X-17828012Y74411954D01*
X-17855309Y74510487D01*
X-17856776Y74540138D01*
X-111004488Y16815891D02*
X-110921788Y16877169D01*
X-110825551Y16911598D01*
X-110756936Y16918368D01*
D10*
X-111106986Y49438358D02*
X-111106986Y38745816D01*
X-24973206Y774248D02*
X-24138606Y508048D01*
X5254218Y17790998D02*
X5126518Y18486598D01*
X6859128Y11840798D02*
X6631228Y12468198D01*
X-20837506Y-640952D02*
X-20023206Y-949852D01*
D11*
X-74976776Y82209348D02*
X-74984405Y82090031D01*
X-75006935Y81972349D01*
X-75043838Y81857812D01*
X-75094583Y81747931D01*
X-75158639Y81644214D01*
X-75235475Y81548172D01*
X-75269669Y81512241D01*
D10*
X-53235786Y6994548D02*
X-52427286Y6708248D01*
D11*
X-18296116Y75679798D02*
X-18377807Y75755637D01*
X-18464368Y75824802D01*
X-18555384Y75887124D01*
X-18650441Y75942429D01*
X-18749123Y75990546D01*
X-18851016Y76031303D01*
X-18955705Y76064528D01*
X-19062774Y76090050D01*
X-19171810Y76107696D01*
X-19282396Y76117295D01*
X-19356776Y76119138D01*
D10*
X6417848Y13105498D02*
X6217958Y13751998D01*
X-99519326Y12661848D02*
X-97533096Y12634848D01*
X8958768Y7791898D02*
X8774418Y8057698D01*
X5854948Y15069998D02*
X5690148Y15740298D01*
D11*
X-111106986Y38745816D02*
X-111091858Y38644024D01*
X-111048182Y38551636D01*
X-111004473Y38498329D01*
D10*
X-52427286Y6708248D02*
X-51625286Y6412448D01*
X-41852156Y4625148D02*
X-40174646Y4349048D01*
X-48505196Y5521048D02*
X-46850656Y5327748D01*
X-111917036Y66769458D02*
X-129977036Y66768248D01*
D11*
X-52356776Y78669348D02*
X-52468166Y78673487D01*
X-52578281Y78685787D01*
X-52686707Y78706078D01*
X-52793029Y78734186D01*
X-52896832Y78769941D01*
X-52997701Y78813171D01*
X-53095221Y78863703D01*
X-53188977Y78921366D01*
X-53278555Y78985988D01*
X-53363538Y79057397D01*
X-53417436Y79108688D01*
D10*
X-110299336Y16568248D02*
X-110299926Y13408628D01*
D11*
X-110304486Y56179228D02*
X-110319621Y56077418D01*
X-110363311Y55985017D01*
X-110407034Y55931705D01*
D10*
X8595998Y8327598D02*
X8423358Y8601398D01*
X2774238Y-13255752D02*
X2956108Y-13360752D01*
D11*
X-111107036Y66019458D02*
X-111115256Y66130211D01*
X-111139455Y66237585D01*
X-111178948Y66339921D01*
X-111233045Y66435559D01*
X-111301061Y66522839D01*
X-111326706Y66549788D01*
D10*
X-97533096Y12634848D02*
X-95553366Y12598848D01*
X-62535586Y9544548D02*
X-61661286Y9355348D01*
X9758748Y6771098D02*
X9549058Y7019698D01*
X-61661286Y9355348D02*
X-60792386Y9158148D01*
X-50040986Y5791848D02*
X-48505196Y5521048D01*
X-65189786Y10066448D02*
X-64299986Y9899948D01*
D11*
X-110649336Y16918348D02*
X-110547526Y16903214D01*
X-110455125Y16859524D01*
X-110401813Y16815800D01*
D10*
X-58219386Y8516648D02*
X-57373386Y8285648D01*
D11*
X-91547976Y81219348D02*
X-91659366Y81215210D01*
X-91769481Y81202910D01*
X-91877907Y81182619D01*
X-91984229Y81154511D01*
X-92088032Y81118756D01*
X-92188901Y81075526D01*
X-92286421Y81024994D01*
X-92380177Y80967331D01*
X-92469755Y80902709D01*
X-92554738Y80831300D01*
X-92608636Y80780008D01*
D10*
X-110296886Y38745706D02*
X-110295066Y49438248D01*
X-36804506Y3731048D02*
X-35113206Y3387548D01*
X-9184546Y-6167552D02*
X-7705754Y-7025352D01*
X-89656346Y12425848D02*
X-87706116Y12344848D01*
X4894928Y19893998D02*
X4790418Y20605398D01*
X-60792386Y9158148D02*
X-59928986Y8952748D01*
X-17856776Y74540138D02*
X-17856776Y74559138D01*
X6030618Y14406998D02*
X5854948Y15069998D01*
X-109477036Y70169348D02*
X-109543036Y70169348D01*
X4693118Y21321698D02*
X4602918Y22042798D01*
D11*
X-111004473Y38498329D02*
X-110921798Y38437049D01*
X-110825587Y38402604D01*
X-110756986Y38395816D01*
D10*
X-24138606Y508048D02*
X-23307406Y233548D01*
X-110701656Y31788358D02*
X-110756656Y31788358D01*
X-71546986Y11041748D02*
X-70625986Y10921348D01*
D11*
X-111326706Y12869128D02*
X-111254205Y12953254D01*
X-111195392Y13046291D01*
X-111150954Y13146578D01*
X-111121581Y13252458D01*
X-111107958Y13362268D01*
X-111107036Y13399458D01*
D10*
X4602918Y22042798D02*
X4519618Y22768598D01*
D11*
X-110400499Y23320761D02*
X-110339219Y23403437D01*
X-110304774Y23499648D01*
X-110297986Y23568248D01*
D10*
X12246298Y4550798D02*
X11963938Y4749998D01*
X-68796186Y10662448D02*
X-67887786Y10523548D01*
X5390388Y17101198D02*
X5254218Y17790998D01*
D11*
X-34856776Y76119138D02*
X-34980087Y76126767D01*
X-35100527Y76149297D01*
X-35216813Y76186200D01*
X-35327667Y76236945D01*
X-35431806Y76301001D01*
X-35527951Y76377837D01*
X-35563883Y76412031D01*
D10*
X-59928986Y8952748D02*
X-59071286Y8738948D01*
D11*
X-111857036Y12649458D02*
X-111746284Y12657678D01*
X-111638910Y12681877D01*
X-111536574Y12721370D01*
X-111440936Y12775467D01*
X-111353656Y12843483D01*
X-111326706Y12869128D01*
X-74537436Y83330008D02*
X-74613275Y83248277D01*
X-74682440Y83161428D01*
X-74744762Y83069629D01*
X-74800067Y82973048D01*
X-74848184Y82871852D01*
X-74888941Y82766210D01*
X-74922166Y82656289D01*
X-74947688Y82542257D01*
X-74965334Y82424282D01*
X-74974933Y82302531D01*
X-74976776Y82219348D01*
X-110399133Y31685800D02*
X-110481817Y31747101D01*
X-110578044Y31781559D01*
X-110646656Y31788348D01*
X-110646986Y38395806D02*
X-110545190Y38410906D01*
X-110452789Y38454555D01*
X-110399469Y38498248D01*
D10*
X-129977036Y12649458D02*
X-129917036Y12649458D01*
X-12938976Y-4125752D02*
X-12179396Y-4520352D01*
D11*
X-111107036Y16568368D02*
X-111091902Y16670179D01*
X-111048212Y16762580D01*
X-111004488Y16815891D01*
D10*
X-74332986Y11368948D02*
X-73400586Y11265348D01*
X-110293036Y68669348D02*
X-110293036Y65209348D01*
D11*
X-111014523Y55931921D02*
X-111075804Y56014597D01*
X-111110249Y56110808D01*
X-111117036Y56179408D01*
D10*
X-46850656Y5327748D02*
X-45190286Y5114148D01*
X-110646656Y31788348D02*
X-110701656Y31788358D01*
X-32571506Y2826648D02*
X-31723706Y2626848D01*
X-94460886Y70169348D02*
X-109477036Y70169348D01*
D11*
X-92608636Y80780008D02*
X-92684475Y80698318D01*
X-92753640Y80611757D01*
X-92815962Y80520741D01*
X-92871267Y80425684D01*
X-92919384Y80327002D01*
X-92960141Y80225109D01*
X-92993366Y80120420D01*
X-93018888Y80013351D01*
X-93036534Y79904315D01*
X-93046133Y79793729D01*
X-93047976Y79719348D01*
D10*
X12834268Y4168298D02*
X12536398Y4356898D01*
X-55356776Y83769348D02*
X-73416776Y83769348D01*
X-105514886Y12686178D02*
X-103510376Y12686998D01*
X8423358Y8601398D02*
X8256328Y8878998D01*
X-73416776Y83769348D02*
X-73476776Y83769348D01*
D11*
X-110756966Y49788258D02*
X-110858759Y49773130D01*
X-110951147Y49729454D01*
X-111004453Y49685745D01*
X-110647986Y23218248D02*
X-110546194Y23233377D01*
X-110453806Y23277053D01*
X-110400499Y23320761D01*
D10*
X-111106656Y31438358D02*
X-111106986Y31438258D01*
X-40174646Y4349048D02*
X-38491916Y4051248D01*
X5126518Y18486598D02*
X5006868Y19187698D01*
X-72471886Y11156348D02*
X-71546986Y11041748D01*
X-87706116Y12344848D02*
X-85764446Y12251848D01*
D11*
X-75269669Y81512241D02*
X-75362258Y81430441D01*
X-75463353Y81361210D01*
X-75571675Y81305077D01*
X-75685942Y81262574D01*
X-75804874Y81234230D01*
X-75927189Y81220577D01*
X-75976776Y81219348D01*
D10*
X-55699586Y7796848D02*
X-54871986Y7538748D01*
D11*
X-36296116Y78230008D02*
X-36377807Y78305847D01*
X-36464368Y78375012D01*
X-36555384Y78437334D01*
X-36650441Y78492639D01*
X-36749123Y78540756D01*
X-36851016Y78581513D01*
X-36955705Y78614738D01*
X-37062774Y78640260D01*
X-37171810Y78657906D01*
X-37282396Y78667505D01*
X-37356776Y78669348D01*
D10*
X-25810706Y1032348D02*
X-24973206Y774248D01*
X-74976776Y82209348D02*
X-74976776Y82219348D01*
D11*
X-35563883Y76410241D02*
X-35645684Y76502830D01*
X-35714915Y76603925D01*
X-35771048Y76712247D01*
X-35813551Y76826514D01*
X-35841895Y76945446D01*
X-35855548Y77067761D01*
X-35856776Y77117348D01*
X-110399469Y38498248D02*
X-110338166Y38580907D01*
X-110303694Y38677108D01*
X-110296886Y38745706D01*
X4443218Y72740138D02*
X4439079Y72851528D01*
X4426779Y72961643D01*
X4406488Y73070069D01*
X4378380Y73176391D01*
X4342625Y73280194D01*
X4299395Y73381063D01*
X4248863Y73478583D01*
X4191200Y73572339D01*
X4126578Y73661917D01*
X4055169Y73746900D01*
X4003878Y73800798D01*
D10*
X-110293036Y65209348D02*
X-110304486Y56179228D01*
X-23307406Y233548D02*
X-22479906Y-49352D01*
X11162758Y5378698D02*
X10910748Y5598498D01*
X-11424626Y-4922252D02*
X-10674236Y-5331052D01*
X-66983786Y10378048D02*
X-66084386Y10225748D01*
X6217958Y13751998D02*
X6030618Y14406998D01*
X-79997256Y11886248D02*
X-78096596Y11732148D01*
X-110702986Y38395816D02*
X-110646986Y38395806D01*
X-28337006Y1759648D02*
X-27493006Y1524848D01*
X4790418Y20605398D02*
X4693118Y21321698D01*
X-51625286Y6412448D02*
X-50829886Y6106948D01*
D11*
X-53417436Y79108688D02*
X-53493275Y79190379D01*
X-53562440Y79276940D01*
X-53624762Y79367956D01*
X-53680067Y79463013D01*
X-53728184Y79561695D01*
X-53768941Y79663588D01*
X-53802166Y79768277D01*
X-53827688Y79875346D01*
X-53845334Y79984382D01*
X-53854933Y80094968D01*
X-53856776Y80169348D01*
D10*
X13405278Y2037258D02*
X13510288Y2219158D01*
D11*
X-111004453Y49685745D02*
X-111065734Y49603070D01*
X-111100179Y49506859D01*
X-111106966Y49438258D01*
X-111004143Y31685845D02*
X-111065424Y31603170D01*
X-111099869Y31506959D01*
X-111106656Y31438358D01*
D10*
X7362868Y10618598D02*
X7102628Y11223998D01*
X-37416776Y78669348D02*
X-52356776Y78669348D01*
X-63415186Y9726048D02*
X-62535586Y9544548D01*
D11*
X-17856776Y74619138D02*
X-17860915Y74730528D01*
X-17873215Y74840643D01*
X-17893506Y74949069D01*
X-17921614Y75055391D01*
X-17957369Y75159194D01*
X-18000599Y75260063D01*
X-18051131Y75357583D01*
X-18108794Y75451339D01*
X-18173416Y75540917D01*
X-18244825Y75625900D01*
X-18296116Y75679798D01*
D10*
X-54050686Y7271348D02*
X-53235786Y6994548D01*
D11*
X-109543036Y70169348D02*
X-109653789Y70161129D01*
X-109761163Y70136930D01*
X-109863499Y70097437D01*
X-109959137Y70043339D01*
X-110046417Y69975324D01*
X-110073366Y69949678D01*
D10*
X-129917036Y12649458D02*
X-111857036Y12649458D01*
X-22479906Y-49352D02*
X-21656506Y-340852D01*
X-30028906Y2207248D02*
X-29182406Y1987048D01*
X-110644966Y49788248D02*
X-110700966Y49788258D01*
X-93580416Y12551848D02*
X-91614606Y12494848D01*
X-85764446Y12251848D02*
X-83831956Y12144948D01*
X7102628Y11223998D02*
X6859128Y11840798D01*
X-53856776Y80169348D02*
X-53856776Y82209348D01*
X13016178Y4063298D02*
X12834268Y4168298D01*
X5690148Y15740298D02*
X5535508Y16417498D01*
X4800249Y-12866652D02*
X13405278Y2037258D01*
X-4759886Y-8786752D02*
X-3281883Y-9680952D01*
X-12179396Y-4520352D02*
X-11424626Y-4922252D01*
X7938448Y9445198D02*
X7641058Y10025398D01*
X-66084386Y10225748D02*
X-65189786Y10066448D01*
X-93047976Y79659348D02*
X-92960976Y71685768D01*
X-111107036Y13399458D02*
X-111107036Y16568368D01*
D11*
X-110073366Y69949678D02*
X-110145868Y69865553D01*
X-110204681Y69772516D01*
X-110249119Y69672229D01*
X-110278492Y69566349D01*
X-110292115Y69456539D01*
X-110293036Y69419348D01*
D10*
X9549058Y7019698D02*
X9345928Y7272798D01*
X-67887786Y10523548D02*
X-66983786Y10378048D01*
X-56533386Y8045748D02*
X-55699586Y7796848D01*
X-34266406Y3206848D02*
X-33419106Y3019948D01*
X-19416776Y76119138D02*
X-34856776Y76119138D01*
X-16031136Y-2627652D02*
X-15249646Y-2989652D01*
X-9927726Y-5746352D02*
X-9184546Y-6167552D01*
X-110701986Y23218258D02*
X-110647986Y23218248D01*
D11*
X-131477036Y14149458D02*
X-131469292Y13996092D01*
X-131446562Y13847156D01*
X-131409599Y13703404D01*
X-131359159Y13565591D01*
X-131295995Y13434469D01*
X-131220860Y13310794D01*
X-131134509Y13195319D01*
X-131037697Y13088798D01*
X-130931176Y12991986D01*
X-130815701Y12905635D01*
X-130692026Y12830500D01*
X-130560904Y12767336D01*
X-130423091Y12716896D01*
X-130279339Y12679933D01*
X-130130403Y12657203D01*
X-129977036Y12649458D01*
D10*
X-75976776Y81219348D02*
X-91416776Y81219348D01*
X-110756936Y16918368D02*
X-110649336Y16918348D01*
X-103510376Y12686998D02*
X-101511816Y12678848D01*
D11*
X-110407034Y55931705D02*
X-110489735Y55870428D01*
X-110585972Y55835999D01*
X-110654586Y55829228D01*
D10*
X-110297986Y23568248D02*
X-110296656Y31438248D01*
X5535508Y16417498D02*
X5390388Y17101198D01*
D11*
X-110295066Y49438248D02*
X-110310796Y49542309D01*
X-110354820Y49633905D01*
X-110422391Y49708290D01*
X-110508763Y49760715D01*
X-110609189Y49786432D01*
X-110644966Y49788248D01*
D10*
X10198428Y6287698D02*
X9975158Y6527098D01*
X8094748Y9160298D02*
X7938448Y9445198D01*
X10666098Y5823298D02*
X10428698Y6053098D01*
X-19213906Y-1267652D02*
X-18409906Y-1594352D01*
X-78096596Y11732148D02*
X-76208186Y11559948D01*
X8774418Y8057698D02*
X8595998Y8327598D01*
D11*
X-111106986Y23568258D02*
X-111091858Y23466466D01*
X-111048182Y23374078D01*
X-111004473Y23320771D01*
D10*
X9149218Y7530198D02*
X8958768Y7791898D01*
X-91614606Y12494848D02*
X-89656346Y12425848D01*
X-16818366Y-2274352D02*
X-16031136Y-2627652D01*
X-110700966Y49788258D02*
X-110756966Y49788258D01*
X-10674236Y-5331052D02*
X-9927726Y-5746352D01*
X-64299986Y9899948D02*
X-63415186Y9726048D01*
X11689268Y4954398D02*
X11422238Y5163998D01*
X11963938Y4749998D02*
X11689268Y4954398D01*
D11*
X-110401813Y16815800D02*
X-110340536Y16733100D01*
X-110306107Y16636863D01*
X-110299336Y16568248D01*
D10*
X-111106966Y49438258D02*
X-111106986Y49438358D01*
X-110654586Y55829228D02*
X-110767036Y55829408D01*
X7641058Y10025398D02*
X7362868Y10618598D01*
D11*
X4003878Y73800798D02*
X3922187Y73876637D01*
X3835626Y73945802D01*
X3744610Y74008124D01*
X3649553Y74063429D01*
X3550871Y74111546D01*
X3448978Y74152303D01*
X3344289Y74185528D01*
X3237220Y74211050D01*
X3128184Y74228696D01*
X3017598Y74238295D01*
X2943218Y74240138D01*
D10*
X-93047976Y79719348D02*
X-93047976Y79659348D01*
D11*
X-35856776Y77169348D02*
X-35860915Y77280738D01*
X-35873215Y77390853D01*
X-35893506Y77499279D01*
X-35921614Y77605601D01*
X-35957369Y77709404D01*
X-36000599Y77810273D01*
X-36051131Y77907793D01*
X-36108794Y78001549D01*
X-36173416Y78091127D01*
X-36244825Y78176110D01*
X-36296116Y78230008D01*
D10*
X-91416776Y81219348D02*
X-91547976Y81219348D01*
X-6232690Y-7900052D02*
X-4759886Y-8786752D01*
X-83831956Y12144948D02*
X-81909316Y12023448D01*
D11*
X-110756656Y31788358D02*
X-110858449Y31773230D01*
X-110950837Y31729554D01*
X-111004143Y31685845D01*
X-93394436Y70614509D02*
X-93476308Y70537706D01*
X-93563148Y70467647D01*
X-93654535Y70404511D01*
X-93750044Y70348474D01*
X-93849252Y70299712D01*
X-93951738Y70258402D01*
X-94057076Y70224721D01*
X-94164844Y70198846D01*
X-94274619Y70180953D01*
X-94385977Y70171218D01*
X-94460886Y70169348D01*
D10*
X-53856776Y82209348D02*
X-53856776Y82269348D01*
X10428698Y6053098D02*
X10198428Y6287698D01*
D11*
X-110299926Y13408628D02*
X-110291607Y13297057D01*
X-110267075Y13188936D01*
X-110227038Y13085959D01*
X-110172204Y12989821D01*
X-110103279Y12902217D01*
X-110077295Y12875205D01*
D10*
X-17856776Y74559138D02*
X-17856776Y74619138D01*
X-21656506Y-340852D02*
X-20837506Y-640952D01*
D11*
X-111004473Y23320771D02*
X-110921798Y23259491D01*
X-110825587Y23225046D01*
X-110756986Y23218258D01*
D10*
X-38491916Y4051248D02*
X-36804506Y3731048D01*
X-35113206Y3387548D02*
X-34266406Y3206848D01*
D11*
X-92960976Y71685768D02*
X-92963945Y71573550D01*
X-92975205Y71462543D01*
X-92994582Y71353171D01*
X-93021906Y71245861D01*
X-93057004Y71141036D01*
X-93099704Y71039122D01*
X-93149835Y70940545D01*
X-93207224Y70845729D01*
X-93271699Y70755100D01*
X-93343088Y70669083D01*
X-93394436Y70614509D01*
D10*
X9345928Y7272798D02*
X9149218Y7530198D01*
D11*
X13510288Y2219158D02*
X13573268Y2342180D01*
X13622574Y2468492D01*
X13658455Y2597168D01*
X13681158Y2727281D01*
X13690932Y2857904D01*
X13688026Y2988109D01*
X13672688Y3116971D01*
X13645166Y3243562D01*
X13605709Y3366955D01*
X13554564Y3486223D01*
X13491981Y3600439D01*
X13418208Y3708676D01*
X13333492Y3810008D01*
X13238083Y3903507D01*
X13132229Y3988246D01*
X13016178Y4063298D01*
D10*
X-1793526Y-10578252D02*
X-290270Y-11474952D01*
X11422238Y5163998D02*
X11162758Y5378698D01*
X-111106986Y31438258D02*
X-111106986Y23568258D01*
X-19356776Y76119138D02*
X-19416776Y76119138D01*
X-13703716Y-3738952D02*
X-12938976Y-4125752D01*
X-70625986Y10921348D02*
X-69708986Y10794948D01*
X-131477036Y65268248D02*
X-131477036Y14149458D01*
X4443218Y23499098D02*
X4443218Y72740138D01*
X-54871986Y7538748D02*
X-54050686Y7271348D01*
D11*
X-17556776Y74240138D02*
X-17657929Y74257706D01*
X-17746904Y74308078D01*
X-17768908Y74328006D01*
D10*
X4519618Y22768598D02*
X4443218Y23499098D01*
D11*
X-129977036Y66768248D02*
X-130130403Y66760504D01*
X-130279339Y66737774D01*
X-130423091Y66700811D01*
X-130560904Y66650371D01*
X-130692026Y66587207D01*
X-130815701Y66512072D01*
X-130931176Y66425721D01*
X-131037697Y66328909D01*
X-131134509Y66222388D01*
X-131220860Y66106913D01*
X-131295995Y65983238D01*
X-131359159Y65852116D01*
X-131409599Y65714303D01*
X-131446562Y65570551D01*
X-131469292Y65421615D01*
X-131477036Y65268248D01*
D10*
X5006868Y19187698D02*
X4894928Y19893998D01*
X-17611306Y-1929952D02*
X-16818366Y-2274352D01*
X-3281883Y-9680952D02*
X-1793526Y-10578252D01*
X-37356776Y78669348D02*
X-37416776Y78669348D01*
X-73400586Y11265348D02*
X-72471886Y11156348D01*
X-20023206Y-949852D02*
X-19213906Y-1267652D01*
X-81909316Y12023448D02*
X-79997256Y11886248D01*
X-69708986Y10794948D02*
X-68796186Y10662448D01*
X8256328Y8878998D02*
X8094748Y9160298D01*
X-7705754Y-7025352D02*
X-6232690Y-7900052D01*
X-45190286Y5114148D02*
X-43524096Y4880048D01*
X-111857036Y66769458D02*
X-111917036Y66769458D01*
X-33419106Y3019948D02*
X-32571506Y2826648D01*
X-111117036Y56179408D02*
X-111107036Y65209458D01*
X-15249646Y-2989652D02*
X-14473876Y-3360152D01*
X-290270Y-11474952D02*
X1231517Y-12368152D01*
X-30876106Y2420448D02*
X-30028906Y2207248D01*
X-18409906Y-1594352D02*
X-17611306Y-1929952D01*
D11*
X-54296116Y83330008D02*
X-54377807Y83405847D01*
X-54464368Y83475012D01*
X-54555384Y83537334D01*
X-54650441Y83592639D01*
X-54749123Y83640756D01*
X-54851016Y83681513D01*
X-54955705Y83714738D01*
X-55062774Y83740260D01*
X-55171810Y83757906D01*
X-55282396Y83767505D01*
X-55356776Y83769348D01*
D10*
X-111107036Y65209458D02*
X-111107036Y66019458D01*
X-59071286Y8738948D02*
X-58219386Y8516648D01*
D11*
X-110767036Y55829408D02*
X-110868829Y55844537D01*
X-110961217Y55888213D01*
X-111014523Y55931921D01*
D10*
X-57373386Y8285648D02*
X-56533386Y8045748D01*
X12536398Y4356898D02*
X12246298Y4550798D01*
X-110293036Y69419348D02*
X-110293036Y68669348D01*
X-95553366Y12598848D02*
X-93580416Y12551848D01*
X10910748Y5598498D02*
X10666098Y5823298D01*
D11*
X-110077295Y12875205D02*
X-109992100Y12802686D01*
X-109897961Y12744121D01*
X-109796580Y12700199D01*
X-109689660Y12671609D01*
X-109578904Y12659039D01*
X-109541426Y12658528D01*
D10*
X-75268886Y11466948D02*
X-74332986Y11368948D01*
D11*
X2956108Y-13360752D02*
X3079128Y-13423732D01*
X3205440Y-13473039D01*
X3334116Y-13508920D01*
X3464229Y-13531624D01*
X3594851Y-13541400D01*
X3725057Y-13538494D01*
X3853919Y-13523157D01*
X3980510Y-13495635D01*
X4103902Y-13456178D01*
X4223171Y-13405035D01*
X4337387Y-13342452D01*
X4445625Y-13268679D01*
X4546957Y-13183964D01*
X4640456Y-13088556D01*
X4725195Y-12982702D01*
X4800249Y-12866652D01*
D10*
X-29182406Y1987048D02*
X-28337006Y1759648D01*
X-110756986Y23218258D02*
X-110701986Y23218258D01*
X-27493006Y1524848D02*
X-26650806Y1282448D01*
X-76208186Y11559948D02*
X-75268886Y11466948D01*
X-107525256Y12676528D02*
X-105514886Y12686178D01*
D11*
X-53856776Y82269348D02*
X-53860915Y82380738D01*
X-53873215Y82490853D01*
X-53893506Y82599279D01*
X-53921614Y82705601D01*
X-53957369Y82809404D01*
X-54000599Y82910273D01*
X-54051131Y83007793D01*
X-54108794Y83101549D01*
X-54173416Y83191127D01*
X-54244825Y83276110D01*
X-54296116Y83330008D01*
X-111326706Y66549788D02*
X-111410832Y66622290D01*
X-111503869Y66681103D01*
X-111604156Y66725541D01*
X-111710036Y66754914D01*
X-111819846Y66768537D01*
X-111857036Y66769458D01*
D10*
X9975158Y6527098D02*
X9758748Y6771098D01*
D11*
X-73476776Y83769348D02*
X-73588166Y83765210D01*
X-73698281Y83752910D01*
X-73806707Y83732619D01*
X-73913029Y83704511D01*
X-74016832Y83668756D01*
X-74117701Y83625526D01*
X-74215221Y83574994D01*
X-74308977Y83517331D01*
X-74398555Y83452709D01*
X-74483538Y83381300D01*
X-74537436Y83330008D01*
D10*
X-31723706Y2626848D02*
X-30876106Y2420448D01*
X-35856776Y77169348D02*
X-35856776Y77117348D01*
X-109541426Y12658528D02*
X-107525256Y12676528D01*
X-110756986Y38395816D02*
X-110702986Y38395816D01*
X1231517Y-12368152D02*
X2774238Y-13255752D01*
D11*
X-110296656Y31438248D02*
X-110311762Y31540063D01*
X-110355426Y31632477D01*
X-110399133Y31685800D01*
D10*
X6631228Y12468198D02*
X6417848Y13105498D01*
X-14473876Y-3360152D02*
X-13703716Y-3738952D01*
X2943218Y74240138D02*
X-17556776Y74240138D01*
M02*
