%TF.GenerationSoftware,KiCad,Pcbnew,7.0.6*%
%TF.CreationDate,2023-09-19T12:55:28+07:00*%
%TF.ProjectId,rose,726f7365-2e6b-4696-9361-645f70636258,rev?*%
%TF.SameCoordinates,Original*%
%TF.FileFunction,Profile,NP*%
%FSLAX46Y46*%
G04 Gerber Fmt 4.6, Leading zero omitted, Abs format (unit mm)*
G04 Created by KiCad (PCBNEW 7.0.6) date 2023-09-19 12:55:28*
%MOMM*%
%LPD*%
G01*
G04 APERTURE LIST*
%TA.AperFunction,Profile*%
%ADD10C,0.100000*%
%TD*%
%ADD11C,0.100000*%
G04 APERTURE END LIST*
D10*
X77402940Y-17873200D02*
X79074880Y-18128100D01*
X70097150Y-16646300D02*
X70886050Y-16961400D01*
X94276230Y-21470800D02*
X95116330Y-21720900D01*
X19415220Y-10074400D02*
X21407710Y-10091400D01*
D11*
X103158128Y51574758D02*
X103099024Y51658706D01*
X103071727Y51757239D01*
X103070260Y51786890D01*
X9922548Y-5937357D02*
X10005248Y-5876079D01*
X10101485Y-5841650D01*
X10170100Y-5834880D01*
D10*
X9820050Y26685110D02*
X9820050Y15992568D01*
X95953830Y-21979000D02*
X96788430Y-22245200D01*
X126181254Y-4962250D02*
X126053554Y-4266650D01*
X127786164Y-10912450D02*
X127558264Y-10285050D01*
X100089530Y-23394200D02*
X100903830Y-23703100D01*
D11*
X45950260Y59456100D02*
X45942631Y59336783D01*
X45920101Y59219101D01*
X45883198Y59104564D01*
X45832453Y58994683D01*
X45768397Y58890966D01*
X45691561Y58794924D01*
X45657367Y58758993D01*
D10*
X67691250Y-15758700D02*
X68499750Y-16045000D01*
D11*
X102630920Y52926550D02*
X102549229Y53002389D01*
X102462668Y53071554D01*
X102371652Y53133876D01*
X102276595Y53189181D01*
X102177913Y53237298D01*
X102076020Y53278055D01*
X101971331Y53311280D01*
X101864262Y53336802D01*
X101755226Y53354448D01*
X101644640Y53364047D01*
X101570260Y53365890D01*
D10*
X127344884Y-9647750D02*
X127144994Y-9001250D01*
X21407710Y-10091400D02*
X23393940Y-10118400D01*
X129885804Y-14961350D02*
X129701454Y-14695550D01*
X126781984Y-7683250D02*
X126617184Y-7012950D01*
D11*
X9820050Y15992568D02*
X9835178Y15890776D01*
X9878854Y15798388D01*
X9922563Y15745081D01*
D10*
X68499750Y-16045000D02*
X69301750Y-16340800D01*
X79074880Y-18128100D02*
X80752390Y-18404200D01*
X72421840Y-17232200D02*
X74076380Y-17425500D01*
X9010000Y44016210D02*
X-9050000Y44015000D01*
D11*
X68570260Y55916100D02*
X68458870Y55920239D01*
X68348755Y55932539D01*
X68240329Y55952830D01*
X68134007Y55980938D01*
X68030204Y56016693D01*
X67929335Y56059923D01*
X67831815Y56110455D01*
X67738059Y56168118D01*
X67648481Y56232740D01*
X67563498Y56304149D01*
X67509600Y56355440D01*
D10*
X10627700Y-6185000D02*
X10627110Y-9344620D01*
D11*
X10622550Y33425980D02*
X10607415Y33324170D01*
X10563725Y33231769D01*
X10520002Y33178457D01*
D10*
X129523034Y-14425650D02*
X129350394Y-14151850D01*
X123701274Y-36009000D02*
X123883144Y-36114000D01*
D11*
X9820000Y43266210D02*
X9811780Y43376963D01*
X9787581Y43484337D01*
X9748088Y43586673D01*
X9693991Y43682311D01*
X9625975Y43769591D01*
X9600330Y43796540D01*
D10*
X23393940Y-10118400D02*
X25373670Y-10154400D01*
X58391450Y-13208700D02*
X59265750Y-13397900D01*
X130685784Y-15982150D02*
X130476094Y-15733550D01*
X59265750Y-13397900D02*
X60134650Y-13595100D01*
X70886050Y-16961400D02*
X72421840Y-17232200D01*
X55737250Y-12686800D02*
X56627050Y-12853300D01*
D11*
X10277700Y-5834900D02*
X10379510Y-5850034D01*
X10471911Y-5893724D01*
X10525223Y-5937448D01*
D10*
X62707650Y-14236600D02*
X63553650Y-14467600D01*
D11*
X29379060Y58466100D02*
X29267670Y58461962D01*
X29157555Y58449662D01*
X29049129Y58429371D01*
X28942807Y58401263D01*
X28839004Y58365508D01*
X28738135Y58322278D01*
X28640615Y58271746D01*
X28546859Y58214083D01*
X28457281Y58149461D01*
X28372298Y58078052D01*
X28318400Y58026760D01*
D10*
X10630150Y15992458D02*
X10631970Y26685000D01*
X84122530Y-19022200D02*
X85813830Y-19365700D01*
X111742490Y-28920800D02*
X113221282Y-29778600D01*
X31270690Y-10327400D02*
X33220920Y-10408400D01*
X125821964Y-2859250D02*
X125717454Y-2147850D01*
X60134650Y-13595100D02*
X60998050Y-13800500D01*
X103070260Y51786890D02*
X103070260Y51805890D01*
X126957654Y-8346250D02*
X126781984Y-7683250D01*
X11450000Y47416100D02*
X11384000Y47416100D01*
X125620154Y-1431550D02*
X125529954Y-710450D01*
D11*
X9922563Y15745081D02*
X10005238Y15683801D01*
X10101449Y15649356D01*
X10170050Y15642568D01*
D10*
X96788430Y-22245200D02*
X97619630Y-22519700D01*
X10225380Y9035110D02*
X10170380Y9035110D01*
X49380050Y-11711500D02*
X50301050Y-11831900D01*
D11*
X9600330Y-9884120D02*
X9672831Y-9799994D01*
X9731644Y-9706957D01*
X9776082Y-9606670D01*
X9805455Y-9500790D01*
X9819078Y-9390980D01*
X9820000Y-9353790D01*
D10*
X125529954Y-710450D02*
X125446654Y15350D01*
D11*
X10526537Y567513D02*
X10587817Y650189D01*
X10622262Y746400D01*
X10629050Y815000D01*
D10*
X133173334Y-18202450D02*
X132890974Y-18003250D01*
X52130850Y-12090800D02*
X53039250Y-12229700D01*
X126317424Y-5652050D02*
X126181254Y-4962250D01*
D11*
X86070260Y53365890D02*
X85946949Y53373519D01*
X85826509Y53396049D01*
X85710223Y53432952D01*
X85599369Y53483697D01*
X85495230Y53547753D01*
X85399085Y53624589D01*
X85363153Y53658783D01*
D10*
X60998050Y-13800500D02*
X61855750Y-14014300D01*
D11*
X9070000Y-10103790D02*
X9180752Y-10095570D01*
X9288126Y-10071371D01*
X9390462Y-10031878D01*
X9486100Y-9977781D01*
X9573380Y-9909765D01*
X9600330Y-9884120D01*
X46389600Y60576760D02*
X46313761Y60495029D01*
X46244596Y60408180D01*
X46182274Y60316381D01*
X46126969Y60219800D01*
X46078852Y60118604D01*
X46038095Y60012962D01*
X46004870Y59903041D01*
X45979348Y59789009D01*
X45961702Y59671034D01*
X45952103Y59549283D01*
X45950260Y59466100D01*
X10527903Y8932552D02*
X10445219Y8993853D01*
X10348992Y9028311D01*
X10280380Y9035100D01*
X10280050Y15642558D02*
X10381846Y15657658D01*
X10474247Y15701307D01*
X10527567Y15745000D01*
D10*
X-9050000Y-10103790D02*
X-8990000Y-10103790D01*
X107988060Y-26879000D02*
X108747640Y-27273600D01*
D11*
X9820000Y-6184880D02*
X9835134Y-6083069D01*
X9878824Y-5990668D01*
X9922548Y-5937357D01*
D10*
X46594050Y-11384300D02*
X47526450Y-11487900D01*
X10634000Y45916100D02*
X10634000Y42456100D01*
D11*
X9912513Y33178673D02*
X9851232Y33261349D01*
X9816787Y33357560D01*
X9810000Y33426160D01*
D10*
X74076380Y-17425500D02*
X75736750Y-17639100D01*
X10280380Y9035100D02*
X10225380Y9035110D01*
X88355530Y-19926600D02*
X89203330Y-20126400D01*
X26466150Y47416100D02*
X11450000Y47416100D01*
D11*
X28318400Y58026760D02*
X28242561Y57945070D01*
X28173396Y57858509D01*
X28111074Y57767493D01*
X28055769Y57672436D01*
X28007652Y57573754D01*
X27966895Y57471861D01*
X27933670Y57367172D01*
X27908148Y57260103D01*
X27890502Y57151067D01*
X27880903Y57040481D01*
X27879060Y56966100D01*
D10*
X133761304Y-18584950D02*
X133463434Y-18396350D01*
X65570260Y61016100D02*
X47510260Y61016100D01*
X15412150Y-10067070D02*
X17416660Y-10066250D01*
X129350394Y-14151850D02*
X129183364Y-13874250D01*
X47510260Y61016100D02*
X47450260Y61016100D01*
D11*
X10170070Y27035010D02*
X10068277Y27019882D01*
X9975889Y26976206D01*
X9922583Y26932497D01*
X10279050Y465000D02*
X10380842Y480129D01*
X10473230Y523805D01*
X10526537Y567513D01*
D10*
X9820380Y8685110D02*
X9820050Y8685010D01*
X80752390Y-18404200D02*
X82435120Y-18702000D01*
X126053554Y-4266650D02*
X125933904Y-3565550D01*
X48455150Y-11596900D02*
X49380050Y-11711500D01*
X33220920Y-10408400D02*
X35162590Y-10501400D01*
D11*
X45657367Y58758993D02*
X45564778Y58677193D01*
X45463683Y58607962D01*
X45355361Y58551829D01*
X45241094Y58509326D01*
X45122162Y58480982D01*
X44999847Y58467329D01*
X44950260Y58466100D01*
D10*
X65227450Y-14956400D02*
X66055050Y-15214500D01*
D11*
X84630920Y55476760D02*
X84549229Y55552599D01*
X84462668Y55621764D01*
X84371652Y55684086D01*
X84276595Y55739391D01*
X84177913Y55787508D01*
X84076020Y55828265D01*
X83971331Y55861490D01*
X83864262Y55887012D01*
X83755226Y55904658D01*
X83644640Y55914257D01*
X83570260Y55916100D01*
D10*
X95116330Y-21720900D02*
X95953830Y-21979000D01*
X45950260Y59456100D02*
X45950260Y59466100D01*
D11*
X85363153Y53656993D02*
X85281352Y53749582D01*
X85212121Y53850677D01*
X85155988Y53958999D01*
X85113485Y54073266D01*
X85085141Y54192198D01*
X85071488Y54314513D01*
X85070260Y54364100D01*
X10527567Y15745000D02*
X10588870Y15827659D01*
X10623342Y15923860D01*
X10630150Y15992458D01*
X125370254Y49986890D02*
X125366115Y50098280D01*
X125353815Y50208395D01*
X125333524Y50316821D01*
X125305416Y50423143D01*
X125269661Y50526946D01*
X125226431Y50627815D01*
X125175899Y50725335D01*
X125118236Y50819091D01*
X125053614Y50908669D01*
X124982205Y50993652D01*
X124930914Y51047550D01*
D10*
X10634000Y42456100D02*
X10622550Y33425980D01*
X97619630Y-22519700D02*
X98447130Y-22802600D01*
X132089794Y-17374550D02*
X131837784Y-17154750D01*
X109502410Y-27675500D02*
X110252800Y-28084300D01*
X53943250Y-12375200D02*
X54842650Y-12527500D01*
X127144994Y-9001250D02*
X126957654Y-8346250D01*
X40929780Y-10867000D02*
X42830440Y-11021100D01*
X10224050Y15642568D02*
X10280050Y15642558D01*
X92590030Y-20993600D02*
X93434030Y-21228400D01*
X125717454Y-2147850D02*
X125620154Y-1431550D01*
X69301750Y-16340800D02*
X70097150Y-16646300D01*
D11*
X67509600Y56355440D02*
X67433761Y56437131D01*
X67364596Y56523692D01*
X67302274Y56614708D01*
X67246969Y56709765D01*
X67198852Y56808447D01*
X67158095Y56910340D01*
X67124870Y57015029D01*
X67099348Y57122098D01*
X67081702Y57231134D01*
X67072103Y57341720D01*
X67070260Y57416100D01*
D10*
X134332314Y-20715990D02*
X134437324Y-20534090D01*
D11*
X9922583Y26932497D02*
X9861302Y26849822D01*
X9826857Y26753611D01*
X9820070Y26685010D01*
X9922893Y8932597D02*
X9861612Y8849922D01*
X9827167Y8753711D01*
X9820380Y8685110D01*
D10*
X128289904Y-12134650D02*
X128029664Y-11529250D01*
X83510260Y55916100D02*
X68570260Y55916100D01*
X57511850Y-13027200D02*
X58391450Y-13208700D01*
D11*
X103070260Y51865890D02*
X103066121Y51977280D01*
X103053821Y52087395D01*
X103033530Y52195821D01*
X103005422Y52302143D01*
X102969667Y52405946D01*
X102926437Y52506815D01*
X102875905Y52604335D01*
X102818242Y52698091D01*
X102753620Y52787669D01*
X102682211Y52872652D01*
X102630920Y52926550D01*
D10*
X66876350Y-15481900D02*
X67691250Y-15758700D01*
D11*
X11384000Y47416100D02*
X11273247Y47407881D01*
X11165873Y47383682D01*
X11063537Y47344189D01*
X10967899Y47290091D01*
X10880619Y47222076D01*
X10853670Y47196430D01*
D10*
X-8990000Y-10103790D02*
X9070000Y-10103790D01*
X98447130Y-22802600D02*
X99270530Y-23094100D01*
X90898130Y-20546000D02*
X91744630Y-20766200D01*
X10282070Y27035000D02*
X10226070Y27035010D01*
X27346620Y-10201400D02*
X29312430Y-10258400D01*
X35162590Y-10501400D02*
X37095080Y-10608300D01*
X128029664Y-11529250D02*
X127786164Y-10912450D01*
X67070260Y57416100D02*
X67070260Y59456100D01*
X133943214Y-18689950D02*
X133761304Y-18584950D01*
X126617184Y-7012950D02*
X126462544Y-6335750D01*
X125727285Y-35619900D02*
X134332314Y-20715990D01*
X116167150Y-31540000D02*
X117645153Y-32434200D01*
X108747640Y-27273600D02*
X109502410Y-27675500D01*
X128865484Y-13308050D02*
X128568094Y-12727850D01*
X54842650Y-12527500D02*
X55737250Y-12686800D01*
X27879060Y56906100D02*
X27966060Y48932520D01*
X9820000Y-9353790D02*
X9820000Y-6184880D01*
D11*
X10853670Y47196430D02*
X10781168Y47112305D01*
X10722355Y47019268D01*
X10677917Y46918981D01*
X10648544Y46813101D01*
X10634921Y46703291D01*
X10634000Y46666100D01*
D10*
X130476094Y-15733550D02*
X130272964Y-15480450D01*
X53039250Y-12229700D02*
X53943250Y-12375200D01*
X64393650Y-14707500D02*
X65227450Y-14956400D01*
X86660630Y-19546400D02*
X87507930Y-19733300D01*
X101510260Y53365890D02*
X86070260Y53365890D01*
X104895900Y-25380900D02*
X105677390Y-25742900D01*
X110999310Y-28499600D02*
X111742490Y-28920800D01*
X10225050Y465010D02*
X10279050Y465000D01*
D11*
X-10550000Y-8603790D02*
X-10542256Y-8757156D01*
X-10519526Y-8906092D01*
X-10482563Y-9049844D01*
X-10432123Y-9187657D01*
X-10368959Y-9318779D01*
X-10293824Y-9442454D01*
X-10207473Y-9557929D01*
X-10110661Y-9664450D01*
X-10004140Y-9761262D01*
X-9888665Y-9847613D01*
X-9764990Y-9922748D01*
X-9633868Y-9985912D01*
X-9496055Y-10036352D01*
X-9352303Y-10073315D01*
X-9203367Y-10096045D01*
X-9050000Y-10103790D01*
D10*
X44950260Y58466100D02*
X29510260Y58466100D01*
X10170100Y-5834880D02*
X10277700Y-5834900D01*
X17416660Y-10066250D02*
X19415220Y-10074400D01*
D11*
X10520002Y33178457D02*
X10437301Y33117180D01*
X10341064Y33082751D01*
X10272450Y33075980D01*
D10*
X10629050Y815000D02*
X10630380Y8685000D01*
X126462544Y-6335750D02*
X126317424Y-5652050D01*
D11*
X10631970Y26685000D02*
X10616240Y26789061D01*
X10572216Y26880657D01*
X10504645Y26955042D01*
X10418273Y27007467D01*
X10317847Y27033184D01*
X10282070Y27035000D01*
D10*
X131125464Y-16465550D02*
X130902194Y-16226150D01*
X129021784Y-13592950D02*
X128865484Y-13308050D01*
X131593134Y-16929950D02*
X131355734Y-16700150D01*
X101713130Y-24020900D02*
X102517130Y-24347600D01*
X42830440Y-11021100D02*
X44718850Y-11193300D01*
X129701454Y-14695550D02*
X129523034Y-14425650D01*
D11*
X9820050Y815010D02*
X9835178Y713218D01*
X9878854Y620830D01*
X9922563Y567523D01*
D10*
X130076254Y-15223050D02*
X129885804Y-14961350D01*
X29312430Y-10258400D02*
X31270690Y-10327400D01*
X104108670Y-25027600D02*
X104895900Y-25380900D01*
X10226070Y27035010D02*
X10170070Y27035010D01*
X110252800Y-28084300D02*
X110999310Y-28499600D01*
X56627050Y-12853300D02*
X57511850Y-13027200D01*
X132616304Y-17798850D02*
X132349274Y-17589250D01*
X132890974Y-18003250D02*
X132616304Y-17798850D01*
D11*
X10525223Y-5937448D02*
X10586500Y-6020148D01*
X10620929Y-6116385D01*
X10627700Y-6185000D01*
D10*
X9820070Y26685010D02*
X9820050Y26685110D01*
X10272450Y33075980D02*
X10160000Y33076160D01*
X128568094Y-12727850D02*
X128289904Y-12134650D01*
D11*
X124930914Y51047550D02*
X124849223Y51123389D01*
X124762662Y51192554D01*
X124671646Y51254876D01*
X124576589Y51310181D01*
X124477907Y51358298D01*
X124376014Y51399055D01*
X124271325Y51432280D01*
X124164256Y51457802D01*
X124055220Y51475448D01*
X123944634Y51485047D01*
X123870254Y51486890D01*
D10*
X27879060Y56966100D02*
X27879060Y56906100D01*
D11*
X85070260Y54416100D02*
X85066121Y54527490D01*
X85053821Y54637605D01*
X85033530Y54746031D01*
X85005422Y54852353D01*
X84969667Y54956156D01*
X84926437Y55057025D01*
X84875905Y55154545D01*
X84818242Y55248301D01*
X84753620Y55337879D01*
X84682211Y55422862D01*
X84630920Y55476760D01*
D10*
X29510260Y58466100D02*
X29379060Y58466100D01*
X114694346Y-30653300D02*
X116167150Y-31540000D01*
X37095080Y-10608300D02*
X39017720Y-10729800D01*
D11*
X10170380Y9035110D02*
X10068587Y9019982D01*
X9976199Y8976306D01*
X9922893Y8932597D01*
X27532600Y47861261D02*
X27450728Y47784458D01*
X27363888Y47714399D01*
X27272501Y47651263D01*
X27176992Y47595226D01*
X27077784Y47546464D01*
X26975298Y47505154D01*
X26869960Y47471473D01*
X26762192Y47445598D01*
X26652417Y47427705D01*
X26541059Y47417970D01*
X26466150Y47416100D01*
D10*
X67070260Y59456100D02*
X67070260Y59516100D01*
X131355734Y-16700150D02*
X131125464Y-16465550D01*
D11*
X10627110Y-9344620D02*
X10635429Y-9456191D01*
X10659961Y-9564312D01*
X10699998Y-9667289D01*
X10754832Y-9763427D01*
X10823757Y-9851031D01*
X10849741Y-9878043D01*
D10*
X103070260Y51805890D02*
X103070260Y51865890D01*
X99270530Y-23094100D02*
X100089530Y-23394200D01*
D11*
X9922563Y567523D02*
X10005238Y506243D01*
X10101449Y471798D01*
X10170050Y465010D01*
D10*
X82435120Y-18702000D02*
X84122530Y-19022200D01*
X85813830Y-19365700D02*
X86660630Y-19546400D01*
D11*
X27966060Y48932520D02*
X27963091Y48820302D01*
X27951831Y48709295D01*
X27932454Y48599923D01*
X27905130Y48492613D01*
X27870032Y48387788D01*
X27827332Y48285874D01*
X27777201Y48187297D01*
X27719812Y48092481D01*
X27655337Y48001852D01*
X27583948Y47915835D01*
X27532600Y47861261D01*
D10*
X130272964Y-15480450D02*
X130076254Y-15223050D01*
D11*
X134437324Y-20534090D02*
X134500304Y-20411068D01*
X134549610Y-20284756D01*
X134585491Y-20156080D01*
X134608194Y-20025967D01*
X134617968Y-19895344D01*
X134615062Y-19765139D01*
X134599724Y-19636277D01*
X134572202Y-19509686D01*
X134532745Y-19386293D01*
X134481600Y-19267025D01*
X134419017Y-19152809D01*
X134345244Y-19044572D01*
X134260528Y-18943240D01*
X134165119Y-18849741D01*
X134059265Y-18765002D01*
X133943214Y-18689950D01*
D10*
X119133510Y-33331500D02*
X120636766Y-34228200D01*
X132349274Y-17589250D02*
X132089794Y-17374550D01*
X9820050Y8685010D02*
X9820050Y815010D01*
X101570260Y53365890D02*
X101510260Y53365890D01*
X107223320Y-26492200D02*
X107988060Y-26879000D01*
X50301050Y-11831900D02*
X51218050Y-11958300D01*
X-10550000Y42515000D02*
X-10550000Y-8603790D01*
X125370254Y745850D02*
X125370254Y49986890D01*
X66055050Y-15214500D02*
X66876350Y-15481900D01*
D11*
X103370260Y51486890D02*
X103269107Y51504458D01*
X103180132Y51554830D01*
X103158128Y51574758D01*
D10*
X125446654Y15350D02*
X125370254Y745850D01*
D11*
X-9050000Y44015000D02*
X-9203367Y44007256D01*
X-9352303Y43984526D01*
X-9496055Y43947563D01*
X-9633868Y43897123D01*
X-9764990Y43833959D01*
X-9888665Y43758824D01*
X-10004140Y43672473D01*
X-10110661Y43575661D01*
X-10207473Y43469140D01*
X-10293824Y43353665D01*
X-10368959Y43229990D01*
X-10432123Y43098868D01*
X-10482563Y42961055D01*
X-10519526Y42817303D01*
X-10542256Y42668367D01*
X-10550000Y42515000D01*
D10*
X125933904Y-3565550D02*
X125821964Y-2859250D01*
X103315730Y-24683200D02*
X104108670Y-25027600D01*
X117645153Y-32434200D02*
X119133510Y-33331500D01*
X83570260Y55916100D02*
X83510260Y55916100D01*
X47526450Y-11487900D02*
X48455150Y-11596900D01*
X100903830Y-23703100D02*
X101713130Y-24020900D01*
X39017720Y-10729800D02*
X40929780Y-10867000D01*
X51218050Y-11958300D02*
X52130850Y-12090800D01*
X129183364Y-13874250D02*
X129021784Y-13592950D01*
X113221282Y-29778600D02*
X114694346Y-30653300D01*
X75736750Y-17639100D02*
X77402940Y-17873200D01*
X9070000Y44016210D02*
X9010000Y44016210D01*
X87507930Y-19733300D02*
X88355530Y-19926600D01*
X9810000Y33426160D02*
X9820000Y42456210D01*
X105677390Y-25742900D02*
X106453160Y-26113400D01*
X120636766Y-34228200D02*
X122158553Y-35121400D01*
X90050930Y-20332800D02*
X90898130Y-20546000D01*
X102517130Y-24347600D02*
X103315730Y-24683200D01*
D11*
X66630920Y60576760D02*
X66549229Y60652599D01*
X66462668Y60721764D01*
X66371652Y60784086D01*
X66276595Y60839391D01*
X66177913Y60887508D01*
X66076020Y60928265D01*
X65971331Y60961490D01*
X65864262Y60987012D01*
X65755226Y61004658D01*
X65644640Y61014257D01*
X65570260Y61016100D01*
D10*
X9820000Y42456210D02*
X9820000Y43266210D01*
X61855750Y-14014300D02*
X62707650Y-14236600D01*
D11*
X10160000Y33076160D02*
X10058207Y33091289D01*
X9965819Y33134965D01*
X9912513Y33178673D01*
D10*
X63553650Y-14467600D02*
X64393650Y-14707500D01*
X133463434Y-18396350D02*
X133173334Y-18202450D01*
X10634000Y46666100D02*
X10634000Y45916100D01*
X25373670Y-10154400D02*
X27346620Y-10201400D01*
X131837784Y-17154750D02*
X131593134Y-16929950D01*
D11*
X10849741Y-9878043D02*
X10934936Y-9950562D01*
X11029075Y-10009127D01*
X11130456Y-10053049D01*
X11237376Y-10081639D01*
X11348132Y-10094209D01*
X11385610Y-10094720D01*
D10*
X45658150Y-11286300D02*
X46594050Y-11384300D01*
D11*
X123883144Y-36114000D02*
X124006164Y-36176980D01*
X124132476Y-36226287D01*
X124261152Y-36262168D01*
X124391265Y-36284872D01*
X124521887Y-36294648D01*
X124652093Y-36291742D01*
X124780955Y-36276405D01*
X124907546Y-36248883D01*
X125030938Y-36209426D01*
X125150207Y-36158283D01*
X125264423Y-36095700D01*
X125372661Y-36021927D01*
X125473993Y-35937212D01*
X125567492Y-35841804D01*
X125652231Y-35735950D01*
X125727285Y-35619900D01*
D10*
X91744630Y-20766200D02*
X92590030Y-20993600D01*
X10170050Y465010D02*
X10225050Y465010D01*
X93434030Y-21228400D02*
X94276230Y-21470800D01*
X44718850Y-11193300D02*
X45658150Y-11286300D01*
X13401780Y-10076720D02*
X15412150Y-10067070D01*
D11*
X67070260Y59516100D02*
X67066121Y59627490D01*
X67053821Y59737605D01*
X67033530Y59846031D01*
X67005422Y59952353D01*
X66969667Y60056156D01*
X66926437Y60157025D01*
X66875905Y60254545D01*
X66818242Y60348301D01*
X66753620Y60437879D01*
X66682211Y60522862D01*
X66630920Y60576760D01*
X9600330Y43796540D02*
X9516204Y43869042D01*
X9423167Y43927855D01*
X9322880Y43972293D01*
X9217000Y44001666D01*
X9107190Y44015289D01*
X9070000Y44016210D01*
D10*
X130902194Y-16226150D02*
X130685784Y-15982150D01*
D11*
X47450260Y61016100D02*
X47338870Y61011962D01*
X47228755Y60999662D01*
X47120329Y60979371D01*
X47014007Y60951263D01*
X46910204Y60915508D01*
X46809335Y60872278D01*
X46711815Y60821746D01*
X46618059Y60764083D01*
X46528481Y60699461D01*
X46443498Y60628052D01*
X46389600Y60576760D01*
D10*
X89203330Y-20126400D02*
X90050930Y-20332800D01*
X85070260Y54416100D02*
X85070260Y54364100D01*
X11385610Y-10094720D02*
X13401780Y-10076720D01*
X10170050Y15642568D02*
X10224050Y15642568D01*
X122158553Y-35121400D02*
X123701274Y-36009000D01*
D11*
X10630380Y8685000D02*
X10615274Y8786815D01*
X10571610Y8879229D01*
X10527903Y8932552D01*
D10*
X127558264Y-10285050D02*
X127344884Y-9647750D01*
X106453160Y-26113400D02*
X107223320Y-26492200D01*
X123870254Y51486890D02*
X103370260Y51486890D01*
M02*
