%TF.GenerationSoftware,KiCad,Pcbnew,7.0.6*%
%TF.CreationDate,2023-09-23T12:41:15+07:00*%
%TF.ProjectId,rose,726f7365-2e6b-4696-9361-645f70636258,rev?*%
%TF.SameCoordinates,Original*%
%TF.FileFunction,Paste,Top*%
%TF.FilePolarity,Positive*%
%FSLAX46Y46*%
G04 Gerber Fmt 4.6, Leading zero omitted, Abs format (unit mm)*
G04 Created by KiCad (PCBNEW 7.0.6) date 2023-09-23 12:41:15*
%MOMM*%
%LPD*%
G01*
G04 APERTURE LIST*
G04 Aperture macros list*
%AMRotRect*
0 Rectangle, with rotation*
0 The origin of the aperture is its center*
0 $1 length*
0 $2 width*
0 $3 Rotation angle, in degrees counterclockwise*
0 Add horizontal line*
21,1,$1,$2,0,0,$3*%
G04 Aperture macros list end*
%ADD10R,2.600000X2.600000*%
%ADD11RotRect,2.600000X2.600000X160.000000*%
%ADD12RotRect,2.600000X2.600000X150.000000*%
%ADD13RotRect,2.600000X2.600000X170.000000*%
G04 APERTURE END LIST*
D10*
%TO.C,S17*%
X-43152036Y40502848D03*
X-54702036Y38302848D03*
%TD*%
%TO.C,S4*%
X-61152036Y79703248D03*
X-72702036Y77503248D03*
%TD*%
%TO.C,S8*%
X-97152036Y49103248D03*
X-108702036Y46903248D03*
%TD*%
%TO.C,S6*%
X-25152036Y72053248D03*
X-36702036Y69853248D03*
%TD*%
D11*
%TO.C,S20*%
X-23606569Y4196668D03*
X-12000674Y2313659D03*
%TD*%
D10*
%TO.C,S12*%
X-25152036Y55053248D03*
X-36702036Y52853248D03*
%TD*%
%TO.C,S14*%
X-97152036Y32002848D03*
X-108702036Y29802848D03*
%TD*%
%TO.C,S10*%
X-61152036Y62703248D03*
X-72702036Y60503248D03*
%TD*%
%TO.C,S13*%
X-117652036Y28602848D03*
X-129202036Y26402848D03*
%TD*%
%TO.C,S16*%
X-61152036Y45602848D03*
X-72702036Y43402848D03*
%TD*%
%TO.C,S7*%
X-117652036Y45703248D03*
X-129202036Y43503248D03*
%TD*%
D12*
%TO.C,S21*%
X-5818269Y-3517103D03*
X5284324Y-7386847D03*
%TD*%
D10*
%TO.C,S11*%
X-43152036Y57603248D03*
X-54702036Y55403248D03*
%TD*%
%TO.C,S18*%
X-25152036Y37952848D03*
X-36702036Y35752848D03*
%TD*%
%TO.C,S3*%
X-79152036Y77153248D03*
X-90702036Y74953248D03*
%TD*%
D13*
%TO.C,S19*%
X-42571313Y8756829D03*
X-30814757Y8917770D03*
%TD*%
D10*
%TO.C,S9*%
X-79152036Y60153248D03*
X-90702036Y57953248D03*
%TD*%
%TO.C,S5*%
X-43152036Y74603248D03*
X-54702036Y72403248D03*
%TD*%
%TO.C,S15*%
X-79152036Y43052848D03*
X-90702036Y40852848D03*
%TD*%
%TO.C,S2*%
X-97152036Y66103248D03*
X-108702036Y63903248D03*
%TD*%
%TO.C,S1*%
X-117652036Y62703248D03*
X-129202036Y60503248D03*
%TD*%
M02*
