M48
; DRILL file {KiCad 7.0.6} date Sat Sep 23 12:41:15 2023
; FORMAT={-:-/ absolute / inch / decimal}
; #@! TF.CreationDate,2023-09-23T12:41:15+07:00
; #@! TF.GenerationSoftware,Kicad,Pcbnew,7.0.6
; #@! TF.FileFunction,NonPlated,1,2,NPTH
FMAT,2
INCH
; #@! TA.AperFunction,NonPlated,NPTH,ComponentDrill
T1C0.0155
; #@! TA.AperFunction,NonPlated,NPTH,ComponentDrill
T2C0.0472
; #@! TA.AperFunction,NonPlated,NPTH,ComponentDrill
T3C0.0670
; #@! TA.AperFunction,NonPlated,NPTH,ComponentDrill
T4C0.1181
; #@! TA.AperFunction,NonPlated,NPTH,ComponentDrill
T5C0.1350
%
G90
G05
T1
X-4.3593Y2.1414
X-4.3593Y2.1066
X-4.3593Y0.7799
X-4.3593Y0.7413
X-4.3589Y2.0531
X-4.3589Y1.2862
X-4.3589Y0.6873
X-4.3585Y2.1779
X-4.3585Y0.8182
X-4.3582Y1.3259
X-4.3582Y0.894
X-4.3582Y0.856
X-4.3578Y2.0184
X-4.3574Y1.9814
X-4.3566Y1.4933
X-4.3566Y1.4566
X-4.3566Y1.381
X-4.3562Y1.4192
T2
X-0.1746Y1.2707
X-0.1746Y1.1801
X0.101Y1.2707
X0.101Y1.1801
T3
X-4.9774Y2.2344
X-4.9774Y1.5651
X-4.9774Y0.8918
X-4.5444Y2.2344
X-4.5444Y1.5651
X-4.5444Y0.8918
X-4.1704Y2.3682
X-4.1704Y1.6989
X-4.1704Y1.0257
X-3.7373Y2.3682
X-3.7373Y1.6989
X-3.7373Y1.0257
X-3.4617Y2.8033
X-3.4617Y2.134
X-3.4617Y1.4607
X-3.0286Y2.8033
X-3.0286Y2.134
X-3.0286Y1.4607
X-2.753Y2.9037
X-2.753Y2.2344
X-2.753Y1.5611
X-2.32Y2.9037
X-2.32Y2.2344
X-2.32Y1.5611
X-2.0444Y2.7029
X-2.0444Y2.0336
X-2.0444Y1.3603
X-1.7216Y0.5907
X-1.6113Y2.7029
X-1.6113Y2.0336
X-1.6113Y1.3603
X-1.3357Y2.6025
X-1.3357Y1.9332
X-1.3357Y1.26
X-1.2951Y0.5155
X-0.9316Y0.4153
X-0.9026Y2.6025
X-0.9026Y1.9332
X-0.9026Y1.26
X-0.5246Y0.2672
X-0.1878Y0.1082
X0.1872Y-0.1083
T4
X-4.9578Y2.382
X-4.9578Y1.7127
X-4.9578Y1.0395
X-4.7609Y2.4686
X-4.7609Y1.7993
X-4.7609Y1.1261
X-4.5641Y2.382
X-4.5641Y1.7127
X-4.5641Y1.0395
X-4.1507Y2.5159
X-4.1507Y1.8466
X-4.1507Y1.1733
X-3.9538Y2.6025
X-3.9538Y1.9332
X-3.9538Y1.26
X-3.757Y2.5159
X-3.757Y1.8466
X-3.757Y1.1733
X-3.442Y2.9509
X-3.442Y2.2816
X-3.442Y1.6084
X-3.2452Y3.0375
X-3.2452Y2.3682
X-3.2452Y1.695
X-3.0483Y2.9509
X-3.0483Y2.2816
X-3.0483Y1.6084
X-2.7333Y3.0513
X-2.7333Y2.382
X-2.7333Y1.7088
X-2.5365Y3.1379
X-2.5365Y2.4686
X-2.5365Y1.7954
X-2.3396Y3.0513
X-2.3396Y2.382
X-2.3396Y1.7088
X-2.0247Y2.8505
X-2.0247Y2.1812
X-2.0247Y1.508
X-1.8278Y2.9371
X-1.8278Y2.2678
X-1.8278Y1.5946
X-1.7279Y0.4418
X-1.631Y2.8505
X-1.631Y2.1812
X-1.631Y1.508
X-1.5491Y0.3224
X-1.3402Y0.3735
X-1.316Y2.7501
X-1.316Y2.0808
X-1.316Y1.4076
X-1.1192Y2.8367
X-1.1192Y2.1675
X-1.1192Y1.4942
X-0.9636Y0.2698
X-0.9223Y2.7501
X-0.9223Y2.0808
X-0.9223Y1.4076
X-0.8082Y0.1211
X-0.5936Y0.1352
X-0.2446Y-0.0295
X-0.1174Y-0.2029
X0.0964Y-0.2264
T5
X-4.7609Y2.2344
X-4.7609Y1.5651
X-4.7609Y0.8918
X-3.9538Y2.3682
X-3.9538Y1.6989
X-3.9538Y1.0257
X-3.2452Y2.8033
X-3.2452Y2.134
X-3.2452Y1.4607
X-2.5365Y2.9037
X-2.5365Y2.2344
X-2.5365Y1.5611
X-1.8278Y2.7029
X-1.8278Y2.0336
X-1.8278Y1.3603
X-1.5084Y0.5531
X-1.1192Y2.6025
X-1.1192Y1.9332
X-1.1192Y1.26
X-0.7281Y0.3412
X-0.0003Y-0.0001
T0
M30
