%TF.GenerationSoftware,KiCad,Pcbnew,7.0.6*%
%TF.CreationDate,2023-09-19T12:27:45+07:00*%
%TF.ProjectId,dream,64726561-6d2e-46b6-9963-61645f706362,rev?*%
%TF.SameCoordinates,Original*%
%TF.FileFunction,Copper,L1,Top*%
%TF.FilePolarity,Positive*%
%FSLAX46Y46*%
G04 Gerber Fmt 4.6, Leading zero omitted, Abs format (unit mm)*
G04 Created by KiCad (PCBNEW 7.0.6) date 2023-09-19 12:27:45*
%MOMM*%
%LPD*%
G01*
G04 APERTURE LIST*
G04 Aperture macros list*
%AMRotRect*
0 Rectangle, with rotation*
0 The origin of the aperture is its center*
0 $1 length*
0 $2 width*
0 $3 Rotation angle, in degrees counterclockwise*
0 Add horizontal line*
21,1,$1,$2,0,0,$3*%
G04 Aperture macros list end*
%TA.AperFunction,ComponentPad*%
%ADD10C,0.500000*%
%TD*%
%TA.AperFunction,ComponentPad*%
%ADD11C,4.000000*%
%TD*%
%TA.AperFunction,ComponentPad*%
%ADD12C,2.032000*%
%TD*%
%TA.AperFunction,SMDPad,CuDef*%
%ADD13R,2.600000X2.600000*%
%TD*%
%TA.AperFunction,ComponentPad*%
%ADD14O,2.200000X1.600000*%
%TD*%
%TA.AperFunction,ComponentPad*%
%ADD15C,2.000000*%
%TD*%
%TA.AperFunction,SMDPad,CuDef*%
%ADD16RotRect,2.600000X2.600000X340.000000*%
%TD*%
%TA.AperFunction,SMDPad,CuDef*%
%ADD17RotRect,2.600000X2.600000X330.000000*%
%TD*%
%TA.AperFunction,SMDPad,CuDef*%
%ADD18RotRect,2.600000X2.600000X350.000000*%
%TD*%
%TA.AperFunction,ComponentPad*%
%ADD19C,1.524000*%
%TD*%
%TA.AperFunction,SMDPad,CuDef*%
%ADD20R,0.950000X1.300000*%
%TD*%
%TA.AperFunction,SMDPad,CuDef*%
%ADD21RotRect,1.300000X0.950000X60.000000*%
%TD*%
%TA.AperFunction,SMDPad,CuDef*%
%ADD22RotRect,1.300000X0.950000X80.000000*%
%TD*%
%TA.AperFunction,SMDPad,CuDef*%
%ADD23RotRect,1.300000X0.950000X70.000000*%
%TD*%
%TA.AperFunction,ViaPad*%
%ADD24C,0.300000*%
%TD*%
%TA.AperFunction,ViaPad*%
%ADD25C,0.800000*%
%TD*%
%TA.AperFunction,Conductor*%
%ADD26C,0.250000*%
%TD*%
G04 APERTURE END LIST*
D10*
%TO.P,H20,1*%
%TO.N,N/C*%
X81620000Y37435000D03*
X82060000Y38495000D03*
X82060000Y36375000D03*
X83120000Y38935000D03*
D11*
X83120000Y37435000D03*
D10*
X83120000Y35935000D03*
X84180000Y38495000D03*
X84180000Y36375000D03*
X84620000Y37435000D03*
%TD*%
D12*
%TO.P,S17,1,1*%
%TO.N,c5*%
X74500000Y6000000D03*
D13*
X77775000Y17850000D03*
%TO.P,S17,2,2*%
%TO.N,Net-(D17-A)*%
X66225000Y15650000D03*
D12*
X69500000Y8100000D03*
X79500000Y8100000D03*
%TD*%
D10*
%TO.P,H21,1*%
%TO.N,N/C*%
X27900000Y28935000D03*
X28340000Y29995000D03*
X28340000Y27875000D03*
X29400000Y30435000D03*
D11*
X29400000Y28935000D03*
D10*
X29400000Y27435000D03*
X30460000Y29995000D03*
X30460000Y27875000D03*
X30900000Y28935000D03*
%TD*%
D14*
%TO.P,U2,1,SLEEVE*%
%TO.N,unconnected-(U2-SLEEVE-Pad1)*%
X113792500Y9522500D03*
X113792500Y7222500D03*
%TO.P,U2,2,TIP*%
%TO.N,VCC*%
X114892500Y11822500D03*
X114892500Y4922500D03*
%TO.P,U2,3,RING1*%
%TO.N,GND*%
X118892500Y11822500D03*
X118892500Y4922500D03*
%TO.P,U2,4,RING2*%
%TO.N,data*%
X121892500Y11822500D03*
X121892500Y4922500D03*
%TD*%
D15*
%TO.P,SW1,1,1*%
%TO.N,RST*%
X123820000Y1785000D03*
%TO.P,SW1,2,2*%
%TO.N,GND*%
X117320000Y1785000D03*
%TD*%
D12*
%TO.P,S4,1,1*%
%TO.N,c4*%
X56500000Y45100000D03*
D13*
X59775000Y56950000D03*
%TO.P,S4,2,2*%
%TO.N,Net-(D4-A)*%
X48225000Y54750000D03*
D12*
X51500000Y47200000D03*
X61500000Y47200000D03*
%TD*%
%TO.P,S8,1,1*%
%TO.N,c2*%
X20500000Y14500000D03*
D13*
X23775000Y26350000D03*
%TO.P,S8,2,2*%
%TO.N,Net-(D8-A)*%
X12225000Y24150000D03*
D12*
X15500000Y16600000D03*
X25500000Y16600000D03*
%TD*%
%TO.P,S6,1,1*%
%TO.N,c6*%
X92500000Y37450000D03*
D13*
X95775000Y49300000D03*
%TO.P,S6,2,2*%
%TO.N,Net-(D6-A)*%
X84225000Y47100000D03*
D12*
X87500000Y39550000D03*
X97500000Y39550000D03*
%TD*%
%TO.P,S20,1,1*%
%TO.N,c5*%
X100632081Y-19689187D03*
D16*
X107762514Y-9673945D03*
%TO.P,S20,2,2*%
%TO.N,Net-(D20-A)*%
X96156619Y-7790936D03*
D12*
X96651861Y-16005732D03*
X106048787Y-19425933D03*
%TD*%
%TO.P,S12,1,1*%
%TO.N,c6*%
X92500000Y20450000D03*
D13*
X95775000Y32300000D03*
%TO.P,S12,2,2*%
%TO.N,Net-(D12-A)*%
X84225000Y30100000D03*
D12*
X87500000Y22550000D03*
X97500000Y22550000D03*
%TD*%
%TO.P,S14,1,1*%
%TO.N,c2*%
X20500000Y-2500000D03*
D13*
X23775000Y9350000D03*
%TO.P,S14,2,2*%
%TO.N,Net-(D14-A)*%
X12225000Y7150000D03*
D12*
X15500000Y-400000D03*
X25500000Y-400000D03*
%TD*%
%TO.P,S10,1,1*%
%TO.N,c4*%
X56500000Y28100000D03*
D13*
X59775000Y39950000D03*
%TO.P,S10,2,2*%
%TO.N,Net-(D10-A)*%
X48225000Y37750000D03*
D12*
X51500000Y30200000D03*
X61500000Y30200000D03*
%TD*%
%TO.P,S13,1,1*%
%TO.N,c1*%
X0Y-5900000D03*
D13*
X3275000Y5950000D03*
%TO.P,S13,2,2*%
%TO.N,Net-(D13-A)*%
X-8275000Y3750000D03*
D12*
X-5000000Y-3800000D03*
X5000000Y-3800000D03*
%TD*%
%TO.P,S16,1,1*%
%TO.N,c4*%
X56500000Y11100000D03*
D13*
X59775000Y22950000D03*
%TO.P,S16,2,2*%
%TO.N,Net-(D16-A)*%
X48225000Y20750000D03*
D12*
X51500000Y13200000D03*
X61500000Y13200000D03*
%TD*%
%TO.P,S7,1,1*%
%TO.N,c1*%
X0Y11100000D03*
D13*
X3275000Y22950000D03*
%TO.P,S7,2,2*%
%TO.N,Net-(D7-A)*%
X-8275000Y20750000D03*
D12*
X-5000000Y13200000D03*
X5000000Y13200000D03*
%TD*%
%TO.P,S21,1,1*%
%TO.N,c6*%
X117977036Y-27862798D03*
D17*
X126738269Y-19237897D03*
%TO.P,S21,2,2*%
%TO.N,Net-(D21-A)*%
X115635676Y-15368153D03*
D12*
X114696909Y-23544144D03*
X123357163Y-28544144D03*
%TD*%
%TO.P,S11,1,1*%
%TO.N,c5*%
X74500000Y23000000D03*
D13*
X77775000Y34850000D03*
%TO.P,S11,2,2*%
%TO.N,Net-(D11-A)*%
X66225000Y32650000D03*
D12*
X69500000Y25100000D03*
X79500000Y25100000D03*
%TD*%
%TO.P,S18,1,1*%
%TO.N,c6*%
X92500000Y3450000D03*
D13*
X95775000Y15300000D03*
%TO.P,S18,2,2*%
%TO.N,Net-(D18-A)*%
X84225000Y13100000D03*
D12*
X87500000Y5550000D03*
X97500000Y5550000D03*
%TD*%
%TO.P,S3,1,1*%
%TO.N,c3*%
X38500000Y42550000D03*
D13*
X41775000Y54400000D03*
%TO.P,S3,2,2*%
%TO.N,Net-(D3-A)*%
X30225000Y52200000D03*
D12*
X33500000Y44650000D03*
X43500000Y44650000D03*
%TD*%
%TO.P,S19,1,1*%
%TO.N,c4*%
X81997518Y-14653907D03*
D18*
X87280495Y-3552633D03*
%TO.P,S19,2,2*%
%TO.N,Net-(D19-A)*%
X75523939Y-3713574D03*
D12*
X77438141Y-11717570D03*
X87286218Y-13454052D03*
%TD*%
D10*
%TO.P,H22,1*%
%TO.N,N/C*%
X81790000Y20455000D03*
X82230000Y21515000D03*
X82230000Y19395000D03*
X83290000Y21955000D03*
D11*
X83290000Y20455000D03*
D10*
X83290000Y18955000D03*
X84350000Y21515000D03*
X84350000Y19395000D03*
X84790000Y20455000D03*
%TD*%
D12*
%TO.P,S9,1,1*%
%TO.N,c3*%
X38500000Y25550000D03*
D13*
X41775000Y37400000D03*
%TO.P,S9,2,2*%
%TO.N,Net-(D9-A)*%
X30225000Y35200000D03*
D12*
X33500000Y27650000D03*
X43500000Y27650000D03*
%TD*%
%TO.P,S5,1,1*%
%TO.N,c5*%
X74500000Y40000000D03*
D13*
X77775000Y51850000D03*
%TO.P,S5,2,2*%
%TO.N,Net-(D5-A)*%
X66225000Y49650000D03*
D12*
X69500000Y42100000D03*
X79500000Y42100000D03*
%TD*%
%TO.P,S15,1,1*%
%TO.N,c3*%
X38500000Y8550000D03*
D13*
X41775000Y20400000D03*
%TO.P,S15,2,2*%
%TO.N,Net-(D15-A)*%
X30225000Y18200000D03*
D12*
X33500000Y10650000D03*
X43500000Y10650000D03*
%TD*%
D10*
%TO.P,H19,1*%
%TO.N,N/C*%
X27660000Y11935000D03*
X28100000Y12995000D03*
X28100000Y10875000D03*
X29160000Y13435000D03*
D11*
X29160000Y11935000D03*
D10*
X29160000Y10435000D03*
X30220000Y12995000D03*
X30220000Y10875000D03*
X30660000Y11935000D03*
%TD*%
D12*
%TO.P,S2,1,1*%
%TO.N,c2*%
X20500000Y31500000D03*
D13*
X23775000Y43350000D03*
%TO.P,S2,2,2*%
%TO.N,Net-(D2-A)*%
X12225000Y41150000D03*
D12*
X15500000Y33600000D03*
X25500000Y33600000D03*
%TD*%
D19*
%TO.P,U1,1,TX0/PD3*%
%TO.N,unconnected-(U1-TX0{slash}PD3-Pad1)*%
X105950000Y44075000D03*
X122488815Y42879255D03*
%TO.P,U1,2,RX1/PD2*%
%TO.N,data*%
X105950000Y41535000D03*
X122488815Y40339255D03*
%TO.P,U1,3,GND*%
%TO.N,GND*%
X105950000Y38995000D03*
X122488815Y37799255D03*
%TO.P,U1,4,GND*%
X105950000Y36455000D03*
X122488815Y35259255D03*
%TO.P,U1,5,2/PD1*%
%TO.N,c1*%
X105950000Y33915000D03*
X122488815Y32719255D03*
%TO.P,U1,6,3/PD0*%
%TO.N,c2*%
X105950000Y31375000D03*
X122488815Y30179255D03*
%TO.P,U1,7,4/PD4*%
%TO.N,c3*%
X105950000Y28835000D03*
X122488815Y27639255D03*
%TO.P,U1,8,5/PC6*%
%TO.N,c4*%
X105950000Y26295000D03*
X122488815Y25099255D03*
%TO.P,U1,9,6/PD7*%
%TO.N,c5*%
X105950000Y23755000D03*
X122488815Y22559255D03*
%TO.P,U1,10,7/PE6*%
%TO.N,c6*%
X105950000Y21215000D03*
X122488815Y20019255D03*
%TO.P,U1,11,8/PB4*%
%TO.N,unconnected-(U1-8{slash}PB4-Pad11)*%
X105950000Y18675000D03*
X122488815Y17479255D03*
%TO.P,U1,12,9/PB5*%
%TO.N,unconnected-(U1-9{slash}PB5-Pad12)*%
X105950000Y16135000D03*
X122488815Y14939255D03*
%TO.P,U1,13,10/PB6*%
%TO.N,unconnected-(U1-10{slash}PB6-Pad13)*%
X107248815Y14939255D03*
X121190000Y16135000D03*
%TO.P,U1,14,16/PB2*%
%TO.N,unconnected-(U1-16{slash}PB2-Pad14)*%
X107248815Y17479255D03*
X121190000Y18675000D03*
%TO.P,U1,15,14/PB3*%
%TO.N,unconnected-(U1-14{slash}PB3-Pad15)*%
X107248815Y20019255D03*
X121190000Y21215000D03*
%TO.P,U1,16,15/PB1*%
%TO.N,unconnected-(U1-15{slash}PB1-Pad16)*%
X107248815Y22559255D03*
X121190000Y23755000D03*
%TO.P,U1,17,A0/PF7*%
%TO.N,r4*%
X107248815Y25099255D03*
X121190000Y26295000D03*
%TO.P,U1,18,A1/PF6*%
%TO.N,r3*%
X107248815Y27639255D03*
X121190000Y28835000D03*
%TO.P,U1,19,A2/PF5*%
%TO.N,r2*%
X107248815Y30179255D03*
X121190000Y31375000D03*
%TO.P,U1,20,A3/PF4*%
%TO.N,r1*%
X107248815Y32719255D03*
X121190000Y33915000D03*
%TO.P,U1,21,VCC*%
%TO.N,VCC*%
X107248815Y35259255D03*
X121190000Y36455000D03*
%TO.P,U1,22,RST*%
%TO.N,RST*%
X107248815Y37799255D03*
X121190000Y38995000D03*
%TO.P,U1,23,GND*%
%TO.N,GND*%
X107248815Y40339255D03*
X121190000Y41535000D03*
%TO.P,U1,24,RAW*%
%TO.N,unconnected-(U1-RAW-Pad24)*%
X107248815Y42879255D03*
X121190000Y44075000D03*
%TD*%
D12*
%TO.P,S1,1,1*%
%TO.N,c1*%
X0Y28100000D03*
D13*
X3275000Y39950000D03*
%TO.P,S1,2,2*%
%TO.N,Net-(D1-A)*%
X-8275000Y37750000D03*
D12*
X-5000000Y30200000D03*
X5000000Y30200000D03*
%TD*%
D20*
%TO.P,D8,1,K*%
%TO.N,r2*%
X23130000Y14965000D03*
%TO.P,D8,2,A*%
%TO.N,Net-(D8-A)*%
X23130000Y18515000D03*
%TD*%
%TO.P,D6,1,K*%
%TO.N,r1*%
X95130000Y37915000D03*
%TO.P,D6,2,A*%
%TO.N,Net-(D6-A)*%
X95130000Y41465000D03*
%TD*%
%TO.P,D15,1,K*%
%TO.N,r3*%
X41130000Y9015000D03*
%TO.P,D15,2,A*%
%TO.N,Net-(D15-A)*%
X41130000Y12565000D03*
%TD*%
D21*
%TO.P,D21,1,K*%
%TO.N,r4*%
X120682500Y-28792195D03*
%TO.P,D21,2,A*%
%TO.N,Net-(D21-A)*%
X122457500Y-25717805D03*
%TD*%
D20*
%TO.P,D5,1,K*%
%TO.N,r1*%
X77130000Y40465000D03*
%TO.P,D5,2,A*%
%TO.N,Net-(D5-A)*%
X77130000Y44015000D03*
%TD*%
D22*
%TO.P,D19,1,K*%
%TO.N,r4*%
X84668309Y-14652667D03*
%TO.P,D19,2,A*%
%TO.N,Net-(D19-A)*%
X85284761Y-11156599D03*
%TD*%
D20*
%TO.P,D17,1,K*%
%TO.N,r3*%
X77130000Y6465000D03*
%TO.P,D17,2,A*%
%TO.N,Net-(D17-A)*%
X77130000Y10015000D03*
%TD*%
%TO.P,D4,1,K*%
%TO.N,r1*%
X59130000Y45565000D03*
%TO.P,D4,2,A*%
%TO.N,Net-(D4-A)*%
X59130000Y49115000D03*
%TD*%
%TO.P,D14,1,K*%
%TO.N,r3*%
X23130000Y-2035000D03*
%TO.P,D14,2,A*%
%TO.N,Net-(D14-A)*%
X23130000Y1515000D03*
%TD*%
%TO.P,D9,1,K*%
%TO.N,r2*%
X41130000Y26015000D03*
%TO.P,D9,2,A*%
%TO.N,Net-(D9-A)*%
X41130000Y29565000D03*
%TD*%
%TO.P,D3,1,K*%
%TO.N,r1*%
X41130000Y43015000D03*
%TO.P,D3,2,A*%
%TO.N,Net-(D3-A)*%
X41130000Y46565000D03*
%TD*%
%TO.P,D13,1,K*%
%TO.N,r3*%
X2630000Y-5435000D03*
%TO.P,D13,2,A*%
%TO.N,Net-(D13-A)*%
X2630000Y-1885000D03*
%TD*%
%TO.P,D10,1,K*%
%TO.N,r2*%
X59130000Y28565000D03*
%TO.P,D10,2,A*%
%TO.N,Net-(D10-A)*%
X59130000Y32115000D03*
%TD*%
%TO.P,D1,1,K*%
%TO.N,r1*%
X2630000Y28565000D03*
%TO.P,D1,2,A*%
%TO.N,Net-(D1-A)*%
X2630000Y32115000D03*
%TD*%
%TO.P,D18,1,K*%
%TO.N,r3*%
X95130000Y3915000D03*
%TO.P,D18,2,A*%
%TO.N,Net-(D18-A)*%
X95130000Y7465000D03*
%TD*%
%TO.P,D11,1,K*%
%TO.N,r2*%
X77130000Y23465000D03*
%TO.P,D11,2,A*%
%TO.N,Net-(D11-A)*%
X77130000Y27015000D03*
%TD*%
%TO.P,D16,1,K*%
%TO.N,r3*%
X59130000Y11565000D03*
%TO.P,D16,2,A*%
%TO.N,Net-(D16-A)*%
X59130000Y15115000D03*
%TD*%
%TO.P,D2,1,K*%
%TO.N,r1*%
X23130000Y31965000D03*
%TO.P,D2,2,A*%
%TO.N,Net-(D2-A)*%
X23130000Y35515000D03*
%TD*%
%TO.P,D7,1,K*%
%TO.N,r2*%
X2630000Y11565000D03*
%TO.P,D7,2,A*%
%TO.N,Net-(D7-A)*%
X2630000Y15115000D03*
%TD*%
D23*
%TO.P,D20,1,K*%
%TO.N,r4*%
X103262513Y-20151742D03*
%TO.P,D20,2,A*%
%TO.N,Net-(D20-A)*%
X104476685Y-16815834D03*
%TD*%
D20*
%TO.P,D12,1,K*%
%TO.N,r2*%
X95130000Y20915000D03*
%TO.P,D12,2,A*%
%TO.N,Net-(D12-A)*%
X95130000Y24465000D03*
%TD*%
D24*
%TO.N,unconnected-(U1-TX0{slash}PD3-Pad1)*%
X108630000Y43485000D03*
%TO.N,unconnected-(U1-9{slash}PB5-Pad12)*%
X115804477Y15910523D03*
X118418000Y14945000D03*
%TO.N,unconnected-(U1-16{slash}PB2-Pad14)*%
X114110000Y18062500D03*
X113384500Y16715000D03*
%TO.N,unconnected-(U1-15{slash}PB1-Pad16)*%
X119370000Y21935000D03*
%TO.N,unconnected-(U1-14{slash}PB3-Pad15)*%
X120010000Y20045000D03*
%TO.N,unconnected-(U1-10{slash}PB6-Pad13)*%
X113980000Y15660500D03*
X114250000Y16655000D03*
X118418000Y15444503D03*
X116200000Y16405000D03*
%TO.N,r4*%
X119520000Y-30585000D03*
X102750000Y-21395000D03*
X86100000Y-15255000D03*
X110050000Y24775000D03*
%TO.N,r3*%
X41150000Y7615000D03*
X23120000Y-3695000D03*
X95180000Y2065000D03*
X113060000Y28425000D03*
X3740000Y-5425000D03*
X59060000Y9935000D03*
X102861897Y45075000D03*
X77150000Y4935000D03*
X102861897Y36693103D03*
X113100000Y34435000D03*
%TO.N,r2*%
X3670000Y11585000D03*
X100150000Y35940500D03*
X59160000Y27005000D03*
X112374652Y34379822D03*
X100140000Y36895000D03*
X23140000Y13265000D03*
X41120000Y24785000D03*
X77160000Y21925000D03*
X112370000Y30475000D03*
X95130000Y19535000D03*
%TO.N,r1*%
X111610000Y33055000D03*
X77150000Y38935000D03*
X23160000Y30605000D03*
X58990000Y44035000D03*
X95110000Y36415000D03*
X3670000Y28595000D03*
X41130000Y41625000D03*
%TO.N,c6*%
X90410500Y46705000D03*
X119397106Y-18732106D03*
X108930000Y13805000D03*
X89375000Y29335000D03*
X89375000Y12005000D03*
X109070000Y21215000D03*
%TO.N,c5*%
X100050907Y-10745907D03*
X71375000Y31595000D03*
X110590000Y22559255D03*
X71504999Y14545000D03*
X71504999Y48925000D03*
X97011977Y-1733023D03*
%TO.N,c4*%
X80830004Y-5805000D03*
X79030000Y575000D03*
X54410500Y37145000D03*
X54410500Y19515000D03*
X53375000Y53845000D03*
X110069477Y11995523D03*
X112090000Y23915000D03*
X112090000Y14016046D03*
%TO.N,c3*%
X36410500Y17075000D03*
X35504999Y50675000D03*
X113059647Y27753601D03*
X62439032Y714032D03*
X112910000Y14105000D03*
X110880500Y11045000D03*
X36410500Y34035000D03*
X113070000Y24215000D03*
X113053721Y25820500D03*
%TO.N,c2*%
X89410000Y1265000D03*
X17375000Y22355000D03*
X94850000Y-2695000D03*
X57880000Y239532D03*
X109410000Y8845000D03*
X17375000Y40055000D03*
X117590000Y24300500D03*
X117640000Y28360500D03*
X111750000Y29704755D03*
X117620000Y29704755D03*
X117610000Y17045000D03*
X117640000Y25820500D03*
D25*
X18410500Y6115000D03*
D24*
%TO.N,c1*%
X107160000Y5395000D03*
X109480000Y30755000D03*
X-3125000Y2615000D03*
X105540000Y9235000D03*
X109610000Y26915000D03*
X109580000Y33915000D03*
X-2830000Y36655000D03*
X109610000Y28285000D03*
X109580000Y29505000D03*
X66029032Y-2875968D03*
X-2089500Y19605000D03*
%TO.N,VCC*%
X114540000Y28205000D03*
X114590000Y23033755D03*
X114540000Y35555000D03*
X114540000Y34389500D03*
X114600000Y25249500D03*
%TO.N,RST*%
X118190000Y40945000D03*
X118200000Y42259500D03*
X118220000Y38995000D03*
%TO.N,Net-(D9-A)*%
X41090000Y28375000D03*
%TO.N,Net-(D8-A)*%
X23110000Y17085000D03*
%TO.N,Net-(D7-A)*%
X2640000Y13615000D03*
%TO.N,Net-(D6-A)*%
X95110000Y40095000D03*
%TO.N,Net-(D5-A)*%
X77140000Y42745000D03*
%TO.N,Net-(D4-A)*%
X59100000Y47805000D03*
%TO.N,Net-(D3-A)*%
X41020000Y45095000D03*
%TO.N,Net-(D21-A)*%
X121730000Y-27215000D03*
%TO.N,Net-(D20-A)*%
X104000000Y-18475000D03*
%TO.N,Net-(D2-A)*%
X23040000Y34125000D03*
%TO.N,Net-(D19-A)*%
X85300000Y-12935000D03*
%TO.N,Net-(D18-A)*%
X95060000Y5935000D03*
%TO.N,Net-(D17-A)*%
X77110000Y8515000D03*
%TO.N,Net-(D16-A)*%
X59100000Y13915000D03*
%TO.N,Net-(D15-A)*%
X41130000Y11265000D03*
%TO.N,Net-(D14-A)*%
X23150000Y325000D03*
%TO.N,Net-(D13-A)*%
X2620000Y-3775000D03*
%TO.N,Net-(D12-A)*%
X95150000Y23225000D03*
%TO.N,Net-(D11-A)*%
X77130000Y25785000D03*
%TO.N,Net-(D10-A)*%
X59120000Y30635000D03*
%TO.N,Net-(D1-A)*%
X2660000Y30925000D03*
%TO.N,GND*%
X116000000Y40339255D03*
X117750000Y34527500D03*
X118870000Y24300500D03*
X118870000Y25820500D03*
X118840000Y28360500D03*
%TO.N,data*%
X113574500Y41792255D03*
%TD*%
D26*
%TO.N,unconnected-(U1-TX0{slash}PD3-Pad1)*%
X108630000Y43485000D02*
X108040000Y44075000D01*
X108040000Y44075000D02*
X105950000Y44075000D01*
%TO.N,unconnected-(U1-9{slash}PB5-Pad12)*%
X116770000Y14945000D02*
X118418000Y14945000D01*
X115804477Y15910523D02*
X116770000Y14945000D01*
%TO.N,unconnected-(U1-16{slash}PB2-Pad14)*%
X114110000Y18062500D02*
X114110000Y17440500D01*
X114110000Y17440500D02*
X113384500Y16715000D01*
%TO.N,unconnected-(U1-15{slash}PB1-Pad16)*%
X119370000Y21935000D02*
X121190000Y23755000D01*
%TO.N,unconnected-(U1-14{slash}PB3-Pad15)*%
X120020000Y20045000D02*
X121190000Y21215000D01*
X120010000Y20045000D02*
X120020000Y20045000D01*
%TO.N,unconnected-(U1-10{slash}PB6-Pad13)*%
X116200000Y16405000D02*
X117160497Y15444503D01*
X117160497Y15444503D02*
X118418000Y15444503D01*
X113980000Y15660500D02*
X113980000Y16385000D01*
X113980000Y16385000D02*
X114250000Y16655000D01*
%TO.N,r4*%
X97880000Y-21235000D02*
X102590000Y-21235000D01*
X102750000Y-21395000D02*
X105230000Y-23875000D01*
X120682500Y-29422500D02*
X119520000Y-30585000D01*
X120682500Y-28792195D02*
X120682500Y-29422500D01*
X130630000Y-23167768D02*
X123212768Y-30585000D01*
X110490000Y-23875000D02*
X117200000Y-30585000D01*
X110050000Y24740000D02*
X110890000Y23900000D01*
X128640000Y-13451294D02*
X128640000Y-18428342D01*
X84668309Y-14652667D02*
X85497667Y-14652667D01*
X110890000Y23900000D02*
X110890000Y22935000D01*
X111355000Y3833706D02*
X128640000Y-13451294D01*
X111355000Y22470000D02*
X111355000Y3833706D01*
X128640000Y-18428342D02*
X130630000Y-20418342D01*
X103262513Y-20151742D02*
X103262513Y-20882487D01*
X105230000Y-23875000D02*
X110490000Y-23875000D01*
X102590000Y-21235000D02*
X102750000Y-21395000D01*
X91900000Y-15255000D02*
X97880000Y-21235000D01*
X117200000Y-30585000D02*
X119520000Y-30585000D01*
X86100000Y-15255000D02*
X91900000Y-15255000D01*
X123212768Y-30585000D02*
X119520000Y-30585000D01*
X110890000Y22935000D02*
X111355000Y22470000D01*
X130630000Y-20418342D02*
X130630000Y-23167768D01*
X110050000Y24775000D02*
X119670000Y24775000D01*
X85497667Y-14652667D02*
X86100000Y-15255000D01*
X103262513Y-20882487D02*
X102750000Y-21395000D01*
X110050000Y24775000D02*
X110050000Y24740000D01*
X119670000Y24775000D02*
X121190000Y26295000D01*
%TO.N,r3*%
X95130000Y2115000D02*
X95961461Y2115000D01*
X76874000Y4659000D02*
X77150000Y4935000D01*
X3740000Y-5425000D02*
X3800000Y-5485000D01*
X3730000Y-5435000D02*
X3740000Y-5425000D01*
X107248815Y27639255D02*
X112274255Y27639255D01*
X95961461Y2115000D02*
X102861897Y9015436D01*
X59130000Y10005000D02*
X59060000Y9935000D01*
X77130000Y4955000D02*
X77150000Y4935000D01*
X113100000Y45541396D02*
X113100000Y34435000D01*
X23130000Y-3685000D02*
X23120000Y-3695000D01*
X112274255Y27639255D02*
X113060000Y28425000D01*
X56740000Y7615000D02*
X59060000Y9935000D01*
X23120000Y-3695000D02*
X29840000Y-3695000D01*
X41150000Y7615000D02*
X41150000Y8995000D01*
X102861897Y45276897D02*
X105050000Y47465000D01*
X95130000Y3915000D02*
X95130000Y2115000D01*
X41150000Y7615000D02*
X56740000Y7615000D01*
X23130000Y-2035000D02*
X23130000Y-3685000D01*
X80020000Y2065000D02*
X95180000Y2065000D01*
X29840000Y-3695000D02*
X41150000Y7615000D01*
X77150000Y4935000D02*
X80020000Y2065000D01*
X64336000Y4659000D02*
X76874000Y4659000D01*
X105050000Y47465000D02*
X111176396Y47465000D01*
X3800000Y-5485000D02*
X5340000Y-5485000D01*
X5340000Y-5485000D02*
X8150000Y-2675000D01*
X2630000Y-5435000D02*
X3730000Y-5435000D01*
X8150000Y-2675000D02*
X17870000Y-2675000D01*
X102861897Y45075000D02*
X102861897Y45276897D01*
X17870000Y-2675000D02*
X19460000Y-4265000D01*
X22550000Y-4265000D02*
X23120000Y-3695000D01*
X59130000Y11565000D02*
X59130000Y10005000D01*
X102861897Y9015436D02*
X102861897Y36693103D01*
X19460000Y-4265000D02*
X22550000Y-4265000D01*
X111176396Y47465000D02*
X113100000Y45541396D01*
X95130000Y2115000D02*
X95180000Y2065000D01*
X41150000Y8995000D02*
X41130000Y9015000D01*
X59060000Y9935000D02*
X64336000Y4659000D01*
X121190000Y28835000D02*
X113470000Y28835000D01*
X113470000Y28835000D02*
X113060000Y28425000D01*
X77130000Y6465000D02*
X77130000Y4955000D01*
%TO.N,r2*%
X56980000Y24825000D02*
X59160000Y27005000D01*
X95130000Y20915000D02*
X95130000Y19535000D01*
X76894000Y21659000D02*
X77160000Y21925000D01*
X23130000Y13275000D02*
X23140000Y13265000D01*
X100150000Y23303539D02*
X100150000Y35940500D01*
X3670000Y11585000D02*
X3700000Y11615000D01*
X64506000Y21659000D02*
X76894000Y21659000D01*
X41130000Y26015000D02*
X41130000Y24795000D01*
X41130000Y24795000D02*
X41120000Y24785000D01*
X92980000Y17385000D02*
X95130000Y19535000D01*
X28600000Y17803539D02*
X28600000Y19655000D01*
X3700000Y11615000D02*
X21490000Y11615000D01*
X113270000Y31375000D02*
X121190000Y31375000D01*
X40544000Y24209000D02*
X41120000Y24785000D01*
X105400000Y46905000D02*
X111100000Y46905000D01*
X33154000Y24209000D02*
X40544000Y24209000D01*
X77130000Y23465000D02*
X77130000Y21955000D01*
X41120000Y24785000D02*
X41160000Y24825000D01*
X112374652Y45630348D02*
X112374652Y34379822D01*
X3650000Y11565000D02*
X3670000Y11585000D01*
X100140000Y36895000D02*
X100140000Y41645000D01*
X59130000Y27035000D02*
X59160000Y27005000D01*
X59130000Y28565000D02*
X59130000Y27035000D01*
X23140000Y13265000D02*
X24061461Y13265000D01*
X112370000Y30475000D02*
X112074255Y30179255D01*
X77130000Y21955000D02*
X77160000Y21925000D01*
X24061461Y13265000D02*
X28600000Y17803539D01*
X100140000Y41645000D02*
X105400000Y46905000D01*
X81700000Y17385000D02*
X92980000Y17385000D01*
X59160000Y27005000D02*
X64506000Y21659000D01*
X95130000Y19535000D02*
X96381461Y19535000D01*
X28600000Y19655000D02*
X33154000Y24209000D01*
X2630000Y11565000D02*
X3650000Y11565000D01*
X23130000Y14965000D02*
X23130000Y13275000D01*
X96381461Y19535000D02*
X100150000Y23303539D01*
X21490000Y11615000D02*
X23140000Y13265000D01*
X41160000Y24825000D02*
X56980000Y24825000D01*
X111100000Y46905000D02*
X112374652Y45630348D01*
X77160000Y21925000D02*
X81700000Y17385000D01*
X112074255Y30179255D02*
X107248815Y30179255D01*
X112370000Y30475000D02*
X113270000Y31375000D01*
%TO.N,r1*%
X23130000Y31965000D02*
X23130000Y30635000D01*
X24401461Y30605000D02*
X23160000Y30605000D01*
X77130000Y38955000D02*
X77150000Y38935000D01*
X11940000Y30055000D02*
X13240000Y28755000D01*
X59130000Y45565000D02*
X59130000Y44175000D01*
X77130000Y40465000D02*
X77130000Y38955000D01*
X95110000Y36415000D02*
X101912749Y36415000D01*
X112470000Y33915000D02*
X121190000Y33915000D01*
X101912749Y36415000D02*
X104210000Y38712251D01*
X95130000Y37915000D02*
X95130000Y36435000D01*
X111710000Y45085000D02*
X111710000Y33155000D01*
X77150000Y38935000D02*
X81240000Y34845000D01*
X40714000Y41209000D02*
X32984000Y41209000D01*
X4220000Y28045000D02*
X5750000Y28045000D01*
X111610000Y33055000D02*
X112470000Y33915000D01*
X2630000Y28565000D02*
X3640000Y28565000D01*
X27900000Y36125000D02*
X27900000Y34103539D01*
X23130000Y30635000D02*
X23160000Y30605000D01*
X59130000Y44175000D02*
X58990000Y44035000D01*
X3640000Y28565000D02*
X3670000Y28595000D01*
X41130000Y41625000D02*
X40714000Y41209000D01*
X32984000Y41209000D02*
X27900000Y36125000D01*
X104210000Y44945000D02*
X105530000Y46265000D01*
X41130000Y41625000D02*
X41330000Y41825000D01*
X95130000Y36435000D02*
X95110000Y36415000D01*
X41330000Y41825000D02*
X56780000Y41825000D01*
X21310000Y28755000D02*
X23160000Y30605000D01*
X13240000Y28755000D02*
X21310000Y28755000D01*
X41130000Y41625000D02*
X41130000Y43015000D01*
X56780000Y41825000D02*
X58990000Y44035000D01*
X110530000Y46265000D02*
X111710000Y45085000D01*
X104210000Y38712251D02*
X104210000Y44945000D01*
X111710000Y33155000D02*
X111610000Y33055000D01*
X27900000Y34103539D02*
X24401461Y30605000D01*
X64366000Y38659000D02*
X76874000Y38659000D01*
X76874000Y38659000D02*
X77150000Y38935000D01*
X3670000Y28595000D02*
X4220000Y28045000D01*
X93540000Y34845000D02*
X95110000Y36415000D01*
X105530000Y46265000D02*
X110530000Y46265000D01*
X81240000Y34845000D02*
X93540000Y34845000D01*
X5750000Y28045000D02*
X7760000Y30055000D01*
X58990000Y44035000D02*
X64366000Y38659000D01*
X7760000Y30055000D02*
X11940000Y30055000D01*
%TO.N,c6*%
X108930000Y13805000D02*
X108930000Y21075000D01*
X92480000Y12005000D02*
X89375000Y12005000D01*
X125786603Y-20189563D02*
X120854563Y-20189563D01*
X95775000Y49300000D02*
X93180000Y46705000D01*
X92810000Y29335000D02*
X89375000Y29335000D01*
X95775000Y32300000D02*
X92810000Y29335000D01*
X108930000Y21075000D02*
X109070000Y21215000D01*
X93180000Y46705000D02*
X90410500Y46705000D01*
X126738269Y-19237897D02*
X125786603Y-20189563D01*
X95775000Y15300000D02*
X92480000Y12005000D01*
X120854563Y-20189563D02*
X119397106Y-18732106D01*
%TO.N,c5*%
X77775000Y34850000D02*
X74520000Y31595000D01*
X74520000Y31595000D02*
X71375000Y31595000D01*
X97011977Y-1733023D02*
X110590000Y11845000D01*
X77775000Y51850000D02*
X74850000Y48925000D01*
X74850000Y48925000D02*
X71504999Y48925000D01*
X77775000Y17850000D02*
X74470000Y14545000D01*
X107762514Y-9673945D02*
X106690552Y-10745907D01*
X74470000Y14545000D02*
X71504999Y14545000D01*
X106690552Y-10745907D02*
X100050907Y-10745907D01*
X110590000Y11845000D02*
X110590000Y22559255D01*
%TO.N,c4*%
X56390001Y53845000D02*
X53375000Y53845000D01*
X98648954Y575000D02*
X110069477Y11995523D01*
X85028128Y-5805000D02*
X80830004Y-5805000D01*
X87280495Y-3552633D02*
X85028128Y-5805000D01*
X59775000Y39950000D02*
X56970000Y37145000D01*
X56970000Y37145000D02*
X54410500Y37145000D01*
X59775000Y22950000D02*
X56340000Y19515000D01*
X59495001Y56950000D02*
X56390001Y53845000D01*
X59775000Y56950000D02*
X59495001Y56950000D01*
X56340000Y19515000D02*
X54410500Y19515000D01*
X79030000Y575000D02*
X98648954Y575000D01*
X112090000Y23915000D02*
X112090000Y14016046D01*
%TO.N,c3*%
X62439032Y714032D02*
X63053064Y100000D01*
X38450000Y17075000D02*
X36410500Y17075000D01*
X113070000Y24215000D02*
X113070000Y17072252D01*
X41775000Y20400000D02*
X38450000Y17075000D01*
X41775000Y54400000D02*
X38050000Y50675000D01*
X112910000Y16912252D02*
X112910000Y14105000D01*
X113053721Y25820500D02*
X113053721Y27747675D01*
X113053721Y27747675D02*
X113059647Y27753601D01*
X63053064Y100000D02*
X94507202Y100000D01*
X97627477Y-2208023D02*
X110880500Y11045000D01*
X38410000Y34035000D02*
X36410500Y34035000D01*
X41775000Y37400000D02*
X38410000Y34035000D01*
X38050000Y50675000D02*
X35504999Y50675000D01*
X113070000Y17072252D02*
X112910000Y16912252D01*
X94507202Y100000D02*
X96815225Y-2208023D01*
X96815225Y-2208023D02*
X97627477Y-2208023D01*
%TO.N,c2*%
X58905468Y1265000D02*
X89410000Y1265000D01*
X94850000Y-2695000D02*
X97870000Y-2695000D01*
X120522504Y29704755D02*
X120997004Y30179255D01*
X20480000Y40055000D02*
X17375000Y40055000D01*
X117640000Y25820500D02*
X117640000Y28360500D01*
X117620000Y29704755D02*
X120522504Y29704755D01*
X23775000Y9350000D02*
X20540000Y6115000D01*
X19500001Y22355000D02*
X17375000Y22355000D01*
X117610000Y17045000D02*
X117610000Y24280500D01*
X57880000Y239532D02*
X58905468Y1265000D01*
X20540000Y6115000D02*
X18410500Y6115000D01*
X23775000Y26350000D02*
X23495001Y26350000D01*
X23775000Y43350000D02*
X20480000Y40055000D01*
X120997004Y30179255D02*
X122488815Y30179255D01*
X117610000Y24280500D02*
X117590000Y24300500D01*
X23495001Y26350000D02*
X19500001Y22355000D01*
X97870000Y-2695000D02*
X109410000Y8845000D01*
X111750000Y29704755D02*
X117620000Y29704755D01*
%TO.N,c1*%
X-299999Y36655000D02*
X-2830000Y36655000D01*
X109610000Y29475000D02*
X109580000Y29505000D01*
X3275000Y5950000D02*
X-60000Y2615000D01*
X107160000Y4245000D02*
X99745000Y-3170000D01*
X99745000Y-3170000D02*
X94653248Y-3170000D01*
X67796065Y-1108935D02*
X66029032Y-2875968D01*
X109480000Y30755000D02*
X109480000Y33815000D01*
X109575000Y26880000D02*
X109610000Y26915000D01*
X94653248Y-3170000D02*
X92592183Y-1108935D01*
X109575000Y13270000D02*
X109575000Y26880000D01*
X107160000Y5395000D02*
X107160000Y4245000D01*
X-70000Y19605000D02*
X-2089500Y19605000D01*
X109480000Y33815000D02*
X109580000Y33915000D01*
X92592183Y-1108935D02*
X67796065Y-1108935D01*
X105540000Y9235000D02*
X109575000Y13270000D01*
X3275000Y22950000D02*
X-70000Y19605000D01*
X109610000Y28285000D02*
X109610000Y29475000D01*
X3275000Y39950000D02*
X2995001Y39950000D01*
X-60000Y2615000D02*
X-3125000Y2615000D01*
X2995001Y39950000D02*
X-299999Y36655000D01*
%TO.N,VCC*%
X114540000Y35555000D02*
X114540000Y34389500D01*
X114600000Y28145000D02*
X114540000Y28205000D01*
X114892500Y22731255D02*
X114892500Y11822500D01*
X114590000Y23033755D02*
X114892500Y22731255D01*
X114600000Y25249500D02*
X114600000Y28145000D01*
%TO.N,RST*%
X123820000Y1785000D02*
X124470000Y2435000D01*
X118200000Y44245000D02*
X118200000Y42259500D01*
X118190000Y40945000D02*
X118190000Y39025000D01*
X124470000Y2435000D02*
X124470000Y43975000D01*
X122960000Y45485000D02*
X119440000Y45485000D01*
X124470000Y43975000D02*
X122960000Y45485000D01*
X118190000Y39025000D02*
X118220000Y38995000D01*
X119440000Y45485000D02*
X118200000Y44245000D01*
%TO.N,Net-(D9-A)*%
X30225000Y35200000D02*
X30225000Y32170000D01*
X33500000Y27650000D02*
X40365000Y27650000D01*
X30225000Y32170000D02*
X33500000Y28895000D01*
X43500000Y27650000D02*
X41815000Y27650000D01*
X40365000Y27650000D02*
X41090000Y28375000D01*
X41815000Y27650000D02*
X41090000Y28375000D01*
X41130000Y29565000D02*
X41130000Y28415000D01*
X33500000Y28895000D02*
X33500000Y27650000D01*
X41130000Y28415000D02*
X41090000Y28375000D01*
%TO.N,Net-(D8-A)*%
X12225000Y19875000D02*
X15500000Y16600000D01*
X15500000Y16600000D02*
X22625000Y16600000D01*
X22625000Y16600000D02*
X23110000Y17085000D01*
X23110000Y17085000D02*
X23110000Y18495000D01*
X23110000Y18495000D02*
X23130000Y18515000D01*
X12225000Y24150000D02*
X12225000Y19875000D01*
%TO.N,Net-(D7-A)*%
X-8275000Y16475000D02*
X-5000000Y13200000D01*
X2225000Y13200000D02*
X-5000000Y13200000D01*
X2640000Y13615000D02*
X2640000Y15105000D01*
X2640000Y15105000D02*
X2630000Y15115000D01*
X3055000Y13200000D02*
X2640000Y13615000D01*
X5000000Y13200000D02*
X3055000Y13200000D01*
X2640000Y13615000D02*
X2225000Y13200000D01*
X-8275000Y20750000D02*
X-8275000Y16475000D01*
%TO.N,Net-(D6-A)*%
X84225000Y42825000D02*
X87500000Y39550000D01*
X94565000Y39550000D02*
X95110000Y40095000D01*
X87500000Y39550000D02*
X94565000Y39550000D01*
X95655000Y39550000D02*
X95110000Y40095000D01*
X97500000Y39550000D02*
X95655000Y39550000D01*
X84225000Y47100000D02*
X84225000Y42825000D01*
X95130000Y41465000D02*
X95130000Y40115000D01*
X95130000Y40115000D02*
X95110000Y40095000D01*
%TO.N,Net-(D5-A)*%
X77130000Y42755000D02*
X77140000Y42745000D01*
X66225000Y45375000D02*
X69500000Y42100000D01*
X76495000Y42100000D02*
X77140000Y42745000D01*
X77785000Y42100000D02*
X77140000Y42745000D01*
X66225000Y49650000D02*
X66225000Y45375000D01*
X77130000Y44015000D02*
X77130000Y42755000D01*
X79500000Y42100000D02*
X77785000Y42100000D01*
X69500000Y42100000D02*
X76495000Y42100000D01*
%TO.N,Net-(D4-A)*%
X59705000Y47200000D02*
X59100000Y47805000D01*
X59130000Y49115000D02*
X59130000Y47835000D01*
X48225000Y54750000D02*
X48225000Y50475000D01*
X59130000Y47835000D02*
X59100000Y47805000D01*
X58495000Y47200000D02*
X59100000Y47805000D01*
X61500000Y47200000D02*
X59705000Y47200000D01*
X51500000Y47200000D02*
X58495000Y47200000D01*
X48225000Y50475000D02*
X51500000Y47200000D01*
%TO.N,Net-(D3-A)*%
X41465000Y44650000D02*
X41020000Y45095000D01*
X40575000Y44650000D02*
X41020000Y45095000D01*
X30225000Y52200000D02*
X30225000Y47925000D01*
X41130000Y45205000D02*
X41020000Y45095000D01*
X43500000Y44650000D02*
X41465000Y44650000D01*
X41130000Y46565000D02*
X41130000Y45205000D01*
X33500000Y44650000D02*
X40575000Y44650000D01*
X30225000Y47925000D02*
X33500000Y44650000D01*
%TO.N,Net-(D21-A)*%
X121730000Y-27215000D02*
X118059144Y-23544144D01*
X118059144Y-23544144D02*
X114696909Y-23544144D01*
X114696909Y-16306920D02*
X114696909Y-23544144D01*
X121730000Y-27215000D02*
X121730000Y-26445305D01*
X121730000Y-26445305D02*
X122457500Y-25717805D01*
X115635676Y-15368153D02*
X114696909Y-16306920D01*
%TO.N,Net-(D20-A)*%
X104950933Y-19425933D02*
X104000000Y-18475000D01*
X106048787Y-19425933D02*
X104950933Y-19425933D01*
X104476685Y-16815834D02*
X104476685Y-17998315D01*
X96156619Y-15510490D02*
X96651861Y-16005732D01*
X101530732Y-16005732D02*
X104000000Y-18475000D01*
X96156619Y-7790936D02*
X96156619Y-15510490D01*
X104476685Y-17998315D02*
X104000000Y-18475000D01*
X96651861Y-16005732D02*
X101530732Y-16005732D01*
%TO.N,Net-(D2-A)*%
X23565000Y33600000D02*
X23040000Y34125000D01*
X25500000Y33600000D02*
X23565000Y33600000D01*
X22515000Y33600000D02*
X23040000Y34125000D01*
X23040000Y34125000D02*
X23040000Y35425000D01*
X12225000Y36875000D02*
X15500000Y33600000D01*
X12225000Y41150000D02*
X12225000Y36875000D01*
X23040000Y35425000D02*
X23130000Y35515000D01*
X15500000Y33600000D02*
X22515000Y33600000D01*
%TO.N,Net-(D19-A)*%
X85819052Y-13454052D02*
X85300000Y-12935000D01*
X85284761Y-12919761D02*
X85300000Y-12935000D01*
X87286218Y-13454052D02*
X85819052Y-13454052D01*
X75523939Y-3713574D02*
X75523939Y-9803368D01*
X75523939Y-9803368D02*
X77438141Y-11717570D01*
X85284761Y-11156599D02*
X85284761Y-12919761D01*
X84082570Y-11717570D02*
X85300000Y-12935000D01*
X77438141Y-11717570D02*
X84082570Y-11717570D01*
%TO.N,Net-(D18-A)*%
X95445000Y5550000D02*
X95060000Y5935000D01*
X84225000Y13100000D02*
X84225000Y8825000D01*
X94675000Y5550000D02*
X95060000Y5935000D01*
X95060000Y7395000D02*
X95130000Y7465000D01*
X95060000Y5935000D02*
X95060000Y7395000D01*
X97500000Y5550000D02*
X95445000Y5550000D01*
X87500000Y5550000D02*
X94675000Y5550000D01*
X84225000Y8825000D02*
X87500000Y5550000D01*
%TO.N,Net-(D17-A)*%
X66225000Y15650000D02*
X66225000Y11375000D01*
X79500000Y8100000D02*
X77525000Y8100000D01*
X66225000Y11375000D02*
X69500000Y8100000D01*
X69500000Y8100000D02*
X76695000Y8100000D01*
X76695000Y8100000D02*
X77110000Y8515000D01*
X77525000Y8100000D02*
X77110000Y8515000D01*
X77130000Y10015000D02*
X77130000Y8535000D01*
X77130000Y8535000D02*
X77110000Y8515000D01*
%TO.N,Net-(D16-A)*%
X61500000Y13200000D02*
X59815000Y13200000D01*
X59130000Y13945000D02*
X59100000Y13915000D01*
X58385000Y13200000D02*
X59100000Y13915000D01*
X59815000Y13200000D02*
X59100000Y13915000D01*
X51500000Y13200000D02*
X58385000Y13200000D01*
X59130000Y15115000D02*
X59130000Y13945000D01*
X48225000Y20750000D02*
X48225000Y16475000D01*
X48225000Y16475000D02*
X51500000Y13200000D01*
%TO.N,Net-(D15-A)*%
X30225000Y18200000D02*
X30225000Y14770000D01*
X41130000Y11265000D02*
X41130000Y12565000D01*
X40515000Y10650000D02*
X41130000Y11265000D01*
X33500000Y11495000D02*
X33500000Y10650000D01*
X30225000Y14770000D02*
X33500000Y11495000D01*
X33500000Y10650000D02*
X40515000Y10650000D01*
X41745000Y10650000D02*
X41130000Y11265000D01*
X43500000Y10650000D02*
X41745000Y10650000D01*
%TO.N,Net-(D14-A)*%
X23150000Y1495000D02*
X23130000Y1515000D01*
X15500000Y-400000D02*
X22425000Y-400000D01*
X12225000Y7150000D02*
X12225000Y2875000D01*
X22425000Y-400000D02*
X23150000Y325000D01*
X23150000Y325000D02*
X23150000Y1495000D01*
X12225000Y2875000D02*
X15500000Y-400000D01*
%TO.N,Net-(D13-A)*%
X2630000Y-3765000D02*
X2620000Y-3775000D01*
X-8275000Y3750000D02*
X-8275000Y-525000D01*
X2595000Y-3800000D02*
X2620000Y-3775000D01*
X-5000000Y-3800000D02*
X2595000Y-3800000D01*
X-8275000Y-525000D02*
X-5000000Y-3800000D01*
X2630000Y-1885000D02*
X2630000Y-3765000D01*
%TO.N,Net-(D12-A)*%
X95130000Y24465000D02*
X95130000Y23245000D01*
X87500000Y22550000D02*
X94475000Y22550000D01*
X84225000Y25825000D02*
X87500000Y22550000D01*
X97500000Y22550000D02*
X95825000Y22550000D01*
X94475000Y22550000D02*
X95150000Y23225000D01*
X84225000Y30100000D02*
X84225000Y25825000D01*
X95825000Y22550000D02*
X95150000Y23225000D01*
X95130000Y23245000D02*
X95150000Y23225000D01*
%TO.N,Net-(D11-A)*%
X77815000Y25100000D02*
X77130000Y25785000D01*
X76445000Y25100000D02*
X77130000Y25785000D01*
X69500000Y25100000D02*
X76445000Y25100000D01*
X79500000Y25100000D02*
X77815000Y25100000D01*
X66225000Y32650000D02*
X66225000Y28375000D01*
X66225000Y28375000D02*
X69500000Y25100000D01*
X77130000Y27015000D02*
X77130000Y25785000D01*
%TO.N,Net-(D10-A)*%
X59130000Y30645000D02*
X59120000Y30635000D01*
X59555000Y30200000D02*
X61500000Y30200000D01*
X51500000Y30200000D02*
X58685000Y30200000D01*
X59130000Y32115000D02*
X59130000Y30645000D01*
X59120000Y30635000D02*
X59555000Y30200000D01*
X58685000Y30200000D02*
X59120000Y30635000D01*
X48225000Y33475000D02*
X51500000Y30200000D01*
X48225000Y37750000D02*
X48225000Y33475000D01*
%TO.N,Net-(D1-A)*%
X5000000Y30200000D02*
X3385000Y30200000D01*
X-8275000Y33475000D02*
X-5000000Y30200000D01*
X-8275000Y37750000D02*
X-8275000Y33475000D01*
X1935000Y30200000D02*
X-5000000Y30200000D01*
X3385000Y30200000D02*
X2660000Y30925000D01*
X2660000Y30925000D02*
X1935000Y30200000D01*
X2630000Y30955000D02*
X2660000Y30925000D01*
X2630000Y32115000D02*
X2630000Y30955000D01*
%TO.N,GND*%
X118892500Y24278000D02*
X118870000Y24300500D01*
X118892500Y11822500D02*
X118892500Y24278000D01*
X121190000Y41535000D02*
X122830321Y41535000D01*
X117750000Y38589255D02*
X116000000Y40339255D01*
X118870000Y25820500D02*
X118870000Y28330500D01*
X123575815Y38886255D02*
X122488815Y37799255D01*
X123575815Y40789506D02*
X123575815Y38886255D01*
X118870000Y28330500D02*
X118840000Y28360500D01*
X122830321Y41535000D02*
X123575815Y40789506D01*
X117750000Y34527500D02*
X117750000Y38589255D01*
%TO.N,data*%
X119402749Y41785000D02*
X120848494Y40339255D01*
X113581755Y41785000D02*
X119402749Y41785000D01*
X120848494Y40339255D02*
X122488815Y40339255D01*
X113574500Y41792255D02*
X113581755Y41785000D01*
%TD*%
M02*
