M48
; DRILL file {KiCad 7.0.6} date Tue Sep 19 12:27:46 2023
; FORMAT={-:-/ absolute / inch / decimal}
; #@! TF.CreationDate,2023-09-19T12:27:46+07:00
; #@! TF.GenerationSoftware,Kicad,Pcbnew,7.0.6
; #@! TF.FileFunction,NonPlated,1,2,NPTH
FMAT,2
INCH
; #@! TA.AperFunction,NonPlated,NPTH,ComponentDrill
T1C0.0155
; #@! TA.AperFunction,NonPlated,NPTH,ComponentDrill
T2C0.0472
; #@! TA.AperFunction,NonPlated,NPTH,ComponentDrill
T3C0.0670
; #@! TA.AperFunction,NonPlated,NPTH,ComponentDrill
T4C0.1181
; #@! TA.AperFunction,NonPlated,NPTH,ComponentDrill
T5C0.1350
%
G90
G05
T1
X0.4008Y-0.1329
X0.4008Y-0.1715
X0.4016Y1.2456
X0.4016Y1.2108
X0.402Y1.1573
X0.402Y0.3904
X0.402Y-0.2085
X0.4024Y1.2821
X0.4024Y-0.0776
X0.4028Y0.4301
X0.4028Y-0.0018
X0.4028Y-0.0398
X0.4031Y1.1226
X0.4035Y1.0856
X0.4043Y0.5975
X0.4043Y0.5608
X0.4043Y0.4852
X0.4047Y0.5234
T2
X4.5863Y0.3749
X4.5863Y0.2844
X4.8619Y0.3749
X4.8619Y0.2844
T3
X-0.2165Y1.3386
X-0.2165Y0.6693
X-0.2165Y0.0
X0.2165Y1.3386
X0.2165Y0.6693
X0.2165Y0.0
X0.5906Y1.4724
X0.5906Y0.8031
X0.5906Y0.1339
X1.0236Y1.4724
X1.0236Y0.8031
X1.0236Y0.1339
X1.2992Y1.9075
X1.2992Y1.2382
X1.2992Y0.5689
X1.7323Y1.9075
X1.7323Y1.2382
X1.7323Y0.5689
X2.0079Y2.0079
X2.0079Y1.3386
X2.0079Y0.6693
X2.4409Y2.0079
X2.4409Y1.3386
X2.4409Y0.6693
X2.7165Y1.8071
X2.7165Y1.1378
X2.7165Y0.4685
X3.0553Y-0.3106
X3.1496Y1.8071
X3.1496Y1.1378
X3.1496Y0.4685
X3.4252Y1.7067
X3.4252Y1.0374
X3.4252Y0.3681
X3.4818Y-0.3858
X3.8379Y-0.4828
X3.8583Y1.7067
X3.8583Y1.0374
X3.8583Y0.3681
X4.2448Y-0.6309
X4.5734Y-0.7875
X4.9484Y-1.0041
T4
X-0.1969Y1.4862
X-0.1969Y0.8169
X-0.1969Y0.1476
X0.0Y1.5728
X0.0Y0.9035
X0.0Y0.2343
X0.1969Y1.4862
X0.1969Y0.8169
X0.1969Y0.1476
X0.6102Y1.6201
X0.6102Y0.9508
X0.6102Y0.2815
X0.8071Y1.7067
X0.8071Y1.0374
X0.8071Y0.3681
X1.0039Y1.6201
X1.0039Y0.9508
X1.0039Y0.2815
X1.3189Y2.0551
X1.3189Y1.3858
X1.3189Y0.7165
X1.5157Y2.1417
X1.5157Y1.4724
X1.5157Y0.8031
X1.7126Y2.0551
X1.7126Y1.3858
X1.7126Y0.7165
X2.0276Y2.1555
X2.0276Y1.4862
X2.0276Y0.8169
X2.2244Y2.2421
X2.2244Y1.5728
X2.2244Y0.9035
X2.4213Y2.1555
X2.4213Y1.4862
X2.4213Y0.8169
X2.7362Y1.9547
X2.7362Y1.2854
X2.7362Y0.6161
X2.9331Y2.0413
X2.9331Y1.372
X2.9331Y0.7028
X3.1004Y-0.1686
X3.1299Y1.9547
X3.1299Y1.2854
X3.1299Y0.6161
X3.3093Y-0.1175
X3.4449Y1.8543
X3.4449Y1.185
X3.4449Y0.5157
X3.4881Y-0.237
X3.6417Y1.9409
X3.6417Y1.2717
X3.6417Y0.6024
X3.8386Y1.8543
X3.8386Y1.185
X3.8386Y0.5157
X3.9069Y-0.3508
X4.1215Y-0.3368
X4.2768Y-0.4855
X4.6642Y-0.6695
X4.878Y-0.6929
X5.0052Y-0.8664
T5
X0.0Y1.3386
X0.0Y0.6693
X0.0Y0.0
X0.8071Y1.4724
X0.8071Y0.8031
X0.8071Y0.1339
X1.5157Y1.9075
X1.5157Y1.2382
X1.5157Y0.5689
X2.2244Y2.0079
X2.2244Y1.3386
X2.2244Y0.6693
X2.9331Y1.8071
X2.9331Y1.1378
X2.9331Y0.4685
X3.2686Y-0.3482
X3.6417Y1.7067
X3.6417Y1.0374
X3.6417Y0.3681
X4.0413Y-0.5569
X4.7609Y-0.8958
T0
M30
