<?xml version="1.0" standalone="no"?>
 <!DOCTYPE svg PUBLIC "-//W3C//DTD SVG 1.1//EN" 
 "http://www.w3.org/Graphics/SVG/1.1/DTD/svg11.dtd"> 
<svg
  xmlns:svg="http://www.w3.org/2000/svg"
  xmlns="http://www.w3.org/2000/svg"
  xmlns:xlink="http://www.w3.org/1999/xlink"
  version="1.1"
  width="165.4048mm" height="104.7496mm" viewBox="0.0000 0.0000 165.4048 104.7496">
<title>SVG Image created as dream-B_Silkscreen.svg date 2023/09/17 04:22:27 </title>
  <desc>Image generated by PCBNEW </desc>
<g style="fill:#000000; fill-opacity:1.0000;stroke:#000000; stroke-opacity:1.0000;
stroke-linecap:round; stroke-linejoin:round;"
 transform="translate(0 0) scale(1 1)">
</g>
<g style="fill:#000000; fill-opacity:0.0; 
stroke:#000000; stroke-width:0.0000; stroke-opacity:1; 
stroke-linecap:round; stroke-linejoin:round;">
</g>
<g style="fill:#E8B2A7; fill-opacity:0.0; 
stroke:#E8B2A7; stroke-width:0.0000; stroke-opacity:1; 
stroke-linecap:round; stroke-linejoin:round;">
</g>
<g style="fill:#E8B2A7; fill-opacity:0.0; 
stroke:#E8B2A7; stroke-width:0.1500; stroke-opacity:1; 
stroke-linecap:round; stroke-linejoin:round;">
<text x="159.2350" y="47.5105"
transform="scale(-1 1) translate(-318.470000 0)"
textLength="3.9090" font-size="1.0667" lengthAdjust="spacingAndGlyphs"
text-anchor="middle" opacity="0">RESET</text>
<g class="stroked-text"><desc>RESET</desc>
<path d="M160.3969 47.4728
L160.6636 47.0918
" />
<path d="M160.8540 47.4728
L160.8540 46.6728
" />
<path d="M160.8540 46.6728
L160.5493 46.6728
" />
<path d="M160.5493 46.6728
L160.4731 46.7109
" />
<path d="M160.4731 46.7109
L160.4350 46.7490
" />
<path d="M160.4350 46.7490
L160.3969 46.8252
" />
<path d="M160.3969 46.8252
L160.3969 46.9395
" />
<path d="M160.3969 46.9395
L160.4350 47.0157
" />
<path d="M160.4350 47.0157
L160.4731 47.0537
" />
<path d="M160.4731 47.0537
L160.5493 47.0918
" />
<path d="M160.5493 47.0918
L160.8540 47.0918
" />
<path d="M160.0540 47.0537
L159.7874 47.0537
" />
<path d="M159.6731 47.4728
L160.0540 47.4728
" />
<path d="M160.0540 47.4728
L160.0540 46.6728
" />
<path d="M160.0540 46.6728
L159.6731 46.6728
" />
<path d="M159.3683 47.4347
L159.2540 47.4728
" />
<path d="M159.2540 47.4728
L159.0636 47.4728
" />
<path d="M159.0636 47.4728
L158.9874 47.4347
" />
<path d="M158.9874 47.4347
L158.9493 47.3966
" />
<path d="M158.9493 47.3966
L158.9112 47.3204
" />
<path d="M158.9112 47.3204
L158.9112 47.2442
" />
<path d="M158.9112 47.2442
L158.9493 47.1680
" />
<path d="M158.9493 47.1680
L158.9874 47.1299
" />
<path d="M158.9874 47.1299
L159.0636 47.0918
" />
<path d="M159.0636 47.0918
L159.2160 47.0537
" />
<path d="M159.2160 47.0537
L159.2921 47.0157
" />
<path d="M159.2921 47.0157
L159.3302 46.9776
" />
<path d="M159.3302 46.9776
L159.3683 46.9014
" />
<path d="M159.3683 46.9014
L159.3683 46.8252
" />
<path d="M159.3683 46.8252
L159.3302 46.7490
" />
<path d="M159.3302 46.7490
L159.2921 46.7109
" />
<path d="M159.2921 46.7109
L159.2160 46.6728
" />
<path d="M159.2160 46.6728
L159.0255 46.6728
" />
<path d="M159.0255 46.6728
L158.9112 46.7109
" />
<path d="M158.5683 47.0537
L158.3017 47.0537
" />
<path d="M158.1874 47.4728
L158.5683 47.4728
" />
<path d="M158.5683 47.4728
L158.5683 46.6728
" />
<path d="M158.5683 46.6728
L158.1874 46.6728
" />
<path d="M157.9588 46.6728
L157.5017 46.6728
" />
<path d="M157.7302 47.4728
L157.7302 46.6728
" />
</g></g>
<g style="fill:#E8B2A7; fill-opacity:0.0; 
stroke:#E8B2A7; stroke-width:0.1000; stroke-opacity:1; 
stroke-linecap:round; stroke-linejoin:round;">
<text x="158.6675" y="41.5905"
transform="scale(-1 1) translate(-317.335000 0)"
textLength="3.1114" font-size="1.0667" lengthAdjust="spacingAndGlyphs"
text-anchor="middle" opacity="0">TRRS</text>
<g class="stroked-text"><desc>TRRS</desc>
<path d="M160.0770 40.7554
L159.6199 40.7554
" />
<path d="M159.8485 41.5554
L159.8485 40.7554
" />
<path d="M158.8961 41.5554
L159.1627 41.1744
" />
<path d="M159.3532 41.5554
L159.3532 40.7554
" />
<path d="M159.3532 40.7554
L159.0485 40.7554
" />
<path d="M159.0485 40.7554
L158.9723 40.7935
" />
<path d="M158.9723 40.7935
L158.9342 40.8316
" />
<path d="M158.9342 40.8316
L158.8961 40.9078
" />
<path d="M158.8961 40.9078
L158.8961 41.0221
" />
<path d="M158.8961 41.0221
L158.9342 41.0983
" />
<path d="M158.9342 41.0983
L158.9723 41.1363
" />
<path d="M158.9723 41.1363
L159.0485 41.1744
" />
<path d="M159.0485 41.1744
L159.3532 41.1744
" />
<path d="M158.0961 41.5554
L158.3627 41.1744
" />
<path d="M158.5532 41.5554
L158.5532 40.7554
" />
<path d="M158.5532 40.7554
L158.2485 40.7554
" />
<path d="M158.2485 40.7554
L158.1723 40.7935
" />
<path d="M158.1723 40.7935
L158.1342 40.8316
" />
<path d="M158.1342 40.8316
L158.0961 40.9078
" />
<path d="M158.0961 40.9078
L158.0961 41.0221
" />
<path d="M158.0961 41.0221
L158.1342 41.0983
" />
<path d="M158.1342 41.0983
L158.1723 41.1363
" />
<path d="M158.1723 41.1363
L158.2485 41.1744
" />
<path d="M158.2485 41.1744
L158.5532 41.1744
" />
<path d="M157.7913 41.5173
L157.6770 41.5554
" />
<path d="M157.6770 41.5554
L157.4865 41.5554
" />
<path d="M157.4865 41.5554
L157.4104 41.5173
" />
<path d="M157.4104 41.5173
L157.3723 41.4792
" />
<path d="M157.3723 41.4792
L157.3342 41.4030
" />
<path d="M157.3342 41.4030
L157.3342 41.3268
" />
<path d="M157.3342 41.3268
L157.3723 41.2506
" />
<path d="M157.3723 41.2506
L157.4104 41.2125
" />
<path d="M157.4104 41.2125
L157.4865 41.1744
" />
<path d="M157.4865 41.1744
L157.6389 41.1363
" />
<path d="M157.6389 41.1363
L157.7151 41.0983
" />
<path d="M157.7151 41.0983
L157.7532 41.0602
" />
<path d="M157.7532 41.0602
L157.7913 40.9840
" />
<path d="M157.7913 40.9840
L157.7913 40.9078
" />
<path d="M157.7913 40.9078
L157.7532 40.8316
" />
<path d="M157.7532 40.8316
L157.7151 40.7935
" />
<path d="M157.7151 40.7935
L157.6389 40.7554
" />
<path d="M157.6389 40.7554
L157.4485 40.7554
" />
<path d="M157.4485 40.7554
L157.3342 40.7935
" />
</g></g>
<g style="fill:#E8B2A7; fill-opacity:0.0; 
stroke:#E8B2A7; stroke-width:0.1500; stroke-opacity:1; 
stroke-linecap:round; stroke-linejoin:round;">
<g transform="rotate(-90.000000 142.5930 6.3405)">
<text x="142.5930" y="6.7405"
transform="scale(-1 1) translate(-285.186000 0)"
textLength="2.6900" font-size="1.0667" lengthAdjust="spacingAndGlyphs"
text-anchor="middle" opacity="0">RAW</text>
</g>
<g class="stroked-text"><desc>RAW</desc>
<path d="M142.9553 5.7881
L142.5743 5.5215
" />
<path d="M142.9553 5.3310
L142.1553 5.3310
" />
<path d="M142.1553 5.3310
L142.1553 5.6357
" />
<path d="M142.1553 5.6357
L142.1934 5.7119
" />
<path d="M142.1934 5.7119
L142.2315 5.7500
" />
<path d="M142.2315 5.7500
L142.3077 5.7881
" />
<path d="M142.3077 5.7881
L142.4220 5.7881
" />
<path d="M142.4220 5.7881
L142.4982 5.7500
" />
<path d="M142.4982 5.7500
L142.5362 5.7119
" />
<path d="M142.5362 5.7119
L142.5743 5.6357
" />
<path d="M142.5743 5.6357
L142.5743 5.3310
" />
<path d="M142.7267 6.0929
L142.7267 6.4738
" />
<path d="M142.9553 6.0167
L142.1553 6.2834
" />
<path d="M142.1553 6.2834
L142.9553 6.5500
" />
<path d="M142.1553 6.7405
L142.9553 6.9310
" />
<path d="M142.9553 6.9310
L142.3839 7.0834
" />
<path d="M142.3839 7.0834
L142.9553 7.2357
" />
<path d="M142.9553 7.2357
L142.1553 7.4262
" />
</g><path d="M134.8195 88.0372 A0.5000 0.5000 0.0 0 0 135.0025 88.7202" />
<path d="M133.0025 92.1843 A1.5000 1.5000 0.0 0 0 132.4535 90.1353" />
<path d="M136.5496 95.0405
L136.7996 94.6075
" />
<path d="M138.5996 91.4898
L138.8996 90.9702
" />
<path d="M138.8996 90.9702
L135.0025 88.7202
" />
<path d="M132.6525 92.7905
L136.5496 95.0405
" />
<path d="M133.0025 92.1843
L132.6525 92.7905
" />
<path d="M134.8195 88.0372
L135.3195 87.1712
" />
<path d="M135.1365 86.4881
L135.3195 87.1712
" />
<path d="M130.2884 88.8853
L132.4535 90.1353
" />
<path d="M132.5384 84.9881
L135.1365 86.4881
" />
<path d="M130.1054 88.2022
L130.2884 88.8853
" />
<path d="M131.8554 85.1712
L132.5384 84.9881
" />
<path d="M115.5288 77.7322 A0.5000 0.5000 0.0 0 0 115.8277 78.3731" />
<path d="M114.4596 82.1318 A1.5000 1.5000 0.0 0 0 113.5631 80.2093" />
<path d="M118.4488 84.3287
L118.6198 83.8589
" />
<path d="M119.8511 80.4760
L120.0563 79.9122
" />
<path d="M120.0563 79.9122
L115.8277 78.3731
" />
<path d="M114.2202 82.7896
L118.4488 84.3287
" />
<path d="M114.4596 82.1318
L114.2202 82.7896
" />
<path d="M115.5288 77.7322
L115.8709 76.7925
" />
<path d="M115.5720 76.1517
L115.8709 76.7925
" />
<path d="M111.2139 79.3542
L113.5631 80.2093
" />
<path d="M112.7530 75.1256
L115.5720 76.1517
" />
<path d="M110.9150 78.7134
L111.2139 79.3542
" />
<path d="M112.1121 75.4244
L112.7530 75.1256
" />
<path d="M93.2301 71.0681 A0.5000 0.5000 0.0 0 0 93.6357 71.6474" />
<path d="M92.9411 75.5866 A1.5000 1.5000 0.0 0 0 91.7243 73.8489" />
<path d="M97.2512 77.0574
L97.3380 76.5650
" />
<path d="M97.9631 73.0197
L98.0673 72.4288
" />
<path d="M98.0673 72.4288
L93.6357 71.6474
" />
<path d="M92.8195 76.2759
L97.2512 77.0574
" />
<path d="M92.9411 75.5866
L92.8195 76.2759
" />
<path d="M93.2301 71.0681
L93.4037 70.0833
" />
<path d="M92.9982 69.5041
L93.4037 70.0833
" />
<path d="M89.2623 73.4148
L91.7243 73.8489
" />
<path d="M90.0437 68.9831
L92.9982 69.5041
" />
<path d="M88.8567 72.8356
L89.2623 73.4148
" />
<path d="M89.4645 69.3887
L90.0437 68.9831
" />
<path d="M101.5750 52.4255 A0.5000 0.5000 0.0 0 0 102.0750 52.9255" />
<path d="M102.0750 56.9255 A1.5000 1.5000 0.0 0 0 100.5750 55.4255" />
<path d="M106.5750 57.6255
L106.5750 57.1255
" />
<path d="M106.5750 53.5255
L106.5750 52.9255
" />
<path d="M106.5750 52.9255
L102.0750 52.9255
" />
<path d="M102.0750 57.6255
L106.5750 57.6255
" />
<path d="M102.0750 56.9255
L102.0750 57.6255
" />
<path d="M101.5750 52.4255
L101.5750 51.4255
" />
<path d="M101.0750 50.9255
L101.5750 51.4255
" />
<path d="M98.0750 55.4255
L100.5750 55.4255
" />
<path d="M98.0750 50.9255
L101.0750 50.9255
" />
<path d="M97.5750 54.9255
L98.0750 55.4255
" />
<path d="M97.5750 51.4255
L98.0750 50.9255
" />
<path d="M83.5750 49.8755 A0.5000 0.5000 0.0 0 0 84.0750 50.3755" />
<path d="M84.0750 54.3755 A1.5000 1.5000 0.0 0 0 82.5750 52.8755" />
<path d="M88.5750 55.0755
L88.5750 54.5755
" />
<path d="M88.5750 50.9755
L88.5750 50.3755
" />
<path d="M88.5750 50.3755
L84.0750 50.3755
" />
<path d="M84.0750 55.0755
L88.5750 55.0755
" />
<path d="M84.0750 54.3755
L84.0750 55.0755
" />
<path d="M83.5750 49.8755
L83.5750 48.8755
" />
<path d="M83.0750 48.3755
L83.5750 48.8755
" />
<path d="M80.0750 52.8755
L82.5750 52.8755
" />
<path d="M80.0750 48.3755
L83.0750 48.3755
" />
<path d="M79.5750 52.3755
L80.0750 52.8755
" />
<path d="M79.5750 48.8755
L80.0750 48.3755
" />
<path d="M65.5750 44.7755 A0.5000 0.5000 0.0 0 0 66.0750 45.2755" />
<path d="M66.0750 49.2755 A1.5000 1.5000 0.0 0 0 64.5750 47.7755" />
<path d="M70.5750 49.9755
L70.5750 49.4755
" />
<path d="M70.5750 45.8755
L70.5750 45.2755
" />
<path d="M70.5750 45.2755
L66.0750 45.2755
" />
<path d="M66.0750 49.9755
L70.5750 49.9755
" />
<path d="M66.0750 49.2755
L66.0750 49.9755
" />
<path d="M65.5750 44.7755
L65.5750 43.7755
" />
<path d="M65.0750 43.2755
L65.5750 43.7755
" />
<path d="M62.0750 47.7755
L64.5750 47.7755
" />
<path d="M62.0750 43.2755
L65.0750 43.2755
" />
<path d="M61.5750 47.2755
L62.0750 47.7755
" />
<path d="M61.5750 43.7755
L62.0750 43.2755
" />
<path d="M43.5750 46.3255
L44.0750 45.8255
" />
<path d="M43.5750 49.8255
L44.0750 50.3255
" />
<path d="M44.0750 45.8255
L47.0750 45.8255
" />
<path d="M44.0750 50.3255
L46.5750 50.3255
" />
<path d="M47.0750 45.8255
L47.5750 46.3255
" />
<path d="M47.5750 47.3255
L47.5750 46.3255
" />
<path d="M48.0750 51.8255
L48.0750 52.5255
" />
<path d="M48.0750 52.5255
L52.5750 52.5255
" />
<path d="M52.5750 47.8255
L48.0750 47.8255
" />
<path d="M52.5750 48.4255
L52.5750 47.8255
" />
<path d="M52.5750 52.5255
L52.5750 52.0255
" />
<path d="M48.0750 51.8255 A1.5000 1.5000 0.0 0 0 46.5750 50.3255" />
<path d="M47.5750 47.3255 A0.5000 0.5000 0.0 0 0 48.0750 47.8255" />
<path d="M29.5750 58.3755 A0.5000 0.5000 0.0 0 0 30.0750 58.8755" />
<path d="M30.0750 62.8755 A1.5000 1.5000 0.0 0 0 28.5750 61.3755" />
<path d="M34.5750 63.5755
L34.5750 63.0755
" />
<path d="M34.5750 59.4755
L34.5750 58.8755
" />
<path d="M34.5750 58.8755
L30.0750 58.8755
" />
<path d="M30.0750 63.5755
L34.5750 63.5755
" />
<path d="M30.0750 62.8755
L30.0750 63.5755
" />
<path d="M29.5750 58.3755
L29.5750 57.3755
" />
<path d="M29.0750 56.8755
L29.5750 57.3755
" />
<path d="M26.0750 61.3755
L28.5750 61.3755
" />
<path d="M26.0750 56.8755
L29.0750 56.8755
" />
<path d="M25.5750 60.8755
L26.0750 61.3755
" />
<path d="M25.5750 57.3755
L26.0750 56.8755
" />
<path d="M11.5750 61.7755 A0.5000 0.5000 0.0 0 0 12.0750 62.2755" />
<path d="M12.0750 66.2755 A1.5000 1.5000 0.0 0 0 10.5750 64.7755" />
<path d="M16.5750 66.9755
L16.5750 66.4755
" />
<path d="M16.5750 62.8755
L16.5750 62.2755
" />
<path d="M16.5750 62.2755
L12.0750 62.2755
" />
<path d="M12.0750 66.9755
L16.5750 66.9755
" />
<path d="M12.0750 66.2755
L12.0750 66.9755
" />
<path d="M11.5750 61.7755
L11.5750 60.7755
" />
<path d="M11.0750 60.2755
L11.5750 60.7755
" />
<path d="M8.0750 64.7755
L10.5750 64.7755
" />
<path d="M8.0750 60.2755
L11.0750 60.2755
" />
<path d="M7.5750 64.2755
L8.0750 64.7755
" />
<path d="M7.5750 60.7755
L8.0750 60.2755
" />
<path d="M101.5750 35.4255 A0.5000 0.5000 0.0 0 0 102.0750 35.9255" />
<path d="M102.0750 39.9255 A1.5000 1.5000 0.0 0 0 100.5750 38.4255" />
<path d="M106.5750 40.6255
L106.5750 40.1255
" />
<path d="M106.5750 36.5255
L106.5750 35.9255
" />
<path d="M106.5750 35.9255
L102.0750 35.9255
" />
<path d="M102.0750 40.6255
L106.5750 40.6255
" />
<path d="M102.0750 39.9255
L102.0750 40.6255
" />
<path d="M101.5750 35.4255
L101.5750 34.4255
" />
<path d="M101.0750 33.9255
L101.5750 34.4255
" />
<path d="M98.0750 38.4255
L100.5750 38.4255
" />
<path d="M98.0750 33.9255
L101.0750 33.9255
" />
<path d="M97.5750 37.9255
L98.0750 38.4255
" />
<path d="M97.5750 34.4255
L98.0750 33.9255
" />
<path d="M83.5750 32.8755 A0.5000 0.5000 0.0 0 0 84.0750 33.3755" />
<path d="M84.0750 37.3755 A1.5000 1.5000 0.0 0 0 82.5750 35.8755" />
<path d="M88.5750 38.0755
L88.5750 37.5755
" />
<path d="M88.5750 33.9755
L88.5750 33.3755
" />
<path d="M88.5750 33.3755
L84.0750 33.3755
" />
<path d="M84.0750 38.0755
L88.5750 38.0755
" />
<path d="M84.0750 37.3755
L84.0750 38.0755
" />
<path d="M83.5750 32.8755
L83.5750 31.8755
" />
<path d="M83.0750 31.3755
L83.5750 31.8755
" />
<path d="M80.0750 35.8755
L82.5750 35.8755
" />
<path d="M80.0750 31.3755
L83.0750 31.3755
" />
<path d="M79.5750 35.3755
L80.0750 35.8755
" />
<path d="M79.5750 31.8755
L80.0750 31.3755
" />
<path d="M65.5750 27.7755 A0.5000 0.5000 0.0 0 0 66.0750 28.2755" />
<path d="M66.0750 32.2755 A1.5000 1.5000 0.0 0 0 64.5750 30.7755" />
<path d="M70.5750 32.9755
L70.5750 32.4755
" />
<path d="M70.5750 28.8755
L70.5750 28.2755
" />
<path d="M70.5750 28.2755
L66.0750 28.2755
" />
<path d="M66.0750 32.9755
L70.5750 32.9755
" />
<path d="M66.0750 32.2755
L66.0750 32.9755
" />
<path d="M65.5750 27.7755
L65.5750 26.7755
" />
<path d="M65.0750 26.2755
L65.5750 26.7755
" />
<path d="M62.0750 30.7755
L64.5750 30.7755
" />
<path d="M62.0750 26.2755
L65.0750 26.2755
" />
<path d="M61.5750 30.2755
L62.0750 30.7755
" />
<path d="M61.5750 26.7755
L62.0750 26.2755
" />
<path d="M43.5750 29.3255
L44.0750 28.8255
" />
<path d="M43.5750 32.8255
L44.0750 33.3255
" />
<path d="M44.0750 28.8255
L47.0750 28.8255
" />
<path d="M44.0750 33.3255
L46.5750 33.3255
" />
<path d="M47.0750 28.8255
L47.5750 29.3255
" />
<path d="M47.5750 30.3255
L47.5750 29.3255
" />
<path d="M48.0750 34.8255
L48.0750 35.5255
" />
<path d="M48.0750 35.5255
L52.5750 35.5255
" />
<path d="M52.5750 30.8255
L48.0750 30.8255
" />
<path d="M52.5750 31.4255
L52.5750 30.8255
" />
<path d="M52.5750 35.5255
L52.5750 35.0255
" />
<path d="M48.0750 34.8255 A1.5000 1.5000 0.0 0 0 46.5750 33.3255" />
<path d="M47.5750 30.3255 A0.5000 0.5000 0.0 0 0 48.0750 30.8255" />
<path d="M29.5750 41.3755 A0.5000 0.5000 0.0 0 0 30.0750 41.8755" />
<path d="M30.0750 45.8755 A1.5000 1.5000 0.0 0 0 28.5750 44.3755" />
<path d="M34.5750 46.5755
L34.5750 46.0755
" />
<path d="M34.5750 42.4755
L34.5750 41.8755
" />
<path d="M34.5750 41.8755
L30.0750 41.8755
" />
<path d="M30.0750 46.5755
L34.5750 46.5755
" />
<path d="M30.0750 45.8755
L30.0750 46.5755
" />
<path d="M29.5750 41.3755
L29.5750 40.3755
" />
<path d="M29.0750 39.8755
L29.5750 40.3755
" />
<path d="M26.0750 44.3755
L28.5750 44.3755
" />
<path d="M26.0750 39.8755
L29.0750 39.8755
" />
<path d="M25.5750 43.8755
L26.0750 44.3755
" />
<path d="M25.5750 40.3755
L26.0750 39.8755
" />
<path d="M11.5750 44.7755 A0.5000 0.5000 0.0 0 0 12.0750 45.2755" />
<path d="M12.0750 49.2755 A1.5000 1.5000 0.0 0 0 10.5750 47.7755" />
<path d="M16.5750 49.9755
L16.5750 49.4755
" />
<path d="M16.5750 45.8755
L16.5750 45.2755
" />
<path d="M16.5750 45.2755
L12.0750 45.2755
" />
<path d="M12.0750 49.9755
L16.5750 49.9755
" />
<path d="M12.0750 49.2755
L12.0750 49.9755
" />
<path d="M11.5750 44.7755
L11.5750 43.7755
" />
<path d="M11.0750 43.2755
L11.5750 43.7755
" />
<path d="M8.0750 47.7755
L10.5750 47.7755
" />
<path d="M8.0750 43.2755
L11.0750 43.2755
" />
<path d="M7.5750 47.2755
L8.0750 47.7755
" />
<path d="M7.5750 43.7755
L8.0750 43.2755
" />
<path d="M101.5750 18.4255 A0.5000 0.5000 0.0 0 0 102.0750 18.9255" />
<path d="M102.0750 22.9255 A1.5000 1.5000 0.0 0 0 100.5750 21.4255" />
<path d="M106.5750 23.6255
L106.5750 23.1255
" />
<path d="M106.5750 19.5255
L106.5750 18.9255
" />
<path d="M106.5750 18.9255
L102.0750 18.9255
" />
<path d="M102.0750 23.6255
L106.5750 23.6255
" />
<path d="M102.0750 22.9255
L102.0750 23.6255
" />
<path d="M101.5750 18.4255
L101.5750 17.4255
" />
<path d="M101.0750 16.9255
L101.5750 17.4255
" />
<path d="M98.0750 21.4255
L100.5750 21.4255
" />
<path d="M98.0750 16.9255
L101.0750 16.9255
" />
<path d="M97.5750 20.9255
L98.0750 21.4255
" />
<path d="M97.5750 17.4255
L98.0750 16.9255
" />
<path d="M83.5750 15.8755 A0.5000 0.5000 0.0 0 0 84.0750 16.3755" />
<path d="M84.0750 20.3755 A1.5000 1.5000 0.0 0 0 82.5750 18.8755" />
<path d="M88.5750 21.0755
L88.5750 20.5755
" />
<path d="M88.5750 16.9755
L88.5750 16.3755
" />
<path d="M88.5750 16.3755
L84.0750 16.3755
" />
<path d="M84.0750 21.0755
L88.5750 21.0755
" />
<path d="M84.0750 20.3755
L84.0750 21.0755
" />
<path d="M83.5750 15.8755
L83.5750 14.8755
" />
<path d="M83.0750 14.3755
L83.5750 14.8755
" />
<path d="M80.0750 18.8755
L82.5750 18.8755
" />
<path d="M80.0750 14.3755
L83.0750 14.3755
" />
<path d="M79.5750 18.3755
L80.0750 18.8755
" />
<path d="M79.5750 14.8755
L80.0750 14.3755
" />
<path d="M65.5750 10.7755 A0.5000 0.5000 0.0 0 0 66.0750 11.2755" />
<path d="M66.0750 15.2755 A1.5000 1.5000 0.0 0 0 64.5750 13.7755" />
<path d="M70.5750 15.9755
L70.5750 15.4755
" />
<path d="M70.5750 11.8755
L70.5750 11.2755
" />
<path d="M70.5750 11.2755
L66.0750 11.2755
" />
<path d="M66.0750 15.9755
L70.5750 15.9755
" />
<path d="M66.0750 15.2755
L66.0750 15.9755
" />
<path d="M65.5750 10.7755
L65.5750 9.7755
" />
<path d="M65.0750 9.2755
L65.5750 9.7755
" />
<path d="M62.0750 13.7755
L64.5750 13.7755
" />
<path d="M62.0750 9.2755
L65.0750 9.2755
" />
<path d="M61.5750 13.2755
L62.0750 13.7755
" />
<path d="M61.5750 9.7755
L62.0750 9.2755
" />
<path d="M43.5750 12.3255
L44.0750 11.8255
" />
<path d="M43.5750 15.8255
L44.0750 16.3255
" />
<path d="M44.0750 11.8255
L47.0750 11.8255
" />
<path d="M44.0750 16.3255
L46.5750 16.3255
" />
<path d="M47.0750 11.8255
L47.5750 12.3255
" />
<path d="M47.5750 13.3255
L47.5750 12.3255
" />
<path d="M48.0750 17.8255
L48.0750 18.5255
" />
<path d="M48.0750 18.5255
L52.5750 18.5255
" />
<path d="M52.5750 13.8255
L48.0750 13.8255
" />
<path d="M52.5750 14.4255
L52.5750 13.8255
" />
<path d="M52.5750 18.5255
L52.5750 18.0255
" />
<path d="M48.0750 17.8255 A1.5000 1.5000 0.0 0 0 46.5750 16.3255" />
<path d="M47.5750 13.3255 A0.5000 0.5000 0.0 0 0 48.0750 13.8255" />
<path d="M29.5750 24.3755 A0.5000 0.5000 0.0 0 0 30.0750 24.8755" />
<path d="M30.0750 28.8755 A1.5000 1.5000 0.0 0 0 28.5750 27.3755" />
<path d="M34.5750 29.5755
L34.5750 29.0755
" />
<path d="M34.5750 25.4755
L34.5750 24.8755
" />
<path d="M34.5750 24.8755
L30.0750 24.8755
" />
<path d="M30.0750 29.5755
L34.5750 29.5755
" />
<path d="M30.0750 28.8755
L30.0750 29.5755
" />
<path d="M29.5750 24.3755
L29.5750 23.3755
" />
<path d="M29.0750 22.8755
L29.5750 23.3755
" />
<path d="M26.0750 27.3755
L28.5750 27.3755
" />
<path d="M26.0750 22.8755
L29.0750 22.8755
" />
<path d="M25.5750 26.8755
L26.0750 27.3755
" />
<path d="M25.5750 23.3755
L26.0750 22.8755
" />
<path d="M11.5750 27.7755 A0.5000 0.5000 0.0 0 0 12.0750 28.2755" />
<path d="M12.0750 32.2755 A1.5000 1.5000 0.0 0 0 10.5750 30.7755" />
<path d="M16.5750 32.9755
L16.5750 32.4755
" />
<path d="M16.5750 28.8755
L16.5750 28.2755
" />
<path d="M16.5750 28.2755
L12.0750 28.2755
" />
<path d="M12.0750 32.9755
L16.5750 32.9755
" />
<path d="M12.0750 32.2755
L12.0750 32.9755
" />
<path d="M11.5750 27.7755
L11.5750 26.7755
" />
<path d="M11.0750 26.2755
L11.5750 26.7755
" />
<path d="M8.0750 30.7755
L10.5750 30.7755
" />
<path d="M8.0750 26.2755
L11.0750 26.2755
" />
<path d="M7.5750 30.2755
L8.0750 30.7755
" />
<path d="M7.5750 26.7755
L8.0750 26.2755
" />
<path d="M162.2350 48.9105
L162.2350 48.2105
" />
<path d="M162.2350 48.9105
L156.3350 48.9105
" />
<path d="M162.2350 48.9105
L156.2350 48.9105
" />
<path d="M162.2350 45.4105
L162.2350 46.0105
" />
<path d="M156.2350 48.9105
L156.2350 48.2105
" />
<path d="M156.2350 45.4105
L162.2350 45.4105
" />
<path d="M156.2350 45.4105
L156.2350 46.0105
" />
<path d="M163.5975 38.2905
L161.7155 38.2905
" />
<path d="M158.6675 38.2905
L159.4295 38.2905
" />
<path d="M154.6035 38.2905
L156.3815 38.2905
" />
<path d="M165.3475 38.4905
L165.3475 43.8905
" />
<path d="M163.5975 38.4905
L163.5975 38.2905
" />
<path d="M163.5975 38.4905
L165.3475 38.4905
" />
<path d="M151.8475 39.9205
L151.8475 42.4605
" />
<path d="M163.5975 43.8905
L165.3475 43.8905
" />
<path d="M163.5975 44.0905
L163.5975 43.8905
" />
<path d="M163.5975 44.0905
L161.7155 44.0905
" />
<path d="M158.6675 44.0905
L159.4295 44.0905
" />
<path d="M154.6035 44.0905
L156.3815 44.0905
" />
<path d="M158.7430 5.0705
L158.7430 7.6105
" />
<path d="M158.7430 5.0705
L161.2830 5.0705
" />
<path d="M158.7430 7.6105
L161.2830 7.6105
" />
<path d="M161.2830 7.6105
L161.2830 5.0705
" />
<path d="M29.4550 54.4355
L29.4550 49.0355
" />
<path d="M30.9550 54.4355
L29.4550 54.4355
" />
<path d="M30.7050 52.2355
L29.7050 52.2355
" />
<path d="M30.2050 52.1355
L30.7050 51.2355
" />
<path d="M29.7050 51.2355
L30.2050 52.1355
" />
<path d="M30.7050 51.2355
L29.7050 51.2355
" />
<path d="M30.9550 49.0355
L30.9550 54.4355
" />
<path d="M30.9550 49.0355
L29.4550 49.0355
" />
<path d="M101.4550 31.4855
L101.4550 26.0855
" />
<path d="M102.9550 31.4855
L101.4550 31.4855
" />
<path d="M102.7050 29.2855
L101.7050 29.2855
" />
<path d="M102.2050 29.1855
L102.7050 28.2855
" />
<path d="M101.7050 28.2855
L102.2050 29.1855
" />
<path d="M102.7050 28.2855
L101.7050 28.2855
" />
<path d="M102.9550 26.0855
L102.9550 31.4855
" />
<path d="M102.9550 26.0855
L101.4550 26.0855
" />
<path d="M48.9550 54.9855
L47.4550 54.9855
" />
<path d="M48.9550 54.9855
L48.9550 60.3855
" />
<path d="M48.7050 57.1855
L47.7050 57.1855
" />
<path d="M47.7050 57.1855
L48.2050 58.0855
" />
<path d="M48.2050 58.0855
L48.7050 57.1855
" />
<path d="M48.7050 58.1855
L47.7050 58.1855
" />
<path d="M48.9550 60.3855
L47.4550 60.3855
" />
<path d="M47.4550 60.3855
L47.4550 54.9855
" />
<path d="M128.4555 99.5538
L131.1555 94.8772
" />
<path d="M129.7545 100.3038
L128.4555 99.5538
" />
<path d="M130.6380 98.2735
L129.7720 97.7735
" />
<path d="M130.2550 97.9369
L131.1380 97.4075
" />
<path d="M130.2720 96.9075
L130.2550 97.9369
" />
<path d="M131.1380 97.4075
L130.2720 96.9075
" />
<path d="M132.4545 95.6272
L129.7545 100.3038
" />
<path d="M132.4545 95.6272
L131.1555 94.8772
" />
<path d="M83.4550 28.9355
L83.4550 23.5355
" />
<path d="M84.9550 28.9355
L83.4550 28.9355
" />
<path d="M84.7050 26.7355
L83.7050 26.7355
" />
<path d="M84.2050 26.6355
L84.7050 25.7355
" />
<path d="M83.7050 25.7355
L84.2050 26.6355
" />
<path d="M84.7050 25.7355
L83.7050 25.7355
" />
<path d="M84.9550 23.5355
L84.9550 28.9355
" />
<path d="M84.9550 23.5355
L83.4550 23.5355
" />
<path d="M90.8441 83.9089
L91.7818 78.5909
" />
<path d="M92.3213 84.1693
L90.8441 83.9089
" />
<path d="M92.4571 81.9594
L91.4723 81.7857
" />
<path d="M91.9821 81.7741
L92.6308 80.9746
" />
<path d="M91.6460 80.8009
L91.9821 81.7741
" />
<path d="M92.6308 80.9746
L91.6460 80.8009
" />
<path d="M93.2590 78.8514
L92.3213 84.1693
" />
<path d="M93.2590 78.8514
L91.7818 78.5909
" />
<path d="M83.4550 62.9355
L83.4550 57.5355
" />
<path d="M84.9550 62.9355
L83.4550 62.9355
" />
<path d="M84.7050 60.7355
L83.7050 60.7355
" />
<path d="M84.2050 60.6355
L84.7050 59.7355
" />
<path d="M83.7050 59.7355
L84.2050 60.6355
" />
<path d="M84.7050 59.7355
L83.7050 59.7355
" />
<path d="M84.9550 57.5355
L84.9550 62.9355
" />
<path d="M84.9550 57.5355
L83.4550 57.5355
" />
<path d="M65.4550 23.8355
L65.4550 18.4355
" />
<path d="M66.9550 23.8355
L65.4550 23.8355
" />
<path d="M66.7050 21.6355
L65.7050 21.6355
" />
<path d="M66.2050 21.5355
L66.7050 20.6355
" />
<path d="M65.7050 20.6355
L66.2050 21.5355
" />
<path d="M66.7050 20.6355
L65.7050 20.6355
" />
<path d="M66.9550 18.4355
L66.9550 23.8355
" />
<path d="M66.9550 18.4355
L65.4550 18.4355
" />
<path d="M29.4550 71.4355
L29.4550 66.0355
" />
<path d="M30.9550 71.4355
L29.4550 71.4355
" />
<path d="M30.7050 69.2355
L29.7050 69.2355
" />
<path d="M30.2050 69.1355
L30.7050 68.2355
" />
<path d="M29.7050 68.2355
L30.2050 69.1355
" />
<path d="M30.7050 68.2355
L29.7050 68.2355
" />
<path d="M30.9550 66.0355
L30.9550 71.4355
" />
<path d="M30.9550 66.0355
L29.4550 66.0355
" />
<path d="M48.9550 37.9855
L47.4550 37.9855
" />
<path d="M48.9550 37.9855
L48.9550 43.3855
" />
<path d="M48.7050 40.1855
L47.7050 40.1855
" />
<path d="M47.7050 40.1855
L48.2050 41.0855
" />
<path d="M48.2050 41.0855
L48.7050 40.1855
" />
<path d="M48.7050 41.1855
L47.7050 41.1855
" />
<path d="M48.9550 43.3855
L47.4550 43.3855
" />
<path d="M47.4550 43.3855
L47.4550 37.9855
" />
<path d="M48.9550 20.9855
L47.4550 20.9855
" />
<path d="M48.9550 20.9855
L48.9550 26.3855
" />
<path d="M48.7050 23.1855
L47.7050 23.1855
" />
<path d="M47.7050 23.1855
L48.2050 24.0855
" />
<path d="M48.2050 24.0855
L48.7050 23.1855
" />
<path d="M48.7050 24.1855
L47.7050 24.1855
" />
<path d="M48.9550 26.3855
L47.4550 26.3855
" />
<path d="M47.4550 26.3855
L47.4550 20.9855
" />
<path d="M11.4550 74.8355
L11.4550 69.4355
" />
<path d="M12.9550 74.8355
L11.4550 74.8355
" />
<path d="M12.7050 72.6355
L11.7050 72.6355
" />
<path d="M12.2050 72.5355
L12.7050 71.6355
" />
<path d="M11.7050 71.6355
L12.2050 72.5355
" />
<path d="M12.7050 71.6355
L11.7050 71.6355
" />
<path d="M12.9550 69.4355
L12.9550 74.8355
" />
<path d="M12.9550 69.4355
L11.4550 69.4355
" />
<path d="M65.4550 40.8355
L65.4550 35.4355
" />
<path d="M66.9550 40.8355
L65.4550 40.8355
" />
<path d="M66.7050 38.6355
L65.7050 38.6355
" />
<path d="M66.2050 38.5355
L66.7050 37.6355
" />
<path d="M65.7050 37.6355
L66.2050 38.5355
" />
<path d="M66.7050 37.6355
L65.7050 37.6355
" />
<path d="M66.9550 35.4355
L66.9550 40.8355
" />
<path d="M66.9550 35.4355
L65.4550 35.4355
" />
<path d="M12.9550 35.4355
L11.4550 35.4355
" />
<path d="M12.9550 35.4355
L12.9550 40.8355
" />
<path d="M12.7050 37.6355
L11.7050 37.6355
" />
<path d="M11.7050 37.6355
L12.2050 38.5355
" />
<path d="M12.2050 38.5355
L12.7050 37.6355
" />
<path d="M12.7050 38.6355
L11.7050 38.6355
" />
<path d="M12.9550 40.8355
L11.4550 40.8355
" />
<path d="M11.4550 40.8355
L11.4550 35.4355
" />
<path d="M101.4550 65.4855
L101.4550 60.0855
" />
<path d="M102.9550 65.4855
L101.4550 65.4855
" />
<path d="M102.7050 63.2855
L101.7050 63.2855
" />
<path d="M102.2050 63.1855
L102.7050 62.2855
" />
<path d="M101.7050 62.2855
L102.2050 63.1855
" />
<path d="M102.7050 62.2855
L101.7050 62.2855
" />
<path d="M102.9550 60.0855
L102.9550 65.4855
" />
<path d="M102.9550 60.0855
L101.4550 60.0855
" />
<path d="M83.4550 45.9355
L83.4550 40.5355
" />
<path d="M84.9550 45.9355
L83.4550 45.9355
" />
<path d="M84.7050 43.7355
L83.7050 43.7355
" />
<path d="M84.2050 43.6355
L84.7050 42.7355
" />
<path d="M83.7050 42.7355
L84.2050 43.6355
" />
<path d="M84.7050 42.7355
L83.7050 42.7355
" />
<path d="M84.9550 40.5355
L84.9550 45.9355
" />
<path d="M84.9550 40.5355
L83.4550 40.5355
" />
<path d="M65.4550 57.8355
L65.4550 52.4355
" />
<path d="M66.9550 57.8355
L65.4550 57.8355
" />
<path d="M66.7050 55.6355
L65.7050 55.6355
" />
<path d="M66.2050 55.5355
L66.7050 54.6355
" />
<path d="M65.7050 54.6355
L66.2050 55.5355
" />
<path d="M66.7050 54.6355
L65.7050 54.6355
" />
<path d="M66.9550 52.4355
L66.9550 57.8355
" />
<path d="M66.9550 52.4355
L65.4550 52.4355
" />
<path d="M29.4550 37.4355
L29.4550 32.0355
" />
<path d="M30.9550 37.4355
L29.4550 37.4355
" />
<path d="M30.7050 35.2355
L29.7050 35.2355
" />
<path d="M30.2050 35.1355
L30.7050 34.2355
" />
<path d="M29.7050 34.2355
L30.2050 35.1355
" />
<path d="M30.7050 34.2355
L29.7050 34.2355
" />
<path d="M30.9550 32.0355
L30.9550 37.4355
" />
<path d="M30.9550 32.0355
L29.4550 32.0355
" />
<path d="M11.4550 57.8355
L11.4550 52.4355
" />
<path d="M12.9550 57.8355
L11.4550 57.8355
" />
<path d="M12.7050 55.6355
L11.7050 55.6355
" />
<path d="M12.2050 55.5355
L12.7050 54.6355
" />
<path d="M11.7050 54.6355
L12.2050 55.5355
" />
<path d="M12.7050 54.6355
L11.7050 54.6355
" />
<path d="M12.9550 52.4355
L12.9550 57.8355
" />
<path d="M12.9550 52.4355
L11.4550 52.4355
" />
<path d="M110.9493 89.9635
L112.7962 84.8892
" />
<path d="M112.3588 90.4766
L110.9493 89.9635
" />
<path d="M112.8764 88.3238
L111.9367 87.9817
" />
<path d="M112.4407 88.0588
L113.2184 87.3841
" />
<path d="M112.2787 87.0420
L112.4407 88.0588
" />
<path d="M113.2184 87.3841
L112.2787 87.0420
" />
<path d="M114.2058 85.4022
L112.3588 90.4766
" />
<path d="M114.2058 85.4022
L112.7962 84.8892
" />
<path d="M101.4550 48.4855
L101.4550 43.0855
" />
<path d="M102.9550 48.4855
L101.4550 48.4855
" />
<path d="M102.7050 46.2855
L101.7050 46.2855
" />
<path d="M102.2050 46.1855
L102.7050 45.2855
" />
<path d="M101.7050 45.2855
L102.2050 46.1855
" />
<path d="M102.7050 45.2855
L101.7050 45.2855
" />
<path d="M102.9550 43.0855
L102.9550 48.4855
" />
<path d="M102.9550 43.0855
L101.4550 43.0855
" />
<g >
</g>
<g >
</g>
<g >
</g>
<g >
</g>
<g >
</g>
<g >
</g>
<g >
</g>
<g >
</g>
<g >
</g>
<g >
</g>
<g >
</g>
<g >
</g>
<g >
</g>
<g >
</g>
<g >
</g>
<g >
</g>
<g >
</g>
<g >
</g>
<g >
</g>
<g >
</g>
<g >
</g>
<g >
</g>
<g >
</g>
<g >
</g>
<g >
</g>
<g >
</g>
<g >
</g>
<g >
</g>
<g >
</g>
<g >
</g>
<g >
</g>
<g >
</g>
<g >
</g>
<g >
</g>
<g >
</g>
<g >
</g>
<g >
</g>
<g >
</g>
<g >
</g>
<g >
</g>
<g >
</g>
<g >
</g>
<g >
</g>
<g >
</g>
<g >
</g>
<g >
</g>
<g >
</g>
<g >
</g>
</g>
<g style="fill:#000000; fill-opacity:0.0; 
stroke:#000000; stroke-width:0.1500; stroke-opacity:1; 
stroke-linecap:round; stroke-linejoin:round;">
<g >
</g>
<g >
</g>
<g >
</g>
<g >
</g>
<g >
</g>
<g >
</g>
<g >
</g>
<g >
</g>
<g >
</g>
<g >
</g>
<g >
</g>
<g >
</g>
<g >
</g>
<g >
</g>
<g >
</g>
<g >
</g>
<g >
</g>
<g >
</g>
<g >
</g>
<g >
</g>
<g >
</g>
<g >
</g>
<g >
</g>
<g >
</g>
<g >
</g>
<g >
</g>
<g >
</g>
<g >
</g>
<g >
</g>
<g >
</g>
<g >
</g>
<g >
</g>
<g >
</g>
<g >
</g>
<g >
</g>
<g >
</g>
<g >
</g>
<g >
</g>
<g >
</g>
<g >
</g>
<g >
</g>
<g >
</g>
<g >
</g>
<g >
</g>
<g >
</g>
<g >
</g>
<g >
</g>
<g >
</g>
</g> 
</svg>
