<?xml version="1.0" encoding="utf-8"?>
<!-- Generator: Fusion 360, Shaper Origin Export Add-In, Version 1.6.10  -->
<svg xmlns="http://www.w3.org/2000/svg" xmlns:xlink="http://www.w3.org/1999/xlink" xmlns:shaper="http://www.shapertools.com/namespaces/shaper" shaper:fusionaddin="version:1.6.10" width="14.5167912cm" height="9.7310912cm" version="1.1" x="0cm" y="0cm" viewBox="0 0 14.5167912 9.7310912" enable-background="new 0 0 14.5167912 9.7310912" xml:space="preserve"><path d="M-19.3274014,-17.7889391 A0.035,0.035 269.991731 0,0 -19.3623964,-17.7539391 L-19.3623964,-16.744934 -19.3623964,-16.663934 A0.075,0.075 0 0,1 -19.4373964,-16.588934 L-19.4433964,-16.588934 -21.2493964,-16.5890549 A0.15,0.15 90 0,1 -21.3993964,-16.7390549 L-21.3993964,-21.850934 A0.15,0.15 180 0,1 -21.2493964,-22.000934 L-21.2433964,-22.000934 -19.4373964,-22.000934 A0.075,0.075 270 0,1 -19.3623964,-21.925934 L-19.3623964,-21.5159543 A0.035,0.035 180 0,0 -19.3273913,-21.4809543 L-19.3166313,-21.4809558 A0.035,0.035 89.991731 0,0 -19.2816364,-21.5159609 L-19.2816954,-21.9250122 A0.075,0.075 179.991731 0,1 -19.2058491,-22.0000182 L-19.2058491,-22.0000182 -19.0042318,-21.9981768 -18.8031952,-21.9972119 -18.6027441,-21.9971304 -18.4028876,-21.9979449 -18.2036389,-21.9996745 -18.0050162,-22.002345 -17.8070428,-22.0059901 -17.609748,-22.010652 -17.413167,-22.0163813 -17.217341,-22.0232381 -17.0223178,-22.0312915 -16.8281514,-22.04062 -16.6349023,-22.051312 -16.4426381,-22.0634656 -16.2514325,-22.0771886 -16.061366,-22.0925985 -15.8725246,-22.1098213 -15.7785919,-22.1191542 -15.6850003,-22.1289913 -15.5917621,-22.1393505 -15.4988899,-22.1502502 -15.4063964,-22.1617093 -15.3142949,-22.1737471 -15.2225987,-22.1863829 -15.1313212,-22.1996368 -15.0404763,-22.2135288 -14.9500777,-22.2280791 -14.8601392,-22.243308 -14.7706748,-22.2592359 -14.6816981,-22.2758831 -14.5932229,-22.2932695 -14.5052629,-22.3114153 -14.4178314,-22.3303402 -14.3309416,-22.3500634 -14.2446065,-22.3706039 -14.1588386,-22.3919803 -14.0736501,-22.4142105 -13.9890527,-22.4373116 -13.9050574,-22.4612998 -13.8216747,-22.4861903 -13.7389139,-22.5119973 -13.6567838,-22.5387332 -13.5752919,-22.5664092 -13.4944447,-22.5950349 -13.4142474,-22.6246179 -13.3347039,-22.655164 -13.2558166,-22.6866768 -13.1022376,-22.7137563 -13.1022376,-22.7137563 -12.9367844,-22.7330889 -12.7707474,-22.7544542 -12.604128,-22.7778681 -12.4369338,-22.8033587 -12.2691831,-22.8309671 -12.1009099,-22.8607478 -11.9321685,-22.8927696 -11.7630385,-22.9271157 -11.6783609,-22.9451904 -11.5936302,-22.963884 -11.508866,-22.9832111 -11.4240903,-23.003187 -11.3393281,-23.023828 -11.254607,-23.0451513 -11.169958,-23.0671748 -11.0854144,-23.089917 -11.0010121,-23.1133968 -10.9167884,-23.1376333 -10.8327818,-23.1626452 -10.7490314,-23.188451 -10.6655762,-23.2150683 -10.582455,-23.2425136 -10.4997053,-23.2708023 -10.4173632,-23.299948 -10.3354627,-23.3299626 -10.2540353,-23.3608555 -10.173109,-23.3926337 -10.0927083,-23.4253012 -10.0128534,-23.4588589 -9.9335595,-23.4933038 -9.8548364,-23.5286291 -9.7766876,-23.5648237 -9.6991102,-23.6018716 -9.6220937,-23.6397516 -9.5456199,-23.678437 -9.469662,-23.7178953 -9.3941848,-23.758088 -9.3191454,-23.7989713 -9.2444943,-23.8404971 -9.1701764,-23.8826137 -9.0222972,-23.9683974 -8.8749908,-24.0558622 -8.7277104,-24.1445348 -8.5799101,-24.2339524 -8.4310744,-24.3236845 -8.2807488,-24.4133565 -8.1285701,-24.5026721 -7.974298,-24.5914369 -7.9561105,-24.6019378 A0.135,0.135 239.9992722 0,1 -7.7716964,-24.5525267 L-6.9111935,-23.0621357 -6.9006926,-23.0439481 A0.135,0.135 329.9992722 0,1 -6.9501037,-22.8595341 L-6.9682947,-22.8490312 -6.9682947,-22.8490312 -6.9980816,-22.8301674 -7.0270916,-22.8107752 -7.0553275,-22.7908566 -7.082794,-22.7704147 -7.1094973,-22.7494539 -7.135445,-22.7279791 -7.1606462,-22.7059966 -7.1851109,-22.6835134 -7.2088504,-22.6605369 -7.2318771,-22.6370757 -7.254204,-22.6131385 -7.2758448,-22.5887348 -7.2968141,-22.5638744 -7.3171267,-22.5385674 -7.336798,-22.5128242 -7.3558435,-22.4866555 -7.374279,-22.4600719 -7.3921208,-22.4330846 -7.409385,-22.4057044 -7.4260879,-22.3779426 -7.442246,-22.3498102 -7.4578757,-22.3213184 -7.4876147,-22.263301 -7.5154337,-22.2039779 -7.541458,-22.1434342 -7.5658077,-22.0817517 -7.5885975,-22.0190083 -7.6099359,-21.9552778 -7.6299248,-21.8906296 -7.6486592,-21.8251283 -7.6662266,-21.7588333 -7.6827065,-21.6917988 -7.6981707,-21.6240735 -7.712683,-21.5557008 -7.7262997,-21.486719 -7.7390696,-21.4171614 -7.7510343,-21.3470562 -7.7622283,-21.2764269 -7.7726791,-21.2052921 -7.7824082,-21.1336665 -7.7914312,-21.0615607 -7.7997587,-20.9889819 -7.8073964,-20.915934 -7.8073964,-15.9918302 A0.15,0.15 0 0,1 -7.9573964,-15.8418302 L-10.0073964,-15.8418302 A0.03,0.03 270 0,0 -10.0373964,-15.8118302 L-10.0373964,-15.809934 -10.0373964,-15.803934 A0.15,0.15 0 0,1 -10.1873964,-15.653934 L-10.1933964,-15.653934 -11.7373964,-15.653934 A0.1,0.1 270 0,0 -11.8373964,-15.553934 L-11.8373964,-15.5541125 -11.8373964,-15.548934 A0.15,0.15 0 0,1 -11.9873964,-15.398934 L-11.9933964,-15.398934 -13.4873964,-15.398934 A0.15,0.15 270 0,0 -13.6373964,-15.248934 L-13.6373964,-15.044934 -13.6373964,-15.038934 A0.15,0.15 0 0,1 -13.7873964,-14.888934 L-15.5933964,-14.888934 -15.5993964,-14.888934 A0.15,0.15 90 0,1 -15.7493964,-15.038934 L-15.7493964,-15.044934 -15.7493964,-15.043934 A0.1,0.1 0 0,0 -15.8493964,-15.143934 L-17.3933964,-15.143934 -17.4065182,-15.143934 A0.15,0.15 90 0,1 -17.5565182,-15.293934 L-17.5565182,-15.299934 -17.5477898,-16.0972922 A0.15,0.15 0.6271719 0,0 -17.6977808,-16.248934 L-19.1993964,-16.248934 -19.2059478,-16.248934 A0.075,0.075 90 0,1 -19.2809478,-16.323934 L-19.2809478,-16.398934 -19.2809478,-16.744934 -19.2810935,-17.7539458 A0.035,0.035 359.991731 0,0 -19.3160985,-17.7889407 L-19.3274014,-17.7889391z" transform="matrix(1,0,0,-1,21.3993964,-14.888934)" stroke="rgb(100,100,100)" stroke-width="0.0010cm" stroke-linecap="round" stroke-linejoin="round" fill="none" /><path d="M-19.3623964,-20.050955 L-19.3623964,-20.970955 A0.035,0.035 180 0,1 -19.3273964,-21.005955 L-19.3219454,-21.005955 -19.3165628,-21.0059558 A0.035,0.035 269.991731 0,1 -19.2815577,-20.9709609 L-19.281425,-20.0509609 A0.035,0.035 359.991731 0,1 -19.3164199,-20.0159558 L-19.3219452,-20.015955 -19.3273964,-20.015955 A0.035,0.035 90 0,1 -19.3623964,-20.050955z" transform="matrix(1,0,0,-1,21.3993964,-14.888934)" stroke="rgb(100,100,100)" stroke-width="0.0010cm" stroke-linecap="round" stroke-linejoin="round" fill="none" /><path d="M-19.3623964,-18.2739399 L-19.3623964,-19.5339399 A0.035,0.035 180 0,1 -19.3273964,-19.5689399 L-19.3220044,-19.5689399 -19.3163554,-19.5689407 A0.035,0.035 269.991731 0,1 -19.2813503,-19.5339458 L-19.2811685,-18.2739458 A0.035,0.035 359.991731 0,1 -19.3161634,-18.2389407 L-19.3218124,-18.2389399 -19.3273964,-18.2389399 A0.035,0.035 90 0,1 -19.3623964,-18.2739399z" transform="matrix(1,0,0,-1,21.3993964,-14.888934)" stroke="rgb(100,100,100)" stroke-width="0.0010cm" stroke-linecap="round" stroke-linejoin="round" fill="none" /></svg>