<?xml version="1.0" standalone="no"?>
 <!DOCTYPE svg PUBLIC "-//W3C//DTD SVG 1.1//EN" 
 "http://www.w3.org/Graphics/SVG/1.1/DTD/svg11.dtd"> 
<svg
  xmlns:svg="http://www.w3.org/2000/svg"
  xmlns="http://www.w3.org/2000/svg"
  xmlns:xlink="http://www.w3.org/1999/xlink"
  version="1.1"
  width="297.0022mm" height="210.0072mm" viewBox="0.0000 0.0000 297.0022 210.0072">
<title>SVG Image created as dream-User_9.svg date 2023/09/17 04:56:39 </title>
  <desc>Image generated by PCBNEW </desc>
<g style="fill:#000000; fill-opacity:1.0000;stroke:#000000; stroke-opacity:1.0000;
stroke-linecap:round; stroke-linejoin:round;"
 transform="translate(0 0) scale(1 1)">
</g>
<g style="fill:#000000; fill-opacity:0.0; 
stroke:#000000; stroke-width:0.0000; stroke-opacity:1; 
stroke-linecap:round; stroke-linejoin:round;">
</g>
<g style="fill:#000000; fill-opacity:0.0; 
stroke:#000000; stroke-width:0.1200; stroke-opacity:1; 
stroke-linecap:round; stroke-linejoin:round;">
<path d="M157.7528 139.1795
L173.3413 148.1795
" />
<path d="M173.3413 148.1795
L181.8413 133.4570
" />
<path d="M181.8413 133.4570
L166.2528 124.4570
" />
<path d="M166.2528 124.4570
L157.7528 139.1795
" />
<path d="M140.1556 132.6192
L157.0701 138.7756
" />
<path d="M157.0701 138.7756
L162.8844 122.8008
" />
<path d="M162.8844 122.8008
L145.9699 116.6444
" />
<path d="M145.9699 116.6444
L140.1556 132.6192
" />
<path d="M121.5528 129.2166
L139.2793 132.3422
" />
<path d="M139.2793 132.3422
L142.2313 115.6005
" />
<path d="M142.2313 115.6005
L124.5048 112.4748
" />
<path d="M124.5048 112.4748
L121.5528 129.2166
" />
<path d="M132.3700 112.7150
L150.3700 112.7150
" />
<path d="M150.3700 112.7150
L150.3700 95.7150
" />
<path d="M150.3700 95.7150
L132.3700 95.7150
" />
<path d="M132.3700 95.7150
L132.3700 112.7150
" />
<path d="M114.3700 110.1650
L132.3700 110.1650
" />
<path d="M132.3700 110.1650
L132.3700 93.1650
" />
<path d="M132.3700 93.1650
L114.3700 93.1650
" />
<path d="M114.3700 93.1650
L114.3700 110.1650
" />
<path d="M96.3700 105.0650
L114.3700 105.0650
" />
<path d="M114.3700 105.0650
L114.3700 88.0650
" />
<path d="M114.3700 88.0650
L96.3700 88.0650
" />
<path d="M96.3700 88.0650
L96.3700 105.0650
" />
<path d="M78.3700 107.6150
L96.3700 107.6150
" />
<path d="M96.3700 107.6150
L96.3700 90.6150
" />
<path d="M96.3700 90.6150
L78.3700 90.6150
" />
<path d="M78.3700 90.6150
L78.3700 107.6150
" />
<path d="M60.3700 118.6650
L78.3700 118.6650
" />
<path d="M78.3700 118.6650
L78.3700 101.6650
" />
<path d="M78.3700 101.6650
L60.3700 101.6650
" />
<path d="M60.3700 101.6650
L60.3700 118.6650
" />
<path d="M39.8700 122.0650
L57.8700 122.0650
" />
<path d="M57.8700 122.0650
L57.8700 105.0650
" />
<path d="M57.8700 105.0650
L39.8700 105.0650
" />
<path d="M39.8700 105.0650
L39.8700 122.0650
" />
<path d="M132.3700 95.7150
L150.3700 95.7150
" />
<path d="M150.3700 95.7150
L150.3700 78.7150
" />
<path d="M150.3700 78.7150
L132.3700 78.7150
" />
<path d="M132.3700 78.7150
L132.3700 95.7150
" />
<path d="M114.3700 93.1650
L132.3700 93.1650
" />
<path d="M132.3700 93.1650
L132.3700 76.1650
" />
<path d="M132.3700 76.1650
L114.3700 76.1650
" />
<path d="M114.3700 76.1650
L114.3700 93.1650
" />
<path d="M96.3700 88.0650
L114.3700 88.0650
" />
<path d="M114.3700 88.0650
L114.3700 71.0650
" />
<path d="M114.3700 71.0650
L96.3700 71.0650
" />
<path d="M96.3700 71.0650
L96.3700 88.0650
" />
<path d="M78.3700 90.6150
L96.3700 90.6150
" />
<path d="M96.3700 90.6150
L96.3700 73.6150
" />
<path d="M96.3700 73.6150
L78.3700 73.6150
" />
<path d="M78.3700 73.6150
L78.3700 90.6150
" />
<path d="M60.3700 101.6650
L78.3700 101.6650
" />
<path d="M78.3700 101.6650
L78.3700 84.6650
" />
<path d="M78.3700 84.6650
L60.3700 84.6650
" />
<path d="M60.3700 84.6650
L60.3700 101.6650
" />
<path d="M39.8700 105.0650
L57.8700 105.0650
" />
<path d="M57.8700 105.0650
L57.8700 88.0650
" />
<path d="M57.8700 88.0650
L39.8700 88.0650
" />
<path d="M39.8700 88.0650
L39.8700 105.0650
" />
<path d="M132.3700 78.7150
L150.3700 78.7150
" />
<path d="M150.3700 78.7150
L150.3700 61.7150
" />
<path d="M150.3700 61.7150
L132.3700 61.7150
" />
<path d="M132.3700 61.7150
L132.3700 78.7150
" />
<path d="M114.3700 76.1650
L132.3700 76.1650
" />
<path d="M132.3700 76.1650
L132.3700 59.1650
" />
<path d="M132.3700 59.1650
L114.3700 59.1650
" />
<path d="M114.3700 59.1650
L114.3700 76.1650
" />
<path d="M96.3700 71.0650
L114.3700 71.0650
" />
<path d="M114.3700 71.0650
L114.3700 54.0650
" />
<path d="M114.3700 54.0650
L96.3700 54.0650
" />
<path d="M96.3700 54.0650
L96.3700 71.0650
" />
<path d="M78.3700 73.6150
L96.3700 73.6150
" />
<path d="M96.3700 73.6150
L96.3700 56.6150
" />
<path d="M96.3700 56.6150
L78.3700 56.6150
" />
<path d="M78.3700 56.6150
L78.3700 73.6150
" />
<path d="M60.3700 84.6650
L78.3700 84.6650
" />
<path d="M78.3700 84.6650
L78.3700 67.6650
" />
<path d="M78.3700 67.6650
L60.3700 67.6650
" />
<path d="M60.3700 67.6650
L60.3700 84.6650
" />
<path d="M39.8700 88.0650
L57.8700 88.0650
" />
<path d="M57.8700 88.0650
L57.8700 71.0650
" />
<path d="M57.8700 71.0650
L39.8700 71.0650
" />
<path d="M39.8700 71.0650
L39.8700 88.0650
" />
<g >
</g>
<g >
</g>
<g >
</g>
<g >
</g>
<g >
</g>
<g >
</g>
<g >
</g>
<g >
</g>
<g >
</g>
<g >
</g>
<g >
</g>
<g >
</g>
<g >
</g>
<g >
</g>
<g >
</g>
<g >
</g>
<g >
</g>
<g >
</g>
<g >
</g>
<g >
</g>
<g >
</g>
<g >
</g>
<g >
</g>
<g >
</g>
<g >
</g>
<g >
</g>
<g >
</g>
<g >
</g>
<g >
</g>
<g >
</g>
<g >
</g>
<g >
</g>
<g >
</g>
<g >
</g>
<g >
</g>
<g >
</g>
<g >
</g>
<g >
</g>
<g >
</g>
<g >
</g>
<g >
</g>
<g >
</g>
<g >
</g>
<g >
</g>
<g >
</g>
<g >
</g>
<g >
</g>
<g >
</g>
</g>
<g style="fill:#000000; fill-opacity:0.0; 
stroke:#000000; stroke-width:0.1200; stroke-opacity:1; 
stroke-linecap:round; stroke-linejoin:round;">
<g >
</g>
<g >
</g>
<g >
</g>
<g >
</g>
<g >
</g>
<g >
</g>
<g >
</g>
<g >
</g>
<g >
</g>
<g >
</g>
<g >
</g>
<g >
</g>
<g >
</g>
<g >
</g>
<g >
</g>
<g >
</g>
<g >
</g>
<g >
</g>
<g >
</g>
<g >
</g>
<g >
</g>
<g >
</g>
<g >
</g>
<g >
</g>
<g >
</g>
<g >
</g>
<g >
</g>
<g >
</g>
<g >
</g>
<g >
</g>
<g >
</g>
<g >
</g>
<g >
</g>
<g >
</g>
<g >
</g>
<g >
</g>
<g >
</g>
<g >
</g>
<g >
</g>
<g >
</g>
<g >
</g>
<g >
</g>
<g >
</g>
<g >
</g>
<g >
</g>
<g >
</g>
<g >
</g>
<g >
</g>
</g> 
</svg>
