0
SECTION
2
HEADER
9
$INSUNITS
70
4
9
$ACADVER
1
AC1014
9
$HANDSEED
5
FFFF
0
ENDSEC
0
SECTION
2
TABLES
0
TABLE
2
VPORT
5
8
100
AcDbSymbolTable
0
ENDTAB
0
TABLE
2
LTYPE
5
5
100
AcDbSymbolTable
0
LTYPE
5
14
100
AcDbSymbolTableRecord
100
AcDbLinetypeTableRecord
2
BYBLOCK
70
0
0
LTYPE
5
15
100
AcDbSymbolTableRecord
100
AcDbLinetypeTableRecord
2
BYLAYER
70
0
0
ENDTAB
0
TABLE
2
LAYER
5
2
100
AcDbSymbolTable
70
2
0
LAYER
5
50
100
AcDbSymbolTableRecord
100
AcDbLayerTableRecord
2
0
70
0
6
CONTINUOUS
0
ENDTAB
0
TABLE
2
STYLE
5
3
100
AcDbSymbolTable
70
1
0
STYLE
5
11
100
AcDbSymbolTableRecord
100
AcDbTextStyleTableRecord
2
STANDARD
70
0
0
ENDTAB
0
TABLE
2
VIEW
5
6
100
AcDbSymbolTable
70
0
0
ENDTAB
0
TABLE
2
UCS
5
7
100
AcDbSymbolTable
70
0
0
ENDTAB
0
TABLE
2
APPID
5
9
100
AcDbSymbolTable
70
2
0
APPID
5
12
100
AcDbSymbolTableRecord
100
AcDbRegAppTableRecord
2
ACAD
70
0
0
ENDTAB
0
TABLE
2
DIMSTYLE
5
A
100
AcDbSymbolTable
70
1
0
ENDTAB
0
TABLE
2
BLOCK_RECORD
5
1
100
AcDbSymbolTable
70
1
0
BLOCK_RECORD
5
1F
100
AcDbSymbolTableRecord
100
AcDbBlockTableRecord
2
*MODEL_SPACE
0
BLOCK_RECORD
5
1B
100
AcDbSymbolTableRecord
100
AcDbBlockTableRecord
2
*PAPER_SPACE
0
ENDTAB
0
ENDSEC
0
SECTION
2
BLOCKS
0
BLOCK
5
20
100
AcDbEntity
100
AcDbBlockBegin
2
*MODEL_SPACE
0
ENDBLK
5
21
100
AcDbEntity
100
AcDbBlockEnd
0
BLOCK
5
1C
100
AcDbEntity
100
AcDbBlockBegin
2
*PAPER_SPACE
0
ENDBLK
5
1D
100
AcDbEntity
100
AcDbBlockEnd
0
ENDSEC
0
SECTION
2
ENTITIES
0
ARC
5
100
100
AcDbEntity
8
0
100
AcDbCircle
10
-119.87396393199957
20
-155.48934049456767
30
0
40
1.5000000000000036
210
0
220
-0
230
1
100
AcDbArc
50
0
51
90
0
LWPOLYLINE
5
101
100
AcDbEntity
8
0
100
AcDbPolyline
90
10
70
1
43
0.0
10
-193.62396393199953
20
-209.70955044562558
42
0.41421356237312473
10
-193.27396393199956
20
-210.05955044562563
10
-193.21945437062425
20
-210.05955044544783
10
-193.16562786769873
20
-210.05955821375639
42
0.41421356237309503
10
-192.81557735890419
20
-209.70960872984094
10
-192.81424960336528
20
-200.50960892875437
42
0.41421356237309503
10
-193.16419908728074
20
-200.15955841995981
10
-193.21945221652646
20
-200.15955044562563
10
-193.27396393199956
20
-200.15955044562563
42
0.41421356237309503
10
-193.62396393199953
20
-200.50955044562562
0
LINE
5
102
100
AcDbEntity
8
0
100
AcDbLine
10
-212.49396393199953
20
-220.00934049456762
30
0
11
-212.43396393199953
21
-220.00934049456762
31
0
0
LINE
5
103
100
AcDbEntity
8
0
100
AcDbLine
10
-155.93396393199956
20
-148.88934049456768
30
0
11
-137.87396393199958
21
-148.88934049456768
31
0
0
ARC
5
104
100
AcDbEntity
8
0
100
AcDbCircle
10
-155.99396393199956
20
-150.38934049456768
30
0
40
1.5000000000000036
210
0
220
-0
230
1
100
AcDbArc
50
90
51
180
0
LINE
5
105
100
AcDbEntity
8
0
100
AcDbLine
10
-118.37396393199955
20
-155.48934049456767
30
0
11
-118.37396393199955
21
-155.54112538240372
31
0
0
LINE
5
106
100
AcDbEntity
8
0
100
AcDbLine
10
-175.56518224720173
20
-152.99934049456766
30
0
11
-175.56518224720173
21
-152.93934049456766
31
0
0
LINE
5
107
100
AcDbEntity
8
0
100
AcDbLine
10
-100.37396393199958
20
-158.09934049456768
30
0
11
-100.37396393199958
21
-158.11830162837344
31
0
0
LINE
5
108
100
AcDbEntity
8
0
100
AcDbLine
10
-69.111935353056495
20
-230.62135699511217
30
0
11
-77.716964324313011
21
-245.52526717332856
31
0
0
ARC
5
109
100
AcDbEntity
8
0
100
AcDbCircle
10
-212.49396393199953
20
-218.5093404945676
30
0
40
1.5000000000000213
210
0
220
0
230
1
100
AcDbArc
50
180
51
270
0
LINE
5
110
100
AcDbEntity
8
0
100
AcDbLine
10
-118.37396393199955
20
-155.54112538240372
30
0
11
-118.37396393199955
21
-155.53934049456765
31
0
0
ARC
5
111
100
AcDbEntity
8
0
100
AcDbCircle
10
-70.176052103728779
20
-229.76446660792993
30
0
40
1.3500000000000174
210
-0
220
0
230
1
100
AcDbArc
50
-30.00072778082578
51
59.99927221916932
0
ARC
5
112
100
AcDbEntity
8
0
100
AcDbCircle
10
-78.886090045361811
20
-244.85025232283851
30
0
40
1.3500000000000045
210
0
220
0
230
1
100
AcDbArc
50
239.99927221917309
51
329.99927221917358
0
LINE
5
113
100
AcDbEntity
8
0
100
AcDbLine
10
-69.111935353056495
20
-230.62135699511217
30
0
11
-69.00692638267995
21
-230.43948145841998
31
0
0
ARC
5
114
100
AcDbEntity
8
0
100
AcDbCircle
10
-193.16636390610356
20
-215.15955816064343
30
0
40
0.34999999999999759
210
-0
220
0
230
1
100
AcDbArc
50
-0.008268998892555857
51
89.991731001113124
0
LINE
5
115
100
AcDbEntity
8
0
100
AcDbLine
10
-78.073963931999614
20
-159.91830162837343
30
0
11
-78.073963931999614
21
-209.15934049456766
31
0
0
LWPOLYLINE
5
116
100
AcDbEntity
8
0
100
AcDbPolyline
90
10
70
1
43
0.0
10
-193.62396393199953
20
-182.73939906590715
10
-193.62396393199953
20
-195.33939892739679
42
0.41421356237309503
10
-193.27396393199956
20
-195.68939892739678
10
-193.22004435053913
20
-195.68939892725984
10
-193.1635539494188
20
-195.68940708002557
42
0.41421356237306534
10
-192.81350344062432
20
-195.33945759611015
10
-192.81168499280062
20
-182.73945772733049
42
0.41421356237309503
10
-193.16163447671607
20
-182.38940721853595
10
-193.21812442945557
20
-182.38939906590716
10
-193.27396393199956
20
-182.38939906590716
42
0.41421356237309503
0
LINE
5
117
100
AcDbEntity
8
0
100
AcDbLine
10
-119.93396393199957
20
-153.98934049456767
30
0
11
-119.87396393199957
21
-153.98934049456767
31
0
0
LINE
5
118
100
AcDbEntity
8
0
100
AcDbLine
10
-119.93396393199957
20
-153.98934049456767
30
0
11
-134.87396393199955
21
-153.98934049456767
31
0
0
ARC
5
119
100
AcDbEntity
8
0
100
AcDbCircle
10
-117.37396393199958
20
-155.53934049456765
30
0
40
0.99999999999997868
210
0
220
0
230
1
100
AcDbArc
50
180
51
270.00000000000159
0
LINE
5
120
100
AcDbEntity
8
0
100
AcDbLine
10
-175.56518224720173
20
-152.99934049456766
30
0
11
-175.47789823284589
21
-160.97292150067278
31
0
0
LINE
5
121
100
AcDbEntity
8
0
100
AcDbLine
10
-157.49396393199956
20
-150.38934049456768
30
0
11
-157.49396393199956
21
-150.44934049456768
31
0
0
LINE
5
122
100
AcDbEntity
8
0
100
AcDbLine
10
-192.80947830385668
20
-163.98934049456761
30
0
11
-192.80947830385668
21
-163.23934049456767
31
0
0
LINE
5
123
100
AcDbEntity
8
0
100
AcDbLine
10
-101.9339639319996
20
-156.53934049456765
30
0
11
-117.37396393199955
21
-156.53934049456765
31
0
0
LINE
5
124
100
AcDbEntity
8
0
100
AcDbLine
10
-155.93396393199956
20
-148.88934049456768
30
0
11
-155.99396393199956
21
-148.88934049456768
31
0
0
LINE
5
125
100
AcDbEntity
8
0
100
AcDbLine
10
-193.27391341955996
20
-214.80954263531737
30
0
11
-193.16631339366398
21
-214.80955816428838
31
0
0
LINE
5
126
100
AcDbEntity
8
0
100
AcDbLine
10
-69.682947431455091
20
-228.49031191562455
30
0
11
-69.501037253238636
21
-228.59534088688116
31
0
0
LINE
5
127
100
AcDbEntity
8
0
100
AcDbLine
10
-157.49396393199956
20
-150.44934049456768
30
0
11
-157.49396393199956
21
-150.43934049456755
31
0
0
ARC
5
128
100
AcDbEntity
8
0
100
AcDbCircle
10
-100.07396393199963
20
-158.1183016283735
30
0
40
0.29999999999995808
210
0
220
0
230
1
100
AcDbArc
50
180
51
270.00000000000273
0
LINE
5
129
100
AcDbEntity
8
0
100
AcDbLine
10
-192.81636390974856
20
-215.15960867308294
30
0
11
-192.81695425776377
21
-219.25012192133175
31
0
0
LINE
5
130
100
AcDbEntity
8
0
100
AcDbLine
10
-213.99396393199953
20
-167.39054856716569
30
0
11
-213.99396393199953
21
-218.5093404945676
31
0
0
ARC
5
131
100
AcDbEntity
8
0
100
AcDbCircle
10
-158.49396393199956
20
-150.43934049456755
30
0
40
0.99999999999997868
210
-0
220
0
230
1
100
AcDbArc
50
-90
51
0
0
ARC
5
132
100
AcDbEntity
8
0
100
AcDbCircle
10
-193.27396393199948
20
-215.15954263167237
30
0
40
0.35000000000003312
210
0
220
-0
230
1
100
AcDbArc
50
89.991731001122432
51
180
0
LINE
5
133
100
AcDbEntity
8
0
100
AcDbLine
10
-79.742980432544172
20
-245.9143690735107
30
0
11
-79.561104895851884
21
-246.01937804388734
31
0
0
ARC
5
134
100
AcDbEntity
8
0
100
AcDbCircle
10
-134.87396393199955
20
-152.48934049456764
30
0
40
1.5000000000000213
210
0
220
0
230
1
100
AcDbArc
50
180
51
270
0
LINE
5
135
100
AcDbEntity
8
0
100
AcDbLine
10
-131.02237571438363
20
-227.13756278779078
30
0
11
-132.55816629222946
21
-226.86676755509453
31
0
0
SPLINE
5
136
100
AcDbEntity
8
0
100
AcDbSpline
70
4
71
5
72
16
73
10
74
0
42
0.000000001
43
0.0000000001
44
0.0000000001
40
0
40
0
40
0
40
0
40
0
40
0
40
0.20000000000000001
40
0.40000000000000002
40
0.60000000000000009
40
0.80000000000000004
40
1
40
1
40
1
40
1
40
1
40
1
41
1
41
1
41
1
41
1
41
1
41
1
41
1
41
1
41
1
41
1
10
-78.073963931999614
20
-209.15934049456766
30
0
10
-77.980603685212287
20
-210.09734734170775
30
0
10
-77.765716868223947
20
-211.95420592377573
30
0
10
-77.358923198947011
20
-214.68205262076364
30
0
10
-76.635865693414019
20
-218.1963157991147
30
0
10
-75.283623579147729
20
-222.28418697745866
30
0
10
-73.617048724321819
20
-225.15679095032419
30
0
10
-71.872953933470882
20
-226.9751773434734
30
0
10
-70.455450151910867
20
-228.01417047074042
30
0
10
-69.682947431455091
20
-228.49031191562455
30
0
0
LINE
5
137
100
AcDbEntity
8
0
100
AcDbLine
10
-193.62396393199953
20
-215.15954263167237
30
0
11
-193.62396393199953
21
-219.25934049456765
31
0
0
LINE
5
138
100
AcDbEntity
8
0
100
AcDbLine
10
-191.99396393199953
20
-162.48934049456764
30
0
11
-192.05947830385668
21
-162.48934049456764
31
0
0
SPLINE
5
139
100
AcDbEntity
8
0
100
AcDbSpline
70
4
71
5
72
16
73
10
74
0
42
0.000000001
43
0.0000000001
44
0.0000000001
40
0
40
0
40
0
40
0
40
0
40
0
40
0.20000000000000001
40
0.40000000000000002
40
0.60000000000000009
40
0.80000000000000004
40
1
40
1
40
1
40
1
40
1
40
1
41
1
41
1
41
1
41
1
41
1
41
1
41
1
41
1
41
1
41
1
10
-132.55816629222946
20
-226.86676755509453
30
0
10
-134.5692684377872
20
-226.04765075038102
30
0
10
-138.69917049917061
20
-224.56805592237191
30
0
10
-145.21682622460881
20
-222.82415214786715
30
0
10
-154.46355573102718
20
-221.31895604829455
30
0
10
-166.63921662518698
20
-220.34873110108862
30
0
10
-176.68242645274773
20
-220.02203418560202
30
0
10
-184.3289793071821
20
-219.94848473137762
30
0
10
-189.47408341744338
20
-219.97101714308187
30
0
10
-192.05849098863496
20
-220.00018240938238
30
0
0
ARC
5
140
100
AcDbEntity
8
0
100
AcDbCircle
10
-174.06518224720168
20
-152.93934049456769
30
0
40
1.5000000000000213
210
0
220
0
230
1
100
AcDbArc
50
90.000000000001094
51
180
0
LINE
5
141
100
AcDbEntity
8
0
100
AcDbLine
10
-136.37396393199958
20
-150.44934049456768
30
0
11
-136.37396393199958
21
-152.48934049456764
31
0
0
ARC
5
142
100
AcDbEntity
8
0
100
AcDbCircle
10
-193.16093451863196
20
-177.53940731590976
30
0
40
0.34999999999999759
210
0
220
0
230
1
100
AcDbArc
50
269.99173100110846
51
359.99173100110744
0
ARC
5
143
100
AcDbEntity
8
0
100
AcDbCircle
10
-212.49396393199953
20
-167.39054856716569
30
0
40
1.5000000000000213
210
0
220
-0
230
1
100
AcDbArc
50
90
51
180
0
ARC
5
144
100
AcDbEntity
8
0
100
AcDbCircle
10
-101.87396393199961
20
-158.03934049456768
30
0
40
1.5000000000000213
210
0
220
-0
230
1
100
AcDbArc
50
0
51
89.99999999999946
0
LINE
5
145
100
AcDbEntity
8
0
100
AcDbLine
10
-212.43396393199953
20
-220.00934049456762
30
0
11
-194.37396393199953
21
-220.00934049456762
31
0
0
ARC
5
146
100
AcDbEntity
8
0
100
AcDbCircle
10
-194.37396393199953
20
-219.25934049456765
30
0
40
0.74999999999999289
210
0
220
0
230
1
100
AcDbArc
50
-90
51
0
0
LINE
5
147
100
AcDbEntity
8
0
100
AcDbLine
10
-101.9339639319996
20
-156.53934049456765
30
0
11
-101.8739639319996
21
-156.53934049456765
31
0
0
ARC
5
148
100
AcDbEntity
8
0
100
AcDbCircle
10
-192.06695426557448
20
-219.25023016227362
30
0
40
0.75000000000001521
210
0
220
0
230
1
100
AcDbArc
50
179.99173100115152
51
270.64656045498549
0
SPLINE
5
149
100
AcDbEntity
8
0
100
AcDbSpline
70
4
71
5
72
26
73
20
74
0
42
0.000000001
43
0.0000000001
44
0.0000000001
40
0
40
0
40
0
40
0
40
0
40
0
40
0.066666666666666666
40
0.13333333333333333
40
0.20000000000000001
40
0.26666666666666666
40
0.33333333333333331
40
0.39999999999999997
40
0.46666666666666662
40
0.53333333333333333
40
0.59999999999999998
40
0.66666666666666663
40
0.73333333333333328
40
0.79999999999999993
40
0.86666666666666659
40
0.93333333333333324
40
1
40
1
40
1
40
1
40
1
40
1
41
1
41
1
41
1
41
1
41
1
41
1
41
1
41
1
41
1
41
1
41
1
41
1
41
1
41
1
41
1
41
1
41
1
41
1
41
1
41
1
10
-79.742980432544172
20
-245.9143690735107
30
0
10
-80.405857264836911
20
-245.53696240758291
30
0
10
-81.721623440140704
20
-244.7792716825671
30
0
10
-83.665311134249407
20
-243.63410402759041
30
0
10
-86.204727010862911
20
-242.09615333614676
30
0
10
-89.335900066901132
20
-240.19115951931681
30
0
10
-92.478724695101775
20
-238.34971374853339
30
0
10
-95.685571643137038
20
-236.61813256007335
30
0
10
-98.993215626974674
20
-235.0328810372159
30
0
10
-102.40875258876923
20
-233.60975562741072
30
0
10
-105.91832164596715
20
-232.34958590081138
30
0
10
-109.49545260960035
20
-231.24347710194337
30
0
10
-113.10884650493736
20
-230.27736463811107
30
0
10
-116.72977645316845
20
-229.4360670195783
30
0
10
-120.33987330216542
20
-228.70708991295967
30
0
10
-123.92891641371413
20
-228.08098297770869
30
0
10
-126.77964143736445
20
-227.65725563712709
30
0
10
-128.90565391895254
20
-227.38126832530494
30
0
10
-130.31768659762031
20
-227.21572349080225
30
0
10
-131.02237571438363
20
-227.13756278779078
30
0
0
ARC
5
150
100
AcDbEntity
8
0
100
AcDbCircle
10
-192.05947830385668
20
-163.23934049456767
30
0
40
0.75000000000002842
210
0
220
-0
230
1
100
AcDbArc
50
90
51
180
0
LINE
5
151
100
AcDbEntity
8
0
100
AcDbLine
10
-100.37396393199958
20
-158.03934049456768
30
0
11
-100.37396393199958
21
-158.09934049456768
31
0
0
ARC
5
152
100
AcDbEntity
8
0
100
AcDbCircle
10
-137.87396393199955
20
-150.38934049456768
30
0
40
1.4999999999999858
210
0
220
-0
230
1
100
AcDbArc
50
0
51
90.000000000001094
0
LINE
5
153
100
AcDbEntity
8
0
100
AcDbLine
10
-194.43396393199953
20
-165.88934049456765
30
0
11
-194.37396393199953
21
-165.88934049456765
31
0
0
LINE
5
154
100
AcDbEntity
8
0
100
AcDbLine
10
-192.80947830385668
20
-167.44934049486034
30
0
11
-192.81093452227702
21
-177.5394578283493
31
0
0
ARC
5
155
100
AcDbEntity
8
0
100
AcDbCircle
10
-176.97780836903391
20
-160.98934049456767
30
0
40
1.4999999999999858
210
-0
220
0
230
1
100
AcDbArc
50
-89.999999999998934
51
0.62717189385931615
0
LINE
5
156
100
AcDbEntity
8
0
100
AcDbLine
10
-174.0651822472017
20
-151.43934049456766
30
0
11
-173.93396393199953
21
-151.43934049456766
31
0
0
LINE
5
157
100
AcDbEntity
8
0
100
AcDbLine
10
-212.49396393199953
20
-165.89054856716569
30
0
11
-194.43396393199953
21
-165.88934049456765
31
0
0
LINE
5
158
100
AcDbEntity
8
0
100
AcDbLine
10
-193.62396393199953
20
-166.63934049456765
30
0
11
-193.62396393199953
21
-167.44934049456765
31
0
0
LINE
5
159
100
AcDbEntity
8
0
100
AcDbLine
10
-100.07396393199961
20
-158.41830162837346
30
0
11
-79.5739639319996
21
-158.41830162837343
31
0
0
LINE
5
160
100
AcDbEntity
8
0
100
AcDbLine
10
-136.37396393199958
20
-150.44934049456768
30
0
11
-136.37396393199958
21
-150.38934049456768
31
0
0
LINE
5
161
100
AcDbEntity
8
0
100
AcDbLine
10
-192.80947830385668
20
-167.44934049486034
30
0
11
-192.80947830385668
21
-163.98934049456761
31
0
0
ARC
5
162
100
AcDbEntity
8
0
100
AcDbCircle
10
-194.37396393199953
20
-166.63934049456765
30
0
40
0.75000000000002842
210
0
220
-0
230
1
100
AcDbArc
50
0
51
90
0
LINE
5
163
100
AcDbEntity
8
0
100
AcDbLine
10
-193.62396393199953
20
-167.44934049456765
30
0
11
-193.62396393199953
21
-177.53939100336268
31
0
0
ARC
5
164
100
AcDbEntity
8
0
100
AcDbCircle
10
-79.573963931999629
20
-159.91830162837346
30
0
40
1.5000000000000213
210
0
220
-0
230
1
100
AcDbArc
50
0
51
89.99999999999892
0
LINE
5
165
100
AcDbEntity
8
0
100
AcDbLine
10
-191.99396393199953
20
-162.48934049456764
30
0
11
-176.97780836903388
21
-162.48934049456764
31
0
0
LINE
5
166
100
AcDbEntity
8
0
100
AcDbLine
10
-173.93396393199953
20
-151.43934049456766
30
0
11
-158.49396393199956
21
-151.43934049456755
31
0
0
LINE
5
167
100
AcDbEntity
8
0
100
AcDbLine
10
-193.27401444443908
20
-177.88939099971768
30
0
11
-193.16098503107156
21
-177.88940731226475
31
0
0
ARC
5
168
100
AcDbEntity
8
0
100
AcDbCircle
10
-193.27396393199956
20
-177.53939100336268
30
0
40
0.34999999999996589
210
0
220
0
230
1
100
AcDbArc
50
180
51
269.99173100112239
0
ENDSEC
0
SECTION
2
OBJECTS
0
DICTIONARY
5
C
100
AcDbDictionary
3
ACAD_GROUP
350
D
3
ACAD_MLINESTYLE
350
17
0
DICTIONARY
5
D
100
AcDbDictionary
0
DICTIONARY
5
1A
330
C
100
AcDbDictionary
0
DICTIONARY
5
17
100
AcDbDictionary
0
ENDSEC
0
EOF
