%TF.GenerationSoftware,KiCad,Pcbnew,7.0.6*%
%TF.CreationDate,2023-09-19T12:27:45+07:00*%
%TF.ProjectId,dream,64726561-6d2e-46b6-9963-61645f706362,rev?*%
%TF.SameCoordinates,Original*%
%TF.FileFunction,Copper,L2,Bot*%
%TF.FilePolarity,Positive*%
%FSLAX46Y46*%
G04 Gerber Fmt 4.6, Leading zero omitted, Abs format (unit mm)*
G04 Created by KiCad (PCBNEW 7.0.6) date 2023-09-19 12:27:45*
%MOMM*%
%LPD*%
G01*
G04 APERTURE LIST*
G04 Aperture macros list*
%AMRotRect*
0 Rectangle, with rotation*
0 The origin of the aperture is its center*
0 $1 length*
0 $2 width*
0 $3 Rotation angle, in degrees counterclockwise*
0 Add horizontal line*
21,1,$1,$2,0,0,$3*%
G04 Aperture macros list end*
%TA.AperFunction,ComponentPad*%
%ADD10C,0.500000*%
%TD*%
%TA.AperFunction,ComponentPad*%
%ADD11C,4.000000*%
%TD*%
%TA.AperFunction,SMDPad,CuDef*%
%ADD12R,2.600000X2.600000*%
%TD*%
%TA.AperFunction,ComponentPad*%
%ADD13C,2.032000*%
%TD*%
%TA.AperFunction,ComponentPad*%
%ADD14O,2.200000X1.600000*%
%TD*%
%TA.AperFunction,ComponentPad*%
%ADD15C,2.000000*%
%TD*%
%TA.AperFunction,SMDPad,CuDef*%
%ADD16RotRect,2.600000X2.600000X340.000000*%
%TD*%
%TA.AperFunction,SMDPad,CuDef*%
%ADD17RotRect,2.600000X2.600000X330.000000*%
%TD*%
%TA.AperFunction,SMDPad,CuDef*%
%ADD18RotRect,2.600000X2.600000X350.000000*%
%TD*%
%TA.AperFunction,ComponentPad*%
%ADD19C,1.524000*%
%TD*%
%TA.AperFunction,SMDPad,CuDef*%
%ADD20R,0.950000X1.300000*%
%TD*%
%TA.AperFunction,SMDPad,CuDef*%
%ADD21RotRect,1.300000X0.950000X60.000000*%
%TD*%
%TA.AperFunction,SMDPad,CuDef*%
%ADD22RotRect,1.300000X0.950000X80.000000*%
%TD*%
%TA.AperFunction,SMDPad,CuDef*%
%ADD23RotRect,1.300000X0.950000X70.000000*%
%TD*%
%TA.AperFunction,ViaPad*%
%ADD24C,0.300000*%
%TD*%
%TA.AperFunction,ViaPad*%
%ADD25C,0.800000*%
%TD*%
%TA.AperFunction,Conductor*%
%ADD26C,0.250000*%
%TD*%
G04 APERTURE END LIST*
D10*
%TO.P,H20,1*%
%TO.N,N/C*%
X81620000Y37435000D03*
X82060000Y38495000D03*
X82060000Y36375000D03*
X83120000Y38935000D03*
D11*
X83120000Y37435000D03*
D10*
X83120000Y35935000D03*
X84180000Y38495000D03*
X84180000Y36375000D03*
X84620000Y37435000D03*
%TD*%
D12*
%TO.P,S17,1,1*%
%TO.N,c5*%
X71225000Y17850000D03*
D13*
X74500000Y6000000D03*
%TO.P,S17,2,2*%
%TO.N,Net-(D17-A)*%
X69500000Y8100000D03*
X79500000Y8100000D03*
D12*
X82775000Y15650000D03*
%TD*%
D10*
%TO.P,H21,1*%
%TO.N,N/C*%
X27900000Y28935000D03*
X28340000Y29995000D03*
X28340000Y27875000D03*
X29400000Y30435000D03*
D11*
X29400000Y28935000D03*
D10*
X29400000Y27435000D03*
X30460000Y29995000D03*
X30460000Y27875000D03*
X30900000Y28935000D03*
%TD*%
D14*
%TO.P,U2,1,SLEEVE*%
%TO.N,unconnected-(U2-SLEEVE-Pad1)*%
X113792500Y9522500D03*
X113792500Y7222500D03*
%TO.P,U2,2,TIP*%
%TO.N,VCC*%
X114892500Y11822500D03*
X114892500Y4922500D03*
%TO.P,U2,3,RING1*%
%TO.N,GND*%
X118892500Y11822500D03*
X118892500Y4922500D03*
%TO.P,U2,4,RING2*%
%TO.N,data*%
X121892500Y11822500D03*
X121892500Y4922500D03*
%TD*%
D15*
%TO.P,SW1,1,1*%
%TO.N,RST*%
X123820000Y1785000D03*
%TO.P,SW1,2,2*%
%TO.N,GND*%
X117320000Y1785000D03*
%TD*%
D12*
%TO.P,S4,1,1*%
%TO.N,c4*%
X53225000Y56950000D03*
D13*
X56500000Y45100000D03*
%TO.P,S4,2,2*%
%TO.N,Net-(D4-A)*%
X51500000Y47200000D03*
X61500000Y47200000D03*
D12*
X64775000Y54750000D03*
%TD*%
%TO.P,S8,1,1*%
%TO.N,c2*%
X17225000Y26350000D03*
D13*
X20500000Y14500000D03*
%TO.P,S8,2,2*%
%TO.N,Net-(D8-A)*%
X15500000Y16600000D03*
X25500000Y16600000D03*
D12*
X28775000Y24150000D03*
%TD*%
%TO.P,S6,1,1*%
%TO.N,c6*%
X89225000Y49300000D03*
D13*
X92500000Y37450000D03*
%TO.P,S6,2,2*%
%TO.N,Net-(D6-A)*%
X87500000Y39550000D03*
X97500000Y39550000D03*
D12*
X100775000Y47100000D03*
%TD*%
D16*
%TO.P,S20,1,1*%
%TO.N,c5*%
X101607527Y-7433713D03*
D13*
X100632081Y-19689187D03*
%TO.P,S20,2,2*%
%TO.N,Net-(D20-A)*%
X96651861Y-16005732D03*
X106048787Y-19425933D03*
D16*
X111708532Y-13451370D03*
%TD*%
D12*
%TO.P,S12,1,1*%
%TO.N,c6*%
X89225000Y32300000D03*
D13*
X92500000Y20450000D03*
%TO.P,S12,2,2*%
%TO.N,Net-(D12-A)*%
X87500000Y22550000D03*
X97500000Y22550000D03*
D12*
X100775000Y30100000D03*
%TD*%
%TO.P,S14,1,1*%
%TO.N,c2*%
X17225000Y9350000D03*
D13*
X20500000Y-2500000D03*
%TO.P,S14,2,2*%
%TO.N,Net-(D14-A)*%
X15500000Y-400000D03*
X25500000Y-400000D03*
D12*
X28775000Y7150000D03*
%TD*%
%TO.P,S10,1,1*%
%TO.N,c4*%
X53225000Y39950000D03*
D13*
X56500000Y28100000D03*
%TO.P,S10,2,2*%
%TO.N,Net-(D10-A)*%
X51500000Y30200000D03*
X61500000Y30200000D03*
D12*
X64775000Y37750000D03*
%TD*%
%TO.P,S13,1,1*%
%TO.N,c1*%
X-3275000Y5950000D03*
D13*
X0Y-5900000D03*
%TO.P,S13,2,2*%
%TO.N,Net-(D13-A)*%
X-5000000Y-3800000D03*
X5000000Y-3800000D03*
D12*
X8275000Y3750000D03*
%TD*%
%TO.P,S16,1,1*%
%TO.N,c4*%
X53225000Y22950000D03*
D13*
X56500000Y11100000D03*
%TO.P,S16,2,2*%
%TO.N,Net-(D16-A)*%
X51500000Y13200000D03*
X61500000Y13200000D03*
D12*
X64775000Y20750000D03*
%TD*%
%TO.P,S7,1,1*%
%TO.N,c1*%
X-3275000Y22950000D03*
D13*
X0Y11100000D03*
%TO.P,S7,2,2*%
%TO.N,Net-(D7-A)*%
X-5000000Y13200000D03*
X5000000Y13200000D03*
D12*
X8275000Y20750000D03*
%TD*%
D17*
%TO.P,S21,1,1*%
%TO.N,c6*%
X121065803Y-15962897D03*
D13*
X117977036Y-27862798D03*
%TO.P,S21,2,2*%
%TO.N,Net-(D21-A)*%
X114696909Y-23544144D03*
X123357163Y-28544144D03*
D17*
X129968396Y-23643153D03*
%TD*%
D12*
%TO.P,S11,1,1*%
%TO.N,c5*%
X71225000Y34850000D03*
D13*
X74500000Y23000000D03*
%TO.P,S11,2,2*%
%TO.N,Net-(D11-A)*%
X69500000Y25100000D03*
X79500000Y25100000D03*
D12*
X82775000Y32650000D03*
%TD*%
%TO.P,S18,1,1*%
%TO.N,c6*%
X89225000Y15300000D03*
D13*
X92500000Y3450000D03*
%TO.P,S18,2,2*%
%TO.N,Net-(D18-A)*%
X87500000Y5550000D03*
X97500000Y5550000D03*
D12*
X100775000Y13100000D03*
%TD*%
%TO.P,S3,1,1*%
%TO.N,c3*%
X35225000Y54400000D03*
D13*
X38500000Y42550000D03*
%TO.P,S3,2,2*%
%TO.N,Net-(D3-A)*%
X33500000Y44650000D03*
X43500000Y44650000D03*
D12*
X46775000Y52200000D03*
%TD*%
D18*
%TO.P,S19,1,1*%
%TO.N,c4*%
X80830004Y-2415238D03*
D13*
X81997518Y-14653907D03*
%TO.P,S19,2,2*%
%TO.N,Net-(D19-A)*%
X77438141Y-11717570D03*
X87286218Y-13454052D03*
D18*
X91822508Y-6587451D03*
%TD*%
D10*
%TO.P,H22,1*%
%TO.N,N/C*%
X81790000Y20455000D03*
X82230000Y21515000D03*
X82230000Y19395000D03*
X83290000Y21955000D03*
D11*
X83290000Y20455000D03*
D10*
X83290000Y18955000D03*
X84350000Y21515000D03*
X84350000Y19395000D03*
X84790000Y20455000D03*
%TD*%
D12*
%TO.P,S9,1,1*%
%TO.N,c3*%
X35225000Y37400000D03*
D13*
X38500000Y25550000D03*
%TO.P,S9,2,2*%
%TO.N,Net-(D9-A)*%
X33500000Y27650000D03*
X43500000Y27650000D03*
D12*
X46775000Y35200000D03*
%TD*%
%TO.P,S5,1,1*%
%TO.N,c5*%
X71225000Y51850000D03*
D13*
X74500000Y40000000D03*
%TO.P,S5,2,2*%
%TO.N,Net-(D5-A)*%
X69500000Y42100000D03*
X79500000Y42100000D03*
D12*
X82775000Y49650000D03*
%TD*%
%TO.P,S15,1,1*%
%TO.N,c3*%
X35225000Y20400000D03*
D13*
X38500000Y8550000D03*
%TO.P,S15,2,2*%
%TO.N,Net-(D15-A)*%
X33500000Y10650000D03*
X43500000Y10650000D03*
D12*
X46775000Y18200000D03*
%TD*%
D10*
%TO.P,H19,1*%
%TO.N,N/C*%
X27660000Y11935000D03*
X28100000Y12995000D03*
X28100000Y10875000D03*
X29160000Y13435000D03*
D11*
X29160000Y11935000D03*
D10*
X29160000Y10435000D03*
X30220000Y12995000D03*
X30220000Y10875000D03*
X30660000Y11935000D03*
%TD*%
D12*
%TO.P,S2,1,1*%
%TO.N,c2*%
X17225000Y43350000D03*
D13*
X20500000Y31500000D03*
%TO.P,S2,2,2*%
%TO.N,Net-(D2-A)*%
X15500000Y33600000D03*
X25500000Y33600000D03*
D12*
X28775000Y41150000D03*
%TD*%
D19*
%TO.P,U1,1,TX0/PD3*%
%TO.N,unconnected-(U1-TX0{slash}PD3-Pad1)*%
X105950000Y44075000D03*
X122488815Y42879255D03*
%TO.P,U1,2,RX1/PD2*%
%TO.N,data*%
X105950000Y41535000D03*
X122488815Y40339255D03*
%TO.P,U1,3,GND*%
%TO.N,GND*%
X105950000Y38995000D03*
X122488815Y37799255D03*
%TO.P,U1,4,GND*%
X105950000Y36455000D03*
X122488815Y35259255D03*
%TO.P,U1,5,2/PD1*%
%TO.N,c1*%
X105950000Y33915000D03*
X122488815Y32719255D03*
%TO.P,U1,6,3/PD0*%
%TO.N,c2*%
X105950000Y31375000D03*
X122488815Y30179255D03*
%TO.P,U1,7,4/PD4*%
%TO.N,c3*%
X105950000Y28835000D03*
X122488815Y27639255D03*
%TO.P,U1,8,5/PC6*%
%TO.N,c4*%
X105950000Y26295000D03*
X122488815Y25099255D03*
%TO.P,U1,9,6/PD7*%
%TO.N,c5*%
X105950000Y23755000D03*
X122488815Y22559255D03*
%TO.P,U1,10,7/PE6*%
%TO.N,c6*%
X105950000Y21215000D03*
X122488815Y20019255D03*
%TO.P,U1,11,8/PB4*%
%TO.N,unconnected-(U1-8{slash}PB4-Pad11)*%
X105950000Y18675000D03*
X122488815Y17479255D03*
%TO.P,U1,12,9/PB5*%
%TO.N,unconnected-(U1-9{slash}PB5-Pad12)*%
X105950000Y16135000D03*
X122488815Y14939255D03*
%TO.P,U1,13,10/PB6*%
%TO.N,unconnected-(U1-10{slash}PB6-Pad13)*%
X107248815Y14939255D03*
X121190000Y16135000D03*
%TO.P,U1,14,16/PB2*%
%TO.N,unconnected-(U1-16{slash}PB2-Pad14)*%
X107248815Y17479255D03*
X121190000Y18675000D03*
%TO.P,U1,15,14/PB3*%
%TO.N,unconnected-(U1-14{slash}PB3-Pad15)*%
X107248815Y20019255D03*
X121190000Y21215000D03*
%TO.P,U1,16,15/PB1*%
%TO.N,unconnected-(U1-15{slash}PB1-Pad16)*%
X107248815Y22559255D03*
X121190000Y23755000D03*
%TO.P,U1,17,A0/PF7*%
%TO.N,r4*%
X107248815Y25099255D03*
X121190000Y26295000D03*
%TO.P,U1,18,A1/PF6*%
%TO.N,r3*%
X107248815Y27639255D03*
X121190000Y28835000D03*
%TO.P,U1,19,A2/PF5*%
%TO.N,r2*%
X107248815Y30179255D03*
X121190000Y31375000D03*
%TO.P,U1,20,A3/PF4*%
%TO.N,r1*%
X107248815Y32719255D03*
X121190000Y33915000D03*
%TO.P,U1,21,VCC*%
%TO.N,VCC*%
X107248815Y35259255D03*
X121190000Y36455000D03*
%TO.P,U1,22,RST*%
%TO.N,RST*%
X107248815Y37799255D03*
X121190000Y38995000D03*
%TO.P,U1,23,GND*%
%TO.N,GND*%
X107248815Y40339255D03*
X121190000Y41535000D03*
%TO.P,U1,24,RAW*%
%TO.N,unconnected-(U1-RAW-Pad24)*%
X107248815Y42879255D03*
X121190000Y44075000D03*
%TD*%
D12*
%TO.P,S1,1,1*%
%TO.N,c1*%
X-3275000Y39950000D03*
D13*
X0Y28100000D03*
%TO.P,S1,2,2*%
%TO.N,Net-(D1-A)*%
X-5000000Y30200000D03*
X5000000Y30200000D03*
D12*
X8275000Y37750000D03*
%TD*%
D20*
%TO.P,D8,1,K*%
%TO.N,r2*%
X23130000Y14965000D03*
%TO.P,D8,2,A*%
%TO.N,Net-(D8-A)*%
X23130000Y18515000D03*
%TD*%
%TO.P,D6,1,K*%
%TO.N,r1*%
X95130000Y37915000D03*
%TO.P,D6,2,A*%
%TO.N,Net-(D6-A)*%
X95130000Y41465000D03*
%TD*%
%TO.P,D15,1,K*%
%TO.N,r3*%
X41130000Y9015000D03*
%TO.P,D15,2,A*%
%TO.N,Net-(D15-A)*%
X41130000Y12565000D03*
%TD*%
D21*
%TO.P,D21,1,K*%
%TO.N,r4*%
X120682500Y-28792195D03*
%TO.P,D21,2,A*%
%TO.N,Net-(D21-A)*%
X122457500Y-25717805D03*
%TD*%
D20*
%TO.P,D5,1,K*%
%TO.N,r1*%
X77130000Y40465000D03*
%TO.P,D5,2,A*%
%TO.N,Net-(D5-A)*%
X77130000Y44015000D03*
%TD*%
D22*
%TO.P,D19,1,K*%
%TO.N,r4*%
X84668309Y-14652667D03*
%TO.P,D19,2,A*%
%TO.N,Net-(D19-A)*%
X85284761Y-11156599D03*
%TD*%
D20*
%TO.P,D17,1,K*%
%TO.N,r3*%
X77130000Y6465000D03*
%TO.P,D17,2,A*%
%TO.N,Net-(D17-A)*%
X77130000Y10015000D03*
%TD*%
%TO.P,D4,1,K*%
%TO.N,r1*%
X59130000Y45565000D03*
%TO.P,D4,2,A*%
%TO.N,Net-(D4-A)*%
X59130000Y49115000D03*
%TD*%
%TO.P,D14,1,K*%
%TO.N,r3*%
X23130000Y-2035000D03*
%TO.P,D14,2,A*%
%TO.N,Net-(D14-A)*%
X23130000Y1515000D03*
%TD*%
%TO.P,D9,1,K*%
%TO.N,r2*%
X41130000Y26015000D03*
%TO.P,D9,2,A*%
%TO.N,Net-(D9-A)*%
X41130000Y29565000D03*
%TD*%
%TO.P,D3,1,K*%
%TO.N,r1*%
X41130000Y43015000D03*
%TO.P,D3,2,A*%
%TO.N,Net-(D3-A)*%
X41130000Y46565000D03*
%TD*%
%TO.P,D13,1,K*%
%TO.N,r3*%
X2630000Y-5435000D03*
%TO.P,D13,2,A*%
%TO.N,Net-(D13-A)*%
X2630000Y-1885000D03*
%TD*%
%TO.P,D10,1,K*%
%TO.N,r2*%
X59130000Y28565000D03*
%TO.P,D10,2,A*%
%TO.N,Net-(D10-A)*%
X59130000Y32115000D03*
%TD*%
%TO.P,D1,1,K*%
%TO.N,r1*%
X2630000Y28565000D03*
%TO.P,D1,2,A*%
%TO.N,Net-(D1-A)*%
X2630000Y32115000D03*
%TD*%
%TO.P,D18,1,K*%
%TO.N,r3*%
X95130000Y3915000D03*
%TO.P,D18,2,A*%
%TO.N,Net-(D18-A)*%
X95130000Y7465000D03*
%TD*%
%TO.P,D11,1,K*%
%TO.N,r2*%
X77130000Y23465000D03*
%TO.P,D11,2,A*%
%TO.N,Net-(D11-A)*%
X77130000Y27015000D03*
%TD*%
%TO.P,D16,1,K*%
%TO.N,r3*%
X59130000Y11565000D03*
%TO.P,D16,2,A*%
%TO.N,Net-(D16-A)*%
X59130000Y15115000D03*
%TD*%
%TO.P,D2,1,K*%
%TO.N,r1*%
X23130000Y31965000D03*
%TO.P,D2,2,A*%
%TO.N,Net-(D2-A)*%
X23130000Y35515000D03*
%TD*%
%TO.P,D7,1,K*%
%TO.N,r2*%
X2630000Y11565000D03*
%TO.P,D7,2,A*%
%TO.N,Net-(D7-A)*%
X2630000Y15115000D03*
%TD*%
D23*
%TO.P,D20,1,K*%
%TO.N,r4*%
X103262513Y-20151742D03*
%TO.P,D20,2,A*%
%TO.N,Net-(D20-A)*%
X104476685Y-16815834D03*
%TD*%
D20*
%TO.P,D12,1,K*%
%TO.N,r2*%
X95130000Y20915000D03*
%TO.P,D12,2,A*%
%TO.N,Net-(D12-A)*%
X95130000Y24465000D03*
%TD*%
D24*
%TO.N,unconnected-(U1-TX0{slash}PD3-Pad1)*%
X108630000Y43485000D03*
%TO.N,unconnected-(U1-9{slash}PB5-Pad12)*%
X115804477Y15910523D03*
X118418000Y14945000D03*
%TO.N,unconnected-(U1-16{slash}PB2-Pad14)*%
X114110000Y18062500D03*
X113384500Y16715000D03*
%TO.N,unconnected-(U1-15{slash}PB1-Pad16)*%
X119370000Y21935000D03*
%TO.N,unconnected-(U1-14{slash}PB3-Pad15)*%
X120010000Y20045000D03*
%TO.N,unconnected-(U1-10{slash}PB6-Pad13)*%
X113980000Y15660500D03*
X114250000Y16655000D03*
X118418000Y15444503D03*
X116200000Y16405000D03*
%TO.N,r4*%
X119520000Y-30585000D03*
X102750000Y-21395000D03*
X86100000Y-15255000D03*
X110050000Y24775000D03*
%TO.N,r3*%
X41150000Y7615000D03*
X23120000Y-3695000D03*
X95180000Y2065000D03*
X113060000Y28425000D03*
X3740000Y-5425000D03*
X59060000Y9935000D03*
X102861897Y45075000D03*
X77150000Y4935000D03*
X102861897Y36693103D03*
X113100000Y34435000D03*
%TO.N,r2*%
X3670000Y11585000D03*
X100150000Y35940500D03*
X59160000Y27005000D03*
X112374652Y34379822D03*
X100140000Y36895000D03*
X23140000Y13265000D03*
X41120000Y24785000D03*
X77160000Y21925000D03*
X112370000Y30475000D03*
X95130000Y19535000D03*
%TO.N,r1*%
X111610000Y33055000D03*
X77150000Y38935000D03*
X23160000Y30605000D03*
X58990000Y44035000D03*
X95110000Y36415000D03*
X3670000Y28595000D03*
X41130000Y41625000D03*
%TO.N,c6*%
X90410500Y46705000D03*
X119397106Y-18732106D03*
X108930000Y13805000D03*
X89375000Y29335000D03*
X89375000Y12005000D03*
X109070000Y21215000D03*
%TO.N,c5*%
X100050907Y-10745907D03*
X71375000Y31595000D03*
X110590000Y22559255D03*
X71504999Y14545000D03*
X71504999Y48925000D03*
X97011977Y-1733023D03*
%TO.N,c4*%
X80830004Y-5805000D03*
X79030000Y575000D03*
X54410500Y37145000D03*
X54410500Y19515000D03*
X53375000Y53845000D03*
X110069477Y11995523D03*
X112090000Y23915000D03*
X112090000Y14016046D03*
%TO.N,c3*%
X36410500Y17075000D03*
X35504999Y50675000D03*
X113059647Y27753601D03*
X62439032Y714032D03*
X112910000Y14105000D03*
X110880500Y11045000D03*
X36410500Y34035000D03*
X113070000Y24215000D03*
X113053721Y25820500D03*
%TO.N,c2*%
X89410000Y1265000D03*
X17375000Y22355000D03*
X94850000Y-2695000D03*
X57880000Y239532D03*
X109410000Y8845000D03*
X17375000Y40055000D03*
X117590000Y24300500D03*
X117640000Y28360500D03*
X111750000Y29704755D03*
X117620000Y29704755D03*
X117610000Y17045000D03*
X117640000Y25820500D03*
D25*
X18410500Y6115000D03*
D24*
%TO.N,c1*%
X107160000Y5395000D03*
X109480000Y30755000D03*
X-3125000Y2615000D03*
X105540000Y9235000D03*
X109610000Y26915000D03*
X109580000Y33915000D03*
X-2830000Y36655000D03*
X109610000Y28285000D03*
X109580000Y29505000D03*
X66029032Y-2875968D03*
X-2089500Y19605000D03*
%TO.N,VCC*%
X114540000Y28205000D03*
X114590000Y23033755D03*
X114540000Y35555000D03*
X114540000Y34389500D03*
X114600000Y25249500D03*
%TO.N,RST*%
X118190000Y40945000D03*
X118200000Y42259500D03*
X118220000Y38995000D03*
%TO.N,Net-(D9-A)*%
X41090000Y28375000D03*
%TO.N,Net-(D8-A)*%
X23110000Y17085000D03*
%TO.N,Net-(D7-A)*%
X2640000Y13615000D03*
%TO.N,Net-(D6-A)*%
X95110000Y40095000D03*
%TO.N,Net-(D5-A)*%
X77140000Y42745000D03*
%TO.N,Net-(D4-A)*%
X59100000Y47805000D03*
%TO.N,Net-(D3-A)*%
X41020000Y45095000D03*
%TO.N,Net-(D21-A)*%
X121730000Y-27215000D03*
%TO.N,Net-(D20-A)*%
X104000000Y-18475000D03*
%TO.N,Net-(D2-A)*%
X23040000Y34125000D03*
%TO.N,Net-(D19-A)*%
X85300000Y-12935000D03*
%TO.N,Net-(D18-A)*%
X95060000Y5935000D03*
%TO.N,Net-(D17-A)*%
X77110000Y8515000D03*
%TO.N,Net-(D16-A)*%
X59100000Y13915000D03*
%TO.N,Net-(D15-A)*%
X41130000Y11265000D03*
%TO.N,Net-(D14-A)*%
X23150000Y325000D03*
%TO.N,Net-(D13-A)*%
X2620000Y-3775000D03*
%TO.N,Net-(D12-A)*%
X95150000Y23225000D03*
%TO.N,Net-(D11-A)*%
X77130000Y25785000D03*
%TO.N,Net-(D10-A)*%
X59120000Y30635000D03*
%TO.N,Net-(D1-A)*%
X2660000Y30925000D03*
%TO.N,GND*%
X116000000Y40339255D03*
X117750000Y34527500D03*
X118870000Y24300500D03*
X118870000Y25820500D03*
X118840000Y28360500D03*
%TO.N,data*%
X113574500Y41792255D03*
%TD*%
D26*
%TO.N,unconnected-(U1-TX0{slash}PD3-Pad1)*%
X122488815Y42879255D02*
X109235745Y42879255D01*
X109235745Y42879255D02*
X108630000Y43485000D01*
%TO.N,unconnected-(U1-RAW-Pad24)*%
X108444560Y44075000D02*
X107248815Y42879255D01*
X121190000Y44075000D02*
X108444560Y44075000D01*
%TO.N,unconnected-(U1-9{slash}PB5-Pad12)*%
X118423745Y14939255D02*
X122488815Y14939255D01*
X105950000Y16135000D02*
X115580000Y16135000D01*
X118418000Y14945000D02*
X118423745Y14939255D01*
X115580000Y16135000D02*
X115804477Y15910523D01*
%TO.N,unconnected-(U1-8{slash}PB4-Pad11)*%
X122380070Y17588000D02*
X122488815Y17479255D01*
X110317070Y17588000D02*
X122380070Y17588000D01*
X109230070Y18675000D02*
X110317070Y17588000D01*
X105950000Y18675000D02*
X109230070Y18675000D01*
%TO.N,unconnected-(U1-16{slash}PB2-Pad14)*%
X121190000Y18675000D02*
X114722500Y18675000D01*
X113384500Y16715000D02*
X108013070Y16715000D01*
X114722500Y18675000D02*
X114110000Y18062500D01*
X108013070Y16715000D02*
X107248815Y17479255D01*
%TO.N,unconnected-(U1-15{slash}PB1-Pad16)*%
X107873070Y21935000D02*
X107248815Y22559255D01*
X119370000Y21935000D02*
X107873070Y21935000D01*
%TO.N,unconnected-(U1-14{slash}PB3-Pad15)*%
X120010000Y20045000D02*
X119984255Y20019255D01*
X119984255Y20019255D02*
X107248815Y20019255D01*
%TO.N,unconnected-(U1-10{slash}PB6-Pad13)*%
X114250000Y16655000D02*
X115950000Y16655000D01*
X118418000Y15444503D02*
X119108497Y16135000D01*
X107248815Y14939255D02*
X113258755Y14939255D01*
X119108497Y16135000D02*
X121190000Y16135000D01*
X113258755Y14939255D02*
X113980000Y15660500D01*
X115950000Y16655000D02*
X116200000Y16405000D01*
%TO.N,r4*%
X86100000Y-15255000D02*
X85270642Y-15255000D01*
X102750000Y-20664255D02*
X103262513Y-20151742D01*
X119520000Y-29954695D02*
X120682500Y-28792195D01*
X109220000Y24775000D02*
X108895745Y25099255D01*
X102750000Y-21395000D02*
X102750000Y-20664255D01*
X110050000Y24775000D02*
X109220000Y24775000D01*
X119520000Y-30585000D02*
X119520000Y-29954695D01*
X85270642Y-15255000D02*
X84668309Y-14652667D01*
X108895745Y25099255D02*
X107248815Y25099255D01*
%TO.N,r3*%
X2640000Y-5425000D02*
X2630000Y-5435000D01*
X3740000Y-5425000D02*
X2640000Y-5425000D01*
X41130000Y7635000D02*
X41150000Y7615000D01*
X59060000Y11495000D02*
X59130000Y11565000D01*
X95180000Y3865000D02*
X95130000Y3915000D01*
X77150000Y6445000D02*
X77130000Y6465000D01*
X59060000Y9935000D02*
X59060000Y11495000D01*
X113100000Y28465000D02*
X113060000Y28425000D01*
X23120000Y-3155000D02*
X23150000Y-3125000D01*
X102861897Y45075000D02*
X102861897Y36693103D01*
X95180000Y2065000D02*
X95180000Y3865000D01*
X23150000Y-2055000D02*
X23130000Y-2035000D01*
X41130000Y9015000D02*
X41130000Y7635000D01*
X113100000Y34435000D02*
X113100000Y28465000D01*
X77150000Y4935000D02*
X77150000Y6445000D01*
X23150000Y-3125000D02*
X23150000Y-2055000D01*
X23120000Y-3695000D02*
X23120000Y-3155000D01*
%TO.N,r2*%
X41120000Y26005000D02*
X41130000Y26015000D01*
X23140000Y13265000D02*
X23140000Y14955000D01*
X23140000Y14955000D02*
X23130000Y14965000D01*
X77160000Y23435000D02*
X77130000Y23465000D01*
X2650000Y11585000D02*
X2630000Y11565000D01*
X3670000Y11585000D02*
X2650000Y11585000D01*
X112370000Y34375170D02*
X112370000Y30475000D01*
X77160000Y21925000D02*
X77160000Y23435000D01*
X95130000Y19535000D02*
X95130000Y20915000D01*
X59160000Y27005000D02*
X59160000Y28535000D01*
X100150000Y36885000D02*
X100140000Y36895000D01*
X100150000Y35940500D02*
X100150000Y36885000D01*
X41120000Y24785000D02*
X41120000Y26005000D01*
X112374652Y34379822D02*
X112370000Y34375170D01*
X59160000Y28535000D02*
X59130000Y28565000D01*
%TO.N,r1*%
X2660000Y28595000D02*
X2630000Y28565000D01*
X23160000Y31935000D02*
X23130000Y31965000D01*
X41130000Y43015000D02*
X41130000Y41625000D01*
X95110000Y37895000D02*
X95130000Y37915000D01*
X3670000Y28595000D02*
X2660000Y28595000D01*
X111274255Y32719255D02*
X111610000Y33055000D01*
X77150000Y38935000D02*
X77150000Y40445000D01*
X77150000Y40445000D02*
X77130000Y40465000D01*
X95110000Y36415000D02*
X95110000Y37895000D01*
X23160000Y30605000D02*
X23160000Y31935000D01*
X107248815Y32719255D02*
X111274255Y32719255D01*
X58990000Y44035000D02*
X58990000Y45425000D01*
X58990000Y45425000D02*
X59130000Y45565000D01*
%TO.N,c6*%
X89375000Y12005000D02*
X89375000Y6575000D01*
X89375000Y15150000D02*
X89375000Y12005000D01*
X92500000Y3450000D02*
X98745000Y-2795000D01*
X92500000Y3450000D02*
X87703539Y3450000D01*
X102170000Y-2795000D02*
X108920000Y3955000D01*
X87703539Y20450000D02*
X85625000Y22528539D01*
X89225000Y15300000D02*
X89375000Y15150000D01*
X85625000Y22528539D02*
X85625000Y30876650D01*
X85625000Y5528539D02*
X85625000Y15011840D01*
X89225000Y49300000D02*
X90410500Y48114500D01*
X120848494Y20019255D02*
X122488815Y20019255D01*
X85625000Y15011840D02*
X91063160Y20450000D01*
X98745000Y-2795000D02*
X102170000Y-2795000D01*
X105950000Y21215000D02*
X108920000Y21215000D01*
X119397106Y-18732106D02*
X117977036Y-20152176D01*
X90410500Y39539500D02*
X92500000Y37450000D01*
X117977036Y-20152176D02*
X117977036Y-27862798D01*
X119652749Y21215000D02*
X120848494Y20019255D01*
X90410500Y46705000D02*
X90410500Y39539500D01*
X90410500Y48114500D02*
X90410500Y46705000D01*
X114937996Y-9222996D02*
X114937996Y-21888770D01*
X92198350Y37450000D02*
X92500000Y37450000D01*
X89375000Y23575000D02*
X92500000Y20450000D01*
X109070000Y21215000D02*
X119652749Y21215000D01*
X121065803Y-15962897D02*
X121065803Y-17063409D01*
X102170000Y-2795000D02*
X108510000Y-2795000D01*
X85625000Y30876650D02*
X92198350Y37450000D01*
X89375000Y32150000D02*
X89375000Y29335000D01*
X108920000Y3955000D02*
X108920000Y13835000D01*
X92500000Y20450000D02*
X87703539Y20450000D01*
X117977036Y-24927810D02*
X117977036Y-27862798D01*
X108510000Y-2795000D02*
X114937996Y-9222996D01*
X108920000Y21215000D02*
X109070000Y21215000D01*
X91063160Y20450000D02*
X92500000Y20450000D01*
X87703539Y3450000D02*
X85625000Y5528539D01*
X114937996Y-21888770D02*
X117977036Y-24927810D01*
X108920000Y13815000D02*
X108930000Y13805000D01*
X121065803Y-17063409D02*
X119397106Y-18732106D01*
X89225000Y32300000D02*
X89375000Y32150000D01*
X89375000Y29335000D02*
X89375000Y23575000D01*
X89375000Y6575000D02*
X92500000Y3450000D01*
X108920000Y13835000D02*
X108920000Y13815000D01*
%TO.N,c5*%
X98404187Y-19689187D02*
X100632081Y-19689187D01*
X81084245Y-584245D02*
X88839422Y-584245D01*
X101607527Y-7433713D02*
X101607527Y-9189288D01*
X71504999Y17570001D02*
X71504999Y14545000D01*
X101607527Y-9189288D02*
X100050907Y-10745907D01*
X71375000Y34700000D02*
X71375000Y31595000D01*
X71504999Y51570001D02*
X71504999Y48925000D01*
X71504999Y48925000D02*
X71504999Y42995001D01*
X71504999Y14545000D02*
X71504999Y8995001D01*
X74198350Y23000000D02*
X67625000Y16426650D01*
X67625000Y6950000D02*
X68575000Y6000000D01*
X67625000Y16426650D02*
X67625000Y6950000D01*
X74500000Y23000000D02*
X74198350Y23000000D01*
X88839422Y-584245D02*
X92175088Y-3919912D01*
X92175088Y-3919912D02*
X95310861Y-7055684D01*
X71225000Y34850000D02*
X71375000Y34700000D01*
X105950000Y23755000D02*
X109229819Y23755000D01*
X71225000Y17850000D02*
X71504999Y17570001D01*
X71375000Y26125000D02*
X74500000Y23000000D01*
X68575000Y6000000D02*
X74500000Y6000000D01*
X69703539Y23000000D02*
X74500000Y23000000D01*
X71504999Y8995001D02*
X74500000Y6000000D01*
X95310861Y-16595861D02*
X98404187Y-19689187D01*
X74500000Y6000000D02*
X81084245Y-584245D01*
X67625000Y25078539D02*
X69703539Y23000000D01*
X74500000Y40000000D02*
X73063160Y40000000D01*
X110425564Y22559255D02*
X110590000Y22559255D01*
X71375000Y31595000D02*
X71375000Y26125000D01*
X71504999Y42995001D02*
X74500000Y40000000D01*
X109229819Y23755000D02*
X110425564Y22559255D01*
X100050907Y-10745907D02*
X99616082Y-11180733D01*
X71225000Y51850000D02*
X71504999Y51570001D01*
X110590000Y22559255D02*
X122488815Y22559255D01*
X94825088Y-3919912D02*
X97011977Y-1733023D01*
X99616082Y-18673188D02*
X100632081Y-19689187D01*
X67625000Y34561840D02*
X67625000Y25078539D01*
X92175088Y-3919912D02*
X94825088Y-3919912D01*
X95310861Y-7055684D02*
X95310861Y-16595861D01*
X73063160Y40000000D02*
X67625000Y34561840D01*
X99616082Y-11180733D02*
X99616082Y-18673188D01*
%TO.N,c4*%
X53375000Y53845000D02*
X53375000Y48225000D01*
X56500000Y28100000D02*
X56198350Y28100000D01*
X51703539Y11100000D02*
X56500000Y11100000D01*
X112090000Y23915000D02*
X109710000Y26295000D01*
X80830004Y-13486393D02*
X81997518Y-14653907D01*
X54410500Y21764500D02*
X54410500Y19515000D01*
X49620000Y21521650D02*
X49620000Y13183539D01*
X54410500Y30189500D02*
X56500000Y28100000D01*
X56500000Y45100000D02*
X50748350Y45100000D01*
X112090000Y23915000D02*
X112090000Y25535000D01*
X54410500Y38764500D02*
X54410500Y37145000D01*
X80830004Y-5805000D02*
X80830004Y-13486393D01*
X49625000Y43976650D02*
X49625000Y30170000D01*
X56500000Y7324110D02*
X65374555Y-1550445D01*
X112090000Y14016046D02*
X110069477Y11995523D01*
X53225000Y22950000D02*
X54410500Y21764500D01*
X109710000Y26295000D02*
X105950000Y26295000D01*
X119500000Y26295000D02*
X120695745Y25099255D01*
X56198350Y28100000D02*
X49620000Y21521650D01*
X65374555Y-1550445D02*
X78478017Y-14653907D01*
X53375000Y56800000D02*
X53375000Y53845000D01*
X53225000Y39950000D02*
X54410500Y38764500D01*
X49620000Y13183539D02*
X51703539Y11100000D01*
X50748350Y45100000D02*
X49625000Y43976650D01*
X49625000Y30170000D02*
X51695000Y28100000D01*
X65374555Y-1550445D02*
X67500000Y575000D01*
X56500000Y11100000D02*
X56500000Y7324110D01*
X120695745Y25099255D02*
X122488815Y25099255D01*
X51695000Y28100000D02*
X56500000Y28100000D01*
X54410500Y37145000D02*
X54410500Y30189500D01*
X53375000Y48225000D02*
X56500000Y45100000D01*
X67500000Y575000D02*
X79030000Y575000D01*
X112850000Y26295000D02*
X119500000Y26295000D01*
X78478017Y-14653907D02*
X81997518Y-14653907D01*
X53225000Y56950000D02*
X53375000Y56800000D01*
X54410500Y13189500D02*
X56500000Y11100000D01*
X80830004Y-2415238D02*
X80830004Y-5805000D01*
X112090000Y25535000D02*
X112850000Y26295000D01*
X54410500Y19515000D02*
X54410500Y13189500D01*
%TO.N,c3*%
X31625000Y20111840D02*
X31625000Y14091316D01*
X35225000Y37400000D02*
X36410500Y36214500D01*
X38198350Y42550000D02*
X31625000Y35976650D01*
X112910000Y14105000D02*
X112910000Y13074500D01*
X36410500Y19214500D02*
X36410500Y17075000D01*
X36410500Y17075000D02*
X36410500Y10639500D01*
X113050000Y24235000D02*
X113050000Y25816779D01*
X46335968Y714032D02*
X62439032Y714032D01*
X38500000Y8550000D02*
X46335968Y714032D01*
X36410500Y27639500D02*
X38500000Y25550000D01*
X31625000Y14091316D02*
X31930000Y13786316D01*
X38500000Y25550000D02*
X37063160Y25550000D01*
X113173993Y27639255D02*
X122488815Y27639255D01*
X105950000Y28835000D02*
X111978248Y28835000D01*
X36410500Y10639500D02*
X38500000Y8550000D01*
X111978248Y28835000D02*
X113173993Y27639255D01*
X38500000Y42550000D02*
X38198350Y42550000D01*
X31625000Y27628539D02*
X33703539Y25550000D01*
X36410500Y34035000D02*
X36410500Y27639500D01*
X37063160Y25550000D02*
X31625000Y20111840D01*
X33703539Y8550000D02*
X38500000Y8550000D01*
X31930000Y10323539D02*
X33703539Y8550000D01*
X36410500Y36214500D02*
X36410500Y34035000D01*
X113050000Y25816779D02*
X113053721Y25820500D01*
X112910000Y13074500D02*
X110880500Y11045000D01*
X35504999Y54120001D02*
X35504999Y50675000D01*
X31930000Y13786316D02*
X31930000Y10323539D01*
X35225000Y20400000D02*
X36410500Y19214500D01*
X31625000Y35976650D02*
X31625000Y27628539D01*
X35504999Y50675000D02*
X35504999Y45545001D01*
X33703539Y25550000D02*
X38500000Y25550000D01*
X113070000Y24215000D02*
X113050000Y24235000D01*
X35225000Y54400000D02*
X35504999Y54120001D01*
X35504999Y45545001D02*
X38500000Y42550000D01*
%TO.N,c2*%
X17375000Y22355000D02*
X17375000Y17625000D01*
X117590000Y25770500D02*
X117640000Y25820500D01*
X17225000Y26350000D02*
X17375000Y26200000D01*
X117640000Y29684755D02*
X117620000Y29704755D01*
X105950000Y31375000D02*
X110079755Y31375000D01*
X117590000Y24300500D02*
X117590000Y25770500D01*
X20500000Y14500000D02*
X15304676Y14500000D01*
X13625000Y29604777D02*
X13625000Y16540000D01*
X17375000Y26200000D02*
X17375000Y22355000D01*
X15665000Y14500000D02*
X20500000Y14500000D01*
X20500000Y31500000D02*
X15520223Y31500000D01*
X13625000Y16540000D02*
X15665000Y14500000D01*
X22170000Y-4170000D02*
X53470468Y-4170000D01*
X13625000Y12820324D02*
X13625000Y-440000D01*
X89410000Y1265000D02*
X93370000Y-2695000D01*
X20500000Y-2500000D02*
X22170000Y-4170000D01*
X93370000Y-2695000D02*
X94850000Y-2695000D01*
X110079755Y31375000D02*
X111750000Y29704755D01*
X15520223Y31500000D02*
X13625000Y29604777D01*
X17225000Y9350000D02*
X18410500Y8164500D01*
X17375000Y34625000D02*
X20500000Y31500000D01*
X17375000Y43200000D02*
X17375000Y40055000D01*
X18410500Y-410500D02*
X20500000Y-2500000D01*
X17375000Y40055000D02*
X17375000Y34625000D01*
X17375000Y17625000D02*
X20500000Y14500000D01*
X117640000Y28360500D02*
X117640000Y29684755D01*
X17225000Y43350000D02*
X17375000Y43200000D01*
X13625000Y-440000D02*
X15685000Y-2500000D01*
X117610000Y17045000D02*
X109410000Y8845000D01*
X18410500Y6115000D02*
X18410500Y-410500D01*
X15304676Y14500000D02*
X13625000Y12820324D01*
X53470468Y-4170000D02*
X57880000Y239532D01*
X18410500Y8164500D02*
X18410500Y6115000D01*
X15685000Y-2500000D02*
X20500000Y-2500000D01*
%TO.N,c1*%
X-6875000Y6620000D02*
X-6875000Y-3821461D01*
X118565749Y35002000D02*
X120848494Y32719255D01*
X105540000Y7885000D02*
X105540000Y9235000D01*
X-3125000Y-2775000D02*
X0Y-5900000D01*
X-2830000Y36655000D02*
X-2830000Y30930000D01*
X105950000Y33915000D02*
X109580000Y33915000D01*
X-1436840Y28100000D02*
X-6875000Y22661840D01*
X-2395000Y11100000D02*
X-6875000Y6620000D01*
X-6875000Y22661840D02*
X-6875000Y13170000D01*
X109580000Y33915000D02*
X111238078Y33915000D01*
X-3125000Y2615000D02*
X-3125000Y-2775000D01*
X-2830000Y39505000D02*
X-2830000Y36655000D01*
X5830283Y-6915999D02*
X9943132Y-2803150D01*
X107160000Y5395000D02*
X107160000Y6265000D01*
X-6875000Y13170000D02*
X-4805000Y11100000D01*
X-3275000Y39950000D02*
X-2830000Y39505000D01*
X17145000Y-4620000D02*
X64285000Y-4620000D01*
X109610000Y26915000D02*
X109610000Y28285000D01*
X-3275000Y5950000D02*
X-3125000Y5800000D01*
X-2089500Y21764500D02*
X-2089500Y19605000D01*
X-6875000Y-3821461D02*
X-4796461Y-5900000D01*
X0Y28100000D02*
X-1436840Y28100000D01*
X-3125000Y5800000D02*
X-3125000Y2615000D01*
X-2830000Y30930000D02*
X0Y28100000D01*
X0Y11100000D02*
X-2395000Y11100000D01*
X-4805000Y11100000D02*
X0Y11100000D01*
X1015999Y-6915999D02*
X5830283Y-6915999D01*
X112325078Y35002000D02*
X118565749Y35002000D01*
X107160000Y6265000D02*
X105540000Y7885000D01*
X109580000Y29505000D02*
X109580000Y30655000D01*
X15328150Y-2803150D02*
X17145000Y-4620000D01*
X109580000Y30655000D02*
X109480000Y30755000D01*
X-2089500Y19605000D02*
X-2089500Y13189500D01*
X111238078Y33915000D02*
X112325078Y35002000D01*
X64285000Y-4620000D02*
X66029032Y-2875968D01*
X0Y-5900000D02*
X1015999Y-6915999D01*
X-3275000Y22950000D02*
X-2089500Y21764500D01*
X-4796461Y-5900000D02*
X0Y-5900000D01*
X120848494Y32719255D02*
X122488815Y32719255D01*
X9943132Y-2803150D02*
X15328150Y-2803150D01*
X-2089500Y13189500D02*
X0Y11100000D01*
%TO.N,VCC*%
X114540000Y34389500D02*
X114540000Y28205000D01*
X115217500Y5247500D02*
X114892500Y4922500D01*
X114600000Y25249500D02*
X114600000Y23043755D01*
X107248815Y35259255D02*
X108444560Y36455000D01*
X114530000Y36455000D02*
X114530000Y35565000D01*
X115217500Y11497500D02*
X115217500Y5247500D01*
X114600000Y23043755D02*
X114590000Y23033755D01*
X114892500Y11822500D02*
X115217500Y11497500D01*
X108444560Y36455000D02*
X114530000Y36455000D01*
X114530000Y35565000D02*
X114540000Y35555000D01*
X114530000Y36455000D02*
X121190000Y36455000D01*
%TO.N,RST*%
X118200000Y42259500D02*
X118200000Y40955000D01*
X118220000Y38995000D02*
X108444560Y38995000D01*
X118200000Y40955000D02*
X118190000Y40945000D01*
X121190000Y38995000D02*
X118220000Y38995000D01*
X108444560Y38995000D02*
X107248815Y37799255D01*
%TO.N,Net-(D9-A)*%
X41090000Y29525000D02*
X41130000Y29565000D01*
X46775000Y30925000D02*
X43500000Y27650000D01*
X41090000Y28375000D02*
X41090000Y29525000D01*
X46775000Y35200000D02*
X46775000Y30925000D01*
%TO.N,Net-(D8-A)*%
X28775000Y19875000D02*
X25500000Y16600000D01*
X28775000Y24150000D02*
X28775000Y19875000D01*
X23130000Y17105000D02*
X23110000Y17085000D01*
X23130000Y18515000D02*
X23130000Y17105000D01*
X25500000Y16600000D02*
X23595000Y16600000D01*
X23595000Y16600000D02*
X23110000Y17085000D01*
%TO.N,Net-(D7-A)*%
X2630000Y15115000D02*
X2630000Y13625000D01*
X8275000Y20750000D02*
X8275000Y16475000D01*
X2630000Y13625000D02*
X2640000Y13615000D01*
X8275000Y16475000D02*
X5000000Y13200000D01*
%TO.N,Net-(D6-A)*%
X100775000Y42825000D02*
X97500000Y39550000D01*
X95110000Y41445000D02*
X95130000Y41465000D01*
X95110000Y40095000D02*
X95110000Y41445000D01*
X100775000Y47100000D02*
X100775000Y42825000D01*
%TO.N,Net-(D5-A)*%
X77140000Y42745000D02*
X77140000Y44005000D01*
X77140000Y44005000D02*
X77130000Y44015000D01*
X82775000Y45375000D02*
X79500000Y42100000D01*
X82775000Y49650000D02*
X82775000Y45375000D01*
%TO.N,Net-(D4-A)*%
X64775000Y50475000D02*
X61500000Y47200000D01*
X59100000Y47805000D02*
X59100000Y49085000D01*
X64775000Y54750000D02*
X64775000Y50475000D01*
X59100000Y49085000D02*
X59130000Y49115000D01*
%TO.N,Net-(D3-A)*%
X41020000Y45095000D02*
X41020000Y46455000D01*
X46775000Y47925000D02*
X43500000Y44650000D01*
X41020000Y46455000D02*
X41130000Y46565000D01*
X46775000Y52200000D02*
X46775000Y47925000D01*
%TO.N,Net-(D21-A)*%
X123357163Y-28544144D02*
X123059144Y-28544144D01*
X123059144Y-28544144D02*
X121730000Y-27215000D01*
X121730000Y-27215000D02*
X121730000Y-26445305D01*
X125067405Y-28544144D02*
X123357163Y-28544144D01*
X121730000Y-26445305D02*
X122457500Y-25717805D01*
X129968396Y-23643153D02*
X125067405Y-28544144D01*
%TO.N,Net-(D20-A)*%
X104000000Y-17292519D02*
X104476685Y-16815834D01*
X111708532Y-14834801D02*
X107117400Y-19425933D01*
X111708532Y-13451370D02*
X111708532Y-14834801D01*
X104000000Y-18475000D02*
X104000000Y-17292519D01*
X107117400Y-19425933D02*
X106048787Y-19425933D01*
%TO.N,Net-(D2-A)*%
X28775000Y36875000D02*
X25500000Y33600000D01*
X28775000Y41150000D02*
X28775000Y36875000D01*
X23040000Y35425000D02*
X23130000Y35515000D01*
X23040000Y34125000D02*
X23040000Y35425000D01*
%TO.N,Net-(D19-A)*%
X91822508Y-6587451D02*
X91822508Y-8917762D01*
X91822508Y-8917762D02*
X87286218Y-13454052D01*
X85300000Y-11171838D02*
X85284761Y-11156599D01*
X85300000Y-12935000D02*
X85300000Y-11171838D01*
%TO.N,Net-(D18-A)*%
X95060000Y5935000D02*
X95060000Y7395000D01*
X100775000Y8825000D02*
X97500000Y5550000D01*
X100775000Y13100000D02*
X100775000Y8825000D01*
X95060000Y7395000D02*
X95130000Y7465000D01*
%TO.N,Net-(D17-A)*%
X82775000Y11375000D02*
X79500000Y8100000D01*
X82775000Y15650000D02*
X82775000Y11375000D01*
X77110000Y8515000D02*
X77110000Y9995000D01*
X77110000Y9995000D02*
X77130000Y10015000D01*
%TO.N,Net-(D16-A)*%
X59100000Y15085000D02*
X59130000Y15115000D01*
X59100000Y13915000D02*
X59100000Y15085000D01*
X64775000Y16475000D02*
X61500000Y13200000D01*
X64775000Y20750000D02*
X64775000Y16475000D01*
%TO.N,Net-(D15-A)*%
X46775000Y18200000D02*
X46775000Y13925000D01*
X46775000Y13925000D02*
X43500000Y10650000D01*
X41130000Y12565000D02*
X41130000Y11265000D01*
%TO.N,Net-(D14-A)*%
X25500000Y-400000D02*
X23875000Y-400000D01*
X23130000Y1515000D02*
X23130000Y345000D01*
X28775000Y2875000D02*
X25500000Y-400000D01*
X23130000Y345000D02*
X23150000Y325000D01*
X28775000Y7150000D02*
X28775000Y2875000D01*
X23875000Y-400000D02*
X23150000Y325000D01*
%TO.N,Net-(D13-A)*%
X2620000Y-3775000D02*
X2620000Y-1895000D01*
X5025000Y-3800000D02*
X5000000Y-3800000D01*
X8275000Y-550000D02*
X5025000Y-3800000D01*
X5000000Y-3800000D02*
X2645000Y-3800000D01*
X2645000Y-3800000D02*
X2620000Y-3775000D01*
X8275000Y3750000D02*
X8275000Y-550000D01*
X2620000Y-1895000D02*
X2630000Y-1885000D01*
%TO.N,Net-(D12-A)*%
X100775000Y30100000D02*
X100775000Y25825000D01*
X100775000Y25825000D02*
X97500000Y22550000D01*
X95150000Y23225000D02*
X95150000Y24445000D01*
X95150000Y24445000D02*
X95130000Y24465000D01*
%TO.N,Net-(D11-A)*%
X82775000Y28375000D02*
X79500000Y25100000D01*
X82775000Y32650000D02*
X82775000Y28375000D01*
X77130000Y25785000D02*
X77130000Y27015000D01*
%TO.N,Net-(D10-A)*%
X59120000Y32105000D02*
X59130000Y32115000D01*
X64775000Y37750000D02*
X64775000Y33475000D01*
X59120000Y30635000D02*
X59120000Y32105000D01*
X64775000Y33475000D02*
X61500000Y30200000D01*
%TO.N,Net-(D1-A)*%
X8275000Y37750000D02*
X8275000Y33475000D01*
X2660000Y32085000D02*
X2630000Y32115000D01*
X2660000Y30925000D02*
X2660000Y32085000D01*
X8275000Y33475000D02*
X5000000Y30200000D01*
%TO.N,GND*%
X119994255Y40339255D02*
X121190000Y41535000D01*
X117320000Y1785000D02*
X118892500Y3357500D01*
X105950000Y38995000D02*
X105950000Y39040440D01*
X105950000Y39040440D02*
X107248815Y40339255D01*
X118892500Y11822500D02*
X118892500Y4922500D01*
X107248815Y40339255D02*
X116000000Y40339255D01*
X118870000Y24300500D02*
X118870000Y25820500D01*
X122488815Y37799255D02*
X122488815Y35259255D01*
X118840000Y33437500D02*
X117750000Y34527500D01*
X116000000Y40339255D02*
X119994255Y40339255D01*
X105950000Y36455000D02*
X105950000Y38995000D01*
X118840000Y28360500D02*
X118840000Y33437500D01*
X118892500Y3357500D02*
X118892500Y4922500D01*
%TO.N,unconnected-(U2-SLEEVE-Pad1)*%
X113792500Y7222500D02*
X113792500Y9522500D01*
%TO.N,data*%
X123575815Y13505815D02*
X121892500Y11822500D01*
X105692745Y41792255D02*
X105950000Y41535000D01*
X121892500Y11822500D02*
X121892500Y4922500D01*
X122488815Y40339255D02*
X123575815Y39252255D01*
X123575815Y39252255D02*
X123575815Y13505815D01*
X113574500Y41792255D02*
X105692745Y41792255D01*
%TD*%
M02*
